G04*
G04 #@! TF.GenerationSoftware,Altium Limited,Altium Designer,19.1.8 (144)*
G04*
G04 Layer_Color=8388736*
%FSLAX44Y44*%
%MOMM*%
G71*
G01*
G75*
%ADD10C,0.2000*%
%ADD104C,0.1000*%
D10*
X416126Y368200D02*
X424124D01*
Y364201D01*
X422791Y362868D01*
X420125D01*
X418792Y364201D01*
Y368200D01*
Y365534D02*
X416126Y362868D01*
Y360202D02*
Y357537D01*
Y358870D01*
X424124D01*
X422791Y360202D01*
X424124Y348206D02*
X422791Y350872D01*
X420125Y353538D01*
X417459D01*
X416126Y352205D01*
Y349539D01*
X417459Y348206D01*
X418792D01*
X420125Y349539D01*
Y353538D01*
X422791Y345541D02*
X424124Y344207D01*
Y341542D01*
X422791Y340209D01*
X421458D01*
X420125Y341542D01*
Y342875D01*
Y341542D01*
X418792Y340209D01*
X417459D01*
X416126Y341542D01*
Y344207D01*
X417459Y345541D01*
X499747Y602986D02*
X491750D01*
Y598987D01*
X493083Y597654D01*
X498414D01*
X499747Y598987D01*
Y602986D01*
X491750Y594989D02*
Y592323D01*
Y593656D01*
X499747D01*
X498414Y594989D01*
X269254Y419950D02*
Y427947D01*
X273252D01*
X274585Y426614D01*
Y423948D01*
X273252Y422615D01*
X269254D01*
X271919D02*
X274585Y419950D01*
X277251D02*
X279917D01*
X278584D01*
Y427947D01*
X277251Y426614D01*
X289247Y427947D02*
X286581Y426614D01*
X283916Y423948D01*
Y421283D01*
X285248Y419950D01*
X287914D01*
X289247Y421283D01*
Y422615D01*
X287914Y423948D01*
X283916D01*
X297244Y419950D02*
X291913D01*
X297244Y425281D01*
Y426614D01*
X295912Y427947D01*
X293246D01*
X291913Y426614D01*
X-289301Y368200D02*
X-281304D01*
Y364201D01*
X-282637Y362868D01*
X-285303D01*
X-286635Y364201D01*
Y368200D01*
Y365534D02*
X-289301Y362868D01*
Y354871D02*
Y360202D01*
X-283970Y354871D01*
X-282637D01*
X-281304Y356204D01*
Y358870D01*
X-282637Y360202D01*
Y352205D02*
X-281304Y350872D01*
Y348206D01*
X-282637Y346873D01*
X-283970D01*
X-285303Y348206D01*
X-286635Y346873D01*
X-287968D01*
X-289301Y348206D01*
Y350872D01*
X-287968Y352205D01*
X-286635D01*
X-285303Y350872D01*
X-283970Y352205D01*
X-282637D01*
X-285303Y350872D02*
Y348206D01*
X-339301Y368200D02*
X-331304D01*
Y364201D01*
X-332637Y362868D01*
X-335303D01*
X-336636Y364201D01*
Y368200D01*
Y365534D02*
X-339301Y362868D01*
Y354871D02*
Y360202D01*
X-333970Y354871D01*
X-332637D01*
X-331304Y356204D01*
Y358870D01*
X-332637Y360202D01*
X-337968Y352205D02*
X-339301Y350872D01*
Y348206D01*
X-337968Y346873D01*
X-332637D01*
X-331304Y348206D01*
Y350872D01*
X-332637Y352205D01*
X-333970D01*
X-335303Y350872D01*
Y346873D01*
X304536Y368200D02*
X312533D01*
Y364201D01*
X311200Y362868D01*
X308535D01*
X307202Y364201D01*
Y368200D01*
Y365534D02*
X304536Y362868D01*
Y360202D02*
Y357537D01*
Y358870D01*
X312533D01*
X311200Y360202D01*
X312533Y348206D02*
Y353538D01*
X308535D01*
X309867Y350872D01*
Y349539D01*
X308535Y348206D01*
X305869D01*
X304536Y349539D01*
Y352205D01*
X305869Y353538D01*
X312533Y345541D02*
Y340209D01*
X311200D01*
X305869Y345541D01*
X304536D01*
X267339Y368200D02*
X275336D01*
Y364201D01*
X274004Y362868D01*
X271338D01*
X270005Y364201D01*
Y368200D01*
Y365534D02*
X267339Y362868D01*
Y360202D02*
Y357537D01*
Y358870D01*
X275336D01*
X274004Y360202D01*
X275336Y348206D02*
Y353538D01*
X271338D01*
X272670Y350872D01*
Y349539D01*
X271338Y348206D01*
X268672D01*
X267339Y349539D01*
Y352205D01*
X268672Y353538D01*
X274004Y345541D02*
X275336Y344208D01*
Y341542D01*
X274004Y340209D01*
X272670D01*
X271338Y341542D01*
X270005Y340209D01*
X268672D01*
X267339Y341542D01*
Y344208D01*
X268672Y345541D01*
X270005D01*
X271338Y344208D01*
X272670Y345541D01*
X274004D01*
X271338Y344208D02*
Y341542D01*
X230142Y368200D02*
X238139D01*
Y364201D01*
X236807Y362868D01*
X234141D01*
X232808Y364201D01*
Y368200D01*
Y365534D02*
X230142Y362868D01*
Y360202D02*
Y357537D01*
Y358870D01*
X238139D01*
X236807Y360202D01*
X238139Y348206D02*
Y353538D01*
X234141D01*
X235474Y350872D01*
Y349539D01*
X234141Y348206D01*
X231475D01*
X230142Y349539D01*
Y352205D01*
X231475Y353538D01*
Y345541D02*
X230142Y344208D01*
Y341542D01*
X231475Y340209D01*
X236807D01*
X238139Y341542D01*
Y344208D01*
X236807Y345541D01*
X235474D01*
X234141Y344208D01*
Y340209D01*
X147250Y304250D02*
Y296253D01*
X143251D01*
X141918Y297586D01*
Y300251D01*
X143251Y301584D01*
X147250D01*
X144584D02*
X141918Y304250D01*
X139253D02*
X136587D01*
X137920D01*
Y296253D01*
X139253Y297586D01*
X127256Y296253D02*
X129922Y297586D01*
X132588Y300251D01*
Y302917D01*
X131255Y304250D01*
X128589D01*
X127256Y302917D01*
Y301584D01*
X128589Y300251D01*
X132588D01*
X124591Y304250D02*
X121925D01*
X123258D01*
Y296253D01*
X124591Y297586D01*
X764250Y272750D02*
X756253D01*
Y276749D01*
X757586Y278082D01*
X760251D01*
X761584Y276749D01*
Y272750D01*
Y275416D02*
X764250Y278082D01*
Y280747D02*
Y283413D01*
Y282080D01*
X756253D01*
X757586Y280747D01*
X756253Y292743D02*
X757586Y290078D01*
X760251Y287412D01*
X762917D01*
X764250Y288745D01*
Y291411D01*
X762917Y292743D01*
X761584D01*
X760251Y291411D01*
Y287412D01*
X757586Y295409D02*
X756253Y296742D01*
Y299408D01*
X757586Y300741D01*
X762917D01*
X764250Y299408D01*
Y296742D01*
X762917Y295409D01*
X757586D01*
X155748Y368200D02*
X163746D01*
Y364201D01*
X162413Y362868D01*
X159747D01*
X158414Y364201D01*
Y368200D01*
Y365534D02*
X155748Y362868D01*
X162413Y360202D02*
X163746Y358870D01*
Y356204D01*
X162413Y354871D01*
X161080D01*
X159747Y356204D01*
X158414Y354871D01*
X157081D01*
X155748Y356204D01*
Y358870D01*
X157081Y360202D01*
X158414D01*
X159747Y358870D01*
X161080Y360202D01*
X162413D01*
X159747Y358870D02*
Y356204D01*
X155748Y346873D02*
Y352205D01*
X161080Y346873D01*
X162413D01*
X163746Y348206D01*
Y350872D01*
X162413Y352205D01*
X192945Y368200D02*
X200943D01*
Y364201D01*
X199610Y362868D01*
X196944D01*
X195611Y364201D01*
Y368200D01*
Y365534D02*
X192945Y362868D01*
X199610Y360202D02*
X200943Y358870D01*
Y356204D01*
X199610Y354871D01*
X198277D01*
X196944Y356204D01*
X195611Y354871D01*
X194278D01*
X192945Y356204D01*
Y358870D01*
X194278Y360202D01*
X195611D01*
X196944Y358870D01*
X198277Y360202D01*
X199610D01*
X196944Y358870D02*
Y356204D01*
X192945Y352205D02*
Y349539D01*
Y350872D01*
X200943D01*
X199610Y352205D01*
X341733Y368200D02*
X349730D01*
Y364201D01*
X348397Y362868D01*
X345731D01*
X344398Y364201D01*
Y368200D01*
Y365534D02*
X341733Y362868D01*
X348397Y360202D02*
X349730Y358870D01*
Y356204D01*
X348397Y354871D01*
X347064D01*
X345731Y356204D01*
X344398Y354871D01*
X343066D01*
X341733Y356204D01*
Y358870D01*
X343066Y360202D01*
X344398D01*
X345731Y358870D01*
X347064Y360202D01*
X348397D01*
X345731Y358870D02*
Y356204D01*
X348397Y352205D02*
X349730Y350872D01*
Y348206D01*
X348397Y346873D01*
X343066D01*
X341733Y348206D01*
Y350872D01*
X343066Y352205D01*
X348397D01*
X378929Y368200D02*
X386927D01*
Y364201D01*
X385594Y362868D01*
X382928D01*
X381595Y364201D01*
Y368200D01*
Y365534D02*
X378929Y362868D01*
X386927Y360202D02*
Y354871D01*
X385594D01*
X380262Y360202D01*
X378929D01*
X380262Y352205D02*
X378929Y350872D01*
Y348206D01*
X380262Y346873D01*
X385594D01*
X386927Y348206D01*
Y350872D01*
X385594Y352205D01*
X384261D01*
X382928Y350872D01*
Y346873D01*
X453323Y368200D02*
X461321D01*
Y364201D01*
X459988Y362868D01*
X457322D01*
X455989Y364201D01*
Y368200D01*
Y365534D02*
X453323Y362868D01*
X461321Y360202D02*
Y354871D01*
X459988D01*
X454656Y360202D01*
X453323D01*
X459988Y352205D02*
X461321Y350872D01*
Y348206D01*
X459988Y346873D01*
X458655D01*
X457322Y348206D01*
X455989Y346873D01*
X454656D01*
X453323Y348206D01*
Y350872D01*
X454656Y352205D01*
X455989D01*
X457322Y350872D01*
X458655Y352205D01*
X459988D01*
X457322Y350872D02*
Y348206D01*
X-439301Y368200D02*
X-431304D01*
Y364201D01*
X-432637Y362868D01*
X-435303D01*
X-436636Y364201D01*
Y368200D01*
Y365534D02*
X-439301Y362868D01*
X-431304Y360202D02*
Y354871D01*
X-432637D01*
X-437968Y360202D01*
X-439301D01*
X-431304Y346873D02*
Y352205D01*
X-435303D01*
X-433970Y349539D01*
Y348206D01*
X-435303Y346873D01*
X-437968D01*
X-439301Y348206D01*
Y350872D01*
X-437968Y352205D01*
X-389301Y368200D02*
X-381304D01*
Y364201D01*
X-382637Y362868D01*
X-385303D01*
X-386636Y364201D01*
Y368200D01*
Y365534D02*
X-389301Y362868D01*
X-381304Y360202D02*
Y354871D01*
X-382637D01*
X-387968Y360202D01*
X-389301D01*
Y348206D02*
X-381304D01*
X-385303Y352205D01*
Y346873D01*
X-239301Y368200D02*
X-231304D01*
Y364201D01*
X-232637Y362868D01*
X-235303D01*
X-236635Y364201D01*
Y368200D01*
Y365534D02*
X-239301Y362868D01*
X-231304Y360202D02*
Y354871D01*
X-232637D01*
X-237968Y360202D01*
X-239301D01*
X-232637Y352205D02*
X-231304Y350872D01*
Y348206D01*
X-232637Y346873D01*
X-233970D01*
X-235303Y348206D01*
Y349539D01*
Y348206D01*
X-236635Y346873D01*
X-237968D01*
X-239301Y348206D01*
Y350872D01*
X-237968Y352205D01*
X-189301Y368200D02*
X-181304D01*
Y364201D01*
X-182637Y362868D01*
X-185303D01*
X-186635Y364201D01*
Y368200D01*
Y365534D02*
X-189301Y362868D01*
X-181304Y360202D02*
Y354871D01*
X-182637D01*
X-187968Y360202D01*
X-189301D01*
Y346873D02*
Y352205D01*
X-183970Y346873D01*
X-182637D01*
X-181304Y348206D01*
Y350872D01*
X-182637Y352205D01*
X-286823Y-388100D02*
X-294820D01*
Y-384101D01*
X-293487Y-382768D01*
X-290821D01*
X-289489Y-384101D01*
Y-388100D01*
Y-385434D02*
X-286823Y-382768D01*
Y-380103D02*
Y-377437D01*
Y-378770D01*
X-294820D01*
X-293487Y-380103D01*
X-294820Y-368106D02*
Y-373438D01*
X-290821D01*
X-292154Y-370772D01*
Y-369439D01*
X-290821Y-368106D01*
X-288156D01*
X-286823Y-369439D01*
Y-372105D01*
X-288156Y-373438D01*
X-286823Y-361442D02*
X-294820D01*
X-290821Y-365441D01*
Y-360109D01*
X603177Y-388100D02*
X595180D01*
Y-384101D01*
X596513Y-382768D01*
X599179D01*
X600512Y-384101D01*
Y-388100D01*
Y-385434D02*
X603177Y-382768D01*
Y-380103D02*
Y-377437D01*
Y-378770D01*
X595180D01*
X596513Y-380103D01*
X595180Y-368106D02*
Y-373438D01*
X599179D01*
X597846Y-370772D01*
Y-369439D01*
X599179Y-368106D01*
X601844D01*
X603177Y-369439D01*
Y-372105D01*
X601844Y-373438D01*
X595180Y-360109D02*
Y-365441D01*
X599179D01*
X597846Y-362775D01*
Y-361442D01*
X599179Y-360109D01*
X601844D01*
X603177Y-361442D01*
Y-364108D01*
X601844Y-365441D01*
X-309540Y51750D02*
Y43753D01*
X-313539D01*
X-314872Y45086D01*
Y47751D01*
X-313539Y49084D01*
X-309540D01*
X-312206D02*
X-314872Y51750D01*
X-322869D02*
X-317538D01*
X-322869Y46418D01*
Y45086D01*
X-321536Y43753D01*
X-318871D01*
X-317538Y45086D01*
X-330867Y43753D02*
X-325535D01*
Y47751D01*
X-328201Y46418D01*
X-329534D01*
X-330867Y47751D01*
Y50417D01*
X-329534Y51750D01*
X-326868D01*
X-325535Y50417D01*
X-311090Y-62750D02*
Y-70747D01*
X-315089D01*
X-316422Y-69415D01*
Y-66749D01*
X-315089Y-65416D01*
X-311090D01*
X-313756D02*
X-316422Y-62750D01*
X-324419D02*
X-319088D01*
X-324419Y-68082D01*
Y-69415D01*
X-323086Y-70747D01*
X-320421D01*
X-319088Y-69415D01*
X-332417Y-70747D02*
X-329751Y-69415D01*
X-327085Y-66749D01*
Y-64083D01*
X-328418Y-62750D01*
X-331084D01*
X-332417Y-64083D01*
Y-65416D01*
X-331084Y-66749D01*
X-327085D01*
X-342540Y48750D02*
X-350538D01*
Y52749D01*
X-349205Y54082D01*
X-346539D01*
X-345206Y52749D01*
Y48750D01*
Y51416D02*
X-342540Y54082D01*
Y56747D02*
Y59413D01*
Y58080D01*
X-350538D01*
X-349205Y56747D01*
X-350538Y68744D02*
Y63412D01*
X-346539D01*
X-347872Y66078D01*
Y67411D01*
X-346539Y68744D01*
X-343873D01*
X-342540Y67411D01*
Y64745D01*
X-343873Y63412D01*
X-350538Y76741D02*
X-349205Y74075D01*
X-346539Y71409D01*
X-343873D01*
X-342540Y72742D01*
Y75408D01*
X-343873Y76741D01*
X-345206D01*
X-346539Y75408D01*
Y71409D01*
X-328040Y51750D02*
Y43753D01*
X-332039D01*
X-333372Y45086D01*
Y47751D01*
X-332039Y49084D01*
X-328040D01*
X-330706D02*
X-333372Y51750D01*
X-336038Y45086D02*
X-337371Y43753D01*
X-340036D01*
X-341369Y45086D01*
Y46418D01*
X-340036Y47751D01*
X-338703D01*
X-340036D01*
X-341369Y49084D01*
Y50417D01*
X-340036Y51750D01*
X-337371D01*
X-336038Y50417D01*
X-349367Y43753D02*
X-346701Y45086D01*
X-344035Y47751D01*
Y50417D01*
X-345368Y51750D01*
X-348034D01*
X-349367Y50417D01*
Y49084D01*
X-348034Y47751D01*
X-344035D01*
X-326490Y-62750D02*
Y-70747D01*
X-330489D01*
X-331822Y-69415D01*
Y-66749D01*
X-330489Y-65416D01*
X-326490D01*
X-329156D02*
X-331822Y-62750D01*
X-338486D02*
Y-70747D01*
X-334488Y-66749D01*
X-339819D01*
X-342485Y-69415D02*
X-343818Y-70747D01*
X-346484D01*
X-347817Y-69415D01*
Y-64083D01*
X-346484Y-62750D01*
X-343818D01*
X-342485Y-64083D01*
Y-69415D01*
X-283750Y-29250D02*
Y-21253D01*
X-279751D01*
X-278418Y-22585D01*
Y-25251D01*
X-279751Y-26584D01*
X-283750D01*
X-281084D02*
X-278418Y-29250D01*
X-275753D02*
X-273087D01*
X-274420D01*
Y-21253D01*
X-275753Y-22585D01*
X-263756Y-21253D02*
X-269088D01*
Y-25251D01*
X-266422Y-23918D01*
X-265089D01*
X-263756Y-25251D01*
Y-27917D01*
X-265089Y-29250D01*
X-267755D01*
X-269088Y-27917D01*
X-261091Y-22585D02*
X-259758Y-21253D01*
X-257092D01*
X-255759Y-22585D01*
Y-23918D01*
X-257092Y-25251D01*
X-258425D01*
X-257092D01*
X-255759Y-26584D01*
Y-27917D01*
X-257092Y-29250D01*
X-259758D01*
X-261091Y-27917D01*
X707200Y-155250D02*
Y-163247D01*
X703201D01*
X701868Y-161915D01*
Y-159249D01*
X703201Y-157916D01*
X707200D01*
X704534D02*
X701868Y-155250D01*
X699203D02*
X696537D01*
X697870D01*
Y-163247D01*
X699203Y-161915D01*
X687206Y-163247D02*
X692538D01*
Y-159249D01*
X689872Y-160582D01*
X688539D01*
X687206Y-159249D01*
Y-156583D01*
X688539Y-155250D01*
X691205D01*
X692538Y-156583D01*
X679209Y-155250D02*
X684541D01*
X679209Y-160582D01*
Y-161915D01*
X680542Y-163247D01*
X683208D01*
X684541Y-161915D01*
X687450Y-196750D02*
X679453D01*
Y-192751D01*
X680786Y-191418D01*
X683451D01*
X684784Y-192751D01*
Y-196750D01*
Y-194084D02*
X687450Y-191418D01*
Y-188753D02*
Y-186087D01*
Y-187420D01*
X679453D01*
X680786Y-188753D01*
X679453Y-176756D02*
Y-182088D01*
X683451D01*
X682118Y-179422D01*
Y-178089D01*
X683451Y-176756D01*
X686117D01*
X687450Y-178089D01*
Y-180755D01*
X686117Y-182088D01*
X687450Y-174091D02*
Y-171425D01*
Y-172758D01*
X679453D01*
X680786Y-174091D01*
X707200Y-195250D02*
Y-203247D01*
X703201D01*
X701868Y-201915D01*
Y-199249D01*
X703201Y-197916D01*
X707200D01*
X704534D02*
X701868Y-195250D01*
X699203D02*
X696537D01*
X697870D01*
Y-203247D01*
X699203Y-201915D01*
X687206Y-203247D02*
X692538D01*
Y-199249D01*
X689872Y-200582D01*
X688539D01*
X687206Y-199249D01*
Y-196583D01*
X688539Y-195250D01*
X691205D01*
X692538Y-196583D01*
X684541Y-201915D02*
X683208Y-203247D01*
X680542D01*
X679209Y-201915D01*
Y-196583D01*
X680542Y-195250D01*
X683208D01*
X684541Y-196583D01*
Y-201915D01*
X-779700Y-160000D02*
Y-152003D01*
X-775701D01*
X-774368Y-153336D01*
Y-156001D01*
X-775701Y-157334D01*
X-779700D01*
X-777034D02*
X-774368Y-160000D01*
X-771702D02*
X-769037D01*
X-770370D01*
Y-152003D01*
X-771702Y-153336D01*
X-765038Y-160000D02*
X-762372D01*
X-763705D01*
Y-152003D01*
X-765038Y-153336D01*
X-753042Y-152003D02*
X-755708Y-153336D01*
X-758373Y-156001D01*
Y-158667D01*
X-757041Y-160000D01*
X-754375D01*
X-753042Y-158667D01*
Y-157334D01*
X-754375Y-156001D01*
X-758373D01*
X-750450Y-192000D02*
X-758447D01*
Y-188001D01*
X-757114Y-186668D01*
X-754449D01*
X-753116Y-188001D01*
Y-192000D01*
Y-189334D02*
X-750450Y-186668D01*
Y-184003D02*
Y-181337D01*
Y-182670D01*
X-758447D01*
X-757114Y-184003D01*
X-750450Y-177338D02*
Y-174672D01*
Y-176005D01*
X-758447D01*
X-757114Y-177338D01*
X-758447Y-165342D02*
Y-170674D01*
X-754449D01*
X-755782Y-168008D01*
Y-166675D01*
X-754449Y-165342D01*
X-751783D01*
X-750450Y-166675D01*
Y-169341D01*
X-751783Y-170674D01*
X-779700Y-200000D02*
Y-192003D01*
X-775701D01*
X-774368Y-193335D01*
Y-196001D01*
X-775701Y-197334D01*
X-779700D01*
X-777034D02*
X-774368Y-200000D01*
X-771702D02*
X-769037D01*
X-770370D01*
Y-192003D01*
X-771702Y-193335D01*
X-765038Y-200000D02*
X-762372D01*
X-763705D01*
Y-192003D01*
X-765038Y-193335D01*
X-754375Y-200000D02*
Y-192003D01*
X-758373Y-196001D01*
X-753042D01*
X-681500Y-150500D02*
Y-158497D01*
X-685499D01*
X-686832Y-157164D01*
Y-154499D01*
X-685499Y-153166D01*
X-681500D01*
X-684166D02*
X-686832Y-150500D01*
X-689497D02*
X-692163D01*
X-690830D01*
Y-158497D01*
X-689497Y-157164D01*
X-696162Y-150500D02*
X-698828D01*
X-697495D01*
Y-158497D01*
X-696162Y-157164D01*
X-702827Y-151833D02*
X-704159Y-150500D01*
X-706825D01*
X-708158Y-151833D01*
Y-157164D01*
X-706825Y-158497D01*
X-704159D01*
X-702827Y-157164D01*
Y-155832D01*
X-704159Y-154499D01*
X-708158D01*
X-701250Y-192000D02*
X-709247D01*
Y-188001D01*
X-707915Y-186668D01*
X-705249D01*
X-703916Y-188001D01*
Y-192000D01*
Y-189334D02*
X-701250Y-186668D01*
Y-184003D02*
Y-181337D01*
Y-182670D01*
X-709247D01*
X-707915Y-184003D01*
X-701250Y-177338D02*
Y-174672D01*
Y-176005D01*
X-709247D01*
X-707915Y-177338D01*
Y-170674D02*
X-709247Y-169341D01*
Y-166675D01*
X-707915Y-165342D01*
X-706582D01*
X-705249Y-166675D01*
X-703916Y-165342D01*
X-702583D01*
X-701250Y-166675D01*
Y-169341D01*
X-702583Y-170674D01*
X-703916D01*
X-705249Y-169341D01*
X-706582Y-170674D01*
X-707915D01*
X-705249Y-169341D02*
Y-166675D01*
X-681500Y-190500D02*
Y-198497D01*
X-685499D01*
X-686832Y-197164D01*
Y-194499D01*
X-685499Y-193166D01*
X-681500D01*
X-684166D02*
X-686832Y-190500D01*
X-689497D02*
X-692163D01*
X-690830D01*
Y-198497D01*
X-689497Y-197164D01*
X-696162Y-190500D02*
X-698828D01*
X-697495D01*
Y-198497D01*
X-696162Y-197164D01*
X-702827Y-198497D02*
X-708158D01*
Y-197164D01*
X-702827Y-191833D01*
Y-190500D01*
X-329066Y-240982D02*
X-334721Y-235327D01*
X-331893Y-232500D01*
X-330008D01*
X-328123Y-234385D01*
X-328123Y-236270D01*
X-330951Y-239097D01*
X-329066Y-237212D02*
X-325296D01*
X-323411Y-235327D02*
X-321526Y-233442D01*
X-322468Y-234385D01*
X-328123Y-228730D01*
X-328123Y-230615D01*
X-314928Y-226845D02*
X-318698Y-230615D01*
Y-223075D01*
X-319641Y-222132D01*
X-321526D01*
X-323411Y-224017D01*
X-323411Y-225902D01*
X-309273Y-221190D02*
X-313043Y-224960D01*
Y-217420D01*
X-313986Y-216477D01*
X-315871D01*
X-317756Y-218362D01*
X-317756Y-220247D01*
X-285638Y-243045D02*
X-291293Y-248700D01*
X-294120Y-245872D01*
Y-243987D01*
X-292235Y-242102D01*
X-290350Y-242102D01*
X-287523Y-244930D01*
X-289408Y-243045D02*
Y-239275D01*
X-291293Y-237390D02*
X-293178Y-235505D01*
X-292235Y-236447D01*
X-297890Y-242102D01*
X-296005Y-242102D01*
X-299775Y-228907D02*
X-296005Y-232677D01*
X-303545D01*
X-304488Y-233620D01*
Y-235505D01*
X-302603Y-237390D01*
X-300718Y-237390D01*
X-301660Y-227022D02*
X-303545Y-225137D01*
X-302603Y-226080D01*
X-308258Y-231735D01*
X-306373Y-231735D01*
X-300465Y-269183D02*
X-306120Y-263528D01*
X-303293Y-260700D01*
X-301408D01*
X-299523Y-262585D01*
X-299523Y-264470D01*
X-302350Y-267298D01*
X-300465Y-265413D02*
X-296695D01*
X-294810Y-263528D02*
X-292925Y-261643D01*
X-293868Y-262585D01*
X-299523Y-256930D01*
X-299523Y-258815D01*
X-286328Y-255045D02*
X-290098Y-258815D01*
Y-251275D01*
X-291040Y-250333D01*
X-292925D01*
X-294810Y-252218D01*
X-294810Y-254103D01*
X-289155Y-248448D02*
X-289155Y-246563D01*
X-287270Y-244678D01*
X-285385D01*
X-281615Y-248448D01*
Y-250333D01*
X-283500Y-252218D01*
X-285385D01*
X-289155Y-248448D01*
X-182800Y-115000D02*
Y-122997D01*
X-186799D01*
X-188132Y-121664D01*
Y-118999D01*
X-186799Y-117666D01*
X-182800D01*
X-185466D02*
X-188132Y-115000D01*
X-190797D02*
X-193463D01*
X-192130D01*
Y-122997D01*
X-190797Y-121664D01*
X-202794Y-115000D02*
X-197462D01*
X-202794Y-120332D01*
Y-121664D01*
X-201461Y-122997D01*
X-198795D01*
X-197462Y-121664D01*
X-210791Y-122997D02*
X-205459D01*
Y-118999D01*
X-208125Y-120332D01*
X-209458D01*
X-210791Y-118999D01*
Y-116333D01*
X-209458Y-115000D01*
X-206792D01*
X-205459Y-116333D01*
X-202550Y-156500D02*
X-210547D01*
Y-152501D01*
X-209214Y-151168D01*
X-206549D01*
X-205216Y-152501D01*
Y-156500D01*
Y-153834D02*
X-202550Y-151168D01*
Y-148503D02*
Y-145837D01*
Y-147170D01*
X-210547D01*
X-209214Y-148503D01*
X-202550Y-136507D02*
Y-141838D01*
X-207882Y-136507D01*
X-209214D01*
X-210547Y-137839D01*
Y-140505D01*
X-209214Y-141838D01*
X-202550Y-129842D02*
X-210547D01*
X-206549Y-133841D01*
Y-128509D01*
X-182800Y-155000D02*
Y-162997D01*
X-186799D01*
X-188132Y-161665D01*
Y-158999D01*
X-186799Y-157666D01*
X-182800D01*
X-185466D02*
X-188132Y-155000D01*
X-190797D02*
X-193463D01*
X-192130D01*
Y-162997D01*
X-190797Y-161665D01*
X-202794Y-155000D02*
X-197462D01*
X-202794Y-160332D01*
Y-161665D01*
X-201461Y-162997D01*
X-198795D01*
X-197462Y-161665D01*
X-205459D02*
X-206792Y-162997D01*
X-209458D01*
X-210791Y-161665D01*
Y-160332D01*
X-209458Y-158999D01*
X-208125D01*
X-209458D01*
X-210791Y-157666D01*
Y-156333D01*
X-209458Y-155000D01*
X-206792D01*
X-205459Y-156333D01*
X-66750Y-155000D02*
Y-162997D01*
X-70749D01*
X-72082Y-161665D01*
Y-158999D01*
X-70749Y-157666D01*
X-66750D01*
X-69416D02*
X-72082Y-155000D01*
X-74748D02*
X-77414D01*
X-76081D01*
Y-162997D01*
X-74748Y-161665D01*
X-86744Y-155000D02*
X-81412D01*
X-86744Y-160332D01*
Y-161665D01*
X-85411Y-162997D01*
X-82745D01*
X-81412Y-161665D01*
X-94741Y-162997D02*
X-92075Y-161665D01*
X-89410Y-158999D01*
Y-156333D01*
X-90743Y-155000D01*
X-93408D01*
X-94741Y-156333D01*
Y-157666D01*
X-93408Y-158999D01*
X-89410D01*
X-96000Y-123000D02*
X-88003D01*
Y-126999D01*
X-89336Y-128332D01*
X-92001D01*
X-93334Y-126999D01*
Y-123000D01*
Y-125666D02*
X-96000Y-128332D01*
Y-130997D02*
Y-133663D01*
Y-132330D01*
X-88003D01*
X-89336Y-130997D01*
X-96000Y-142994D02*
Y-137662D01*
X-90669Y-142994D01*
X-89336D01*
X-88003Y-141661D01*
Y-138995D01*
X-89336Y-137662D01*
X-88003Y-145659D02*
Y-150991D01*
X-89336D01*
X-94667Y-145659D01*
X-96000D01*
X-66750Y-115000D02*
Y-122997D01*
X-70749D01*
X-72082Y-121664D01*
Y-118999D01*
X-70749Y-117666D01*
X-66750D01*
X-69416D02*
X-72082Y-115000D01*
X-74748D02*
X-77414D01*
X-76081D01*
Y-122997D01*
X-74748Y-121664D01*
X-86744Y-115000D02*
X-81412D01*
X-86744Y-120332D01*
Y-121664D01*
X-85411Y-122997D01*
X-82745D01*
X-81412Y-121664D01*
X-89410D02*
X-90743Y-122997D01*
X-93408D01*
X-94741Y-121664D01*
Y-120332D01*
X-93408Y-118999D01*
X-94741Y-117666D01*
Y-116333D01*
X-93408Y-115000D01*
X-90743D01*
X-89410Y-116333D01*
Y-117666D01*
X-90743Y-118999D01*
X-89410Y-120332D01*
Y-121664D01*
X-90743Y-118999D02*
X-93408D01*
X-60250Y-124500D02*
Y-116503D01*
X-56252D01*
X-54919Y-117836D01*
Y-120501D01*
X-56252Y-121834D01*
X-60250D01*
X-57584D02*
X-54919Y-124500D01*
X-52253D02*
X-49587D01*
X-50920D01*
Y-116503D01*
X-52253Y-117836D01*
X-40257Y-124500D02*
X-45588D01*
X-40257Y-119168D01*
Y-117836D01*
X-41589Y-116503D01*
X-44255D01*
X-45588Y-117836D01*
X-37591Y-123167D02*
X-36258Y-124500D01*
X-33592D01*
X-32259Y-123167D01*
Y-117836D01*
X-33592Y-116503D01*
X-36258D01*
X-37591Y-117836D01*
Y-119168D01*
X-36258Y-120501D01*
X-32259D01*
X-31000Y-156500D02*
X-38998D01*
Y-152501D01*
X-37665Y-151168D01*
X-34999D01*
X-33666Y-152501D01*
Y-156500D01*
Y-153834D02*
X-31000Y-151168D01*
Y-148503D02*
Y-145837D01*
Y-147170D01*
X-38998D01*
X-37665Y-148503D01*
Y-141838D02*
X-38998Y-140505D01*
Y-137839D01*
X-37665Y-136507D01*
X-36332D01*
X-34999Y-137839D01*
Y-139172D01*
Y-137839D01*
X-33666Y-136507D01*
X-32333D01*
X-31000Y-137839D01*
Y-140505D01*
X-32333Y-141838D01*
X-37665Y-133841D02*
X-38998Y-132508D01*
Y-129842D01*
X-37665Y-128509D01*
X-32333D01*
X-31000Y-129842D01*
Y-132508D01*
X-32333Y-133841D01*
X-37665D01*
X-60250Y-164500D02*
Y-156503D01*
X-56252D01*
X-54919Y-157836D01*
Y-160501D01*
X-56252Y-161834D01*
X-60250D01*
X-57584D02*
X-54919Y-164500D01*
X-52253D02*
X-49587D01*
X-50920D01*
Y-156503D01*
X-52253Y-157836D01*
X-45588D02*
X-44255Y-156503D01*
X-41589D01*
X-40257Y-157836D01*
Y-159168D01*
X-41589Y-160501D01*
X-42922D01*
X-41589D01*
X-40257Y-161834D01*
Y-163167D01*
X-41589Y-164500D01*
X-44255D01*
X-45588Y-163167D01*
X-37591Y-164500D02*
X-34925D01*
X-36258D01*
Y-156503D01*
X-37591Y-157836D01*
X121250Y-124500D02*
Y-116503D01*
X125249D01*
X126582Y-117836D01*
Y-120501D01*
X125249Y-121834D01*
X121250D01*
X123916D02*
X126582Y-124500D01*
X129248D02*
X131913D01*
X130581D01*
Y-116503D01*
X129248Y-117836D01*
X135912D02*
X137245Y-116503D01*
X139911D01*
X141244Y-117836D01*
Y-119168D01*
X139911Y-120501D01*
X138578D01*
X139911D01*
X141244Y-121834D01*
Y-123167D01*
X139911Y-124500D01*
X137245D01*
X135912Y-123167D01*
X147908Y-124500D02*
Y-116503D01*
X143910Y-120501D01*
X149241D01*
X150500Y-156500D02*
X142503D01*
Y-152501D01*
X143836Y-151168D01*
X146502D01*
X147835Y-152501D01*
Y-156500D01*
Y-153834D02*
X150500Y-151168D01*
Y-148503D02*
Y-145837D01*
Y-147170D01*
X142503D01*
X143836Y-148503D01*
Y-141838D02*
X142503Y-140505D01*
Y-137839D01*
X143836Y-136507D01*
X145169D01*
X146502Y-137839D01*
Y-139172D01*
Y-137839D01*
X147835Y-136507D01*
X149167D01*
X150500Y-137839D01*
Y-140505D01*
X149167Y-141838D01*
X143836Y-133841D02*
X142503Y-132508D01*
Y-129842D01*
X143836Y-128509D01*
X145169D01*
X146502Y-129842D01*
Y-131175D01*
Y-129842D01*
X147835Y-128509D01*
X149167D01*
X150500Y-129842D01*
Y-132508D01*
X149167Y-133841D01*
X121250Y-164500D02*
Y-156503D01*
X125249D01*
X126582Y-157836D01*
Y-160501D01*
X125249Y-161834D01*
X121250D01*
X123916D02*
X126582Y-164500D01*
X129248D02*
X131913D01*
X130581D01*
Y-156503D01*
X129248Y-157836D01*
X135912D02*
X137245Y-156503D01*
X139911D01*
X141244Y-157836D01*
Y-159168D01*
X139911Y-160501D01*
X138578D01*
X139911D01*
X141244Y-161834D01*
Y-163167D01*
X139911Y-164500D01*
X137245D01*
X135912Y-163167D01*
X149241Y-164500D02*
X143910D01*
X149241Y-159168D01*
Y-157836D01*
X147908Y-156503D01*
X145243D01*
X143910Y-157836D01*
X622800Y-164750D02*
Y-156753D01*
X626799D01*
X628132Y-158085D01*
Y-160751D01*
X626799Y-162084D01*
X622800D01*
X625466D02*
X628132Y-164750D01*
X630798D02*
X633463D01*
X632130D01*
Y-156753D01*
X630798Y-158085D01*
X637462D02*
X638795Y-156753D01*
X641461D01*
X642794Y-158085D01*
Y-159418D01*
X641461Y-160751D01*
X640128D01*
X641461D01*
X642794Y-162084D01*
Y-163417D01*
X641461Y-164750D01*
X638795D01*
X637462Y-163417D01*
X650791Y-156753D02*
X645459D01*
Y-160751D01*
X648125Y-159418D01*
X649458D01*
X650791Y-160751D01*
Y-163417D01*
X649458Y-164750D01*
X646792D01*
X645459Y-163417D01*
X652050Y-196750D02*
X644053D01*
Y-192751D01*
X645386Y-191418D01*
X648051D01*
X649384Y-192751D01*
Y-196750D01*
Y-194084D02*
X652050Y-191418D01*
Y-188753D02*
Y-186087D01*
Y-187420D01*
X644053D01*
X645386Y-188753D01*
Y-182088D02*
X644053Y-180755D01*
Y-178089D01*
X645386Y-176756D01*
X646718D01*
X648051Y-178089D01*
Y-179422D01*
Y-178089D01*
X649384Y-176756D01*
X650717D01*
X652050Y-178089D01*
Y-180755D01*
X650717Y-182088D01*
X644053Y-168759D02*
X645386Y-171425D01*
X648051Y-174091D01*
X650717D01*
X652050Y-172758D01*
Y-170092D01*
X650717Y-168759D01*
X649384D01*
X648051Y-170092D01*
Y-174091D01*
X622800Y-204750D02*
Y-196753D01*
X626799D01*
X628132Y-198085D01*
Y-200751D01*
X626799Y-202084D01*
X622800D01*
X625466D02*
X628132Y-204750D01*
X630798D02*
X633463D01*
X632130D01*
Y-196753D01*
X630798Y-198085D01*
X637462D02*
X638795Y-196753D01*
X641461D01*
X642794Y-198085D01*
Y-199418D01*
X641461Y-200751D01*
X640128D01*
X641461D01*
X642794Y-202084D01*
Y-203417D01*
X641461Y-204750D01*
X638795D01*
X637462Y-203417D01*
X645459Y-196753D02*
X650791D01*
Y-198085D01*
X645459Y-203417D01*
Y-204750D01*
X743750Y-164752D02*
Y-156755D01*
X747749D01*
X749082Y-158088D01*
Y-160753D01*
X747749Y-162086D01*
X743750D01*
X746416D02*
X749082Y-164752D01*
X751748D02*
X754414D01*
X753081D01*
Y-156755D01*
X751748Y-158088D01*
X758412D02*
X759745Y-156755D01*
X762411D01*
X763744Y-158088D01*
Y-159420D01*
X762411Y-160753D01*
X761078D01*
X762411D01*
X763744Y-162086D01*
Y-163419D01*
X762411Y-164752D01*
X759745D01*
X758412Y-163419D01*
X766410Y-158088D02*
X767743Y-156755D01*
X770408D01*
X771741Y-158088D01*
Y-159420D01*
X770408Y-160753D01*
X771741Y-162086D01*
Y-163419D01*
X770408Y-164752D01*
X767743D01*
X766410Y-163419D01*
Y-162086D01*
X767743Y-160753D01*
X766410Y-159420D01*
Y-158088D01*
X767743Y-160753D02*
X770408D01*
X773000Y-196752D02*
X765003D01*
Y-192753D01*
X766336Y-191420D01*
X769002D01*
X770334Y-192753D01*
Y-196752D01*
Y-194086D02*
X773000Y-191420D01*
Y-188755D02*
Y-186089D01*
Y-187422D01*
X765003D01*
X766336Y-188755D01*
Y-182090D02*
X765003Y-180757D01*
Y-178091D01*
X766336Y-176758D01*
X767669D01*
X769002Y-178091D01*
Y-179424D01*
Y-178091D01*
X770334Y-176758D01*
X771667D01*
X773000Y-178091D01*
Y-180757D01*
X771667Y-182090D01*
Y-174093D02*
X773000Y-172760D01*
Y-170094D01*
X771667Y-168761D01*
X766336D01*
X765003Y-170094D01*
Y-172760D01*
X766336Y-174093D01*
X767669D01*
X769002Y-172760D01*
Y-168761D01*
X596250Y-155250D02*
Y-163247D01*
X592251D01*
X590918Y-161915D01*
Y-159249D01*
X592251Y-157916D01*
X596250D01*
X593584D02*
X590918Y-155250D01*
X588252D02*
X585587D01*
X586920D01*
Y-163247D01*
X588252Y-161915D01*
X577589Y-155250D02*
Y-163247D01*
X581588Y-159249D01*
X576256D01*
X573590Y-161915D02*
X572257Y-163247D01*
X569592D01*
X568259Y-161915D01*
Y-156583D01*
X569592Y-155250D01*
X572257D01*
X573590Y-156583D01*
Y-161915D01*
X743750Y-204752D02*
Y-196755D01*
X747749D01*
X749082Y-198088D01*
Y-200753D01*
X747749Y-202086D01*
X743750D01*
X746416D02*
X749082Y-204752D01*
X751748D02*
X754414D01*
X753081D01*
Y-196755D01*
X751748Y-198088D01*
X762411Y-204752D02*
Y-196755D01*
X758412Y-200753D01*
X763744D01*
X770408Y-204752D02*
Y-196755D01*
X766410Y-200753D01*
X771741D01*
X212001Y-124500D02*
Y-116503D01*
X215999D01*
X217332Y-117836D01*
Y-120501D01*
X215999Y-121834D01*
X212001D01*
X214666D02*
X217332Y-124500D01*
X219998D02*
X222664D01*
X221331D01*
Y-116503D01*
X219998Y-117836D01*
X230661Y-124500D02*
Y-116503D01*
X226663Y-120501D01*
X231994D01*
X234660Y-117836D02*
X235993Y-116503D01*
X238659D01*
X239991Y-117836D01*
Y-119168D01*
X238659Y-120501D01*
X237326D01*
X238659D01*
X239991Y-121834D01*
Y-123167D01*
X238659Y-124500D01*
X235993D01*
X234660Y-123167D01*
X241250Y-156500D02*
X233253D01*
Y-152501D01*
X234586Y-151168D01*
X237252D01*
X238585Y-152501D01*
Y-156500D01*
Y-153834D02*
X241250Y-151168D01*
Y-148503D02*
Y-145837D01*
Y-147170D01*
X233253D01*
X234586Y-148503D01*
X241250Y-137839D02*
X233253D01*
X237252Y-141838D01*
Y-136507D01*
X241250Y-128509D02*
Y-133841D01*
X235919Y-128509D01*
X234586D01*
X233253Y-129842D01*
Y-132508D01*
X234586Y-133841D01*
X212001Y-164500D02*
Y-156503D01*
X215999D01*
X217332Y-157836D01*
Y-160501D01*
X215999Y-161834D01*
X212001D01*
X214666D02*
X217332Y-164500D01*
X219998D02*
X222664D01*
X221331D01*
Y-156503D01*
X219998Y-157836D01*
X230661Y-164500D02*
Y-156503D01*
X226663Y-160501D01*
X231994D01*
X234660Y-164500D02*
X237326D01*
X235993D01*
Y-156503D01*
X234660Y-157836D01*
X576500Y-196750D02*
X568502D01*
Y-192751D01*
X569835Y-191418D01*
X572501D01*
X573834Y-192751D01*
Y-196750D01*
Y-194084D02*
X576500Y-191418D01*
Y-188753D02*
Y-186087D01*
Y-187420D01*
X568502D01*
X569835Y-188753D01*
X576500Y-178089D02*
X568502D01*
X572501Y-182088D01*
Y-176756D01*
X568502Y-168759D02*
Y-174091D01*
X572501D01*
X571168Y-171425D01*
Y-170092D01*
X572501Y-168759D01*
X575167D01*
X576500Y-170092D01*
Y-172758D01*
X575167Y-174091D01*
X596250Y-195250D02*
Y-203247D01*
X592251D01*
X590918Y-201915D01*
Y-199249D01*
X592251Y-197916D01*
X596250D01*
X593584D02*
X590918Y-195250D01*
X588252D02*
X585587D01*
X586920D01*
Y-203247D01*
X588252Y-201915D01*
X577589Y-195250D02*
Y-203247D01*
X581588Y-199249D01*
X576256D01*
X568259Y-203247D02*
X570925Y-201915D01*
X573590Y-199249D01*
Y-196583D01*
X572257Y-195250D01*
X569592D01*
X568259Y-196583D01*
Y-197916D01*
X569592Y-199249D01*
X573590D01*
X79500Y-115000D02*
Y-122997D01*
X75501D01*
X74168Y-121664D01*
Y-118999D01*
X75501Y-117666D01*
X79500D01*
X76834D02*
X74168Y-115000D01*
X71503D02*
X68837D01*
X70170D01*
Y-122997D01*
X71503Y-121664D01*
X60839Y-115000D02*
Y-122997D01*
X64838Y-118999D01*
X59506D01*
X56841Y-116333D02*
X55508Y-115000D01*
X52842D01*
X51509Y-116333D01*
Y-121664D01*
X52842Y-122997D01*
X55508D01*
X56841Y-121664D01*
Y-120332D01*
X55508Y-118999D01*
X51509D01*
X59750Y-156500D02*
X51753D01*
Y-152501D01*
X53085Y-151168D01*
X55751D01*
X57084Y-152501D01*
Y-156500D01*
Y-153834D02*
X59750Y-151168D01*
Y-148503D02*
Y-145837D01*
Y-147170D01*
X51753D01*
X53085Y-148503D01*
X59750Y-137839D02*
X51753D01*
X55751Y-141838D01*
Y-136507D01*
X53085Y-133841D02*
X51753Y-132508D01*
Y-129842D01*
X53085Y-128509D01*
X54418D01*
X55751Y-129842D01*
X57084Y-128509D01*
X58417D01*
X59750Y-129842D01*
Y-132508D01*
X58417Y-133841D01*
X57084D01*
X55751Y-132508D01*
X54418Y-133841D01*
X53085D01*
X55751Y-132508D02*
Y-129842D01*
X79500Y-155000D02*
Y-162997D01*
X75501D01*
X74168Y-161665D01*
Y-158999D01*
X75501Y-157666D01*
X79500D01*
X76834D02*
X74168Y-155000D01*
X71503D02*
X68837D01*
X70170D01*
Y-162997D01*
X71503Y-161665D01*
X60839Y-155000D02*
Y-162997D01*
X64838Y-158999D01*
X59506D01*
X56841Y-162997D02*
X51509D01*
Y-161665D01*
X56841Y-156333D01*
Y-155000D01*
X-130250Y77100D02*
X-138247D01*
Y81099D01*
X-136915Y82432D01*
X-134249D01*
X-132916Y81099D01*
Y77100D01*
Y79766D02*
X-130250Y82432D01*
Y85098D02*
Y87763D01*
Y86430D01*
X-138247D01*
X-136915Y85098D01*
X-130250Y91762D02*
Y94428D01*
Y93095D01*
X-138247D01*
X-136915Y91762D01*
Y98427D02*
X-138247Y99760D01*
Y102425D01*
X-136915Y103758D01*
X-135582D01*
X-134249Y102425D01*
Y101092D01*
Y102425D01*
X-132916Y103758D01*
X-131583D01*
X-130250Y102425D01*
Y99760D01*
X-131583Y98427D01*
X-171750Y96850D02*
Y104847D01*
X-167751D01*
X-166418Y103515D01*
Y100849D01*
X-167751Y99516D01*
X-171750D01*
X-169084D02*
X-166418Y96850D01*
X-163752D02*
X-161087D01*
X-162420D01*
Y104847D01*
X-163752Y103515D01*
X-157088Y96850D02*
X-154422D01*
X-155755D01*
Y104847D01*
X-157088Y103515D01*
X-145092Y96850D02*
X-150423D01*
X-145092Y102182D01*
Y103515D01*
X-146425Y104847D01*
X-149091D01*
X-150423Y103515D01*
X-170250Y77100D02*
X-178247D01*
Y81099D01*
X-176915Y82432D01*
X-174249D01*
X-172916Y81099D01*
Y77100D01*
Y79766D02*
X-170250Y82432D01*
Y85098D02*
Y87763D01*
Y86430D01*
X-178247D01*
X-176915Y85098D01*
X-170250Y91762D02*
Y94428D01*
Y93095D01*
X-178247D01*
X-176915Y91762D01*
X-170250Y98427D02*
Y101092D01*
Y99760D01*
X-178247D01*
X-176915Y98427D01*
X-28250Y444250D02*
X-36247D01*
Y448249D01*
X-34915Y449582D01*
X-32249D01*
X-30916Y448249D01*
Y444250D01*
Y446916D02*
X-28250Y449582D01*
Y452247D02*
Y454913D01*
Y453580D01*
X-36247D01*
X-34915Y452247D01*
X-28250Y458912D02*
Y461578D01*
Y460245D01*
X-36247D01*
X-34915Y458912D01*
Y465577D02*
X-36247Y466909D01*
Y469575D01*
X-34915Y470908D01*
X-29583D01*
X-28250Y469575D01*
Y466909D01*
X-29583Y465577D01*
X-34915D01*
X160250Y591750D02*
X168247D01*
Y587751D01*
X166915Y586418D01*
X164249D01*
X162916Y587751D01*
Y591750D01*
Y589084D02*
X160250Y586418D01*
X168247Y578421D02*
X166915Y581087D01*
X164249Y583753D01*
X161583D01*
X160250Y582420D01*
Y579754D01*
X161583Y578421D01*
X162916D01*
X164249Y579754D01*
Y583753D01*
X168247Y575755D02*
Y570424D01*
X166915D01*
X161583Y575755D01*
X160250D01*
X172750Y591750D02*
X180747D01*
Y587751D01*
X179415Y586418D01*
X176749D01*
X175416Y587751D01*
Y591750D01*
Y589084D02*
X172750Y586418D01*
X180747Y578421D02*
X179415Y581087D01*
X176749Y583753D01*
X174083D01*
X172750Y582420D01*
Y579754D01*
X174083Y578421D01*
X175416D01*
X176749Y579754D01*
Y583753D01*
X180747Y570424D02*
X179415Y573089D01*
X176749Y575755D01*
X174083D01*
X172750Y574422D01*
Y571756D01*
X174083Y570424D01*
X175416D01*
X176749Y571756D01*
Y575755D01*
X150250Y535500D02*
X158247D01*
Y531501D01*
X156915Y530168D01*
X154249D01*
X152916Y531501D01*
Y535500D01*
Y532834D02*
X150250Y530168D01*
Y527503D02*
Y524837D01*
Y526170D01*
X158247D01*
X156915Y527503D01*
Y520838D02*
X158247Y519505D01*
Y516839D01*
X156915Y515506D01*
X151583D01*
X150250Y516839D01*
Y519505D01*
X151583Y520838D01*
X156915D01*
X151583Y512841D02*
X150250Y511508D01*
Y508842D01*
X151583Y507509D01*
X156915D01*
X158247Y508842D01*
Y511508D01*
X156915Y512841D01*
X155582D01*
X154249Y511508D01*
Y507509D01*
X135250Y535500D02*
X143247D01*
Y531501D01*
X141915Y530168D01*
X139249D01*
X137916Y531501D01*
Y535500D01*
Y532834D02*
X135250Y530168D01*
Y527503D02*
Y524837D01*
Y526170D01*
X143247D01*
X141915Y527503D01*
Y520838D02*
X143247Y519505D01*
Y516839D01*
X141915Y515506D01*
X136583D01*
X135250Y516839D01*
Y519505D01*
X136583Y520838D01*
X141915D01*
Y512841D02*
X143247Y511508D01*
Y508842D01*
X141915Y507509D01*
X140582D01*
X139249Y508842D01*
X137916Y507509D01*
X136583D01*
X135250Y508842D01*
Y511508D01*
X136583Y512841D01*
X137916D01*
X139249Y511508D01*
X140582Y512841D01*
X141915D01*
X139249Y511508D02*
Y508842D01*
X-439168Y-291586D02*
X-440501Y-290253D01*
X-443167D01*
X-444500Y-291586D01*
Y-296917D01*
X-443167Y-298250D01*
X-440501D01*
X-439168Y-296917D01*
X-436503Y-298250D02*
X-433837D01*
X-435170D01*
Y-290253D01*
X-436503Y-291586D01*
X-429838Y-298250D02*
X-427172D01*
X-428505D01*
Y-290253D01*
X-429838Y-291586D01*
X-419175Y-298250D02*
Y-290253D01*
X-423173Y-294251D01*
X-417842D01*
X-581332Y-242915D02*
X-579999Y-244247D01*
X-577333D01*
X-576000Y-242915D01*
Y-237583D01*
X-577333Y-236250D01*
X-579999D01*
X-581332Y-237583D01*
X-583997Y-236250D02*
X-586663D01*
X-585330D01*
Y-244247D01*
X-583997Y-242915D01*
X-590662Y-236250D02*
X-593328D01*
X-591995D01*
Y-244247D01*
X-590662Y-242915D01*
X-602658Y-244247D02*
X-597327D01*
Y-240249D01*
X-599992Y-241582D01*
X-601325D01*
X-602658Y-240249D01*
Y-237583D01*
X-601325Y-236250D01*
X-598659D01*
X-597327Y-237583D01*
X449832Y-290615D02*
X448499Y-289283D01*
X445833D01*
X444500Y-290615D01*
Y-295947D01*
X445833Y-297280D01*
X448499D01*
X449832Y-295947D01*
X452497Y-297280D02*
X455163D01*
X453830D01*
Y-289283D01*
X452497Y-290615D01*
X459162Y-297280D02*
X461828D01*
X460495D01*
Y-289283D01*
X459162Y-290615D01*
X471158Y-289283D02*
X468492Y-290615D01*
X465826Y-293281D01*
Y-295947D01*
X467159Y-297280D01*
X469825D01*
X471158Y-295947D01*
Y-294614D01*
X469825Y-293281D01*
X465826D01*
X307668Y-250914D02*
X309001Y-252247D01*
X311667D01*
X313000Y-250914D01*
Y-245583D01*
X311667Y-244250D01*
X309001D01*
X307668Y-245583D01*
X305003Y-244250D02*
X302337D01*
X303670D01*
Y-252247D01*
X305003Y-250914D01*
X298338Y-244250D02*
X295672D01*
X297005D01*
Y-252247D01*
X298338Y-250914D01*
X291674Y-252247D02*
X286342D01*
Y-250914D01*
X291674Y-245583D01*
Y-244250D01*
X-713331Y570485D02*
X-711999Y569152D01*
X-709333D01*
X-708000Y570485D01*
Y575817D01*
X-709333Y577150D01*
X-711999D01*
X-713331Y575817D01*
X-721329Y569152D02*
X-718663Y570485D01*
X-715997Y573151D01*
Y575817D01*
X-717330Y577150D01*
X-719996D01*
X-721329Y575817D01*
Y574484D01*
X-719996Y573151D01*
X-715997D01*
X-723995Y570485D02*
X-725328Y569152D01*
X-727993D01*
X-729326Y570485D01*
Y575817D01*
X-727993Y577150D01*
X-725328D01*
X-723995Y575817D01*
Y570485D01*
X-713331Y524486D02*
X-711999Y523153D01*
X-709333D01*
X-708000Y524486D01*
Y529817D01*
X-709333Y531150D01*
X-711999D01*
X-713331Y529817D01*
X-721329Y523153D02*
X-718663Y524486D01*
X-715997Y527151D01*
Y529817D01*
X-717330Y531150D01*
X-719996D01*
X-721329Y529817D01*
Y528484D01*
X-719996Y527151D01*
X-715997D01*
X-723995Y531150D02*
X-726660D01*
X-725328D01*
Y523153D01*
X-723995Y524486D01*
X-713331Y547510D02*
X-711999Y546178D01*
X-709333D01*
X-708000Y547510D01*
Y552842D01*
X-709333Y554175D01*
X-711999D01*
X-713331Y552842D01*
X-721329Y546178D02*
X-718663Y547510D01*
X-715997Y550176D01*
Y552842D01*
X-717330Y554175D01*
X-719996D01*
X-721329Y552842D01*
Y551509D01*
X-719996Y550176D01*
X-715997D01*
X-729326Y554175D02*
X-723995D01*
X-729326Y548843D01*
Y547510D01*
X-727993Y546178D01*
X-725328D01*
X-723995Y547510D01*
X-623918Y529314D02*
X-625251Y530647D01*
X-627917D01*
X-629250Y529314D01*
Y523983D01*
X-627917Y522650D01*
X-625251D01*
X-623918Y523983D01*
X-615921Y530647D02*
X-618587Y529314D01*
X-621253Y526649D01*
Y523983D01*
X-619920Y522650D01*
X-617254D01*
X-615921Y523983D01*
Y525316D01*
X-617254Y526649D01*
X-621253D01*
X-609256Y522650D02*
Y530647D01*
X-613255Y526649D01*
X-607923D01*
X-624168Y552340D02*
X-625501Y553672D01*
X-628167D01*
X-629500Y552340D01*
Y547008D01*
X-628167Y545675D01*
X-625501D01*
X-624168Y547008D01*
X-616171Y553672D02*
X-618837Y552340D01*
X-621502Y549674D01*
Y547008D01*
X-620170Y545675D01*
X-617504D01*
X-616171Y547008D01*
Y548341D01*
X-617504Y549674D01*
X-621502D01*
X-608173Y553672D02*
X-613505D01*
Y549674D01*
X-610839Y551007D01*
X-609506D01*
X-608173Y549674D01*
Y547008D01*
X-609506Y545675D01*
X-612172D01*
X-613505Y547008D01*
X-654331Y582985D02*
X-652999Y581653D01*
X-650333D01*
X-649000Y582985D01*
Y588317D01*
X-650333Y589650D01*
X-652999D01*
X-654331Y588317D01*
X-662329Y581653D02*
X-659663Y582985D01*
X-656997Y585651D01*
Y588317D01*
X-658330Y589650D01*
X-660996D01*
X-662329Y588317D01*
Y586984D01*
X-660996Y585651D01*
X-656997D01*
X-664995Y581653D02*
X-670326D01*
Y582985D01*
X-664995Y588317D01*
Y589650D01*
X-741000Y540150D02*
Y532153D01*
X-744998D01*
X-746331Y533485D01*
Y536151D01*
X-744998Y537484D01*
X-741000D01*
X-743666D02*
X-746331Y540150D01*
X-752996D02*
Y532153D01*
X-748997Y536151D01*
X-754329D01*
X-762326Y540150D02*
X-756995D01*
X-762326Y534818D01*
Y533485D01*
X-760993Y532153D01*
X-758328D01*
X-756995Y533485D01*
X-741000Y531150D02*
Y523153D01*
X-744998D01*
X-746331Y524485D01*
Y527151D01*
X-744998Y528484D01*
X-741000D01*
X-743666D02*
X-746331Y531150D01*
X-752996D02*
Y523153D01*
X-748997Y527151D01*
X-754329D01*
X-756995Y524485D02*
X-758328Y523153D01*
X-760993D01*
X-762326Y524485D01*
Y525818D01*
X-760993Y527151D01*
X-759660D01*
X-760993D01*
X-762326Y528484D01*
Y529817D01*
X-760993Y531150D01*
X-758328D01*
X-756995Y529817D01*
X-768500Y541020D02*
Y549017D01*
X-764501D01*
X-763168Y547685D01*
Y545019D01*
X-764501Y543686D01*
X-768500D01*
X-765834D02*
X-763168Y541020D01*
X-756504D02*
Y549017D01*
X-760502Y545019D01*
X-755171D01*
X-748506Y541020D02*
Y549017D01*
X-752505Y545019D01*
X-747173D01*
X-768500Y550020D02*
Y558018D01*
X-764501D01*
X-763168Y556685D01*
Y554019D01*
X-764501Y552686D01*
X-768500D01*
X-765834D02*
X-763168Y550020D01*
X-756504D02*
Y558018D01*
X-760502Y554019D01*
X-755171D01*
X-747173Y558018D02*
X-752505D01*
Y554019D01*
X-749839Y555352D01*
X-748506D01*
X-747173Y554019D01*
Y551353D01*
X-748506Y550020D01*
X-751172D01*
X-752505Y551353D01*
X-741000Y522150D02*
Y514152D01*
X-744999D01*
X-746331Y515485D01*
Y518151D01*
X-744999Y519484D01*
X-741000D01*
X-743666D02*
X-746331Y522150D01*
X-752996D02*
Y514152D01*
X-748997Y518151D01*
X-754329D01*
X-762326Y514152D02*
X-759660Y515485D01*
X-756995Y518151D01*
Y520817D01*
X-758328Y522150D01*
X-760993D01*
X-762326Y520817D01*
Y519484D01*
X-760993Y518151D01*
X-756995D01*
X-741000Y576739D02*
Y568741D01*
X-744998D01*
X-746331Y570074D01*
Y572740D01*
X-744998Y574073D01*
X-741000D01*
X-743666D02*
X-746331Y576739D01*
X-752996D02*
Y568741D01*
X-748997Y572740D01*
X-754329D01*
X-756995Y568741D02*
X-762326D01*
Y570074D01*
X-756995Y575406D01*
Y576739D01*
X-768500Y559239D02*
Y567236D01*
X-764501D01*
X-763168Y565903D01*
Y563237D01*
X-764501Y561905D01*
X-768500D01*
X-765834D02*
X-763168Y559239D01*
X-756504D02*
Y567236D01*
X-760502Y563237D01*
X-755171D01*
X-752505Y565903D02*
X-751172Y567236D01*
X-748506D01*
X-747173Y565903D01*
Y564570D01*
X-748506Y563237D01*
X-747173Y561905D01*
Y560572D01*
X-748506Y559239D01*
X-751172D01*
X-752505Y560572D01*
Y561905D01*
X-751172Y563237D01*
X-752505Y564570D01*
Y565903D01*
X-751172Y563237D02*
X-748506D01*
X-768500Y577239D02*
Y585236D01*
X-764501D01*
X-763168Y583903D01*
Y581237D01*
X-764501Y579905D01*
X-768500D01*
X-765834D02*
X-763168Y577239D01*
X-756504D02*
Y585236D01*
X-760502Y581237D01*
X-755171D01*
X-752505Y578572D02*
X-751172Y577239D01*
X-748506D01*
X-747173Y578572D01*
Y583903D01*
X-748506Y585236D01*
X-751172D01*
X-752505Y583903D01*
Y582570D01*
X-751172Y581237D01*
X-747173D01*
X-623918Y439314D02*
X-625251Y440647D01*
X-627917D01*
X-629250Y439314D01*
Y433983D01*
X-627917Y432650D01*
X-625251D01*
X-623918Y433983D01*
X-615921Y440647D02*
X-618587Y439314D01*
X-621253Y436649D01*
Y433983D01*
X-619920Y432650D01*
X-617254D01*
X-615921Y433983D01*
Y435316D01*
X-617254Y436649D01*
X-621253D01*
X-609256Y432650D02*
Y440647D01*
X-613255Y436649D01*
X-607923D01*
X-624168Y462340D02*
X-625501Y463672D01*
X-628167D01*
X-629500Y462340D01*
Y457008D01*
X-628167Y455675D01*
X-625501D01*
X-624168Y457008D01*
X-616171Y463672D02*
X-618837Y462340D01*
X-621502Y459674D01*
Y457008D01*
X-620169Y455675D01*
X-617504D01*
X-616171Y457008D01*
Y458341D01*
X-617504Y459674D01*
X-621502D01*
X-608173Y463672D02*
X-613505D01*
Y459674D01*
X-610839Y461007D01*
X-609506D01*
X-608173Y459674D01*
Y457008D01*
X-609506Y455675D01*
X-612172D01*
X-613505Y457008D01*
X-741000Y450150D02*
Y442153D01*
X-744998D01*
X-746331Y443485D01*
Y446151D01*
X-744998Y447484D01*
X-741000D01*
X-743666D02*
X-746331Y450150D01*
X-752996D02*
Y442153D01*
X-748997Y446151D01*
X-754329D01*
X-762326Y450150D02*
X-756995D01*
X-762326Y444818D01*
Y443485D01*
X-760993Y442153D01*
X-758328D01*
X-756995Y443485D01*
X-741000Y432150D02*
Y424152D01*
X-744999D01*
X-746331Y425485D01*
Y428151D01*
X-744999Y429484D01*
X-741000D01*
X-743666D02*
X-746331Y432150D01*
X-752996D02*
Y424152D01*
X-748997Y428151D01*
X-754329D01*
X-762326Y424152D02*
X-759660Y425485D01*
X-756995Y428151D01*
Y430817D01*
X-758328Y432150D01*
X-760993D01*
X-762326Y430817D01*
Y429484D01*
X-760993Y428151D01*
X-756995D01*
X-741000Y441150D02*
Y433153D01*
X-744998D01*
X-746331Y434485D01*
Y437151D01*
X-744998Y438484D01*
X-741000D01*
X-743666D02*
X-746331Y441150D01*
X-752996D02*
Y433153D01*
X-748997Y437151D01*
X-754329D01*
X-756995Y434485D02*
X-758328Y433153D01*
X-760993D01*
X-762326Y434485D01*
Y435818D01*
X-760993Y437151D01*
X-759660D01*
X-760993D01*
X-762326Y438484D01*
Y439817D01*
X-760993Y441150D01*
X-758328D01*
X-756995Y439817D01*
X-768500Y469239D02*
Y477236D01*
X-764501D01*
X-763168Y475903D01*
Y473237D01*
X-764501Y471905D01*
X-768500D01*
X-765834D02*
X-763168Y469239D01*
X-756504D02*
Y477236D01*
X-760502Y473237D01*
X-755171D01*
X-752505Y475903D02*
X-751172Y477236D01*
X-748506D01*
X-747173Y475903D01*
Y474570D01*
X-748506Y473237D01*
X-747173Y471905D01*
Y470572D01*
X-748506Y469239D01*
X-751172D01*
X-752505Y470572D01*
Y471905D01*
X-751172Y473237D01*
X-752505Y474570D01*
Y475903D01*
X-751172Y473237D02*
X-748506D01*
X-741000Y486739D02*
Y478741D01*
X-744998D01*
X-746331Y480074D01*
Y482740D01*
X-744998Y484073D01*
X-741000D01*
X-743666D02*
X-746331Y486739D01*
X-752996D02*
Y478741D01*
X-748997Y482740D01*
X-754329D01*
X-756995Y478741D02*
X-762326D01*
Y480074D01*
X-756995Y485406D01*
Y486739D01*
X-768500Y487239D02*
Y495236D01*
X-764501D01*
X-763168Y493903D01*
Y491237D01*
X-764501Y489905D01*
X-768500D01*
X-765834D02*
X-763168Y487239D01*
X-756504D02*
Y495236D01*
X-760502Y491237D01*
X-755171D01*
X-752505Y488572D02*
X-751172Y487239D01*
X-748506D01*
X-747173Y488572D01*
Y493903D01*
X-748506Y495236D01*
X-751172D01*
X-752505Y493903D01*
Y492570D01*
X-751172Y491237D01*
X-747173D01*
X-768500Y451020D02*
Y459017D01*
X-764501D01*
X-763168Y457685D01*
Y455019D01*
X-764501Y453686D01*
X-768500D01*
X-765834D02*
X-763168Y451020D01*
X-756504D02*
Y459017D01*
X-760502Y455019D01*
X-755171D01*
X-748506Y451020D02*
Y459017D01*
X-752505Y455019D01*
X-747173D01*
X-768500Y460020D02*
Y468018D01*
X-764501D01*
X-763168Y466685D01*
Y464019D01*
X-764501Y462686D01*
X-768500D01*
X-765834D02*
X-763168Y460020D01*
X-756504D02*
Y468018D01*
X-760502Y464019D01*
X-755171D01*
X-747173Y468018D02*
X-752505D01*
Y464019D01*
X-749839Y465352D01*
X-748506D01*
X-747173Y464019D01*
Y461353D01*
X-748506Y460020D01*
X-751172D01*
X-752505Y461353D01*
X-713331Y480485D02*
X-711999Y479152D01*
X-709333D01*
X-708000Y480485D01*
Y485817D01*
X-709333Y487150D01*
X-711999D01*
X-713331Y485817D01*
X-721329Y479152D02*
X-718663Y480485D01*
X-715997Y483151D01*
Y485817D01*
X-717330Y487150D01*
X-719996D01*
X-721329Y485817D01*
Y484484D01*
X-719996Y483151D01*
X-715997D01*
X-723995Y480485D02*
X-725328Y479152D01*
X-727993D01*
X-729326Y480485D01*
Y485817D01*
X-727993Y487150D01*
X-725328D01*
X-723995Y485817D01*
Y480485D01*
X-713331Y457510D02*
X-711999Y456178D01*
X-709333D01*
X-708000Y457510D01*
Y462842D01*
X-709333Y464175D01*
X-711999D01*
X-713331Y462842D01*
X-721329Y456178D02*
X-718663Y457510D01*
X-715997Y460176D01*
Y462842D01*
X-717330Y464175D01*
X-719996D01*
X-721329Y462842D01*
Y461509D01*
X-719996Y460176D01*
X-715997D01*
X-729326Y464175D02*
X-723995D01*
X-729326Y458843D01*
Y457510D01*
X-727993Y456178D01*
X-725328D01*
X-723995Y457510D01*
X-713331Y434486D02*
X-711999Y433153D01*
X-709333D01*
X-708000Y434486D01*
Y439817D01*
X-709333Y441150D01*
X-711999D01*
X-713331Y439817D01*
X-721329Y433153D02*
X-718663Y434486D01*
X-715997Y437151D01*
Y439817D01*
X-717330Y441150D01*
X-719996D01*
X-721329Y439817D01*
Y438484D01*
X-719996Y437151D01*
X-715997D01*
X-723995Y441150D02*
X-726661D01*
X-725328D01*
Y433153D01*
X-723995Y434486D01*
X-654331Y492985D02*
X-652999Y491653D01*
X-650333D01*
X-649000Y492985D01*
Y498317D01*
X-650333Y499650D01*
X-652999D01*
X-654331Y498317D01*
X-662329Y491653D02*
X-659663Y492985D01*
X-656997Y495651D01*
Y498317D01*
X-658330Y499650D01*
X-660996D01*
X-662329Y498317D01*
Y496984D01*
X-660996Y495651D01*
X-656997D01*
X-664995Y491653D02*
X-670326D01*
Y492985D01*
X-664995Y498317D01*
Y499650D01*
X-256668Y581414D02*
X-258001Y582747D01*
X-260667D01*
X-262000Y581414D01*
Y576083D01*
X-260667Y574750D01*
X-258001D01*
X-256668Y576083D01*
X-254003Y574750D02*
X-251337D01*
X-252670D01*
Y582747D01*
X-254003Y581414D01*
X-242006Y574750D02*
X-247338D01*
X-242006Y580082D01*
Y581414D01*
X-243339Y582747D01*
X-246005D01*
X-247338Y581414D01*
X-271250Y496500D02*
X-279247D01*
Y500499D01*
X-277915Y501832D01*
X-275249D01*
X-273916Y500499D01*
Y496500D01*
Y499166D02*
X-271250Y501832D01*
Y504497D02*
Y507163D01*
Y505830D01*
X-279247D01*
X-277915Y504497D01*
X-279247Y516494D02*
Y511162D01*
X-275249D01*
X-276582Y513828D01*
Y515161D01*
X-275249Y516494D01*
X-272583D01*
X-271250Y515161D01*
Y512495D01*
X-272583Y511162D01*
X-326750Y587250D02*
X-334747D01*
Y591249D01*
X-333414Y592582D01*
X-330748D01*
X-329416Y591249D01*
Y587250D01*
Y589916D02*
X-326750Y592582D01*
X-334747Y595248D02*
Y600579D01*
X-333414D01*
X-328083Y595248D01*
X-326750D01*
X-333414Y603245D02*
X-334747Y604578D01*
Y607244D01*
X-333414Y608577D01*
X-328083D01*
X-326750Y607244D01*
Y604578D01*
X-328083Y603245D01*
X-333414D01*
X-351500Y234850D02*
Y242847D01*
X-347501D01*
X-346168Y241514D01*
Y238848D01*
X-347501Y237516D01*
X-351500D01*
X-348834D02*
X-346168Y234850D01*
X-343502Y242847D02*
X-338171D01*
Y241514D01*
X-343502Y236183D01*
Y234850D01*
X-335505Y241514D02*
X-334172Y242847D01*
X-331506D01*
X-330173Y241514D01*
Y236183D01*
X-331506Y234850D01*
X-334172D01*
X-335505Y236183D01*
Y241514D01*
X96500Y234850D02*
Y242847D01*
X100499D01*
X101832Y241514D01*
Y238848D01*
X100499Y237516D01*
X96500D01*
X99166D02*
X101832Y234850D01*
X104498Y242847D02*
X109829D01*
Y241514D01*
X104498Y236183D01*
Y234850D01*
X112495Y241514D02*
X113828Y242847D01*
X116494D01*
X117827Y241514D01*
Y236183D01*
X116494Y234850D01*
X113828D01*
X112495Y236183D01*
Y241514D01*
X242500Y234850D02*
Y242847D01*
X246499D01*
X247832Y241514D01*
Y238848D01*
X246499Y237516D01*
X242500D01*
X245166D02*
X247832Y234850D01*
X250498Y242847D02*
X255829D01*
Y241514D01*
X250498Y236183D01*
Y234850D01*
X258495Y241514D02*
X259828Y242847D01*
X262494D01*
X263827Y241514D01*
Y236183D01*
X262494Y234850D01*
X259828D01*
X258495Y236183D01*
Y241514D01*
X-197500Y234850D02*
Y242847D01*
X-193501D01*
X-192168Y241514D01*
Y238848D01*
X-193501Y237516D01*
X-197500D01*
X-194834D02*
X-192168Y234850D01*
X-189502Y242847D02*
X-184171D01*
Y241514D01*
X-189502Y236183D01*
Y234850D01*
X-181505Y241514D02*
X-180172Y242847D01*
X-177506D01*
X-176173Y241514D01*
Y236183D01*
X-177506Y234850D01*
X-180172D01*
X-181505Y236183D01*
Y241514D01*
X-657500Y234850D02*
Y242847D01*
X-653501D01*
X-652168Y241514D01*
Y238848D01*
X-653501Y237516D01*
X-657500D01*
X-654834D02*
X-652168Y234850D01*
X-649502Y242847D02*
X-644171D01*
Y241514D01*
X-649502Y236183D01*
Y234850D01*
X-641505Y241514D02*
X-640172Y242847D01*
X-637506D01*
X-636173Y241514D01*
Y236183D01*
X-637506Y234850D01*
X-640172D01*
X-641505Y236183D01*
Y241514D01*
X551500Y234850D02*
Y242847D01*
X555499D01*
X556832Y241514D01*
Y238848D01*
X555499Y237516D01*
X551500D01*
X554166D02*
X556832Y234850D01*
X559498Y242847D02*
X564829D01*
Y241514D01*
X559498Y236183D01*
Y234850D01*
X567495Y241514D02*
X568828Y242847D01*
X571494D01*
X572827Y241514D01*
Y236183D01*
X571494Y234850D01*
X568828D01*
X567495Y236183D01*
Y241514D01*
X-507500Y234850D02*
Y242847D01*
X-503501D01*
X-502168Y241514D01*
Y238848D01*
X-503501Y237516D01*
X-507500D01*
X-504834D02*
X-502168Y234850D01*
X-499502Y242847D02*
X-494171D01*
Y241514D01*
X-499502Y236183D01*
Y234850D01*
X-491505Y241514D02*
X-490172Y242847D01*
X-487506D01*
X-486173Y241514D01*
Y236183D01*
X-487506Y234850D01*
X-490172D01*
X-491505Y236183D01*
Y241514D01*
X-51500Y234850D02*
Y242847D01*
X-47501D01*
X-46168Y241514D01*
Y238848D01*
X-47501Y237516D01*
X-51500D01*
X-48834D02*
X-46168Y234850D01*
X-43502Y242847D02*
X-38171D01*
Y241514D01*
X-43502Y236183D01*
Y234850D01*
X-35505Y241514D02*
X-34172Y242847D01*
X-31506D01*
X-30173Y241514D01*
Y236183D01*
X-31506Y234850D01*
X-34172D01*
X-35505Y236183D01*
Y241514D01*
X398500Y234850D02*
Y242847D01*
X402499D01*
X403832Y241514D01*
Y238848D01*
X402499Y237516D01*
X398500D01*
X401166D02*
X403832Y234850D01*
X406498Y242847D02*
X411829D01*
Y241514D01*
X406498Y236183D01*
Y234850D01*
X414495Y241514D02*
X415828Y242847D01*
X418494D01*
X419827Y241514D01*
Y236183D01*
X418494Y234850D01*
X415828D01*
X414495Y236183D01*
Y241514D01*
X699500Y234850D02*
Y242847D01*
X703499D01*
X704832Y241514D01*
Y238848D01*
X703499Y237516D01*
X699500D01*
X702166D02*
X704832Y234850D01*
X707498Y242847D02*
X712829D01*
Y241514D01*
X707498Y236183D01*
Y234850D01*
X715495Y241514D02*
X716828Y242847D01*
X719494D01*
X720827Y241514D01*
Y236183D01*
X719494Y234850D01*
X716828D01*
X715495Y236183D01*
Y241514D01*
X-596500Y531650D02*
Y539647D01*
X-592501D01*
X-591168Y538315D01*
Y535649D01*
X-592501Y534316D01*
X-596500D01*
X-593834D02*
X-591168Y531650D01*
X-583171Y539647D02*
X-588503D01*
Y535649D01*
X-585837Y536982D01*
X-584504D01*
X-583171Y535649D01*
Y532983D01*
X-584504Y531650D01*
X-587169D01*
X-588503Y532983D01*
X-580505Y538315D02*
X-579172Y539647D01*
X-576506D01*
X-575173Y538315D01*
Y532983D01*
X-576506Y531650D01*
X-579172D01*
X-580505Y532983D01*
Y538315D01*
X-569000Y531150D02*
Y523153D01*
X-572999D01*
X-574332Y524485D01*
Y527151D01*
X-572999Y528484D01*
X-569000D01*
X-571666D02*
X-574332Y531150D01*
X-582329Y523153D02*
X-576997D01*
Y527151D01*
X-579663Y525818D01*
X-580996D01*
X-582329Y527151D01*
Y529817D01*
X-580996Y531150D01*
X-578330D01*
X-576997Y529817D01*
X-584995Y531150D02*
X-587660D01*
X-586328D01*
Y523153D01*
X-584995Y524485D01*
X-596500Y541020D02*
Y549017D01*
X-592501D01*
X-591168Y547685D01*
Y545019D01*
X-592501Y543686D01*
X-596500D01*
X-593834D02*
X-591168Y541020D01*
X-583171Y549017D02*
X-588503D01*
Y545019D01*
X-585837Y546352D01*
X-584504D01*
X-583171Y545019D01*
Y542353D01*
X-584504Y541020D01*
X-587169D01*
X-588503Y542353D01*
X-575173Y541020D02*
X-580505D01*
X-575173Y546352D01*
Y547685D01*
X-576506Y549017D01*
X-579172D01*
X-580505Y547685D01*
X-569000Y558520D02*
Y550523D01*
X-572999D01*
X-574332Y551856D01*
Y554521D01*
X-572999Y555854D01*
X-569000D01*
X-571666D02*
X-574332Y558520D01*
X-582329Y550523D02*
X-576997D01*
Y554521D01*
X-579663Y553189D01*
X-580996D01*
X-582329Y554521D01*
Y557187D01*
X-580996Y558520D01*
X-578330D01*
X-576997Y557187D01*
X-588993Y558520D02*
Y550523D01*
X-584995Y554521D01*
X-590326D01*
X-569000Y522150D02*
Y514152D01*
X-572999D01*
X-574332Y515485D01*
Y518151D01*
X-572999Y519484D01*
X-569000D01*
X-571666D02*
X-574332Y522150D01*
X-582329Y514152D02*
X-576997D01*
Y518151D01*
X-579663Y516818D01*
X-580996D01*
X-582329Y518151D01*
Y520817D01*
X-580996Y522150D01*
X-578330D01*
X-576997Y520817D01*
X-584995Y515485D02*
X-586328Y514152D01*
X-588993D01*
X-590326Y515485D01*
Y516818D01*
X-588993Y518151D01*
X-587660D01*
X-588993D01*
X-590326Y519484D01*
Y520817D01*
X-588993Y522150D01*
X-586328D01*
X-584995Y520817D01*
X-595331Y570485D02*
X-593999Y569152D01*
X-591333D01*
X-590000Y570485D01*
Y575817D01*
X-591333Y577150D01*
X-593999D01*
X-595331Y575817D01*
X-603329Y569152D02*
X-600663Y570485D01*
X-597997Y573151D01*
Y575817D01*
X-599330Y577150D01*
X-601996D01*
X-603329Y575817D01*
Y574484D01*
X-601996Y573151D01*
X-597997D01*
X-605995Y570485D02*
X-607328Y569152D01*
X-609993D01*
X-611326Y570485D01*
Y571818D01*
X-609993Y573151D01*
X-608661D01*
X-609993D01*
X-611326Y574484D01*
Y575817D01*
X-609993Y577150D01*
X-607328D01*
X-605995Y575817D01*
X-569000Y585150D02*
Y577153D01*
X-572999D01*
X-574331Y578485D01*
Y581151D01*
X-572999Y582484D01*
X-569000D01*
X-571666D02*
X-574331Y585150D01*
X-582329Y577153D02*
X-576997D01*
Y581151D01*
X-579663Y579818D01*
X-580996D01*
X-582329Y581151D01*
Y583817D01*
X-580996Y585150D01*
X-578330D01*
X-576997Y583817D01*
X-590326Y577153D02*
X-584995D01*
Y581151D01*
X-587660Y579818D01*
X-588993D01*
X-590326Y581151D01*
Y583817D01*
X-588993Y585150D01*
X-586328D01*
X-584995Y583817D01*
X-569000Y576150D02*
Y568153D01*
X-572999D01*
X-574331Y569485D01*
Y572151D01*
X-572999Y573484D01*
X-569000D01*
X-571666D02*
X-574331Y576150D01*
X-582329Y568153D02*
X-576997D01*
Y572151D01*
X-579663Y570818D01*
X-580996D01*
X-582329Y572151D01*
Y574817D01*
X-580996Y576150D01*
X-578330D01*
X-576997Y574817D01*
X-584995Y568153D02*
X-590326D01*
Y569485D01*
X-584995Y574817D01*
Y576150D01*
X-569000Y567150D02*
Y559153D01*
X-572999D01*
X-574331Y560485D01*
Y563151D01*
X-572999Y564484D01*
X-569000D01*
X-571666D02*
X-574331Y567150D01*
X-582329Y559153D02*
X-576997D01*
Y563151D01*
X-579663Y561818D01*
X-580996D01*
X-582329Y563151D01*
Y565817D01*
X-580996Y567150D01*
X-578330D01*
X-576997Y565817D01*
X-590326Y559153D02*
X-587660Y560485D01*
X-584995Y563151D01*
Y565817D01*
X-586328Y567150D01*
X-588993D01*
X-590326Y565817D01*
Y564484D01*
X-588993Y563151D01*
X-584995D01*
X-596500Y441650D02*
Y449647D01*
X-592501D01*
X-591168Y448315D01*
Y445649D01*
X-592501Y444316D01*
X-596500D01*
X-593834D02*
X-591168Y441650D01*
X-583171Y449647D02*
X-588503D01*
Y445649D01*
X-585837Y446982D01*
X-584504D01*
X-583171Y445649D01*
Y442983D01*
X-584504Y441650D01*
X-587169D01*
X-588503Y442983D01*
X-580505Y448315D02*
X-579172Y449647D01*
X-576506D01*
X-575173Y448315D01*
Y442983D01*
X-576506Y441650D01*
X-579172D01*
X-580505Y442983D01*
Y448315D01*
X-569000Y441150D02*
Y433153D01*
X-572999D01*
X-574332Y434485D01*
Y437151D01*
X-572999Y438484D01*
X-569000D01*
X-571666D02*
X-574332Y441150D01*
X-582329Y433153D02*
X-576997D01*
Y437151D01*
X-579663Y435818D01*
X-580996D01*
X-582329Y437151D01*
Y439817D01*
X-580996Y441150D01*
X-578330D01*
X-576997Y439817D01*
X-584995Y441150D02*
X-587660D01*
X-586328D01*
Y433153D01*
X-584995Y434485D01*
X-596500Y451020D02*
Y459017D01*
X-592501D01*
X-591168Y457685D01*
Y455019D01*
X-592501Y453686D01*
X-596500D01*
X-593834D02*
X-591168Y451020D01*
X-583171Y459017D02*
X-588503D01*
Y455019D01*
X-585837Y456352D01*
X-584504D01*
X-583171Y455019D01*
Y452353D01*
X-584504Y451020D01*
X-587169D01*
X-588503Y452353D01*
X-575173Y451020D02*
X-580505D01*
X-575173Y456352D01*
Y457685D01*
X-576506Y459017D01*
X-579172D01*
X-580505Y457685D01*
X-569000Y468520D02*
Y460523D01*
X-572999D01*
X-574332Y461856D01*
Y464521D01*
X-572999Y465854D01*
X-569000D01*
X-571666D02*
X-574332Y468520D01*
X-582329Y460523D02*
X-576997D01*
Y464521D01*
X-579663Y463189D01*
X-580996D01*
X-582329Y464521D01*
Y467187D01*
X-580996Y468520D01*
X-578330D01*
X-576997Y467187D01*
X-588993Y468520D02*
Y460523D01*
X-584995Y464521D01*
X-590326D01*
X-569000Y432150D02*
Y424152D01*
X-572999D01*
X-574332Y425485D01*
Y428151D01*
X-572999Y429484D01*
X-569000D01*
X-571666D02*
X-574332Y432150D01*
X-582329Y424152D02*
X-576997D01*
Y428151D01*
X-579663Y426818D01*
X-580996D01*
X-582329Y428151D01*
Y430817D01*
X-580996Y432150D01*
X-578330D01*
X-576997Y430817D01*
X-584995Y425485D02*
X-586328Y424152D01*
X-588993D01*
X-590326Y425485D01*
Y426818D01*
X-588993Y428151D01*
X-587660D01*
X-588993D01*
X-590326Y429484D01*
Y430817D01*
X-588993Y432150D01*
X-586328D01*
X-584995Y430817D01*
X-595331Y480485D02*
X-593999Y479152D01*
X-591333D01*
X-590000Y480485D01*
Y485817D01*
X-591333Y487150D01*
X-593999D01*
X-595331Y485817D01*
X-603329Y479152D02*
X-600663Y480485D01*
X-597997Y483151D01*
Y485817D01*
X-599330Y487150D01*
X-601996D01*
X-603329Y485817D01*
Y484484D01*
X-601996Y483151D01*
X-597997D01*
X-605995Y480485D02*
X-607328Y479152D01*
X-609993D01*
X-611326Y480485D01*
Y481818D01*
X-609993Y483151D01*
X-608661D01*
X-609993D01*
X-611326Y484484D01*
Y485817D01*
X-609993Y487150D01*
X-607328D01*
X-605995Y485817D01*
X-569000Y495150D02*
Y487153D01*
X-572999D01*
X-574331Y488485D01*
Y491151D01*
X-572999Y492484D01*
X-569000D01*
X-571666D02*
X-574331Y495150D01*
X-582329Y487153D02*
X-576997D01*
Y491151D01*
X-579663Y489818D01*
X-580996D01*
X-582329Y491151D01*
Y493817D01*
X-580996Y495150D01*
X-578330D01*
X-576997Y493817D01*
X-590326Y487153D02*
X-584995D01*
Y491151D01*
X-587660Y489818D01*
X-588993D01*
X-590326Y491151D01*
Y493817D01*
X-588993Y495150D01*
X-586328D01*
X-584995Y493817D01*
X-569000Y486150D02*
Y478153D01*
X-572999D01*
X-574331Y479486D01*
Y482151D01*
X-572999Y483484D01*
X-569000D01*
X-571666D02*
X-574331Y486150D01*
X-582329Y478153D02*
X-576997D01*
Y482151D01*
X-579663Y480818D01*
X-580996D01*
X-582329Y482151D01*
Y484817D01*
X-580996Y486150D01*
X-578330D01*
X-576997Y484817D01*
X-584995Y478153D02*
X-590326D01*
Y479486D01*
X-584995Y484817D01*
Y486150D01*
X-569000Y477150D02*
Y469153D01*
X-572999D01*
X-574331Y470485D01*
Y473151D01*
X-572999Y474484D01*
X-569000D01*
X-571666D02*
X-574331Y477150D01*
X-582329Y469153D02*
X-576997D01*
Y473151D01*
X-579663Y471818D01*
X-580996D01*
X-582329Y473151D01*
Y475817D01*
X-580996Y477150D01*
X-578330D01*
X-576997Y475817D01*
X-590326Y469153D02*
X-587660Y470485D01*
X-584995Y473151D01*
Y475817D01*
X-586328Y477150D01*
X-588993D01*
X-590326Y475817D01*
Y474484D01*
X-588993Y473151D01*
X-584995D01*
X-760750Y283100D02*
X-768747D01*
Y287099D01*
X-767414Y288431D01*
X-764749D01*
X-763416Y287099D01*
Y283100D01*
Y285766D02*
X-760750Y288431D01*
X-768747Y291097D02*
Y296429D01*
X-767414D01*
X-762083Y291097D01*
X-760750D01*
Y299095D02*
Y301761D01*
Y300428D01*
X-768747D01*
X-767414Y299095D01*
X-157000Y283350D02*
X-164997D01*
Y287348D01*
X-163664Y288681D01*
X-160998D01*
X-159665Y287348D01*
Y283350D01*
Y286016D02*
X-157000Y288681D01*
X-164997Y291347D02*
Y296679D01*
X-163664D01*
X-158333Y291347D01*
X-157000D01*
X-164997Y304676D02*
X-163664Y302010D01*
X-160998Y299345D01*
X-158333D01*
X-157000Y300678D01*
Y303343D01*
X-158333Y304676D01*
X-159665D01*
X-160998Y303343D01*
Y299345D01*
X-450250Y303755D02*
Y295758D01*
X-454249D01*
X-455582Y297090D01*
Y299756D01*
X-454249Y301089D01*
X-450250D01*
X-452916D02*
X-455582Y303755D01*
X-458247Y295758D02*
X-463579D01*
Y297090D01*
X-458247Y302422D01*
Y303755D01*
X-466245Y295758D02*
X-471576D01*
Y297090D01*
X-466245Y302422D01*
Y303755D01*
X-295323Y-381100D02*
X-287325D01*
Y-385099D01*
X-288658Y-386432D01*
X-291324D01*
X-292657Y-385099D01*
Y-381100D01*
Y-383766D02*
X-295323Y-386432D01*
X-287325Y-394429D02*
X-288658Y-391763D01*
X-291324Y-389097D01*
X-293990D01*
X-295323Y-390430D01*
Y-393096D01*
X-293990Y-394429D01*
X-292657D01*
X-291324Y-393096D01*
Y-389097D01*
X-287325Y-402426D02*
Y-397095D01*
X-291324D01*
X-289991Y-399761D01*
Y-401093D01*
X-291324Y-402426D01*
X-293990D01*
X-295323Y-401093D01*
Y-398428D01*
X-293990Y-397095D01*
X551307Y602613D02*
X541310D01*
Y597615D01*
X542976Y595948D01*
X549641D01*
X551307Y597615D01*
Y602613D01*
X541310Y585952D02*
Y592616D01*
X547975Y585952D01*
X549641D01*
X551307Y587618D01*
Y590950D01*
X549641Y592616D01*
D104*
X487084Y565964D02*
Y600508D01*
X504890Y565964D02*
Y600508D01*
X487084Y565964D02*
X504890D01*
X487084Y600508D02*
X504890D01*
X273351Y419200D02*
X292656D01*
X273352Y429026D02*
X292656D01*
X292656Y419200D01*
X273351D02*
X273352Y429026D01*
X-279652Y-50000D02*
X-260348D01*
X-279652Y-40174D02*
X-260348D01*
Y-50000D02*
Y-40174D01*
X-279652Y-50000D02*
X-279652Y-40174D01*
X-295899Y-384002D02*
X-286073D01*
X-295899Y-364698D02*
X-286073D01*
X-295899Y-384002D02*
Y-364698D01*
X-286073Y-384002D02*
Y-364698D01*
X594101Y-384002D02*
X603927D01*
X594101Y-364698D02*
X603927D01*
X594101Y-384002D02*
Y-364698D01*
X603927Y-384002D02*
Y-364698D01*
X-313638Y42674D02*
X-313638Y52500D01*
X-332942D02*
X-332942Y42674D01*
X-313638D01*
X-332942Y52500D02*
X-313638D01*
X-315188Y-71826D02*
X-315188Y-62000D01*
X-334492D02*
X-334492Y-71826D01*
X-315188D01*
X-334492Y-62000D02*
X-315188D01*
X-351616Y52848D02*
X-341790Y52848D01*
X-351616Y72152D02*
X-341790Y72152D01*
X-351616Y52848D02*
Y72152D01*
X-341790Y52848D02*
Y72152D01*
X-332138Y42674D02*
X-332138Y52500D01*
X-351442D02*
X-351442Y42674D01*
X-332138D01*
X-351442Y52500D02*
X-332138D01*
X-330588Y-71826D02*
X-330588Y-62000D01*
X-349892D02*
X-349892Y-71826D01*
X-330588D01*
X-349892Y-62000D02*
X-330588D01*
X-279652Y-30000D02*
X-279652Y-20174D01*
X-260348D02*
X-260348Y-30000D01*
X-279652Y-20174D02*
X-260348D01*
X-279652Y-30000D02*
X-260348D01*
X678258Y-154412D02*
X702642D01*
X678258Y-165588D02*
X702642D01*
X678258D02*
Y-154412D01*
X702642Y-165588D02*
Y-154412D01*
X688288Y-192192D02*
Y-167808D01*
X677112Y-192192D02*
Y-167808D01*
X688288D01*
X677112Y-192192D02*
X688288D01*
X678258Y-194412D02*
X702642D01*
X678258Y-205588D02*
X702642D01*
X678258D02*
Y-194412D01*
X702642Y-205588D02*
Y-194412D01*
X-775142Y-160838D02*
Y-149662D01*
X-750758Y-160838D02*
Y-149662D01*
X-775142D02*
X-750758D01*
X-775142Y-160838D02*
X-750758D01*
X-760788Y-187442D02*
X-749612D01*
X-760788Y-163058D02*
X-749612D01*
X-760788Y-187442D02*
Y-163058D01*
X-749612Y-187442D02*
Y-163058D01*
X-775142Y-200838D02*
Y-189662D01*
X-750758Y-200838D02*
Y-189662D01*
X-775142D02*
X-750758D01*
X-775142Y-200838D02*
X-750758D01*
X-686058Y-160838D02*
Y-149662D01*
X-710442Y-160838D02*
Y-149662D01*
Y-160838D02*
X-686058D01*
X-710442Y-149662D02*
X-686058D01*
X-711588Y-187442D02*
X-700412D01*
X-711588Y-163058D02*
X-700412D01*
X-711588Y-187442D02*
Y-163058D01*
X-700412Y-187442D02*
Y-163058D01*
X-686058Y-200838D02*
Y-189662D01*
X-710442Y-200838D02*
Y-189662D01*
Y-200838D02*
X-686058D01*
X-710442Y-189662D02*
X-686058D01*
X-333153Y-230449D02*
X-325250Y-238352D01*
X-315911Y-213207D02*
X-308008Y-221110D01*
X-333153Y-230449D02*
X-315911Y-213207D01*
X-325250Y-238352D02*
X-308008Y-221110D01*
X-296171Y-247132D02*
X-288268Y-239229D01*
X-313413Y-229890D02*
X-305510Y-221987D01*
X-313413Y-229890D02*
X-296171Y-247132D01*
X-305510Y-221987D02*
X-288268Y-239229D01*
X-304552Y-258650D02*
X-296650Y-266552D01*
X-287310Y-241408D02*
X-279408Y-249310D01*
X-304552Y-258650D02*
X-287310Y-241408D01*
X-296650Y-266552D02*
X-279408Y-249310D01*
X-187358Y-125338D02*
Y-114162D01*
X-211742Y-125338D02*
Y-114162D01*
Y-125338D02*
X-187358D01*
X-211742Y-114162D02*
X-187358D01*
X-212888Y-151942D02*
X-201712D01*
X-212888Y-127558D02*
X-201712D01*
X-212888Y-151942D02*
Y-127558D01*
X-201712Y-151942D02*
Y-127558D01*
X-187358Y-165338D02*
Y-154162D01*
X-211742Y-165338D02*
Y-154162D01*
Y-165338D02*
X-187358D01*
X-211742Y-154162D02*
X-187358D01*
X-71308Y-165338D02*
Y-154162D01*
X-95692Y-165338D02*
Y-154162D01*
Y-165338D02*
X-71308D01*
X-95692Y-154162D02*
X-71308D01*
X-96838Y-127558D02*
X-85662D01*
X-96838Y-151942D02*
X-85662D01*
Y-127558D01*
X-96838Y-151942D02*
Y-127558D01*
X-71308Y-125338D02*
Y-114162D01*
X-95692Y-125338D02*
Y-114162D01*
Y-125338D02*
X-71308D01*
X-95692Y-114162D02*
X-71308D01*
X-55692Y-125338D02*
Y-114162D01*
X-31308Y-125338D02*
Y-114162D01*
X-55692D02*
X-31308D01*
X-55692Y-125338D02*
X-31308D01*
X-41338Y-151942D02*
X-30162D01*
X-41338Y-127558D02*
X-30162D01*
X-41338Y-151942D02*
Y-127558D01*
X-30162Y-151942D02*
Y-127558D01*
X-55692Y-165338D02*
Y-154162D01*
X-31308Y-165338D02*
Y-154162D01*
X-55692D02*
X-31308D01*
X-55692Y-165338D02*
X-31308D01*
X125808Y-125338D02*
Y-114162D01*
X150192Y-125338D02*
Y-114162D01*
X125808D02*
X150192D01*
X125808Y-125338D02*
X150192D01*
X140162Y-151942D02*
X151338D01*
X140162Y-127558D02*
X151338D01*
X140162Y-151942D02*
Y-127558D01*
X151338Y-151942D02*
Y-127558D01*
X125808Y-165338D02*
Y-154162D01*
X150192Y-165338D02*
Y-154162D01*
X125808D02*
X150192D01*
X125808Y-165338D02*
X150192D01*
X627358Y-165588D02*
Y-154412D01*
X651742Y-165588D02*
Y-154412D01*
X627358D02*
X651742D01*
X627358Y-165588D02*
X651742D01*
X641712Y-192192D02*
X652888D01*
X641712Y-167808D02*
X652888D01*
X641712Y-192192D02*
Y-167808D01*
X652888Y-192192D02*
Y-167808D01*
X627358Y-205588D02*
Y-194412D01*
X651742Y-205588D02*
Y-194412D01*
X627358D02*
X651742D01*
X627358Y-205588D02*
X651742D01*
X748308Y-165590D02*
Y-154414D01*
X772692Y-165590D02*
Y-154414D01*
X748308D02*
X772692D01*
X748308Y-165590D02*
X772692D01*
X762662Y-192194D02*
X773838D01*
X762662Y-167810D02*
X773838D01*
X762662Y-192194D02*
Y-167810D01*
X773838Y-192194D02*
Y-167810D01*
X591692Y-165588D02*
Y-154412D01*
X567308Y-165588D02*
Y-154412D01*
Y-165588D02*
X591692D01*
X567308Y-154412D02*
X591692D01*
X748308Y-205590D02*
Y-194414D01*
X772692Y-205590D02*
Y-194414D01*
X748308D02*
X772692D01*
X748308Y-205590D02*
X772692D01*
X216558Y-125338D02*
Y-114162D01*
X240942Y-125338D02*
Y-114162D01*
X216558D02*
X240942D01*
X216558Y-125338D02*
X240942D01*
X230912Y-151942D02*
X242089D01*
X230912Y-127558D02*
X242089D01*
X230912Y-151942D02*
Y-127558D01*
X242089Y-151942D02*
Y-127558D01*
X216558Y-165338D02*
Y-154162D01*
X240942Y-165338D02*
Y-154162D01*
X216558D02*
X240942D01*
X216558Y-165338D02*
X240942D01*
X566162Y-192192D02*
X577338D01*
X566162Y-167808D02*
X577338D01*
X566162Y-192192D02*
Y-167808D01*
X577338Y-192192D02*
Y-167808D01*
X591692Y-205588D02*
Y-194412D01*
X567308Y-205588D02*
Y-194412D01*
Y-205588D02*
X591692D01*
X567308Y-194412D02*
X591692D01*
X74942Y-125338D02*
Y-114162D01*
X50558Y-125338D02*
Y-114162D01*
Y-125338D02*
X74942D01*
X50558Y-114162D02*
X74942D01*
X49412Y-151942D02*
X60588D01*
X49412Y-127558D02*
X60588D01*
X49412Y-151942D02*
Y-127558D01*
X60588Y-151942D02*
Y-127558D01*
X74942Y-165338D02*
Y-154162D01*
X50558Y-165338D02*
Y-154162D01*
Y-165338D02*
X74942D01*
X50558Y-154162D02*
X74942D01*
X-140588Y81658D02*
X-129412D01*
X-140588Y106042D02*
X-129412D01*
X-140588Y81658D02*
Y106042D01*
X-129412Y81658D02*
Y106042D01*
X-167192Y96012D02*
Y107188D01*
X-142808Y96012D02*
Y107188D01*
X-167192D02*
X-142808D01*
X-167192Y96012D02*
X-142808D01*
X-180588Y81658D02*
X-169412D01*
X-180588Y106042D02*
X-169412D01*
X-180588Y81658D02*
X-180588Y106042D01*
X-169412Y81658D02*
X-169412Y106042D01*
X-37326Y448348D02*
X-27500Y448348D01*
X-37326Y467652D02*
X-27500Y467652D01*
X-37326Y448348D02*
Y467652D01*
X-27500Y448348D02*
Y467652D01*
X-279652Y10000D02*
Y19826D01*
X-260348Y10000D02*
Y19826D01*
X-279652D02*
X-260348D01*
X-279652Y10000D02*
X-260348D01*
X-279652Y0D02*
Y9826D01*
X-260348Y0D02*
Y9826D01*
X-279652D02*
X-260348D01*
X-279652Y0D02*
X-260348D01*
X-279652Y-10000D02*
X-279652Y-174D01*
X-260348D02*
X-260348Y-10000D01*
X-279652Y-174D02*
X-260348D01*
X-279652Y-10000D02*
X-260348D01*
X-304960Y-42848D02*
X-295134Y-42848D01*
X-304960Y-62152D02*
X-295134Y-62152D01*
Y-42848D01*
X-304960Y-62152D02*
Y-42848D01*
X-279652Y-50174D02*
X-279652Y-60000D01*
X-260348Y-50174D02*
X-260348Y-60000D01*
X-279652Y-50174D02*
X-260348Y-50174D01*
X-279652Y-60000D02*
X-260348D01*
X-279652Y50000D02*
X-279652Y59826D01*
X-260348D02*
X-260348Y50000D01*
X-279652Y59826D02*
X-260348D01*
X-279652Y50000D02*
X-260348D01*
X-279652Y30000D02*
X-279652Y39826D01*
X-260348D02*
X-260348Y30000D01*
X-279652Y39826D02*
X-260348D01*
X-279652Y30000D02*
X-260348D01*
X-279652Y20000D02*
X-279652Y29826D01*
X-260348D02*
X-260348Y20000D01*
X-279652Y29826D02*
X-260348D01*
X-279652Y20000D02*
X-260348D01*
X-279652Y-20000D02*
X-279652Y-10174D01*
X-260348Y-20000D02*
Y-10174D01*
X-279652D02*
X-260348D01*
X-279652Y-20000D02*
X-260348Y-20000D01*
X159412Y587192D02*
X170588D01*
X159412Y562808D02*
X170588D01*
Y587192D01*
X159412Y562808D02*
Y587192D01*
X171912D02*
X183088D01*
X171912Y562808D02*
X183088D01*
Y587192D01*
X171912Y562808D02*
Y587192D01*
X149412Y530942D02*
X160588D01*
X149412Y506558D02*
X160588D01*
Y530942D01*
X149412Y506558D02*
Y530942D01*
X134412D02*
X145588D01*
X134412Y506558D02*
X145588D01*
Y530942D01*
X134412Y506558D02*
Y530942D01*
X-439942Y-299088D02*
X-415558D01*
X-439942Y-287912D02*
X-415558D01*
Y-299088D02*
Y-287912D01*
X-439942Y-299088D02*
Y-287912D01*
X-604942Y-235412D02*
X-580558D01*
X-604942Y-246588D02*
X-580558D01*
X-604942D02*
Y-235412D01*
X-580558Y-246588D02*
Y-235412D01*
X449058Y-298118D02*
X473442D01*
X449058Y-286942D02*
X473442D01*
Y-298118D02*
Y-286942D01*
X449058Y-298118D02*
Y-286942D01*
X284058Y-243412D02*
X308442D01*
X284058Y-254588D02*
X308442D01*
X284058D02*
Y-243412D01*
X308442Y-254588D02*
Y-243412D01*
X17851Y481347D02*
X17851Y491173D01*
X37155D02*
X37155Y481347D01*
X17851Y491173D02*
X37155D01*
X17851Y481347D02*
X37155D01*
X-764402Y540900D02*
X-745098D01*
X-764402Y531074D02*
X-745098D01*
X-764402D02*
Y540900D01*
X-745098Y531074D02*
Y540900D01*
X-764402Y531900D02*
X-745098D01*
X-764402Y522074D02*
X-745098D01*
X-764402D02*
Y531900D01*
X-745098Y522074D02*
Y531900D01*
X-764402Y540270D02*
X-745098D01*
X-764402Y550096D02*
X-745098D01*
Y540270D02*
Y550096D01*
X-764402Y540270D02*
Y550096D01*
Y549270D02*
X-745098D01*
X-764402Y559096D02*
X-745098D01*
Y549270D02*
Y559096D01*
X-764402Y549270D02*
Y559096D01*
X-764402Y522900D02*
X-745098D01*
X-764402Y513074D02*
X-745098D01*
X-764402D02*
Y522900D01*
X-745098Y513074D02*
Y522900D01*
X-764402Y577489D02*
X-745098D01*
X-764402Y567663D02*
X-745098D01*
X-764402D02*
Y577489D01*
X-745098Y567663D02*
Y577489D01*
X-764402Y558489D02*
X-745098D01*
X-764402Y568315D02*
X-745098D01*
Y558489D02*
Y568315D01*
X-764402Y558489D02*
Y568315D01*
Y576489D02*
X-745098D01*
X-764402Y586315D02*
X-745098D01*
Y576489D02*
Y586315D01*
X-764402Y576489D02*
Y586315D01*
X-764402Y450900D02*
X-745098D01*
X-764402Y441074D02*
X-745098D01*
X-764402Y450900D02*
X-764402Y441074D01*
X-745098D02*
X-745098Y450900D01*
X-764402Y432900D02*
X-745098D01*
X-764402Y423074D02*
X-745098D01*
X-764402Y432900D02*
X-764402Y423074D01*
X-745098D02*
X-745098Y432900D01*
X-764402Y441900D02*
X-745098D01*
X-764402Y432074D02*
X-745098D01*
X-764402Y441900D02*
X-764402Y432074D01*
X-745098D02*
X-745098Y441900D01*
X-764402Y468489D02*
X-745098D01*
X-764402Y478315D02*
X-745098D01*
X-745098Y468489D01*
X-764402D02*
X-764402Y478315D01*
X-764402Y487489D02*
X-745098D01*
X-764402Y477663D02*
X-745098D01*
X-764402Y487489D02*
X-764402Y477663D01*
X-745098D02*
X-745098Y487489D01*
X-764402Y486489D02*
X-745098D01*
X-764402Y496315D02*
X-745098D01*
X-745098Y486489D01*
X-764402D02*
X-764402Y496315D01*
X-764402Y450270D02*
X-745098D01*
X-764402Y460096D02*
X-745098D01*
X-745098Y450270D01*
X-764402D02*
X-764402Y460096D01*
X-764402Y459270D02*
X-745098D01*
X-764402Y469096D02*
X-745098D01*
X-745098Y459270D01*
X-764402D02*
X-764402Y469096D01*
X-281588Y501058D02*
X-270412D01*
X-281588Y525442D02*
X-270412D01*
X-281588Y501058D02*
Y525442D01*
X-270412Y501058D02*
Y525442D01*
X-335826Y591348D02*
X-326000D01*
X-335826Y610652D02*
X-326000Y610652D01*
X-335826Y591348D02*
Y610652D01*
X-326000Y591348D02*
Y610652D01*
X-347402Y234100D02*
Y243926D01*
X-328098Y234100D02*
Y243926D01*
X-347402D02*
X-328098D01*
X-347402Y234100D02*
X-328098D01*
X100598D02*
Y243926D01*
X119902Y234100D02*
Y243926D01*
X100598D02*
X119902D01*
X100598Y234100D02*
X119902D01*
X246598D02*
Y243926D01*
X265902Y234100D02*
Y243926D01*
X246598D02*
X265902D01*
X246598Y234100D02*
X265902D01*
X-193402D02*
Y243926D01*
X-174098Y234100D02*
Y243926D01*
X-193402D02*
X-174098D01*
X-193402Y234100D02*
X-174098D01*
X-653402D02*
Y243926D01*
X-634098Y234100D02*
Y243926D01*
X-653402D02*
X-634098D01*
X-653402Y234100D02*
X-634098D01*
X555598D02*
Y243926D01*
X574902Y234100D02*
Y243926D01*
X555598D02*
X574902D01*
X555598Y234100D02*
X574902D01*
X-503402D02*
Y243926D01*
X-484098Y234100D02*
Y243926D01*
X-503402D02*
X-484098D01*
X-503402Y234100D02*
X-484098D01*
X-47402D02*
Y243926D01*
X-28098Y234100D02*
Y243926D01*
X-47402D02*
X-28098D01*
X-47402Y234100D02*
X-28098D01*
X402598D02*
Y243926D01*
X421902Y234100D02*
Y243926D01*
X402598D02*
X421902D01*
X402598Y234100D02*
X421902D01*
X703598D02*
X703598Y243926D01*
X722902D02*
X722902Y234100D01*
X703598Y243926D02*
X722902D01*
X703598Y234100D02*
X722902D01*
X-592402Y530900D02*
Y540726D01*
X-573098Y530900D02*
Y540726D01*
X-592402D02*
X-573098D01*
X-592402Y530900D02*
X-573098D01*
Y522074D02*
Y531900D01*
X-592402Y522074D02*
Y531900D01*
Y522074D02*
X-573098D01*
X-592402Y531900D02*
X-573098D01*
X-592402Y540270D02*
Y550096D01*
X-573098Y540270D02*
Y550096D01*
X-592402D02*
X-573098D01*
X-592402Y540270D02*
X-573098D01*
Y549444D02*
Y559270D01*
X-592402Y549444D02*
Y559270D01*
Y549444D02*
X-573098D01*
X-592402Y559270D02*
X-573098D01*
Y513074D02*
Y522900D01*
X-592402Y513074D02*
Y522900D01*
Y513074D02*
X-573098D01*
X-592402Y522900D02*
X-573098D01*
X-573098Y576074D02*
Y585900D01*
X-592402Y576074D02*
Y585900D01*
Y576074D02*
X-573098D01*
X-592402Y585900D02*
X-573098D01*
Y567074D02*
Y576900D01*
X-592402Y567074D02*
Y576900D01*
Y567074D02*
X-573098D01*
X-592402Y576900D02*
X-573098D01*
Y558074D02*
Y567900D01*
X-592402Y558074D02*
Y567900D01*
Y558074D02*
X-573098D01*
X-592402Y567900D02*
X-573098D01*
X-592402Y440900D02*
X-592402Y450726D01*
X-573098D02*
X-573098Y440900D01*
X-592402Y450726D02*
X-573098D01*
X-592402Y440900D02*
X-573098D01*
X-573098Y432074D02*
Y441900D01*
X-592402Y432074D02*
Y441900D01*
Y432074D02*
X-573098D01*
X-592402Y441900D02*
X-573098D01*
X-592402Y450270D02*
X-592402Y460096D01*
X-573098D02*
X-573098Y450270D01*
X-592402Y460096D02*
X-573098D01*
X-592402Y450270D02*
X-573098D01*
X-573098Y459444D02*
Y469270D01*
X-592402Y459444D02*
X-592402Y469270D01*
X-592402Y459444D02*
X-573098D01*
X-592402Y469270D02*
X-573098D01*
Y423074D02*
Y432900D01*
X-592402Y423074D02*
X-592402Y432900D01*
X-592402Y423074D02*
X-573098D01*
X-592402Y432900D02*
X-573098D01*
X-573098Y486074D02*
Y495900D01*
X-592402Y486074D02*
Y495900D01*
Y486074D02*
X-573098D01*
X-592402Y495900D02*
X-573098D01*
Y477074D02*
Y486900D01*
X-592402Y477074D02*
Y486900D01*
Y477074D02*
X-573098D01*
X-592402Y486900D02*
X-573098D01*
Y477900D02*
X-573098Y468074D01*
X-592402Y468074D02*
Y477900D01*
Y468074D02*
X-573098Y468074D01*
X-592402Y477900D02*
X-573098D01*
X-769826Y287198D02*
X-760000D01*
X-769826Y306502D02*
X-760000D01*
X-769826Y287198D02*
Y306502D01*
X-760000Y287198D02*
Y306502D01*
X-166076Y287448D02*
X-156250Y287448D01*
X-166076Y306752D02*
X-156250Y306752D01*
X-166076Y287448D02*
Y306752D01*
X-156250Y287448D02*
Y306752D01*
X-296073Y-385198D02*
X-286247Y-385198D01*
X-296073Y-404502D02*
X-286247Y-404502D01*
Y-385198D01*
X-296073Y-404502D02*
Y-385198D01*
X-357000Y13724D02*
Y33029D01*
X-366826Y13724D02*
Y33029D01*
X-357000Y33029D01*
X-366826Y13724D02*
X-357000Y13724D01*
Y-33275D02*
Y-13972D01*
X-366826Y-33275D02*
Y-13972D01*
X-357000Y-13972D01*
X-366826Y-33275D02*
X-357000Y-33275D01*
X-321942Y-312088D02*
X-297558D01*
X-321942Y-300912D02*
X-297558D01*
Y-312088D02*
Y-300912D01*
X-321942Y-312088D02*
Y-300912D01*
X569088Y40058D02*
Y64442D01*
X557912Y40058D02*
Y64442D01*
X569088D01*
X557912Y40058D02*
X569088D01*
X544912Y64442D02*
X556088D01*
X544912Y40058D02*
X556088D01*
Y64442D01*
X544912Y40058D02*
Y64442D01*
X531912D02*
X543088D01*
X531912Y40058D02*
X543088D01*
Y64442D01*
X531912Y40058D02*
Y64442D01*
X518912Y40058D02*
X530088D01*
X518912Y64442D02*
X530088D01*
X518912Y40058D02*
Y64442D01*
X530088Y40058D02*
Y64442D01*
X515588Y-34442D02*
Y-10058D01*
X504412Y-34442D02*
Y-10058D01*
X515588D01*
X504412Y-34442D02*
X515588D01*
X577338Y-77442D02*
Y-53058D01*
X566162Y-77442D02*
Y-53058D01*
X577338D01*
X566162Y-77442D02*
X577338D01*
X561838D02*
Y-53058D01*
X550662Y-77442D02*
Y-53058D01*
X561838D01*
X550662Y-77442D02*
X561838D01*
X537338D02*
Y-53058D01*
X526162Y-77442D02*
Y-53058D01*
X537338D01*
X526162Y-77442D02*
X537338D01*
X521838D02*
Y-53058D01*
X510662Y-77442D02*
Y-53058D01*
X521838D01*
X510662Y-77442D02*
X521838D01*
X576192Y-90838D02*
Y-79662D01*
X551808Y-90838D02*
Y-79662D01*
Y-90838D02*
X576192D01*
X551808Y-79662D02*
X576192D01*
X536192Y-90838D02*
Y-79662D01*
X511808Y-90838D02*
Y-79662D01*
Y-90838D02*
X536192D01*
X511808Y-79662D02*
X536192D01*
X723147Y49552D02*
X732973Y49552D01*
X723147Y30248D02*
X732973Y30248D01*
Y49552D01*
X723147Y30248D02*
Y49552D01*
X710821Y30248D02*
X720647Y30248D01*
X710821Y49552D02*
X720647Y49552D01*
X710821Y30248D02*
Y49552D01*
X720647Y30248D02*
Y49552D01*
X685647Y30248D02*
Y49552D01*
X695473Y30248D02*
Y49552D01*
X685647Y30248D02*
X695473Y30248D01*
X685647Y49552D02*
X695473Y49552D01*
X673147Y30248D02*
Y49552D01*
X682973Y30248D02*
Y49552D01*
X673147Y30248D02*
X682973Y30248D01*
X673147Y49552D02*
X682973D01*
X671000Y-1652D02*
Y17652D01*
X661174Y-1652D02*
Y17652D01*
X671000Y17652D01*
X661174Y-1652D02*
X671000D01*
X683588Y-3192D02*
Y21192D01*
X672412Y-3192D02*
Y21192D01*
X683588D01*
X672412Y-3192D02*
X683588D01*
X647559Y-2292D02*
X658735D01*
X647559Y22092D02*
X658735D01*
X647559Y-2292D02*
Y22092D01*
X658735Y-2292D02*
Y22092D01*
X672412Y-29942D02*
Y-5558D01*
X683588Y-29942D02*
Y-5558D01*
X672412Y-29942D02*
X683588D01*
X672412Y-5558D02*
X683588D01*
X569308Y-313358D02*
X593692D01*
X569308Y-302182D02*
X593692D01*
Y-313358D02*
Y-302182D01*
X569308Y-313358D02*
Y-302182D01*
X593927Y-404502D02*
Y-385198D01*
X603753Y-404502D02*
Y-385198D01*
X593927Y-404502D02*
X603753Y-404502D01*
X593927Y-385198D02*
X603753Y-385198D01*
X-400152Y520350D02*
X-380848D01*
X-400152Y510524D02*
X-380848D01*
X-400152D02*
Y520350D01*
X-380848Y510524D02*
Y520350D01*
X536644Y565591D02*
Y600135D01*
X554450Y565591D02*
Y600135D01*
X536644Y565591D02*
X554450D01*
X536644Y600135D02*
X554450D01*
X113147Y49552D02*
X122973Y49552D01*
X113147Y30248D02*
X122973Y30248D01*
Y49552D01*
X113147Y30248D02*
Y49552D01*
X200947Y30298D02*
Y49602D01*
X210773D02*
X210774Y30298D01*
X200947Y30298D02*
X210774Y30298D01*
X200947Y49602D02*
X210773D01*
X208545Y-32050D02*
X227850D01*
X208545Y-22224D02*
X227850Y-22224D01*
X227850Y-32050D01*
X208545Y-22224D02*
X208545Y-32050D01*
X188447Y30298D02*
X188447Y49602D01*
X198274Y30298D02*
Y49602D01*
X188447Y30298D02*
X198274Y30298D01*
X188447Y49602D02*
X198274Y49602D01*
X319412Y-64442D02*
X330588D01*
X319412Y-40058D02*
X330588D01*
X319412Y-64442D02*
Y-40058D01*
X330588Y-64442D02*
Y-40058D01*
X332412Y-64442D02*
X343588D01*
X332412Y-40058D02*
X343588D01*
X332412Y-64442D02*
Y-40058D01*
X343588Y-64442D02*
Y-40058D01*
X184700Y17252D02*
X184700Y-2052D01*
X174874Y-2052D02*
Y17252D01*
X184700Y17252D01*
X174874Y-2052D02*
X184700Y-2052D01*
X299308Y79662D02*
Y90838D01*
X323692Y79662D02*
Y90838D01*
X299308D02*
X323692D01*
X299308Y79662D02*
X323692D01*
X177848Y431700D02*
X197152D01*
X177848Y441526D02*
X197152D01*
X197152Y431700D02*
X197152Y441526D01*
X177848D02*
X177848Y431700D01*
X97503Y541694D02*
Y560998D01*
X107329Y541694D02*
Y560998D01*
X97503Y541694D02*
X107329Y541694D01*
X97503Y560998D02*
X107329Y560998D01*
X-77412Y40058D02*
Y64442D01*
X-88588Y40058D02*
Y64442D01*
X-77412D01*
X-88588Y40058D02*
X-77412D01*
X162610Y-2242D02*
X173785D01*
X162610Y22142D02*
X173785D01*
X162610Y-2242D02*
Y22142D01*
X173785Y-2242D02*
Y22142D01*
X225872Y30298D02*
X235697D01*
X225872Y49602D02*
X235697D01*
X225872Y30298D02*
Y49602D01*
X235697Y30298D02*
Y49602D01*
X339308Y79662D02*
Y90838D01*
X363692Y79662D02*
Y90838D01*
X339308D02*
X363692D01*
X339308Y79662D02*
X363692D01*
X77503Y541694D02*
Y560998D01*
X87329Y541694D02*
Y560998D01*
X77503Y541694D02*
X87329Y541694D01*
X77503Y560998D02*
X87329Y560998D01*
X-38412Y40058D02*
Y64442D01*
X-49588Y40058D02*
Y64442D01*
X-38412D01*
X-49588Y40058D02*
X-38412D01*
X-91412Y-33942D02*
X-91412Y-9558D01*
X-102588Y-33942D02*
X-102588Y-9558D01*
X-91412D01*
X-102588Y-33942D02*
X-91412D01*
X75697Y30298D02*
Y49602D01*
X85524Y30298D02*
Y49602D01*
X75697Y30298D02*
X85524Y30298D01*
X75697Y49602D02*
X85524Y49602D01*
X61112Y-30592D02*
Y-6208D01*
X72288Y-30592D02*
Y-6208D01*
X61112Y-30592D02*
X72288D01*
X61112Y-6208D02*
X72288D01*
X-85662Y-77442D02*
Y-53058D01*
X-96838Y-77442D02*
Y-53058D01*
X-85662D01*
X-96838Y-77442D02*
X-85662D01*
X-30162D02*
Y-53058D01*
X-41338Y-77442D02*
Y-53058D01*
X-30162D01*
X-41338Y-77442D02*
X-30162D01*
X72288Y-3592D02*
Y20792D01*
X61112Y-3592D02*
Y20792D01*
X72288D01*
X61112Y-3592D02*
X72288D01*
X107851Y501347D02*
X127155D01*
X107851Y491521D02*
X127155D01*
X107851Y501347D02*
X107851Y491521D01*
X127155D02*
X127155Y501347D01*
X17851Y471347D02*
X37155D01*
X17851Y481173D02*
X37155D01*
X37155Y471347D01*
X17851D02*
X17851Y481173D01*
X-367588Y-12315D02*
Y12069D01*
X-356412Y-12315D02*
Y12069D01*
X-367588Y-12315D02*
X-356412D01*
X-367588Y12069D02*
X-356412D01*
X-70162Y-77442D02*
Y-53058D01*
X-81338Y-77442D02*
Y-53058D01*
X-70162D01*
X-81338Y-77442D02*
X-70162D01*
X-45662D02*
Y-53058D01*
X-56838Y-77442D02*
Y-53058D01*
X-45662D01*
X-56838Y-77442D02*
X-45662D01*
X47753Y541694D02*
Y560998D01*
X57579Y541694D02*
Y560998D01*
X47753Y541694D02*
X57579Y541694D01*
X47753Y560998D02*
X57579Y560998D01*
X67503Y541694D02*
Y560998D01*
X77329Y541694D02*
Y560998D01*
X67503Y541694D02*
X77329Y541694D01*
X67503Y560998D02*
X77329Y560998D01*
X-191965Y22092D02*
X-191965Y-2292D01*
X-203141D02*
Y22092D01*
X-191965Y22092D01*
X-203141Y-2292D02*
X-191965D01*
X-202888Y-3208D02*
X-202888Y-27592D01*
X-191712Y-27592D02*
Y-3208D01*
X-202888Y-27592D02*
X-191712Y-27592D01*
X-202888Y-3208D02*
X-191712D01*
X37677Y451694D02*
X47503Y451694D01*
X37677Y470998D02*
X47503Y470998D01*
X37677Y451694D02*
Y470998D01*
X47503Y451694D02*
Y470998D01*
X17851Y501347D02*
X37155D01*
X17851Y491521D02*
X37155D01*
X17851Y501347D02*
X17851Y491521D01*
X37155D02*
X37155Y501347D01*
X107851Y491347D02*
X127155D01*
X107851Y481521D02*
X127155D01*
X107851D02*
Y491347D01*
X127155Y481521D02*
Y491347D01*
X97503Y451694D02*
Y470998D01*
X87677Y451694D02*
Y470998D01*
X97503D01*
X87677Y451694D02*
X97503D01*
X-151853Y49552D02*
X-142027Y49552D01*
X-151853Y30248D02*
X-142027Y30248D01*
Y49552D01*
X-151853Y30248D02*
Y49552D01*
X-501162Y40058D02*
Y64442D01*
X-512338Y40058D02*
Y64442D01*
X-501162D01*
X-512338Y40058D02*
X-501162D01*
X-495058Y-90838D02*
Y-79662D01*
X-519442Y-90838D02*
Y-79662D01*
Y-90838D02*
X-495058D01*
X-519442Y-79662D02*
X-495058D01*
X-616942Y13912D02*
X-592558Y13912D01*
X-616942Y25088D02*
X-592558Y25088D01*
Y13912D02*
Y25088D01*
X-616942Y13912D02*
Y25088D01*
X-747838Y7808D02*
X-736662D01*
X-747838Y32192D02*
X-736662D01*
X-747838D02*
X-747838Y7808D01*
X-736662Y32192D02*
X-736662Y7808D01*
X-486338Y64442D02*
X-475162D01*
X-486338Y40058D02*
X-475162D01*
Y64442D01*
X-486338Y40058D02*
Y64442D01*
X67503Y451694D02*
Y470998D01*
X57677Y451694D02*
Y470998D01*
X67503Y470998D01*
X57677Y451694D02*
X67503Y451694D01*
X-499338Y64442D02*
X-488162D01*
X-499338Y40058D02*
X-488162D01*
Y64442D01*
X-499338Y40058D02*
Y64442D01*
X-747838Y-32192D02*
X-736662D01*
X-747838Y-7808D02*
X-736662D01*
X-747838Y-32192D02*
Y-7808D01*
X-736662Y-32192D02*
Y-7808D01*
X-734442Y-33338D02*
X-710058Y-33338D01*
X-734442Y-22162D02*
X-710058Y-22162D01*
Y-33338D02*
Y-22162D01*
X-734442Y-33338D02*
Y-22162D01*
X-692192Y29012D02*
X-667808D01*
X-692192Y40188D02*
X-667808D01*
Y29012D02*
Y40188D01*
X-692192Y29012D02*
Y40188D01*
X100871Y30298D02*
X110697D01*
X100871Y49602D02*
X110697D01*
X100871Y30298D02*
Y49602D01*
X110697Y30298D02*
Y49602D01*
X107851Y521347D02*
X127155D01*
X107851Y511521D02*
X127155D01*
X107851D02*
X107851Y521347D01*
X127155D02*
X127155Y511521D01*
X345412Y-64442D02*
Y-40058D01*
X356588Y-64442D02*
Y-40058D01*
X345412Y-64442D02*
X356588D01*
X345412Y-40058D02*
X356588D01*
X359412Y10308D02*
Y34692D01*
X370588Y10308D02*
Y34692D01*
X359412Y10308D02*
X370588D01*
X359412Y34692D02*
X370588D01*
X37503Y541694D02*
Y560998D01*
X47329Y541694D02*
Y560998D01*
X37503Y541694D02*
X47329Y541694D01*
X37503Y560998D02*
X47329Y560998D01*
X57503Y541694D02*
Y560998D01*
X67329Y541694D02*
Y560998D01*
X57503Y541694D02*
X67329Y541694D01*
X57503Y560998D02*
X67329Y560998D01*
X353662Y53058D02*
Y77442D01*
X364838Y53058D02*
Y77442D01*
X353662Y53058D02*
X364838D01*
X353662Y77442D02*
X364838D01*
X60700Y-2052D02*
Y17252D01*
X50874Y-2052D02*
Y17252D01*
X60700D01*
X50874Y-2052D02*
X60700D01*
X63197Y30298D02*
Y49602D01*
X73024Y30298D02*
Y49602D01*
X63197Y30298D02*
X73024Y30298D01*
X63197Y49602D02*
X73024Y49602D01*
X37610Y-2291D02*
X48786D01*
X37610Y22092D02*
X48786D01*
X37610Y-2291D02*
Y22092D01*
X48786Y-2291D02*
Y22092D01*
X-2149Y510597D02*
X17155D01*
X-2149Y500771D02*
X17155D01*
X-2149Y510597D02*
X-2149Y500771D01*
X17155D02*
X17155Y510597D01*
X-75588Y64442D02*
X-64412D01*
X-75588Y40058D02*
X-64412D01*
Y64442D01*
X-75588Y40058D02*
Y64442D01*
X-31308Y-90838D02*
Y-79662D01*
X-55692Y-90838D02*
Y-79662D01*
Y-90838D02*
X-31308D01*
X-55692Y-79662D02*
X-31308D01*
X-71308Y-90838D02*
Y-79662D01*
X-95692Y-90838D02*
Y-79662D01*
Y-90838D02*
X-71308D01*
X-95692Y-79662D02*
X-71308D01*
X-202303Y30248D02*
X-202303Y49552D01*
X-192477Y30248D02*
Y49552D01*
X-202303Y30248D02*
X-192477Y30248D01*
X-202303Y49552D02*
X-192477Y49552D01*
X-190053Y30248D02*
Y49552D01*
X-180227Y49552D02*
X-180227Y30248D01*
X-190053D02*
X-180227D01*
X-190053Y49552D02*
X-180227Y49552D01*
X-204800Y-2552D02*
Y16752D01*
X-214626Y-2552D02*
Y16752D01*
X-204800Y16752D01*
X-214626Y-2552D02*
X-204800D01*
X77677Y451694D02*
X87503D01*
X77677Y470998D02*
X87503D01*
X77677Y451694D02*
Y470998D01*
X87503Y451694D02*
Y470998D01*
X-509412Y-77442D02*
Y-53058D01*
X-520588Y-77442D02*
Y-53058D01*
X-509412D01*
X-520588Y-77442D02*
X-509412D01*
X-164879Y30248D02*
X-155053D01*
X-164879Y49552D02*
X-155053D01*
X-164879Y30248D02*
Y49552D01*
X-155053Y30248D02*
Y49552D01*
X-516262Y-35192D02*
X-516262Y-10808D01*
X-527438Y-35192D02*
X-527438Y-10808D01*
X-516262D01*
X-527438Y-35192D02*
X-516262D01*
X-462162Y40058D02*
Y64442D01*
X-473338Y40058D02*
Y64442D01*
X-462162D01*
X-473338Y40058D02*
X-462162D01*
X107851Y541347D02*
X127155D01*
X107851Y531521D02*
X127155D01*
X107851D02*
X107851Y541347D01*
X127155D02*
X127155Y531521D01*
X238147Y49552D02*
X247973Y49552D01*
X238147Y30248D02*
X247973Y30248D01*
Y49552D01*
X238147Y30248D02*
Y49552D01*
X107851Y531347D02*
X127155D01*
X107851Y521521D02*
X127155D01*
X107851D02*
Y531347D01*
X127155Y521521D02*
Y531347D01*
X199288Y-2592D02*
Y21792D01*
X188112Y-2592D02*
Y21792D01*
X199288D01*
X188112Y-2592D02*
X199288D01*
X306412Y-64442D02*
Y-40058D01*
X317588Y-64442D02*
Y-40058D01*
X306412Y-64442D02*
X317588D01*
X306412Y-40058D02*
X317588D01*
X313662Y53058D02*
Y77442D01*
X324838Y53058D02*
Y77442D01*
X313662Y53058D02*
X324838D01*
X313662Y77442D02*
X324838D01*
X298162Y53058D02*
Y77442D01*
X309338Y53058D02*
Y77442D01*
X298162Y53058D02*
X309338D01*
X298162Y77442D02*
X309338D01*
X188112Y-29592D02*
Y-5208D01*
X199288Y-29592D02*
Y-5208D01*
X188112Y-29592D02*
X199288D01*
X188112Y-5208D02*
X199288D01*
X338162Y53058D02*
Y77442D01*
X349338Y53058D02*
Y77442D01*
X338162Y53058D02*
X349338D01*
X338162Y77442D02*
X349338D01*
X87253Y541694D02*
Y560998D01*
X97079Y541694D02*
Y560998D01*
X87253Y541694D02*
X97079Y541694D01*
X87253Y560998D02*
X97079Y560998D01*
X83546Y-32099D02*
X102850Y-32099D01*
X83546Y-22273D02*
X102850Y-22273D01*
X102850Y-32099D02*
X102850Y-22273D01*
X83546Y-32099D02*
Y-22273D01*
X-62588Y64442D02*
X-51412D01*
X-62588Y40058D02*
X-51412D01*
Y64442D01*
X-62588Y40058D02*
Y64442D01*
X-182205Y-32100D02*
X-162901Y-32100D01*
X-182205Y-22274D02*
X-162901D01*
X-162901Y-32100D01*
X-182205Y-22274D02*
X-182205Y-32100D01*
X-228141Y-2292D02*
X-216965D01*
X-228141Y22092D02*
X-216965D01*
X-228141Y-2292D02*
Y22092D01*
X-216965Y-2292D02*
Y22092D01*
X77503Y451694D02*
Y470998D01*
X67677Y451694D02*
Y470998D01*
X77503D01*
X67677Y451694D02*
X77503D01*
X107503D02*
Y470998D01*
X97677Y451694D02*
Y470998D01*
X107503D01*
X97677Y451694D02*
X107503D01*
X-493912Y-77442D02*
Y-53058D01*
X-505088Y-77442D02*
Y-53058D01*
X-493912D01*
X-505088Y-77442D02*
X-493912D01*
X-455058Y-90838D02*
Y-79662D01*
X-479442Y-90838D02*
Y-79662D01*
Y-90838D02*
X-455058D01*
X-479442Y-79662D02*
X-455058D01*
X-469412Y-77442D02*
Y-53058D01*
X-480588Y-77442D02*
Y-53058D01*
X-469412D01*
X-480588Y-77442D02*
X-469412D01*
X-734442Y22162D02*
X-710058D01*
X-734442Y33338D02*
X-710058D01*
Y22162D02*
Y33338D01*
X-734442Y22162D02*
Y33338D01*
Y6662D02*
Y17838D01*
X-710058Y6662D02*
Y17838D01*
X-734442D02*
X-710058D01*
X-734442Y6662D02*
X-710058D01*
X-592558Y912D02*
Y12088D01*
X-616942Y912D02*
Y12088D01*
Y912D02*
X-592558D01*
X-616942Y12088D02*
X-592558D01*
X-453912Y-77442D02*
Y-53058D01*
X-465088Y-77442D02*
Y-53058D01*
X-453912D01*
X-465088Y-77442D02*
X-453912D01*
X-734442Y-17838D02*
X-710058Y-17838D01*
X-734442Y-6662D02*
X-710058Y-6662D01*
Y-17838D02*
Y-6662D01*
X-734442Y-17838D02*
Y-6662D01*
X-616942Y-25088D02*
X-592558Y-25088D01*
X-616942Y-13912D02*
X-592558Y-13912D01*
Y-25088D02*
Y-13912D01*
X-616942Y-25088D02*
Y-13912D01*
X-592558Y-12088D02*
Y-912D01*
X-616942Y-12088D02*
Y-912D01*
Y-12088D02*
X-592558D01*
X-616942Y-912D02*
X-592558D01*
X107851Y511347D02*
X127155D01*
X107851Y501521D02*
X127155D01*
X107851D02*
Y511347D01*
X127155Y501521D02*
Y511347D01*
X-127500Y425348D02*
X-127500Y444652D01*
X-137326Y444652D02*
X-137326Y425348D01*
X-137326Y444652D02*
X-127500Y444652D01*
X-137326Y425348D02*
X-127500Y425348D01*
X107851Y481347D02*
X127155D01*
X107851Y471521D02*
X127155Y471521D01*
X107851Y481347D02*
X107851Y471521D01*
X127155Y471521D02*
Y481347D01*
X-307500Y425348D02*
Y444652D01*
X-317326Y425348D02*
Y444652D01*
X-307500Y444652D01*
X-317326Y425348D02*
X-307500D01*
X-208000Y567652D02*
X-208000Y548348D01*
X-198174Y548348D02*
X-198174Y567652D01*
X-208000Y548348D02*
X-198174Y548348D01*
X-208000Y567652D02*
X-198174Y567652D01*
X47677Y451694D02*
X57503D01*
X47677Y470998D02*
X57503D01*
X47677Y451694D02*
Y470998D01*
X57503Y451694D02*
Y470998D01*
X693495Y-32100D02*
Y-22274D01*
X712799Y-32100D02*
X712799Y-22274D01*
X693495Y-22274D02*
X712799Y-22274D01*
X693495Y-32100D02*
X712799Y-32100D01*
X-277326Y425348D02*
X-267500Y425348D01*
X-277326Y444652D02*
X-267500Y444652D01*
X-277326Y425348D02*
Y444652D01*
X-267500Y425348D02*
Y444652D01*
X-297326Y425348D02*
X-287500Y425348D01*
X-297326Y444652D02*
X-287500Y444652D01*
X-297326Y425348D02*
Y444652D01*
X-287500Y444652D02*
X-287500Y425348D01*
X-337326Y425348D02*
X-327500Y425348D01*
X-337326Y444652D02*
X-327500Y444652D01*
X-337326Y425348D02*
X-337326Y444652D01*
X-327500Y425348D02*
Y444652D01*
X-257326Y425348D02*
X-247500Y425348D01*
X-257326Y444652D02*
X-247500D01*
X-257326D02*
X-257326Y425348D01*
X-247500Y425348D02*
Y444652D01*
X-237326Y425348D02*
X-227500Y425348D01*
X-237326Y444652D02*
X-227500D01*
X-237326Y425348D02*
Y444652D01*
X-227500Y425348D02*
X-227500Y444652D01*
X-217326Y425348D02*
X-207500D01*
X-217326Y444652D02*
X-207500D01*
X-217326Y425348D02*
Y444652D01*
X-207500Y425348D02*
Y444652D01*
X-197326Y425348D02*
X-187500Y425348D01*
X-197326Y444652D02*
X-187500D01*
X-197326D02*
X-197326Y425348D01*
X-187500Y425348D02*
Y444652D01*
X-177326Y425348D02*
X-167500Y425348D01*
X-177326Y444652D02*
X-167500D01*
X-177326D02*
X-177326Y425348D01*
X-167500Y444652D02*
X-167500Y425348D01*
X-157326D02*
X-147500D01*
X-157326Y444652D02*
X-147500Y444652D01*
X-157326Y425348D02*
X-157326Y444652D01*
X-147500Y425348D02*
X-147500Y444652D01*
X-117326Y425348D02*
X-107500Y425348D01*
X-117326Y444652D02*
X-107500Y444652D01*
X-117326Y444652D02*
X-117326Y425348D01*
X-107500Y444652D02*
X-107500Y425348D01*
X-97326Y425348D02*
X-87500Y425348D01*
X-97326Y444652D02*
X-87500D01*
X-97326Y425348D02*
Y444652D01*
X-87500Y425348D02*
Y444652D01*
X-77326Y425348D02*
X-67500D01*
X-77326Y444652D02*
X-67500Y444652D01*
X-77326Y425348D02*
X-77326Y444652D01*
X-67500Y425348D02*
Y444652D01*
X-57326Y425348D02*
X-47500D01*
X-57326Y444652D02*
X-47500Y444652D01*
X-57326Y425348D02*
Y444652D01*
X-47500Y425348D02*
Y444652D01*
X-37326Y425348D02*
X-27500D01*
X-37326Y444652D02*
X-27500D01*
X-37326Y425348D02*
Y444652D01*
X-27500Y425348D02*
Y444652D01*
M02*
