G04*
G04 #@! TF.GenerationSoftware,Altium Limited,Altium Designer,19.1.8 (144)*
G04*
G04 Layer_Physical_Order=4*
G04 Layer_Color=16711680*
%FSLAX44Y44*%
%MOMM*%
G71*
G01*
G75*
%ADD20C,1.0000*%
%ADD99C,1.8796*%
%ADD100R,1.8796X1.8796*%
%ADD101C,5.0000*%
%ADD103C,0.5100*%
%ADD113C,0.7500*%
G36*
X-820000Y667051D02*
X-820000Y667051D01*
X-820000Y667051D01*
X-398000D01*
Y628484D01*
X-399000Y628615D01*
X-400971Y628356D01*
X-402808Y627595D01*
X-404385Y626385D01*
X-405595Y624808D01*
X-406356Y622971D01*
X-406615Y621000D01*
X-406356Y619029D01*
X-405595Y617192D01*
X-404385Y615615D01*
X-402808Y614405D01*
X-400971Y613644D01*
X-399000Y613385D01*
X-398000Y613517D01*
Y552344D01*
X-399808Y551595D01*
X-401385Y550385D01*
X-402595Y548808D01*
X-403356Y546971D01*
X-403615Y545000D01*
X-403356Y543029D01*
X-402595Y541192D01*
X-402253Y540747D01*
X-408500Y534500D01*
X-424500D01*
X-424385Y535375D01*
X-424644Y537346D01*
X-425405Y539183D01*
X-425629Y539474D01*
X-424000Y539260D01*
X-422029Y539519D01*
X-420192Y540280D01*
X-418615Y541490D01*
X-417405Y543067D01*
X-416644Y544904D01*
X-416385Y546875D01*
X-416644Y548846D01*
X-417405Y550683D01*
X-418615Y552260D01*
X-420192Y553470D01*
X-422029Y554231D01*
X-424000Y554490D01*
X-425971Y554231D01*
X-427808Y553470D01*
X-429385Y552260D01*
X-429466Y552154D01*
X-430692Y553095D01*
X-432529Y553856D01*
X-434500Y554115D01*
X-436471Y553856D01*
X-438307Y553095D01*
X-439885Y551885D01*
X-441095Y550308D01*
X-441856Y548471D01*
X-442115Y546500D01*
X-441856Y544529D01*
X-441173Y542881D01*
X-442000Y542990D01*
X-443971Y542731D01*
X-445807Y541970D01*
X-447385Y540760D01*
X-448595Y539183D01*
X-449356Y537346D01*
X-449615Y535375D01*
X-449356Y533404D01*
X-448595Y531567D01*
X-447385Y529990D01*
X-445807Y528780D01*
X-443971Y528019D01*
X-442000Y527760D01*
X-440029Y528019D01*
X-438192Y528780D01*
X-437000Y529695D01*
X-435807Y528780D01*
X-433971Y528019D01*
X-432000Y527760D01*
X-430029Y528019D01*
X-428192Y528780D01*
X-426615Y529990D01*
X-425405Y531567D01*
X-425122Y532250D01*
X-407750D01*
X-400819Y539181D01*
X-399808Y538405D01*
X-397971Y537644D01*
X-396000Y537385D01*
X-394029Y537644D01*
X-392192Y538405D01*
X-390615Y539615D01*
X-389405Y541192D01*
X-388644Y543029D01*
X-388385Y545000D01*
X-388644Y546971D01*
X-389405Y548808D01*
X-390615Y550385D01*
X-392192Y551595D01*
X-394029Y552356D01*
X-396000Y552615D01*
Y614071D01*
X-395192Y614405D01*
X-393615Y615615D01*
X-392405Y617192D01*
X-391644Y619029D01*
X-391385Y621000D01*
X-391644Y622971D01*
X-392405Y624808D01*
X-393615Y626385D01*
X-395192Y627595D01*
X-396000Y627929D01*
Y667051D01*
X364000D01*
Y636417D01*
X363175Y638409D01*
X360867Y641417D01*
X357859Y643725D01*
X354357Y645175D01*
X350598Y645670D01*
X346840Y645175D01*
X343337Y643725D01*
X340329Y641417D01*
X338022Y638409D01*
X336755Y635352D01*
X335489Y638409D01*
X333181Y641417D01*
X330173Y643725D01*
X326671Y645175D01*
X322912Y645670D01*
X319154Y645175D01*
X315651Y643725D01*
X312643Y641417D01*
X310336Y638409D01*
X309069Y635352D01*
X307803Y638409D01*
X305495Y641417D01*
X302487Y643725D01*
X298985Y645175D01*
X295226Y645670D01*
X291468Y645175D01*
X287965Y643725D01*
X284957Y641417D01*
X282650Y638409D01*
X281383Y635352D01*
X280117Y638409D01*
X277809Y641417D01*
X274801Y643725D01*
X271299Y645175D01*
X267540Y645670D01*
X263782Y645175D01*
X260279Y643725D01*
X257271Y641417D01*
X254964Y638409D01*
X253697Y635352D01*
X252431Y638409D01*
X250123Y641417D01*
X247115Y643725D01*
X243613Y645175D01*
X239854Y645670D01*
X236096Y645175D01*
X232593Y643725D01*
X229585Y641417D01*
X227278Y638409D01*
X226011Y635352D01*
X224745Y638409D01*
X222437Y641417D01*
X219429Y643725D01*
X215927Y645175D01*
X212168Y645670D01*
X208410Y645175D01*
X204907Y643725D01*
X201899Y641417D01*
X199592Y638409D01*
X198141Y634907D01*
X197646Y631148D01*
X198141Y627389D01*
X199592Y623887D01*
X201899Y620879D01*
X204907Y618571D01*
X208410Y617121D01*
X212168Y616626D01*
X215927Y617121D01*
X219429Y618571D01*
X222437Y620879D01*
X224745Y623887D01*
X226011Y626944D01*
X227278Y623887D01*
X229585Y620879D01*
X232593Y618571D01*
X236096Y617121D01*
X239854Y616626D01*
X243613Y617121D01*
X247115Y618571D01*
X250123Y620879D01*
X252431Y623887D01*
X253697Y626944D01*
X254964Y623887D01*
X257271Y620879D01*
X260279Y618571D01*
X263782Y617121D01*
X267540Y616626D01*
X271299Y617121D01*
X274801Y618571D01*
X277809Y620879D01*
X280117Y623887D01*
X281383Y626944D01*
X282650Y623887D01*
X284957Y620879D01*
X287965Y618571D01*
X291468Y617121D01*
X295226Y616626D01*
X298985Y617121D01*
X302487Y618571D01*
X305495Y620879D01*
X307803Y623887D01*
X309069Y626944D01*
X310336Y623887D01*
X312643Y620879D01*
X315651Y618571D01*
X319154Y617121D01*
X322912Y616626D01*
X326671Y617121D01*
X330173Y618571D01*
X333181Y620879D01*
X335489Y623887D01*
X336755Y626944D01*
X338022Y623887D01*
X340329Y620879D01*
X343337Y618571D01*
X346840Y617121D01*
X350598Y616626D01*
X354357Y617121D01*
X357859Y618571D01*
X360867Y620879D01*
X363175Y623887D01*
X364000Y625879D01*
Y618500D01*
X365778Y617029D01*
X364314Y617222D01*
X360556Y616727D01*
X357053Y615277D01*
X354045Y612969D01*
X351738Y609961D01*
X350287Y606459D01*
X349792Y602700D01*
X350287Y598941D01*
X351738Y595439D01*
X354045Y592431D01*
X357053Y590123D01*
X360556Y588673D01*
X364314Y588178D01*
X368073Y588673D01*
X371575Y590123D01*
X374583Y592431D01*
X376891Y595439D01*
X377000Y595703D01*
X377000Y543000D01*
X357000Y523000D01*
X357000Y429000D01*
X346500Y418500D01*
X161931D01*
X163385Y419615D01*
X164595Y421192D01*
X165356Y423029D01*
X165410Y423439D01*
X166971Y423644D01*
X168808Y424405D01*
X170385Y425615D01*
X171595Y427192D01*
X172356Y429029D01*
X172615Y431000D01*
X172356Y432971D01*
X171595Y434808D01*
X170385Y436385D01*
X169583Y437000D01*
X170385Y437615D01*
X171595Y439192D01*
X172356Y441029D01*
X172615Y443000D01*
X172356Y444971D01*
X171595Y446808D01*
X170385Y448385D01*
X168808Y449595D01*
X166971Y450356D01*
X165000Y450615D01*
X163029Y450356D01*
X161192Y449595D01*
X159615Y448385D01*
X158405Y446808D01*
X157644Y444971D01*
X157590Y444561D01*
X156029Y444356D01*
X154192Y443595D01*
X152615Y442385D01*
X151405Y440808D01*
X150644Y438971D01*
X150385Y437000D01*
X150644Y435029D01*
X151405Y433192D01*
X152615Y431615D01*
X153417Y431000D01*
X152615Y430385D01*
X151405Y428807D01*
X150644Y426971D01*
X150385Y425000D01*
X150644Y423029D01*
X151405Y421192D01*
X152615Y419615D01*
X154069Y418500D01*
X-4500D01*
X-5458Y419458D01*
X-4708Y419278D01*
X0Y418907D01*
X4708Y419278D01*
X9299Y420380D01*
X13662Y422187D01*
X17688Y424654D01*
X21279Y427721D01*
X24346Y431312D01*
X26813Y435338D01*
X28620Y439701D01*
X29722Y444292D01*
X30093Y449000D01*
X29722Y453708D01*
X28620Y458299D01*
X26813Y462662D01*
X24346Y466688D01*
X21279Y470279D01*
X17688Y473345D01*
X13662Y475813D01*
X9299Y477620D01*
X4708Y478722D01*
X0Y479093D01*
X-4708Y478722D01*
X-9299Y477620D01*
X-13662Y475813D01*
X-17688Y473345D01*
X-21279Y470279D01*
X-24346Y466688D01*
X-26813Y462662D01*
X-28620Y458299D01*
X-29722Y453708D01*
X-30093Y449000D01*
X-29722Y444292D01*
X-29542Y443542D01*
X-114500Y528500D01*
X-138000Y528500D01*
Y604766D01*
X-137885Y604615D01*
X-136308Y603405D01*
X-134471Y602644D01*
X-132500Y602385D01*
X-130529Y602644D01*
X-128692Y603405D01*
X-127115Y604615D01*
X-125905Y606192D01*
X-125144Y608029D01*
X-124885Y610000D01*
X-125144Y611971D01*
X-125905Y613808D01*
X-127115Y615385D01*
X-128692Y616595D01*
X-130529Y617356D01*
X-132500Y617615D01*
X-134471Y617356D01*
X-136308Y616595D01*
X-137885Y615385D01*
X-138000Y615234D01*
Y616500D01*
X-342750D01*
X-342750Y522750D01*
X-334000Y514000D01*
X-293000D01*
X-280500Y526500D01*
X-263500D01*
X-261291Y524291D01*
X-262654Y524856D01*
X-264625Y525115D01*
X-266596Y524856D01*
X-268433Y524095D01*
X-270010Y522885D01*
X-271220Y521307D01*
X-271981Y519471D01*
X-272240Y517500D01*
X-271981Y515529D01*
X-271220Y513692D01*
X-270305Y512500D01*
X-271220Y511308D01*
X-271981Y509471D01*
X-272240Y507500D01*
X-271981Y505529D01*
X-271220Y503692D01*
X-270305Y502500D01*
X-271220Y501308D01*
X-271981Y499471D01*
X-271985Y499436D01*
X-272808Y499095D01*
X-274385Y497885D01*
X-275595Y496308D01*
X-276356Y494471D01*
X-276615Y492500D01*
X-276356Y490529D01*
X-275595Y488693D01*
X-274385Y487115D01*
X-272808Y485905D01*
X-270971Y485144D01*
X-269000Y484885D01*
X-267029Y485144D01*
X-265192Y485905D01*
X-263615Y487115D01*
X-262405Y488693D01*
X-261644Y490529D01*
X-261640Y490564D01*
X-260817Y490905D01*
X-259240Y492115D01*
X-258030Y493693D01*
X-257269Y495529D01*
X-257010Y497500D01*
X-257269Y499471D01*
X-258030Y501308D01*
X-258945Y502500D01*
X-258030Y503692D01*
X-257269Y505529D01*
X-257010Y507500D01*
X-257269Y509471D01*
X-258030Y511308D01*
X-258945Y512500D01*
X-258030Y513692D01*
X-257269Y515529D01*
X-257010Y517500D01*
X-257269Y519471D01*
X-257834Y520834D01*
X-256750Y519750D01*
Y486250D01*
X-255000Y484500D01*
X-231000Y484500D01*
Y466000D01*
X-233500Y463500D01*
X-380000D01*
Y496500D01*
X-382000D01*
Y461500D01*
X-232500D01*
X-229000Y465000D01*
Y486000D01*
X-229500Y486500D01*
X-254000D01*
X-254750Y487250D01*
Y520750D01*
X-263500Y529500D01*
X-280500Y529500D01*
X-294000Y516000D01*
X-333000D01*
X-340000Y523000D01*
X-340000Y614500D01*
X-140000D01*
Y610874D01*
X-140115Y610000D01*
X-140000Y609126D01*
Y526500D01*
X-117340Y526500D01*
X-32500Y443056D01*
Y437615D01*
X-34471Y437356D01*
X-36308Y436595D01*
X-37885Y435385D01*
X-39095Y433808D01*
X-39856Y431971D01*
X-40115Y430000D01*
X-39856Y428029D01*
X-39095Y426192D01*
X-37885Y424615D01*
X-36308Y423405D01*
X-34471Y422644D01*
X-32500Y422385D01*
Y416500D01*
X347500D01*
X359000Y428000D01*
Y522000D01*
X379000Y542000D01*
X379000Y588302D01*
X406398D01*
Y617098D01*
X381871D01*
X382043Y617121D01*
X385545Y618571D01*
X388553Y620879D01*
X390861Y623887D01*
X392312Y627389D01*
X392806Y631148D01*
X392312Y634907D01*
X390861Y638409D01*
X388553Y641417D01*
X385545Y643725D01*
X382043Y645175D01*
X378284Y645670D01*
X374526Y645175D01*
X371023Y643725D01*
X368015Y641417D01*
X366000Y638790D01*
Y667051D01*
X823110D01*
X829277Y666239D01*
X835285Y664629D01*
X841032Y662249D01*
X846419Y659139D01*
X851354Y655352D01*
X855752Y650954D01*
X859539Y646019D01*
X862649Y640632D01*
X865029Y634885D01*
X866639Y628877D01*
X867451Y622710D01*
X867451Y619600D01*
Y619600D01*
Y619600D01*
X867451Y-480400D01*
Y-483510D01*
X866639Y-489677D01*
X865029Y-495685D01*
X862649Y-501432D01*
X859539Y-506819D01*
X855752Y-511754D01*
X851354Y-516152D01*
X846419Y-519939D01*
X841032Y-523049D01*
X835285Y-525429D01*
X829277Y-527039D01*
X823110Y-527851D01*
X820000Y-527851D01*
X820000D01*
D01*
X-820000D01*
D01*
X-820000D01*
X-823110Y-527851D01*
X-829277Y-527039D01*
X-835285Y-525429D01*
X-841032Y-523049D01*
X-846419Y-519939D01*
X-851354Y-516152D01*
X-855752Y-511754D01*
X-859539Y-506819D01*
X-862649Y-501432D01*
X-865029Y-495686D01*
X-866639Y-489677D01*
X-867449Y-483527D01*
X-867409Y-480390D01*
X-867412Y-480374D01*
X-867409Y-480357D01*
X-867451Y619600D01*
Y622710D01*
X-866639Y628877D01*
X-865029Y634885D01*
X-862649Y640632D01*
X-859539Y646019D01*
X-855752Y650954D01*
X-851354Y655352D01*
X-846419Y659139D01*
X-841032Y662249D01*
X-835285Y664629D01*
X-829277Y666239D01*
X-823110Y667051D01*
X-820000Y667051D01*
D02*
G37*
%LPC*%
G36*
X-228000Y613615D02*
X-229971Y613356D01*
X-231808Y612595D01*
X-233000Y611680D01*
X-234192Y612595D01*
X-236029Y613356D01*
X-238000Y613615D01*
X-239971Y613356D01*
X-241808Y612595D01*
X-243385Y611385D01*
X-244595Y609808D01*
X-245356Y607971D01*
X-245615Y606000D01*
X-245356Y604029D01*
X-244595Y602192D01*
X-243385Y600615D01*
X-241808Y599405D01*
X-239971Y598644D01*
X-238000Y598385D01*
X-236029Y598644D01*
X-234192Y599405D01*
X-233000Y600320D01*
X-231808Y599405D01*
X-229971Y598644D01*
X-228000Y598385D01*
X-226029Y598644D01*
X-224192Y599405D01*
X-222615Y600615D01*
X-221405Y602192D01*
X-220644Y604029D01*
X-220385Y606000D01*
X-220644Y607971D01*
X-221405Y609808D01*
X-222615Y611385D01*
X-224192Y612595D01*
X-226029Y613356D01*
X-228000Y613615D01*
D02*
G37*
G36*
X308942Y617222D02*
X305184Y616727D01*
X301681Y615277D01*
X298673Y612969D01*
X296366Y609961D01*
X295099Y606904D01*
X293833Y609961D01*
X291525Y612969D01*
X288517Y615277D01*
X285015Y616727D01*
X281256Y617222D01*
X277498Y616727D01*
X273995Y615277D01*
X270987Y612969D01*
X268680Y609961D01*
X267229Y606459D01*
X266734Y602700D01*
X267229Y598941D01*
X268680Y595439D01*
X270987Y592431D01*
X273995Y590123D01*
X277498Y588673D01*
X281256Y588178D01*
X285015Y588673D01*
X288517Y590123D01*
X291525Y592431D01*
X293833Y595439D01*
X295099Y598496D01*
X296366Y595439D01*
X298673Y592431D01*
X301681Y590123D01*
X305184Y588673D01*
X308942Y588178D01*
X312701Y588673D01*
X316203Y590123D01*
X319211Y592431D01*
X321519Y595439D01*
X322970Y598941D01*
X323464Y602700D01*
X322970Y606459D01*
X321519Y609961D01*
X319211Y612969D01*
X316203Y615277D01*
X312701Y616727D01*
X308942Y617222D01*
D02*
G37*
G36*
X225884D02*
X222126Y616727D01*
X218623Y615277D01*
X215615Y612969D01*
X213308Y609961D01*
X212041Y606904D01*
X210775Y609961D01*
X208467Y612969D01*
X205459Y615277D01*
X201957Y616727D01*
X198198Y617222D01*
X194440Y616727D01*
X190937Y615277D01*
X187929Y612969D01*
X185622Y609961D01*
X184171Y606459D01*
X183676Y602700D01*
X184171Y598941D01*
X185622Y595439D01*
X187929Y592431D01*
X190937Y590123D01*
X194440Y588673D01*
X198198Y588178D01*
X201957Y588673D01*
X205459Y590123D01*
X208467Y592431D01*
X210775Y595439D01*
X212041Y598496D01*
X213308Y595439D01*
X215615Y592431D01*
X218623Y590123D01*
X222126Y588673D01*
X225884Y588178D01*
X229643Y588673D01*
X233145Y590123D01*
X236153Y592431D01*
X238461Y595439D01*
X239912Y598941D01*
X240406Y602700D01*
X239912Y606459D01*
X238461Y609961D01*
X236153Y612969D01*
X233145Y615277D01*
X229643Y616727D01*
X225884Y617222D01*
D02*
G37*
G36*
X-168000Y613615D02*
X-169971Y613356D01*
X-171808Y612595D01*
X-173385Y611385D01*
X-174595Y609808D01*
X-175356Y607971D01*
X-175615Y606000D01*
X-175356Y604029D01*
X-174595Y602192D01*
X-173385Y600615D01*
X-171808Y599405D01*
X-169971Y598644D01*
X-168000Y598385D01*
X-166029Y598644D01*
X-164192Y599405D01*
X-162615Y600615D01*
X-161405Y602192D01*
X-160644Y604029D01*
X-160385Y606000D01*
X-160644Y607971D01*
X-161405Y609808D01*
X-162615Y611385D01*
X-164192Y612595D01*
X-166029Y613356D01*
X-168000Y613615D01*
D02*
G37*
G36*
X57706Y595602D02*
X55735Y595342D01*
X53898Y594582D01*
X52321Y593371D01*
X51111Y591794D01*
X50350Y589958D01*
X50091Y587987D01*
X50350Y586016D01*
X51111Y584179D01*
X52321Y582602D01*
X53898Y581392D01*
X55735Y580631D01*
X57706Y580372D01*
X59677Y580631D01*
X61514Y581392D01*
X63091Y582602D01*
X64301Y584179D01*
X65062Y586016D01*
X65321Y587987D01*
X65062Y589958D01*
X64301Y591794D01*
X63091Y593371D01*
X61514Y594582D01*
X59677Y595342D01*
X57706Y595602D01*
D02*
G37*
G36*
X52500Y580115D02*
X50529Y579856D01*
X48692Y579095D01*
X47115Y577885D01*
X45905Y576308D01*
X45144Y574471D01*
X44885Y572500D01*
X45144Y570529D01*
X45621Y569379D01*
X44471Y569856D01*
X42500Y570115D01*
X40529Y569856D01*
X38692Y569095D01*
X37115Y567885D01*
X35905Y566308D01*
X35144Y564471D01*
X34885Y562500D01*
X35144Y560529D01*
X35905Y558692D01*
X37115Y557115D01*
X38692Y555905D01*
X40529Y555144D01*
X42500Y554885D01*
X44471Y555144D01*
X46308Y555905D01*
X47885Y557115D01*
X49095Y558692D01*
X49856Y560529D01*
X50115Y562500D01*
X49856Y564471D01*
X49379Y565621D01*
X50529Y565144D01*
X52500Y564885D01*
X54471Y565144D01*
X56308Y565905D01*
X57885Y567115D01*
X59095Y568692D01*
X59856Y570529D01*
X60115Y572500D01*
X59856Y574471D01*
X59095Y576308D01*
X57885Y577885D01*
X56308Y579095D01*
X54471Y579856D01*
X52500Y580115D01*
D02*
G37*
G36*
X102500Y570115D02*
X100529Y569856D01*
X98692Y569095D01*
X97375Y568084D01*
X96058Y569095D01*
X94221Y569856D01*
X92250Y570115D01*
X90279Y569856D01*
X88442Y569095D01*
X87375Y568276D01*
X86307Y569095D01*
X84471Y569856D01*
X82500Y570115D01*
X80529Y569856D01*
X78692Y569095D01*
X77500Y568180D01*
X76308Y569095D01*
X74471Y569856D01*
X72500Y570115D01*
X70529Y569856D01*
X68692Y569095D01*
X67115Y567885D01*
X65905Y566308D01*
X65144Y564471D01*
X64885Y562500D01*
X65144Y560529D01*
X65905Y558692D01*
X67115Y557115D01*
X68692Y555905D01*
X70529Y555144D01*
X72500Y554885D01*
X74471Y555144D01*
X76308Y555905D01*
X77500Y556820D01*
X78692Y555905D01*
X80529Y555144D01*
X82500Y554885D01*
X84471Y555144D01*
X86307Y555905D01*
X87375Y556724D01*
X88442Y555905D01*
X90279Y555144D01*
X92250Y554885D01*
X94221Y555144D01*
X96058Y555905D01*
X97375Y556916D01*
X98692Y555905D01*
X100529Y555144D01*
X102500Y554885D01*
X104471Y555144D01*
X106307Y555905D01*
X107885Y557115D01*
X109095Y558692D01*
X109856Y560529D01*
X110115Y562500D01*
X109856Y564471D01*
X109095Y566308D01*
X107885Y567885D01*
X106307Y569095D01*
X104471Y569856D01*
X102500Y570115D01*
D02*
G37*
G36*
X-307000Y588615D02*
X-308971Y588356D01*
X-310808Y587595D01*
X-312385Y586385D01*
X-313595Y584808D01*
X-314356Y582971D01*
X-314615Y581000D01*
X-314356Y579029D01*
X-313929Y578000D01*
X-314356Y576971D01*
X-314615Y575000D01*
X-314356Y573029D01*
X-313595Y571192D01*
X-312385Y569615D01*
X-310808Y568405D01*
X-308971Y567644D01*
X-307000Y567385D01*
X-305029Y567644D01*
X-303192Y568405D01*
X-301615Y569615D01*
X-300405Y571192D01*
X-299644Y573029D01*
X-299385Y575000D01*
X-299644Y576971D01*
X-300071Y578000D01*
X-299644Y579029D01*
X-299385Y581000D01*
X-299644Y582971D01*
X-300405Y584808D01*
X-301615Y586385D01*
X-303192Y587595D01*
X-305029Y588356D01*
X-307000Y588615D01*
D02*
G37*
G36*
X275753Y566950D02*
X273782Y566690D01*
X272150Y566014D01*
X270721Y566606D01*
X268750Y566865D01*
X266779Y566606D01*
X264942Y565845D01*
X263365Y564635D01*
X262155Y563058D01*
X261394Y561221D01*
X261135Y559250D01*
X261394Y557279D01*
X262155Y555443D01*
X263365Y553865D01*
X264942Y552655D01*
X266779Y551894D01*
X268750Y551635D01*
X270721Y551894D01*
X272354Y552571D01*
X273782Y551979D01*
X275753Y551720D01*
X277724Y551979D01*
X279561Y552740D01*
X281138Y553950D01*
X282348Y555527D01*
X283109Y557364D01*
X283368Y559335D01*
X283109Y561306D01*
X282348Y563142D01*
X281138Y564719D01*
X279561Y565929D01*
X277724Y566690D01*
X275753Y566950D01*
D02*
G37*
G36*
X-681950Y574565D02*
X-683921Y574306D01*
X-685758Y573545D01*
X-687335Y572335D01*
X-688545Y570757D01*
X-689306Y568921D01*
X-689565Y566950D01*
X-689306Y564979D01*
X-688545Y563142D01*
X-687335Y561565D01*
X-685758Y560355D01*
X-683921Y559594D01*
X-681950Y559335D01*
X-679979Y559594D01*
X-678142Y560355D01*
X-676565Y561565D01*
X-675355Y563142D01*
X-674594Y564979D01*
X-674335Y566950D01*
X-674594Y568921D01*
X-675355Y570757D01*
X-676565Y572335D01*
X-678142Y573545D01*
X-679979Y574306D01*
X-681950Y574565D01*
D02*
G37*
G36*
X-212500Y560115D02*
X-214471Y559856D01*
X-216308Y559095D01*
X-217500Y558180D01*
X-218692Y559095D01*
X-220529Y559856D01*
X-222500Y560115D01*
X-224471Y559856D01*
X-226308Y559095D01*
X-227885Y557885D01*
X-229095Y556307D01*
X-229856Y554471D01*
X-230115Y552500D01*
X-230017Y551754D01*
X-231308Y551220D01*
X-232885Y550010D01*
X-234095Y548433D01*
X-234856Y546596D01*
X-235115Y544625D01*
X-234856Y542654D01*
X-234095Y540817D01*
X-232885Y539240D01*
X-231308Y538030D01*
X-229471Y537269D01*
X-227500Y537010D01*
X-225529Y537269D01*
X-223692Y538030D01*
X-222500Y538945D01*
X-221308Y538030D01*
X-219471Y537269D01*
X-217500Y537010D01*
X-215529Y537269D01*
X-213692Y538030D01*
X-212115Y539240D01*
X-210905Y540817D01*
X-210144Y542654D01*
X-209885Y544625D01*
X-209983Y545370D01*
X-208692Y545905D01*
X-207115Y547115D01*
X-205905Y548692D01*
X-205144Y550529D01*
X-204885Y552500D01*
X-205144Y554471D01*
X-205905Y556307D01*
X-207115Y557885D01*
X-208692Y559095D01*
X-210529Y559856D01*
X-212500Y560115D01*
D02*
G37*
G36*
X318000Y565365D02*
X316029Y565106D01*
X314192Y564345D01*
X312615Y563135D01*
X311405Y561558D01*
X310644Y559721D01*
X310385Y557750D01*
X310644Y555779D01*
X311405Y553942D01*
X312615Y552365D01*
X314192Y551155D01*
X316029Y550394D01*
X318000Y550135D01*
X319971Y550394D01*
X320979Y550812D01*
X321193Y550649D01*
X323029Y549888D01*
X325000Y549628D01*
X326971Y549888D01*
X328808Y550649D01*
X330385Y551859D01*
X331595Y553436D01*
X332356Y555273D01*
X332615Y557243D01*
X332356Y559215D01*
X331595Y561051D01*
X330385Y562628D01*
X328808Y563838D01*
X326971Y564599D01*
X325000Y564859D01*
X323029Y564599D01*
X322021Y564181D01*
X321808Y564345D01*
X319971Y565106D01*
X318000Y565365D01*
D02*
G37*
G36*
X-307000Y562615D02*
X-308971Y562356D01*
X-310808Y561595D01*
X-312385Y560385D01*
X-313595Y558808D01*
X-314356Y556971D01*
X-314615Y555000D01*
X-314356Y553029D01*
X-313595Y551192D01*
X-312385Y549615D01*
X-310808Y548405D01*
X-308971Y547644D01*
X-307000Y547385D01*
X-305029Y547644D01*
X-303192Y548405D01*
X-301615Y549615D01*
X-300405Y551192D01*
X-299644Y553029D01*
X-299385Y555000D01*
X-299644Y556971D01*
X-300405Y558808D01*
X-301615Y560385D01*
X-303192Y561595D01*
X-305029Y562356D01*
X-307000Y562615D01*
D02*
G37*
G36*
X-577750Y561885D02*
X-579721Y561626D01*
X-581557Y560865D01*
X-583135Y559655D01*
X-584345Y558078D01*
X-585106Y556241D01*
X-585365Y554270D01*
X-585106Y552299D01*
X-584345Y550463D01*
X-583135Y548885D01*
X-581557Y547675D01*
X-579721Y546914D01*
X-577750Y546655D01*
X-575779Y546914D01*
X-573942Y547675D01*
X-572365Y548885D01*
X-571155Y550463D01*
X-570394Y552299D01*
X-570135Y554270D01*
X-570394Y556241D01*
X-571155Y558078D01*
X-572365Y559655D01*
X-573942Y560865D01*
X-575779Y561626D01*
X-577750Y561885D01*
D02*
G37*
G36*
X-759750D02*
X-761721Y561626D01*
X-763557Y560865D01*
X-765135Y559655D01*
X-766345Y558078D01*
X-767105Y556241D01*
X-767365Y554270D01*
X-767105Y552299D01*
X-766345Y550463D01*
X-765135Y548885D01*
X-763557Y547675D01*
X-761721Y546914D01*
X-759750Y546655D01*
X-757779Y546914D01*
X-755942Y547675D01*
X-754365Y548885D01*
X-753155Y550463D01*
X-752394Y552299D01*
X-752135Y554270D01*
X-752394Y556241D01*
X-753155Y558078D01*
X-754365Y559655D01*
X-755942Y560865D01*
X-757779Y561626D01*
X-759750Y561885D01*
D02*
G37*
G36*
X-655550Y561865D02*
X-657521Y561606D01*
X-659357Y560845D01*
X-660934Y559635D01*
X-662145Y558058D01*
X-662905Y556221D01*
X-663165Y554250D01*
X-662905Y552279D01*
X-662145Y550442D01*
X-660934Y548865D01*
X-659357Y547655D01*
X-657521Y546894D01*
X-655550Y546635D01*
X-653579Y546894D01*
X-651742Y547655D01*
X-650165Y548865D01*
X-648955Y550442D01*
X-648194Y552279D01*
X-647935Y554250D01*
X-648194Y556221D01*
X-648955Y558058D01*
X-650165Y559635D01*
X-651742Y560845D01*
X-653579Y561606D01*
X-655550Y561865D01*
D02*
G37*
G36*
X259500Y542218D02*
X257529Y541959D01*
X256250Y541429D01*
X254971Y541959D01*
X253000Y542218D01*
X251029Y541959D01*
X249377Y541274D01*
X247724Y541959D01*
X245753Y542218D01*
X243783Y541959D01*
X241946Y541198D01*
X240369Y539988D01*
X239159Y538410D01*
X238398Y536574D01*
X238138Y534603D01*
X238398Y532632D01*
X239159Y530795D01*
X240369Y529218D01*
X241946Y528008D01*
X243783Y527247D01*
X245753Y526988D01*
X247724Y527247D01*
X249377Y527932D01*
X251029Y527247D01*
X253000Y526988D01*
X254971Y527247D01*
X256250Y527777D01*
X257529Y527247D01*
X259500Y526988D01*
X261471Y527247D01*
X263308Y528008D01*
X264885Y529218D01*
X266095Y530795D01*
X266856Y532632D01*
X267115Y534603D01*
X266856Y536574D01*
X266095Y538410D01*
X264885Y539988D01*
X263308Y541198D01*
X261471Y541959D01*
X259500Y542218D01*
D02*
G37*
G36*
X-330000Y574615D02*
X-331971Y574356D01*
X-333808Y573595D01*
X-335385Y572385D01*
X-336595Y570807D01*
X-337356Y568971D01*
X-337615Y567000D01*
X-337356Y565029D01*
X-336595Y563192D01*
X-336064Y562500D01*
X-336595Y561808D01*
X-337356Y559971D01*
X-337615Y558000D01*
X-337356Y556029D01*
X-336595Y554192D01*
X-336063Y553500D01*
X-336595Y552808D01*
X-337356Y550971D01*
X-337615Y549000D01*
X-337356Y547029D01*
X-336595Y545192D01*
X-335385Y543615D01*
X-333808Y542405D01*
X-331971Y541644D01*
X-330000Y541385D01*
X-328029Y541644D01*
X-326192Y542405D01*
X-324615Y543615D01*
X-323405Y545192D01*
X-322644Y547029D01*
X-322385Y549000D01*
X-322644Y550971D01*
X-323405Y552808D01*
X-323937Y553500D01*
X-323405Y554192D01*
X-322644Y556029D01*
X-322385Y558000D01*
X-322644Y559971D01*
X-323405Y561808D01*
X-323936Y562500D01*
X-323405Y563192D01*
X-322644Y565029D01*
X-322385Y567000D01*
X-322644Y568971D01*
X-323405Y570807D01*
X-324615Y572385D01*
X-326192Y573595D01*
X-328029Y574356D01*
X-330000Y574615D01*
D02*
G37*
G36*
X-577750Y534515D02*
X-579721Y534256D01*
X-581557Y533495D01*
X-583135Y532285D01*
X-584345Y530708D01*
X-585106Y528871D01*
X-585365Y526900D01*
X-585106Y524929D01*
X-584345Y523092D01*
X-583135Y521515D01*
X-581557Y520305D01*
X-579721Y519544D01*
X-577750Y519285D01*
X-575779Y519544D01*
X-573942Y520305D01*
X-572365Y521515D01*
X-571155Y523092D01*
X-570394Y524929D01*
X-570135Y526900D01*
X-570394Y528871D01*
X-571155Y530708D01*
X-572365Y532285D01*
X-573942Y533495D01*
X-575779Y534256D01*
X-577750Y534515D01*
D02*
G37*
G36*
X-749750D02*
X-751721Y534256D01*
X-753557Y533495D01*
X-755135Y532285D01*
X-756345Y530708D01*
X-757105Y528871D01*
X-757365Y526900D01*
X-757105Y524929D01*
X-756345Y523092D01*
X-755135Y521515D01*
X-753557Y520305D01*
X-751721Y519544D01*
X-749750Y519285D01*
X-747779Y519544D01*
X-745942Y520305D01*
X-744365Y521515D01*
X-743155Y523092D01*
X-742394Y524929D01*
X-742135Y526900D01*
X-742394Y528871D01*
X-743155Y530708D01*
X-744365Y532285D01*
X-745942Y533495D01*
X-747779Y534256D01*
X-749750Y534515D01*
D02*
G37*
G36*
X265000Y514615D02*
X263029Y514356D01*
X261192Y513595D01*
X259615Y512385D01*
X258405Y510808D01*
X257644Y508971D01*
X257385Y507000D01*
X257644Y505029D01*
X258405Y503192D01*
X259615Y501615D01*
X261192Y500405D01*
X263029Y499644D01*
X265000Y499385D01*
X266971Y499644D01*
X268808Y500405D01*
X270385Y501615D01*
X271595Y503192D01*
X272356Y505029D01*
X272615Y507000D01*
X272356Y508971D01*
X271595Y510808D01*
X270385Y512385D01*
X268808Y513595D01*
X266971Y514356D01*
X265000Y514615D01*
D02*
G37*
G36*
X-312535Y512115D02*
X-314506Y511856D01*
X-316343Y511095D01*
X-317920Y509885D01*
X-319130Y508307D01*
X-319891Y506471D01*
X-320151Y504500D01*
X-319891Y502529D01*
X-319130Y500692D01*
X-317920Y499115D01*
X-316343Y497905D01*
X-314506Y497144D01*
X-312535Y496885D01*
X-310564Y497144D01*
X-308728Y497905D01*
X-307151Y499115D01*
X-305941Y500692D01*
X-305180Y502529D01*
X-304920Y504500D01*
X-305180Y506471D01*
X-305941Y508307D01*
X-307151Y509885D01*
X-308728Y511095D01*
X-310564Y511856D01*
X-312535Y512115D01*
D02*
G37*
G36*
X-401125Y516115D02*
X-403096Y515856D01*
X-404933Y515095D01*
X-406510Y513885D01*
X-407720Y512308D01*
X-407896Y511882D01*
X-408096Y511856D01*
X-409933Y511095D01*
X-411510Y509885D01*
X-412720Y508307D01*
X-413481Y506471D01*
X-413740Y504500D01*
X-413481Y502529D01*
X-412720Y500692D01*
X-411510Y499115D01*
X-409933Y497905D01*
X-408096Y497144D01*
X-406125Y496885D01*
X-404154Y497144D01*
X-402317Y497905D01*
X-400740Y499115D01*
X-399530Y500692D01*
X-399354Y501118D01*
X-399154Y501144D01*
X-397317Y501905D01*
X-395740Y503115D01*
X-394530Y504692D01*
X-393769Y506529D01*
X-393510Y508500D01*
X-393769Y510471D01*
X-394530Y512308D01*
X-395740Y513885D01*
X-397317Y515095D01*
X-399154Y515856D01*
X-401125Y516115D01*
D02*
G37*
G36*
X-464795Y519035D02*
X-466766Y518775D01*
X-468602Y518015D01*
X-470180Y516805D01*
X-471390Y515227D01*
X-472150Y513391D01*
X-472410Y511420D01*
X-472150Y509449D01*
X-471408Y507656D01*
X-472106Y505971D01*
X-472365Y504000D01*
X-472106Y502029D01*
X-471345Y500192D01*
X-470135Y498615D01*
X-468558Y497405D01*
X-466721Y496644D01*
X-464750Y496385D01*
X-462779Y496644D01*
X-460942Y497405D01*
X-459365Y498615D01*
X-458155Y500192D01*
X-457394Y502029D01*
X-457135Y504000D01*
X-457394Y505971D01*
X-458137Y507764D01*
X-457439Y509449D01*
X-457180Y511420D01*
X-457439Y513391D01*
X-458200Y515227D01*
X-459410Y516805D01*
X-460987Y518015D01*
X-462824Y518775D01*
X-464795Y519035D01*
D02*
G37*
G36*
X-638750Y508015D02*
X-640721Y507756D01*
X-642557Y506995D01*
X-644135Y505785D01*
X-645345Y504207D01*
X-646105Y502371D01*
X-646365Y500400D01*
X-646105Y498429D01*
X-645345Y496592D01*
X-644135Y495015D01*
X-642557Y493805D01*
X-640721Y493044D01*
X-638750Y492785D01*
X-636779Y493044D01*
X-634942Y493805D01*
X-633365Y495015D01*
X-632155Y496592D01*
X-631394Y498429D01*
X-631135Y500400D01*
X-631394Y502371D01*
X-632155Y504207D01*
X-633365Y505785D01*
X-634942Y506995D01*
X-636779Y507756D01*
X-638750Y508015D01*
D02*
G37*
G36*
X333059Y510115D02*
X331088Y509856D01*
X329251Y509095D01*
X327674Y507885D01*
X326464Y506308D01*
X325703Y504471D01*
X325444Y502500D01*
X325703Y500529D01*
X326464Y498692D01*
X327674Y497115D01*
X329251Y495905D01*
X331088Y495144D01*
X333059Y494885D01*
X335030Y495144D01*
X335392Y495294D01*
X335394Y495273D01*
X336155Y493436D01*
X337365Y491859D01*
X338942Y490649D01*
X340779Y489888D01*
X342750Y489628D01*
X344721Y489888D01*
X346558Y490649D01*
X348135Y491859D01*
X349345Y493436D01*
X350106Y495273D01*
X350365Y497243D01*
X350106Y499215D01*
X349345Y501051D01*
X348135Y502628D01*
X346558Y503838D01*
X344721Y504599D01*
X342750Y504859D01*
X340779Y504599D01*
X340417Y504449D01*
X340415Y504471D01*
X339654Y506308D01*
X338444Y507885D01*
X336866Y509095D01*
X335030Y509856D01*
X333059Y510115D01*
D02*
G37*
G36*
X-432000Y491240D02*
X-433971Y490981D01*
X-435808Y490220D01*
X-437000Y489305D01*
X-438192Y490220D01*
X-440029Y490981D01*
X-442000Y491240D01*
X-443971Y490981D01*
X-445807Y490220D01*
X-447385Y489010D01*
X-448595Y487433D01*
X-449356Y485596D01*
X-449615Y483625D01*
X-449356Y481654D01*
X-448595Y479817D01*
X-447385Y478240D01*
X-445807Y477030D01*
X-443971Y476269D01*
X-443771Y476243D01*
X-443595Y475817D01*
X-442385Y474240D01*
X-440807Y473030D01*
X-438971Y472269D01*
X-437000Y472010D01*
X-435029Y472269D01*
X-433192Y473030D01*
X-432608Y473479D01*
X-432605Y473458D01*
X-431845Y471621D01*
X-430634Y470044D01*
X-429057Y468834D01*
X-427221Y468073D01*
X-425250Y467814D01*
X-423279Y468073D01*
X-421442Y468834D01*
X-419865Y470044D01*
X-418655Y471621D01*
X-417894Y473458D01*
X-417635Y475429D01*
X-417894Y477400D01*
X-418655Y479236D01*
X-419865Y480813D01*
X-421442Y482024D01*
X-423279Y482785D01*
X-424475Y482942D01*
X-424385Y483625D01*
X-424644Y485596D01*
X-425405Y487433D01*
X-426615Y489010D01*
X-428192Y490220D01*
X-430029Y490981D01*
X-432000Y491240D01*
D02*
G37*
G36*
X130000Y503962D02*
X128029Y503702D01*
X126192Y502941D01*
X124615Y501731D01*
X123405Y500154D01*
X122644Y498317D01*
X122385Y496347D01*
X122644Y494376D01*
X123405Y492539D01*
X124615Y490962D01*
X126192Y489752D01*
X128029Y488991D01*
X130000Y488731D01*
X131971Y488991D01*
X133808Y489752D01*
X135385Y490962D01*
X136595Y492539D01*
X137356Y494376D01*
X137615Y496347D01*
X137356Y498317D01*
X136595Y500154D01*
X135385Y501731D01*
X133808Y502941D01*
X131971Y503702D01*
X130000Y503962D01*
D02*
G37*
G36*
X-457500Y497615D02*
X-459471Y497356D01*
X-461308Y496595D01*
X-462885Y495385D01*
X-464095Y493808D01*
X-464856Y491971D01*
X-465115Y490000D01*
X-464856Y488029D01*
X-464095Y486192D01*
X-462885Y484615D01*
X-461308Y483405D01*
X-459471Y482644D01*
X-457500Y482385D01*
X-455529Y482644D01*
X-453692Y483405D01*
X-452115Y484615D01*
X-450905Y486192D01*
X-450144Y488029D01*
X-449885Y490000D01*
X-450144Y491971D01*
X-450905Y493808D01*
X-452115Y495385D01*
X-453692Y496595D01*
X-455529Y497356D01*
X-457500Y497615D01*
D02*
G37*
G36*
X12503Y495615D02*
X10532Y495356D01*
X8696Y494595D01*
X7118Y493385D01*
X5908Y491808D01*
X5148Y489971D01*
X4888Y488000D01*
X5148Y486029D01*
X5908Y484193D01*
X7118Y482615D01*
X8696Y481405D01*
X10532Y480644D01*
X12503Y480385D01*
X14474Y480644D01*
X16311Y481405D01*
X17888Y482615D01*
X19098Y484193D01*
X19859Y486029D01*
X20118Y488000D01*
X19859Y489971D01*
X19098Y491808D01*
X17888Y493385D01*
X16311Y494595D01*
X14474Y495356D01*
X12503Y495615D01*
D02*
G37*
G36*
X-681950Y484565D02*
X-683921Y484306D01*
X-685758Y483545D01*
X-687335Y482335D01*
X-688545Y480757D01*
X-689306Y478921D01*
X-689565Y476950D01*
X-689306Y474979D01*
X-688545Y473142D01*
X-687335Y471565D01*
X-685758Y470355D01*
X-683921Y469594D01*
X-681950Y469335D01*
X-679979Y469594D01*
X-678142Y470355D01*
X-676565Y471565D01*
X-675355Y473142D01*
X-674594Y474979D01*
X-674335Y476950D01*
X-674594Y478921D01*
X-675355Y480757D01*
X-676565Y482335D01*
X-678142Y483545D01*
X-679979Y484306D01*
X-681950Y484565D01*
D02*
G37*
G36*
X-577750Y471885D02*
X-579721Y471626D01*
X-581557Y470865D01*
X-583135Y469655D01*
X-584345Y468078D01*
X-585106Y466241D01*
X-585365Y464270D01*
X-585106Y462299D01*
X-584345Y460463D01*
X-583135Y458885D01*
X-581557Y457675D01*
X-579721Y456914D01*
X-577750Y456655D01*
X-575779Y456914D01*
X-573942Y457675D01*
X-572365Y458885D01*
X-571155Y460463D01*
X-570394Y462299D01*
X-570135Y464270D01*
X-570394Y466241D01*
X-571155Y468078D01*
X-572365Y469655D01*
X-573942Y470865D01*
X-575779Y471626D01*
X-577750Y471885D01*
D02*
G37*
G36*
X-759750D02*
X-761721Y471626D01*
X-763557Y470865D01*
X-765135Y469655D01*
X-766345Y468078D01*
X-767105Y466241D01*
X-767365Y464270D01*
X-767105Y462299D01*
X-766345Y460463D01*
X-765135Y458885D01*
X-763557Y457675D01*
X-761721Y456914D01*
X-759750Y456655D01*
X-757779Y456914D01*
X-755942Y457675D01*
X-754365Y458885D01*
X-753155Y460463D01*
X-752394Y462299D01*
X-752135Y464270D01*
X-752394Y466241D01*
X-753155Y468078D01*
X-754365Y469655D01*
X-755942Y470865D01*
X-757779Y471626D01*
X-759750Y471885D01*
D02*
G37*
G36*
X-655550Y471865D02*
X-657521Y471606D01*
X-659357Y470845D01*
X-660934Y469635D01*
X-662145Y468058D01*
X-662905Y466221D01*
X-663165Y464250D01*
X-662905Y462279D01*
X-662145Y460442D01*
X-660934Y458865D01*
X-659357Y457655D01*
X-657521Y456894D01*
X-655550Y456635D01*
X-653579Y456894D01*
X-651742Y457655D01*
X-650165Y458865D01*
X-648955Y460442D01*
X-648194Y462279D01*
X-647935Y464250D01*
X-648194Y466221D01*
X-648955Y468058D01*
X-650165Y469635D01*
X-651742Y470845D01*
X-653579Y471606D01*
X-655550Y471865D01*
D02*
G37*
G36*
X102503Y457811D02*
X100532Y457552D01*
X98696Y456791D01*
X97503Y455876D01*
X96311Y456791D01*
X94474Y457552D01*
X92503Y457811D01*
X90532Y457552D01*
X88696Y456791D01*
X87503Y455876D01*
X86311Y456791D01*
X84474Y457552D01*
X82503Y457811D01*
X80532Y457552D01*
X78696Y456791D01*
X77119Y455581D01*
X75908Y454004D01*
X75148Y452167D01*
X74888Y450196D01*
X75148Y448225D01*
X75908Y446389D01*
X77119Y444812D01*
X78696Y443601D01*
X80532Y442841D01*
X82503Y442581D01*
X84474Y442841D01*
X86311Y443601D01*
X87503Y444516D01*
X88696Y443601D01*
X90532Y442841D01*
X92503Y442581D01*
X94474Y442841D01*
X96311Y443601D01*
X97503Y444516D01*
X98696Y443601D01*
X100532Y442841D01*
X102503Y442581D01*
X104474Y442841D01*
X106311Y443601D01*
X107888Y444812D01*
X109098Y446389D01*
X109859Y448225D01*
X110118Y450196D01*
X109859Y452167D01*
X109098Y454004D01*
X107888Y455581D01*
X106311Y456791D01*
X104474Y457552D01*
X102503Y457811D01*
D02*
G37*
G36*
X-375000Y459615D02*
X-376971Y459356D01*
X-378808Y458595D01*
X-380385Y457385D01*
X-381595Y455807D01*
X-382356Y453971D01*
X-382615Y452000D01*
X-382356Y450029D01*
X-381929Y449000D01*
X-382356Y447971D01*
X-382615Y446000D01*
X-382356Y444029D01*
X-381929Y443000D01*
X-382356Y441971D01*
X-382615Y440000D01*
X-382356Y438029D01*
X-381595Y436192D01*
X-380385Y434615D01*
X-378808Y433405D01*
X-376971Y432644D01*
X-375000Y432385D01*
X-373029Y432644D01*
X-371193Y433405D01*
X-369615Y434615D01*
X-368405Y436192D01*
X-367644Y438029D01*
X-367385Y440000D01*
X-367644Y441971D01*
X-368071Y443000D01*
X-367644Y444029D01*
X-367385Y446000D01*
X-367644Y447971D01*
X-368071Y449000D01*
X-367644Y450029D01*
X-367385Y452000D01*
X-367644Y453971D01*
X-368405Y455807D01*
X-369615Y457385D01*
X-371193Y458595D01*
X-373029Y459356D01*
X-375000Y459615D01*
D02*
G37*
G36*
X-577750Y444515D02*
X-579721Y444256D01*
X-581557Y443495D01*
X-583135Y442285D01*
X-584345Y440708D01*
X-585106Y438871D01*
X-585365Y436900D01*
X-585106Y434929D01*
X-584345Y433092D01*
X-583135Y431515D01*
X-581557Y430305D01*
X-579721Y429544D01*
X-577750Y429285D01*
X-575779Y429544D01*
X-573942Y430305D01*
X-572365Y431515D01*
X-571155Y433092D01*
X-570394Y434929D01*
X-570135Y436900D01*
X-570394Y438871D01*
X-571155Y440708D01*
X-572365Y442285D01*
X-573942Y443495D01*
X-575779Y444256D01*
X-577750Y444515D01*
D02*
G37*
G36*
X-749750D02*
X-751721Y444256D01*
X-753557Y443495D01*
X-755135Y442285D01*
X-756345Y440708D01*
X-757105Y438871D01*
X-757365Y436900D01*
X-757105Y434929D01*
X-756345Y433092D01*
X-755135Y431515D01*
X-753557Y430305D01*
X-751721Y429544D01*
X-749750Y429285D01*
X-747779Y429544D01*
X-745942Y430305D01*
X-744365Y431515D01*
X-743155Y433092D01*
X-742394Y434929D01*
X-742135Y436900D01*
X-742394Y438871D01*
X-743155Y440708D01*
X-744365Y442285D01*
X-745942Y443495D01*
X-747779Y444256D01*
X-749750Y444515D01*
D02*
G37*
G36*
X-52500Y437615D02*
X-54471Y437356D01*
X-56308Y436595D01*
X-57885Y435385D01*
X-59095Y433808D01*
X-59856Y431971D01*
X-60115Y430000D01*
X-59856Y428029D01*
X-59095Y426192D01*
X-57885Y424615D01*
X-56308Y423405D01*
X-54471Y422644D01*
X-52500Y422385D01*
X-50529Y422644D01*
X-48692Y423405D01*
X-47115Y424615D01*
X-45905Y426192D01*
X-45144Y428029D01*
X-44885Y430000D01*
X-45144Y431971D01*
X-45905Y433808D01*
X-47115Y435385D01*
X-48692Y436595D01*
X-50529Y437356D01*
X-52500Y437615D01*
D02*
G37*
G36*
X-72500D02*
X-74471Y437356D01*
X-76308Y436595D01*
X-77885Y435385D01*
X-79095Y433808D01*
X-79856Y431971D01*
X-80115Y430000D01*
X-79856Y428029D01*
X-79095Y426192D01*
X-77885Y424615D01*
X-76308Y423405D01*
X-74471Y422644D01*
X-72500Y422385D01*
X-70529Y422644D01*
X-68692Y423405D01*
X-67115Y424615D01*
X-65905Y426192D01*
X-65144Y428029D01*
X-64885Y430000D01*
X-65144Y431971D01*
X-65905Y433808D01*
X-67115Y435385D01*
X-68692Y436595D01*
X-70529Y437356D01*
X-72500Y437615D01*
D02*
G37*
G36*
X-92500D02*
X-94471Y437356D01*
X-96308Y436595D01*
X-97885Y435385D01*
X-99095Y433808D01*
X-99856Y431971D01*
X-100115Y430000D01*
X-99856Y428029D01*
X-99095Y426192D01*
X-97885Y424615D01*
X-96308Y423405D01*
X-94471Y422644D01*
X-92500Y422385D01*
X-90529Y422644D01*
X-88692Y423405D01*
X-87115Y424615D01*
X-85905Y426192D01*
X-85144Y428029D01*
X-84885Y430000D01*
X-85144Y431971D01*
X-85905Y433808D01*
X-87115Y435385D01*
X-88692Y436595D01*
X-90529Y437356D01*
X-92500Y437615D01*
D02*
G37*
G36*
X-112500D02*
X-114471Y437356D01*
X-116308Y436595D01*
X-117885Y435385D01*
X-119095Y433808D01*
X-119856Y431971D01*
X-120115Y430000D01*
X-119856Y428029D01*
X-119095Y426192D01*
X-117885Y424615D01*
X-116308Y423405D01*
X-114471Y422644D01*
X-112500Y422385D01*
X-110529Y422644D01*
X-108692Y423405D01*
X-107115Y424615D01*
X-105905Y426192D01*
X-105144Y428029D01*
X-104885Y430000D01*
X-105144Y431971D01*
X-105905Y433808D01*
X-107115Y435385D01*
X-108692Y436595D01*
X-110529Y437356D01*
X-112500Y437615D01*
D02*
G37*
G36*
X-132500D02*
X-134471Y437356D01*
X-136308Y436595D01*
X-137885Y435385D01*
X-139095Y433808D01*
X-139856Y431971D01*
X-140115Y430000D01*
X-139856Y428029D01*
X-139095Y426192D01*
X-137885Y424615D01*
X-136308Y423405D01*
X-134471Y422644D01*
X-132500Y422385D01*
X-130529Y422644D01*
X-128692Y423405D01*
X-127115Y424615D01*
X-125905Y426192D01*
X-125144Y428029D01*
X-124885Y430000D01*
X-125144Y431971D01*
X-125905Y433808D01*
X-127115Y435385D01*
X-128692Y436595D01*
X-130529Y437356D01*
X-132500Y437615D01*
D02*
G37*
G36*
X-152500D02*
X-154471Y437356D01*
X-156308Y436595D01*
X-157885Y435385D01*
X-159095Y433808D01*
X-159856Y431971D01*
X-160115Y430000D01*
X-159856Y428029D01*
X-159095Y426192D01*
X-157885Y424615D01*
X-156308Y423405D01*
X-154471Y422644D01*
X-152500Y422385D01*
X-150529Y422644D01*
X-148692Y423405D01*
X-147115Y424615D01*
X-145905Y426192D01*
X-145144Y428029D01*
X-144885Y430000D01*
X-145144Y431971D01*
X-145905Y433808D01*
X-147115Y435385D01*
X-148692Y436595D01*
X-150529Y437356D01*
X-152500Y437615D01*
D02*
G37*
G36*
X-172500D02*
X-174471Y437356D01*
X-176308Y436595D01*
X-177885Y435385D01*
X-179095Y433808D01*
X-179856Y431971D01*
X-180115Y430000D01*
X-179856Y428029D01*
X-179095Y426192D01*
X-177885Y424615D01*
X-176308Y423405D01*
X-174471Y422644D01*
X-172500Y422385D01*
X-170529Y422644D01*
X-168692Y423405D01*
X-167115Y424615D01*
X-165905Y426192D01*
X-165144Y428029D01*
X-164885Y430000D01*
X-165144Y431971D01*
X-165905Y433808D01*
X-167115Y435385D01*
X-168692Y436595D01*
X-170529Y437356D01*
X-172500Y437615D01*
D02*
G37*
G36*
X-192500D02*
X-194471Y437356D01*
X-196308Y436595D01*
X-197885Y435385D01*
X-199095Y433808D01*
X-199856Y431971D01*
X-200115Y430000D01*
X-199856Y428029D01*
X-199095Y426192D01*
X-197885Y424615D01*
X-196308Y423405D01*
X-194471Y422644D01*
X-192500Y422385D01*
X-190529Y422644D01*
X-188692Y423405D01*
X-187115Y424615D01*
X-185905Y426192D01*
X-185144Y428029D01*
X-184885Y430000D01*
X-185144Y431971D01*
X-185905Y433808D01*
X-187115Y435385D01*
X-188692Y436595D01*
X-190529Y437356D01*
X-192500Y437615D01*
D02*
G37*
G36*
X-212500D02*
X-214471Y437356D01*
X-216308Y436595D01*
X-217885Y435385D01*
X-219095Y433808D01*
X-219856Y431971D01*
X-220115Y430000D01*
X-219856Y428029D01*
X-219095Y426192D01*
X-217885Y424615D01*
X-216308Y423405D01*
X-214471Y422644D01*
X-212500Y422385D01*
X-210529Y422644D01*
X-208692Y423405D01*
X-207115Y424615D01*
X-205905Y426192D01*
X-205144Y428029D01*
X-204885Y430000D01*
X-205144Y431971D01*
X-205905Y433808D01*
X-207115Y435385D01*
X-208692Y436595D01*
X-210529Y437356D01*
X-212500Y437615D01*
D02*
G37*
G36*
X-232500D02*
X-234471Y437356D01*
X-236308Y436595D01*
X-237885Y435385D01*
X-239095Y433808D01*
X-239856Y431971D01*
X-240115Y430000D01*
X-239856Y428029D01*
X-239095Y426192D01*
X-237885Y424615D01*
X-236308Y423405D01*
X-234471Y422644D01*
X-232500Y422385D01*
X-230529Y422644D01*
X-228692Y423405D01*
X-227115Y424615D01*
X-225905Y426192D01*
X-225144Y428029D01*
X-224885Y430000D01*
X-225144Y431971D01*
X-225905Y433808D01*
X-227115Y435385D01*
X-228692Y436595D01*
X-230529Y437356D01*
X-232500Y437615D01*
D02*
G37*
G36*
X-252500D02*
X-254471Y437356D01*
X-256308Y436595D01*
X-257885Y435385D01*
X-259095Y433808D01*
X-259856Y431971D01*
X-260115Y430000D01*
X-259856Y428029D01*
X-259095Y426192D01*
X-257885Y424615D01*
X-256308Y423405D01*
X-254471Y422644D01*
X-252500Y422385D01*
X-250529Y422644D01*
X-248692Y423405D01*
X-247115Y424615D01*
X-245905Y426192D01*
X-245144Y428029D01*
X-244885Y430000D01*
X-245144Y431971D01*
X-245905Y433808D01*
X-247115Y435385D01*
X-248692Y436595D01*
X-250529Y437356D01*
X-252500Y437615D01*
D02*
G37*
G36*
X-272500Y447615D02*
X-274471Y447356D01*
X-276308Y446595D01*
X-277885Y445385D01*
X-279095Y443808D01*
X-279856Y441971D01*
X-280115Y440000D01*
X-279856Y438029D01*
X-279095Y436192D01*
X-278180Y435000D01*
X-279095Y433808D01*
X-279856Y431971D01*
X-280115Y430000D01*
X-279856Y428029D01*
X-279095Y426192D01*
X-277885Y424615D01*
X-276308Y423405D01*
X-274471Y422644D01*
X-272500Y422385D01*
X-270529Y422644D01*
X-268692Y423405D01*
X-267115Y424615D01*
X-265905Y426192D01*
X-265144Y428029D01*
X-264885Y430000D01*
X-265144Y431971D01*
X-265905Y433808D01*
X-266820Y435000D01*
X-265905Y436192D01*
X-265144Y438029D01*
X-264885Y440000D01*
X-265144Y441971D01*
X-265905Y443808D01*
X-267115Y445385D01*
X-268692Y446595D01*
X-270529Y447356D01*
X-272500Y447615D01*
D02*
G37*
G36*
X-292500Y447615D02*
X-294471Y447356D01*
X-296308Y446595D01*
X-297885Y445385D01*
X-299095Y443807D01*
X-299856Y441971D01*
X-300115Y440000D01*
X-299856Y438029D01*
X-299095Y436192D01*
X-298180Y435000D01*
X-299095Y433808D01*
X-299856Y431971D01*
X-300115Y430000D01*
X-299856Y428029D01*
X-299095Y426192D01*
X-297885Y424615D01*
X-296308Y423405D01*
X-294471Y422644D01*
X-292500Y422385D01*
X-290529Y422644D01*
X-288692Y423405D01*
X-287115Y424615D01*
X-285905Y426192D01*
X-285144Y428029D01*
X-284885Y430000D01*
X-285144Y431971D01*
X-285905Y433808D01*
X-286820Y435000D01*
X-285905Y436192D01*
X-285144Y438029D01*
X-284885Y440000D01*
X-285144Y441971D01*
X-285905Y443807D01*
X-287115Y445385D01*
X-288692Y446595D01*
X-290529Y447356D01*
X-292500Y447615D01*
D02*
G37*
G36*
X-312500Y447615D02*
X-314471Y447356D01*
X-316308Y446595D01*
X-317885Y445385D01*
X-319095Y443808D01*
X-319856Y441971D01*
X-320115Y440000D01*
X-319856Y438029D01*
X-319095Y436192D01*
X-318180Y435000D01*
X-319095Y433808D01*
X-319856Y431971D01*
X-320115Y430000D01*
X-319856Y428029D01*
X-319095Y426192D01*
X-317885Y424615D01*
X-316308Y423405D01*
X-314471Y422644D01*
X-312500Y422385D01*
X-310529Y422644D01*
X-308692Y423405D01*
X-307115Y424615D01*
X-305905Y426192D01*
X-305144Y428029D01*
X-304885Y430000D01*
X-305144Y431971D01*
X-305905Y433808D01*
X-306820Y435000D01*
X-305905Y436192D01*
X-305144Y438029D01*
X-304885Y440000D01*
X-305144Y441971D01*
X-305905Y443808D01*
X-307115Y445385D01*
X-308692Y446595D01*
X-310529Y447356D01*
X-312500Y447615D01*
D02*
G37*
G36*
X-332500Y447616D02*
X-334471Y447356D01*
X-336308Y446595D01*
X-337885Y445385D01*
X-339095Y443808D01*
X-339856Y441971D01*
X-340115Y440000D01*
X-339856Y438029D01*
X-339095Y436193D01*
X-338180Y435000D01*
X-339095Y433808D01*
X-339856Y431971D01*
X-340115Y430000D01*
X-339856Y428029D01*
X-339095Y426192D01*
X-337885Y424615D01*
X-336308Y423405D01*
X-334471Y422644D01*
X-332500Y422385D01*
X-330529Y422644D01*
X-328692Y423405D01*
X-327115Y424615D01*
X-325905Y426192D01*
X-325144Y428029D01*
X-324885Y430000D01*
X-325144Y431971D01*
X-325905Y433808D01*
X-326820Y435000D01*
X-325905Y436193D01*
X-325144Y438029D01*
X-324885Y440000D01*
X-325144Y441971D01*
X-325905Y443808D01*
X-327115Y445385D01*
X-328692Y446595D01*
X-330529Y447356D01*
X-332500Y447616D01*
D02*
G37*
G36*
X47500Y285115D02*
X45529Y284856D01*
X43750Y284119D01*
X41971Y284856D01*
X40000Y285115D01*
X38029Y284856D01*
X36250Y284119D01*
X34471Y284856D01*
X32500Y285115D01*
X30529Y284856D01*
X28692Y284095D01*
X27115Y282885D01*
X25905Y281308D01*
X25144Y279471D01*
X24885Y277500D01*
X25144Y275529D01*
X25905Y273692D01*
X27115Y272115D01*
X28692Y270905D01*
X30529Y270144D01*
X32500Y269885D01*
X34471Y270144D01*
X36250Y270881D01*
X38029Y270144D01*
X40000Y269885D01*
X41971Y270144D01*
X43750Y270881D01*
X45529Y270144D01*
X47500Y269885D01*
X49471Y270144D01*
X51308Y270905D01*
X52885Y272115D01*
X54095Y273692D01*
X54856Y275529D01*
X55115Y277500D01*
X54856Y279471D01*
X54095Y281308D01*
X52885Y282885D01*
X51308Y284095D01*
X49471Y284856D01*
X47500Y285115D01*
D02*
G37*
G36*
X-130000D02*
X-131971Y284856D01*
X-133750Y284119D01*
X-135529Y284856D01*
X-137500Y285115D01*
X-139471Y284856D01*
X-141250Y284119D01*
X-143029Y284856D01*
X-145000Y285115D01*
X-146971Y284856D01*
X-148808Y284095D01*
X-150385Y282885D01*
X-151595Y281308D01*
X-152356Y279471D01*
X-152615Y277500D01*
X-152356Y275529D01*
X-151595Y273692D01*
X-150385Y272115D01*
X-148808Y270905D01*
X-146971Y270144D01*
X-145000Y269885D01*
X-143029Y270144D01*
X-141250Y270881D01*
X-139471Y270144D01*
X-137500Y269885D01*
X-135529Y270144D01*
X-133750Y270881D01*
X-131971Y270144D01*
X-130000Y269885D01*
X-128029Y270144D01*
X-126192Y270905D01*
X-124615Y272115D01*
X-123405Y273692D01*
X-122644Y275529D01*
X-122385Y277500D01*
X-122644Y279471D01*
X-123405Y281308D01*
X-124615Y282885D01*
X-126192Y284095D01*
X-128029Y284856D01*
X-130000Y285115D01*
D02*
G37*
G36*
X-555000Y270115D02*
X-556971Y269856D01*
X-558808Y269095D01*
X-560385Y267885D01*
X-561595Y266308D01*
X-562243Y264743D01*
X-563808Y264095D01*
X-565000Y263180D01*
X-566192Y264095D01*
X-567757Y264743D01*
X-568405Y266308D01*
X-569615Y267885D01*
X-571192Y269095D01*
X-573029Y269856D01*
X-575000Y270115D01*
X-576971Y269856D01*
X-578808Y269095D01*
X-580385Y267885D01*
X-581595Y266308D01*
X-582243Y264743D01*
X-583808Y264095D01*
X-585385Y262885D01*
X-586595Y261308D01*
X-587356Y259471D01*
X-587615Y257500D01*
X-587356Y255529D01*
X-586595Y253692D01*
X-585385Y252115D01*
X-583808Y250905D01*
X-582243Y250257D01*
X-581595Y248692D01*
X-580385Y247115D01*
X-578808Y245905D01*
X-576971Y245144D01*
X-575000Y244885D01*
X-573029Y245144D01*
X-571192Y245905D01*
X-569615Y247115D01*
X-568405Y248692D01*
X-567757Y250257D01*
X-566192Y250905D01*
X-565000Y251820D01*
X-563808Y250905D01*
X-562243Y250257D01*
X-561595Y248692D01*
X-560385Y247115D01*
X-558808Y245905D01*
X-556971Y245144D01*
X-555000Y244885D01*
X-553029Y245144D01*
X-551192Y245905D01*
X-549615Y247115D01*
X-548405Y248692D01*
X-547757Y250257D01*
X-546192Y250905D01*
X-544615Y252115D01*
X-543405Y253692D01*
X-542644Y255529D01*
X-542385Y257500D01*
X-542644Y259471D01*
X-543405Y261308D01*
X-544615Y262885D01*
X-546192Y264095D01*
X-547757Y264743D01*
X-548405Y266308D01*
X-549615Y267885D01*
X-551192Y269095D01*
X-553029Y269856D01*
X-555000Y270115D01*
D02*
G37*
G36*
X-680000Y247615D02*
X-681971Y247356D01*
X-683808Y246595D01*
X-685385Y245385D01*
X-686595Y243808D01*
X-687356Y241971D01*
X-687615Y240000D01*
X-687356Y238029D01*
X-686595Y236192D01*
X-685385Y234615D01*
X-683808Y233405D01*
X-681971Y232644D01*
X-680000Y232385D01*
X-678029Y232644D01*
X-676192Y233405D01*
X-674615Y234615D01*
X-673405Y236192D01*
X-672644Y238029D01*
X-672385Y240000D01*
X-672644Y241971D01*
X-673405Y243808D01*
X-674615Y245385D01*
X-676192Y246595D01*
X-678029Y247356D01*
X-680000Y247615D01*
D02*
G37*
G36*
X396000Y222615D02*
X394029Y222356D01*
X392192Y221595D01*
X390615Y220385D01*
X389405Y218808D01*
X388644Y216971D01*
X388385Y215000D01*
X388644Y213029D01*
X389405Y211192D01*
X390615Y209615D01*
X392192Y208405D01*
X394029Y207644D01*
X396000Y207385D01*
X397971Y207644D01*
X399808Y208405D01*
X401385Y209615D01*
X402595Y211192D01*
X403356Y213029D01*
X403615Y215000D01*
X403356Y216971D01*
X402595Y218808D01*
X401385Y220385D01*
X399808Y221595D01*
X397971Y222356D01*
X396000Y222615D01*
D02*
G37*
G36*
X206000D02*
X204029Y222356D01*
X202192Y221595D01*
X200615Y220385D01*
X199405Y218808D01*
X198644Y216971D01*
X198385Y215000D01*
X198644Y213029D01*
X199405Y211192D01*
X200615Y209615D01*
X202192Y208405D01*
X204029Y207644D01*
X206000Y207385D01*
X207971Y207644D01*
X209808Y208405D01*
X211385Y209615D01*
X212595Y211192D01*
X213356Y213029D01*
X213615Y215000D01*
X213356Y216971D01*
X212595Y218808D01*
X211385Y220385D01*
X209808Y221595D01*
X207971Y222356D01*
X206000Y222615D01*
D02*
G37*
G36*
X59000D02*
X57029Y222356D01*
X55192Y221595D01*
X53615Y220385D01*
X52405Y218808D01*
X51644Y216971D01*
X51385Y215000D01*
X51644Y213029D01*
X52405Y211192D01*
X53615Y209615D01*
X55192Y208405D01*
X57029Y207644D01*
X59000Y207385D01*
X60971Y207644D01*
X62807Y208405D01*
X64385Y209615D01*
X65595Y211192D01*
X66356Y213029D01*
X66615Y215000D01*
X66356Y216971D01*
X65595Y218808D01*
X64385Y220385D01*
X62807Y221595D01*
X60971Y222356D01*
X59000Y222615D01*
D02*
G37*
G36*
X-389750D02*
X-391721Y222356D01*
X-393557Y221595D01*
X-395134Y220385D01*
X-396344Y218808D01*
X-397105Y216971D01*
X-397365Y215000D01*
X-397105Y213029D01*
X-396344Y211192D01*
X-395134Y209615D01*
X-393557Y208405D01*
X-391721Y207644D01*
X-389750Y207385D01*
X-387779Y207644D01*
X-385942Y208405D01*
X-384365Y209615D01*
X-383155Y211192D01*
X-382394Y213029D01*
X-382135Y215000D01*
X-382394Y216971D01*
X-383155Y218808D01*
X-384365Y220385D01*
X-385942Y221595D01*
X-387779Y222356D01*
X-389750Y222615D01*
D02*
G37*
G36*
X-545000D02*
X-546971Y222356D01*
X-548808Y221595D01*
X-550385Y220385D01*
X-551595Y218808D01*
X-552356Y216971D01*
X-552615Y215000D01*
X-552356Y213029D01*
X-551595Y211192D01*
X-550385Y209615D01*
X-548808Y208405D01*
X-546971Y207644D01*
X-545000Y207385D01*
X-543029Y207644D01*
X-541192Y208405D01*
X-539615Y209615D01*
X-538405Y211192D01*
X-537644Y213029D01*
X-537385Y215000D01*
X-537644Y216971D01*
X-538405Y218808D01*
X-539615Y220385D01*
X-541192Y221595D01*
X-543029Y222356D01*
X-545000Y222615D01*
D02*
G37*
G36*
X-695000D02*
X-696971Y222356D01*
X-698808Y221595D01*
X-700385Y220385D01*
X-701595Y218808D01*
X-702356Y216971D01*
X-702615Y215000D01*
X-702356Y213029D01*
X-701595Y211192D01*
X-700385Y209615D01*
X-698808Y208405D01*
X-696971Y207644D01*
X-695000Y207385D01*
X-693029Y207644D01*
X-691192Y208405D01*
X-689615Y209615D01*
X-688405Y211192D01*
X-687644Y213029D01*
X-687385Y215000D01*
X-687644Y216971D01*
X-688405Y218808D01*
X-689615Y220385D01*
X-691192Y221595D01*
X-693029Y222356D01*
X-695000Y222615D01*
D02*
G37*
G36*
X664226Y221215D02*
X662255Y220955D01*
X660418Y220194D01*
X658841Y218984D01*
X657631Y217407D01*
X656870Y215571D01*
X656610Y213600D01*
X656870Y211629D01*
X657631Y209792D01*
X658841Y208215D01*
X660418Y207005D01*
X662255Y206244D01*
X664226Y205984D01*
X666197Y206244D01*
X668033Y207005D01*
X669610Y208215D01*
X670820Y209792D01*
X671581Y211629D01*
X671841Y213600D01*
X671581Y215571D01*
X670820Y217407D01*
X669610Y218984D01*
X668033Y220194D01*
X666197Y220955D01*
X664226Y221215D01*
D02*
G37*
G36*
X516000D02*
X514029Y220955D01*
X512193Y220194D01*
X510616Y218984D01*
X509406Y217407D01*
X508645Y215571D01*
X508385Y213600D01*
X508645Y211629D01*
X509406Y209792D01*
X510616Y208215D01*
X512193Y207005D01*
X514029Y206244D01*
X516000Y205984D01*
X517971Y206244D01*
X519808Y207005D01*
X521385Y208215D01*
X522595Y209792D01*
X523356Y211629D01*
X523615Y213600D01*
X523356Y215571D01*
X522595Y217407D01*
X521385Y218984D01*
X519808Y220194D01*
X517971Y220955D01*
X516000Y221215D01*
D02*
G37*
G36*
X-206587Y220965D02*
X-208558Y220705D01*
X-210394Y219945D01*
X-211971Y218734D01*
X-213182Y217157D01*
X-213942Y215321D01*
X-214202Y213350D01*
X-213942Y211379D01*
X-213182Y209542D01*
X-211971Y207965D01*
X-210394Y206755D01*
X-208558Y205994D01*
X-206587Y205735D01*
X-204616Y205994D01*
X-202779Y206755D01*
X-201202Y207965D01*
X-199992Y209542D01*
X-199231Y211379D01*
X-198972Y213350D01*
X-199231Y215321D01*
X-199992Y217157D01*
X-201202Y218734D01*
X-202779Y219945D01*
X-204616Y220705D01*
X-206587Y220965D01*
D02*
G37*
G36*
X-79000Y217615D02*
X-80971Y217356D01*
X-82808Y216595D01*
X-84385Y215385D01*
X-85595Y213808D01*
X-86356Y211971D01*
X-86615Y210000D01*
X-86356Y208029D01*
X-85595Y206192D01*
X-84385Y204615D01*
X-82808Y203405D01*
X-80971Y202644D01*
X-79000Y202385D01*
X-77029Y202644D01*
X-75192Y203405D01*
X-73615Y204615D01*
X-72405Y206192D01*
X-71644Y208029D01*
X-71385Y210000D01*
X-71644Y211971D01*
X-72405Y213808D01*
X-73615Y215385D01*
X-75192Y216595D01*
X-77029Y217356D01*
X-79000Y217615D01*
D02*
G37*
G36*
X715647Y124515D02*
X713676Y124256D01*
X711839Y123495D01*
X710262Y122284D01*
X709052Y120707D01*
X708291Y118871D01*
X708032Y116900D01*
X708291Y114929D01*
X709052Y113092D01*
X710262Y111515D01*
X711839Y110305D01*
X713676Y109544D01*
X715647Y109285D01*
X717618Y109544D01*
X719454Y110305D01*
X721032Y111515D01*
X722242Y113092D01*
X723003Y114929D01*
X723262Y116900D01*
X723003Y118871D01*
X722242Y120707D01*
X721032Y122284D01*
X719454Y123495D01*
X717618Y124256D01*
X715647Y124515D01*
D02*
G37*
G36*
X550500Y79615D02*
X548529Y79356D01*
X546692Y78595D01*
X545115Y77385D01*
X544000Y75931D01*
X542884Y77385D01*
X541307Y78595D01*
X539471Y79356D01*
X537500Y79615D01*
X535529Y79356D01*
X533692Y78595D01*
X532115Y77385D01*
X530905Y75808D01*
X530144Y73971D01*
X529885Y72000D01*
X530144Y70029D01*
X530905Y68193D01*
X532115Y66615D01*
X533692Y65405D01*
X535529Y64644D01*
X537500Y64385D01*
X539471Y64644D01*
X541307Y65405D01*
X542884Y66615D01*
X544000Y68069D01*
X545115Y66615D01*
X546692Y65405D01*
X548529Y64644D01*
X550500Y64385D01*
X552471Y64644D01*
X554307Y65405D01*
X555885Y66615D01*
X557095Y68193D01*
X557855Y70029D01*
X558115Y72000D01*
X557855Y73971D01*
X557095Y75808D01*
X555885Y77385D01*
X554307Y78595D01*
X552471Y79356D01*
X550500Y79615D01*
D02*
G37*
G36*
X-210000Y87615D02*
X-211971Y87356D01*
X-213808Y86595D01*
X-215385Y85385D01*
X-216595Y83808D01*
X-217356Y81971D01*
X-217615Y80000D01*
X-217356Y78029D01*
X-216595Y76192D01*
X-215385Y74615D01*
X-213808Y73405D01*
X-211971Y72644D01*
X-210000Y72385D01*
X-208029Y72644D01*
X-206192Y73405D01*
X-204615Y74615D01*
X-203405Y76192D01*
X-202644Y78029D01*
X-202385Y80000D01*
X-202644Y81971D01*
X-203405Y83808D01*
X-204615Y85385D01*
X-206192Y86595D01*
X-208029Y87356D01*
X-210000Y87615D01*
D02*
G37*
G36*
X-57000Y67615D02*
X-58971Y67356D01*
X-60808Y66595D01*
X-62385Y65385D01*
X-63500Y63931D01*
X-64616Y65385D01*
X-66193Y66595D01*
X-68029Y67356D01*
X-70000Y67615D01*
X-71971Y67356D01*
X-73808Y66595D01*
X-75385Y65385D01*
X-76595Y63808D01*
X-77356Y61971D01*
X-77615Y60000D01*
X-77356Y58029D01*
X-76595Y56192D01*
X-75385Y54615D01*
X-73808Y53405D01*
X-71971Y52644D01*
X-70000Y52385D01*
X-68029Y52644D01*
X-66193Y53405D01*
X-64616Y54615D01*
X-63500Y56069D01*
X-62385Y54615D01*
X-60808Y53405D01*
X-58971Y52644D01*
X-57000Y52385D01*
X-55029Y52644D01*
X-53193Y53405D01*
X-51616Y54615D01*
X-50405Y56192D01*
X-49645Y58029D01*
X-49385Y60000D01*
X-49645Y61971D01*
X-50405Y63808D01*
X-51616Y65385D01*
X-53193Y66595D01*
X-55029Y67356D01*
X-57000Y67615D01*
D02*
G37*
G36*
X10000Y77615D02*
X8029Y77356D01*
X6192Y76595D01*
X4615Y75385D01*
X3405Y73808D01*
X2644Y71971D01*
X2385Y70000D01*
X2644Y68029D01*
X3405Y66192D01*
X4615Y64615D01*
X6192Y63405D01*
X8029Y62644D01*
X10000Y62385D01*
X11971Y62644D01*
X13808Y63405D01*
X15385Y64615D01*
X16595Y66192D01*
X17356Y68029D01*
X17615Y70000D01*
X17356Y71971D01*
X16595Y73808D01*
X15385Y75385D01*
X13808Y76595D01*
X11971Y77356D01*
X10000Y77615D01*
D02*
G37*
G36*
X-10000D02*
X-11971Y77356D01*
X-13808Y76595D01*
X-15385Y75385D01*
X-16595Y73808D01*
X-17356Y71971D01*
X-17615Y70000D01*
X-17356Y68029D01*
X-16595Y66192D01*
X-15385Y64615D01*
X-13808Y63405D01*
X-11971Y62644D01*
X-10000Y62385D01*
X-8029Y62644D01*
X-6192Y63405D01*
X-4615Y64615D01*
X-3405Y66192D01*
X-2644Y68029D01*
X-2385Y70000D01*
X-2644Y71971D01*
X-3405Y73808D01*
X-4615Y75385D01*
X-6192Y76595D01*
X-8029Y77356D01*
X-10000Y77615D01*
D02*
G37*
G36*
X-30000D02*
X-31971Y77356D01*
X-33808Y76595D01*
X-35385Y75385D01*
X-36595Y73808D01*
X-37356Y71971D01*
X-37615Y70000D01*
X-37356Y68029D01*
X-36595Y66192D01*
X-35385Y64615D01*
X-33808Y63405D01*
X-31971Y62644D01*
X-30000Y62385D01*
X-28029Y62644D01*
X-26192Y63405D01*
X-24615Y64615D01*
X-23405Y66192D01*
X-22644Y68029D01*
X-22385Y70000D01*
X-22644Y71971D01*
X-23405Y73808D01*
X-24615Y75385D01*
X-26192Y76595D01*
X-28029Y77356D01*
X-30000Y77615D01*
D02*
G37*
G36*
X-110000D02*
X-111971Y77356D01*
X-113808Y76595D01*
X-115385Y75385D01*
X-116595Y73808D01*
X-117356Y71971D01*
X-117615Y70000D01*
X-117356Y68029D01*
X-116595Y66192D01*
X-115385Y64615D01*
X-113808Y63405D01*
X-111971Y62644D01*
X-110000Y62385D01*
X-108029Y62644D01*
X-106192Y63405D01*
X-104615Y64615D01*
X-103405Y66192D01*
X-102644Y68029D01*
X-102385Y70000D01*
X-102644Y71971D01*
X-103405Y73808D01*
X-104615Y75385D01*
X-106192Y76595D01*
X-108029Y77356D01*
X-110000Y77615D01*
D02*
G37*
G36*
X-470000D02*
X-471971Y77356D01*
X-473808Y76595D01*
X-475385Y75385D01*
X-476595Y73808D01*
X-477356Y71971D01*
X-477615Y70000D01*
X-477356Y68029D01*
X-476595Y66192D01*
X-475385Y64615D01*
X-473808Y63405D01*
X-471971Y62644D01*
X-470000Y62385D01*
X-468029Y62644D01*
X-466192Y63405D01*
X-464615Y64615D01*
X-463405Y66192D01*
X-462644Y68029D01*
X-462385Y70000D01*
X-462644Y71971D01*
X-463405Y73808D01*
X-464615Y75385D01*
X-466192Y76595D01*
X-468029Y77356D01*
X-470000Y77615D01*
D02*
G37*
G36*
X-490000D02*
X-491971Y77356D01*
X-493808Y76595D01*
X-495385Y75385D01*
X-496595Y73808D01*
X-497356Y71971D01*
X-497615Y70000D01*
X-497356Y68029D01*
X-496595Y66192D01*
X-495385Y64615D01*
X-493808Y63405D01*
X-491971Y62644D01*
X-490000Y62385D01*
X-488029Y62644D01*
X-486192Y63405D01*
X-484615Y64615D01*
X-483405Y66192D01*
X-482644Y68029D01*
X-482385Y70000D01*
X-482644Y71971D01*
X-483405Y73808D01*
X-484615Y75385D01*
X-486192Y76595D01*
X-488029Y77356D01*
X-490000Y77615D01*
D02*
G37*
G36*
X260000Y57615D02*
X258029Y57356D01*
X256192Y56595D01*
X254615Y55385D01*
X253405Y53808D01*
X252644Y51971D01*
X252385Y50000D01*
X252644Y48029D01*
X253405Y46192D01*
X254615Y44615D01*
X256192Y43405D01*
X258029Y42644D01*
X260000Y42385D01*
X261971Y42644D01*
X263808Y43405D01*
X265385Y44615D01*
X266595Y46192D01*
X267356Y48029D01*
X267615Y50000D01*
X267356Y51971D01*
X266595Y53808D01*
X265385Y55385D01*
X263808Y56595D01*
X261971Y57356D01*
X260000Y57615D01*
D02*
G37*
G36*
X-292500D02*
X-294471Y57356D01*
X-296308Y56595D01*
X-297885Y55385D01*
X-299095Y53808D01*
X-299856Y51971D01*
X-300115Y50000D01*
X-299856Y48029D01*
X-299095Y46192D01*
X-297885Y44615D01*
X-296308Y43405D01*
X-294471Y42644D01*
X-292500Y42385D01*
X-290529Y42644D01*
X-288692Y43405D01*
X-287115Y44615D01*
X-285905Y46192D01*
X-285144Y48029D01*
X-284885Y50000D01*
X-285144Y51971D01*
X-285905Y53808D01*
X-287115Y55385D01*
X-288692Y56595D01*
X-290529Y57356D01*
X-292500Y57615D01*
D02*
G37*
G36*
X-550000D02*
X-551971Y57356D01*
X-553808Y56595D01*
X-555385Y55385D01*
X-556595Y53808D01*
X-557356Y51971D01*
X-557615Y50000D01*
X-557356Y48029D01*
X-556595Y46192D01*
X-555385Y44615D01*
X-553808Y43405D01*
X-551971Y42644D01*
X-550000Y42385D01*
X-548029Y42644D01*
X-546192Y43405D01*
X-544615Y44615D01*
X-543405Y46192D01*
X-542644Y48029D01*
X-542385Y50000D01*
X-542644Y51971D01*
X-543405Y53808D01*
X-544615Y55385D01*
X-546192Y56595D01*
X-548029Y57356D01*
X-550000Y57615D01*
D02*
G37*
G36*
X-391750Y57302D02*
X-393721Y57042D01*
X-395557Y56282D01*
X-397134Y55071D01*
X-398344Y53494D01*
X-399105Y51658D01*
X-399365Y49687D01*
X-399105Y47716D01*
X-398344Y45879D01*
X-397134Y44302D01*
X-395557Y43092D01*
X-393721Y42331D01*
X-391750Y42072D01*
X-389779Y42331D01*
X-387942Y43092D01*
X-386365Y44302D01*
X-385155Y45879D01*
X-384394Y47716D01*
X-384134Y49687D01*
X-384394Y51658D01*
X-385155Y53494D01*
X-386365Y55071D01*
X-387942Y56282D01*
X-389779Y57042D01*
X-391750Y57302D01*
D02*
G37*
G36*
X243122Y52540D02*
X241151Y52281D01*
X239314Y51520D01*
X237737Y50310D01*
X236527Y48733D01*
X235766Y46896D01*
X235507Y44925D01*
X235766Y42954D01*
X236527Y41118D01*
X237737Y39540D01*
X239314Y38330D01*
X241151Y37569D01*
X243122Y37310D01*
X245093Y37569D01*
X246929Y38330D01*
X248507Y39540D01*
X249717Y41118D01*
X250478Y42954D01*
X250737Y44925D01*
X250478Y46896D01*
X249717Y48733D01*
X248507Y50310D01*
X246929Y51520D01*
X245093Y52281D01*
X243122Y52540D01*
D02*
G37*
G36*
X118122D02*
X116151Y52281D01*
X114314Y51520D01*
X112737Y50310D01*
X111527Y48733D01*
X110766Y46896D01*
X110507Y44925D01*
X110766Y42954D01*
X111527Y41118D01*
X112737Y39540D01*
X114314Y38330D01*
X116151Y37569D01*
X118122Y37310D01*
X120093Y37569D01*
X121929Y38330D01*
X123506Y39540D01*
X124717Y41118D01*
X125478Y42954D01*
X125737Y44925D01*
X125478Y46896D01*
X124717Y48733D01*
X123506Y50310D01*
X121929Y51520D01*
X120093Y52281D01*
X118122Y52540D01*
D02*
G37*
G36*
X-160053Y52515D02*
X-162024Y52256D01*
X-163860Y51495D01*
X-165437Y50285D01*
X-166648Y48707D01*
X-167408Y46871D01*
X-167668Y44900D01*
X-167408Y42929D01*
X-166648Y41092D01*
X-165437Y39515D01*
X-163860Y38305D01*
X-162024Y37544D01*
X-160053Y37285D01*
X-158082Y37544D01*
X-156245Y38305D01*
X-154668Y39515D01*
X-153458Y41092D01*
X-152697Y42929D01*
X-152438Y44900D01*
X-152697Y46871D01*
X-153458Y48707D01*
X-154668Y50285D01*
X-156245Y51495D01*
X-158082Y52256D01*
X-160053Y52515D01*
D02*
G37*
G36*
X-700000Y52215D02*
X-701971Y51955D01*
X-703808Y51195D01*
X-705385Y49984D01*
X-706595Y48407D01*
X-707356Y46571D01*
X-707615Y44600D01*
X-707356Y42629D01*
X-706595Y40792D01*
X-705385Y39215D01*
X-703808Y38005D01*
X-701971Y37244D01*
X-700000Y36985D01*
X-698029Y37244D01*
X-696192Y38005D01*
X-694615Y39215D01*
X-693405Y40792D01*
X-692644Y42629D01*
X-692385Y44600D01*
X-692644Y46571D01*
X-693405Y48407D01*
X-694615Y49984D01*
X-696192Y51195D01*
X-698029Y51955D01*
X-700000Y52215D01*
D02*
G37*
G36*
X168000Y45165D02*
X166029Y44905D01*
X164192Y44145D01*
X162615Y42934D01*
X161405Y41357D01*
X160644Y39521D01*
X160385Y37550D01*
X160644Y35579D01*
X161405Y33742D01*
X162615Y32165D01*
X164192Y30955D01*
X166029Y30194D01*
X168000Y29935D01*
X169971Y30194D01*
X171807Y30955D01*
X173385Y32165D01*
X174595Y33742D01*
X175356Y35579D01*
X175615Y37550D01*
X175356Y39521D01*
X174595Y41357D01*
X173385Y42934D01*
X171807Y44145D01*
X169971Y44905D01*
X168000Y45165D01*
D02*
G37*
G36*
X42500Y45115D02*
X40529Y44856D01*
X38692Y44095D01*
X37115Y42885D01*
X35905Y41308D01*
X35144Y39471D01*
X34885Y37500D01*
X35144Y35529D01*
X35905Y33692D01*
X37115Y32115D01*
X38692Y30905D01*
X40529Y30144D01*
X42500Y29885D01*
X44471Y30144D01*
X46308Y30905D01*
X47885Y32115D01*
X49095Y33692D01*
X49856Y35529D01*
X50115Y37500D01*
X49856Y39471D01*
X49095Y41308D01*
X47885Y42885D01*
X46308Y44095D01*
X44471Y44856D01*
X42500Y45115D01*
D02*
G37*
G36*
X652500Y45115D02*
X650529Y44856D01*
X648692Y44095D01*
X647115Y42885D01*
X645905Y41308D01*
X645144Y39471D01*
X644885Y37500D01*
X645144Y35529D01*
X645905Y33692D01*
X647115Y32115D01*
X648692Y30905D01*
X650529Y30144D01*
X652500Y29885D01*
X654471Y30144D01*
X656308Y30905D01*
X657885Y32115D01*
X659095Y33692D01*
X659856Y35529D01*
X660115Y37500D01*
X659856Y39471D01*
X659095Y41308D01*
X657885Y42885D01*
X656308Y44095D01*
X654471Y44856D01*
X652500Y45115D01*
D02*
G37*
G36*
X497500Y40115D02*
X495529Y39856D01*
X493692Y39095D01*
X492115Y37885D01*
X490905Y36307D01*
X490144Y34471D01*
X489885Y32500D01*
X490144Y30529D01*
X490905Y28692D01*
X492115Y27115D01*
X493692Y25905D01*
X495529Y25144D01*
X497500Y24885D01*
X499471Y25144D01*
X501308Y25905D01*
X502885Y27115D01*
X504095Y28692D01*
X504856Y30529D01*
X505115Y32500D01*
X504856Y34471D01*
X504095Y36307D01*
X502885Y37885D01*
X501308Y39095D01*
X499471Y39856D01*
X497500Y40115D01*
D02*
G37*
G36*
X-580000Y17615D02*
X-581971Y17356D01*
X-583808Y16595D01*
X-585385Y15385D01*
X-586595Y13808D01*
X-587356Y11971D01*
X-587615Y10000D01*
X-587356Y8029D01*
X-586595Y6192D01*
X-585385Y4615D01*
X-583808Y3405D01*
X-581971Y2644D01*
X-580000Y2385D01*
X-578029Y2644D01*
X-576192Y3405D01*
X-574615Y4615D01*
X-573405Y6192D01*
X-572644Y8029D01*
X-572385Y10000D01*
X-572644Y11971D01*
X-573405Y13808D01*
X-574615Y15385D01*
X-576192Y16595D01*
X-578029Y17356D01*
X-580000Y17615D01*
D02*
G37*
G36*
X385000Y12615D02*
X383029Y12356D01*
X381192Y11595D01*
X379615Y10385D01*
X378405Y8808D01*
X377644Y6971D01*
X377385Y5000D01*
X377644Y3029D01*
X378405Y1192D01*
X379615Y-385D01*
X381192Y-1595D01*
X383029Y-2356D01*
X385000Y-2615D01*
X386971Y-2356D01*
X388808Y-1595D01*
X390385Y-385D01*
X391595Y1192D01*
X392356Y3029D01*
X392615Y5000D01*
X392356Y6971D01*
X391595Y8808D01*
X390385Y10385D01*
X388808Y11595D01*
X386971Y12356D01*
X385000Y12615D01*
D02*
G37*
G36*
X-380000Y7492D02*
X-381971Y7232D01*
X-383807Y6471D01*
X-385385Y5261D01*
X-386595Y3684D01*
X-387356Y1848D01*
X-387615Y-124D01*
X-387356Y-2094D01*
X-386595Y-3931D01*
X-385385Y-5508D01*
X-383807Y-6718D01*
X-381971Y-7479D01*
X-380000Y-7739D01*
X-378029Y-7479D01*
X-376192Y-6718D01*
X-374615Y-5508D01*
X-373405Y-3931D01*
X-372644Y-2094D01*
X-372385Y-124D01*
X-372644Y1848D01*
X-373405Y3684D01*
X-374615Y5261D01*
X-376192Y6471D01*
X-378029Y7232D01*
X-380000Y7492D01*
D02*
G37*
G36*
X-580000Y-2385D02*
X-581971Y-2644D01*
X-583808Y-3405D01*
X-585385Y-4615D01*
X-586595Y-6192D01*
X-587356Y-8029D01*
X-587615Y-10000D01*
X-587356Y-11971D01*
X-586595Y-13808D01*
X-585385Y-15385D01*
X-583808Y-16595D01*
X-581971Y-17356D01*
X-580000Y-17615D01*
X-578029Y-17356D01*
X-576192Y-16595D01*
X-574615Y-15385D01*
X-573405Y-13808D01*
X-572644Y-11971D01*
X-572385Y-10000D01*
X-572644Y-8029D01*
X-573405Y-6192D01*
X-574615Y-4615D01*
X-576192Y-3405D01*
X-578029Y-2644D01*
X-580000Y-2385D01*
D02*
G37*
G36*
X-300000Y-57385D02*
X-301971Y-57644D01*
X-303808Y-58405D01*
X-305385Y-59615D01*
X-306595Y-61192D01*
X-307356Y-63029D01*
X-307615Y-65000D01*
X-307356Y-66971D01*
X-306595Y-68808D01*
X-305385Y-70385D01*
X-303808Y-71595D01*
X-301971Y-72356D01*
X-300000Y-72615D01*
X-298029Y-72356D01*
X-296192Y-71595D01*
X-294615Y-70385D01*
X-293405Y-68808D01*
X-292644Y-66971D01*
X-292385Y-65000D01*
X-292644Y-63029D01*
X-293405Y-61192D01*
X-294615Y-59615D01*
X-296192Y-58405D01*
X-298029Y-57644D01*
X-300000Y-57385D01*
D02*
G37*
G36*
X338000Y-64339D02*
X336029Y-64598D01*
X334192Y-65359D01*
X332615Y-66569D01*
X331405Y-68146D01*
X330644Y-69983D01*
X330385Y-71954D01*
X330644Y-73925D01*
X331405Y-75761D01*
X332615Y-77339D01*
X334192Y-78549D01*
X336029Y-79310D01*
X338000Y-79569D01*
X339971Y-79310D01*
X341807Y-78549D01*
X343385Y-77339D01*
X344595Y-75761D01*
X345355Y-73925D01*
X345615Y-71954D01*
X345355Y-69983D01*
X344595Y-68146D01*
X343385Y-66569D01*
X341807Y-65359D01*
X339971Y-64598D01*
X338000Y-64339D01*
D02*
G37*
G36*
X-600000Y-212385D02*
X-601971Y-212644D01*
X-603808Y-213405D01*
X-605385Y-214615D01*
X-606595Y-216192D01*
X-607356Y-218029D01*
X-607615Y-220000D01*
X-607356Y-221971D01*
X-606595Y-223808D01*
X-605385Y-225385D01*
X-603808Y-226595D01*
X-601971Y-227356D01*
X-600000Y-227615D01*
X-598029Y-227356D01*
X-596192Y-226595D01*
X-594615Y-225385D01*
X-593405Y-223808D01*
X-592644Y-221971D01*
X-592385Y-220000D01*
X-592644Y-218029D01*
X-593405Y-216192D01*
X-594615Y-214615D01*
X-596192Y-213405D01*
X-598029Y-212644D01*
X-600000Y-212385D01*
D02*
G37*
G36*
X-432500Y-242385D02*
X-434471Y-242644D01*
X-436308Y-243405D01*
X-437885Y-244615D01*
X-439095Y-246192D01*
X-439856Y-248029D01*
X-440115Y-250000D01*
X-439856Y-251971D01*
X-439095Y-253808D01*
X-437885Y-255385D01*
X-436308Y-256595D01*
X-434471Y-257356D01*
X-432500Y-257615D01*
X-430529Y-257356D01*
X-428692Y-256595D01*
X-427115Y-255385D01*
X-425905Y-253808D01*
X-425144Y-251971D01*
X-424885Y-250000D01*
X-425144Y-248029D01*
X-425905Y-246192D01*
X-427115Y-244615D01*
X-428692Y-243405D01*
X-430529Y-242644D01*
X-432500Y-242385D01*
D02*
G37*
G36*
X291500Y-262385D02*
X289529Y-262644D01*
X287692Y-263405D01*
X286115Y-264615D01*
X284905Y-266192D01*
X284144Y-268029D01*
X283885Y-270000D01*
X284144Y-271971D01*
X284905Y-273808D01*
X286115Y-275385D01*
X287692Y-276595D01*
X289529Y-277356D01*
X291500Y-277615D01*
X293471Y-277356D01*
X295308Y-276595D01*
X296885Y-275385D01*
X298095Y-273808D01*
X298856Y-271971D01*
X299115Y-270000D01*
X298856Y-268029D01*
X298095Y-266192D01*
X296885Y-264615D01*
X295308Y-263405D01*
X293471Y-262644D01*
X291500Y-262385D01*
D02*
G37*
G36*
X444000Y-282385D02*
X442029Y-282644D01*
X440192Y-283405D01*
X438615Y-284615D01*
X437405Y-286192D01*
X436644Y-288029D01*
X436385Y-290000D01*
X436644Y-291971D01*
X437405Y-293808D01*
X438615Y-295385D01*
X440192Y-296595D01*
X442029Y-297356D01*
X444000Y-297615D01*
X445971Y-297356D01*
X447808Y-296595D01*
X449385Y-295385D01*
X450595Y-293808D01*
X451356Y-291971D01*
X451615Y-290000D01*
X451356Y-288029D01*
X450595Y-286192D01*
X449385Y-284615D01*
X447808Y-283405D01*
X445971Y-282644D01*
X444000Y-282385D01*
D02*
G37*
G36*
X-299869Y-309754D02*
X-301840Y-310014D01*
X-303677Y-310774D01*
X-305254Y-311985D01*
X-306464Y-313562D01*
X-307225Y-315399D01*
X-307484Y-317369D01*
X-307225Y-319340D01*
X-306464Y-321177D01*
X-305254Y-322754D01*
X-303677Y-323964D01*
X-301840Y-324725D01*
X-299869Y-324985D01*
X-297899Y-324725D01*
X-296062Y-323964D01*
X-294485Y-322754D01*
X-293274Y-321177D01*
X-292514Y-319340D01*
X-292254Y-317369D01*
X-292514Y-315399D01*
X-293274Y-313562D01*
X-294485Y-311985D01*
X-296062Y-310774D01*
X-297899Y-310014D01*
X-299869Y-309754D01*
D02*
G37*
G36*
X586500Y-319885D02*
X584529Y-320144D01*
X582692Y-320905D01*
X581115Y-322115D01*
X579905Y-323692D01*
X579144Y-325529D01*
X578885Y-327500D01*
X579144Y-329471D01*
X579905Y-331308D01*
X581115Y-332885D01*
X582692Y-334095D01*
X584529Y-334856D01*
X586500Y-335115D01*
X588471Y-334856D01*
X590308Y-334095D01*
X591885Y-332885D01*
X593095Y-331308D01*
X593856Y-329471D01*
X594115Y-327500D01*
X593856Y-325529D01*
X593095Y-323692D01*
X591885Y-322115D01*
X590308Y-320905D01*
X588471Y-320144D01*
X586500Y-319885D01*
D02*
G37*
%LPD*%
D20*
X-510000Y-520400D02*
D03*
X-387999Y659999D02*
D03*
X374999D02*
D03*
X390000Y659600D02*
D03*
X350000D02*
D03*
X330000D02*
D03*
X310000D02*
D03*
X230000D02*
D03*
X250000D02*
D03*
X290000D02*
D03*
X270000D02*
D03*
X190000D02*
D03*
X210000D02*
D03*
X150000D02*
D03*
X170000D02*
D03*
X130000D02*
D03*
X70000D02*
D03*
X110000D02*
D03*
X90000D02*
D03*
X-370000D02*
D03*
X-410000D02*
D03*
X-490000D02*
D03*
X-470000D02*
D03*
X-430000D02*
D03*
X-450000D02*
D03*
X-530000D02*
D03*
X-510000D02*
D03*
X-570000D02*
D03*
X-550000D02*
D03*
X-590000D02*
D03*
X860000Y609600D02*
D03*
Y589600D02*
D03*
Y549600D02*
D03*
Y569600D02*
D03*
Y529600D02*
D03*
Y489600D02*
D03*
Y509600D02*
D03*
X-860000Y629600D02*
D03*
Y609600D02*
D03*
Y569600D02*
D03*
Y549600D02*
D03*
Y529600D02*
D03*
Y509600D02*
D03*
Y589600D02*
D03*
X-849858Y-508542D02*
D03*
X830000Y659600D02*
D03*
X860000Y629600D02*
D03*
X849858Y647742D02*
D03*
X860000Y-490400D02*
D03*
X830000Y-520400D02*
D03*
X848142Y-510258D02*
D03*
X-830000Y-520400D02*
D03*
X-860000Y-490400D02*
D03*
X-848142Y649458D02*
D03*
X-830000Y659600D02*
D03*
X-860000Y489600D02*
D03*
X860000Y129600D02*
D03*
Y109600D02*
D03*
Y69600D02*
D03*
Y89600D02*
D03*
Y49600D02*
D03*
Y249600D02*
D03*
Y229600D02*
D03*
Y189600D02*
D03*
Y209600D02*
D03*
Y149600D02*
D03*
Y169600D02*
D03*
Y289600D02*
D03*
Y269600D02*
D03*
Y329600D02*
D03*
Y309600D02*
D03*
Y349600D02*
D03*
Y369600D02*
D03*
Y389600D02*
D03*
Y449600D02*
D03*
Y429600D02*
D03*
Y409600D02*
D03*
X860000Y29600D02*
D03*
Y9600D02*
D03*
X860000Y-50400D02*
D03*
Y-430400D02*
D03*
Y-450400D02*
D03*
Y-410400D02*
D03*
Y-390400D02*
D03*
Y-370400D02*
D03*
Y-330400D02*
D03*
Y-350400D02*
D03*
Y-290400D02*
D03*
Y-310400D02*
D03*
Y-190400D02*
D03*
Y-170400D02*
D03*
Y-230400D02*
D03*
Y-210400D02*
D03*
Y-250400D02*
D03*
Y-270400D02*
D03*
Y-70400D02*
D03*
Y-110400D02*
D03*
Y-90400D02*
D03*
Y-130400D02*
D03*
Y-150400D02*
D03*
Y-30400D02*
D03*
Y-10400D02*
D03*
Y469600D02*
D03*
X-860000Y-10400D02*
D03*
Y-30400D02*
D03*
Y-150400D02*
D03*
Y-130400D02*
D03*
Y-90400D02*
D03*
Y-110400D02*
D03*
Y-70400D02*
D03*
Y-270400D02*
D03*
Y-250400D02*
D03*
Y-210400D02*
D03*
Y-230400D02*
D03*
Y-170400D02*
D03*
Y-190400D02*
D03*
Y-310400D02*
D03*
Y-290400D02*
D03*
Y-350400D02*
D03*
Y-330400D02*
D03*
Y-370400D02*
D03*
Y-390400D02*
D03*
Y-410400D02*
D03*
Y-450400D02*
D03*
Y-430400D02*
D03*
Y-50400D02*
D03*
X-860000Y9600D02*
D03*
Y29600D02*
D03*
X-860000Y409600D02*
D03*
Y429600D02*
D03*
Y449600D02*
D03*
Y389600D02*
D03*
Y369600D02*
D03*
Y349600D02*
D03*
Y309600D02*
D03*
Y329600D02*
D03*
Y269600D02*
D03*
Y289600D02*
D03*
Y169600D02*
D03*
Y149600D02*
D03*
Y209600D02*
D03*
Y189600D02*
D03*
Y229600D02*
D03*
Y249600D02*
D03*
Y49600D02*
D03*
Y89600D02*
D03*
Y69600D02*
D03*
Y109600D02*
D03*
Y129600D02*
D03*
Y469600D02*
D03*
X-810000Y659600D02*
D03*
X-790000D02*
D03*
X-770000D02*
D03*
X-730000D02*
D03*
X-750000D02*
D03*
X-690000D02*
D03*
X-710000D02*
D03*
X-630000D02*
D03*
X-610000D02*
D03*
X-650000D02*
D03*
X-670000D02*
D03*
X430000D02*
D03*
X410000D02*
D03*
X550000D02*
D03*
X530000D02*
D03*
X490000D02*
D03*
X510000D02*
D03*
X450000D02*
D03*
X470000D02*
D03*
X670000D02*
D03*
X650000D02*
D03*
X610000D02*
D03*
X630000D02*
D03*
X570000D02*
D03*
X590000D02*
D03*
X710000D02*
D03*
X690000D02*
D03*
X750000D02*
D03*
X730000D02*
D03*
X770000D02*
D03*
X790000D02*
D03*
X810000D02*
D03*
X860000Y-470400D02*
D03*
X810000Y-520400D02*
D03*
X790000D02*
D03*
X770000D02*
D03*
X750000D02*
D03*
X710000D02*
D03*
X590000D02*
D03*
X570000D02*
D03*
X630000D02*
D03*
X510000D02*
D03*
X490000D02*
D03*
X530000D02*
D03*
X550000D02*
D03*
X350000D02*
D03*
X330000D02*
D03*
X390000D02*
D03*
X370000D02*
D03*
X410000D02*
D03*
X270000D02*
D03*
X250000D02*
D03*
X290000D02*
D03*
X310000D02*
D03*
X110000D02*
D03*
X150000D02*
D03*
X130000D02*
D03*
X170000D02*
D03*
X190000D02*
D03*
X90000D02*
D03*
X-90000D02*
D03*
X-190000D02*
D03*
X-170000D02*
D03*
X-130000D02*
D03*
X-150000D02*
D03*
X-110000D02*
D03*
X-310000D02*
D03*
X-290000D02*
D03*
X-250000D02*
D03*
X-270000D02*
D03*
X-410000D02*
D03*
X-370000D02*
D03*
X-390000D02*
D03*
X-330000D02*
D03*
X-350000D02*
D03*
X-550000D02*
D03*
X-530000D02*
D03*
X-490000D02*
D03*
X-630000D02*
D03*
X-570000D02*
D03*
X-590000D02*
D03*
X-710000D02*
D03*
X-750000D02*
D03*
X-770000D02*
D03*
X-790000D02*
D03*
X-810000D02*
D03*
X-860000Y-470400D02*
D03*
X50000Y-520400D02*
D03*
X10000D02*
D03*
X30000D02*
D03*
X70000D02*
D03*
X-30000D02*
D03*
X-70000D02*
D03*
X-50000D02*
D03*
X-10000D02*
D03*
D99*
X212168Y631148D02*
D03*
X239854D02*
D03*
X267540D02*
D03*
X198198Y602700D02*
D03*
X225884D02*
D03*
X253570D02*
D03*
X350598Y631148D02*
D03*
X322912D02*
D03*
X295226D02*
D03*
X378284D02*
D03*
X281256Y602700D02*
D03*
X308942D02*
D03*
X364314D02*
D03*
X336628D02*
D03*
D100*
X392000D02*
D03*
D101*
X-301375Y229600D02*
D03*
X298625D02*
D03*
X-451375D02*
D03*
X448625D02*
D03*
X-815000Y422100D02*
D03*
X815000Y422100D02*
D03*
Y229600D02*
D03*
X-815000D02*
D03*
Y-155400D02*
D03*
Y37100D02*
D03*
X815000D02*
D03*
Y-155400D02*
D03*
Y-347900D02*
D03*
X-815000D02*
D03*
X0D02*
D03*
Y449000D02*
D03*
Y0D02*
D03*
X-280000Y-490400D02*
D03*
X815000Y-475400D02*
D03*
Y614600D02*
D03*
X-815000Y614600D02*
D03*
X-160000Y-490400D02*
D03*
X-385000D02*
D03*
X-505000D02*
D03*
X-610000D02*
D03*
X-730000D02*
D03*
X280000D02*
D03*
X160000D02*
D03*
X385000D02*
D03*
X505000D02*
D03*
X610000D02*
D03*
X730000D02*
D03*
X-815000Y-475400D02*
D03*
D103*
X-396000Y545000D02*
D03*
X-399000Y621000D02*
D03*
X-132500Y610000D02*
D03*
X130000Y496347D02*
D03*
X-280250Y497500D02*
D03*
X-307000Y555000D02*
D03*
Y575000D02*
D03*
Y581000D02*
D03*
X-330000Y558000D02*
D03*
X-333000Y521000D02*
D03*
X-276000D02*
D03*
X-298500Y506304D02*
D03*
X-291000D02*
D03*
X-312535Y504500D02*
D03*
X-264625Y517500D02*
D03*
X-495000Y294505D02*
D03*
X465000Y295000D02*
D03*
X445000D02*
D03*
X425000D02*
D03*
X405000D02*
D03*
X385000D02*
D03*
X365000D02*
D03*
X345000D02*
D03*
X325000D02*
D03*
X305000D02*
D03*
X285000D02*
D03*
X-750000Y352500D02*
D03*
X-735000D02*
D03*
X-717000Y320000D02*
D03*
Y330000D02*
D03*
Y340000D02*
D03*
Y352500D02*
D03*
X-223000Y295221D02*
D03*
X-202899D02*
D03*
X-182500D02*
D03*
X99903Y359750D02*
D03*
X111933D02*
D03*
X42500Y320000D02*
D03*
X117500D02*
D03*
X127500D02*
D03*
X137500D02*
D03*
X102500Y295000D02*
D03*
X-765000Y291850D02*
D03*
X-722500D02*
D03*
X-501473Y340605D02*
D03*
X-495000Y351495D02*
D03*
X-432500Y294505D02*
D03*
Y301505D02*
D03*
X-462500Y311505D02*
D03*
Y319000D02*
D03*
Y325822D02*
D03*
Y332450D02*
D03*
X-267500Y295000D02*
D03*
X-282500D02*
D03*
X-301375Y294505D02*
D03*
X-325000D02*
D03*
X-347004D02*
D03*
X-369750D02*
D03*
X-395000D02*
D03*
X-142250Y315000D02*
D03*
Y322500D02*
D03*
Y330000D02*
D03*
Y337500D02*
D03*
X-142500Y345000D02*
D03*
X-142250Y353275D02*
D03*
X-116500Y330000D02*
D03*
X-112500Y322500D02*
D03*
X205000Y292500D02*
D03*
X195000D02*
D03*
X185000D02*
D03*
X175000D02*
D03*
X165000D02*
D03*
X155000D02*
D03*
X145000D02*
D03*
X135000D02*
D03*
X517500Y350000D02*
D03*
X507500D02*
D03*
X497500D02*
D03*
X487500D02*
D03*
X517500Y310000D02*
D03*
X507500D02*
D03*
X497500D02*
D03*
X487500D02*
D03*
X692500Y312500D02*
D03*
X737500Y290000D02*
D03*
X797500Y295000D02*
D03*
X795000Y342500D02*
D03*
Y372500D02*
D03*
X780000Y317500D02*
D03*
Y325000D02*
D03*
Y332500D02*
D03*
Y340000D02*
D03*
X542413Y250000D02*
D03*
X484000Y213600D02*
D03*
Y236600D02*
D03*
X333000Y213600D02*
D03*
Y236600D02*
D03*
X176000Y213600D02*
D03*
Y236600D02*
D03*
X-209587Y229849D02*
D03*
X-736250Y632100D02*
D03*
X463750Y472100D02*
D03*
X183750Y-127900D02*
D03*
X-576250Y-47900D02*
D03*
X103750Y-407900D02*
D03*
X743750Y-127900D02*
D03*
X-256250Y-167900D02*
D03*
X823750Y112100D02*
D03*
X263750Y-407900D02*
D03*
X463750Y32100D02*
D03*
Y-367900D02*
D03*
X-256250Y-327900D02*
D03*
X-296250Y-87900D02*
D03*
X-456250Y-367900D02*
D03*
X583750Y32100D02*
D03*
X543750Y-207900D02*
D03*
X-96250Y32100D02*
D03*
X-296250Y-127900D02*
D03*
X-136250Y192100D02*
D03*
X-576250Y112100D02*
D03*
X23750Y-87900D02*
D03*
X-776250Y-367900D02*
D03*
X423750Y432100D02*
D03*
X-56250Y-487900D02*
D03*
X-776250Y-207900D02*
D03*
Y-447900D02*
D03*
X143750Y592100D02*
D03*
X503750Y432100D02*
D03*
X-176250Y-367900D02*
D03*
X823750Y-47900D02*
D03*
X-816250Y192100D02*
D03*
X303750Y32100D02*
D03*
X-776250Y-247900D02*
D03*
X783750Y632100D02*
D03*
X-816250Y-247900D02*
D03*
X543750Y-167900D02*
D03*
X783750Y192100D02*
D03*
X-336250Y-367900D02*
D03*
X-176250Y-327900D02*
D03*
X-736250Y72100D02*
D03*
X-536250Y-47900D02*
D03*
X23750Y232100D02*
D03*
X-816250Y292100D02*
D03*
X783750Y-327900D02*
D03*
X23750Y72100D02*
D03*
X783750Y-367900D02*
D03*
X543750Y-327900D02*
D03*
X-576250Y-447900D02*
D03*
X-776250Y632100D02*
D03*
X-136250Y-447900D02*
D03*
X463750Y-7900D02*
D03*
Y-247900D02*
D03*
X-416250Y-407900D02*
D03*
X823750Y312100D02*
D03*
X743750Y472100D02*
D03*
X-136250Y-7900D02*
D03*
X383750Y-47900D02*
D03*
X-416250Y-447900D02*
D03*
X503750Y-247900D02*
D03*
X143750Y-367900D02*
D03*
X463750Y192100D02*
D03*
X-416250Y-367900D02*
D03*
X-136250Y-407900D02*
D03*
X-616250Y-367900D02*
D03*
X-216250Y-47900D02*
D03*
X463750Y-407900D02*
D03*
X-256250Y-87900D02*
D03*
X263750Y-167900D02*
D03*
X303750D02*
D03*
X23750Y-327900D02*
D03*
X-776250Y232100D02*
D03*
X503750Y-407900D02*
D03*
X-816250Y152100D02*
D03*
X583750Y72100D02*
D03*
X-56250Y-327900D02*
D03*
X-776250Y-47900D02*
D03*
X183750Y-167900D02*
D03*
X-776250Y32100D02*
D03*
X743750Y-327900D02*
D03*
X-336250Y-447900D02*
D03*
X-96250Y592100D02*
D03*
X-416250Y-247900D02*
D03*
X-136250Y-207900D02*
D03*
X-616250Y512100D02*
D03*
X-776250Y-487900D02*
D03*
X103750D02*
D03*
X343750Y112100D02*
D03*
X463750Y72100D02*
D03*
X423750Y192100D02*
D03*
X-496250Y-367900D02*
D03*
X23750Y-487900D02*
D03*
X263750Y-247900D02*
D03*
X303750Y-327900D02*
D03*
X-176250Y-407900D02*
D03*
X-136250Y32100D02*
D03*
X-816250Y472100D02*
D03*
X743750Y-47900D02*
D03*
X423750Y-447900D02*
D03*
X663750Y-87900D02*
D03*
X223750D02*
D03*
X-296250Y192100D02*
D03*
X263750Y-327900D02*
D03*
X183750Y-367900D02*
D03*
X463750Y-207900D02*
D03*
X-176250D02*
D03*
X-816250Y-47900D02*
D03*
X143750Y-447900D02*
D03*
X463750Y512100D02*
D03*
X63750Y-447900D02*
D03*
X-96250Y-407900D02*
D03*
X-376250Y-447900D02*
D03*
X-296250Y-327900D02*
D03*
X-576250Y32100D02*
D03*
X383750Y512100D02*
D03*
X-456250Y32100D02*
D03*
X823750Y152100D02*
D03*
X23750Y-447900D02*
D03*
X-656250Y632100D02*
D03*
X103750Y-207900D02*
D03*
X-696250Y-447900D02*
D03*
X423750Y72100D02*
D03*
X-416250Y-487900D02*
D03*
X583750Y-47900D02*
D03*
X303750Y-367900D02*
D03*
X543750Y-127900D02*
D03*
X-816250Y352100D02*
D03*
X-136250Y-127900D02*
D03*
X783750Y-487900D02*
D03*
X743750Y-7900D02*
D03*
X-776250Y-87900D02*
D03*
X-336250Y112100D02*
D03*
X223750Y-367900D02*
D03*
X183750Y72100D02*
D03*
X-696250Y-47900D02*
D03*
X143750Y-327900D02*
D03*
X663750Y32100D02*
D03*
X63750Y-367900D02*
D03*
X343750Y-487900D02*
D03*
X63750Y-327900D02*
D03*
X263750Y-127900D02*
D03*
X-16250Y-407900D02*
D03*
X-696250Y-87900D02*
D03*
X663750Y-47900D02*
D03*
X-176250Y-167900D02*
D03*
X-656250Y432100D02*
D03*
X183750Y-207900D02*
D03*
X383750Y-447900D02*
D03*
X-736250Y-407900D02*
D03*
X823750Y392100D02*
D03*
X-576250Y72100D02*
D03*
X823750D02*
D03*
Y-87900D02*
D03*
X343750Y-447900D02*
D03*
X503750Y-167900D02*
D03*
X263750Y-447900D02*
D03*
X383750Y-207900D02*
D03*
X-176250Y-447900D02*
D03*
X343750Y-407900D02*
D03*
X783750Y232100D02*
D03*
X743750Y32100D02*
D03*
X-536250Y-447900D02*
D03*
X183750D02*
D03*
X-56250D02*
D03*
X-536250Y512100D02*
D03*
X823750Y-7900D02*
D03*
X783750Y592100D02*
D03*
X-776250Y-7900D02*
D03*
X343750Y-127900D02*
D03*
X383750Y-367900D02*
D03*
X-96250Y-487900D02*
D03*
X303750Y192100D02*
D03*
X503750Y-447900D02*
D03*
X703750Y-127900D02*
D03*
X183750Y-327900D02*
D03*
X743750Y-287900D02*
D03*
X543750Y-447900D02*
D03*
X-776250Y112100D02*
D03*
X623750Y-127900D02*
D03*
X543750Y-487900D02*
D03*
X-416250Y32100D02*
D03*
X-696250Y-367900D02*
D03*
X-736250Y-327900D02*
D03*
X423750Y-407900D02*
D03*
X703750Y-87900D02*
D03*
X383750Y-327900D02*
D03*
X503750Y-127900D02*
D03*
X-416250Y-7900D02*
D03*
X463750Y-447900D02*
D03*
X183750Y632100D02*
D03*
X743750Y272100D02*
D03*
X423750Y472100D02*
D03*
X743750Y192100D02*
D03*
X503750Y-287900D02*
D03*
X-136250Y-167900D02*
D03*
X103750Y72100D02*
D03*
X-616250Y-327900D02*
D03*
X-816250Y-7900D02*
D03*
X743750Y232100D02*
D03*
X503750Y472100D02*
D03*
X-256250Y-367900D02*
D03*
X623750Y432100D02*
D03*
X103750Y-87900D02*
D03*
X-816250Y72100D02*
D03*
X623750Y-287900D02*
D03*
X-816250Y552100D02*
D03*
X783750Y-247900D02*
D03*
X543750Y-87900D02*
D03*
X423750Y-7900D02*
D03*
X463750Y-487900D02*
D03*
X-136250Y-87900D02*
D03*
X-336250Y-487900D02*
D03*
X-56250Y-247900D02*
D03*
X823750Y352100D02*
D03*
X-56250Y-407900D02*
D03*
X823750Y-207900D02*
D03*
X343750Y432100D02*
D03*
X-96250Y-367900D02*
D03*
Y-447900D02*
D03*
X23750Y-47900D02*
D03*
X103750Y-447900D02*
D03*
X-136250Y-367900D02*
D03*
X783750Y152100D02*
D03*
X-736250Y232100D02*
D03*
X783750Y-447900D02*
D03*
X303750Y-127900D02*
D03*
X-776250Y-327900D02*
D03*
Y152100D02*
D03*
X743750Y-87900D02*
D03*
Y432100D02*
D03*
X343750Y192100D02*
D03*
X743750Y-447900D02*
D03*
X-616250D02*
D03*
X823750Y-247900D02*
D03*
X-696250Y632100D02*
D03*
X-536250Y-367900D02*
D03*
X423750Y32100D02*
D03*
X-496250Y592100D02*
D03*
X743750Y-367900D02*
D03*
X383750Y-407900D02*
D03*
X-576250Y-487900D02*
D03*
X703750Y-407900D02*
D03*
X823750Y272100D02*
D03*
X383750Y-127900D02*
D03*
X463750Y432100D02*
D03*
X-576250Y232100D02*
D03*
X-496250Y-167900D02*
D03*
Y512100D02*
D03*
X463750Y-327900D02*
D03*
X423750Y-127900D02*
D03*
X-96250Y-327900D02*
D03*
X743750Y72100D02*
D03*
X-136250Y-47900D02*
D03*
X23750Y-367900D02*
D03*
X-736250Y192100D02*
D03*
X23750Y-127900D02*
D03*
X-16250Y-447900D02*
D03*
Y-487900D02*
D03*
X-136250Y-327900D02*
D03*
X383750Y-247900D02*
D03*
Y472100D02*
D03*
X-576250Y-407900D02*
D03*
X-496250Y-327900D02*
D03*
X423750Y-367900D02*
D03*
X143750Y632100D02*
D03*
X823750Y-287900D02*
D03*
X143750Y-47900D02*
D03*
X-536250Y-487900D02*
D03*
X23750Y-407900D02*
D03*
X103750Y-127900D02*
D03*
X-16250Y-87900D02*
D03*
X423750Y552100D02*
D03*
X783750Y272100D02*
D03*
X-416250Y-47900D02*
D03*
X-776250Y192100D02*
D03*
X63750Y-487900D02*
D03*
X303750Y-447900D02*
D03*
X783750Y-287900D02*
D03*
X-736250Y-447900D02*
D03*
X-376250Y-407900D02*
D03*
X383750Y-167900D02*
D03*
X-56250Y-367900D02*
D03*
X-176250Y-87900D02*
D03*
X-816250D02*
D03*
X343750Y-367900D02*
D03*
X-496250Y-447900D02*
D03*
X143750Y32100D02*
D03*
X463750Y552100D02*
D03*
X783750Y472100D02*
D03*
X-616250Y-407900D02*
D03*
X623750Y-367900D02*
D03*
X823750Y192100D02*
D03*
X23750Y-207900D02*
D03*
X703750Y-447900D02*
D03*
Y-367900D02*
D03*
X743750Y-407900D02*
D03*
X-816250Y512100D02*
D03*
X143750Y72100D02*
D03*
X-816250Y-207900D02*
D03*
X423750Y512100D02*
D03*
X543750Y-287900D02*
D03*
X503750Y512100D02*
D03*
X-576250Y632100D02*
D03*
X-96250Y192100D02*
D03*
X-176250D02*
D03*
X23750Y-247900D02*
D03*
X823750Y512100D02*
D03*
X463750Y-47900D02*
D03*
X63750Y-407900D02*
D03*
X503750Y-47900D02*
D03*
X-776250Y72100D02*
D03*
X-416250Y592100D02*
D03*
X583750Y-287900D02*
D03*
X-456250Y592100D02*
D03*
X823750Y472100D02*
D03*
X623750Y-327900D02*
D03*
X783750Y432100D02*
D03*
X143750Y192100D02*
D03*
X303750Y-407900D02*
D03*
X-816250Y-287900D02*
D03*
X-16250Y-47900D02*
D03*
X103750Y-167900D02*
D03*
X-736250Y-367900D02*
D03*
X-816250Y112100D02*
D03*
X583750Y-367900D02*
D03*
X23750Y-167900D02*
D03*
X263750Y-207900D02*
D03*
X463750Y-127900D02*
D03*
X-96250Y-247900D02*
D03*
X623750D02*
D03*
X-576250Y-207900D02*
D03*
X263750Y-367900D02*
D03*
X223750Y-327900D02*
D03*
X783750Y512100D02*
D03*
X-616250Y632100D02*
D03*
X-696250Y-487900D02*
D03*
Y-407900D02*
D03*
X-536250Y476750D02*
D03*
X-339000Y482000D02*
D03*
X-307750Y471500D02*
D03*
X-285500Y566250D02*
D03*
X-407750Y530500D02*
D03*
X-608000Y538000D02*
D03*
X-609000Y448750D02*
D03*
X-487750Y-88750D02*
D03*
X-487500Y-79000D02*
D03*
X-749750Y-1250D02*
D03*
X-738000Y500D02*
D03*
X-500250Y-2500D02*
D03*
X-780500Y-195750D02*
D03*
X-780750Y-154500D02*
D03*
X-757000Y-336250D02*
D03*
X-785000Y-270750D02*
D03*
X-730500Y-259250D02*
D03*
X-731000Y-245250D02*
D03*
X-679750Y-289000D02*
D03*
X-779250Y-312500D02*
D03*
X-781500Y-293000D02*
D03*
X-64000Y-89500D02*
D03*
X-63500Y-79750D02*
D03*
X209250Y-157750D02*
D03*
X209750Y-122000D02*
D03*
X213500Y-110250D02*
D03*
X332250Y88250D02*
D03*
X332500Y79000D02*
D03*
X608000Y-368500D02*
D03*
X598750Y-360750D02*
D03*
X587500Y-391500D02*
D03*
X590250Y-400250D02*
D03*
X597000Y-407000D02*
D03*
X728250Y28750D02*
D03*
X705000Y-59000D02*
D03*
X725750Y-37750D02*
D03*
X725000Y-51750D02*
D03*
X663500Y-20250D02*
D03*
X652250Y-39750D02*
D03*
X647750Y-27250D02*
D03*
X544000Y-78500D02*
D03*
X570000Y-33500D02*
D03*
Y-25750D02*
D03*
X518250Y-24250D02*
D03*
X508500Y-38000D02*
D03*
X491500Y-13250D02*
D03*
X494000Y-39500D02*
D03*
X484000Y-37750D02*
D03*
X478250Y-25750D02*
D03*
X383750Y-30500D02*
D03*
X366500Y-44750D02*
D03*
X369250Y-17750D02*
D03*
X374750Y25500D02*
D03*
X304000Y25000D02*
D03*
X356750Y24000D02*
D03*
X365500Y39500D02*
D03*
X203500Y-25500D02*
D03*
X179250Y-41500D02*
D03*
X168000Y-39250D02*
D03*
X164500Y-25750D02*
D03*
X179250Y-20500D02*
D03*
X240750Y-45250D02*
D03*
X221500Y-59250D02*
D03*
X117000Y-43500D02*
D03*
X98000Y-60000D02*
D03*
X63750Y-35000D02*
D03*
X50750Y-41750D02*
D03*
X53000Y-20750D02*
D03*
X37750Y-25000D02*
D03*
X-94250Y10500D02*
D03*
X-89000Y-23250D02*
D03*
X-33000Y-37000D02*
D03*
X-36000Y-28500D02*
D03*
X-100000Y-39250D02*
D03*
X-115000Y-38750D02*
D03*
X-129250Y-25250D02*
D03*
X-206250Y-42000D02*
D03*
X-224750Y-35500D02*
D03*
X-225750Y-22250D02*
D03*
X-210000Y-21000D02*
D03*
X-151000Y-57250D02*
D03*
X-154750Y-30500D02*
D03*
X-187750Y-68500D02*
D03*
X-169500Y-58500D02*
D03*
X-359250Y36250D02*
D03*
X-370500Y-2500D02*
D03*
X-629500Y52500D02*
D03*
X-609750Y46500D02*
D03*
X-610250Y35750D02*
D03*
X-540250Y23250D02*
D03*
X-460250Y-29250D02*
D03*
X-512750Y-24500D02*
D03*
X-525544Y-41250D02*
D03*
X-520425Y17350D02*
D03*
X-687250Y-28965D02*
D03*
X-695750Y33750D02*
D03*
X-258500Y564500D02*
D03*
X-182500Y-173750D02*
D03*
X-179500Y-155500D02*
D03*
X-175750Y-127750D02*
D03*
X-183250Y-111500D02*
D03*
X752000Y-261250D02*
D03*
X762750Y-250750D02*
D03*
X742500Y-210750D02*
D03*
X742250Y-193750D02*
D03*
X742500Y-156000D02*
D03*
X742250Y-165250D02*
D03*
X751750Y-214750D02*
D03*
X746750Y-224750D02*
D03*
X738750Y-232250D02*
D03*
X731500Y-239750D02*
D03*
X723000Y-247250D02*
D03*
X712500Y-251500D02*
D03*
X753000Y100250D02*
D03*
X751750Y112250D02*
D03*
X746750Y125000D02*
D03*
X739000Y135000D02*
D03*
X727000Y142750D02*
D03*
X771500Y140250D02*
D03*
X766000Y149500D02*
D03*
X757500Y158250D02*
D03*
X745750Y165750D02*
D03*
X519000Y87250D02*
D03*
X577750Y87750D02*
D03*
X599750Y58750D02*
D03*
X617250Y91750D02*
D03*
X605000Y104000D02*
D03*
X705750Y-211250D02*
D03*
X709500Y-200500D02*
D03*
X700250Y-172000D02*
D03*
X710750Y-165000D02*
D03*
X707250Y-153250D02*
D03*
X683000Y-345250D02*
D03*
X656500Y-368250D02*
D03*
X683750Y-364750D02*
D03*
X551000Y-425750D02*
D03*
X541750Y-416000D02*
D03*
X530750Y-405250D02*
D03*
X519750Y-392000D02*
D03*
X579250Y-411750D02*
D03*
X571000Y-402750D02*
D03*
X562750Y-395750D02*
D03*
X553000Y-384250D02*
D03*
X544000Y-375500D02*
D03*
X531500Y-362750D02*
D03*
X526500Y-349750D02*
D03*
X514500Y-249500D02*
D03*
X499250Y-232250D02*
D03*
X492000Y-225250D02*
D03*
X482500Y-216250D02*
D03*
X474250Y-207250D02*
D03*
X466500Y-198000D02*
D03*
X525250Y-217250D02*
D03*
X517500Y-209500D02*
D03*
X511500Y-202250D02*
D03*
X503750Y-194500D02*
D03*
X498250Y-189000D02*
D03*
X490500Y-181750D02*
D03*
X483250Y-172750D02*
D03*
X587250Y-260750D02*
D03*
X577250Y-250250D02*
D03*
X603750Y-237000D02*
D03*
X595750Y-228500D02*
D03*
X587250Y-212250D02*
D03*
X587000Y-172500D02*
D03*
X594250Y-169500D02*
D03*
X599250Y-157500D02*
D03*
X586500Y-147250D02*
D03*
Y-135750D02*
D03*
X585750Y-122750D02*
D03*
X586250Y-110500D02*
D03*
X584000Y-98000D02*
D03*
X557250Y-168750D02*
D03*
X557750Y-156750D02*
D03*
X557500Y-145750D02*
D03*
Y-133500D02*
D03*
X558000Y-123500D02*
D03*
X557500Y-111750D02*
D03*
X559000Y-98500D02*
D03*
X118500Y-169750D02*
D03*
X117000Y-159000D02*
D03*
X116750Y-142750D02*
D03*
X120500Y-123250D02*
D03*
X119750Y-107750D02*
D03*
X204000Y-67750D02*
D03*
X195000Y-77500D02*
D03*
X186250Y-87000D02*
D03*
X176500Y-97000D02*
D03*
X167750Y-106000D02*
D03*
X160250Y-115500D02*
D03*
X185750Y-47500D02*
D03*
X176000Y-56000D02*
D03*
X168000Y-63750D02*
D03*
X159250Y-73000D02*
D03*
X152750Y-80750D02*
D03*
X80250Y-163500D02*
D03*
X82250Y-152500D02*
D03*
X82750Y-134000D02*
D03*
X80750Y-122750D02*
D03*
X80000Y-113750D02*
D03*
X70000Y-130000D02*
D03*
X69500Y-90000D02*
D03*
X78500Y-68250D02*
D03*
X58250Y-49000D02*
D03*
X47750Y-60750D02*
D03*
X114500Y-349500D02*
D03*
X118250Y-361500D02*
D03*
X129750Y-372250D02*
D03*
X109500Y-391000D02*
D03*
X177500Y-411250D02*
D03*
X198500Y-423750D02*
D03*
X205750Y-436750D02*
D03*
X218500Y-405250D02*
D03*
X193750Y-237500D02*
D03*
X202000Y-228750D02*
D03*
X209500Y-220000D02*
D03*
X218000Y-213250D02*
D03*
X238500Y-230000D02*
D03*
X228750Y-240750D02*
D03*
X218750Y-251250D02*
D03*
X209750Y-259250D02*
D03*
X76250Y-216750D02*
D03*
X136500Y-242250D02*
D03*
X146000Y-230750D02*
D03*
X122000Y-218500D02*
D03*
X72250Y-250250D02*
D03*
X59500Y-237500D02*
D03*
X-39500Y114750D02*
D03*
X-198000Y88500D02*
D03*
X-187250Y78250D02*
D03*
X-181500Y72500D02*
D03*
X-168500Y78250D02*
D03*
X-152750Y76750D02*
D03*
X-127750Y77250D02*
D03*
X-139000Y74750D02*
D03*
X-147000Y87500D02*
D03*
X-121000Y88500D02*
D03*
X-123000Y114750D02*
D03*
X-137500Y116000D02*
D03*
X-152500Y115750D02*
D03*
X-166000D02*
D03*
X-180000Y116000D02*
D03*
X-195750Y115750D02*
D03*
X-284500Y87750D02*
D03*
X-298750D02*
D03*
X-309500Y84250D02*
D03*
X-316750Y74750D02*
D03*
X-220250Y115500D02*
D03*
X-242250Y115250D02*
D03*
X-270250Y116000D02*
D03*
X-287500Y117250D02*
D03*
X-304000Y117000D02*
D03*
X-321000Y111750D02*
D03*
X-334000Y100000D02*
D03*
X-340250Y85750D02*
D03*
X-52500Y-131750D02*
D03*
X-49500Y-171000D02*
D03*
X-20250Y-163500D02*
D03*
X-20000Y-121000D02*
D03*
X-107250Y-117250D02*
D03*
X-105500Y-168000D02*
D03*
X-105750Y-154250D02*
D03*
X-9500Y-261500D02*
D03*
X-18500Y-253000D02*
D03*
X-26750Y-245500D02*
D03*
X-35500Y-235500D02*
D03*
X2000Y-231250D02*
D03*
X-7500Y-221500D02*
D03*
X-16500Y-212250D02*
D03*
X-111000Y-242250D02*
D03*
X-102000Y-233000D02*
D03*
X-94250Y-223500D02*
D03*
X-106500Y-196250D02*
D03*
X-115750Y-206250D02*
D03*
X-124750Y-215500D02*
D03*
X-132500Y-223500D02*
D03*
X-144750Y-234750D02*
D03*
X-119500Y-250500D02*
D03*
X-131750Y-261250D02*
D03*
X-185000Y-255250D02*
D03*
X-172250Y-251750D02*
D03*
X-233750Y-368250D02*
D03*
X-205500Y-369750D02*
D03*
X-207250Y-343750D02*
D03*
X-360500Y-38500D02*
D03*
X-309250Y-105750D02*
D03*
X-308000Y-94000D02*
D03*
X-307750Y-76500D02*
D03*
X-354750Y-110000D02*
D03*
X-356500Y-97250D02*
D03*
X-359750Y-83250D02*
D03*
X-360250Y-69000D02*
D03*
X-351000Y-146750D02*
D03*
X-305750Y-128250D02*
D03*
X-313492Y-117198D02*
D03*
X-333250Y-127500D02*
D03*
X-333750Y-140000D02*
D03*
X-330500Y-164000D02*
D03*
X-333500Y-153250D02*
D03*
X-305500Y-141250D02*
D03*
X-304000Y-156000D02*
D03*
X-293000Y-167750D02*
D03*
X-281250Y-179500D02*
D03*
X-271000Y-189750D02*
D03*
X-260000Y-201000D02*
D03*
X-249000Y-212000D02*
D03*
X-238250Y-222750D02*
D03*
X-325750Y-174000D02*
D03*
X-314000Y-186250D02*
D03*
X-302250Y-198250D02*
D03*
X-291750Y-208000D02*
D03*
X-280750Y-219250D02*
D03*
X-269250Y-230750D02*
D03*
X-255500Y-244250D02*
D03*
X-308750Y-257250D02*
D03*
X-328500Y-246000D02*
D03*
X-335000Y-235500D02*
D03*
X-263000Y-279500D02*
D03*
X-274750Y-277000D02*
D03*
X-305750Y-248750D02*
D03*
X-316000Y-238500D02*
D03*
X-263250Y-251500D02*
D03*
X-272250Y-243250D02*
D03*
X-282000Y-234000D02*
D03*
X-291750Y-224250D02*
D03*
X-301000Y-214750D02*
D03*
X-310250Y-205250D02*
D03*
X-321500Y-194000D02*
D03*
X-334250Y-220750D02*
D03*
X-346000Y-208500D02*
D03*
X-356750Y-197750D02*
D03*
X-334000Y-181750D02*
D03*
X-345250Y-171000D02*
D03*
X-355500Y-160500D02*
D03*
X-363250Y-146250D02*
D03*
X-369750Y-185000D02*
D03*
X-381250Y-172750D02*
D03*
X-386250Y-163750D02*
D03*
X-391250Y-151500D02*
D03*
X-394000Y-139250D02*
D03*
X-393750Y-120750D02*
D03*
X-397250Y-108250D02*
D03*
X-408500Y-100000D02*
D03*
X-423500Y-99250D02*
D03*
X-438250Y-97000D02*
D03*
X-366000Y-130750D02*
D03*
Y-117250D02*
D03*
X-367250Y-106000D02*
D03*
X-372250Y-94000D02*
D03*
X-381000Y-84500D02*
D03*
X-389500Y-77500D02*
D03*
X-402000Y-72000D02*
D03*
X-419750Y-71250D02*
D03*
X-438427Y-73250D02*
D03*
X-358500Y-216750D02*
D03*
X-369000Y-206250D02*
D03*
X-378500Y-197000D02*
D03*
X-390750Y-185250D02*
D03*
X-391000Y-224250D02*
D03*
X-403000Y-212250D02*
D03*
X-412750Y-202750D02*
D03*
X-428750Y-183250D02*
D03*
X-410000Y-155500D02*
D03*
X-439250Y-147250D02*
D03*
X-446000Y-134750D02*
D03*
X-428750Y-111000D02*
D03*
X-607500Y-124000D02*
D03*
X-573750Y-129750D02*
D03*
X-581500Y-139750D02*
D03*
X-577250Y-152750D02*
D03*
X-650000Y-71750D02*
D03*
X-710500Y144750D02*
D03*
X-725750Y137250D02*
D03*
X-737000Y124250D02*
D03*
X-741500Y110500D02*
D03*
X-740250Y160000D02*
D03*
X-753000Y148000D02*
D03*
X-759750Y138000D02*
D03*
X-630000Y-98720D02*
D03*
X-650000D02*
D03*
X-670000Y-109970D02*
D03*
X-362500Y-355000D02*
D03*
X-356738Y-366207D02*
D03*
X-347878Y-375067D02*
D03*
X-339018Y-383927D02*
D03*
X-330158Y-392787D02*
D03*
X-321298Y-401647D02*
D03*
X-312438Y-410507D02*
D03*
X-333203Y-428417D02*
D03*
X-342063Y-419557D02*
D03*
X-350923Y-410697D02*
D03*
X-359783Y-401837D02*
D03*
X-368643Y-392977D02*
D03*
X-230584Y-230576D02*
D03*
X-223278Y-240756D02*
D03*
X-247260Y-253587D02*
D03*
X-325000Y-115000D02*
D03*
X-332500D02*
D03*
X-340000D02*
D03*
X-362500Y-57500D02*
D03*
X-372500Y-37500D02*
D03*
X-380000D02*
D03*
X-387500D02*
D03*
X-372500Y-30000D02*
D03*
X-380000D02*
D03*
X-387500D02*
D03*
X-352500Y30000D02*
D03*
X-365000Y57500D02*
D03*
X-300000Y65000D02*
D03*
X-255000Y45000D02*
D03*
Y35000D02*
D03*
Y25000D02*
D03*
Y15000D02*
D03*
Y-45000D02*
D03*
Y-35000D02*
D03*
Y-25000D02*
D03*
Y-15000D02*
D03*
Y-5000D02*
D03*
X-310000Y-65000D02*
D03*
X-290000D02*
D03*
X729189Y187531D02*
D03*
X707500Y190000D02*
D03*
X666734D02*
D03*
X652500D02*
D03*
X629144D02*
D03*
X616614D02*
D03*
X579024D02*
D03*
X541434D02*
D03*
X518874D02*
D03*
X502500D02*
D03*
X380000Y189033D02*
D03*
X275000D02*
D03*
X253244Y190000D02*
D03*
X235000D02*
D03*
X215654D02*
D03*
X190594D02*
D03*
X127944D02*
D03*
X110000D02*
D03*
X65294D02*
D03*
X17500D02*
D03*
X0D02*
D03*
X-20000D02*
D03*
X-40000D02*
D03*
X-67500Y191533D02*
D03*
X-337500D02*
D03*
X-455000D02*
D03*
X-373256Y190000D02*
D03*
X-382500D02*
D03*
X-400000D02*
D03*
X-410000D02*
D03*
X-77500Y173467D02*
D03*
Y146286D02*
D03*
X-100000Y173467D02*
D03*
Y146286D02*
D03*
X-92500Y173467D02*
D03*
Y146286D02*
D03*
X707500Y173467D02*
D03*
Y146286D02*
D03*
X652500Y173467D02*
D03*
Y146286D02*
D03*
X557500Y173467D02*
D03*
Y146286D02*
D03*
X397500Y173467D02*
D03*
Y146286D02*
D03*
X502500Y173467D02*
D03*
Y146286D02*
D03*
X235000Y173467D02*
D03*
Y146286D02*
D03*
X110000Y173467D02*
D03*
Y146286D02*
D03*
X47500Y173467D02*
D03*
Y146286D02*
D03*
X37500Y173467D02*
D03*
Y146286D02*
D03*
X17500Y173467D02*
D03*
Y146286D02*
D03*
X-20000Y173467D02*
D03*
Y146286D02*
D03*
X0Y173467D02*
D03*
Y146286D02*
D03*
X-40000Y173467D02*
D03*
Y146286D02*
D03*
X-220000Y173467D02*
D03*
Y146286D02*
D03*
X-242500Y173467D02*
D03*
Y146286D02*
D03*
X-382500Y173467D02*
D03*
Y146286D02*
D03*
X-400000Y173467D02*
D03*
Y146286D02*
D03*
X-410000Y173467D02*
D03*
Y146286D02*
D03*
X-430000Y173467D02*
D03*
Y146286D02*
D03*
X-480000Y173467D02*
D03*
Y146286D02*
D03*
X-500000Y173467D02*
D03*
Y146286D02*
D03*
X-520000Y173467D02*
D03*
Y146286D02*
D03*
X-540000Y173467D02*
D03*
Y146286D02*
D03*
X-575000Y173467D02*
D03*
Y146286D02*
D03*
X-590000Y173467D02*
D03*
Y146286D02*
D03*
X-560000Y173467D02*
D03*
Y146286D02*
D03*
X-690000Y173467D02*
D03*
Y146286D02*
D03*
X-610000Y173467D02*
D03*
Y146286D02*
D03*
X-630000Y173467D02*
D03*
Y146286D02*
D03*
X-650000Y173467D02*
D03*
Y146286D02*
D03*
X-670000D02*
D03*
Y173467D02*
D03*
X-500000Y182500D02*
D03*
Y195000D02*
D03*
X-520000Y182500D02*
D03*
Y195000D02*
D03*
X-540000Y182500D02*
D03*
Y195000D02*
D03*
X-560000Y182500D02*
D03*
Y195000D02*
D03*
X-575000Y182500D02*
D03*
Y195000D02*
D03*
X-590000Y182500D02*
D03*
Y195000D02*
D03*
X-610000Y182500D02*
D03*
Y195000D02*
D03*
X-630000Y182500D02*
D03*
Y195000D02*
D03*
X-650000Y182500D02*
D03*
Y195000D02*
D03*
X-670000Y182500D02*
D03*
Y195000D02*
D03*
X-690000D02*
D03*
Y182500D02*
D03*
X-757500Y260000D02*
D03*
X-452500Y426750D02*
D03*
X-437500D02*
D03*
X-417500D02*
D03*
X-400000D02*
D03*
X27500Y610000D02*
D03*
X50000Y590000D02*
D03*
X110000D02*
D03*
Y600000D02*
D03*
X107500Y610000D02*
D03*
X100000Y617500D02*
D03*
X295000Y460000D02*
D03*
X270000D02*
D03*
X760000Y485000D02*
D03*
X750000D02*
D03*
X740000D02*
D03*
X750000Y515000D02*
D03*
Y505000D02*
D03*
X760000Y525000D02*
D03*
Y515000D02*
D03*
Y505000D02*
D03*
Y495000D02*
D03*
X750000D02*
D03*
X740000D02*
D03*
X730000D02*
D03*
X732500Y447500D02*
D03*
X722500D02*
D03*
X712500D02*
D03*
X702500D02*
D03*
X692500D02*
D03*
X682500D02*
D03*
X672500D02*
D03*
X662500D02*
D03*
X652500D02*
D03*
X642500D02*
D03*
X632500D02*
D03*
X622500D02*
D03*
X612500D02*
D03*
X602500D02*
D03*
X592500D02*
D03*
X-684000Y-360000D02*
D03*
Y-348000D02*
D03*
X-689000Y-338000D02*
D03*
X-700000D02*
D03*
X-716000D02*
D03*
X-656000Y-359000D02*
D03*
Y-345000D02*
D03*
X-658000Y-334000D02*
D03*
X-663000Y-324000D02*
D03*
X-671000Y-315000D02*
D03*
X-682000Y-309000D02*
D03*
X-655000Y-517500D02*
D03*
Y-507500D02*
D03*
Y-497500D02*
D03*
X-685000Y-517500D02*
D03*
Y-507500D02*
D03*
Y-497500D02*
D03*
X-728254Y-318385D02*
D03*
X-683591Y-372008D02*
D03*
Y-384538D02*
D03*
Y-397068D02*
D03*
Y-409598D02*
D03*
Y-422128D02*
D03*
Y-434658D02*
D03*
Y-447188D02*
D03*
Y-459718D02*
D03*
Y-472248D02*
D03*
Y-484778D02*
D03*
X-656409Y-488529D02*
D03*
Y-475999D02*
D03*
Y-463469D02*
D03*
Y-450939D02*
D03*
Y-438409D02*
D03*
Y-425879D02*
D03*
Y-413349D02*
D03*
Y-400819D02*
D03*
Y-388289D02*
D03*
Y-375759D02*
D03*
X70750Y-140500D02*
D03*
X-19750Y-142750D02*
D03*
X-51750Y-142500D02*
D03*
X-690250Y-179750D02*
D03*
X-726000Y-208250D02*
D03*
X-721750Y-195750D02*
D03*
Y-182000D02*
D03*
X662750Y-201250D02*
D03*
X664750Y-182250D02*
D03*
X664750Y-169750D02*
D03*
X663750Y-157500D02*
D03*
X616750Y-194750D02*
D03*
X622750Y-209500D02*
D03*
X631750Y-188500D02*
D03*
X620000Y-165750D02*
D03*
X620750Y-156250D02*
D03*
X631500Y-173000D02*
D03*
X633709Y-230000D02*
D03*
X632959Y-214270D02*
D03*
X633459Y-144821D02*
D03*
X633250Y-130500D02*
D03*
X661250Y-124250D02*
D03*
X657500Y-106000D02*
D03*
X647750Y-92750D02*
D03*
X637250Y-82500D02*
D03*
X631500Y-116250D02*
D03*
X621750Y-106250D02*
D03*
X600159Y-64071D02*
D03*
X471956Y115191D02*
D03*
X600159Y23639D02*
D03*
X489307Y88009D02*
D03*
X600159Y-51541D02*
D03*
X627341Y53579D02*
D03*
X627333Y66109D02*
D03*
X539427Y88009D02*
D03*
X600159Y-1421D02*
D03*
Y-26481D02*
D03*
X350601Y99435D02*
D03*
X627341Y-21601D02*
D03*
X564487Y88009D02*
D03*
X522076Y115191D02*
D03*
X459426D02*
D03*
X446896D02*
D03*
X451717Y88009D02*
D03*
X600159Y-13951D02*
D03*
X588139Y82240D02*
D03*
X613681Y-97901D02*
D03*
X627341Y15989D02*
D03*
Y3459D02*
D03*
Y41049D02*
D03*
X577884Y115164D02*
D03*
X600159Y36169D02*
D03*
X426657Y88009D02*
D03*
X590233Y113044D02*
D03*
X627341Y-9071D02*
D03*
X484486Y115191D02*
D03*
X434366D02*
D03*
X396776D02*
D03*
X361203Y106113D02*
D03*
X501837Y88009D02*
D03*
X600159Y48699D02*
D03*
X476777Y88009D02*
D03*
X625059Y78431D02*
D03*
X371993Y112484D02*
D03*
X596964Y73345D02*
D03*
X627341Y-46661D02*
D03*
X421836Y115191D02*
D03*
X627341Y28519D02*
D03*
X559666Y115191D02*
D03*
X627341Y-34131D02*
D03*
X601116Y-76564D02*
D03*
X439187Y88009D02*
D03*
X600159Y-39011D02*
D03*
X605738Y-88210D02*
D03*
X401597Y88009D02*
D03*
X414127D02*
D03*
X369658Y60211D02*
D03*
X497016Y115191D02*
D03*
X464247Y88009D02*
D03*
X627341Y-59191D02*
D03*
X600159Y11109D02*
D03*
X409306Y115191D02*
D03*
X310000Y510000D02*
D03*
X220000Y450000D02*
D03*
X190000D02*
D03*
X180000D02*
D03*
X170000D02*
D03*
X244750Y457000D02*
D03*
X247250Y465750D02*
D03*
X249500Y476750D02*
D03*
X256250Y484000D02*
D03*
X254000Y503000D02*
D03*
X219250Y479000D02*
D03*
X228500Y487500D02*
D03*
X237250Y495250D02*
D03*
X26000Y504500D02*
D03*
X20750Y507750D02*
D03*
X-201000Y597750D02*
D03*
X-179250Y447750D02*
D03*
X-201250Y470750D02*
D03*
X-112500Y572500D02*
D03*
X-68000Y-160000D02*
D03*
X-67000Y-120000D02*
D03*
X-650000Y419000D02*
D03*
X-630000D02*
D03*
X-610000D02*
D03*
X-590000D02*
D03*
X730000Y-522000D02*
D03*
X611000D02*
D03*
X-610000D02*
D03*
X-731000Y-521000D02*
D03*
X654000Y-522000D02*
D03*
Y-511000D02*
D03*
Y-499000D02*
D03*
X686000Y-521000D02*
D03*
Y-511000D02*
D03*
Y-499000D02*
D03*
X461000Y-524000D02*
D03*
Y-514000D02*
D03*
Y-502000D02*
D03*
X429000Y-523000D02*
D03*
Y-513000D02*
D03*
Y-501000D02*
D03*
X236000Y-519000D02*
D03*
Y-504000D02*
D03*
X204000Y-519000D02*
D03*
Y-507000D02*
D03*
Y-497000D02*
D03*
X-236000Y-519000D02*
D03*
Y-501000D02*
D03*
X-204000Y-517000D02*
D03*
Y-502000D02*
D03*
X669000Y-244645D02*
D03*
X668750Y-234280D02*
D03*
X669000Y-219650D02*
D03*
X665000Y-192090D02*
D03*
X321000Y-77000D02*
D03*
X307000D02*
D03*
X294000D02*
D03*
X282000D02*
D03*
X-76788Y82247D02*
D03*
X-64886Y86165D02*
D03*
X-39963Y88009D02*
D03*
X-2373D02*
D03*
X22687D02*
D03*
X35217D02*
D03*
X47747D02*
D03*
X72807D02*
D03*
X85337D02*
D03*
X97867D02*
D03*
X110397D02*
D03*
X135457D02*
D03*
X147987D02*
D03*
X160517D02*
D03*
X173047D02*
D03*
X185577D02*
D03*
X285308Y84472D02*
D03*
X288396Y72329D02*
D03*
X312995Y99164D02*
D03*
X302297Y105686D02*
D03*
X291613Y112233D02*
D03*
X279404Y115050D02*
D03*
X254345Y115191D02*
D03*
X216755D02*
D03*
X191695D02*
D03*
X179165D02*
D03*
X166635D02*
D03*
X154105D02*
D03*
X141575D02*
D03*
X129045D02*
D03*
X103985D02*
D03*
X91455D02*
D03*
X78925D02*
D03*
X66395D02*
D03*
X41335D02*
D03*
X28805D02*
D03*
X18025D02*
D03*
X0D02*
D03*
X-21315D02*
D03*
X-58905D02*
D03*
X674168Y-45447D02*
D03*
X669617Y-57121D02*
D03*
X669109Y-69641D02*
D03*
Y-94701D02*
D03*
Y-107231D02*
D03*
X668750Y-119761D02*
D03*
Y-132291D02*
D03*
X668000Y-148321D02*
D03*
X696291Y-148133D02*
D03*
Y-135603D02*
D03*
Y-123073D02*
D03*
Y-110543D02*
D03*
Y-98013D02*
D03*
Y-85483D02*
D03*
Y-72953D02*
D03*
X698262Y-60579D02*
D03*
X-709246Y172827D02*
D03*
X-721418Y169851D02*
D03*
X-764708Y127469D02*
D03*
X-767868Y115344D02*
D03*
X-768791Y102848D02*
D03*
Y90318D02*
D03*
Y77788D02*
D03*
Y65258D02*
D03*
Y52728D02*
D03*
X-768026Y40222D02*
D03*
X-762918Y28780D02*
D03*
X-756021Y18319D02*
D03*
X-717757Y41620D02*
D03*
X-729550Y43103D02*
D03*
X-741539Y46746D02*
D03*
X-741609Y59276D02*
D03*
Y84336D02*
D03*
Y96866D02*
D03*
X-463333Y146286D02*
D03*
X-446667D02*
D03*
X-371729D02*
D03*
X-359199D02*
D03*
X-346669D02*
D03*
X-334139D02*
D03*
X-321609D02*
D03*
X-309079D02*
D03*
X-296549D02*
D03*
X-284019D02*
D03*
X-271489D02*
D03*
X-259709D02*
D03*
X-196309D02*
D03*
X-183779D02*
D03*
X-171249D02*
D03*
X-158719D02*
D03*
X-146189D02*
D03*
X-133659D02*
D03*
X-121129D02*
D03*
X-108599D02*
D03*
X-68509D02*
D03*
X-58479D02*
D03*
X27500D02*
D03*
X66821D02*
D03*
X79351D02*
D03*
X91881D02*
D03*
X129471D02*
D03*
X142001D02*
D03*
X154531D02*
D03*
X167061D02*
D03*
X179591D02*
D03*
X192121D02*
D03*
X217181D02*
D03*
X254771D02*
D03*
X279831D02*
D03*
X292361D02*
D03*
X304891D02*
D03*
X317421D02*
D03*
X329951D02*
D03*
X342481D02*
D03*
X355011D02*
D03*
X367541D02*
D03*
X380071D02*
D03*
X407631D02*
D03*
X417661D02*
D03*
X430191D02*
D03*
X442721D02*
D03*
X455251D02*
D03*
X467781D02*
D03*
X480311D02*
D03*
X492841D02*
D03*
X517901D02*
D03*
X542961D02*
D03*
X568021D02*
D03*
X580551D02*
D03*
X593081D02*
D03*
X605611D02*
D03*
X618141D02*
D03*
X630671D02*
D03*
X643201D02*
D03*
X668261D02*
D03*
X680791D02*
D03*
X693321D02*
D03*
X754660Y88286D02*
D03*
Y75756D02*
D03*
Y63226D02*
D03*
Y50696D02*
D03*
Y38166D02*
D03*
Y25636D02*
D03*
Y13106D02*
D03*
Y576D02*
D03*
Y-11954D02*
D03*
Y-24484D02*
D03*
Y-37014D02*
D03*
Y-49544D02*
D03*
Y-62074D02*
D03*
Y-74604D02*
D03*
Y-87134D02*
D03*
Y-99664D02*
D03*
Y-112194D02*
D03*
Y-124724D02*
D03*
Y-137254D02*
D03*
Y-149784D02*
D03*
X783578Y-168053D02*
D03*
X782604Y-155560D02*
D03*
X781841Y-143054D02*
D03*
Y-130524D02*
D03*
Y-117994D02*
D03*
Y-105464D02*
D03*
Y-92934D02*
D03*
Y-80404D02*
D03*
Y-67874D02*
D03*
Y-55344D02*
D03*
Y-42814D02*
D03*
Y-30284D02*
D03*
Y-17754D02*
D03*
Y-5224D02*
D03*
Y7306D02*
D03*
Y19836D02*
D03*
Y32366D02*
D03*
Y44896D02*
D03*
Y57426D02*
D03*
Y69956D02*
D03*
Y82486D02*
D03*
Y95016D02*
D03*
X781604Y107544D02*
D03*
X779631Y119918D02*
D03*
X775489Y131743D02*
D03*
X729189Y170998D02*
D03*
X699324Y173467D02*
D03*
X691794D02*
D03*
X679264D02*
D03*
X666734D02*
D03*
X641674D02*
D03*
X629144D02*
D03*
X616614D02*
D03*
X604084D02*
D03*
X591554D02*
D03*
X579024D02*
D03*
X566494D02*
D03*
X541434D02*
D03*
X518874D02*
D03*
X491314D02*
D03*
X478784D02*
D03*
X466254D02*
D03*
X453724D02*
D03*
X441194D02*
D03*
X428664D02*
D03*
X416134D02*
D03*
X406104D02*
D03*
X378544D02*
D03*
X366014D02*
D03*
X353484D02*
D03*
X340954D02*
D03*
X328424D02*
D03*
X315894D02*
D03*
X303364D02*
D03*
X290834D02*
D03*
X278304D02*
D03*
X253244D02*
D03*
X215654D02*
D03*
X190594D02*
D03*
X178064D02*
D03*
X165534D02*
D03*
X153004D02*
D03*
X140474D02*
D03*
X127944D02*
D03*
X90354D02*
D03*
X77824D02*
D03*
X65294D02*
D03*
X27500D02*
D03*
X-60006D02*
D03*
X-70036D02*
D03*
X-110126D02*
D03*
X-122656D02*
D03*
X-135186D02*
D03*
X-147716D02*
D03*
X-160246D02*
D03*
X-172776D02*
D03*
X-185306D02*
D03*
X-197836D02*
D03*
X-260486D02*
D03*
X-273016D02*
D03*
X-285546D02*
D03*
X-298076D02*
D03*
X-310606D02*
D03*
X-323136D02*
D03*
X-335666D02*
D03*
X-348196D02*
D03*
X-360726D02*
D03*
X-373256D02*
D03*
X-446667D02*
D03*
X-463333D02*
D03*
X753811Y-179716D02*
D03*
X720058Y-279367D02*
D03*
X732189Y-276229D02*
D03*
X742696Y-269403D02*
D03*
X769337Y-242884D02*
D03*
X777015Y-232982D02*
D03*
X781217Y-221178D02*
D03*
X781844Y-208663D02*
D03*
X782604Y-196156D02*
D03*
X783592Y-183665D02*
D03*
X689539Y-294002D02*
D03*
X696291Y-258781D02*
D03*
Y-246251D02*
D03*
Y-233721D02*
D03*
Y-221191D02*
D03*
X698042Y-183663D02*
D03*
X556636Y-181926D02*
D03*
X556759Y-194455D02*
D03*
X557653Y-206953D02*
D03*
X558512Y-219454D02*
D03*
X562179Y-231435D02*
D03*
X569433Y-241651D02*
D03*
X596002Y-268243D02*
D03*
X606209Y-275510D02*
D03*
X618177Y-279222D02*
D03*
X648143Y-294504D02*
D03*
X638100Y-252409D02*
D03*
X613947Y-247727D02*
D03*
X587515Y-221002D02*
D03*
X587092Y-183663D02*
D03*
X661492Y-306989D02*
D03*
X656409Y-343223D02*
D03*
Y-355752D02*
D03*
X646946Y-378947D02*
D03*
Y-391477D02*
D03*
X690344Y-399750D02*
D03*
X693054Y-387516D02*
D03*
X692874Y-374988D02*
D03*
X683591Y-353641D02*
D03*
X676480Y-306149D02*
D03*
X656409Y-460474D02*
D03*
Y-473004D02*
D03*
Y-485534D02*
D03*
X683591Y-487766D02*
D03*
Y-475236D02*
D03*
Y-462706D02*
D03*
X693054Y-439593D02*
D03*
X693042Y-427063D02*
D03*
X402197Y-318789D02*
D03*
X402508Y-331315D02*
D03*
X412199Y-339257D02*
D03*
X431409Y-362589D02*
D03*
Y-375120D02*
D03*
Y-387649D02*
D03*
Y-400179D02*
D03*
Y-412710D02*
D03*
Y-425239D02*
D03*
Y-437770D02*
D03*
Y-450299D02*
D03*
Y-462830D02*
D03*
Y-475359D02*
D03*
Y-487890D02*
D03*
X458591Y-472872D02*
D03*
Y-460342D02*
D03*
Y-435282D02*
D03*
Y-422752D02*
D03*
Y-397692D02*
D03*
Y-385162D02*
D03*
Y-360102D02*
D03*
X458382Y-347574D02*
D03*
X455299Y-335429D02*
D03*
X448520Y-324891D02*
D03*
X499664Y-350018D02*
D03*
X500395Y-362527D02*
D03*
X504733Y-374282D02*
D03*
X512497Y-384117D02*
D03*
X565657Y-437277D02*
D03*
X575775Y-444668D02*
D03*
X587698Y-448520D02*
D03*
X599869Y-451500D02*
D03*
X598927Y-420157D02*
D03*
X586422Y-419367D02*
D03*
X474139Y-166319D02*
D03*
X542919Y-252656D02*
D03*
X456877Y-187498D02*
D03*
X440630Y-150049D02*
D03*
X444775Y-184252D02*
D03*
X408219Y-150733D02*
D03*
X510038Y-240658D02*
D03*
X540707Y-240323D02*
D03*
X535564Y-228897D02*
D03*
X452137Y-155008D02*
D03*
X464051Y-158888D02*
D03*
X407538Y-185585D02*
D03*
X402197Y-161721D02*
D03*
X420706Y-149696D02*
D03*
X143928Y-89599D02*
D03*
X136514Y-99700D02*
D03*
X130450Y-133409D02*
D03*
X160838Y-125978D02*
D03*
X213313Y-60529D02*
D03*
X500896Y-69047D02*
D03*
X492722Y-90259D02*
D03*
X467848Y-92409D02*
D03*
X455318D02*
D03*
X442788D02*
D03*
X430258D02*
D03*
X417728D02*
D03*
X405198D02*
D03*
X392668D02*
D03*
X380138D02*
D03*
X367608D02*
D03*
X355078D02*
D03*
X342548D02*
D03*
X330018D02*
D03*
X317488D02*
D03*
X304958D02*
D03*
X292428D02*
D03*
X279898D02*
D03*
X267368D02*
D03*
X254847Y-92901D02*
D03*
X242931Y-96774D02*
D03*
X232835Y-104195D02*
D03*
X221224Y-136587D02*
D03*
X251556Y-125740D02*
D03*
X275004Y-119591D02*
D03*
X287534D02*
D03*
X300064D02*
D03*
X312594D02*
D03*
X325124D02*
D03*
X337654D02*
D03*
X350184D02*
D03*
X362714D02*
D03*
X375244D02*
D03*
X387774D02*
D03*
X400304D02*
D03*
X412834D02*
D03*
X425364D02*
D03*
X437894D02*
D03*
X450424D02*
D03*
X462954D02*
D03*
X475484D02*
D03*
X488013Y-119489D02*
D03*
X500256Y-116822D02*
D03*
X511020Y-110407D02*
D03*
X221246Y-142747D02*
D03*
X255854Y-180271D02*
D03*
X251863Y-168393D02*
D03*
X250854Y-155904D02*
D03*
X251843Y-143413D02*
D03*
X184398Y-247033D02*
D03*
X160550Y-252409D02*
D03*
X148020D02*
D03*
X135490D02*
D03*
X151218Y-279591D02*
D03*
X163748D02*
D03*
X176277Y-279480D02*
D03*
X188512Y-276778D02*
D03*
X246136Y-229620D02*
D03*
X86784Y-348789D02*
D03*
X87763Y-361281D02*
D03*
X92413Y-372916D02*
D03*
X100373Y-382593D02*
D03*
X118141Y-400264D02*
D03*
X128612Y-407146D02*
D03*
X140725Y-410350D02*
D03*
X153253Y-410591D02*
D03*
X165783D02*
D03*
X189969Y-415189D02*
D03*
X206409Y-446731D02*
D03*
Y-459261D02*
D03*
Y-471791D02*
D03*
Y-484321D02*
D03*
X233591Y-489042D02*
D03*
Y-476512D02*
D03*
Y-463982D02*
D03*
Y-451452D02*
D03*
Y-438922D02*
D03*
X232221Y-426467D02*
D03*
X227090Y-415036D02*
D03*
X209972Y-396752D02*
D03*
X200243Y-388855D02*
D03*
X188568Y-384307D02*
D03*
X176070Y-383409D02*
D03*
X163540D02*
D03*
X138591Y-381747D02*
D03*
X-233591Y-460474D02*
D03*
Y-473004D02*
D03*
Y-485534D02*
D03*
X-206409Y-487766D02*
D03*
Y-475236D02*
D03*
Y-462706D02*
D03*
X-196946Y-439593D02*
D03*
X-196958Y-427063D02*
D03*
X-233591Y-343223D02*
D03*
Y-355753D02*
D03*
X-243053Y-378947D02*
D03*
Y-391477D02*
D03*
X-199656Y-399750D02*
D03*
X-196946Y-387516D02*
D03*
X-197126Y-374987D02*
D03*
X-206409Y-353641D02*
D03*
X110383Y-230309D02*
D03*
X103266Y-240622D02*
D03*
X155386Y-229620D02*
D03*
X130496Y-144747D02*
D03*
X165104Y-180271D02*
D03*
X161113Y-168393D02*
D03*
X160104Y-155904D02*
D03*
X161092Y-143413D02*
D03*
X39746Y-142747D02*
D03*
X40446Y-155258D02*
D03*
X40427Y-167788D02*
D03*
X74354Y-180271D02*
D03*
X43039Y-72181D02*
D03*
X41409Y-84604D02*
D03*
Y-97134D02*
D03*
Y-109664D02*
D03*
X40647Y-122171D02*
D03*
X39646Y-134661D02*
D03*
X68591Y-102654D02*
D03*
X70094Y-77685D02*
D03*
X88313Y-60579D02*
D03*
X35647Y-210879D02*
D03*
X36557Y-223375D02*
D03*
X47371Y-229703D02*
D03*
X100674Y-250640D02*
D03*
X96568Y-238802D02*
D03*
X88935Y-228865D02*
D03*
X-54778Y-221824D02*
D03*
X-45008Y-229669D02*
D03*
X12589Y-276924D02*
D03*
X24850Y-279510D02*
D03*
X37380Y-279591D02*
D03*
X49910D02*
D03*
X64589Y-252409D02*
D03*
X52059D02*
D03*
X39529D02*
D03*
X15905Y-246585D02*
D03*
X-49341Y-106176D02*
D03*
X-22159Y-106441D02*
D03*
X-21397Y-81404D02*
D03*
X-20408Y-68913D02*
D03*
X-106556Y-68639D02*
D03*
X-105648Y-81136D02*
D03*
X-104954Y-93647D02*
D03*
X-104841Y-106176D02*
D03*
X-106604Y-131173D02*
D03*
X-75897Y-131438D02*
D03*
X-77659Y-106441D02*
D03*
X-379093Y-320276D02*
D03*
X-390336Y-350018D02*
D03*
X-389605Y-362527D02*
D03*
X-385267Y-374282D02*
D03*
X-377503Y-384117D02*
D03*
X-324343Y-437277D02*
D03*
X-314225Y-444668D02*
D03*
X-302302Y-448520D02*
D03*
X-290131Y-451500D02*
D03*
X-291073Y-420157D02*
D03*
X-303578Y-419367D02*
D03*
X-106373Y-141746D02*
D03*
X-104841Y-179294D02*
D03*
X-155942Y-246722D02*
D03*
X-175634Y-279591D02*
D03*
X-163106Y-279380D02*
D03*
X-150963Y-277041D02*
D03*
X-87305Y-216312D02*
D03*
X-80700Y-205664D02*
D03*
X-77817Y-193470D02*
D03*
X-77659Y-180941D02*
D03*
X-77656Y-168411D02*
D03*
X-75908Y-143413D02*
D03*
X-214848Y-59130D02*
D03*
X-219727Y-70672D02*
D03*
X-220891Y-83147D02*
D03*
Y-95677D02*
D03*
Y-108208D02*
D03*
X-221653Y-120714D02*
D03*
X-193709Y-104276D02*
D03*
Y-91746D02*
D03*
X-193637Y-79217D02*
D03*
X-177437Y-60579D02*
D03*
X-222659Y-137532D02*
D03*
X-222654Y-149903D02*
D03*
X-221653Y-162393D02*
D03*
X-220891Y-174900D02*
D03*
Y-187430D02*
D03*
Y-199960D02*
D03*
Y-212489D02*
D03*
Y-225019D02*
D03*
Y-250079D02*
D03*
X-193709Y-256121D02*
D03*
Y-243591D02*
D03*
Y-231061D02*
D03*
Y-218531D02*
D03*
Y-206001D02*
D03*
Y-193471D02*
D03*
Y-180941D02*
D03*
X-191958Y-143413D02*
D03*
X-476141Y-101809D02*
D03*
X-488671D02*
D03*
X-501201D02*
D03*
X-588140Y-106799D02*
D03*
X-608302Y-137031D02*
D03*
X-607696Y-149546D02*
D03*
X-584478Y-177442D02*
D03*
X-575093Y-185745D02*
D03*
X-537993Y-183363D02*
D03*
X-535197Y-171150D02*
D03*
X-544139Y-149682D02*
D03*
X-553308Y-128991D02*
D03*
X-540778D02*
D03*
X-528248D02*
D03*
X-515718D02*
D03*
X-503188D02*
D03*
X-490658D02*
D03*
X-478128D02*
D03*
X-465598D02*
D03*
X-437286Y-160635D02*
D03*
X-433865Y-172689D02*
D03*
X-420616Y-193839D02*
D03*
X-376729Y-238540D02*
D03*
X-346478Y-254114D02*
D03*
X-348071Y-241685D02*
D03*
X-350951Y-229491D02*
D03*
X-401601Y-174292D02*
D03*
X-412250Y-138987D02*
D03*
X-416273Y-127121D02*
D03*
X-444447Y-103644D02*
D03*
X-456843Y-101815D02*
D03*
X-526561Y-61096D02*
D03*
X-533300Y-71659D02*
D03*
X-545830D02*
D03*
X-558360D02*
D03*
X-570890D02*
D03*
X-583420D02*
D03*
X-608480D02*
D03*
X-633290D02*
D03*
X-670672Y-75283D02*
D03*
X-707665Y-108844D02*
D03*
X-715145Y-118897D02*
D03*
X-719060Y-130800D02*
D03*
X-719591Y-143318D02*
D03*
X-720354Y-155825D02*
D03*
X-721354Y-168315D02*
D03*
X-690646Y-165129D02*
D03*
X-688581Y-128201D02*
D03*
X-612138Y-98841D02*
D03*
X-587078D02*
D03*
X-574548D02*
D03*
X-562018D02*
D03*
X-549488D02*
D03*
X-536958D02*
D03*
X-524429Y-99023D02*
D03*
X-511999Y-100604D02*
D03*
X-756600Y-19486D02*
D03*
X-763617Y-29867D02*
D03*
X-768274Y-41499D02*
D03*
X-768791Y-54018D02*
D03*
Y-66548D02*
D03*
Y-79078D02*
D03*
Y-91608D02*
D03*
Y-104138D02*
D03*
Y-116668D02*
D03*
Y-129198D02*
D03*
Y-141728D02*
D03*
X-770554Y-166725D02*
D03*
X-770461Y-178867D02*
D03*
X-740094Y-178986D02*
D03*
X-739846Y-166884D02*
D03*
X-740846Y-154395D02*
D03*
X-741609Y-141888D02*
D03*
Y-129358D02*
D03*
Y-116828D02*
D03*
Y-104298D02*
D03*
Y-91768D02*
D03*
Y-79238D02*
D03*
Y-66708D02*
D03*
Y-54178D02*
D03*
X-738207Y-42119D02*
D03*
X-725713Y-43066D02*
D03*
X-122000Y131000D02*
D03*
X-176000Y133000D02*
D03*
X-294000Y131000D02*
D03*
X-325000D02*
D03*
X-358000Y126000D02*
D03*
X47500Y425000D02*
D03*
X40000Y430000D02*
D03*
X35000Y437500D02*
D03*
Y447500D02*
D03*
X150000Y449500D02*
D03*
X157500D02*
D03*
X-570000Y435000D02*
D03*
X-450000Y532500D02*
D03*
X-587500Y-220000D02*
D03*
X595000Y-320000D02*
D03*
Y-332500D02*
D03*
X582500Y-337500D02*
D03*
X575000Y-327500D02*
D03*
X432500Y-272500D02*
D03*
X430000Y-297500D02*
D03*
X457500Y-282500D02*
D03*
X447500Y-280000D02*
D03*
X302500Y-270000D02*
D03*
X282500Y-260000D02*
D03*
X-425000Y-257500D02*
D03*
X-427500Y-242500D02*
D03*
X-440000D02*
D03*
X-202500Y70000D02*
D03*
X-77500Y75000D02*
D03*
X-87500Y70000D02*
D03*
X695000Y60000D02*
D03*
X680000D02*
D03*
X742500Y42500D02*
D03*
Y52500D02*
D03*
X642500Y22500D02*
D03*
Y32500D02*
D03*
Y42500D02*
D03*
X487500Y20000D02*
D03*
Y30000D02*
D03*
X127500Y37500D02*
D03*
X152500D02*
D03*
X165000Y50000D02*
D03*
X182500D02*
D03*
X402500Y7500D02*
D03*
Y17500D02*
D03*
Y27500D02*
D03*
Y-2500D02*
D03*
Y-15000D02*
D03*
Y60000D02*
D03*
Y70000D02*
D03*
Y80000D02*
D03*
Y50000D02*
D03*
Y37500D02*
D03*
X380000Y60000D02*
D03*
Y70000D02*
D03*
Y80000D02*
D03*
Y50000D02*
D03*
Y37500D02*
D03*
X277500Y80000D02*
D03*
X235000Y60000D02*
D03*
X215000D02*
D03*
X195000D02*
D03*
Y72500D02*
D03*
Y82500D02*
D03*
X215000Y72500D02*
D03*
Y82500D02*
D03*
X235000Y72500D02*
D03*
Y82500D02*
D03*
X255000Y72500D02*
D03*
Y82500D02*
D03*
X290000Y-32500D02*
D03*
X297071Y-39571D02*
D03*
X290000Y47500D02*
D03*
Y37500D02*
D03*
Y27500D02*
D03*
X270429Y-45429D02*
D03*
X277500Y-52500D02*
D03*
X284571Y-59571D02*
D03*
X255429Y-57929D02*
D03*
X262500Y-65000D02*
D03*
X269571Y-72071D02*
D03*
X250000Y-17500D02*
D03*
Y-27500D02*
D03*
Y-37500D02*
D03*
Y17500D02*
D03*
Y7500D02*
D03*
Y-2500D02*
D03*
X270000Y-22500D02*
D03*
Y-32500D02*
D03*
Y10000D02*
D03*
Y0D02*
D03*
Y-10000D02*
D03*
Y42500D02*
D03*
Y32500D02*
D03*
Y22500D02*
D03*
X730000Y80000D02*
D03*
Y70000D02*
D03*
Y60000D02*
D03*
Y110000D02*
D03*
Y100000D02*
D03*
Y90000D02*
D03*
Y130000D02*
D03*
Y120000D02*
D03*
X702500Y85000D02*
D03*
Y75000D02*
D03*
Y65000D02*
D03*
Y115000D02*
D03*
Y105000D02*
D03*
Y95000D02*
D03*
Y135000D02*
D03*
Y125000D02*
D03*
X645000Y55000D02*
D03*
X675000Y65000D02*
D03*
Y75000D02*
D03*
Y85000D02*
D03*
Y95000D02*
D03*
Y105000D02*
D03*
Y115000D02*
D03*
Y125000D02*
D03*
Y135000D02*
D03*
X645000Y65000D02*
D03*
Y75000D02*
D03*
Y85000D02*
D03*
Y95000D02*
D03*
Y105000D02*
D03*
Y115000D02*
D03*
Y125000D02*
D03*
Y135000D02*
D03*
X495000Y42500D02*
D03*
Y55000D02*
D03*
X562500Y75000D02*
D03*
X520000D02*
D03*
X495000D02*
D03*
Y65000D02*
D03*
Y135500D02*
D03*
Y125500D02*
D03*
X562500Y135500D02*
D03*
Y125500D02*
D03*
X540000Y135500D02*
D03*
Y125500D02*
D03*
X520000Y135500D02*
D03*
Y125500D02*
D03*
X402500Y134500D02*
D03*
Y124500D02*
D03*
X380000Y134500D02*
D03*
Y124500D02*
D03*
X277500Y134500D02*
D03*
Y124500D02*
D03*
X255000Y134500D02*
D03*
Y124500D02*
D03*
X235000Y134500D02*
D03*
Y124500D02*
D03*
X195000Y134500D02*
D03*
Y124500D02*
D03*
X215000Y134500D02*
D03*
Y124500D02*
D03*
X287500Y61750D02*
D03*
X280000Y68750D02*
D03*
X263750Y59000D02*
D03*
X249500Y34750D02*
D03*
X125000Y450000D02*
D03*
X36250Y565750D02*
D03*
X41500Y572750D02*
D03*
X46750Y577000D02*
D03*
X53250Y582250D02*
D03*
X108000Y581250D02*
D03*
X115000Y568250D02*
D03*
X109500Y574000D02*
D03*
X-530000Y-229200D02*
D03*
Y-209200D02*
D03*
X-510000D02*
D03*
Y-229200D02*
D03*
X-490000D02*
D03*
Y-209200D02*
D03*
X-530000Y-198400D02*
D03*
Y-178400D02*
D03*
Y-158400D02*
D03*
X-510000D02*
D03*
Y-178400D02*
D03*
Y-198400D02*
D03*
X-490000D02*
D03*
Y-178400D02*
D03*
Y-158400D02*
D03*
X500000Y-300000D02*
D03*
X520000D02*
D03*
X540000D02*
D03*
X500000Y-280000D02*
D03*
X520000D02*
D03*
X535000D02*
D03*
X500000Y-320000D02*
D03*
X520000D02*
D03*
X540000D02*
D03*
X670000Y-258550D02*
D03*
X100375D02*
D03*
X-220000Y-258000D02*
D03*
X-429750Y-516500D02*
D03*
Y-500500D02*
D03*
X-459750Y-520000D02*
D03*
X-460000Y-503250D02*
D03*
X-581500Y-343750D02*
D03*
X-581000Y-357250D02*
D03*
X-573000Y-368000D02*
D03*
X-602250Y-320500D02*
D03*
X-606750Y-330000D02*
D03*
X-608500Y-343000D02*
D03*
X-608250Y-355250D02*
D03*
X-605500Y-369750D02*
D03*
X-589250Y-390250D02*
D03*
X-468750Y-431000D02*
D03*
X-477500Y-422250D02*
D03*
X-485500Y-414250D02*
D03*
X-495000Y-409000D02*
D03*
X-450000Y-411500D02*
D03*
X-458250Y-403250D02*
D03*
X-598578Y-380891D02*
D03*
X-580887Y-398640D02*
D03*
X-558312Y-408747D02*
D03*
X-545785Y-408991D02*
D03*
X-533255D02*
D03*
X-520725D02*
D03*
X-508195D02*
D03*
X-459131Y-442612D02*
D03*
X-458591Y-455131D02*
D03*
Y-467661D02*
D03*
Y-480191D02*
D03*
X-431409Y-483486D02*
D03*
Y-470956D02*
D03*
Y-458426D02*
D03*
X-431386Y-445896D02*
D03*
X-433457Y-433538D02*
D03*
X-439277Y-422442D02*
D03*
X-465733Y-395740D02*
D03*
X-475337Y-387692D02*
D03*
X-486915Y-382902D02*
D03*
X-499398Y-381809D02*
D03*
X-511928D02*
D03*
X-524458D02*
D03*
X-536988D02*
D03*
X-561774Y-379206D02*
D03*
X-551257Y-339103D02*
D03*
X310000Y487500D02*
D03*
X302500Y495000D02*
D03*
X295000Y502500D02*
D03*
X237500Y517500D02*
D03*
Y525000D02*
D03*
X-640000Y574750D02*
D03*
X-577750Y562900D02*
D03*
X-638750Y490400D02*
D03*
X-577750Y472900D02*
D03*
X-245000Y-422500D02*
D03*
Y-435000D02*
D03*
Y-410000D02*
D03*
X-680000Y-300000D02*
D03*
X-730000Y-270000D02*
D03*
X-400000Y-160000D02*
D03*
X-410000Y-110000D02*
D03*
X-380000Y-70000D02*
D03*
X-430000Y-60000D02*
D03*
Y-40000D02*
D03*
Y-20000D02*
D03*
Y0D02*
D03*
Y20000D02*
D03*
X400000Y-280000D02*
D03*
Y-260000D02*
D03*
Y-240000D02*
D03*
Y-220000D02*
D03*
Y-200000D02*
D03*
Y-180000D02*
D03*
X360000Y-280000D02*
D03*
Y-260000D02*
D03*
Y-240000D02*
D03*
Y-220000D02*
D03*
Y-200000D02*
D03*
Y-180000D02*
D03*
X700000Y-300000D02*
D03*
X680000D02*
D03*
X660000D02*
D03*
X640000D02*
D03*
X645000Y-437500D02*
D03*
Y-425000D02*
D03*
Y-412500D02*
D03*
X-225000Y420000D02*
D03*
X-242500Y410000D02*
D03*
X-262500D02*
D03*
X-282500D02*
D03*
X-302500D02*
D03*
X-322500D02*
D03*
X-480000D02*
D03*
X-460000D02*
D03*
X-440000D02*
D03*
X-420000D02*
D03*
X-400000D02*
D03*
X-380000D02*
D03*
X-360000D02*
D03*
X-450000Y485000D02*
D03*
X-716000Y504000D02*
D03*
X-751000D02*
D03*
X-773000Y446000D02*
D03*
X-733000Y504000D02*
D03*
X-670000Y494000D02*
D03*
X-691000Y501750D02*
D03*
X-572000Y423000D02*
D03*
X-396750Y536000D02*
D03*
X-415000Y544000D02*
D03*
X-408500Y621000D02*
D03*
X-527500Y602500D02*
D03*
X-695000Y430000D02*
D03*
X-705000D02*
D03*
X-727500Y427500D02*
D03*
Y435000D02*
D03*
Y442500D02*
D03*
Y457500D02*
D03*
Y465000D02*
D03*
X-759750Y473489D02*
D03*
Y491489D02*
D03*
X-687500Y586500D02*
D03*
X-670000D02*
D03*
X-622500Y600000D02*
D03*
X-620000Y611750D02*
D03*
X-602500D02*
D03*
X-605000Y600000D02*
D03*
X-585000D02*
D03*
X-582500Y611750D02*
D03*
X-482500Y570000D02*
D03*
X-500000D02*
D03*
X-520000D02*
D03*
X-500000Y558000D02*
D03*
X-520000D02*
D03*
X-500000Y546500D02*
D03*
X-520000D02*
D03*
X-500000Y500000D02*
D03*
Y520000D02*
D03*
X-520000Y490000D02*
D03*
Y510000D02*
D03*
Y530000D02*
D03*
X-500000Y582250D02*
D03*
X-520000D02*
D03*
X-530000Y430000D02*
D03*
X-45000Y472500D02*
D03*
X-55000Y482500D02*
D03*
X-62500Y495000D02*
D03*
X-125000Y540000D02*
D03*
X-120000Y595000D02*
D03*
X-77500Y570000D02*
D03*
X-90000Y522500D02*
D03*
X-30000Y605000D02*
D03*
X45000Y597500D02*
D03*
X35000Y607500D02*
D03*
X157500Y632500D02*
D03*
X172500Y615000D02*
D03*
X-357500Y485000D02*
D03*
X-362500Y475000D02*
D03*
X-347500D02*
D03*
X-317500Y471750D02*
D03*
X-60000Y447500D02*
D03*
X-80000D02*
D03*
X-100000D02*
D03*
X-120000D02*
D03*
X-140000D02*
D03*
X-170000Y457500D02*
D03*
X-122500Y510000D02*
D03*
X-137500Y505000D02*
D03*
X-152500Y500000D02*
D03*
X-168750Y495750D02*
D03*
X-182500Y490000D02*
D03*
X-192500Y480000D02*
D03*
X-180000Y525000D02*
D03*
X-170000D02*
D03*
X-200000Y565000D02*
D03*
X-206250Y570000D02*
D03*
X-200000Y585000D02*
D03*
X-193750Y593250D02*
D03*
X-206250Y580000D02*
D03*
X-240000D02*
D03*
X-7500Y505000D02*
D03*
Y495000D02*
D03*
X-17500Y505000D02*
D03*
X-25000Y512500D02*
D03*
X-17500Y490000D02*
D03*
X-25000Y497500D02*
D03*
X-32500Y505000D02*
D03*
X-40000Y512500D02*
D03*
X-760000Y582500D02*
D03*
X-775500Y530000D02*
D03*
Y545000D02*
D03*
X-670000Y440000D02*
D03*
Y455000D02*
D03*
X-710000Y263000D02*
D03*
X0Y230000D02*
D03*
Y215000D02*
D03*
X-20000D02*
D03*
X690000Y280000D02*
D03*
X705000Y270000D02*
D03*
X708250Y256050D02*
D03*
X605000Y240000D02*
D03*
X620000D02*
D03*
Y225000D02*
D03*
X605000D02*
D03*
X620000Y210000D02*
D03*
X605000D02*
D03*
X590000D02*
D03*
Y225000D02*
D03*
Y240000D02*
D03*
X160000D02*
D03*
Y225000D02*
D03*
Y210000D02*
D03*
X145000D02*
D03*
Y225000D02*
D03*
Y240000D02*
D03*
X130000Y210000D02*
D03*
Y225000D02*
D03*
Y240000D02*
D03*
X372500Y585000D02*
D03*
Y545000D02*
D03*
Y555000D02*
D03*
Y565000D02*
D03*
Y575000D02*
D03*
X350000Y455000D02*
D03*
Y470000D02*
D03*
Y485000D02*
D03*
X260000Y570000D02*
D03*
Y580000D02*
D03*
X310000Y560000D02*
D03*
Y570000D02*
D03*
X305000Y520000D02*
D03*
Y530000D02*
D03*
X345000D02*
D03*
Y510000D02*
D03*
Y520000D02*
D03*
X295000Y470000D02*
D03*
X270000D02*
D03*
X205000Y465000D02*
D03*
X137500Y462500D02*
D03*
X145000Y465000D02*
D03*
X190000D02*
D03*
X175000D02*
D03*
X160000D02*
D03*
X200000Y495000D02*
D03*
X190000D02*
D03*
X180000D02*
D03*
X170000D02*
D03*
X160000D02*
D03*
X150000D02*
D03*
X140000D02*
D03*
X-600000Y525000D02*
D03*
Y515000D02*
D03*
X-610000Y505000D02*
D03*
X-600000D02*
D03*
X-590000D02*
D03*
X-765000Y417500D02*
D03*
X-750000D02*
D03*
X-737500D02*
D03*
X-725000D02*
D03*
X-670000Y567500D02*
D03*
Y522500D02*
D03*
Y532500D02*
D03*
Y545000D02*
D03*
Y555000D02*
D03*
X-692500Y530000D02*
D03*
X-702500D02*
D03*
X-692500Y520000D02*
D03*
X-702500D02*
D03*
X-730000Y517500D02*
D03*
Y525000D02*
D03*
Y532500D02*
D03*
Y547500D02*
D03*
Y555000D02*
D03*
X-735000Y310000D02*
D03*
X-750000D02*
D03*
X-765000D02*
D03*
Y325000D02*
D03*
Y340000D02*
D03*
X-60000Y77500D02*
D03*
X-167500Y52500D02*
D03*
X-185000D02*
D03*
X-197500D02*
D03*
X-210000D02*
D03*
X-222500Y82500D02*
D03*
X-242500D02*
D03*
X-262500D02*
D03*
X127500Y57500D02*
D03*
Y72100D02*
D03*
X103750Y57500D02*
D03*
X55000Y37500D02*
D03*
X63750Y57500D02*
D03*
X45000Y55000D02*
D03*
Y65000D02*
D03*
Y77500D02*
D03*
X22500Y80000D02*
D03*
X0D02*
D03*
X-20000D02*
D03*
X-40000D02*
D03*
X127500Y134500D02*
D03*
Y124500D02*
D03*
X107500Y134500D02*
D03*
Y124500D02*
D03*
X65000Y134500D02*
D03*
Y124500D02*
D03*
X45000Y134500D02*
D03*
Y124500D02*
D03*
X22500Y134500D02*
D03*
Y124500D02*
D03*
X0Y134500D02*
D03*
Y124500D02*
D03*
X-20000Y134500D02*
D03*
Y124500D02*
D03*
X-40000Y134500D02*
D03*
Y124500D02*
D03*
X-75000Y134500D02*
D03*
Y124500D02*
D03*
X-94336Y134500D02*
D03*
Y124500D02*
D03*
X-200000Y134500D02*
D03*
Y124500D02*
D03*
X-242500Y134500D02*
D03*
Y124500D02*
D03*
X-262500D02*
D03*
Y134500D02*
D03*
X290000Y-280000D02*
D03*
X270000D02*
D03*
X250000D02*
D03*
X235000D02*
D03*
X215000D02*
D03*
X195000D02*
D03*
X-10000D02*
D03*
X-75000D02*
D03*
X-30000D02*
D03*
X-50000D02*
D03*
X-140000D02*
D03*
X-95000D02*
D03*
X-115000D02*
D03*
X300000Y-300000D02*
D03*
X350000D02*
D03*
X370000D02*
D03*
X390000D02*
D03*
X410000D02*
D03*
X200000D02*
D03*
X220000D02*
D03*
X240000D02*
D03*
X260000D02*
D03*
X280000D02*
D03*
X95000D02*
D03*
X115000D02*
D03*
X135000D02*
D03*
X155000D02*
D03*
X175000D02*
D03*
X-10000D02*
D03*
X10000D02*
D03*
X30000D02*
D03*
X50000D02*
D03*
X70000D02*
D03*
X-115000D02*
D03*
X-95000D02*
D03*
X-75000D02*
D03*
X-55000D02*
D03*
X-35000D02*
D03*
X-140000D02*
D03*
X-160000D02*
D03*
X-180000D02*
D03*
X-200000D02*
D03*
X-220000D02*
D03*
X-245000D02*
D03*
X-270000D02*
D03*
X-290000D02*
D03*
Y-280000D02*
D03*
X-310000D02*
D03*
X-335000D02*
D03*
X-445000D02*
D03*
Y-260000D02*
D03*
X-350000Y-320000D02*
D03*
X-370000D02*
D03*
X-390000D02*
D03*
X-355000Y-280000D02*
D03*
X-370000D02*
D03*
X-390000D02*
D03*
X-350000Y-300000D02*
D03*
X-370000D02*
D03*
X-390000D02*
D03*
X-435000D02*
D03*
X-685000Y-277500D02*
D03*
X-615000Y-260000D02*
D03*
X-650000Y-285000D02*
D03*
X-665000Y-270000D02*
D03*
X-490000Y-260000D02*
D03*
Y-280000D02*
D03*
Y-300000D02*
D03*
X-510000D02*
D03*
Y-280000D02*
D03*
Y-260000D02*
D03*
X-530000D02*
D03*
Y-280000D02*
D03*
Y-300000D02*
D03*
X-620000Y-280000D02*
D03*
X-630000Y-300000D02*
D03*
X-600000D02*
D03*
Y-280000D02*
D03*
Y-260000D02*
D03*
X-650000Y230000D02*
D03*
Y250000D02*
D03*
X-630000Y210000D02*
D03*
Y230000D02*
D03*
Y250000D02*
D03*
X-590000Y210000D02*
D03*
Y230000D02*
D03*
Y250000D02*
D03*
X-610000D02*
D03*
Y230000D02*
D03*
Y210000D02*
D03*
X-380000Y70000D02*
D03*
Y90000D02*
D03*
Y110000D02*
D03*
Y130000D02*
D03*
X-410000Y95000D02*
D03*
Y80000D02*
D03*
X-430000Y60000D02*
D03*
X-420000Y70000D02*
D03*
X-435000Y95000D02*
D03*
X-450000Y80000D02*
D03*
Y60000D02*
D03*
X-430000Y110000D02*
D03*
X-410000D02*
D03*
X-430000Y130000D02*
D03*
X-410000D02*
D03*
X-480000Y90000D02*
D03*
Y110000D02*
D03*
Y130000D02*
D03*
X-560000Y30000D02*
D03*
X-580000Y0D02*
D03*
X-560000D02*
D03*
Y-20000D02*
D03*
X-580000D02*
D03*
Y20000D02*
D03*
X-560000Y50000D02*
D03*
X-540000D02*
D03*
X-520000D02*
D03*
Y70000D02*
D03*
X-500000D02*
D03*
X-520000Y90000D02*
D03*
X-500000D02*
D03*
X-520000Y110000D02*
D03*
X-500000D02*
D03*
X-520000Y130000D02*
D03*
X-500000D02*
D03*
X-560000Y70000D02*
D03*
X-540000D02*
D03*
X-560000Y90000D02*
D03*
X-540000D02*
D03*
X-560000Y110000D02*
D03*
X-540000D02*
D03*
X-560000Y130000D02*
D03*
X-540000D02*
D03*
X-610000Y-230000D02*
D03*
X-630000Y-250000D02*
D03*
Y-230000D02*
D03*
X-650000Y-250000D02*
D03*
Y-230000D02*
D03*
X-670000Y-250000D02*
D03*
Y-230000D02*
D03*
X-590000Y-210000D02*
D03*
Y-190000D02*
D03*
X-610000Y-210000D02*
D03*
Y-190000D02*
D03*
Y-170000D02*
D03*
X-630000Y-210000D02*
D03*
X-650000D02*
D03*
X-670000D02*
D03*
X-690000D02*
D03*
X-630000Y-190000D02*
D03*
X-650000D02*
D03*
X-670000D02*
D03*
X-630000Y-170000D02*
D03*
X-650000D02*
D03*
X-670000D02*
D03*
X-630000Y-150000D02*
D03*
X-650000D02*
D03*
X-670000D02*
D03*
X-630000Y-130000D02*
D03*
X-650000D02*
D03*
X-670000D02*
D03*
X-650000Y-110000D02*
D03*
X-630000D02*
D03*
X-710000Y-100000D02*
D03*
X-610000Y-110000D02*
D03*
X-690000Y-80000D02*
D03*
Y-60000D02*
D03*
X-670000D02*
D03*
X-650000D02*
D03*
X-630000D02*
D03*
X-610000D02*
D03*
X-590000D02*
D03*
X-710000Y-40000D02*
D03*
X-690000D02*
D03*
X-650000D02*
D03*
X-630000D02*
D03*
X-610000D02*
D03*
X-590000D02*
D03*
X-710000Y70000D02*
D03*
X-690000D02*
D03*
X-670000D02*
D03*
X-650000D02*
D03*
X-630000D02*
D03*
X-610000D02*
D03*
X-590000D02*
D03*
X-710000Y90000D02*
D03*
X-690000D02*
D03*
X-670000D02*
D03*
X-650000D02*
D03*
X-630000D02*
D03*
X-610000D02*
D03*
X-590000D02*
D03*
X-710000Y110000D02*
D03*
X-690000D02*
D03*
X-670000D02*
D03*
X-650000D02*
D03*
X-630000D02*
D03*
X-610000D02*
D03*
X-590000D02*
D03*
Y130000D02*
D03*
X-610000D02*
D03*
X-630000D02*
D03*
X-650000D02*
D03*
X-670000D02*
D03*
X-690000D02*
D03*
X-710000D02*
D03*
X245776Y-197900D02*
D03*
X227225D02*
D03*
X-26475D02*
D03*
X-45025D02*
D03*
X155025D02*
D03*
X136475D02*
D03*
X64275D02*
D03*
X45725D02*
D03*
X-423250Y514197D02*
D03*
X-430750D02*
D03*
X-438250D02*
D03*
X-427000Y519500D02*
D03*
X0Y44000D02*
D03*
Y35000D02*
D03*
X-94336Y112651D02*
D03*
X-94338Y90551D02*
D03*
X-262000Y469000D02*
D03*
X-392000Y489500D02*
D03*
X-432000Y449500D02*
D03*
X-422000Y459500D02*
D03*
Y449500D02*
D03*
X-412000D02*
D03*
X-402000D02*
D03*
X-392000D02*
D03*
X-412000Y459500D02*
D03*
X-402000D02*
D03*
X-392000D02*
D03*
Y469500D02*
D03*
X-402000D02*
D03*
X-412000D02*
D03*
Y479500D02*
D03*
X-402000D02*
D03*
X-392000D02*
D03*
X37750Y214600D02*
D03*
Y235600D02*
D03*
X-60587Y242500D02*
D03*
X-107000Y209500D02*
D03*
X-114500D02*
D03*
X-107000Y242000D02*
D03*
X-114500D02*
D03*
X-260250Y214600D02*
D03*
Y235600D02*
D03*
X-412250Y214600D02*
D03*
Y235600D02*
D03*
X-360587Y238600D02*
D03*
X-666587D02*
D03*
X-516587D02*
D03*
X-434500Y519500D02*
D03*
X-442000D02*
D03*
X62503Y516347D02*
D03*
X72503D02*
D03*
X82503D02*
D03*
Y506347D02*
D03*
Y496347D02*
D03*
X72503D02*
D03*
X62503D02*
D03*
Y506347D02*
D03*
X72503D02*
D03*
X-235000Y495000D02*
D03*
X-244250D02*
D03*
X-235000Y505000D02*
D03*
X-244250D02*
D03*
X-235000Y515000D02*
D03*
X-244250D02*
D03*
X-235000Y525000D02*
D03*
X-245000D02*
D03*
X708000Y0D02*
D03*
X698000D02*
D03*
X223000D02*
D03*
X213000D02*
D03*
X98000D02*
D03*
X88000D02*
D03*
X-168000Y-1000D02*
D03*
X-178000D02*
D03*
X-312540Y9876D02*
D03*
X-322540D02*
D03*
X-332540D02*
D03*
X-312540Y-124D02*
D03*
X-322540D02*
D03*
X-332540D02*
D03*
X-312540Y-10123D02*
D03*
X-322540D02*
D03*
X-332540D02*
D03*
X17503Y567597D02*
D03*
X-12497Y547597D02*
D03*
X-17497Y552597D02*
D03*
X-22497Y557597D02*
D03*
X-27497Y562597D02*
D03*
X-32497Y567597D02*
D03*
X22503Y572597D02*
D03*
X2503Y552597D02*
D03*
X-7497Y542597D02*
D03*
X-2497Y547597D02*
D03*
X27503Y577597D02*
D03*
X22503Y582597D02*
D03*
X17503Y587597D02*
D03*
X12503Y592597D02*
D03*
X7503Y597597D02*
D03*
X2503Y602597D02*
D03*
X-7497D02*
D03*
X-2497Y607597D02*
D03*
X-22497Y587597D02*
D03*
X-17497Y592597D02*
D03*
X-12497Y597597D02*
D03*
X-37497Y572597D02*
D03*
X-32497Y577597D02*
D03*
X-27497Y582597D02*
D03*
X-45090Y450090D02*
D03*
X-50393Y455393D02*
D03*
X-55697Y460697D02*
D03*
X-60467Y465967D02*
D03*
X-65770Y471270D02*
D03*
X-71073Y476573D02*
D03*
X-76377Y481877D02*
D03*
X-81680Y487180D02*
D03*
X-86983Y492483D02*
D03*
X-92287Y497787D02*
D03*
X-97590Y503090D02*
D03*
X-102893Y508393D02*
D03*
X-108197Y513697D02*
D03*
X-113500Y519000D02*
D03*
X-121000Y523000D02*
D03*
X-128500D02*
D03*
X-136000D02*
D03*
X-143500D02*
D03*
Y530500D02*
D03*
X-334107Y449393D02*
D03*
X-328803Y454697D02*
D03*
X-323500Y460000D02*
D03*
X-143500Y538000D02*
D03*
Y545500D02*
D03*
Y553000D02*
D03*
Y560500D02*
D03*
Y568000D02*
D03*
Y575500D02*
D03*
Y583000D02*
D03*
Y590500D02*
D03*
Y598000D02*
D03*
Y605500D02*
D03*
Y612250D02*
D03*
X-273197Y543303D02*
D03*
X-280697D02*
D03*
X-288197D02*
D03*
X-293000Y522000D02*
D03*
X-301000Y519750D02*
D03*
X-308500D02*
D03*
X-316000D02*
D03*
X-323500D02*
D03*
X-338750Y529250D02*
D03*
Y538000D02*
D03*
X-338500Y598000D02*
D03*
Y605500D02*
D03*
Y575500D02*
D03*
Y583000D02*
D03*
X-174000Y612250D02*
D03*
X-181000D02*
D03*
X-151000D02*
D03*
X-158500D02*
D03*
X-196000D02*
D03*
X-188500D02*
D03*
X-293500Y613000D02*
D03*
X-286000D02*
D03*
X-278500D02*
D03*
X-263500D02*
D03*
X-271000D02*
D03*
X-316000Y612250D02*
D03*
X-308500Y613000D02*
D03*
X-301000D02*
D03*
X-323500Y612250D02*
D03*
X-338000D02*
D03*
X-562250Y214600D02*
D03*
Y235600D02*
D03*
X-712250Y214600D02*
D03*
Y235600D02*
D03*
X-330500Y578413D02*
D03*
X87413Y238600D02*
D03*
X233413D02*
D03*
X389413D02*
D03*
X690413D02*
D03*
X351000Y-60000D02*
D03*
X312000D02*
D03*
X-694150Y-227900D02*
D03*
X-716250D02*
D03*
X-744950D02*
D03*
X-767050D02*
D03*
X664226Y213600D02*
D03*
X516000D02*
D03*
X-206587Y213350D02*
D03*
X-437000Y479625D02*
D03*
X-425250Y475429D02*
D03*
X-464750Y504000D02*
D03*
X-464795Y511420D02*
D03*
X-434500Y546500D02*
D03*
X-424000Y546875D02*
D03*
X333059Y502500D02*
D03*
X57706Y587987D02*
D03*
X-269000Y492500D02*
D03*
X-300000Y-65000D02*
D03*
X-292500Y50000D02*
D03*
X-380000Y-124D02*
D03*
X-391750Y49687D02*
D03*
X338000Y-71954D02*
D03*
X40000Y277500D02*
D03*
X32500D02*
D03*
X47500D02*
D03*
X-130000D02*
D03*
X-137500D02*
D03*
X-145000D02*
D03*
X-560000Y257500D02*
D03*
X-550000Y257500D02*
D03*
X-555000Y252500D02*
D03*
Y262500D02*
D03*
X-575000D02*
D03*
X-375000Y440000D02*
D03*
Y446000D02*
D03*
X-575000Y252500D02*
D03*
X-375000Y452000D02*
D03*
X-570000Y257500D02*
D03*
X-580000D02*
D03*
X342750Y497243D02*
D03*
X318000Y557750D02*
D03*
X268750Y559250D02*
D03*
X-212500Y552500D02*
D03*
X-222500D02*
D03*
X715647Y116900D02*
D03*
X537500Y72000D02*
D03*
X206000Y215000D02*
D03*
X-700000Y44600D02*
D03*
X-401125Y508500D02*
D03*
X-406125Y504500D02*
D03*
X-442000Y483625D02*
D03*
X-432000Y483625D02*
D03*
X-442000Y535375D02*
D03*
X-432000Y535375D02*
D03*
X42500Y37500D02*
D03*
X-110000Y70000D02*
D03*
X-70000Y60000D02*
D03*
X-210000Y80000D02*
D03*
X10000Y70000D02*
D03*
X-10000D02*
D03*
X-30000D02*
D03*
X118122Y44925D02*
D03*
X-57000Y60000D02*
D03*
X-160053Y44900D02*
D03*
X265000Y507000D02*
D03*
X165000Y431000D02*
D03*
X12503Y488000D02*
D03*
X158000Y437000D02*
D03*
X586500Y-327500D02*
D03*
X444000Y-290000D02*
D03*
X291500Y-270000D02*
D03*
X-299869Y-317369D02*
D03*
X-600000Y-220000D02*
D03*
X-432500Y-250000D02*
D03*
X-79000Y210000D02*
D03*
X396000Y215000D02*
D03*
X59000D02*
D03*
X-389750D02*
D03*
X-545000D02*
D03*
X-695000D02*
D03*
X-638750Y500400D02*
D03*
X-330000Y549000D02*
D03*
Y567000D02*
D03*
X245753Y534603D02*
D03*
X275753Y559335D02*
D03*
X158000Y425000D02*
D03*
X253000Y534603D02*
D03*
X259500D02*
D03*
X165000Y443000D02*
D03*
X325000Y557243D02*
D03*
X82503Y450196D02*
D03*
X92503D02*
D03*
X652500Y37500D02*
D03*
X497500Y32500D02*
D03*
X385000Y5000D02*
D03*
X168000Y37550D02*
D03*
X-759750Y464270D02*
D03*
X-749750Y436900D02*
D03*
X-577750Y554270D02*
D03*
Y464270D02*
D03*
X-759750Y554270D02*
D03*
X-550000Y50000D02*
D03*
X-680000Y240000D02*
D03*
X-580000Y-10000D02*
D03*
Y10000D02*
D03*
X-655550Y464250D02*
D03*
X-577750Y526900D02*
D03*
Y436900D02*
D03*
X-749750Y526900D02*
D03*
X-655550Y554250D02*
D03*
X-681950Y566950D02*
D03*
Y476950D02*
D03*
X-470000Y70000D02*
D03*
X-490000D02*
D03*
X260000Y50000D02*
D03*
X243122Y44925D02*
D03*
X-112500Y430000D02*
D03*
X-32500D02*
D03*
X-52500D02*
D03*
X-72500D02*
D03*
X-92500D02*
D03*
X-132500D02*
D03*
X-152500D02*
D03*
X-172500D02*
D03*
X-192500D02*
D03*
X-212500D02*
D03*
X-232500D02*
D03*
X-252500D02*
D03*
X-272500D02*
D03*
X-292500D02*
D03*
X-312500D02*
D03*
X-332500D02*
D03*
X102503Y450196D02*
D03*
X52500Y572500D02*
D03*
X82500Y562500D02*
D03*
X102500D02*
D03*
X92250D02*
D03*
X72500D02*
D03*
X42500D02*
D03*
X-457500Y490000D02*
D03*
X-238000Y606000D02*
D03*
X-168000D02*
D03*
X-228000D02*
D03*
X-332500Y440000D02*
D03*
X-312500Y440000D02*
D03*
X-292500Y440000D02*
D03*
X-272500Y440000D02*
D03*
X-264625Y497500D02*
D03*
X-264625Y507500D02*
D03*
X-227500Y544625D02*
D03*
X-217500D02*
D03*
X550500Y72000D02*
D03*
D113*
X50000Y661600D02*
D03*
X10000D02*
D03*
X30000D02*
D03*
X-30000D02*
D03*
X-10000D02*
D03*
X-50000D02*
D03*
X-130000D02*
D03*
X-110000D02*
D03*
X-70000D02*
D03*
X-90000D02*
D03*
X-170000D02*
D03*
X-150000D02*
D03*
X-210000D02*
D03*
X-190000D02*
D03*
X-230000D02*
D03*
X-310000D02*
D03*
X-290000D02*
D03*
X-250000D02*
D03*
X-270000D02*
D03*
X-350000D02*
D03*
X-330000D02*
D03*
M02*
