G04*
G04 #@! TF.GenerationSoftware,Altium Limited,Altium Designer,19.1.8 (144)*
G04*
G04 Layer_Color=32768*
%FSLAX44Y44*%
%MOMM*%
G71*
G01*
G75*
%ADD10C,0.2000*%
%ADD104C,0.1000*%
D10*
X423874Y368700D02*
Y363368D01*
X422541D01*
X417209Y368700D01*
X415876D01*
X423874Y355371D02*
Y360702D01*
X419875D01*
X421208Y358037D01*
Y356704D01*
X419875Y355371D01*
X417209D01*
X415876Y356704D01*
Y359370D01*
X417209Y360702D01*
X421208Y352705D02*
X415876D01*
X418542D01*
X419875Y351372D01*
X421208Y350039D01*
Y348706D01*
X491500Y603486D02*
X499497D01*
Y599487D01*
X498164Y598154D01*
X495499D01*
X494166Y599487D01*
Y603486D01*
X491500Y595489D02*
X499497D01*
X496832Y592823D01*
X499497Y590157D01*
X491500D01*
X499497Y582160D02*
Y587491D01*
X491500D01*
Y582160D01*
X495499Y587491D02*
Y584825D01*
X498164Y574162D02*
X499497Y575495D01*
Y578161D01*
X498164Y579494D01*
X492833D01*
X491500Y578161D01*
Y575495D01*
X492833Y574162D01*
X495499D01*
Y576828D01*
X499497Y566165D02*
X498164Y568830D01*
X495499Y571496D01*
X492833D01*
X491500Y570163D01*
Y567498D01*
X492833Y566165D01*
X494166D01*
X495499Y567498D01*
Y571496D01*
X498164Y563499D02*
X499497Y562166D01*
Y559500D01*
X498164Y558167D01*
X492833D01*
X491500Y559500D01*
Y562166D01*
X492833Y563499D01*
X498164D01*
Y555502D02*
X499497Y554169D01*
Y551503D01*
X498164Y550170D01*
X496832D01*
X495499Y551503D01*
Y552836D01*
Y551503D01*
X494166Y550170D01*
X492833D01*
X491500Y551503D01*
Y554169D01*
X492833Y555502D01*
X498164Y547504D02*
X499497Y546171D01*
Y543505D01*
X498164Y542173D01*
X492833D01*
X491500Y543505D01*
Y546171D01*
X492833Y547504D01*
X498164D01*
X499497Y534175D02*
Y539507D01*
X491500D01*
Y534175D01*
X495499Y539507D02*
Y536841D01*
X499497Y531509D02*
X494166D01*
X491500Y528843D01*
X494166Y526178D01*
X499497D01*
X491500Y523512D02*
X499497D01*
Y519513D01*
X498164Y518180D01*
X495499D01*
X494166Y519513D01*
Y523512D01*
X499497Y515514D02*
X491500Y510183D01*
X499497D02*
X491500Y515514D01*
X268754Y419700D02*
X271419D01*
X270086D01*
Y427697D01*
X268754Y426364D01*
X275418D02*
X276751Y427697D01*
X279417D01*
X280750Y426364D01*
Y421032D01*
X279417Y419700D01*
X276751D01*
X275418Y421032D01*
Y426364D01*
X283416D02*
X284748Y427697D01*
X287414D01*
X288747Y426364D01*
Y421032D01*
X287414Y419700D01*
X284748D01*
X283416Y421032D01*
Y426364D01*
X291413Y419700D02*
Y427697D01*
Y422365D02*
X295412Y425031D01*
X291413Y422365D02*
X295412Y419700D01*
X-289551Y363368D02*
Y368700D01*
X-284220Y363368D01*
X-282887D01*
X-281554Y364701D01*
Y367367D01*
X-282887Y368700D01*
Y360702D02*
X-281554Y359370D01*
Y356704D01*
X-282887Y355371D01*
X-288218D01*
X-289551Y356704D01*
Y359370D01*
X-288218Y360702D01*
X-282887D01*
Y352705D02*
X-281554Y351372D01*
Y348706D01*
X-282887Y347373D01*
X-288218D01*
X-289551Y348706D01*
Y351372D01*
X-288218Y352705D01*
X-282887D01*
X-284220Y344708D02*
X-289551D01*
X-286886D01*
X-285553Y343375D01*
X-284220Y342042D01*
Y340709D01*
X-339551Y363368D02*
Y368700D01*
X-334220Y363368D01*
X-332887D01*
X-331554Y364701D01*
Y367367D01*
X-332887Y368700D01*
Y360702D02*
X-331554Y359370D01*
Y356704D01*
X-332887Y355371D01*
X-338218D01*
X-339551Y356704D01*
Y359370D01*
X-338218Y360702D01*
X-332887D01*
Y352705D02*
X-331554Y351372D01*
Y348706D01*
X-332887Y347373D01*
X-338218D01*
X-339551Y348706D01*
Y351372D01*
X-338218Y352705D01*
X-332887D01*
X-334220Y344708D02*
X-339551D01*
X-336885D01*
X-335553Y343375D01*
X-334220Y342042D01*
Y340709D01*
X312283Y368700D02*
Y363368D01*
X310950D01*
X305619Y368700D01*
X304286D01*
X312283Y355371D02*
Y360702D01*
X308284D01*
X309617Y358037D01*
Y356704D01*
X308284Y355371D01*
X305619D01*
X304286Y356704D01*
Y359370D01*
X305619Y360702D01*
X309617Y352705D02*
X304286D01*
X306952D01*
X308284Y351372D01*
X309617Y350039D01*
Y348706D01*
X275086Y368700D02*
Y363368D01*
X273754D01*
X268422Y368700D01*
X267089D01*
X275086Y355371D02*
Y360702D01*
X271088D01*
X272421Y358037D01*
Y356704D01*
X271088Y355371D01*
X268422D01*
X267089Y356704D01*
Y359370D01*
X268422Y360702D01*
X272421Y352705D02*
X267089D01*
X269755D01*
X271088Y351372D01*
X272421Y350039D01*
Y348706D01*
X237889Y368700D02*
Y363368D01*
X236557D01*
X231225Y368700D01*
X229892D01*
X237889Y355371D02*
Y360702D01*
X233891D01*
X235224Y358037D01*
Y356704D01*
X233891Y355371D01*
X231225D01*
X229892Y356704D01*
Y359370D01*
X231225Y360702D01*
X235224Y352705D02*
X229892D01*
X232558D01*
X233891Y351372D01*
X235224Y350039D01*
Y348706D01*
X147750Y304500D02*
X145084D01*
X146417D01*
Y296503D01*
X147750Y297836D01*
X141086D02*
X139753Y296503D01*
X137087D01*
X135754Y297836D01*
Y303167D01*
X137087Y304500D01*
X139753D01*
X141086Y303167D01*
Y297836D01*
X133088D02*
X131755Y296503D01*
X129089D01*
X127757Y297836D01*
Y303167D01*
X129089Y304500D01*
X131755D01*
X133088Y303167D01*
Y297836D01*
X125091Y304500D02*
Y296503D01*
Y301834D02*
X121092Y299168D01*
X125091Y301834D02*
X121092Y304500D01*
X764500Y277582D02*
Y272250D01*
X759168Y277582D01*
X757835D01*
X756503Y276249D01*
Y273583D01*
X757835Y272250D01*
X764500Y284246D02*
X756503D01*
X760501Y280247D01*
Y285579D01*
X757835Y288245D02*
X756503Y289578D01*
Y292243D01*
X757835Y293576D01*
X763167D01*
X764500Y292243D01*
Y289578D01*
X763167Y288245D01*
X757835D01*
X764500Y296242D02*
X756503D01*
X761834D02*
X759168Y300241D01*
X761834Y296242D02*
X764500Y300241D01*
X163496Y368700D02*
Y363368D01*
X162163D01*
X156831Y368700D01*
X155498D01*
X163496Y355371D02*
Y360702D01*
X159497D01*
X160830Y358037D01*
Y356704D01*
X159497Y355371D01*
X156831D01*
X155498Y356704D01*
Y359370D01*
X156831Y360702D01*
X160830Y352705D02*
X155498D01*
X158164D01*
X159497Y351372D01*
X160830Y350039D01*
Y348706D01*
X200693Y368700D02*
Y363368D01*
X199360D01*
X194028Y368700D01*
X192695D01*
X200693Y355371D02*
Y360702D01*
X196694D01*
X198027Y358037D01*
Y356704D01*
X196694Y355371D01*
X194028D01*
X192695Y356704D01*
Y359370D01*
X194028Y360702D01*
X198027Y352705D02*
X192695D01*
X195361D01*
X196694Y351372D01*
X198027Y350039D01*
Y348706D01*
X349480Y368700D02*
Y363368D01*
X348147D01*
X342816Y368700D01*
X341483D01*
X349480Y355371D02*
Y360702D01*
X345481D01*
X346814Y358037D01*
Y356704D01*
X345481Y355371D01*
X342816D01*
X341483Y356704D01*
Y359370D01*
X342816Y360702D01*
X346814Y352705D02*
X341483D01*
X344148D01*
X345481Y351372D01*
X346814Y350039D01*
Y348706D01*
X386677Y368700D02*
Y363368D01*
X385344D01*
X380012Y368700D01*
X378680D01*
X386677Y355371D02*
Y360702D01*
X382678D01*
X384011Y358037D01*
Y356704D01*
X382678Y355371D01*
X380012D01*
X378680Y356704D01*
Y359370D01*
X380012Y360702D01*
X384011Y352705D02*
X378680D01*
X381345D01*
X382678Y351372D01*
X384011Y350039D01*
Y348706D01*
X461071Y368700D02*
Y363368D01*
X459738D01*
X454406Y368700D01*
X453073D01*
X461071Y355371D02*
Y360702D01*
X457072D01*
X458405Y358037D01*
Y356704D01*
X457072Y355371D01*
X454406D01*
X453073Y356704D01*
Y359370D01*
X454406Y360702D01*
X458405Y352705D02*
X453073D01*
X455739D01*
X457072Y351372D01*
X458405Y350039D01*
Y348706D01*
X-439551Y363368D02*
Y368700D01*
X-434220Y363368D01*
X-432887D01*
X-431554Y364701D01*
Y367367D01*
X-432887Y368700D01*
Y360703D02*
X-431554Y359370D01*
Y356704D01*
X-432887Y355371D01*
X-438218D01*
X-439551Y356704D01*
Y359370D01*
X-438218Y360703D01*
X-432887D01*
Y352705D02*
X-431554Y351372D01*
Y348706D01*
X-432887Y347373D01*
X-438218D01*
X-439551Y348706D01*
Y351372D01*
X-438218Y352705D01*
X-432887D01*
X-434220Y344708D02*
X-439551D01*
X-436885D01*
X-435553Y343375D01*
X-434220Y342042D01*
Y340709D01*
X-389551Y363368D02*
Y368700D01*
X-384220Y363368D01*
X-382887D01*
X-381554Y364701D01*
Y367367D01*
X-382887Y368700D01*
Y360702D02*
X-381554Y359370D01*
Y356704D01*
X-382887Y355371D01*
X-388218D01*
X-389551Y356704D01*
Y359370D01*
X-388218Y360702D01*
X-382887D01*
Y352705D02*
X-381554Y351372D01*
Y348706D01*
X-382887Y347373D01*
X-388218D01*
X-389551Y348706D01*
Y351372D01*
X-388218Y352705D01*
X-382887D01*
X-384220Y344708D02*
X-389551D01*
X-386885D01*
X-385553Y343375D01*
X-384220Y342042D01*
Y340709D01*
X-239551Y363368D02*
Y368700D01*
X-234220Y363368D01*
X-232887D01*
X-231554Y364701D01*
Y367367D01*
X-232887Y368700D01*
Y360702D02*
X-231554Y359370D01*
Y356704D01*
X-232887Y355371D01*
X-238218D01*
X-239551Y356704D01*
Y359370D01*
X-238218Y360702D01*
X-232887D01*
Y352705D02*
X-231554Y351372D01*
Y348706D01*
X-232887Y347373D01*
X-238218D01*
X-239551Y348706D01*
Y351372D01*
X-238218Y352705D01*
X-232887D01*
X-234220Y344708D02*
X-239551D01*
X-236886D01*
X-235553Y343375D01*
X-234220Y342042D01*
Y340709D01*
X-189551Y363368D02*
Y368700D01*
X-184220Y363368D01*
X-182887D01*
X-181554Y364701D01*
Y367367D01*
X-182887Y368700D01*
Y360702D02*
X-181554Y359370D01*
Y356704D01*
X-182887Y355371D01*
X-188218D01*
X-189551Y356704D01*
Y359370D01*
X-188218Y360702D01*
X-182887D01*
Y352705D02*
X-181554Y351372D01*
Y348706D01*
X-182887Y347373D01*
X-188218D01*
X-189551Y348706D01*
Y351372D01*
X-188218Y352705D01*
X-182887D01*
X-184220Y344708D02*
X-189551D01*
X-186886D01*
X-185553Y343375D01*
X-184220Y342042D01*
Y340709D01*
X-286573Y-388600D02*
Y-385934D01*
Y-387267D01*
X-294570D01*
X-293237Y-388600D01*
Y-381936D02*
X-294570Y-380602D01*
Y-377937D01*
X-293237Y-376604D01*
X-287906D01*
X-286573Y-377937D01*
Y-380602D01*
X-287906Y-381936D01*
X-293237D01*
Y-373938D02*
X-294570Y-372605D01*
Y-369939D01*
X-293237Y-368606D01*
X-287906D01*
X-286573Y-369939D01*
Y-372605D01*
X-287906Y-373938D01*
X-293237D01*
X-291904Y-365941D02*
X-286573D01*
X-289238D01*
X-290571Y-364608D01*
X-291904Y-363275D01*
Y-361942D01*
X603427Y-388600D02*
Y-385934D01*
Y-387267D01*
X595430D01*
X596763Y-388600D01*
Y-381936D02*
X595430Y-380602D01*
Y-377937D01*
X596763Y-376604D01*
X602094D01*
X603427Y-377937D01*
Y-380602D01*
X602094Y-381936D01*
X596763D01*
Y-373938D02*
X595430Y-372605D01*
Y-369939D01*
X596763Y-368606D01*
X602094D01*
X603427Y-369939D01*
Y-372605D01*
X602094Y-373938D01*
X596763D01*
X598096Y-365941D02*
X603427D01*
X600761D01*
X599429Y-364608D01*
X598096Y-363275D01*
Y-361942D01*
X-314372Y52000D02*
X-309040D01*
X-314372Y46668D01*
Y45335D01*
X-313039Y44003D01*
X-310373D01*
X-309040Y45335D01*
X-317038D02*
X-318371Y44003D01*
X-321036D01*
X-322369Y45335D01*
Y50667D01*
X-321036Y52000D01*
X-318371D01*
X-317038Y50667D01*
Y45335D01*
X-325035D02*
X-326368Y44003D01*
X-329034D01*
X-330367Y45335D01*
Y50667D01*
X-329034Y52000D01*
X-326368D01*
X-325035Y50667D01*
Y45335D01*
X-333032Y46668D02*
Y52000D01*
Y49334D01*
X-334365Y48001D01*
X-335698Y46668D01*
X-337031D01*
X-310590Y-62500D02*
X-313256D01*
X-311923D01*
Y-70497D01*
X-310590Y-69165D01*
X-317255D02*
X-318588Y-70497D01*
X-321254D01*
X-322586Y-69165D01*
Y-63833D01*
X-321254Y-62500D01*
X-318588D01*
X-317255Y-63833D01*
Y-69165D01*
X-325252D02*
X-326585Y-70497D01*
X-329251D01*
X-330584Y-69165D01*
Y-63833D01*
X-329251Y-62500D01*
X-326585D01*
X-325252Y-63833D01*
Y-69165D01*
X-333250Y-67832D02*
Y-62500D01*
Y-65166D01*
X-334582Y-66499D01*
X-335915Y-67832D01*
X-337248D01*
X-342290Y52249D02*
X-350288D01*
X-346289Y48250D01*
Y53582D01*
X-343623Y56247D02*
X-342290Y57580D01*
Y60246D01*
X-343623Y61579D01*
X-348955D01*
X-350288Y60246D01*
Y57580D01*
X-348955Y56247D01*
X-347622D01*
X-346289Y57580D01*
Y61579D01*
X-342290Y64245D02*
X-343623D01*
Y65578D01*
X-342290D01*
Y64245D01*
X-343623Y70909D02*
X-342290Y72242D01*
Y74908D01*
X-343623Y76241D01*
X-348955D01*
X-350288Y74908D01*
Y72242D01*
X-348955Y70909D01*
X-347622D01*
X-346289Y72242D01*
Y76241D01*
X-347622Y78907D02*
X-342290D01*
X-344956D01*
X-346289Y80240D01*
X-347622Y81573D01*
Y82906D01*
X-332872Y52000D02*
X-327540D01*
X-332872Y46668D01*
Y45335D01*
X-331539Y44003D01*
X-328873D01*
X-327540Y45335D01*
X-335538D02*
X-336871Y44003D01*
X-339536D01*
X-340869Y45335D01*
Y50667D01*
X-339536Y52000D01*
X-336871D01*
X-335538Y50667D01*
Y45335D01*
X-343535D02*
X-344868Y44003D01*
X-347534D01*
X-348867Y45335D01*
Y50667D01*
X-347534Y52000D01*
X-344868D01*
X-343535Y50667D01*
Y45335D01*
X-351533Y46668D02*
Y52000D01*
Y49334D01*
X-352865Y48001D01*
X-354198Y46668D01*
X-355531D01*
X-325990Y-62500D02*
X-328656D01*
X-327323D01*
Y-70497D01*
X-325990Y-69165D01*
X-332655D02*
X-333988Y-70497D01*
X-336654D01*
X-337986Y-69165D01*
Y-63833D01*
X-336654Y-62500D01*
X-333988D01*
X-332655Y-63833D01*
Y-69165D01*
X-340652D02*
X-341985Y-70497D01*
X-344651D01*
X-345984Y-69165D01*
Y-63833D01*
X-344651Y-62500D01*
X-341985D01*
X-340652Y-63833D01*
Y-69165D01*
X-348650Y-67832D02*
Y-62500D01*
Y-65166D01*
X-349982Y-66499D01*
X-351315Y-67832D01*
X-352648D01*
X-284250Y-22836D02*
X-282917Y-21503D01*
X-280251D01*
X-278918Y-22836D01*
Y-28167D01*
X-280251Y-29500D01*
X-282917D01*
X-284250Y-28167D01*
Y-22836D01*
X-276253Y-24168D02*
Y-29500D01*
Y-26834D01*
X-274920Y-25501D01*
X-273587Y-24168D01*
X-272254D01*
X707700Y-162997D02*
Y-155000D01*
X703701D01*
X702368Y-156333D01*
Y-161665D01*
X703701Y-162997D01*
X707700D01*
X699703Y-155000D02*
Y-162997D01*
X694371Y-155000D01*
Y-162997D01*
X691705Y-155000D02*
Y-162997D01*
X687707D01*
X686374Y-161665D01*
Y-158999D01*
X687707Y-157666D01*
X691705D01*
X681036Y-197250D02*
X679703Y-195917D01*
Y-193251D01*
X681036Y-191918D01*
X686367D01*
X687700Y-193251D01*
Y-195917D01*
X686367Y-197250D01*
X681036D01*
X682368Y-189253D02*
X687700D01*
X685034D01*
X683701Y-187920D01*
X682368Y-186587D01*
Y-185254D01*
X707700Y-202997D02*
Y-195000D01*
X703701D01*
X702368Y-196333D01*
Y-201665D01*
X703701Y-202997D01*
X707700D01*
X699703Y-195000D02*
Y-202997D01*
X694371Y-195000D01*
Y-202997D01*
X691705Y-195000D02*
Y-202997D01*
X687707D01*
X686374Y-201665D01*
Y-198999D01*
X687707Y-197666D01*
X691705D01*
X-774868Y-152253D02*
X-780200D01*
Y-156251D01*
X-777534Y-154918D01*
X-776201D01*
X-774868Y-156251D01*
Y-158917D01*
X-776201Y-160250D01*
X-778867D01*
X-780200Y-158917D01*
X-772203Y-153586D02*
X-770870Y-152253D01*
X-768204D01*
X-766871Y-153586D01*
Y-154918D01*
X-768204Y-156251D01*
X-769537D01*
X-768204D01*
X-766871Y-157584D01*
Y-158917D01*
X-768204Y-160250D01*
X-770870D01*
X-772203Y-158917D01*
X-764205Y-160250D02*
Y-158917D01*
X-762872D01*
Y-160250D01*
X-764205D01*
X-752209Y-152253D02*
X-754875Y-153586D01*
X-757541Y-156251D01*
Y-158917D01*
X-756208Y-160250D01*
X-753542D01*
X-752209Y-158917D01*
Y-157584D01*
X-753542Y-156251D01*
X-757541D01*
X-749543Y-154918D02*
Y-160250D01*
Y-157584D01*
X-748210Y-156251D01*
X-746877Y-154918D01*
X-745545D01*
X-758197Y-187168D02*
Y-192500D01*
X-754199D01*
X-755532Y-189834D01*
Y-188501D01*
X-754199Y-187168D01*
X-751533D01*
X-750200Y-188501D01*
Y-191167D01*
X-751533Y-192500D01*
Y-184503D02*
X-750200Y-183170D01*
Y-180504D01*
X-751533Y-179171D01*
X-756864D01*
X-758197Y-180504D01*
Y-183170D01*
X-756864Y-184503D01*
X-755532D01*
X-754199Y-183170D01*
Y-179171D01*
X-756864Y-176505D02*
X-758197Y-175172D01*
Y-172506D01*
X-756864Y-171173D01*
X-751533D01*
X-750200Y-172506D01*
Y-175172D01*
X-751533Y-176505D01*
X-756864D01*
X-755532Y-168508D02*
X-750200D01*
X-752866D01*
X-754199Y-167175D01*
X-755532Y-165842D01*
Y-164509D01*
X-774868Y-192253D02*
X-780200D01*
Y-196251D01*
X-777534Y-194918D01*
X-776201D01*
X-774868Y-196251D01*
Y-198917D01*
X-776201Y-200250D01*
X-778867D01*
X-780200Y-198917D01*
X-772203Y-193585D02*
X-770870Y-192253D01*
X-768204D01*
X-766871Y-193585D01*
Y-194918D01*
X-768204Y-196251D01*
X-769537D01*
X-768204D01*
X-766871Y-197584D01*
Y-198917D01*
X-768204Y-200250D01*
X-770870D01*
X-772203Y-198917D01*
X-764205Y-200250D02*
Y-198917D01*
X-762872D01*
Y-200250D01*
X-764205D01*
X-752209Y-192253D02*
X-754875Y-193585D01*
X-757541Y-196251D01*
Y-198917D01*
X-756208Y-200250D01*
X-753542D01*
X-752209Y-198917D01*
Y-197584D01*
X-753542Y-196251D01*
X-757541D01*
X-749543Y-194918D02*
Y-200250D01*
Y-197584D01*
X-748210Y-196251D01*
X-746877Y-194918D01*
X-745545D01*
X-686332Y-158247D02*
X-681000D01*
Y-154249D01*
X-683666Y-155582D01*
X-684999D01*
X-686332Y-154249D01*
Y-151583D01*
X-684999Y-150250D01*
X-682333D01*
X-681000Y-151583D01*
X-692996Y-150250D02*
Y-158247D01*
X-688997Y-154249D01*
X-694329D01*
X-696995Y-150250D02*
Y-151583D01*
X-698328D01*
Y-150250D01*
X-696995D01*
X-703659Y-151583D02*
X-704992Y-150250D01*
X-707658D01*
X-708991Y-151583D01*
Y-156915D01*
X-707658Y-158247D01*
X-704992D01*
X-703659Y-156915D01*
Y-155582D01*
X-704992Y-154249D01*
X-708991D01*
X-711657Y-155582D02*
Y-150250D01*
Y-152916D01*
X-712990Y-154249D01*
X-714323Y-155582D01*
X-715656D01*
X-708997Y-187168D02*
Y-192500D01*
X-704999D01*
X-706332Y-189834D01*
Y-188501D01*
X-704999Y-187168D01*
X-702333D01*
X-701000Y-188501D01*
Y-191167D01*
X-702333Y-192500D01*
X-708997Y-179171D02*
X-707664Y-181837D01*
X-704999Y-184503D01*
X-702333D01*
X-701000Y-183170D01*
Y-180504D01*
X-702333Y-179171D01*
X-703666D01*
X-704999Y-180504D01*
Y-184503D01*
X-701000Y-171173D02*
Y-176505D01*
X-706332Y-171173D01*
X-707664D01*
X-708997Y-172506D01*
Y-175172D01*
X-707664Y-176505D01*
X-706332Y-168508D02*
X-701000D01*
X-703666D01*
X-704999Y-167175D01*
X-706332Y-165842D01*
Y-164509D01*
X-686332Y-198247D02*
X-681000D01*
Y-194249D01*
X-683666Y-195582D01*
X-684999D01*
X-686332Y-194249D01*
Y-191583D01*
X-684999Y-190250D01*
X-682333D01*
X-681000Y-191583D01*
X-692996Y-190250D02*
Y-198247D01*
X-688997Y-194249D01*
X-694329D01*
X-696995Y-190250D02*
Y-191583D01*
X-698328D01*
Y-190250D01*
X-696995D01*
X-703659Y-191583D02*
X-704992Y-190250D01*
X-707658D01*
X-708991Y-191583D01*
Y-196915D01*
X-707658Y-198247D01*
X-704992D01*
X-703659Y-196915D01*
Y-195582D01*
X-704992Y-194249D01*
X-708991D01*
X-711657Y-195582D02*
Y-190250D01*
Y-192916D01*
X-712990Y-194249D01*
X-714323Y-195582D01*
X-715656D01*
X-334897Y-235858D02*
X-329242Y-241513D01*
X-326415Y-238685D01*
X-326415Y-236800D01*
X-330185Y-233030D01*
X-332070D01*
X-334897Y-235858D01*
X-323587D02*
X-329242Y-230203D01*
X-319817Y-232088D01*
X-325472Y-226433D01*
X-317932Y-230203D02*
X-323587Y-224548D01*
X-320760Y-221720D01*
X-318875D01*
X-316990Y-223605D01*
X-316990Y-225490D01*
X-319817Y-228318D01*
X-289820Y-247934D02*
X-291705Y-247934D01*
X-293590Y-246049D01*
Y-244164D01*
X-289820Y-240394D01*
X-287935Y-240394D01*
X-286050Y-242279D01*
Y-244164D01*
X-289820Y-247934D01*
X-294532Y-241336D02*
X-290762Y-237566D01*
X-292647Y-239451D01*
X-294533D01*
X-296417D01*
X-297360Y-238509D01*
X-306297Y-264058D02*
X-300642Y-269713D01*
X-297815Y-266886D01*
X-297815Y-265001D01*
X-301585Y-261231D01*
X-303470D01*
X-306297Y-264058D01*
X-294987D02*
X-300642Y-258403D01*
X-291217Y-260288D01*
X-296872Y-254633D01*
X-289332Y-258403D02*
X-294987Y-252748D01*
X-292160Y-249921D01*
X-290275D01*
X-288390Y-251806D01*
X-288390Y-253691D01*
X-291217Y-256518D01*
X-182300Y-122747D02*
Y-114750D01*
X-186299D01*
X-187632Y-116083D01*
Y-121414D01*
X-186299Y-122747D01*
X-182300D01*
X-190297Y-114750D02*
Y-122747D01*
X-195629Y-114750D01*
Y-122747D01*
X-198295Y-114750D02*
Y-122747D01*
X-202293D01*
X-203626Y-121414D01*
Y-118749D01*
X-202293Y-117416D01*
X-198295D01*
X-208965Y-157000D02*
X-210297Y-155667D01*
Y-153001D01*
X-208965Y-151668D01*
X-203633D01*
X-202300Y-153001D01*
Y-155667D01*
X-203633Y-157000D01*
X-208965D01*
X-207632Y-149003D02*
X-202300D01*
X-204966D01*
X-206299Y-147670D01*
X-207632Y-146337D01*
Y-145004D01*
X-182300Y-162747D02*
Y-154750D01*
X-186299D01*
X-187632Y-156083D01*
Y-161415D01*
X-186299Y-162747D01*
X-182300D01*
X-190297Y-154750D02*
Y-162747D01*
X-195629Y-154750D01*
Y-162747D01*
X-198295Y-154750D02*
Y-162747D01*
X-202293D01*
X-203626Y-161415D01*
Y-158749D01*
X-202293Y-157416D01*
X-198295D01*
X-66250Y-162747D02*
Y-154750D01*
X-70249D01*
X-71582Y-156083D01*
Y-161415D01*
X-70249Y-162747D01*
X-66250D01*
X-74248Y-154750D02*
Y-162747D01*
X-79579Y-154750D01*
Y-162747D01*
X-82245Y-154750D02*
Y-162747D01*
X-86244D01*
X-87577Y-161415D01*
Y-158749D01*
X-86244Y-157416D01*
X-82245D01*
X-89586Y-122500D02*
X-88253Y-123833D01*
Y-126499D01*
X-89586Y-127832D01*
X-94917D01*
X-96250Y-126499D01*
Y-123833D01*
X-94917Y-122500D01*
X-89586D01*
X-90919Y-130497D02*
X-96250D01*
X-93584D01*
X-92252Y-131830D01*
X-90919Y-133163D01*
Y-134496D01*
X-66250Y-122747D02*
Y-114750D01*
X-70249D01*
X-71582Y-116083D01*
Y-121414D01*
X-70249Y-122747D01*
X-66250D01*
X-74248Y-114750D02*
Y-122747D01*
X-79579Y-114750D01*
Y-122747D01*
X-82245Y-114750D02*
Y-122747D01*
X-86244D01*
X-87577Y-121414D01*
Y-118749D01*
X-86244Y-117416D01*
X-82245D01*
X-60750Y-124750D02*
X-58084D01*
X-59417D01*
Y-116753D01*
X-60750Y-118085D01*
X-54086D02*
X-52753Y-116753D01*
X-50087D01*
X-48754Y-118085D01*
Y-123417D01*
X-50087Y-124750D01*
X-52753D01*
X-54086Y-123417D01*
Y-118085D01*
X-46088Y-116753D02*
X-40757D01*
Y-118085D01*
X-46088Y-123417D01*
Y-124750D01*
X-38091Y-119418D02*
Y-124750D01*
Y-122084D01*
X-36758Y-120751D01*
X-35425Y-119418D01*
X-34092D01*
X-38748Y-151668D02*
Y-157000D01*
X-34749D01*
X-36082Y-154334D01*
Y-153001D01*
X-34749Y-151668D01*
X-32083D01*
X-30750Y-153001D01*
Y-155667D01*
X-32083Y-157000D01*
X-38748Y-143671D02*
X-37415Y-146337D01*
X-34749Y-149003D01*
X-32083D01*
X-30750Y-147670D01*
Y-145004D01*
X-32083Y-143671D01*
X-33416D01*
X-34749Y-145004D01*
Y-149003D01*
X-30750Y-141005D02*
X-32083D01*
Y-139672D01*
X-30750D01*
Y-141005D01*
Y-129009D02*
Y-134341D01*
X-36082Y-129009D01*
X-37415D01*
X-38748Y-130342D01*
Y-133008D01*
X-37415Y-134341D01*
X-36082Y-126343D02*
X-30750D01*
X-33416D01*
X-34749Y-125010D01*
X-36082Y-123677D01*
Y-122345D01*
X-60750Y-164750D02*
X-58084D01*
X-59417D01*
Y-156753D01*
X-60750Y-158085D01*
X-54086D02*
X-52753Y-156753D01*
X-50087D01*
X-48754Y-158085D01*
Y-163417D01*
X-50087Y-164750D01*
X-52753D01*
X-54086Y-163417D01*
Y-158085D01*
X-46088Y-156753D02*
X-40757D01*
Y-158085D01*
X-46088Y-163417D01*
Y-164750D01*
X-38091Y-159418D02*
Y-164750D01*
Y-162084D01*
X-36758Y-160751D01*
X-35425Y-159418D01*
X-34092D01*
X120750Y-124750D02*
X123416D01*
X122083D01*
Y-116753D01*
X120750Y-118085D01*
X127415D02*
X128748Y-116753D01*
X131413D01*
X132746Y-118085D01*
Y-119418D01*
X131413Y-120751D01*
X130081D01*
X131413D01*
X132746Y-122084D01*
Y-123417D01*
X131413Y-124750D01*
X128748D01*
X127415Y-123417D01*
X135412Y-118085D02*
X136745Y-116753D01*
X139411D01*
X140744Y-118085D01*
Y-123417D01*
X139411Y-124750D01*
X136745D01*
X135412Y-123417D01*
Y-118085D01*
X143410Y-119418D02*
Y-124750D01*
Y-122084D01*
X144742Y-120751D01*
X146075Y-119418D01*
X147408D01*
X150750Y-153001D02*
X142753D01*
X146751Y-157000D01*
Y-151668D01*
X150750Y-145004D02*
X142753D01*
X146751Y-149003D01*
Y-143671D01*
X150750Y-141005D02*
X149417D01*
Y-139672D01*
X150750D01*
Y-141005D01*
Y-129009D02*
Y-134341D01*
X145419Y-129009D01*
X144086D01*
X142753Y-130342D01*
Y-133008D01*
X144086Y-134341D01*
X145419Y-126343D02*
X150750D01*
X148084D01*
X146751Y-125010D01*
X145419Y-123677D01*
Y-122345D01*
X120750Y-164750D02*
X123416D01*
X122083D01*
Y-156753D01*
X120750Y-158085D01*
X127415D02*
X128748Y-156753D01*
X131413D01*
X132746Y-158085D01*
Y-159418D01*
X131413Y-160751D01*
X130081D01*
X131413D01*
X132746Y-162084D01*
Y-163417D01*
X131413Y-164750D01*
X128748D01*
X127415Y-163417D01*
X135412Y-158085D02*
X136745Y-156753D01*
X139411D01*
X140744Y-158085D01*
Y-163417D01*
X139411Y-164750D01*
X136745D01*
X135412Y-163417D01*
Y-158085D01*
X143410Y-159418D02*
Y-164750D01*
Y-162084D01*
X144742Y-160751D01*
X146075Y-159418D01*
X147408D01*
X622300Y-157003D02*
Y-165000D01*
X626299D01*
X627632Y-163667D01*
Y-158336D01*
X626299Y-157003D01*
X622300D01*
X630298Y-165000D02*
Y-157003D01*
X635629Y-165000D01*
Y-157003D01*
X638295Y-165000D02*
Y-157003D01*
X642294D01*
X643626Y-158336D01*
Y-161001D01*
X642294Y-162334D01*
X638295D01*
X645636Y-197250D02*
X644303Y-195917D01*
Y-193251D01*
X645636Y-191918D01*
X650967D01*
X652300Y-193251D01*
Y-195917D01*
X650967Y-197250D01*
X645636D01*
X646969Y-189253D02*
X652300D01*
X649634D01*
X648301Y-187920D01*
X646969Y-186587D01*
Y-185254D01*
X622300Y-197003D02*
Y-205000D01*
X626299D01*
X627632Y-203667D01*
Y-198335D01*
X626299Y-197003D01*
X622300D01*
X630298Y-205000D02*
Y-197003D01*
X635629Y-205000D01*
Y-197003D01*
X638295Y-205000D02*
Y-197003D01*
X642294D01*
X643626Y-198335D01*
Y-201001D01*
X642294Y-202334D01*
X638295D01*
X743250Y-157005D02*
Y-165002D01*
X747249D01*
X748582Y-163669D01*
Y-158337D01*
X747249Y-157005D01*
X743250D01*
X751248Y-165002D02*
Y-157005D01*
X756579Y-165002D01*
Y-157005D01*
X759245Y-165002D02*
Y-157005D01*
X763244D01*
X764577Y-158337D01*
Y-161003D01*
X763244Y-162336D01*
X759245D01*
X766586Y-197252D02*
X765253Y-195919D01*
Y-193253D01*
X766586Y-191920D01*
X771917D01*
X773250Y-193253D01*
Y-195919D01*
X771917Y-197252D01*
X766586D01*
X767919Y-189255D02*
X773250D01*
X770584D01*
X769252Y-187922D01*
X767919Y-186589D01*
Y-185256D01*
X596750Y-162997D02*
Y-155000D01*
X592751D01*
X591418Y-156333D01*
Y-161665D01*
X592751Y-162997D01*
X596750D01*
X588752Y-155000D02*
Y-162997D01*
X583421Y-155000D01*
Y-162997D01*
X580755Y-155000D02*
Y-162997D01*
X576756D01*
X575423Y-161665D01*
Y-158999D01*
X576756Y-157666D01*
X580755D01*
X743250Y-197005D02*
Y-205002D01*
X747249D01*
X748582Y-203669D01*
Y-198337D01*
X747249Y-197005D01*
X743250D01*
X751248Y-205002D02*
Y-197005D01*
X756579Y-205002D01*
Y-197005D01*
X759245Y-205002D02*
Y-197005D01*
X763244D01*
X764577Y-198337D01*
Y-201003D01*
X763244Y-202336D01*
X759245D01*
X211500Y-124750D02*
X214166D01*
X212833D01*
Y-116753D01*
X211500Y-118085D01*
X218165D02*
X219498Y-116753D01*
X222164D01*
X223497Y-118085D01*
Y-123417D01*
X222164Y-124750D01*
X219498D01*
X218165Y-123417D01*
Y-118085D01*
X231494Y-116753D02*
X226162D01*
Y-120751D01*
X228828Y-119418D01*
X230161D01*
X231494Y-120751D01*
Y-123417D01*
X230161Y-124750D01*
X227495D01*
X226162Y-123417D01*
X234160Y-119418D02*
Y-124750D01*
Y-122084D01*
X235493Y-120751D01*
X236826Y-119418D01*
X238159D01*
X233503Y-151668D02*
X234836Y-154334D01*
X237502Y-157000D01*
X240168D01*
X241500Y-155667D01*
Y-153001D01*
X240168Y-151668D01*
X238835D01*
X237502Y-153001D01*
Y-157000D01*
X234836Y-149003D02*
X233503Y-147670D01*
Y-145004D01*
X234836Y-143671D01*
X236169D01*
X237502Y-145004D01*
Y-146337D01*
Y-145004D01*
X238835Y-143671D01*
X240168D01*
X241500Y-145004D01*
Y-147670D01*
X240168Y-149003D01*
X241500Y-141005D02*
X240168D01*
Y-139672D01*
X241500D01*
Y-141005D01*
Y-130342D02*
X233503D01*
X237502Y-134341D01*
Y-129009D01*
X236169Y-126343D02*
X241500D01*
X238835D01*
X237502Y-125010D01*
X236169Y-123677D01*
Y-122345D01*
X211500Y-164750D02*
X214166D01*
X212833D01*
Y-156753D01*
X211500Y-158085D01*
X218165D02*
X219498Y-156753D01*
X222164D01*
X223497Y-158085D01*
Y-163417D01*
X222164Y-164750D01*
X219498D01*
X218165Y-163417D01*
Y-158085D01*
X231494Y-156753D02*
X226162D01*
Y-160751D01*
X228828Y-159418D01*
X230161D01*
X231494Y-160751D01*
Y-163417D01*
X230161Y-164750D01*
X227495D01*
X226162Y-163417D01*
X234160Y-159418D02*
Y-164750D01*
Y-162084D01*
X235493Y-160751D01*
X236826Y-159418D01*
X238159D01*
X570085Y-197250D02*
X568752Y-195917D01*
Y-193251D01*
X570085Y-191918D01*
X575417D01*
X576750Y-193251D01*
Y-195917D01*
X575417Y-197250D01*
X570085D01*
X571418Y-189253D02*
X576750D01*
X574084D01*
X572751Y-187920D01*
X571418Y-186587D01*
Y-185254D01*
X596750Y-202997D02*
Y-195000D01*
X592751D01*
X591418Y-196333D01*
Y-201665D01*
X592751Y-202997D01*
X596750D01*
X588752Y-195000D02*
Y-202997D01*
X583421Y-195000D01*
Y-202997D01*
X580755Y-195000D02*
Y-202997D01*
X576756D01*
X575423Y-201665D01*
Y-198999D01*
X576756Y-197666D01*
X580755D01*
X80000Y-114750D02*
X77334D01*
X78667D01*
Y-122747D01*
X80000Y-121414D01*
X73335D02*
X72003Y-122747D01*
X69337D01*
X68004Y-121414D01*
Y-120082D01*
X69337Y-118749D01*
X70670D01*
X69337D01*
X68004Y-117416D01*
Y-116083D01*
X69337Y-114750D01*
X72003D01*
X73335Y-116083D01*
X65338Y-121414D02*
X64005Y-122747D01*
X61339D01*
X60006Y-121414D01*
Y-116083D01*
X61339Y-114750D01*
X64005D01*
X65338Y-116083D01*
Y-121414D01*
X57341Y-120082D02*
Y-114750D01*
Y-117416D01*
X56008Y-118749D01*
X54675Y-120082D01*
X53342D01*
X60000Y-153001D02*
X52003D01*
X56001Y-157000D01*
Y-151668D01*
X60000Y-145004D02*
X52003D01*
X56001Y-149003D01*
Y-143671D01*
X60000Y-141005D02*
X58667D01*
Y-139672D01*
X60000D01*
Y-141005D01*
Y-129009D02*
Y-134341D01*
X54668Y-129009D01*
X53335D01*
X52003Y-130342D01*
Y-133008D01*
X53335Y-134341D01*
X54668Y-126343D02*
X60000D01*
X57334D01*
X56001Y-125010D01*
X54668Y-123677D01*
Y-122345D01*
X80000Y-154750D02*
X77334D01*
X78667D01*
Y-162747D01*
X80000Y-161415D01*
X73335D02*
X72003Y-162747D01*
X69337D01*
X68004Y-161415D01*
Y-160082D01*
X69337Y-158749D01*
X70670D01*
X69337D01*
X68004Y-157416D01*
Y-156083D01*
X69337Y-154750D01*
X72003D01*
X73335Y-156083D01*
X65338Y-161415D02*
X64005Y-162747D01*
X61339D01*
X60006Y-161415D01*
Y-156083D01*
X61339Y-154750D01*
X64005D01*
X65338Y-156083D01*
Y-161415D01*
X57341Y-160082D02*
Y-154750D01*
Y-157416D01*
X56008Y-158749D01*
X54675Y-160082D01*
X53342D01*
X-137997Y81932D02*
Y76600D01*
X-133999D01*
X-135332Y79266D01*
Y80599D01*
X-133999Y81932D01*
X-131333D01*
X-130000Y80599D01*
Y77933D01*
X-131333Y76600D01*
X-130000Y88596D02*
X-137997D01*
X-133999Y84598D01*
Y89929D01*
X-130000Y92595D02*
X-131333D01*
Y93928D01*
X-130000D01*
Y92595D01*
X-131333Y99259D02*
X-130000Y100592D01*
Y103258D01*
X-131333Y104591D01*
X-136664D01*
X-137997Y103258D01*
Y100592D01*
X-136664Y99259D01*
X-135332D01*
X-133999Y100592D01*
Y104591D01*
X-135332Y107257D02*
X-130000D01*
X-132666D01*
X-133999Y108590D01*
X-135332Y109923D01*
Y111256D01*
X-168251Y96600D02*
Y104598D01*
X-172250Y100599D01*
X-166918D01*
X-160254Y96600D02*
Y104598D01*
X-164253Y100599D01*
X-158921D01*
X-150924Y96600D02*
X-156255D01*
X-150924Y101932D01*
Y103265D01*
X-152256Y104598D01*
X-154922D01*
X-156255Y103265D01*
X-148258Y101932D02*
Y96600D01*
Y99266D01*
X-146925Y100599D01*
X-145592Y101932D01*
X-144259D01*
X-177997Y81932D02*
Y76600D01*
X-173999D01*
X-175332Y79266D01*
Y80599D01*
X-173999Y81932D01*
X-171333D01*
X-170000Y80599D01*
Y77933D01*
X-171333Y76600D01*
X-170000Y88596D02*
X-177997D01*
X-173999Y84598D01*
Y89929D01*
X-170000Y92595D02*
X-171333D01*
Y93928D01*
X-170000D01*
Y92595D01*
X-171333Y99259D02*
X-170000Y100592D01*
Y103258D01*
X-171333Y104591D01*
X-176665D01*
X-177997Y103258D01*
Y100592D01*
X-176665Y99259D01*
X-175332D01*
X-173999Y100592D01*
Y104591D01*
X-175332Y107257D02*
X-170000D01*
X-172666D01*
X-173999Y108590D01*
X-175332Y109923D01*
Y111256D01*
X-35997Y443750D02*
X-28000D01*
Y447749D01*
X-29333Y449082D01*
X-34664D01*
X-35997Y447749D01*
Y443750D01*
X-28000Y451747D02*
X-35997D01*
X-28000Y457079D01*
X-35997D01*
X-28000Y459745D02*
X-35997D01*
Y463744D01*
X-34664Y465076D01*
X-31999D01*
X-30666Y463744D01*
Y459745D01*
X160000Y592250D02*
Y589584D01*
Y590917D01*
X167997D01*
X166665Y592250D01*
X160000Y585586D02*
X161333D01*
Y584253D01*
X160000D01*
Y585586D01*
X167997Y573589D02*
Y578921D01*
X163999D01*
X165332Y576255D01*
Y574922D01*
X163999Y573589D01*
X161333D01*
X160000Y574922D01*
Y577588D01*
X161333Y578921D01*
X160000Y570924D02*
X167997D01*
X162666D02*
X165332Y566925D01*
X162666Y570924D02*
X160000Y566925D01*
X172500Y592250D02*
Y589584D01*
Y590917D01*
X180497D01*
X179165Y592250D01*
X172500Y585586D02*
X173833D01*
Y584253D01*
X172500D01*
Y585586D01*
X180497Y573589D02*
Y578921D01*
X176499D01*
X177832Y576255D01*
Y574922D01*
X176499Y573589D01*
X173833D01*
X172500Y574922D01*
Y577588D01*
X173833Y578921D01*
X172500Y570924D02*
X180497D01*
X175166D02*
X177832Y566925D01*
X175166Y570924D02*
X172500Y566925D01*
X150000Y536000D02*
Y533334D01*
Y534667D01*
X157997D01*
X156664Y536000D01*
X150000Y529336D02*
X151333D01*
Y528003D01*
X150000D01*
Y529336D01*
X157997Y517339D02*
Y522671D01*
X153999D01*
X155332Y520005D01*
Y518672D01*
X153999Y517339D01*
X151333D01*
X150000Y518672D01*
Y521338D01*
X151333Y522671D01*
X150000Y514674D02*
X157997D01*
X152666D02*
X155332Y510675D01*
X152666Y514674D02*
X150000Y510675D01*
X135000Y536000D02*
Y533334D01*
Y534667D01*
X142997D01*
X141664Y536000D01*
X135000Y529336D02*
X136333D01*
Y528003D01*
X135000D01*
Y529336D01*
X142997Y517339D02*
Y522671D01*
X138999D01*
X140332Y520005D01*
Y518672D01*
X138999Y517339D01*
X136333D01*
X135000Y518672D01*
Y521338D01*
X136333Y522671D01*
X135000Y514674D02*
X142997D01*
X137666D02*
X140332Y510675D01*
X137666Y514674D02*
X135000Y510675D01*
X-445000Y-298500D02*
X-442334D01*
X-443667D01*
Y-290503D01*
X-445000Y-291835D01*
X-438335D02*
X-437003Y-290503D01*
X-434337D01*
X-433004Y-291835D01*
Y-297167D01*
X-434337Y-298500D01*
X-437003D01*
X-438335Y-297167D01*
Y-291835D01*
X-430338D02*
X-429005Y-290503D01*
X-426339D01*
X-425006Y-291835D01*
Y-297167D01*
X-426339Y-298500D01*
X-429005D01*
X-430338Y-297167D01*
Y-291835D01*
X-422341Y-298500D02*
Y-293168D01*
X-418342D01*
X-417009Y-294501D01*
Y-298500D01*
X-409012Y-290503D02*
X-414343D01*
Y-294501D01*
X-411677D01*
X-414343D01*
Y-298500D01*
X-575500Y-236000D02*
X-578166D01*
X-576833D01*
Y-243997D01*
X-575500Y-242665D01*
X-582164D02*
X-583497Y-243997D01*
X-586163D01*
X-587496Y-242665D01*
Y-237333D01*
X-586163Y-236000D01*
X-583497D01*
X-582164Y-237333D01*
Y-242665D01*
X-590162D02*
X-591495Y-243997D01*
X-594161D01*
X-595494Y-242665D01*
Y-237333D01*
X-594161Y-236000D01*
X-591495D01*
X-590162Y-237333D01*
Y-242665D01*
X-598159Y-236000D02*
Y-241332D01*
X-602158D01*
X-603491Y-239999D01*
Y-236000D01*
X-611488Y-243997D02*
X-606157D01*
Y-239999D01*
X-608823D01*
X-606157D01*
Y-236000D01*
X444000Y-297530D02*
X446666D01*
X445333D01*
Y-289533D01*
X444000Y-290865D01*
X450664D02*
X451997Y-289533D01*
X454663D01*
X455996Y-290865D01*
Y-296197D01*
X454663Y-297530D01*
X451997D01*
X450664Y-296197D01*
Y-290865D01*
X458662D02*
X459995Y-289533D01*
X462661D01*
X463993Y-290865D01*
Y-296197D01*
X462661Y-297530D01*
X459995D01*
X458662Y-296197D01*
Y-290865D01*
X466659Y-297530D02*
Y-292198D01*
X470658D01*
X471991Y-293531D01*
Y-297530D01*
X479988Y-289533D02*
X474657D01*
Y-293531D01*
X477323D01*
X474657D01*
Y-297530D01*
X313500Y-244000D02*
X310834D01*
X312167D01*
Y-251997D01*
X313500Y-250665D01*
X306835D02*
X305502Y-251997D01*
X302837D01*
X301504Y-250665D01*
Y-245333D01*
X302837Y-244000D01*
X305502D01*
X306835Y-245333D01*
Y-250665D01*
X298838D02*
X297505Y-251997D01*
X294839D01*
X293506Y-250665D01*
Y-245333D01*
X294839Y-244000D01*
X297505D01*
X298838Y-245333D01*
Y-250665D01*
X290841Y-244000D02*
Y-249332D01*
X286842D01*
X285509Y-247999D01*
Y-244000D01*
X277512Y-251997D02*
X282843D01*
Y-247999D01*
X280177D01*
X282843D01*
Y-244000D01*
X-712831Y577400D02*
X-707500D01*
X-712831Y572068D01*
Y570735D01*
X-711498Y569403D01*
X-708833D01*
X-707500Y570735D01*
X-715497Y577400D02*
Y576067D01*
X-716830D01*
Y577400D01*
X-715497D01*
X-727493D02*
X-722162D01*
X-727493Y572068D01*
Y570735D01*
X-726161Y569403D01*
X-723495D01*
X-722162Y570735D01*
X-730159Y572068D02*
Y576067D01*
X-731492Y577400D01*
X-735491D01*
Y572068D01*
X-743488Y569403D02*
X-738157D01*
Y573401D01*
X-740822D01*
X-738157D01*
Y577400D01*
X-712831Y531400D02*
X-707500D01*
X-712831Y526068D01*
Y524735D01*
X-711498Y523403D01*
X-708833D01*
X-707500Y524735D01*
X-715497Y531400D02*
Y530067D01*
X-716830D01*
Y531400D01*
X-715497D01*
X-727493D02*
X-722162D01*
X-727493Y526068D01*
Y524735D01*
X-726161Y523403D01*
X-723495D01*
X-722162Y524735D01*
X-730159Y526068D02*
Y530067D01*
X-731492Y531400D01*
X-735491D01*
Y526068D01*
X-743488Y523403D02*
X-738157D01*
Y527401D01*
X-740822D01*
X-738157D01*
Y531400D01*
X-712831Y554425D02*
X-707500D01*
X-712831Y549093D01*
Y547761D01*
X-711498Y546428D01*
X-708833D01*
X-707500Y547761D01*
X-715497Y554425D02*
Y553092D01*
X-716830D01*
Y554425D01*
X-715497D01*
X-727493D02*
X-722162D01*
X-727493Y549093D01*
Y547761D01*
X-726161Y546428D01*
X-723495D01*
X-722162Y547761D01*
X-730159Y549093D02*
Y553092D01*
X-731492Y554425D01*
X-735491D01*
Y549093D01*
X-743488Y546428D02*
X-738157D01*
Y550426D01*
X-740822D01*
X-738157D01*
Y554425D01*
X-624418Y522400D02*
X-629750D01*
X-624418Y527732D01*
Y529064D01*
X-625751Y530397D01*
X-628417D01*
X-629750Y529064D01*
X-621753Y522400D02*
Y523733D01*
X-620420D01*
Y522400D01*
X-621753D01*
X-609756D02*
X-615088D01*
X-609756Y527732D01*
Y529064D01*
X-611089Y530397D01*
X-613755D01*
X-615088Y529064D01*
X-607090Y527732D02*
Y523733D01*
X-605758Y522400D01*
X-601759D01*
Y527732D01*
X-593761Y530397D02*
X-599093D01*
Y526399D01*
X-596427D01*
X-599093D01*
Y522400D01*
X-624668Y545425D02*
X-630000D01*
X-624668Y550757D01*
Y552090D01*
X-626001Y553422D01*
X-628667D01*
X-630000Y552090D01*
X-622002Y545425D02*
Y546758D01*
X-620670D01*
Y545425D01*
X-622002D01*
X-610006D02*
X-615338D01*
X-610006Y550757D01*
Y552090D01*
X-611339Y553422D01*
X-614005D01*
X-615338Y552090D01*
X-607341Y550757D02*
Y546758D01*
X-606008Y545425D01*
X-602009D01*
Y550757D01*
X-594011Y553422D02*
X-599343D01*
Y549424D01*
X-596677D01*
X-599343D01*
Y545425D01*
X-648500Y589900D02*
X-651166D01*
X-649833D01*
Y581903D01*
X-648500Y583236D01*
X-655164Y584568D02*
Y588567D01*
X-656497Y589900D01*
X-660496D01*
Y584568D01*
X-668493Y581903D02*
X-663162D01*
Y585901D01*
X-665828D01*
X-663162D01*
Y589900D01*
X-740500Y532403D02*
Y540400D01*
X-744499D01*
X-745831Y539067D01*
Y533736D01*
X-744499Y532403D01*
X-740500D01*
X-748497Y540400D02*
Y532403D01*
X-753829Y540400D01*
Y532403D01*
X-756495Y540400D02*
Y532403D01*
X-760493D01*
X-761826Y533736D01*
Y536401D01*
X-760493Y537734D01*
X-756495D01*
X-740500Y524735D02*
X-741833Y523403D01*
X-744499D01*
X-745831Y524735D01*
Y530067D01*
X-744499Y531400D01*
X-741833D01*
X-740500Y530067D01*
Y524735D01*
X-748497Y526068D02*
Y531400D01*
Y528734D01*
X-749830Y527401D01*
X-751163Y526068D01*
X-752496D01*
X-763668Y540770D02*
X-769000D01*
X-763668Y546102D01*
Y547435D01*
X-765001Y548768D01*
X-767667D01*
X-769000Y547435D01*
X-761002Y540770D02*
Y542103D01*
X-759669D01*
Y540770D01*
X-761002D01*
X-750339D02*
Y548768D01*
X-754338Y544769D01*
X-749006D01*
X-746340Y540770D02*
Y548768D01*
Y543436D02*
X-742342Y546102D01*
X-746340Y543436D02*
X-742342Y540770D01*
X-769000Y551103D02*
X-767667Y549770D01*
X-765001D01*
X-763668Y551103D01*
Y556435D01*
X-765001Y557767D01*
X-767667D01*
X-769000Y556435D01*
Y555102D01*
X-767667Y553769D01*
X-763668D01*
X-761002Y549770D02*
Y551103D01*
X-759669D01*
Y549770D01*
X-761002D01*
X-754338D02*
X-751672D01*
X-753005D01*
Y557767D01*
X-754338Y556435D01*
X-747673Y549770D02*
Y557767D01*
Y552436D02*
X-743675Y555102D01*
X-747673Y552436D02*
X-743675Y549770D01*
X-740500Y522400D02*
X-743166D01*
X-741833D01*
Y514403D01*
X-740500Y515735D01*
X-747164D02*
X-748497Y514403D01*
X-751163D01*
X-752496Y515735D01*
Y521067D01*
X-751163Y522400D01*
X-748497D01*
X-747164Y521067D01*
Y515735D01*
X-755162Y522400D02*
Y514403D01*
Y519734D02*
X-759161Y517068D01*
X-755162Y519734D02*
X-759161Y522400D01*
X-740500Y575656D02*
X-741833Y576989D01*
X-744499D01*
X-745831Y575656D01*
Y570324D01*
X-744499Y568991D01*
X-741833D01*
X-740500Y570324D01*
Y571657D01*
X-741833Y572990D01*
X-745831D01*
X-748497Y576989D02*
Y575656D01*
X-749830D01*
Y576989D01*
X-748497D01*
X-755162D02*
X-757828D01*
X-756495D01*
Y568991D01*
X-755162Y570324D01*
X-761826Y576989D02*
Y568991D01*
Y574323D02*
X-765825Y571657D01*
X-761826Y574323D02*
X-765825Y576989D01*
X-763668Y558989D02*
X-769000D01*
X-763668Y564320D01*
Y565653D01*
X-765001Y566986D01*
X-767667D01*
X-769000Y565653D01*
X-761002Y558989D02*
Y560322D01*
X-759669D01*
Y558989D01*
X-761002D01*
X-750339D02*
Y566986D01*
X-754338Y562988D01*
X-749006D01*
X-746340Y558989D02*
Y566986D01*
Y561655D02*
X-742342Y564320D01*
X-746340Y561655D02*
X-742342Y558989D01*
X-769000Y576989D02*
X-766334D01*
X-767667D01*
Y584986D01*
X-769000Y583653D01*
X-762335D02*
X-761002Y584986D01*
X-758337D01*
X-757004Y583653D01*
Y578322D01*
X-758337Y576989D01*
X-761002D01*
X-762335Y578322D01*
Y583653D01*
X-754338Y576989D02*
Y584986D01*
Y579655D02*
X-750339Y582320D01*
X-754338Y579655D02*
X-750339Y576989D01*
X-624418Y432400D02*
X-629750D01*
X-624418Y437732D01*
Y439064D01*
X-625751Y440397D01*
X-628417D01*
X-629750Y439064D01*
X-621753Y432400D02*
Y433733D01*
X-620420D01*
Y432400D01*
X-621753D01*
X-609756D02*
X-615088D01*
X-609756Y437732D01*
Y439064D01*
X-611089Y440397D01*
X-613755D01*
X-615088Y439064D01*
X-607090Y437732D02*
Y433733D01*
X-605758Y432400D01*
X-601759D01*
Y437732D01*
X-593761Y440397D02*
X-599093D01*
Y436399D01*
X-596427D01*
X-599093D01*
Y432400D01*
X-624668Y455425D02*
X-630000D01*
X-624668Y460757D01*
Y462090D01*
X-626001Y463422D01*
X-628667D01*
X-630000Y462090D01*
X-622002Y455425D02*
Y456758D01*
X-620670D01*
Y455425D01*
X-622002D01*
X-610006D02*
X-615338D01*
X-610006Y460757D01*
Y462090D01*
X-611339Y463422D01*
X-614005D01*
X-615338Y462090D01*
X-607341Y460757D02*
Y456758D01*
X-606008Y455425D01*
X-602009D01*
Y460757D01*
X-594011Y463422D02*
X-599343D01*
Y459424D01*
X-596677D01*
X-599343D01*
Y455425D01*
X-740500Y442403D02*
Y450400D01*
X-744499D01*
X-745831Y449067D01*
Y443736D01*
X-744499Y442403D01*
X-740500D01*
X-748497Y450400D02*
Y442403D01*
X-753829Y450400D01*
Y442403D01*
X-756495Y450400D02*
Y442403D01*
X-760493D01*
X-761826Y443736D01*
Y446401D01*
X-760493Y447734D01*
X-756495D01*
X-740500Y432400D02*
X-743166D01*
X-741833D01*
Y424403D01*
X-740500Y425735D01*
X-747164D02*
X-748497Y424403D01*
X-751163D01*
X-752496Y425735D01*
Y431067D01*
X-751163Y432400D01*
X-748497D01*
X-747164Y431067D01*
Y425735D01*
X-755162Y432400D02*
Y424403D01*
Y429734D02*
X-759161Y427068D01*
X-755162Y429734D02*
X-759161Y432400D01*
X-740500Y434735D02*
X-741833Y433403D01*
X-744499D01*
X-745831Y434735D01*
Y440067D01*
X-744499Y441400D01*
X-741833D01*
X-740500Y440067D01*
Y434735D01*
X-748497Y436068D02*
Y441400D01*
Y438734D01*
X-749830Y437401D01*
X-751163Y436068D01*
X-752496D01*
X-763668Y468989D02*
X-769000D01*
X-763668Y474320D01*
Y475653D01*
X-765001Y476986D01*
X-767667D01*
X-769000Y475653D01*
X-761002Y468989D02*
Y470322D01*
X-759669D01*
Y468989D01*
X-761002D01*
X-750339D02*
Y476986D01*
X-754338Y472988D01*
X-749006D01*
X-746340Y468989D02*
Y476986D01*
Y471655D02*
X-742342Y474320D01*
X-746340Y471655D02*
X-742342Y468989D01*
X-740500Y485656D02*
X-741833Y486989D01*
X-744499D01*
X-745831Y485656D01*
Y480324D01*
X-744499Y478991D01*
X-741833D01*
X-740500Y480324D01*
Y481657D01*
X-741833Y482990D01*
X-745831D01*
X-748497Y486989D02*
Y485656D01*
X-749830D01*
Y486989D01*
X-748497D01*
X-755162D02*
X-757828D01*
X-756495D01*
Y478991D01*
X-755162Y480324D01*
X-761826Y486989D02*
Y478991D01*
Y484323D02*
X-765825Y481657D01*
X-761826Y484323D02*
X-765825Y486989D01*
X-769000Y486989D02*
X-766334D01*
X-767667D01*
Y494986D01*
X-769000Y493653D01*
X-762335D02*
X-761002Y494986D01*
X-758337D01*
X-757004Y493653D01*
Y488322D01*
X-758337Y486989D01*
X-761002D01*
X-762335Y488322D01*
Y493653D01*
X-754338Y486989D02*
Y494986D01*
Y489655D02*
X-750339Y492320D01*
X-754338Y489655D02*
X-750339Y486989D01*
X-763668Y450770D02*
X-769000D01*
X-763668Y456102D01*
Y457435D01*
X-765001Y458768D01*
X-767667D01*
X-769000Y457435D01*
X-761002Y450770D02*
Y452103D01*
X-759669D01*
Y450770D01*
X-761002D01*
X-750339D02*
Y458768D01*
X-754338Y454769D01*
X-749006D01*
X-746340Y450770D02*
Y458768D01*
Y453436D02*
X-742342Y456102D01*
X-746340Y453436D02*
X-742342Y450770D01*
X-769000Y461103D02*
X-767667Y459770D01*
X-765001D01*
X-763668Y461103D01*
Y466435D01*
X-765001Y467767D01*
X-767667D01*
X-769000Y466435D01*
Y465102D01*
X-767667Y463769D01*
X-763668D01*
X-761002Y459770D02*
Y461103D01*
X-759669D01*
Y459770D01*
X-761002D01*
X-754338D02*
X-751672D01*
X-753005D01*
Y467767D01*
X-754338Y466435D01*
X-747673Y459770D02*
Y467767D01*
Y462436D02*
X-743675Y465102D01*
X-747673Y462436D02*
X-743675Y459770D01*
X-712831Y487400D02*
X-707500D01*
X-712831Y482068D01*
Y480735D01*
X-711498Y479403D01*
X-708833D01*
X-707500Y480735D01*
X-715497Y487400D02*
Y486067D01*
X-716830D01*
Y487400D01*
X-715497D01*
X-727493D02*
X-722162D01*
X-727493Y482068D01*
Y480735D01*
X-726161Y479403D01*
X-723495D01*
X-722162Y480735D01*
X-730159Y482068D02*
Y486067D01*
X-731492Y487400D01*
X-735491D01*
Y482068D01*
X-743488Y479403D02*
X-738157D01*
Y483401D01*
X-740822D01*
X-738157D01*
Y487400D01*
X-712831Y464425D02*
X-707500D01*
X-712831Y459093D01*
Y457761D01*
X-711498Y456428D01*
X-708833D01*
X-707500Y457761D01*
X-715497Y464425D02*
Y463092D01*
X-716830D01*
Y464425D01*
X-715497D01*
X-727493D02*
X-722162D01*
X-727493Y459093D01*
Y457761D01*
X-726161Y456428D01*
X-723495D01*
X-722162Y457761D01*
X-730159Y459093D02*
Y463092D01*
X-731492Y464425D01*
X-735491D01*
Y459093D01*
X-743488Y456428D02*
X-738157D01*
Y460426D01*
X-740822D01*
X-738157D01*
Y464425D01*
X-712831Y441400D02*
X-707500D01*
X-712831Y436068D01*
Y434735D01*
X-711498Y433403D01*
X-708833D01*
X-707500Y434735D01*
X-715497Y441400D02*
Y440067D01*
X-716830D01*
Y441400D01*
X-715497D01*
X-727493D02*
X-722162D01*
X-727493Y436068D01*
Y434735D01*
X-726160Y433403D01*
X-723495D01*
X-722162Y434735D01*
X-730159Y436068D02*
Y440067D01*
X-731492Y441400D01*
X-735491D01*
Y436068D01*
X-743488Y433403D02*
X-738157D01*
Y437401D01*
X-740822D01*
X-738157D01*
Y441400D01*
X-648500Y499900D02*
X-651166D01*
X-649833D01*
Y491903D01*
X-648500Y493236D01*
X-655164Y494568D02*
Y498567D01*
X-656497Y499900D01*
X-660496D01*
Y494568D01*
X-668493Y491903D02*
X-663162D01*
Y495901D01*
X-665828D01*
X-663162D01*
Y499900D01*
X-262500Y574500D02*
X-259834D01*
X-261167D01*
Y582497D01*
X-262500Y581165D01*
X-255835Y579832D02*
Y575833D01*
X-254503Y574500D01*
X-250504D01*
Y579832D01*
X-242507Y582497D02*
X-247838D01*
Y578499D01*
X-245172D01*
X-247838D01*
Y574500D01*
X-271000Y496000D02*
Y498666D01*
Y497333D01*
X-278997D01*
X-277665Y496000D01*
Y502664D02*
X-278997Y503997D01*
Y506663D01*
X-277665Y507996D01*
X-272333D01*
X-271000Y506663D01*
Y503997D01*
X-272333Y502664D01*
X-277665D01*
X-271000Y510662D02*
X-278997D01*
X-273666D02*
X-276332Y514661D01*
X-273666Y510662D02*
X-271000Y514661D01*
X-326500Y592082D02*
Y586750D01*
X-331831Y592082D01*
X-333164D01*
X-334497Y590749D01*
Y588083D01*
X-333164Y586750D01*
X-326500Y594748D02*
X-334497D01*
X-329166D02*
X-331831Y598746D01*
X-329166Y594748D02*
X-326500Y598746D01*
X-346668Y234600D02*
X-352000D01*
X-346668Y239931D01*
Y241264D01*
X-348001Y242597D01*
X-350667D01*
X-352000Y241264D01*
X-344002Y234600D02*
Y242597D01*
Y237265D02*
X-340004Y239931D01*
X-344002Y237265D02*
X-340004Y234600D01*
X101332D02*
X96000D01*
X101332Y239931D01*
Y241264D01*
X99999Y242597D01*
X97333D01*
X96000Y241264D01*
X103998Y234600D02*
Y242597D01*
Y237265D02*
X107997Y239931D01*
X103998Y237265D02*
X107997Y234600D01*
X247332D02*
X242000D01*
X247332Y239931D01*
Y241264D01*
X245999Y242597D01*
X243333D01*
X242000Y241264D01*
X249998Y234600D02*
Y242597D01*
Y237265D02*
X253997Y239931D01*
X249998Y237265D02*
X253997Y234600D01*
X-192668D02*
X-198000D01*
X-192668Y239931D01*
Y241264D01*
X-194001Y242597D01*
X-196667D01*
X-198000Y241264D01*
X-190002Y234600D02*
Y242597D01*
Y237265D02*
X-186003Y239931D01*
X-190002Y237265D02*
X-186003Y234600D01*
X-652668D02*
X-658000D01*
X-652668Y239931D01*
Y241264D01*
X-654001Y242597D01*
X-656667D01*
X-658000Y241264D01*
X-650002Y234600D02*
Y242597D01*
Y237265D02*
X-646003Y239931D01*
X-650002Y237265D02*
X-646003Y234600D01*
X556332D02*
X551000D01*
X556332Y239931D01*
Y241264D01*
X554999Y242597D01*
X552333D01*
X551000Y241264D01*
X558998Y234600D02*
Y242597D01*
Y237265D02*
X562996Y239931D01*
X558998Y237265D02*
X562996Y234600D01*
X-502668D02*
X-508000D01*
X-502668Y239931D01*
Y241264D01*
X-504001Y242597D01*
X-506667D01*
X-508000Y241264D01*
X-500002Y234600D02*
Y242597D01*
Y237265D02*
X-496003Y239931D01*
X-500002Y237265D02*
X-496003Y234600D01*
X-46668D02*
X-52000D01*
X-46668Y239931D01*
Y241264D01*
X-48001Y242597D01*
X-50667D01*
X-52000Y241264D01*
X-44002Y234600D02*
Y242597D01*
Y237265D02*
X-40003Y239931D01*
X-44002Y237265D02*
X-40003Y234600D01*
X403332D02*
X398000D01*
X403332Y239931D01*
Y241264D01*
X401999Y242597D01*
X399333D01*
X398000Y241264D01*
X405998Y234600D02*
Y242597D01*
Y237265D02*
X409996Y239931D01*
X405998Y237265D02*
X409996Y234600D01*
X704332D02*
X699000D01*
X704332Y239931D01*
Y241264D01*
X702999Y242597D01*
X700333D01*
X699000Y241264D01*
X706998Y234600D02*
Y242597D01*
Y237265D02*
X710996Y239931D01*
X706998Y237265D02*
X710996Y234600D01*
X-597000Y539397D02*
Y531400D01*
X-593001D01*
X-591668Y532733D01*
Y538064D01*
X-593001Y539397D01*
X-597000D01*
X-589002Y531400D02*
Y539397D01*
X-583671Y531400D01*
Y539397D01*
X-581005Y531400D02*
Y539397D01*
X-577006D01*
X-575673Y538064D01*
Y535399D01*
X-577006Y534066D01*
X-581005D01*
X-568500Y524735D02*
X-569833Y523403D01*
X-572499D01*
X-573831Y524735D01*
Y530067D01*
X-572499Y531400D01*
X-569833D01*
X-568500Y530067D01*
Y524735D01*
X-576497Y526068D02*
Y531400D01*
Y528734D01*
X-577830Y527401D01*
X-579163Y526068D01*
X-580496D01*
X-591668Y540770D02*
X-597000D01*
X-591668Y546102D01*
Y547435D01*
X-593001Y548768D01*
X-595667D01*
X-597000Y547435D01*
X-589002Y540770D02*
Y542103D01*
X-587669D01*
Y540770D01*
X-589002D01*
X-578339D02*
Y548768D01*
X-582338Y544769D01*
X-577006D01*
X-574341Y540770D02*
Y548768D01*
Y543436D02*
X-570342Y546102D01*
X-574341Y543436D02*
X-570342Y540770D01*
X-568500Y557437D02*
X-569833Y558770D01*
X-572499D01*
X-573831Y557437D01*
Y552106D01*
X-572499Y550773D01*
X-569833D01*
X-568500Y552106D01*
Y553438D01*
X-569833Y554771D01*
X-573831D01*
X-576497Y558770D02*
Y557437D01*
X-577830D01*
Y558770D01*
X-576497D01*
X-583162D02*
X-585828D01*
X-584495D01*
Y550773D01*
X-583162Y552106D01*
X-589826Y558770D02*
Y550773D01*
Y556104D02*
X-593825Y553438D01*
X-589826Y556104D02*
X-593825Y558770D01*
X-568500Y522400D02*
X-571166D01*
X-569833D01*
Y514403D01*
X-568500Y515735D01*
X-575164D02*
X-576497Y514403D01*
X-579163D01*
X-580496Y515735D01*
Y521067D01*
X-579163Y522400D01*
X-576497D01*
X-575164Y521067D01*
Y515735D01*
X-583162Y522400D02*
Y514403D01*
Y519734D02*
X-587160Y517068D01*
X-583162Y519734D02*
X-587160Y522400D01*
X-594831Y577400D02*
X-589500D01*
X-594831Y572068D01*
Y570735D01*
X-593499Y569403D01*
X-590833D01*
X-589500Y570735D01*
X-597497Y577400D02*
Y576067D01*
X-598830D01*
Y577400D01*
X-597497D01*
X-609493D02*
X-604162D01*
X-609493Y572068D01*
Y570735D01*
X-608161Y569403D01*
X-605495D01*
X-604162Y570735D01*
X-612159Y572068D02*
Y576067D01*
X-613492Y577400D01*
X-617491D01*
Y572068D01*
X-625488Y569403D02*
X-620157D01*
Y573401D01*
X-622822D01*
X-620157D01*
Y577400D01*
X-568500Y584067D02*
X-569833Y585400D01*
X-572499D01*
X-573831Y584067D01*
Y578736D01*
X-572499Y577403D01*
X-569833D01*
X-568500Y578736D01*
Y580068D01*
X-569833Y581401D01*
X-573831D01*
X-576497Y585400D02*
Y584067D01*
X-577830D01*
Y585400D01*
X-576497D01*
X-583162D02*
X-585828D01*
X-584495D01*
Y577403D01*
X-583162Y578736D01*
X-589826Y585400D02*
Y577403D01*
Y582734D02*
X-593825Y580068D01*
X-589826Y582734D02*
X-593825Y585400D01*
X-568500Y576400D02*
X-571166D01*
X-569833D01*
Y568403D01*
X-568500Y569735D01*
X-575164D02*
X-576497Y568403D01*
X-579163D01*
X-580496Y569735D01*
Y575067D01*
X-579163Y576400D01*
X-576497D01*
X-575164Y575067D01*
Y569735D01*
X-583162Y576400D02*
Y568403D01*
Y573734D02*
X-587160Y571068D01*
X-583162Y573734D02*
X-587160Y576400D01*
X-573831Y567400D02*
X-568500D01*
X-573831Y562068D01*
Y560736D01*
X-572499Y559403D01*
X-569833D01*
X-568500Y560736D01*
X-576497Y567400D02*
Y566067D01*
X-577830D01*
Y567400D01*
X-576497D01*
X-587160D02*
Y559403D01*
X-583162Y563401D01*
X-588493D01*
X-591159Y567400D02*
Y559403D01*
Y564734D02*
X-595158Y562068D01*
X-591159Y564734D02*
X-595158Y567400D01*
X-597000Y449397D02*
Y441400D01*
X-593001D01*
X-591668Y442733D01*
Y448064D01*
X-593001Y449397D01*
X-597000D01*
X-589002Y441400D02*
Y449397D01*
X-583671Y441400D01*
Y449397D01*
X-581005Y441400D02*
Y449397D01*
X-577006D01*
X-575673Y448064D01*
Y445399D01*
X-577006Y444066D01*
X-581005D01*
X-568500Y434735D02*
X-569833Y433403D01*
X-572499D01*
X-573831Y434735D01*
Y440067D01*
X-572499Y441400D01*
X-569833D01*
X-568500Y440067D01*
Y434735D01*
X-576497Y436068D02*
Y441400D01*
Y438734D01*
X-577830Y437401D01*
X-579163Y436068D01*
X-580496D01*
X-591668Y450770D02*
X-597000D01*
X-591668Y456102D01*
Y457435D01*
X-593001Y458768D01*
X-595667D01*
X-597000Y457435D01*
X-589002Y450770D02*
Y452103D01*
X-587669D01*
Y450770D01*
X-589002D01*
X-578339D02*
Y458768D01*
X-582338Y454769D01*
X-577006D01*
X-574341Y450770D02*
Y458768D01*
Y453436D02*
X-570342Y456102D01*
X-574341Y453436D02*
X-570342Y450770D01*
X-568500Y467437D02*
X-569833Y468770D01*
X-572499D01*
X-573831Y467437D01*
Y462106D01*
X-572499Y460773D01*
X-569833D01*
X-568500Y462106D01*
Y463438D01*
X-569833Y464771D01*
X-573831D01*
X-576497Y468770D02*
Y467437D01*
X-577830D01*
Y468770D01*
X-576497D01*
X-583162D02*
X-585828D01*
X-584495D01*
Y460773D01*
X-583162Y462106D01*
X-589826Y468770D02*
Y460773D01*
Y466104D02*
X-593825Y463438D01*
X-589826Y466104D02*
X-593825Y468770D01*
X-568500Y432400D02*
X-571166D01*
X-569833D01*
Y424403D01*
X-568500Y425735D01*
X-575164D02*
X-576497Y424403D01*
X-579163D01*
X-580496Y425735D01*
Y431067D01*
X-579163Y432400D01*
X-576497D01*
X-575164Y431067D01*
Y425735D01*
X-583162Y432400D02*
Y424403D01*
Y429734D02*
X-587160Y427068D01*
X-583162Y429734D02*
X-587160Y432400D01*
X-594831Y487400D02*
X-589500D01*
X-594831Y482068D01*
Y480735D01*
X-593499Y479403D01*
X-590833D01*
X-589500Y480735D01*
X-597497Y487400D02*
Y486067D01*
X-598830D01*
Y487400D01*
X-597497D01*
X-609493D02*
X-604162D01*
X-609493Y482068D01*
Y480735D01*
X-608161Y479403D01*
X-605495D01*
X-604162Y480735D01*
X-612159Y482068D02*
Y486067D01*
X-613492Y487400D01*
X-617491D01*
Y482068D01*
X-625488Y479403D02*
X-620157D01*
Y483401D01*
X-622822D01*
X-620157D01*
Y487400D01*
X-568500Y494067D02*
X-569833Y495400D01*
X-572499D01*
X-573831Y494067D01*
Y488736D01*
X-572499Y487403D01*
X-569833D01*
X-568500Y488736D01*
Y490068D01*
X-569833Y491401D01*
X-573831D01*
X-576497Y495400D02*
Y494067D01*
X-577830D01*
Y495400D01*
X-576497D01*
X-583162D02*
X-585828D01*
X-584495D01*
Y487403D01*
X-583162Y488736D01*
X-589826Y495400D02*
Y487403D01*
Y492734D02*
X-593825Y490068D01*
X-589826Y492734D02*
X-593825Y495400D01*
X-568500Y486400D02*
X-571166D01*
X-569833D01*
Y478403D01*
X-568500Y479735D01*
X-575164D02*
X-576497Y478403D01*
X-579163D01*
X-580496Y479735D01*
Y485067D01*
X-579163Y486400D01*
X-576497D01*
X-575164Y485067D01*
Y479735D01*
X-583162Y486400D02*
Y478403D01*
Y483734D02*
X-587160Y481068D01*
X-583162Y483734D02*
X-587160Y486400D01*
X-573831Y477400D02*
X-568500D01*
X-573831Y472068D01*
Y470736D01*
X-572499Y469403D01*
X-569833D01*
X-568500Y470736D01*
X-576497Y477400D02*
Y476067D01*
X-577830D01*
Y477400D01*
X-576497D01*
X-587160D02*
Y469403D01*
X-583162Y473401D01*
X-588493D01*
X-591159Y477400D02*
Y469403D01*
Y474734D02*
X-595158Y472068D01*
X-591159Y474734D02*
X-595158Y477400D01*
X-760500Y287931D02*
Y282600D01*
X-765832Y287931D01*
X-767165D01*
X-768497Y286598D01*
Y283933D01*
X-767165Y282600D01*
X-760500Y290597D02*
X-768497D01*
X-763166D02*
X-765832Y294596D01*
X-763166Y290597D02*
X-760500Y294596D01*
X-156750Y288181D02*
Y282850D01*
X-162081Y288181D01*
X-163414D01*
X-164747Y286849D01*
Y284183D01*
X-163414Y282850D01*
X-156750Y290847D02*
X-164747D01*
X-159416D02*
X-162081Y294846D01*
X-159416Y290847D02*
X-156750Y294846D01*
X-455082Y296007D02*
X-452416Y297340D01*
X-449750Y300006D01*
Y302672D01*
X-451083Y304005D01*
X-453749D01*
X-455082Y302672D01*
Y301339D01*
X-453749Y300006D01*
X-449750D01*
X-463079Y296007D02*
X-460413Y297340D01*
X-457747Y300006D01*
Y302672D01*
X-459080Y304005D01*
X-461746D01*
X-463079Y302672D01*
Y301339D01*
X-461746Y300006D01*
X-457747D01*
X-465745Y304005D02*
Y302672D01*
X-467078D01*
Y304005D01*
X-465745D01*
X-477741Y296007D02*
X-472409D01*
Y300006D01*
X-475075Y298673D01*
X-476408D01*
X-477741Y300006D01*
Y302672D01*
X-476408Y304005D01*
X-473742D01*
X-472409Y302672D01*
X-480407Y304005D02*
Y296007D01*
Y301339D02*
X-484406Y298673D01*
X-480407Y301339D02*
X-484406Y304005D01*
X-295573Y-380600D02*
Y-383266D01*
Y-381933D01*
X-287575D01*
X-288908Y-380600D01*
Y-387265D02*
X-287575Y-388597D01*
Y-391263D01*
X-288908Y-392596D01*
X-294240D01*
X-295573Y-391263D01*
Y-388597D01*
X-294240Y-387265D01*
X-288908D01*
Y-395262D02*
X-287575Y-396595D01*
Y-399261D01*
X-288908Y-400593D01*
X-294240D01*
X-295573Y-399261D01*
Y-396595D01*
X-294240Y-395262D01*
X-288908D01*
X-290241Y-403259D02*
X-295573D01*
X-292907D01*
X-291574Y-404592D01*
X-290241Y-405925D01*
Y-407258D01*
X541060Y603113D02*
Y599781D01*
Y601447D01*
X551057D01*
X549391Y603113D01*
X551057Y594782D02*
Y588118D01*
X549391D01*
X542726Y594782D01*
X541060D01*
Y584786D02*
X542726D01*
Y583120D01*
X541060D01*
Y584786D01*
X549391Y576455D02*
X551057Y574789D01*
Y571457D01*
X549391Y569790D01*
X547724D01*
X546058Y571457D01*
X544392Y569790D01*
X542726D01*
X541060Y571457D01*
Y574789D01*
X542726Y576455D01*
X544392D01*
X546058Y574789D01*
X547724Y576455D01*
X549391D01*
X546058Y574789D02*
Y571457D01*
X551057Y566458D02*
X544392D01*
X541060Y563126D01*
X544392Y559794D01*
X551057D01*
D104*
X870000Y619600D02*
G03*
X820000Y669600I-50000J-0D01*
G01*
X820000Y-530400D02*
G03*
X870000Y-480400I-0J50000D01*
G01*
X-870000Y-480400D02*
G03*
X-820000Y-530400I50000J0D01*
G01*
X-820000Y669600D02*
G03*
X-870000Y619600I0J-50000D01*
G01*
X487084Y565964D02*
Y600508D01*
X504890Y565964D02*
Y600508D01*
X487084Y565964D02*
X504890D01*
X487084Y600508D02*
X504890D01*
X273351Y419200D02*
X292656D01*
X273352Y429026D02*
X292656D01*
X292656Y419200D01*
X273351D02*
X273352Y429026D01*
X-279652Y-50000D02*
X-260348D01*
X-279652Y-40174D02*
X-260348D01*
Y-50000D02*
Y-40174D01*
X-279652Y-50000D02*
X-279652Y-40174D01*
X-295899Y-384002D02*
X-286073D01*
X-295899Y-364698D02*
X-286073D01*
X-295899Y-384002D02*
Y-364698D01*
X-286073Y-384002D02*
Y-364698D01*
X594101Y-384002D02*
X603927D01*
X594101Y-364698D02*
X603927D01*
X594101Y-384002D02*
Y-364698D01*
X603927Y-384002D02*
Y-364698D01*
X-313638Y42674D02*
X-313638Y52500D01*
X-332942D02*
X-332942Y42674D01*
X-313638D01*
X-332942Y52500D02*
X-313638D01*
X-315188Y-71826D02*
X-315188Y-62000D01*
X-334492D02*
X-334492Y-71826D01*
X-315188D01*
X-334492Y-62000D02*
X-315188D01*
X-351616Y52848D02*
X-341790Y52848D01*
X-351616Y72152D02*
X-341790Y72152D01*
X-351616Y52848D02*
Y72152D01*
X-341790Y52848D02*
Y72152D01*
X-332138Y42674D02*
X-332138Y52500D01*
X-351442D02*
X-351442Y42674D01*
X-332138D01*
X-351442Y52500D02*
X-332138D01*
X-330588Y-71826D02*
X-330588Y-62000D01*
X-349892D02*
X-349892Y-71826D01*
X-330588D01*
X-349892Y-62000D02*
X-330588D01*
X-279652Y-30000D02*
X-279652Y-20174D01*
X-260348D02*
X-260348Y-30000D01*
X-279652Y-20174D02*
X-260348D01*
X-279652Y-30000D02*
X-260348D01*
X678258Y-154412D02*
X702642D01*
X678258Y-165588D02*
X702642D01*
X678258D02*
Y-154412D01*
X702642Y-165588D02*
Y-154412D01*
X688288Y-192192D02*
Y-167808D01*
X677112Y-192192D02*
Y-167808D01*
X688288D01*
X677112Y-192192D02*
X688288D01*
X678258Y-194412D02*
X702642D01*
X678258Y-205588D02*
X702642D01*
X678258D02*
Y-194412D01*
X702642Y-205588D02*
Y-194412D01*
X-775142Y-160838D02*
Y-149662D01*
X-750758Y-160838D02*
Y-149662D01*
X-775142D02*
X-750758D01*
X-775142Y-160838D02*
X-750758D01*
X-760788Y-187442D02*
X-749612D01*
X-760788Y-163058D02*
X-749612D01*
X-760788Y-187442D02*
Y-163058D01*
X-749612Y-187442D02*
Y-163058D01*
X-775142Y-200838D02*
Y-189662D01*
X-750758Y-200838D02*
Y-189662D01*
X-775142D02*
X-750758D01*
X-775142Y-200838D02*
X-750758D01*
X-686058Y-160838D02*
Y-149662D01*
X-710442Y-160838D02*
Y-149662D01*
Y-160838D02*
X-686058D01*
X-710442Y-149662D02*
X-686058D01*
X-711588Y-187442D02*
X-700412D01*
X-711588Y-163058D02*
X-700412D01*
X-711588Y-187442D02*
Y-163058D01*
X-700412Y-187442D02*
Y-163058D01*
X-686058Y-200838D02*
Y-189662D01*
X-710442Y-200838D02*
Y-189662D01*
Y-200838D02*
X-686058D01*
X-710442Y-189662D02*
X-686058D01*
X-333153Y-230449D02*
X-325250Y-238352D01*
X-315911Y-213207D02*
X-308008Y-221110D01*
X-333153Y-230449D02*
X-315911Y-213207D01*
X-325250Y-238352D02*
X-308008Y-221110D01*
X-296171Y-247132D02*
X-288268Y-239229D01*
X-313413Y-229890D02*
X-305510Y-221987D01*
X-313413Y-229890D02*
X-296171Y-247132D01*
X-305510Y-221987D02*
X-288268Y-239229D01*
X-304552Y-258650D02*
X-296650Y-266552D01*
X-287310Y-241408D02*
X-279408Y-249310D01*
X-304552Y-258650D02*
X-287310Y-241408D01*
X-296650Y-266552D02*
X-279408Y-249310D01*
X-187358Y-125338D02*
Y-114162D01*
X-211742Y-125338D02*
Y-114162D01*
Y-125338D02*
X-187358D01*
X-211742Y-114162D02*
X-187358D01*
X-212888Y-151942D02*
X-201712D01*
X-212888Y-127558D02*
X-201712D01*
X-212888Y-151942D02*
Y-127558D01*
X-201712Y-151942D02*
Y-127558D01*
X-187358Y-165338D02*
Y-154162D01*
X-211742Y-165338D02*
Y-154162D01*
Y-165338D02*
X-187358D01*
X-211742Y-154162D02*
X-187358D01*
X-71308Y-165338D02*
Y-154162D01*
X-95692Y-165338D02*
Y-154162D01*
Y-165338D02*
X-71308D01*
X-95692Y-154162D02*
X-71308D01*
X-96838Y-127558D02*
X-85662D01*
X-96838Y-151942D02*
X-85662D01*
Y-127558D01*
X-96838Y-151942D02*
Y-127558D01*
X-71308Y-125338D02*
Y-114162D01*
X-95692Y-125338D02*
Y-114162D01*
Y-125338D02*
X-71308D01*
X-95692Y-114162D02*
X-71308D01*
X-55692Y-125338D02*
Y-114162D01*
X-31308Y-125338D02*
Y-114162D01*
X-55692D02*
X-31308D01*
X-55692Y-125338D02*
X-31308D01*
X-41338Y-151942D02*
X-30162D01*
X-41338Y-127558D02*
X-30162D01*
X-41338Y-151942D02*
Y-127558D01*
X-30162Y-151942D02*
Y-127558D01*
X-55692Y-165338D02*
Y-154162D01*
X-31308Y-165338D02*
Y-154162D01*
X-55692D02*
X-31308D01*
X-55692Y-165338D02*
X-31308D01*
X125808Y-125338D02*
Y-114162D01*
X150192Y-125338D02*
Y-114162D01*
X125808D02*
X150192D01*
X125808Y-125338D02*
X150192D01*
X140162Y-151942D02*
X151338D01*
X140162Y-127558D02*
X151338D01*
X140162Y-151942D02*
Y-127558D01*
X151338Y-151942D02*
Y-127558D01*
X125808Y-165338D02*
Y-154162D01*
X150192Y-165338D02*
Y-154162D01*
X125808D02*
X150192D01*
X125808Y-165338D02*
X150192D01*
X627358Y-165588D02*
Y-154412D01*
X651742Y-165588D02*
Y-154412D01*
X627358D02*
X651742D01*
X627358Y-165588D02*
X651742D01*
X641712Y-192192D02*
X652888D01*
X641712Y-167808D02*
X652888D01*
X641712Y-192192D02*
Y-167808D01*
X652888Y-192192D02*
Y-167808D01*
X627358Y-205588D02*
Y-194412D01*
X651742Y-205588D02*
Y-194412D01*
X627358D02*
X651742D01*
X627358Y-205588D02*
X651742D01*
X748308Y-165590D02*
Y-154414D01*
X772692Y-165590D02*
Y-154414D01*
X748308D02*
X772692D01*
X748308Y-165590D02*
X772692D01*
X762662Y-192194D02*
X773838D01*
X762662Y-167810D02*
X773838D01*
X762662Y-192194D02*
Y-167810D01*
X773838Y-192194D02*
Y-167810D01*
X591692Y-165588D02*
Y-154412D01*
X567308Y-165588D02*
Y-154412D01*
Y-165588D02*
X591692D01*
X567308Y-154412D02*
X591692D01*
X748308Y-205590D02*
Y-194414D01*
X772692Y-205590D02*
Y-194414D01*
X748308D02*
X772692D01*
X748308Y-205590D02*
X772692D01*
X216558Y-125338D02*
Y-114162D01*
X240942Y-125338D02*
Y-114162D01*
X216558D02*
X240942D01*
X216558Y-125338D02*
X240942D01*
X230912Y-151942D02*
X242089D01*
X230912Y-127558D02*
X242089D01*
X230912Y-151942D02*
Y-127558D01*
X242089Y-151942D02*
Y-127558D01*
X216558Y-165338D02*
Y-154162D01*
X240942Y-165338D02*
Y-154162D01*
X216558D02*
X240942D01*
X216558Y-165338D02*
X240942D01*
X566162Y-192192D02*
X577338D01*
X566162Y-167808D02*
X577338D01*
X566162Y-192192D02*
Y-167808D01*
X577338Y-192192D02*
Y-167808D01*
X591692Y-205588D02*
Y-194412D01*
X567308Y-205588D02*
Y-194412D01*
Y-205588D02*
X591692D01*
X567308Y-194412D02*
X591692D01*
X74942Y-125338D02*
Y-114162D01*
X50558Y-125338D02*
Y-114162D01*
Y-125338D02*
X74942D01*
X50558Y-114162D02*
X74942D01*
X49412Y-151942D02*
X60588D01*
X49412Y-127558D02*
X60588D01*
X49412Y-151942D02*
Y-127558D01*
X60588Y-151942D02*
Y-127558D01*
X74942Y-165338D02*
Y-154162D01*
X50558Y-165338D02*
Y-154162D01*
Y-165338D02*
X74942D01*
X50558Y-154162D02*
X74942D01*
X-140588Y81658D02*
X-129412D01*
X-140588Y106042D02*
X-129412D01*
X-140588Y81658D02*
Y106042D01*
X-129412Y81658D02*
Y106042D01*
X-167192Y96012D02*
Y107188D01*
X-142808Y96012D02*
Y107188D01*
X-167192D02*
X-142808D01*
X-167192Y96012D02*
X-142808D01*
X-180588Y81658D02*
X-169412D01*
X-180588Y106042D02*
X-169412D01*
X-180588Y81658D02*
X-180588Y106042D01*
X-169412Y81658D02*
X-169412Y106042D01*
X-820000Y669600D02*
X-820000Y669600D01*
X820000D01*
X-870000Y619600D02*
X-869957D01*
X-869957Y-480357D01*
X-870000Y-480400D02*
X-869957Y-480357D01*
X820000Y-530400D02*
Y-530400D01*
X-820000D02*
X820000D01*
X870000Y619600D02*
X870000Y-480400D01*
X870000Y619600D02*
X870000D01*
X-37326Y448348D02*
X-27500Y448348D01*
X-37326Y467652D02*
X-27500Y467652D01*
X-37326Y448348D02*
Y467652D01*
X-27500Y448348D02*
Y467652D01*
X-279652Y10000D02*
Y19826D01*
X-260348Y10000D02*
Y19826D01*
X-279652D02*
X-260348D01*
X-279652Y10000D02*
X-260348D01*
X-279652Y0D02*
Y9826D01*
X-260348Y0D02*
Y9826D01*
X-279652D02*
X-260348D01*
X-279652Y0D02*
X-260348D01*
X-279652Y-10000D02*
X-279652Y-174D01*
X-260348D02*
X-260348Y-10000D01*
X-279652Y-174D02*
X-260348D01*
X-279652Y-10000D02*
X-260348D01*
X-304960Y-42848D02*
X-295134Y-42848D01*
X-304960Y-62152D02*
X-295134Y-62152D01*
Y-42848D01*
X-304960Y-62152D02*
Y-42848D01*
X-279652Y-50174D02*
X-279652Y-60000D01*
X-260348Y-50174D02*
X-260348Y-60000D01*
X-279652Y-50174D02*
X-260348Y-50174D01*
X-279652Y-60000D02*
X-260348D01*
X-279652Y50000D02*
X-279652Y59826D01*
X-260348D02*
X-260348Y50000D01*
X-279652Y59826D02*
X-260348D01*
X-279652Y50000D02*
X-260348D01*
X-279652Y30000D02*
X-279652Y39826D01*
X-260348D02*
X-260348Y30000D01*
X-279652Y39826D02*
X-260348D01*
X-279652Y30000D02*
X-260348D01*
X-279652Y20000D02*
X-279652Y29826D01*
X-260348D02*
X-260348Y20000D01*
X-279652Y29826D02*
X-260348D01*
X-279652Y20000D02*
X-260348D01*
X-279652Y-20000D02*
X-279652Y-10174D01*
X-260348Y-20000D02*
Y-10174D01*
X-279652D02*
X-260348D01*
X-279652Y-20000D02*
X-260348Y-20000D01*
X159412Y587192D02*
X170588D01*
X159412Y562808D02*
X170588D01*
Y587192D01*
X159412Y562808D02*
Y587192D01*
X171912D02*
X183088D01*
X171912Y562808D02*
X183088D01*
Y587192D01*
X171912Y562808D02*
Y587192D01*
X149412Y530942D02*
X160588D01*
X149412Y506558D02*
X160588D01*
Y530942D01*
X149412Y506558D02*
Y530942D01*
X134412D02*
X145588D01*
X134412Y506558D02*
X145588D01*
Y530942D01*
X134412Y506558D02*
Y530942D01*
X-439942Y-299088D02*
X-415558D01*
X-439942Y-287912D02*
X-415558D01*
Y-299088D02*
Y-287912D01*
X-439942Y-299088D02*
Y-287912D01*
X-604942Y-235412D02*
X-580558D01*
X-604942Y-246588D02*
X-580558D01*
X-604942D02*
Y-235412D01*
X-580558Y-246588D02*
Y-235412D01*
X449058Y-298118D02*
X473442D01*
X449058Y-286942D02*
X473442D01*
Y-298118D02*
Y-286942D01*
X449058Y-298118D02*
Y-286942D01*
X284058Y-243412D02*
X308442D01*
X284058Y-254588D02*
X308442D01*
X284058D02*
Y-243412D01*
X308442Y-254588D02*
Y-243412D01*
X17851Y481347D02*
X17851Y491173D01*
X37155D02*
X37155Y481347D01*
X17851Y491173D02*
X37155D01*
X17851Y481347D02*
X37155D01*
X-764402Y540900D02*
X-745098D01*
X-764402Y531074D02*
X-745098D01*
X-764402D02*
Y540900D01*
X-745098Y531074D02*
Y540900D01*
X-764402Y531900D02*
X-745098D01*
X-764402Y522074D02*
X-745098D01*
X-764402D02*
Y531900D01*
X-745098Y522074D02*
Y531900D01*
X-764402Y540270D02*
X-745098D01*
X-764402Y550096D02*
X-745098D01*
Y540270D02*
Y550096D01*
X-764402Y540270D02*
Y550096D01*
Y549270D02*
X-745098D01*
X-764402Y559096D02*
X-745098D01*
Y549270D02*
Y559096D01*
X-764402Y549270D02*
Y559096D01*
X-764402Y522900D02*
X-745098D01*
X-764402Y513074D02*
X-745098D01*
X-764402D02*
Y522900D01*
X-745098Y513074D02*
Y522900D01*
X-764402Y577489D02*
X-745098D01*
X-764402Y567663D02*
X-745098D01*
X-764402D02*
Y577489D01*
X-745098Y567663D02*
Y577489D01*
X-764402Y558489D02*
X-745098D01*
X-764402Y568315D02*
X-745098D01*
Y558489D02*
Y568315D01*
X-764402Y558489D02*
Y568315D01*
Y576489D02*
X-745098D01*
X-764402Y586315D02*
X-745098D01*
Y576489D02*
Y586315D01*
X-764402Y576489D02*
Y586315D01*
X-764402Y450900D02*
X-745098D01*
X-764402Y441074D02*
X-745098D01*
X-764402Y450900D02*
X-764402Y441074D01*
X-745098D02*
X-745098Y450900D01*
X-764402Y432900D02*
X-745098D01*
X-764402Y423074D02*
X-745098D01*
X-764402Y432900D02*
X-764402Y423074D01*
X-745098D02*
X-745098Y432900D01*
X-764402Y441900D02*
X-745098D01*
X-764402Y432074D02*
X-745098D01*
X-764402Y441900D02*
X-764402Y432074D01*
X-745098D02*
X-745098Y441900D01*
X-764402Y468489D02*
X-745098D01*
X-764402Y478315D02*
X-745098D01*
X-745098Y468489D01*
X-764402D02*
X-764402Y478315D01*
X-764402Y487489D02*
X-745098D01*
X-764402Y477663D02*
X-745098D01*
X-764402Y487489D02*
X-764402Y477663D01*
X-745098D02*
X-745098Y487489D01*
X-764402Y486489D02*
X-745098D01*
X-764402Y496315D02*
X-745098D01*
X-745098Y486489D01*
X-764402D02*
X-764402Y496315D01*
X-764402Y450270D02*
X-745098D01*
X-764402Y460096D02*
X-745098D01*
X-745098Y450270D01*
X-764402D02*
X-764402Y460096D01*
X-764402Y459270D02*
X-745098D01*
X-764402Y469096D02*
X-745098D01*
X-745098Y459270D01*
X-764402D02*
X-764402Y469096D01*
X-281588Y501058D02*
X-270412D01*
X-281588Y525442D02*
X-270412D01*
X-281588Y501058D02*
Y525442D01*
X-270412Y501058D02*
Y525442D01*
X-335826Y591348D02*
X-326000D01*
X-335826Y610652D02*
X-326000Y610652D01*
X-335826Y591348D02*
Y610652D01*
X-326000Y591348D02*
Y610652D01*
X-347402Y234100D02*
Y243926D01*
X-328098Y234100D02*
Y243926D01*
X-347402D02*
X-328098D01*
X-347402Y234100D02*
X-328098D01*
X100598D02*
Y243926D01*
X119902Y234100D02*
Y243926D01*
X100598D02*
X119902D01*
X100598Y234100D02*
X119902D01*
X246598D02*
Y243926D01*
X265902Y234100D02*
Y243926D01*
X246598D02*
X265902D01*
X246598Y234100D02*
X265902D01*
X-193402D02*
Y243926D01*
X-174098Y234100D02*
Y243926D01*
X-193402D02*
X-174098D01*
X-193402Y234100D02*
X-174098D01*
X-653402D02*
Y243926D01*
X-634098Y234100D02*
Y243926D01*
X-653402D02*
X-634098D01*
X-653402Y234100D02*
X-634098D01*
X555598D02*
Y243926D01*
X574902Y234100D02*
Y243926D01*
X555598D02*
X574902D01*
X555598Y234100D02*
X574902D01*
X-503402D02*
Y243926D01*
X-484098Y234100D02*
Y243926D01*
X-503402D02*
X-484098D01*
X-503402Y234100D02*
X-484098D01*
X-47402D02*
Y243926D01*
X-28098Y234100D02*
Y243926D01*
X-47402D02*
X-28098D01*
X-47402Y234100D02*
X-28098D01*
X402598D02*
Y243926D01*
X421902Y234100D02*
Y243926D01*
X402598D02*
X421902D01*
X402598Y234100D02*
X421902D01*
X703598D02*
X703598Y243926D01*
X722902D02*
X722902Y234100D01*
X703598Y243926D02*
X722902D01*
X703598Y234100D02*
X722902D01*
X-592402Y530900D02*
Y540726D01*
X-573098Y530900D02*
Y540726D01*
X-592402D02*
X-573098D01*
X-592402Y530900D02*
X-573098D01*
Y522074D02*
Y531900D01*
X-592402Y522074D02*
Y531900D01*
Y522074D02*
X-573098D01*
X-592402Y531900D02*
X-573098D01*
X-592402Y540270D02*
Y550096D01*
X-573098Y540270D02*
Y550096D01*
X-592402D02*
X-573098D01*
X-592402Y540270D02*
X-573098D01*
Y549444D02*
Y559270D01*
X-592402Y549444D02*
Y559270D01*
Y549444D02*
X-573098D01*
X-592402Y559270D02*
X-573098D01*
Y513074D02*
Y522900D01*
X-592402Y513074D02*
Y522900D01*
Y513074D02*
X-573098D01*
X-592402Y522900D02*
X-573098D01*
X-573098Y576074D02*
Y585900D01*
X-592402Y576074D02*
Y585900D01*
Y576074D02*
X-573098D01*
X-592402Y585900D02*
X-573098D01*
Y567074D02*
Y576900D01*
X-592402Y567074D02*
Y576900D01*
Y567074D02*
X-573098D01*
X-592402Y576900D02*
X-573098D01*
Y558074D02*
Y567900D01*
X-592402Y558074D02*
Y567900D01*
Y558074D02*
X-573098D01*
X-592402Y567900D02*
X-573098D01*
X-592402Y440900D02*
X-592402Y450726D01*
X-573098D02*
X-573098Y440900D01*
X-592402Y450726D02*
X-573098D01*
X-592402Y440900D02*
X-573098D01*
X-573098Y432074D02*
Y441900D01*
X-592402Y432074D02*
Y441900D01*
Y432074D02*
X-573098D01*
X-592402Y441900D02*
X-573098D01*
X-592402Y450270D02*
X-592402Y460096D01*
X-573098D02*
X-573098Y450270D01*
X-592402Y460096D02*
X-573098D01*
X-592402Y450270D02*
X-573098D01*
X-573098Y459444D02*
Y469270D01*
X-592402Y459444D02*
X-592402Y469270D01*
X-592402Y459444D02*
X-573098D01*
X-592402Y469270D02*
X-573098D01*
Y423074D02*
Y432900D01*
X-592402Y423074D02*
X-592402Y432900D01*
X-592402Y423074D02*
X-573098D01*
X-592402Y432900D02*
X-573098D01*
X-573098Y486074D02*
Y495900D01*
X-592402Y486074D02*
Y495900D01*
Y486074D02*
X-573098D01*
X-592402Y495900D02*
X-573098D01*
Y477074D02*
Y486900D01*
X-592402Y477074D02*
Y486900D01*
Y477074D02*
X-573098D01*
X-592402Y486900D02*
X-573098D01*
Y477900D02*
X-573098Y468074D01*
X-592402Y468074D02*
Y477900D01*
Y468074D02*
X-573098Y468074D01*
X-592402Y477900D02*
X-573098D01*
X-769826Y287198D02*
X-760000D01*
X-769826Y306502D02*
X-760000D01*
X-769826Y287198D02*
Y306502D01*
X-760000Y287198D02*
Y306502D01*
X-166076Y287448D02*
X-156250Y287448D01*
X-166076Y306752D02*
X-156250Y306752D01*
X-166076Y287448D02*
Y306752D01*
X-156250Y287448D02*
Y306752D01*
X-296073Y-385198D02*
X-286247Y-385198D01*
X-296073Y-404502D02*
X-286247Y-404502D01*
Y-385198D01*
X-296073Y-404502D02*
Y-385198D01*
X-357000Y13724D02*
Y33029D01*
X-366826Y13724D02*
Y33029D01*
X-357000Y33029D01*
X-366826Y13724D02*
X-357000Y13724D01*
Y-33275D02*
Y-13972D01*
X-366826Y-33275D02*
Y-13972D01*
X-357000Y-13972D01*
X-366826Y-33275D02*
X-357000Y-33275D01*
X-321942Y-312088D02*
X-297558D01*
X-321942Y-300912D02*
X-297558D01*
Y-312088D02*
Y-300912D01*
X-321942Y-312088D02*
Y-300912D01*
X569088Y40058D02*
Y64442D01*
X557912Y40058D02*
Y64442D01*
X569088D01*
X557912Y40058D02*
X569088D01*
X544912Y64442D02*
X556088D01*
X544912Y40058D02*
X556088D01*
Y64442D01*
X544912Y40058D02*
Y64442D01*
X531912D02*
X543088D01*
X531912Y40058D02*
X543088D01*
Y64442D01*
X531912Y40058D02*
Y64442D01*
X518912Y40058D02*
X530088D01*
X518912Y64442D02*
X530088D01*
X518912Y40058D02*
Y64442D01*
X530088Y40058D02*
Y64442D01*
X515588Y-34442D02*
Y-10058D01*
X504412Y-34442D02*
Y-10058D01*
X515588D01*
X504412Y-34442D02*
X515588D01*
X577338Y-77442D02*
Y-53058D01*
X566162Y-77442D02*
Y-53058D01*
X577338D01*
X566162Y-77442D02*
X577338D01*
X561838D02*
Y-53058D01*
X550662Y-77442D02*
Y-53058D01*
X561838D01*
X550662Y-77442D02*
X561838D01*
X537338D02*
Y-53058D01*
X526162Y-77442D02*
Y-53058D01*
X537338D01*
X526162Y-77442D02*
X537338D01*
X521838D02*
Y-53058D01*
X510662Y-77442D02*
Y-53058D01*
X521838D01*
X510662Y-77442D02*
X521838D01*
X576192Y-90838D02*
Y-79662D01*
X551808Y-90838D02*
Y-79662D01*
Y-90838D02*
X576192D01*
X551808Y-79662D02*
X576192D01*
X536192Y-90838D02*
Y-79662D01*
X511808Y-90838D02*
Y-79662D01*
Y-90838D02*
X536192D01*
X511808Y-79662D02*
X536192D01*
X723147Y49552D02*
X732973Y49552D01*
X723147Y30248D02*
X732973Y30248D01*
Y49552D01*
X723147Y30248D02*
Y49552D01*
X710821Y30248D02*
X720647Y30248D01*
X710821Y49552D02*
X720647Y49552D01*
X710821Y30248D02*
Y49552D01*
X720647Y30248D02*
Y49552D01*
X685647Y30248D02*
Y49552D01*
X695473Y30248D02*
Y49552D01*
X685647Y30248D02*
X695473Y30248D01*
X685647Y49552D02*
X695473Y49552D01*
X673147Y30248D02*
Y49552D01*
X682973Y30248D02*
Y49552D01*
X673147Y30248D02*
X682973Y30248D01*
X673147Y49552D02*
X682973D01*
X671000Y-1652D02*
Y17652D01*
X661174Y-1652D02*
Y17652D01*
X671000Y17652D01*
X661174Y-1652D02*
X671000D01*
X683588Y-3192D02*
Y21192D01*
X672412Y-3192D02*
Y21192D01*
X683588D01*
X672412Y-3192D02*
X683588D01*
X647559Y-2292D02*
X658735D01*
X647559Y22092D02*
X658735D01*
X647559Y-2292D02*
Y22092D01*
X658735Y-2292D02*
Y22092D01*
X672412Y-29942D02*
Y-5558D01*
X683588Y-29942D02*
Y-5558D01*
X672412Y-29942D02*
X683588D01*
X672412Y-5558D02*
X683588D01*
X569308Y-313358D02*
X593692D01*
X569308Y-302182D02*
X593692D01*
Y-313358D02*
Y-302182D01*
X569308Y-313358D02*
Y-302182D01*
X593927Y-404502D02*
Y-385198D01*
X603753Y-404502D02*
Y-385198D01*
X593927Y-404502D02*
X603753Y-404502D01*
X593927Y-385198D02*
X603753Y-385198D01*
X-400152Y520350D02*
X-380848D01*
X-400152Y510524D02*
X-380848D01*
X-400152D02*
Y520350D01*
X-380848Y510524D02*
Y520350D01*
X536644Y565591D02*
Y600135D01*
X554450Y565591D02*
Y600135D01*
X536644Y565591D02*
X554450D01*
X536644Y600135D02*
X554450D01*
X113147Y49552D02*
X122973Y49552D01*
X113147Y30248D02*
X122973Y30248D01*
Y49552D01*
X113147Y30248D02*
Y49552D01*
X200947Y30298D02*
Y49602D01*
X210773D02*
X210774Y30298D01*
X200947Y30298D02*
X210774Y30298D01*
X200947Y49602D02*
X210773D01*
X208545Y-32050D02*
X227850D01*
X208545Y-22224D02*
X227850Y-22224D01*
X227850Y-32050D01*
X208545Y-22224D02*
X208545Y-32050D01*
X188447Y30298D02*
X188447Y49602D01*
X198274Y30298D02*
Y49602D01*
X188447Y30298D02*
X198274Y30298D01*
X188447Y49602D02*
X198274Y49602D01*
X319412Y-64442D02*
X330588D01*
X319412Y-40058D02*
X330588D01*
X319412Y-64442D02*
Y-40058D01*
X330588Y-64442D02*
Y-40058D01*
X332412Y-64442D02*
X343588D01*
X332412Y-40058D02*
X343588D01*
X332412Y-64442D02*
Y-40058D01*
X343588Y-64442D02*
Y-40058D01*
X184700Y17252D02*
X184700Y-2052D01*
X174874Y-2052D02*
Y17252D01*
X184700Y17252D01*
X174874Y-2052D02*
X184700Y-2052D01*
X299308Y79662D02*
Y90838D01*
X323692Y79662D02*
Y90838D01*
X299308D02*
X323692D01*
X299308Y79662D02*
X323692D01*
X177848Y431700D02*
X197152D01*
X177848Y441526D02*
X197152D01*
X197152Y431700D02*
X197152Y441526D01*
X177848D02*
X177848Y431700D01*
X97503Y541694D02*
Y560998D01*
X107329Y541694D02*
Y560998D01*
X97503Y541694D02*
X107329Y541694D01*
X97503Y560998D02*
X107329Y560998D01*
X-77412Y40058D02*
Y64442D01*
X-88588Y40058D02*
Y64442D01*
X-77412D01*
X-88588Y40058D02*
X-77412D01*
X162610Y-2242D02*
X173785D01*
X162610Y22142D02*
X173785D01*
X162610Y-2242D02*
Y22142D01*
X173785Y-2242D02*
Y22142D01*
X225872Y30298D02*
X235697D01*
X225872Y49602D02*
X235697D01*
X225872Y30298D02*
Y49602D01*
X235697Y30298D02*
Y49602D01*
X339308Y79662D02*
Y90838D01*
X363692Y79662D02*
Y90838D01*
X339308D02*
X363692D01*
X339308Y79662D02*
X363692D01*
X77503Y541694D02*
Y560998D01*
X87329Y541694D02*
Y560998D01*
X77503Y541694D02*
X87329Y541694D01*
X77503Y560998D02*
X87329Y560998D01*
X-38412Y40058D02*
Y64442D01*
X-49588Y40058D02*
Y64442D01*
X-38412D01*
X-49588Y40058D02*
X-38412D01*
X-91412Y-33942D02*
X-91412Y-9558D01*
X-102588Y-33942D02*
X-102588Y-9558D01*
X-91412D01*
X-102588Y-33942D02*
X-91412D01*
X75697Y30298D02*
Y49602D01*
X85524Y30298D02*
Y49602D01*
X75697Y30298D02*
X85524Y30298D01*
X75697Y49602D02*
X85524Y49602D01*
X61112Y-30592D02*
Y-6208D01*
X72288Y-30592D02*
Y-6208D01*
X61112Y-30592D02*
X72288D01*
X61112Y-6208D02*
X72288D01*
X-85662Y-77442D02*
Y-53058D01*
X-96838Y-77442D02*
Y-53058D01*
X-85662D01*
X-96838Y-77442D02*
X-85662D01*
X-30162D02*
Y-53058D01*
X-41338Y-77442D02*
Y-53058D01*
X-30162D01*
X-41338Y-77442D02*
X-30162D01*
X72288Y-3592D02*
Y20792D01*
X61112Y-3592D02*
Y20792D01*
X72288D01*
X61112Y-3592D02*
X72288D01*
X107851Y501347D02*
X127155D01*
X107851Y491521D02*
X127155D01*
X107851Y501347D02*
X107851Y491521D01*
X127155D02*
X127155Y501347D01*
X17851Y471347D02*
X37155D01*
X17851Y481173D02*
X37155D01*
X37155Y471347D01*
X17851D02*
X17851Y481173D01*
X-367588Y-12315D02*
Y12069D01*
X-356412Y-12315D02*
Y12069D01*
X-367588Y-12315D02*
X-356412D01*
X-367588Y12069D02*
X-356412D01*
X-70162Y-77442D02*
Y-53058D01*
X-81338Y-77442D02*
Y-53058D01*
X-70162D01*
X-81338Y-77442D02*
X-70162D01*
X-45662D02*
Y-53058D01*
X-56838Y-77442D02*
Y-53058D01*
X-45662D01*
X-56838Y-77442D02*
X-45662D01*
X47753Y541694D02*
Y560998D01*
X57579Y541694D02*
Y560998D01*
X47753Y541694D02*
X57579Y541694D01*
X47753Y560998D02*
X57579Y560998D01*
X67503Y541694D02*
Y560998D01*
X77329Y541694D02*
Y560998D01*
X67503Y541694D02*
X77329Y541694D01*
X67503Y560998D02*
X77329Y560998D01*
X-191965Y22092D02*
X-191965Y-2292D01*
X-203141D02*
Y22092D01*
X-191965Y22092D01*
X-203141Y-2292D02*
X-191965D01*
X-202888Y-3208D02*
X-202888Y-27592D01*
X-191712Y-27592D02*
Y-3208D01*
X-202888Y-27592D02*
X-191712Y-27592D01*
X-202888Y-3208D02*
X-191712D01*
X37677Y451694D02*
X47503Y451694D01*
X37677Y470998D02*
X47503Y470998D01*
X37677Y451694D02*
Y470998D01*
X47503Y451694D02*
Y470998D01*
X17851Y501347D02*
X37155D01*
X17851Y491521D02*
X37155D01*
X17851Y501347D02*
X17851Y491521D01*
X37155D02*
X37155Y501347D01*
X107851Y491347D02*
X127155D01*
X107851Y481521D02*
X127155D01*
X107851D02*
Y491347D01*
X127155Y481521D02*
Y491347D01*
X97503Y451694D02*
Y470998D01*
X87677Y451694D02*
Y470998D01*
X97503D01*
X87677Y451694D02*
X97503D01*
X-151853Y49552D02*
X-142027Y49552D01*
X-151853Y30248D02*
X-142027Y30248D01*
Y49552D01*
X-151853Y30248D02*
Y49552D01*
X-501162Y40058D02*
Y64442D01*
X-512338Y40058D02*
Y64442D01*
X-501162D01*
X-512338Y40058D02*
X-501162D01*
X-495058Y-90838D02*
Y-79662D01*
X-519442Y-90838D02*
Y-79662D01*
Y-90838D02*
X-495058D01*
X-519442Y-79662D02*
X-495058D01*
X-616942Y13912D02*
X-592558Y13912D01*
X-616942Y25088D02*
X-592558Y25088D01*
Y13912D02*
Y25088D01*
X-616942Y13912D02*
Y25088D01*
X-747838Y7808D02*
X-736662D01*
X-747838Y32192D02*
X-736662D01*
X-747838D02*
X-747838Y7808D01*
X-736662Y32192D02*
X-736662Y7808D01*
X-486338Y64442D02*
X-475162D01*
X-486338Y40058D02*
X-475162D01*
Y64442D01*
X-486338Y40058D02*
Y64442D01*
X67503Y451694D02*
Y470998D01*
X57677Y451694D02*
Y470998D01*
X67503Y470998D01*
X57677Y451694D02*
X67503Y451694D01*
X-499338Y64442D02*
X-488162D01*
X-499338Y40058D02*
X-488162D01*
Y64442D01*
X-499338Y40058D02*
Y64442D01*
X-747838Y-32192D02*
X-736662D01*
X-747838Y-7808D02*
X-736662D01*
X-747838Y-32192D02*
Y-7808D01*
X-736662Y-32192D02*
Y-7808D01*
X-734442Y-33338D02*
X-710058Y-33338D01*
X-734442Y-22162D02*
X-710058Y-22162D01*
Y-33338D02*
Y-22162D01*
X-734442Y-33338D02*
Y-22162D01*
X-692192Y29012D02*
X-667808D01*
X-692192Y40188D02*
X-667808D01*
Y29012D02*
Y40188D01*
X-692192Y29012D02*
Y40188D01*
X100871Y30298D02*
X110697D01*
X100871Y49602D02*
X110697D01*
X100871Y30298D02*
Y49602D01*
X110697Y30298D02*
Y49602D01*
X107851Y521347D02*
X127155D01*
X107851Y511521D02*
X127155D01*
X107851D02*
X107851Y521347D01*
X127155D02*
X127155Y511521D01*
X345412Y-64442D02*
Y-40058D01*
X356588Y-64442D02*
Y-40058D01*
X345412Y-64442D02*
X356588D01*
X345412Y-40058D02*
X356588D01*
X359412Y10308D02*
Y34692D01*
X370588Y10308D02*
Y34692D01*
X359412Y10308D02*
X370588D01*
X359412Y34692D02*
X370588D01*
X37503Y541694D02*
Y560998D01*
X47329Y541694D02*
Y560998D01*
X37503Y541694D02*
X47329Y541694D01*
X37503Y560998D02*
X47329Y560998D01*
X57503Y541694D02*
Y560998D01*
X67329Y541694D02*
Y560998D01*
X57503Y541694D02*
X67329Y541694D01*
X57503Y560998D02*
X67329Y560998D01*
X353662Y53058D02*
Y77442D01*
X364838Y53058D02*
Y77442D01*
X353662Y53058D02*
X364838D01*
X353662Y77442D02*
X364838D01*
X60700Y-2052D02*
Y17252D01*
X50874Y-2052D02*
Y17252D01*
X60700D01*
X50874Y-2052D02*
X60700D01*
X63197Y30298D02*
Y49602D01*
X73024Y30298D02*
Y49602D01*
X63197Y30298D02*
X73024Y30298D01*
X63197Y49602D02*
X73024Y49602D01*
X37610Y-2291D02*
X48786D01*
X37610Y22092D02*
X48786D01*
X37610Y-2291D02*
Y22092D01*
X48786Y-2291D02*
Y22092D01*
X-2149Y510597D02*
X17155D01*
X-2149Y500771D02*
X17155D01*
X-2149Y510597D02*
X-2149Y500771D01*
X17155D02*
X17155Y510597D01*
X-75588Y64442D02*
X-64412D01*
X-75588Y40058D02*
X-64412D01*
Y64442D01*
X-75588Y40058D02*
Y64442D01*
X-31308Y-90838D02*
Y-79662D01*
X-55692Y-90838D02*
Y-79662D01*
Y-90838D02*
X-31308D01*
X-55692Y-79662D02*
X-31308D01*
X-71308Y-90838D02*
Y-79662D01*
X-95692Y-90838D02*
Y-79662D01*
Y-90838D02*
X-71308D01*
X-95692Y-79662D02*
X-71308D01*
X-202303Y30248D02*
X-202303Y49552D01*
X-192477Y30248D02*
Y49552D01*
X-202303Y30248D02*
X-192477Y30248D01*
X-202303Y49552D02*
X-192477Y49552D01*
X-190053Y30248D02*
Y49552D01*
X-180227Y49552D02*
X-180227Y30248D01*
X-190053D02*
X-180227D01*
X-190053Y49552D02*
X-180227Y49552D01*
X-204800Y-2552D02*
Y16752D01*
X-214626Y-2552D02*
Y16752D01*
X-204800Y16752D01*
X-214626Y-2552D02*
X-204800D01*
X77677Y451694D02*
X87503D01*
X77677Y470998D02*
X87503D01*
X77677Y451694D02*
Y470998D01*
X87503Y451694D02*
Y470998D01*
X-509412Y-77442D02*
Y-53058D01*
X-520588Y-77442D02*
Y-53058D01*
X-509412D01*
X-520588Y-77442D02*
X-509412D01*
X-164879Y30248D02*
X-155053D01*
X-164879Y49552D02*
X-155053D01*
X-164879Y30248D02*
Y49552D01*
X-155053Y30248D02*
Y49552D01*
X-516262Y-35192D02*
X-516262Y-10808D01*
X-527438Y-35192D02*
X-527438Y-10808D01*
X-516262D01*
X-527438Y-35192D02*
X-516262D01*
X-462162Y40058D02*
Y64442D01*
X-473338Y40058D02*
Y64442D01*
X-462162D01*
X-473338Y40058D02*
X-462162D01*
X107851Y541347D02*
X127155D01*
X107851Y531521D02*
X127155D01*
X107851D02*
X107851Y541347D01*
X127155D02*
X127155Y531521D01*
X238147Y49552D02*
X247973Y49552D01*
X238147Y30248D02*
X247973Y30248D01*
Y49552D01*
X238147Y30248D02*
Y49552D01*
X107851Y531347D02*
X127155D01*
X107851Y521521D02*
X127155D01*
X107851D02*
Y531347D01*
X127155Y521521D02*
Y531347D01*
X199288Y-2592D02*
Y21792D01*
X188112Y-2592D02*
Y21792D01*
X199288D01*
X188112Y-2592D02*
X199288D01*
X306412Y-64442D02*
Y-40058D01*
X317588Y-64442D02*
Y-40058D01*
X306412Y-64442D02*
X317588D01*
X306412Y-40058D02*
X317588D01*
X313662Y53058D02*
Y77442D01*
X324838Y53058D02*
Y77442D01*
X313662Y53058D02*
X324838D01*
X313662Y77442D02*
X324838D01*
X298162Y53058D02*
Y77442D01*
X309338Y53058D02*
Y77442D01*
X298162Y53058D02*
X309338D01*
X298162Y77442D02*
X309338D01*
X188112Y-29592D02*
Y-5208D01*
X199288Y-29592D02*
Y-5208D01*
X188112Y-29592D02*
X199288D01*
X188112Y-5208D02*
X199288D01*
X338162Y53058D02*
Y77442D01*
X349338Y53058D02*
Y77442D01*
X338162Y53058D02*
X349338D01*
X338162Y77442D02*
X349338D01*
X87253Y541694D02*
Y560998D01*
X97079Y541694D02*
Y560998D01*
X87253Y541694D02*
X97079Y541694D01*
X87253Y560998D02*
X97079Y560998D01*
X83546Y-32099D02*
X102850Y-32099D01*
X83546Y-22273D02*
X102850Y-22273D01*
X102850Y-32099D02*
X102850Y-22273D01*
X83546Y-32099D02*
Y-22273D01*
X-62588Y64442D02*
X-51412D01*
X-62588Y40058D02*
X-51412D01*
Y64442D01*
X-62588Y40058D02*
Y64442D01*
X-182205Y-32100D02*
X-162901Y-32100D01*
X-182205Y-22274D02*
X-162901D01*
X-162901Y-32100D01*
X-182205Y-22274D02*
X-182205Y-32100D01*
X-228141Y-2292D02*
X-216965D01*
X-228141Y22092D02*
X-216965D01*
X-228141Y-2292D02*
Y22092D01*
X-216965Y-2292D02*
Y22092D01*
X77503Y451694D02*
Y470998D01*
X67677Y451694D02*
Y470998D01*
X77503D01*
X67677Y451694D02*
X77503D01*
X107503D02*
Y470998D01*
X97677Y451694D02*
Y470998D01*
X107503D01*
X97677Y451694D02*
X107503D01*
X-493912Y-77442D02*
Y-53058D01*
X-505088Y-77442D02*
Y-53058D01*
X-493912D01*
X-505088Y-77442D02*
X-493912D01*
X-455058Y-90838D02*
Y-79662D01*
X-479442Y-90838D02*
Y-79662D01*
Y-90838D02*
X-455058D01*
X-479442Y-79662D02*
X-455058D01*
X-469412Y-77442D02*
Y-53058D01*
X-480588Y-77442D02*
Y-53058D01*
X-469412D01*
X-480588Y-77442D02*
X-469412D01*
X-734442Y22162D02*
X-710058D01*
X-734442Y33338D02*
X-710058D01*
Y22162D02*
Y33338D01*
X-734442Y22162D02*
Y33338D01*
Y6662D02*
Y17838D01*
X-710058Y6662D02*
Y17838D01*
X-734442D02*
X-710058D01*
X-734442Y6662D02*
X-710058D01*
X-592558Y912D02*
Y12088D01*
X-616942Y912D02*
Y12088D01*
Y912D02*
X-592558D01*
X-616942Y12088D02*
X-592558D01*
X-453912Y-77442D02*
Y-53058D01*
X-465088Y-77442D02*
Y-53058D01*
X-453912D01*
X-465088Y-77442D02*
X-453912D01*
X-734442Y-17838D02*
X-710058Y-17838D01*
X-734442Y-6662D02*
X-710058Y-6662D01*
Y-17838D02*
Y-6662D01*
X-734442Y-17838D02*
Y-6662D01*
X-616942Y-25088D02*
X-592558Y-25088D01*
X-616942Y-13912D02*
X-592558Y-13912D01*
Y-25088D02*
Y-13912D01*
X-616942Y-25088D02*
Y-13912D01*
X-592558Y-12088D02*
Y-912D01*
X-616942Y-12088D02*
Y-912D01*
Y-12088D02*
X-592558D01*
X-616942Y-912D02*
X-592558D01*
X107851Y511347D02*
X127155D01*
X107851Y501521D02*
X127155D01*
X107851D02*
Y511347D01*
X127155Y501521D02*
Y511347D01*
X-127500Y425348D02*
X-127500Y444652D01*
X-137326Y444652D02*
X-137326Y425348D01*
X-137326Y444652D02*
X-127500Y444652D01*
X-137326Y425348D02*
X-127500Y425348D01*
X107851Y481347D02*
X127155D01*
X107851Y471521D02*
X127155Y471521D01*
X107851Y481347D02*
X107851Y471521D01*
X127155Y471521D02*
Y481347D01*
X-307500Y425348D02*
Y444652D01*
X-317326Y425348D02*
Y444652D01*
X-307500Y444652D01*
X-317326Y425348D02*
X-307500D01*
X-208000Y567652D02*
X-208000Y548348D01*
X-198174Y548348D02*
X-198174Y567652D01*
X-208000Y548348D02*
X-198174Y548348D01*
X-208000Y567652D02*
X-198174Y567652D01*
X47677Y451694D02*
X57503D01*
X47677Y470998D02*
X57503D01*
X47677Y451694D02*
Y470998D01*
X57503Y451694D02*
Y470998D01*
X693495Y-32100D02*
Y-22274D01*
X712799Y-32100D02*
X712799Y-22274D01*
X693495Y-22274D02*
X712799Y-22274D01*
X693495Y-32100D02*
X712799Y-32100D01*
X-277326Y425348D02*
X-267500Y425348D01*
X-277326Y444652D02*
X-267500Y444652D01*
X-277326Y425348D02*
Y444652D01*
X-267500Y425348D02*
Y444652D01*
X-297326Y425348D02*
X-287500Y425348D01*
X-297326Y444652D02*
X-287500Y444652D01*
X-297326Y425348D02*
Y444652D01*
X-287500Y444652D02*
X-287500Y425348D01*
X-337326Y425348D02*
X-327500Y425348D01*
X-337326Y444652D02*
X-327500Y444652D01*
X-337326Y425348D02*
X-337326Y444652D01*
X-327500Y425348D02*
Y444652D01*
X-257326Y425348D02*
X-247500Y425348D01*
X-257326Y444652D02*
X-247500D01*
X-257326D02*
X-257326Y425348D01*
X-247500Y425348D02*
Y444652D01*
X-237326Y425348D02*
X-227500Y425348D01*
X-237326Y444652D02*
X-227500D01*
X-237326Y425348D02*
Y444652D01*
X-227500Y425348D02*
X-227500Y444652D01*
X-217326Y425348D02*
X-207500D01*
X-217326Y444652D02*
X-207500D01*
X-217326Y425348D02*
Y444652D01*
X-207500Y425348D02*
Y444652D01*
X-197326Y425348D02*
X-187500Y425348D01*
X-197326Y444652D02*
X-187500D01*
X-197326D02*
X-197326Y425348D01*
X-187500Y425348D02*
Y444652D01*
X-177326Y425348D02*
X-167500Y425348D01*
X-177326Y444652D02*
X-167500D01*
X-177326D02*
X-177326Y425348D01*
X-167500Y444652D02*
X-167500Y425348D01*
X-157326D02*
X-147500D01*
X-157326Y444652D02*
X-147500Y444652D01*
X-157326Y425348D02*
X-157326Y444652D01*
X-147500Y425348D02*
X-147500Y444652D01*
X-117326Y425348D02*
X-107500Y425348D01*
X-117326Y444652D02*
X-107500Y444652D01*
X-117326Y444652D02*
X-117326Y425348D01*
X-107500Y444652D02*
X-107500Y425348D01*
X-97326Y425348D02*
X-87500Y425348D01*
X-97326Y444652D02*
X-87500D01*
X-97326Y425348D02*
Y444652D01*
X-87500Y425348D02*
Y444652D01*
X-77326Y425348D02*
X-67500D01*
X-77326Y444652D02*
X-67500Y444652D01*
X-77326Y425348D02*
X-77326Y444652D01*
X-67500Y425348D02*
Y444652D01*
X-57326Y425348D02*
X-47500D01*
X-57326Y444652D02*
X-47500Y444652D01*
X-57326Y425348D02*
Y444652D01*
X-47500Y425348D02*
Y444652D01*
X-37326Y425348D02*
X-27500D01*
X-37326Y444652D02*
X-27500D01*
X-37326Y425348D02*
Y444652D01*
X-27500Y425348D02*
Y444652D01*
M02*
