G04*
G04 #@! TF.GenerationSoftware,Altium Limited,Altium Designer,19.1.8 (144)*
G04*
G04 Layer_Color=16711935*
%FSLAX44Y44*%
%MOMM*%
G71*
G01*
G75*
%ADD10C,0.2000*%
%ADD17C,0.3000*%
%ADD104C,0.1000*%
D10*
X265253Y573353D02*
X296253D01*
Y516103D02*
Y573353D01*
X265253Y516103D02*
X296253D01*
X265253D02*
Y573353D01*
X-347540Y-25124D02*
Y24877D01*
Y-25124D02*
X-297540D01*
Y24877D01*
X-347540D02*
X-297540D01*
X-260500Y540500D02*
X-208430Y540500D01*
X-199500Y531570D01*
X-199500Y479500D02*
X-199500Y531570D01*
X-260500Y479500D02*
Y540500D01*
Y479500D02*
X-199500D01*
X92253Y486597D02*
Y526096D01*
X52753Y486597D02*
X92253D01*
X52753D02*
Y526096D01*
X92253D01*
X314500Y516100D02*
X314500Y573350D01*
X314500Y516100D02*
X345500D01*
X345500Y573350D02*
X345500Y516100D01*
X314500Y573350D02*
X345500D01*
D17*
X-345919Y-25124D02*
G03*
X-345919Y-25124I-1622J0D01*
G01*
X-198378Y540000D02*
G03*
X-198378Y540000I-1622J0D01*
G01*
X-450378Y529500D02*
G03*
X-450378Y529500I-1622J0D01*
G01*
X53025Y527447D02*
G03*
X53025Y527447I-1622J0D01*
G01*
D104*
X-674750Y563900D02*
G03*
X-674750Y563900I-5000J0D01*
G01*
Y473900D02*
G03*
X-674750Y473900I-5000J0D01*
G01*
X701647Y-6600D02*
G03*
X701647Y-6600I-5000J0D01*
G01*
X202253Y538603D02*
G03*
X202253Y538603I-5000J0D01*
G01*
X216698Y-6550D02*
G03*
X216698Y-6550I-5000J0D01*
G01*
X91698Y-6600D02*
G03*
X91698Y-6600I-5000J0D01*
G01*
X-174053Y-6600D02*
G03*
X-174053Y-6600I-5000J0D01*
G01*
X407878Y332450D02*
Y364450D01*
X432878Y332450D02*
Y364450D01*
X407878Y332450D02*
X432878D01*
X407878Y364450D02*
X432878D01*
X509500Y551873D02*
Y603873D01*
X482500Y551873D02*
X509500D01*
X482500D02*
Y603873D01*
X509500D01*
X-335500Y529000D02*
X-319500D01*
X-335500Y549000D02*
X-319500D01*
X-335500Y555000D02*
X-319500D01*
X-335500Y523000D02*
Y555000D01*
Y523000D02*
X-319500D01*
Y555000D01*
X-314500Y529000D02*
X-298500D01*
X-314500Y549000D02*
X-298500D01*
X-314500Y555000D02*
X-298500D01*
X-314500Y523000D02*
Y555000D01*
Y523000D02*
X-298500D01*
Y555000D01*
X277504Y420950D02*
Y427450D01*
X288504Y420950D02*
Y427450D01*
X277504D02*
X288504D01*
X277504Y420950D02*
X288504D01*
X-297550Y332450D02*
Y364450D01*
X-272550Y332450D02*
Y364450D01*
X-297550Y332450D02*
X-272550D01*
X-297550Y364450D02*
X-272550D01*
X-347550Y332450D02*
Y364450D01*
X-322550Y332450D02*
Y364450D01*
X-347550Y332450D02*
X-322550D01*
X-347550Y364450D02*
X-322550D01*
X-498250Y294005D02*
X-491750D01*
X-498250Y305005D02*
X-491750D01*
X-498250Y294005D02*
Y305005D01*
X-491750Y294005D02*
Y305005D01*
X296287Y332450D02*
Y364450D01*
X321287Y332450D02*
Y364450D01*
X296287Y332450D02*
X321287D01*
X296287Y364450D02*
X321287D01*
X259090Y332450D02*
Y364450D01*
X284091Y332450D02*
Y364450D01*
X259090Y332450D02*
X284091D01*
X259090Y364450D02*
X284091D01*
X221894Y332450D02*
Y364450D01*
X246894Y332450D02*
Y364450D01*
X221894Y332450D02*
X246894D01*
X221894Y364450D02*
X246894D01*
X116500Y307000D02*
X138500D01*
X116500Y293000D02*
X138500D01*
X116500D02*
Y307000D01*
X138500Y293000D02*
X138500Y307000D01*
X767000Y281500D02*
Y303500D01*
X753000Y281500D02*
Y303500D01*
X767000D01*
X753000Y281500D02*
X767000D01*
X741750Y289500D02*
X748250D01*
X741750Y300500D02*
X748250D01*
X741750Y289500D02*
Y300500D01*
X748250Y289500D02*
Y300500D01*
X147500Y332450D02*
Y364450D01*
X172500Y332450D02*
Y364450D01*
X147500Y332450D02*
X172500D01*
X147500Y364450D02*
X172500D01*
X184697Y332450D02*
Y364450D01*
X209697Y332450D02*
Y364450D01*
X184697Y332450D02*
X209697D01*
X184697Y364450D02*
X209697D01*
X333484Y332450D02*
Y364450D01*
X358484Y332450D02*
Y364450D01*
X333484Y332450D02*
X358484D01*
X333484Y364450D02*
X358484D01*
X370681Y332450D02*
Y364450D01*
X395681Y332450D02*
Y364450D01*
X370681Y332450D02*
X395681D01*
X370681Y364450D02*
X395681D01*
X445075Y332450D02*
Y364450D01*
X470075Y332450D02*
Y364450D01*
X445075Y332450D02*
X470075D01*
X445075Y364450D02*
X470075D01*
X-447550Y332450D02*
Y364450D01*
X-422550Y332450D02*
Y364450D01*
X-447550Y332450D02*
X-422550D01*
X-447550Y364450D02*
X-422550D01*
X-397550Y332450D02*
Y364450D01*
X-372550Y332450D02*
Y364450D01*
X-397550Y332450D02*
X-372550D01*
X-397550Y364450D02*
X-372550D01*
X-247550Y332450D02*
Y364450D01*
X-222550Y332450D02*
Y364450D01*
X-247550Y332450D02*
X-222550D01*
X-247550Y364450D02*
X-222550D01*
X-197550Y332450D02*
Y364450D01*
X-172550Y332450D02*
Y364450D01*
X-197550Y332450D02*
X-172550D01*
X-197550Y364450D02*
X-172550D01*
X-718000Y205600D02*
Y221600D01*
X-698000Y205600D02*
Y221600D01*
X-692000Y205600D02*
Y221600D01*
X-724000D02*
X-692000D01*
X-724000Y205600D02*
Y221600D01*
Y205600D02*
X-692000D01*
X490000D02*
Y221600D01*
X510000Y205600D02*
Y221600D01*
X516000Y205600D02*
Y221600D01*
X484000D02*
X516000D01*
X484000Y205600D02*
Y221600D01*
Y205600D02*
X516000D01*
X-569000D02*
Y221600D01*
X-549000Y205600D02*
Y221600D01*
X-543000Y205600D02*
Y221600D01*
X-575000D02*
X-543000D01*
X-575000Y205600D02*
Y221600D01*
Y205600D02*
X-543000D01*
X-112000D02*
Y221600D01*
X-92000Y205600D02*
Y221600D01*
X-86000Y205600D02*
Y221600D01*
X-118000D02*
X-86000D01*
X-118000Y205600D02*
Y221600D01*
Y205600D02*
X-86000D01*
X339000D02*
Y221600D01*
X359000Y205600D02*
Y221600D01*
X365000Y205600D02*
Y221600D01*
X333000D02*
X365000D01*
X333000Y205600D02*
Y221600D01*
Y205600D02*
X365000D01*
X638000D02*
Y221600D01*
X658000Y205600D02*
Y221600D01*
X664000Y205600D02*
Y221600D01*
X632000D02*
X664000D01*
X632000Y205600D02*
Y221600D01*
Y205600D02*
X664000D01*
X37000D02*
Y221600D01*
X57000Y205600D02*
Y221600D01*
X63000Y205600D02*
Y221600D01*
X31000D02*
X63000D01*
X31000Y205600D02*
Y221600D01*
Y205600D02*
X63000D01*
X182000D02*
Y221600D01*
X202000Y205600D02*
Y221600D01*
X208000Y205600D02*
Y221600D01*
X176000D02*
X208000D01*
X176000Y205600D02*
Y221600D01*
Y205600D02*
X208000D01*
X-257000D02*
Y221600D01*
X-237000Y205600D02*
Y221600D01*
X-231000Y205600D02*
Y221600D01*
X-263000D02*
X-231000D01*
X-263000Y205600D02*
Y221600D01*
Y205600D02*
X-231000D01*
X-410000D02*
Y221600D01*
X-390000Y205600D02*
Y221600D01*
X-384000Y205600D02*
Y221600D01*
X-416000D02*
X-384000D01*
X-416000Y205600D02*
Y221600D01*
Y205600D02*
X-384000D01*
X-718000Y228600D02*
Y244600D01*
X-698000Y228600D02*
Y244600D01*
X-692000Y228600D02*
Y244600D01*
X-724000D02*
X-692000D01*
X-724000Y228600D02*
Y244600D01*
Y228600D02*
X-692000D01*
X490000D02*
Y244600D01*
X510000Y228600D02*
Y244600D01*
X516000Y228600D02*
Y244600D01*
X484000D02*
X516000D01*
X484000Y228600D02*
Y244600D01*
Y228600D02*
X516000D01*
X-569000D02*
Y244600D01*
X-549000Y228600D02*
Y244600D01*
X-543000Y228600D02*
Y244600D01*
X-575000D02*
X-543000D01*
X-575000Y228600D02*
Y244600D01*
Y228600D02*
X-543000D01*
X-112000D02*
Y244600D01*
X-92000Y228600D02*
Y244600D01*
X-86000Y228600D02*
Y244600D01*
X-118000D02*
X-86000D01*
X-118000Y228600D02*
Y244600D01*
Y228600D02*
X-86000D01*
X339000D02*
Y244600D01*
X359000Y228600D02*
Y244600D01*
X365000Y228600D02*
Y244600D01*
X333000D02*
X365000D01*
X333000Y228600D02*
Y244600D01*
Y228600D02*
X365000D01*
X638000D02*
Y244600D01*
X658000Y228600D02*
Y244600D01*
X664000Y228600D02*
Y244600D01*
X632000D02*
X664000D01*
X632000Y228600D02*
Y244600D01*
Y228600D02*
X664000D01*
X37000D02*
Y244600D01*
X57000Y228600D02*
Y244600D01*
X63000Y228600D02*
Y244600D01*
X31000D02*
X63000D01*
X31000Y228600D02*
Y244600D01*
Y228600D02*
X63000D01*
X182000D02*
Y244600D01*
X202000Y228600D02*
Y244600D01*
X208000Y228600D02*
Y244600D01*
X176000D02*
X208000D01*
X176000Y228600D02*
Y244600D01*
Y228600D02*
X208000D01*
X-257000D02*
Y244600D01*
X-237000Y228600D02*
Y244600D01*
X-231000Y228600D02*
Y244600D01*
X-263000D02*
X-231000D01*
X-263000Y228600D02*
Y244600D01*
Y228600D02*
X-231000D01*
X-410000D02*
Y244600D01*
X-390000Y228600D02*
Y244600D01*
X-384000Y228600D02*
Y244600D01*
X-416000D02*
X-384000D01*
X-416000Y228600D02*
Y244600D01*
Y228600D02*
X-384000D01*
X-296750Y47000D02*
Y58000D01*
X-303250Y47000D02*
Y58000D01*
X-296750D01*
X-303250Y47000D02*
X-296750D01*
X-275500Y-48250D02*
Y-41750D01*
X-264500Y-48250D02*
Y-41750D01*
X-275500Y-41750D02*
X-264500Y-41750D01*
X-275500Y-48250D02*
X-264500Y-48250D01*
X-287823Y-379850D02*
Y-368850D01*
X-294323Y-379850D02*
Y-368850D01*
X-287823D01*
X-294323Y-379850D02*
X-287823D01*
X602177D02*
Y-368850D01*
X595677Y-379850D02*
Y-368850D01*
X602177D01*
X595677Y-379850D02*
X602177D01*
X-328790Y50750D02*
X-317790D01*
X-328790Y44250D02*
X-317790D01*
X-328790D02*
Y50750D01*
X-317790Y44250D02*
Y50750D01*
X-331290Y-58000D02*
Y-47000D01*
X-324790Y-58000D02*
Y-47000D01*
X-331290Y-58000D02*
X-324790D01*
X-331290Y-47000D02*
X-324790D01*
X-331090Y68000D02*
X-331090Y57000D01*
X-324590D02*
X-324590Y68000D01*
X-331090Y57000D02*
X-324590D01*
X-331090Y68000D02*
X-324590D01*
X-330340Y-63750D02*
X-319340Y-63750D01*
X-330340Y-70250D02*
X-319340Y-70250D01*
X-330340Y-70250D02*
Y-63750D01*
X-319340Y-70250D02*
Y-63750D01*
X-340490Y57000D02*
Y68000D01*
X-333990Y57000D02*
Y68000D01*
X-340490Y57000D02*
X-333990D01*
X-340490Y68000D02*
X-333990D01*
X-343540Y57000D02*
Y68000D01*
X-350040Y57000D02*
Y68000D01*
X-343540D01*
X-350040Y57000D02*
X-343540D01*
X-347290Y50750D02*
X-336290D01*
X-347290Y44250D02*
X-336290D01*
X-347290D02*
Y50750D01*
X-336290Y44250D02*
Y50750D01*
X-345740Y-63750D02*
X-334740Y-63750D01*
X-345740Y-70250D02*
X-334740Y-70250D01*
X-345740Y-70250D02*
Y-63750D01*
X-334740Y-70250D02*
Y-63750D01*
X-335790Y-87000D02*
Y-76000D01*
X-329290Y-87000D02*
Y-76000D01*
X-335790Y-87000D02*
X-329290D01*
X-335790Y-76000D02*
X-329290D01*
X-340290Y-58000D02*
Y-47000D01*
X-333790Y-58000D02*
Y-47000D01*
X-340290Y-58000D02*
X-333790D01*
X-340290Y-47000D02*
X-333790D01*
X-275500Y41750D02*
X-264500Y41750D01*
X-275500Y48250D02*
X-264500Y48250D01*
Y41750D02*
Y48250D01*
X-275500Y41750D02*
Y48250D01*
Y-28250D02*
X-264500Y-28250D01*
X-275500Y-21750D02*
X-264500Y-21750D01*
Y-28250D02*
Y-21750D01*
X-275500Y-28250D02*
Y-21750D01*
Y-38250D02*
X-264500Y-38250D01*
X-275500Y-31750D02*
X-264500Y-31750D01*
Y-38250D02*
Y-31750D01*
X-275500Y-38250D02*
Y-31750D01*
X-294170Y-58000D02*
Y-47000D01*
X-287670Y-58000D02*
Y-47000D01*
X-294170Y-58000D02*
X-287670D01*
X-294170Y-47000D02*
X-287670D01*
X698700Y-164750D02*
X698700Y-155250D01*
X682200D02*
X682200Y-164750D01*
X698700D01*
X682200Y-155250D02*
X698700D01*
X677950Y-188250D02*
X687450D01*
X677950Y-171750D02*
X687450D01*
X677950Y-188250D02*
Y-171750D01*
X687450Y-188250D02*
Y-171750D01*
X698700Y-204750D02*
X698700Y-195250D01*
X682200D02*
X682200Y-204750D01*
X698700D01*
X682200Y-195250D02*
X698700D01*
X-771200Y-160000D02*
X-754700D01*
X-771200Y-150500D02*
X-754700D01*
X-754700Y-160000D01*
X-771200D02*
X-771200Y-150500D01*
X-750450Y-183500D02*
Y-167000D01*
X-759950Y-183500D02*
Y-167000D01*
X-750450D01*
X-759950Y-183500D02*
X-750450D01*
X-771200Y-200000D02*
X-754700D01*
X-771200Y-190500D02*
X-754700D01*
X-754700Y-200000D01*
X-771200D02*
X-771200Y-190500D01*
X-706500Y-150500D02*
X-690000D01*
X-706500Y-160000D02*
X-690000D01*
X-706500Y-150500D02*
X-706500Y-160000D01*
X-690000D02*
X-690000Y-150500D01*
X-701250Y-183500D02*
Y-167000D01*
X-710750Y-183500D02*
Y-167000D01*
X-701250D01*
X-710750Y-183500D02*
X-701250D01*
X-706500Y-190500D02*
X-690000D01*
X-706500Y-200000D02*
X-690000D01*
X-706500Y-190500D02*
X-706500Y-200000D01*
X-690000D02*
X-690000Y-190500D01*
X-323055Y-234972D02*
X-311388Y-223305D01*
X-329773Y-228255D02*
X-318106Y-216587D01*
X-311388Y-223305D01*
X-329773Y-228255D02*
X-323055Y-234972D01*
X-303315Y-225367D02*
X-291648Y-237034D01*
X-310033Y-232085D02*
X-298366Y-243752D01*
X-310033Y-232085D02*
X-303315Y-225367D01*
X-298366Y-243752D02*
X-291648Y-237034D01*
X-294455Y-263172D02*
X-282788Y-251505D01*
X-301172Y-256455D02*
X-289505Y-244788D01*
X-282788Y-251505D01*
X-301172Y-256455D02*
X-294455Y-263172D01*
X-207800Y-115000D02*
X-191300D01*
X-207800Y-124500D02*
X-191300D01*
X-207800Y-115000D02*
X-207800Y-124500D01*
X-191300D02*
X-191300Y-115000D01*
X-202550Y-148000D02*
Y-131500D01*
X-212050Y-148000D02*
Y-131500D01*
X-202550D01*
X-212050Y-148000D02*
X-202550D01*
X-207800Y-155000D02*
X-191300D01*
X-207800Y-164500D02*
X-191300D01*
X-207800Y-155000D02*
X-207800Y-164500D01*
X-191300D02*
X-191300Y-155000D01*
X-91750D02*
X-75250D01*
X-91750Y-164500D02*
X-75250D01*
X-91750Y-155000D02*
X-91750Y-164500D01*
X-75250D02*
X-75250Y-155000D01*
X-96000Y-148000D02*
X-96000Y-131500D01*
X-86500Y-148000D02*
Y-131500D01*
X-96000Y-148000D02*
X-86500Y-148000D01*
X-96000Y-131500D02*
X-86500D01*
X-91750Y-115000D02*
X-75250D01*
X-91750Y-124500D02*
X-75250D01*
X-91750Y-115000D02*
X-91750Y-124500D01*
X-75250D02*
X-75250Y-115000D01*
X-51750Y-124500D02*
X-35250D01*
X-51750Y-115000D02*
X-35250D01*
X-35250Y-124500D01*
X-51750D02*
X-51750Y-115000D01*
X-31000Y-148000D02*
Y-131500D01*
X-40500Y-148000D02*
Y-131500D01*
X-31000D01*
X-40500Y-148000D02*
X-31000D01*
X-51750Y-164500D02*
X-35250D01*
X-51750Y-155000D02*
X-35250D01*
X-35250Y-164500D01*
X-51750D02*
X-51750Y-155000D01*
X129750Y-124500D02*
X146250D01*
X129750Y-115000D02*
X146250D01*
X146250Y-124500D01*
X129750D02*
X129750Y-115000D01*
X150500Y-148000D02*
Y-131500D01*
X141000Y-148000D02*
Y-131500D01*
X150500D01*
X141000Y-148000D02*
X150500D01*
X129750Y-164500D02*
X146250D01*
X129750Y-155000D02*
X146250D01*
X146250Y-164500D01*
X129750D02*
X129750Y-155000D01*
X631300Y-164750D02*
X647800D01*
X631300Y-155250D02*
X647800D01*
X647800Y-164750D01*
X631300D02*
X631300Y-155250D01*
X652050Y-188250D02*
Y-171750D01*
X642550Y-188250D02*
Y-171750D01*
X652050D01*
X642550Y-188250D02*
X652050D01*
X631300Y-204750D02*
X647800D01*
X631300Y-195250D02*
X647800D01*
X647800Y-204750D01*
X631300D02*
X631300Y-195250D01*
X752250Y-164752D02*
X768750D01*
X752250Y-155252D02*
X768750D01*
X768750Y-164752D01*
X752250D02*
X752250Y-155252D01*
X773000Y-188252D02*
Y-171752D01*
X763500Y-188252D02*
Y-171752D01*
X773000D01*
X763500Y-188252D02*
X773000D01*
X571250Y-155250D02*
X587750D01*
X571250Y-164750D02*
X587750D01*
X571250Y-155250D02*
X571250Y-164750D01*
X587750D02*
X587750Y-155250D01*
X752250Y-204752D02*
X768750D01*
X752250Y-195252D02*
X768750D01*
X768750Y-204752D01*
X752250D02*
X752250Y-195252D01*
X220501Y-124500D02*
X237001D01*
X220501Y-115000D02*
X237001D01*
X237001Y-124500D01*
X220501D02*
X220501Y-115000D01*
X241250Y-148000D02*
Y-131500D01*
X231751Y-148000D02*
Y-131500D01*
X241250D01*
X231751Y-148000D02*
X241250D01*
X220501Y-164500D02*
X237001D01*
X220501Y-155000D02*
X237001D01*
X237001Y-164500D01*
X220501D02*
X220501Y-155000D01*
X576500Y-188250D02*
Y-171750D01*
X567000Y-188250D02*
Y-171750D01*
X576500D01*
X567000Y-188250D02*
X576500D01*
X571250Y-195250D02*
X587750D01*
X571250Y-204750D02*
X587750D01*
X571250Y-195250D02*
X571250Y-204750D01*
X587750D02*
X587750Y-195250D01*
X54500Y-115000D02*
X71000D01*
X54500Y-124500D02*
X71000D01*
X54500Y-115000D02*
X54500Y-124500D01*
X71000D02*
X71000Y-115000D01*
X59750Y-148000D02*
Y-131500D01*
X50250Y-148000D02*
Y-131500D01*
X59750D01*
X50250Y-148000D02*
X59750D01*
X54500Y-155000D02*
X71000D01*
X54500Y-164500D02*
X71000D01*
X54500Y-155000D02*
X54500Y-164500D01*
X71000D02*
X71000Y-155000D01*
X-130250Y85600D02*
X-130250Y102100D01*
X-139750Y85600D02*
X-139750Y102100D01*
X-130250D01*
X-139750Y85600D02*
X-130250Y85600D01*
X-163250Y96850D02*
X-146750Y96850D01*
X-163250Y106350D02*
X-146750D01*
Y96850D02*
Y106350D01*
X-163250Y96850D02*
X-163250Y106350D01*
X-170250Y85600D02*
Y102100D01*
X-179750Y85600D02*
Y102100D01*
X-170250Y102100D01*
X-179750Y85600D02*
X-170250Y85600D01*
X-29250Y452500D02*
Y463500D01*
X-35750Y452500D02*
Y463500D01*
X-29250D01*
X-35750Y452500D02*
X-29250D01*
X527413Y216600D02*
Y233600D01*
X557413Y216600D02*
Y233600D01*
X527413Y216600D02*
X557413D01*
X527413Y233600D02*
X557413D01*
X-275500Y11750D02*
X-264500Y11750D01*
X-275500Y18250D02*
X-264500Y18250D01*
Y11750D02*
Y18250D01*
X-275500Y11750D02*
Y18250D01*
X-275500Y1750D02*
X-264500Y1750D01*
X-275500Y8250D02*
X-264500Y8250D01*
Y1750D02*
Y8250D01*
X-275500Y1750D02*
Y8250D01*
X-275500Y-8250D02*
X-264500Y-8250D01*
X-275500Y-1750D02*
X-264500D01*
Y-8250D02*
Y-1750D01*
X-275500D02*
X-275500Y-8250D01*
X-358334Y-47000D02*
X-351834D01*
X-358334Y-58000D02*
X-351834D01*
Y-47000D01*
X-358334Y-58000D02*
Y-47000D01*
X-313250D02*
X-306750D01*
X-313250Y-58000D02*
X-306750D01*
Y-47000D01*
X-313250Y-58000D02*
Y-47000D01*
X-303210Y-58000D02*
Y-47000D01*
X-296710Y-58000D02*
Y-47000D01*
X-303210Y-58000D02*
X-296710D01*
X-303210Y-47000D02*
X-296710D01*
X-275500Y-58250D02*
X-264500D01*
X-275500Y-51750D02*
X-264500D01*
Y-58250D02*
Y-51750D01*
X-275500Y-58250D02*
Y-51750D01*
X-275500Y51750D02*
X-264500D01*
X-275500Y58250D02*
X-264500D01*
Y51750D02*
Y58250D01*
X-275500Y51750D02*
Y58250D01*
X-275500Y31750D02*
X-264500Y31750D01*
X-275500Y38250D02*
X-264500D01*
Y31750D02*
Y38250D01*
X-275500D02*
X-275500Y31750D01*
X-275500Y21750D02*
X-264500D01*
X-275500Y28250D02*
X-264500D01*
Y21750D02*
Y28250D01*
X-275500Y21750D02*
Y28250D01*
Y-18250D02*
X-264500Y-18250D01*
X-275500Y-11750D02*
X-264500Y-11750D01*
Y-18250D02*
Y-11750D01*
X-275500Y-18250D02*
Y-11750D01*
X160250Y566750D02*
Y583250D01*
X169750Y566750D02*
Y583250D01*
X160250Y566750D02*
X169750Y566750D01*
X160250Y583250D02*
X169750Y583250D01*
X172750Y566750D02*
Y583250D01*
X182250Y566750D02*
Y583250D01*
X172750Y566750D02*
X182250Y566750D01*
X172750Y583250D02*
X182250Y583250D01*
X150250Y510500D02*
Y527000D01*
X159750Y510500D02*
Y527000D01*
X150250Y510500D02*
X159750Y510500D01*
X150250Y527000D02*
X159750Y527000D01*
X135250Y510500D02*
Y527000D01*
X144750Y510500D02*
Y527000D01*
X135250Y510500D02*
X144750Y510500D01*
X135250Y527000D02*
X144750Y527000D01*
X-436000Y-298250D02*
X-436000Y-288750D01*
X-419500D02*
X-419500Y-298250D01*
X-436000Y-288750D02*
X-419500D01*
X-436000Y-298250D02*
X-419500D01*
X-584500Y-245750D02*
X-584500Y-236250D01*
X-601000D02*
X-601000Y-245750D01*
X-584500D01*
X-601000Y-236250D02*
X-584500D01*
X453000Y-297280D02*
X453000Y-287780D01*
X469500D02*
X469500Y-297280D01*
X453000Y-287780D02*
X469500D01*
X453000Y-297280D02*
X469500D01*
X304500Y-253750D02*
X304500Y-244250D01*
X288000D02*
X288000Y-253750D01*
X304500D01*
X288000Y-244250D02*
X304500D01*
X299250Y570100D02*
X299250Y559100D01*
X305750Y570100D02*
X305750Y559100D01*
X299250D02*
X305750D01*
X299250Y570100D02*
X305750Y570100D01*
X22003Y483097D02*
X33003D01*
X22003Y489597D02*
X33003D01*
Y483097D02*
Y489597D01*
X22003Y483097D02*
Y489597D01*
X-649250Y587150D02*
X-638250D01*
X-649250Y593650D02*
X-638250D01*
Y587150D02*
Y593650D01*
X-649250Y587150D02*
Y593650D01*
X-716750Y565900D02*
Y579900D01*
X-738750Y565900D02*
Y579900D01*
Y565900D02*
X-716750D01*
X-738750Y579900D02*
X-716750D01*
Y519900D02*
Y533900D01*
X-738750Y519900D02*
Y533900D01*
Y519900D02*
X-716750D01*
X-738750Y533900D02*
X-716750D01*
Y542925D02*
Y556925D01*
X-738750Y542925D02*
Y556925D01*
Y542925D02*
X-716750D01*
X-738750Y556925D02*
X-716750D01*
X-620500Y519900D02*
Y533900D01*
X-598500Y519900D02*
Y533900D01*
X-620500D02*
X-598500D01*
X-620500Y519900D02*
X-598500D01*
X-620750Y542925D02*
Y556925D01*
X-598750Y542925D02*
Y556925D01*
X-620750D02*
X-598750D01*
X-620750Y542925D02*
X-598750D01*
X-649250Y577150D02*
X-638250D01*
X-649250Y583650D02*
X-638250D01*
Y577150D02*
Y583650D01*
X-649250Y577150D02*
Y583650D01*
X-657750Y578400D02*
Y592400D01*
X-679750Y578400D02*
Y592400D01*
Y578400D02*
X-657750D01*
X-679750Y592400D02*
X-657750D01*
X-749250Y532650D02*
Y539150D01*
X-760250Y532650D02*
Y539150D01*
Y532650D02*
X-749250D01*
X-760250Y539150D02*
X-749250D01*
Y523650D02*
Y530150D01*
X-760250Y523650D02*
Y530150D01*
Y523650D02*
X-749250D01*
X-760250Y530150D02*
X-749250D01*
X-760250Y542020D02*
Y548520D01*
X-749250Y542020D02*
Y548520D01*
X-760250D02*
X-749250D01*
X-760250Y542020D02*
X-749250D01*
X-760250Y551020D02*
Y557520D01*
X-749250Y551020D02*
Y557520D01*
X-760250D02*
X-749250D01*
X-760250Y551020D02*
X-749250D01*
X-749250Y514650D02*
Y521150D01*
X-760250Y514650D02*
Y521150D01*
Y514650D02*
X-749250D01*
X-760250Y521150D02*
X-749250D01*
X-749250Y569239D02*
Y575739D01*
X-760250Y569239D02*
Y575739D01*
Y569239D02*
X-749250D01*
X-760250Y575739D02*
X-749250D01*
X-760250Y560239D02*
Y566739D01*
X-749250Y560239D02*
Y566739D01*
X-760250D02*
X-749250D01*
X-760250Y560239D02*
X-749250D01*
X-760250Y578239D02*
Y584739D01*
X-749250Y578239D02*
Y584739D01*
X-760250D02*
X-749250D01*
X-760250Y578239D02*
X-749250D01*
X-688750Y522900D02*
Y572900D01*
X-648750Y522900D02*
Y572900D01*
X-688750D02*
X-648750D01*
X-688750Y522900D02*
X-648750D01*
X-620500Y429900D02*
Y443900D01*
X-598500Y429900D02*
Y443900D01*
X-620500Y443900D02*
X-598500Y443900D01*
X-620500Y429900D02*
X-598500Y429900D01*
X-620750Y452925D02*
Y466925D01*
X-598750Y452925D02*
X-598750Y466925D01*
X-620750D02*
X-598750D01*
X-620750Y452925D02*
X-598750Y452925D01*
X-749250Y442650D02*
Y449150D01*
X-760250Y442650D02*
Y449150D01*
Y442650D02*
X-749250D01*
X-760250Y449150D02*
X-749250D01*
X-749250Y424650D02*
Y431150D01*
X-760250Y424650D02*
Y431150D01*
Y424650D02*
X-749250D01*
X-760250Y431150D02*
X-749250D01*
X-749250Y433650D02*
Y440150D01*
X-760250Y433650D02*
Y440150D01*
Y433650D02*
X-749250D01*
X-760250Y440150D02*
X-749250D01*
X-760250Y470239D02*
Y476739D01*
X-749250Y470239D02*
Y476739D01*
X-760250D02*
X-749250D01*
X-760250Y470239D02*
X-749250D01*
X-749250Y479239D02*
Y485739D01*
X-760250Y479239D02*
Y485739D01*
Y479239D02*
X-749250D01*
X-760250Y485739D02*
X-749250D01*
X-760250Y488239D02*
Y494739D01*
X-749250Y488239D02*
Y494739D01*
X-760250D02*
X-749250D01*
X-760250Y488239D02*
X-749250D01*
X-760250Y452020D02*
Y458520D01*
X-749250Y452020D02*
Y458520D01*
X-760250Y458520D02*
X-749250Y458520D01*
X-760250Y452020D02*
X-749250Y452020D01*
X-760250Y461020D02*
Y467520D01*
X-749250Y461020D02*
Y467520D01*
X-760250Y467520D02*
X-749250Y467520D01*
X-760250Y461020D02*
X-749250Y461020D01*
X-716750Y475900D02*
Y489900D01*
X-738750Y475900D02*
Y489900D01*
Y475900D02*
X-716750D01*
X-738750Y489900D02*
X-716750D01*
Y452925D02*
Y466925D01*
X-738750Y452925D02*
Y466925D01*
Y452925D02*
X-716750D01*
X-738750Y466925D02*
X-716750D01*
X-716750Y429900D02*
X-716750Y443900D01*
X-738750Y429900D02*
Y443900D01*
Y429900D02*
X-716750D01*
X-738750Y443900D02*
X-716750D01*
X-657750Y488400D02*
Y502400D01*
X-679750Y488400D02*
Y502400D01*
Y488400D02*
X-657750D01*
X-679750Y502400D02*
X-657750D01*
X-649250Y497150D02*
X-638250Y497150D01*
X-649250Y503650D02*
X-638250Y503650D01*
Y497150D02*
Y503650D01*
X-649250Y497150D02*
Y503650D01*
Y487150D02*
X-638250Y487150D01*
X-649250Y493650D02*
X-638250Y493650D01*
Y487150D02*
Y493650D01*
X-649250Y487150D02*
Y493650D01*
X-688750Y432900D02*
Y482900D01*
X-648750Y432900D02*
Y482900D01*
X-688750D02*
X-648750D01*
X-688750Y432900D02*
X-648750D01*
X-447250Y546000D02*
Y557000D01*
X-440750Y546000D02*
Y557000D01*
X-447250Y546000D02*
X-440750D01*
X-447250Y557000D02*
X-440750D01*
X291000Y-256750D02*
X302000D01*
X291000Y-263250D02*
X302000D01*
X291000D02*
Y-256750D01*
X302000Y-263250D02*
Y-256750D01*
X-277500Y549250D02*
X-277500Y555750D01*
X-266500Y549250D02*
Y555750D01*
X-277500Y555750D02*
X-266500Y555750D01*
X-277500Y549250D02*
X-266500D01*
X-277500Y560250D02*
X-266500D01*
X-277500Y566750D02*
X-266500D01*
Y560250D02*
Y566750D01*
X-277500Y560250D02*
Y566750D01*
X-265250Y586000D02*
X-265250Y572000D01*
X-287250Y572000D02*
Y586000D01*
Y572000D02*
X-265250Y572000D01*
X-287250Y586000D02*
X-265250Y586000D01*
X-278000Y593000D02*
Y609000D01*
X-258000Y593000D02*
Y609000D01*
X-252000Y593000D02*
Y609000D01*
X-284000D02*
X-252000D01*
X-284000Y593000D02*
Y609000D01*
Y593000D02*
X-252000D01*
X-188000D02*
Y609000D01*
X-208000Y593000D02*
Y609000D01*
X-214000Y593000D02*
Y609000D01*
Y593000D02*
X-182000D01*
Y609000D01*
X-214000D02*
X-182000D01*
X-231250Y606500D02*
X-231250Y595500D01*
X-224750D02*
X-224750Y606500D01*
X-231250Y595500D02*
X-224750D01*
X-231250Y606500D02*
X-224750D01*
X-241250Y595500D02*
Y606500D01*
X-234750Y595500D02*
Y606500D01*
X-241250Y595500D02*
X-234750D01*
X-241250Y606500D02*
X-234750D01*
X-253250Y572000D02*
Y586000D01*
X-231250Y572000D02*
Y586000D01*
X-253250D02*
X-231250D01*
X-253250Y572000D02*
X-231250D01*
X-259000Y560250D02*
Y566750D01*
X-248000Y560250D02*
Y566750D01*
X-259000Y566750D02*
X-248000Y566750D01*
X-259000Y560250D02*
X-248000Y560250D01*
X-259000Y549250D02*
X-248000D01*
X-259000Y555750D02*
X-248000Y555750D01*
Y549250D02*
Y555750D01*
X-259000Y549250D02*
X-259000Y555750D01*
X-240500Y549250D02*
X-229500D01*
X-240500Y555750D02*
X-229500D01*
Y549250D02*
Y555750D01*
X-240500Y549250D02*
Y555750D01*
Y560250D02*
Y566750D01*
X-229500Y560250D02*
Y566750D01*
X-240500D02*
X-229500D01*
X-240500Y560250D02*
X-229500Y560250D01*
X-224000Y561750D02*
X-210000D01*
X-224000Y583750D02*
X-210000D01*
X-224000Y561750D02*
Y583750D01*
X-210000D02*
X-210000Y561750D01*
X-271250Y505000D02*
Y521500D01*
X-280750Y505000D02*
Y521500D01*
X-271250Y521500D01*
X-280750Y505000D02*
X-271250Y505000D01*
X-171250Y606500D02*
X-171250Y595500D01*
X-164750D02*
X-164750Y606500D01*
X-171250Y595500D02*
X-164750D01*
X-171250Y606500D02*
X-164750D01*
X-174250Y527500D02*
Y538500D01*
X-180750Y527500D02*
Y538500D01*
X-174250D01*
X-180750Y527500D02*
X-174250D01*
X-176500Y572837D02*
X-159500D01*
X-176500Y542837D02*
X-159500D01*
X-176500D02*
Y572837D01*
X-159500Y542837D02*
Y572837D01*
X-378250Y29100D02*
X-371750D01*
X-378250Y40100D02*
X-371750D01*
X-378250Y29100D02*
Y40100D01*
X-371750Y29100D02*
Y40100D01*
X-321500Y607750D02*
X-305500D01*
X-321500Y599750D02*
X-305500D01*
X-321500D02*
Y607750D01*
X-305500Y599750D02*
Y607750D01*
X-327750Y595500D02*
X-327750Y606500D01*
X-334250Y595500D02*
Y606500D01*
X-327750D01*
X-334250Y595500D02*
X-327750Y595500D01*
X-325500Y563413D02*
X-308500D01*
X-325500Y593413D02*
X-308500D01*
Y563413D02*
Y593413D01*
X-325500Y563413D02*
Y593413D01*
X-330500Y213600D02*
Y229600D01*
X-338500Y213600D02*
Y229600D01*
X-330500D01*
X-338500Y213600D02*
X-330500D01*
X-343250Y235850D02*
X-332250D01*
X-343250Y242350D02*
X-332250D01*
Y235850D02*
Y242350D01*
X-343250Y235850D02*
Y242350D01*
X-375587Y216600D02*
Y233600D01*
X-345587Y216600D02*
Y233600D01*
X-375587Y216600D02*
X-345587D01*
X-375587Y233600D02*
X-345587D01*
X117500Y213600D02*
Y229600D01*
X109500Y213600D02*
Y229600D01*
X117500D01*
X109500Y213600D02*
X117500D01*
X104750Y235850D02*
X115750D01*
X104750Y242350D02*
X115750D01*
Y235850D02*
Y242350D01*
X104750Y235850D02*
Y242350D01*
X72413Y216600D02*
Y233600D01*
X102413Y216600D02*
Y233600D01*
X72413Y216600D02*
X102413D01*
X72413Y233600D02*
X102413D01*
X263500Y213600D02*
Y229600D01*
X255500Y213600D02*
Y229600D01*
X263500D01*
X255500Y213600D02*
X263500D01*
X250750Y235850D02*
X261750D01*
X250750Y242350D02*
X261750D01*
Y235850D02*
Y242350D01*
X250750Y235850D02*
Y242350D01*
X218413Y216600D02*
Y233600D01*
X248413Y216600D02*
Y233600D01*
X218413Y216600D02*
X248413D01*
X218413Y233600D02*
X248413D01*
X-176500Y213600D02*
Y229600D01*
X-184500Y213600D02*
Y229600D01*
X-176500D01*
X-184500Y213600D02*
X-176500D01*
X-189250Y235850D02*
X-178250D01*
X-189250Y242350D02*
X-178250D01*
Y235850D02*
Y242350D01*
X-189250Y235850D02*
Y242350D01*
X-221587Y216600D02*
Y233600D01*
X-191587Y216600D02*
Y233600D01*
X-221587Y216600D02*
X-191587D01*
X-221587Y233600D02*
X-191587D01*
X-636500Y213600D02*
Y229600D01*
X-644500Y213600D02*
Y229600D01*
X-636500D01*
X-644500Y213600D02*
X-636500D01*
X-649250Y235850D02*
X-638250D01*
X-649250Y242350D02*
X-638250D01*
Y235850D02*
Y242350D01*
X-649250Y235850D02*
Y242350D01*
X-681587Y216600D02*
Y233600D01*
X-651587Y216600D02*
Y233600D01*
X-681587Y216600D02*
X-651587D01*
X-681587Y233600D02*
X-651587D01*
X572500Y213600D02*
Y229600D01*
X564500Y213600D02*
Y229600D01*
X572500D01*
X564500Y213600D02*
X572500D01*
X559750Y235850D02*
X570750D01*
X559750Y242350D02*
X570750D01*
Y235850D02*
Y242350D01*
X559750Y235850D02*
Y242350D01*
X-486500Y213600D02*
Y229600D01*
X-494500Y213600D02*
Y229600D01*
X-486500D01*
X-494500Y213600D02*
X-486500D01*
X-499250Y235850D02*
X-488250D01*
X-499250Y242350D02*
X-488250D01*
Y235850D02*
Y242350D01*
X-499250Y235850D02*
Y242350D01*
X-531587Y216600D02*
Y233600D01*
X-501587Y216600D02*
Y233600D01*
X-531587Y216600D02*
X-501587D01*
X-531587Y233600D02*
X-501587D01*
X-30500Y213600D02*
Y229600D01*
X-38500Y213600D02*
Y229600D01*
X-30500D01*
X-38500Y213600D02*
X-30500D01*
X-43250Y235850D02*
X-32250D01*
X-43250Y242350D02*
X-32250D01*
Y235850D02*
Y242350D01*
X-43250Y235850D02*
Y242350D01*
X-75587Y216600D02*
Y233600D01*
X-45587Y216600D02*
Y233600D01*
X-75587Y216600D02*
X-45587D01*
X-75587Y233600D02*
X-45587D01*
X419500Y213600D02*
Y229600D01*
X411500Y213600D02*
Y229600D01*
X419500D01*
X411500Y213600D02*
X419500D01*
X406750Y235850D02*
X417750D01*
X406750Y242350D02*
X417750D01*
Y235850D02*
Y242350D01*
X406750Y235850D02*
Y242350D01*
X374413Y216600D02*
Y233600D01*
X404413Y216600D02*
Y233600D01*
X374413Y216600D02*
X404413D01*
X374413Y233600D02*
X404413D01*
X720500Y213600D02*
Y229600D01*
X712500Y213600D02*
Y229600D01*
X720500D01*
X712500Y213600D02*
X720500D01*
X707750Y235850D02*
X718750Y235850D01*
X707750Y242350D02*
X718750Y242350D01*
Y235850D02*
Y242350D01*
X707750Y235850D02*
Y242350D01*
X675413Y216600D02*
Y233600D01*
X705413Y216600D02*
X705413Y233600D01*
X675413Y216600D02*
X705413D01*
X675413Y233600D02*
X705413D01*
X-148000Y301100D02*
X-132000D01*
X-148000Y293100D02*
X-132000D01*
X-148000D02*
Y301100D01*
X-132000Y293100D02*
Y301100D01*
X649250Y27000D02*
X655750D01*
X649250Y38000D02*
X655750D01*
X649250Y27000D02*
Y38000D01*
X655750Y27000D02*
Y38000D01*
X39250Y27000D02*
X45750D01*
X39250Y38000D02*
X45750D01*
X39250Y27000D02*
Y38000D01*
X45750Y27000D02*
Y38000D01*
X164750Y27050D02*
X171250D01*
X164750Y38050D02*
X171250D01*
X164750Y27050D02*
Y38050D01*
X171250Y27050D02*
Y38050D01*
X-225750Y27000D02*
X-219250D01*
X-225750Y38000D02*
X-219250D01*
X-225750Y27000D02*
Y38000D01*
X-219250Y27000D02*
Y38000D01*
X-685500Y41350D02*
Y47850D01*
X-674500Y41350D02*
Y47850D01*
X-685500Y47850D02*
X-674500Y47850D01*
X-685500Y41350D02*
X-674500Y41350D01*
X494250Y33000D02*
X500750D01*
X494250Y22000D02*
X500750D01*
Y33000D01*
X494250Y22000D02*
Y33000D01*
X-535101Y-28500D02*
X-528600D01*
X-535100Y-17500D02*
X-528601D01*
X-535101Y-28500D02*
X-535100Y-17500D01*
X-528601D02*
X-528600Y-28500D01*
X-113250Y33250D02*
X-106750D01*
X-113250Y22250D02*
X-106750D01*
Y33250D01*
X-113250Y22250D02*
Y33250D01*
X381750Y5500D02*
X388250D01*
X381750Y-5500D02*
X388250D01*
Y5500D01*
X381750Y-5500D02*
Y5500D01*
X-588250Y532650D02*
X-577250D01*
X-588250Y539150D02*
X-577250D01*
Y532650D02*
Y539150D01*
X-588250Y532650D02*
Y539150D01*
X-588250Y530150D02*
X-577250D01*
X-588250Y523650D02*
X-577250D01*
X-588250D02*
Y530150D01*
X-577250Y523650D02*
Y530150D01*
X-588250Y542020D02*
X-577250D01*
X-588250Y548520D02*
X-577250D01*
Y542020D02*
Y548520D01*
X-588250Y542020D02*
Y548520D01*
X-588250Y557520D02*
X-577250D01*
X-588250Y551020D02*
X-577250D01*
X-588250D02*
Y557520D01*
X-577250Y551020D02*
Y557520D01*
X-588250Y521150D02*
X-577250D01*
X-588250Y514650D02*
X-577250D01*
X-588250D02*
Y521150D01*
X-577250Y514650D02*
Y521150D01*
X-620750Y579900D02*
X-598750D01*
X-620750Y565900D02*
X-598750D01*
X-620750D02*
Y579900D01*
X-598750Y565900D02*
Y579900D01*
X-588250Y584150D02*
X-577250D01*
X-588250Y577650D02*
X-577250D01*
X-588250D02*
Y584150D01*
X-577250Y577650D02*
Y584150D01*
X-588250Y575150D02*
X-577250D01*
X-588250Y568650D02*
X-577250D01*
X-588250D02*
Y575150D01*
X-577250Y568650D02*
Y575150D01*
X-588250Y566150D02*
X-577250D01*
X-588250Y559650D02*
X-577250D01*
X-588250D02*
Y566150D01*
X-577250Y559650D02*
Y566150D01*
X-588250Y442650D02*
X-577250D01*
X-588250Y449150D02*
X-577250D01*
Y442650D02*
Y449150D01*
X-588250Y442650D02*
Y449150D01*
X-588250Y440150D02*
X-577250Y440150D01*
X-588250Y433650D02*
X-577250D01*
X-588250D02*
Y440150D01*
X-577250Y440150D02*
X-577250Y433650D01*
X-588250Y452020D02*
X-577250Y452020D01*
X-588250Y458520D02*
X-577250D01*
Y452020D02*
Y458520D01*
X-588250D02*
X-588250Y452020D01*
X-588250Y467520D02*
X-577250D01*
X-588250Y461020D02*
X-577250D01*
X-588250D02*
Y467520D01*
X-577250Y461020D02*
Y467520D01*
X-588250Y431150D02*
X-577250D01*
X-588250Y424650D02*
X-577250Y424650D01*
X-588250Y424650D02*
Y431150D01*
X-577250Y424650D02*
X-577250Y431150D01*
X-620750Y489900D02*
X-598750D01*
X-620750Y475900D02*
X-598750D01*
X-620750Y489900D02*
X-620750Y475900D01*
X-598750D02*
X-598750Y489900D01*
X-588250Y494150D02*
X-577250Y494150D01*
X-588250Y487650D02*
X-577250D01*
X-588250D02*
Y494150D01*
X-577250Y494150D02*
X-577250Y487650D01*
X-588250Y485150D02*
X-577250D01*
X-588250Y478650D02*
X-577250D01*
X-588250D02*
Y485150D01*
X-577250Y478650D02*
Y485150D01*
X-588250Y476150D02*
X-577250D01*
X-588250Y469650D02*
X-577250D01*
X-588250D02*
Y476150D01*
X-577250Y469650D02*
Y476150D01*
X-433220Y-285780D02*
Y-279280D01*
X-422220Y-285780D02*
Y-279280D01*
X-433220Y-279280D02*
X-422220Y-279280D01*
X-433220Y-285780D02*
X-422220Y-285780D01*
X-315500Y-320750D02*
Y-314250D01*
X-304500Y-320750D02*
Y-314250D01*
X-315500Y-314250D02*
X-304500Y-314250D01*
X-315500Y-320750D02*
X-304500Y-320750D01*
X-600500Y-233250D02*
Y-226750D01*
X-589500Y-233250D02*
Y-226750D01*
X-600500D02*
X-589500D01*
X-600500Y-233250D02*
X-589500D01*
X469500Y-308250D02*
Y-301750D01*
X458500Y-308250D02*
Y-301750D01*
Y-308250D02*
X469500Y-308250D01*
X458500Y-301750D02*
X469500Y-301750D01*
X573250Y-321500D02*
Y-315000D01*
X584250Y-321500D02*
Y-315000D01*
X573250Y-315000D02*
X584250Y-315000D01*
X573250Y-321500D02*
X584250Y-321500D01*
X-750500Y301100D02*
X-734500Y301100D01*
X-750500Y293100D02*
X-734500D01*
X-750500D02*
Y301100D01*
X-734500Y293100D02*
Y301100D01*
X-761750Y291350D02*
Y302350D01*
X-768250Y291350D02*
Y302350D01*
X-761750D01*
X-768250Y291350D02*
X-761750D01*
X-725750Y291600D02*
X-719250D01*
X-725750Y302600D02*
X-719250D01*
X-725750Y291600D02*
Y302600D01*
X-719250Y291600D02*
X-719250Y302600D01*
X-447850Y294005D02*
X-441350Y294005D01*
X-447850Y305005D02*
X-441350D01*
X-447850Y294005D02*
X-447850Y305005D01*
X-441350Y294005D02*
X-441350Y305005D01*
X99250Y294500D02*
X105750D01*
X99250Y305500D02*
X105750D01*
X99250Y294500D02*
Y305500D01*
X105750Y294500D02*
Y305500D01*
X-158000Y302600D02*
X-158000Y291600D01*
X-164500D02*
X-164500Y302600D01*
X-158000D01*
X-164500Y291600D02*
X-158000D01*
X-123250D02*
X-116750D01*
X-123250Y302600D02*
X-116750D01*
X-123250Y291600D02*
Y302600D01*
X-116750Y291600D02*
Y302600D01*
X149250Y294500D02*
X155750D01*
X149250Y305500D02*
X155750D01*
X149250Y294500D02*
Y305500D01*
X155750Y294500D02*
Y305500D01*
X524250Y354500D02*
X530750D01*
X524250Y365500D02*
X530750D01*
X524250Y354500D02*
Y365500D01*
X530750Y354500D02*
Y365500D01*
X-459000Y292505D02*
X-459000Y306505D01*
X-481000Y292505D02*
Y306505D01*
Y292505D02*
X-459000D01*
X-481000Y306505D02*
X-459000D01*
X699250Y419706D02*
X705750D01*
X699250Y408705D02*
X705750D01*
Y419706D01*
X699250Y408705D02*
Y419706D01*
X-48485Y532828D02*
X-37171Y521515D01*
X-42828Y538485D02*
X-31515Y527172D01*
X-37171Y521515D02*
X-31515Y527172D01*
X-48485Y532828D02*
X-42828Y538485D01*
X-62828Y558485D02*
X-51515Y547172D01*
X-68485Y552828D02*
X-57172Y541515D01*
X-68485Y552828D02*
X-62828Y558485D01*
X-57172Y541515D02*
X-51515Y547172D01*
X-294323Y-389350D02*
X-294323Y-400350D01*
X-287823D02*
X-287823Y-389350D01*
X-294323Y-400350D02*
X-287823D01*
X-294323Y-389350D02*
X-287823D01*
X-365250Y17876D02*
X-358750D01*
X-365250Y28877D02*
X-358750D01*
X-365250Y17876D02*
Y28877D01*
X-358750Y17876D02*
Y28877D01*
X-365250Y-29123D02*
X-358750D01*
X-365250Y-18124D02*
X-358750D01*
X-365250Y-29123D02*
Y-18124D01*
X-358750Y-29123D02*
Y-18124D01*
X-318000Y-311250D02*
X-318000Y-301750D01*
X-301500D02*
X-301500Y-311250D01*
X-318000Y-301750D02*
X-301500D01*
X-318000Y-311250D02*
X-301500D01*
X558750Y44000D02*
X568250D01*
X558750Y60500D02*
X568250D01*
X558750Y44000D02*
Y60500D01*
X568250Y44000D02*
Y60500D01*
X545750Y44000D02*
Y60500D01*
X555250Y44000D02*
Y60500D01*
X545750Y44000D02*
X555250D01*
X545750Y60500D02*
X555250D01*
X532750Y44000D02*
Y60500D01*
X542250Y44000D02*
Y60500D01*
X532750Y44000D02*
X542250Y44000D01*
X532750Y60500D02*
X542250Y60500D01*
X529250Y44000D02*
Y60500D01*
X519750Y44000D02*
Y60500D01*
X529250D01*
X519750Y44000D02*
X529250D01*
X505250Y-30500D02*
X514750Y-30500D01*
X505250Y-14000D02*
X514750D01*
X505250Y-30500D02*
Y-14000D01*
X514750Y-30500D02*
X514750Y-14000D01*
X484500Y0D02*
X500500Y0D01*
X484500Y-20000D02*
X500500D01*
X484500Y-26000D02*
X500500Y-26000D01*
Y6000D01*
X484500Y6000D02*
X500500Y6000D01*
X484500Y-26000D02*
Y6000D01*
X567000Y-73500D02*
X576500D01*
X567000Y-57000D02*
X576500Y-57000D01*
X567000Y-73500D02*
X567000Y-57000D01*
X576500Y-73500D02*
Y-57000D01*
X551500Y-73500D02*
X561000D01*
X551500Y-57000D02*
X561000D01*
X551500Y-73500D02*
Y-57000D01*
X561000Y-73500D02*
Y-57000D01*
X547250Y-70750D02*
Y-59750D01*
X540750Y-70750D02*
Y-59750D01*
X547250D01*
X540750Y-70750D02*
X547250D01*
X527000Y-73500D02*
X536500Y-73500D01*
X527000Y-57000D02*
X536500Y-57000D01*
X527000Y-73500D02*
Y-57000D01*
X536500Y-73500D02*
Y-57000D01*
X511500Y-73500D02*
X521000Y-73500D01*
X511500Y-57000D02*
X521000Y-57000D01*
X511500Y-73500D02*
Y-57000D01*
X521000Y-73500D02*
Y-57000D01*
X555750Y-80500D02*
X572250Y-80500D01*
X555750Y-90000D02*
X572250D01*
X555750D02*
X555750Y-80500D01*
X572250Y-90000D02*
Y-80500D01*
X515750D02*
X532250D01*
X515750Y-90000D02*
X532250D01*
X515750D02*
Y-80500D01*
X532250Y-90000D02*
Y-80500D01*
X724897Y45400D02*
X724897Y34400D01*
X731397D02*
X731397Y45400D01*
X724897Y34400D02*
X731397D01*
X724897Y45400D02*
X731397D01*
X718897Y45400D02*
X718897Y34400D01*
X712397D02*
X712397Y45400D01*
X718897D01*
X712397Y34400D02*
X718897D01*
X706397Y34400D02*
Y45400D01*
X699897Y34400D02*
Y45400D01*
X706397D01*
X699897Y34400D02*
X706397D01*
X687397Y45400D02*
X693897D01*
X687397Y34400D02*
X693897D01*
Y45400D01*
X687397Y34400D02*
Y45400D01*
X674897D02*
X681397D01*
X674897Y34400D02*
X681397Y34400D01*
Y45400D01*
X674897Y34400D02*
Y45400D01*
X662750Y2500D02*
X669250D01*
X662750Y13500D02*
X669250D01*
X662750D02*
X662750Y2500D01*
X669250D02*
X669250Y13500D01*
X673250Y750D02*
X682750Y750D01*
X673250Y17250D02*
X682750D01*
X673250Y750D02*
Y17250D01*
X682750D02*
X682750Y750D01*
X657897Y1650D02*
Y18150D01*
X648397Y1650D02*
Y18150D01*
X657897D01*
X648397Y1650D02*
X657897Y1650D01*
X655000Y-30000D02*
Y-8000D01*
X669000Y-30000D02*
Y-8000D01*
X655000Y-30000D02*
X669000D01*
X655000Y-8000D02*
X669000D01*
X673250Y-9500D02*
X682750Y-9500D01*
X673250Y-26000D02*
X682750Y-26000D01*
X682750Y-9500D01*
X673250Y-26000D02*
Y-9500D01*
X718647Y15400D02*
X718647Y-15600D01*
X687647Y15400D02*
X687647Y-15600D01*
X687647Y15400D02*
X718647D01*
X687647Y-15600D02*
X718647D01*
X687647Y-42850D02*
X698647D01*
X687647Y-36350D02*
X698647Y-36350D01*
X698647Y-42850D01*
X687647D02*
Y-36350D01*
X707647Y-52850D02*
X718647Y-52850D01*
X707647Y-46350D02*
X718647D01*
Y-52850D02*
Y-46350D01*
X707647Y-52850D02*
Y-46350D01*
X687647Y-52850D02*
X698647Y-52850D01*
X687647Y-46350D02*
X698647Y-46350D01*
X698647Y-52850D01*
X687647Y-52850D02*
Y-46350D01*
X573250Y-312520D02*
X573250Y-303020D01*
X589750D02*
X589750Y-312520D01*
X573250Y-303020D02*
X589750D01*
X573250Y-312520D02*
X589750D01*
X595677Y-389350D02*
X602177D01*
X595677Y-400350D02*
X602177D01*
Y-389350D01*
X595677Y-400350D02*
Y-389350D01*
X-473000Y563000D02*
X-457000Y563000D01*
X-473000Y543000D02*
X-457000Y543000D01*
X-473000Y537000D02*
X-457000D01*
X-457000Y569000D01*
X-473000Y569000D02*
X-457000Y569000D01*
X-473000Y569000D02*
X-473000Y537000D01*
X-478000Y534000D02*
X-478000Y556000D01*
X-492000Y534000D02*
Y556000D01*
X-478000Y556000D01*
X-492000Y534000D02*
X-478000Y534000D01*
X-483000Y518250D02*
X-472000Y518250D01*
X-483000Y524750D02*
X-472000Y524750D01*
Y518250D02*
Y524750D01*
X-483000Y524750D02*
X-483000Y518250D01*
X-483000Y500100D02*
X-472000Y500100D01*
X-483000Y506600D02*
X-472000D01*
Y500100D02*
Y506600D01*
X-483000Y500100D02*
X-483000Y506600D01*
X-493000Y494100D02*
X-471000Y494100D01*
X-493000Y480100D02*
X-471000D01*
X-493000Y494100D02*
X-493000Y480100D01*
X-471000D02*
Y494100D01*
X-396000Y524100D02*
X-385000Y524100D01*
X-396000Y530600D02*
X-385000Y530600D01*
Y524100D02*
Y530600D01*
X-396000Y530600D02*
X-396000Y524100D01*
X-385000Y512100D02*
X-385000Y518600D01*
X-396000D02*
X-396000Y512100D01*
X-385000Y512100D01*
X-396000Y518600D02*
X-385000D01*
X242503Y564103D02*
Y575103D01*
X249003D02*
X249003Y564103D01*
X242503D02*
X249003D01*
X242503Y575103D02*
X249003D01*
Y524103D02*
X249004Y535103D01*
X242503Y524103D02*
Y535103D01*
X249004D01*
X242503Y524103D02*
X249003Y524103D01*
X188253Y529603D02*
X238253Y529603D01*
X188253Y569603D02*
X238253D01*
X188253Y529603D02*
Y569603D01*
X238253Y529603D02*
X238253Y569603D01*
X-181750Y575000D02*
X-159750Y575000D01*
X-181750Y589000D02*
X-159750Y589000D01*
X-159750Y575000D01*
X-181750Y575000D02*
Y589000D01*
X-197250Y584500D02*
X-197250Y573500D01*
X-190750D02*
Y584500D01*
X-197250Y573500D02*
X-190750D01*
X-197250Y584500D02*
X-190750Y584500D01*
X-184250Y527500D02*
X-184250Y538500D01*
X-190750Y527500D02*
Y538500D01*
X-184250D01*
X-190750Y527500D02*
X-184250Y527500D01*
X-279750Y496500D02*
X-279750Y485500D01*
X-273250D02*
Y496500D01*
X-279750Y485500D02*
X-273250D01*
X-279750Y496500D02*
X-273250D01*
X-262500Y465750D02*
X-251500D01*
X-262500Y472250D02*
X-251500Y472250D01*
Y465750D02*
Y472250D01*
X-262500Y465750D02*
X-262500Y472250D01*
X-272250Y465000D02*
X-272250Y479000D01*
X-294250Y479000D02*
X-294250Y465000D01*
X-272250Y465000D01*
X-294250Y479000D02*
X-272250Y479000D01*
X-288000Y486250D02*
Y508250D01*
X-302000Y508250D02*
X-302000Y486250D01*
X-302000Y508250D02*
X-288000Y508250D01*
X-302000Y486250D02*
X-288000D01*
X114897Y45400D02*
X114897Y34400D01*
X121397D02*
X121397Y45400D01*
X114897Y34400D02*
X121397D01*
X114897Y45400D02*
X121397D01*
X202698Y45450D02*
X209197Y45450D01*
X202698Y34450D02*
X209197Y34450D01*
Y45450D01*
X202698Y34450D02*
Y45450D01*
X212698Y-30300D02*
X212698Y-23800D01*
X223697Y-30300D02*
Y-23800D01*
X212698D02*
X223697D01*
X212698Y-30300D02*
X223697Y-30300D01*
X190198Y45450D02*
X196698Y45450D01*
X190198Y34450D02*
X196698Y34450D01*
Y45450D01*
X190198Y34450D02*
X190198Y45450D01*
X329750Y-60500D02*
Y-44000D01*
X320250Y-60500D02*
Y-44000D01*
X329750D01*
X320250Y-60500D02*
X329750D01*
X342750Y-60500D02*
Y-44000D01*
X333250Y-60500D02*
Y-44000D01*
X342750D01*
X333250Y-60500D02*
X342750Y-60500D01*
X176450Y2100D02*
X182950Y2100D01*
X176450Y13100D02*
X182950Y13100D01*
X176450Y2100D02*
Y13100D01*
X182950Y2100D02*
X182950Y13100D01*
X303250Y80500D02*
X319750Y80500D01*
X303250Y90000D02*
X319750D01*
X319750Y80500D02*
X319750Y90000D01*
X303250Y80500D02*
Y90000D01*
X202698Y-15550D02*
X233697D01*
X202698Y15450D02*
X233697D01*
X202698Y-15550D02*
Y15450D01*
X233697D02*
X233697Y-15550D01*
X182000Y433450D02*
Y439950D01*
X193000Y433450D02*
Y439950D01*
X182000Y439950D02*
X193000Y439950D01*
X182000Y433450D02*
X193000D01*
X99253Y556847D02*
X105753D01*
X99253Y545846D02*
X105753D01*
Y556847D01*
X99253Y545846D02*
Y556847D01*
X-7064Y554536D02*
X715Y562314D01*
X-11660Y559132D02*
X-3882Y566910D01*
X715Y562314D01*
X-11660Y559132D02*
X-7064Y554536D01*
X96698Y34450D02*
Y45450D01*
X90197Y34450D02*
Y45450D01*
X96698D01*
X90197Y34450D02*
X96698D01*
X-87750Y44000D02*
X-78250D01*
X-87750Y60500D02*
X-78250Y60500D01*
X-87750Y44000D02*
Y60500D01*
X-78250Y44000D02*
X-78250Y60500D01*
X172948Y18200D02*
X172948Y1700D01*
X163447Y1700D02*
Y18200D01*
X172948D01*
X163447Y1700D02*
X172948Y1700D01*
X233948Y34450D02*
Y45450D01*
X227447Y34450D02*
Y45450D01*
X233948D01*
X227447Y34450D02*
X233948D01*
X222698Y-52800D02*
X233697D01*
X222698Y-46300D02*
X233697Y-46300D01*
Y-52800D02*
Y-46300D01*
X222698Y-52800D02*
X222698Y-46300D01*
X343250Y80500D02*
X359750D01*
X343250Y90000D02*
X359750D01*
Y80500D02*
Y90000D01*
X343250Y80500D02*
Y90000D01*
X79253Y556847D02*
X85753D01*
X79253Y545846D02*
X85753D01*
Y556847D01*
X79253Y545846D02*
Y556847D01*
X-48750Y44000D02*
X-39250D01*
X-48750Y60500D02*
X-39250D01*
X-48750Y44000D02*
Y60500D01*
X-39250Y44000D02*
Y60500D01*
X97697Y-42849D02*
X108698Y-42849D01*
X97697Y-36349D02*
X108698Y-36349D01*
Y-42849D02*
Y-36349D01*
X97697Y-36349D02*
X97697Y-42849D01*
X-169303Y34400D02*
Y45400D01*
X-175803D02*
X-175803Y34400D01*
X-175803Y45400D02*
X-169303D01*
X-175803Y34400D02*
X-169303Y34400D01*
X-101750Y-30000D02*
X-92250Y-30000D01*
X-101750Y-13500D02*
X-92250D01*
X-101750Y-30000D02*
Y-13500D01*
X-92250Y-30000D02*
X-92250Y-13500D01*
X77448Y45450D02*
X83947D01*
X77448Y34450D02*
X83947Y34450D01*
X83947Y45450D02*
X83947Y34450D01*
X77448Y34450D02*
Y45450D01*
X61950Y-10150D02*
X71450Y-10150D01*
X61950Y-26650D02*
X71450D01*
X71450Y-10150D02*
X71450Y-26650D01*
X61950D02*
Y-10150D01*
X44700Y-31400D02*
Y-9400D01*
X58700Y-31400D02*
Y-9400D01*
X44700Y-31400D02*
X58700D01*
X44700Y-9400D02*
X58700D01*
X77698Y-42849D02*
X88698D01*
X77698Y-36349D02*
X88698Y-36349D01*
X88698Y-42849D01*
X77698D02*
Y-36349D01*
Y-52849D02*
X88698Y-52849D01*
X77698Y-46350D02*
X88698Y-46350D01*
X88698Y-52849D01*
X77698Y-52849D02*
Y-46350D01*
X-168053Y-42850D02*
X-157053Y-42850D01*
X-168053Y-36350D02*
X-157053Y-36350D01*
Y-42850D02*
Y-36350D01*
X-168053Y-42850D02*
X-168053Y-36350D01*
X-121000Y1000D02*
X-105000D01*
X-121000Y-19000D02*
X-105000Y-19000D01*
X-121000Y-25000D02*
X-105000D01*
Y7000D01*
X-121000D02*
X-105000D01*
X-121000Y-25000D02*
Y7000D01*
X-96000Y-73500D02*
X-86500Y-73500D01*
X-96000Y-57000D02*
X-86500Y-57000D01*
X-96000Y-73500D02*
Y-57000D01*
X-86500Y-73500D02*
Y-57000D01*
X-40500Y-73500D02*
X-31000Y-73500D01*
X-40500Y-57000D02*
X-31000Y-57000D01*
X-40500Y-73500D02*
Y-57000D01*
X-31000Y-73500D02*
Y-57000D01*
X-188053Y-42850D02*
X-177053D01*
X-188053Y-36350D02*
X-177053Y-36350D01*
Y-42850D02*
Y-36350D01*
X-188053Y-42850D02*
X-188053Y-36350D01*
X-188053Y-52850D02*
X-177053Y-52850D01*
X-188053Y-46350D02*
X-177053Y-46350D01*
Y-52850D02*
Y-46350D01*
X-188053Y-52850D02*
X-188053Y-46350D01*
X61950Y350D02*
X71450Y350D01*
X61950Y16850D02*
X71450D01*
X61950Y350D02*
Y16850D01*
X71450D02*
X71450Y350D01*
X123003Y493097D02*
Y499596D01*
X112003Y493097D02*
Y499596D01*
Y493097D02*
X123003D01*
X112003Y499596D02*
X123003D01*
X22003Y473097D02*
Y479597D01*
X33003Y473097D02*
Y479597D01*
X22003D02*
X33003D01*
X22003Y473097D02*
X33003D01*
X-366750Y8127D02*
X-357250Y8127D01*
X-366750Y-8374D02*
X-357250Y-8374D01*
Y8127D01*
X-366750Y-8374D02*
Y8127D01*
X-60250Y-70750D02*
Y-59750D01*
X-66750Y-70750D02*
Y-59750D01*
X-60250Y-59750D01*
X-66750Y-70750D02*
X-60250D01*
X-80500Y-73500D02*
X-71000Y-73500D01*
X-80500Y-57000D02*
X-71000D01*
X-80500Y-73500D02*
X-80500Y-57000D01*
X-71000Y-73500D02*
Y-57000D01*
X-56000Y-73500D02*
X-46500Y-73500D01*
X-56000Y-57000D02*
X-46500Y-57000D01*
X-56000Y-73500D02*
Y-57000D01*
X-46500Y-73500D02*
Y-57000D01*
X49503Y556847D02*
X56003D01*
X49503Y545846D02*
X56003D01*
Y556847D01*
X49503Y545846D02*
Y556847D01*
X69253D02*
X75753D01*
X69253Y545846D02*
X75753D01*
Y556847D01*
X69253Y545846D02*
Y556847D01*
X-202303Y1650D02*
X-192803Y1650D01*
X-202303Y18150D02*
X-192803Y18150D01*
X-202303Y1650D02*
Y18150D01*
X-192803Y1650D02*
X-192803Y18150D01*
X-219300Y-31400D02*
X-219300Y-9400D01*
X-205300Y-31400D02*
Y-9400D01*
X-219300Y-31400D02*
X-205300Y-31400D01*
X-219300Y-9400D02*
X-205300Y-9400D01*
X-202050Y-7150D02*
X-192550D01*
X-202050Y-23650D02*
X-192550Y-23650D01*
X-192550Y-7150D01*
X-202050Y-23650D02*
Y-7150D01*
X-351834Y58000D02*
X-351834Y47000D01*
X-358334D02*
X-358334Y58000D01*
X-351834D01*
X-358334Y47000D02*
X-351834D01*
X22003Y519596D02*
X33003D01*
X22003Y513097D02*
X33003D01*
X22003D02*
Y519596D01*
X33003Y513097D02*
Y519596D01*
X45753Y466847D02*
X45753Y455846D01*
X39253D02*
X39253Y466847D01*
X45753D01*
X39253Y455846D02*
X45753D01*
X33003Y493097D02*
Y499596D01*
X22003Y493097D02*
Y499596D01*
Y493097D02*
X33003D01*
X22003Y499596D02*
X33003D01*
X123003Y483097D02*
Y489596D01*
X112003Y483097D02*
Y489596D01*
Y483097D02*
X123003D01*
X112003Y489596D02*
X123003D01*
X89253Y455846D02*
X95753D01*
X89253Y466847D02*
X95753D01*
X89253Y455846D02*
Y466847D01*
X95753Y455846D02*
Y466847D01*
X-150103Y45400D02*
X-150103Y34400D01*
X-143603D02*
X-143603Y45400D01*
X-150103Y34400D02*
X-143603D01*
X-150103Y45400D02*
X-143603D01*
X-511501Y44000D02*
X-502001D01*
X-511501Y60500D02*
X-502000Y60500D01*
X-511501Y44000D02*
Y60500D01*
X-502001Y44000D02*
X-502000Y60500D01*
X-651500Y31600D02*
X-651500Y47600D01*
X-631500Y31600D02*
X-631500Y47600D01*
X-625500D02*
X-625500Y31600D01*
X-657500Y47600D02*
X-625500D01*
X-657500Y31600D02*
Y47600D01*
Y31600D02*
X-625500Y31600D01*
X-515500Y-80500D02*
X-499000D01*
X-515500Y-90000D02*
X-499000Y-90000D01*
X-515500Y-90000D02*
Y-80500D01*
X-499000Y-90000D02*
Y-80500D01*
X-613000Y14750D02*
X-613000Y24250D01*
X-596500Y14750D02*
X-596500Y24250D01*
X-613000Y24250D02*
X-596500Y24250D01*
X-613000Y14750D02*
X-596500Y14750D01*
X-737500Y11750D02*
Y28250D01*
X-747000Y28250D02*
X-747000Y11750D01*
X-747000Y28250D02*
X-737500Y28250D01*
X-747000Y11750D02*
X-737500Y11750D01*
X-485500Y44000D02*
Y60500D01*
X-476000Y44000D02*
Y60500D01*
X-485500Y44000D02*
X-476000Y44000D01*
X-485500Y60500D02*
X-476000D01*
X59253Y455846D02*
X65753Y455847D01*
X59253Y466847D02*
X65753D01*
X59253Y455846D02*
X59253Y466847D01*
X65753Y455847D02*
X65753Y466847D01*
X-498501Y60500D02*
X-498500Y44000D01*
X-489000Y44000D02*
Y60500D01*
X-498500Y44000D02*
X-489000Y44000D01*
X-498501Y60500D02*
X-489000Y60500D01*
X-737500Y-11750D02*
X-737500Y-28250D01*
X-747000D02*
Y-11750D01*
X-737500Y-11750D01*
X-747000Y-28250D02*
X-737500D01*
X-730500Y-32500D02*
X-730500Y-23000D01*
X-714000Y-32500D02*
Y-23000D01*
X-730500D02*
X-714000D01*
X-730500Y-32500D02*
X-714000Y-32500D01*
X-688250Y29850D02*
X-688250Y39350D01*
X-671750Y29850D02*
Y39350D01*
X-688250D02*
X-671750D01*
X-688250Y29850D02*
X-671750Y29850D01*
X108947Y34450D02*
Y45450D01*
X102448Y34450D02*
Y45450D01*
X108947D01*
X102448Y34450D02*
X108947D01*
X123003Y513097D02*
X123003Y519596D01*
X112003Y513097D02*
Y519596D01*
Y513097D02*
X123003Y513097D01*
X112003Y519596D02*
X123003D01*
X221698Y34450D02*
Y45450D01*
X215198D02*
X215198Y34450D01*
X215198Y45450D02*
X221698D01*
X215198Y34450D02*
X221698D01*
X346250Y-44000D02*
X355750D01*
X346250Y-60500D02*
X355750D01*
Y-44000D01*
X346250Y-60500D02*
Y-44000D01*
X360250Y30750D02*
X369750Y30750D01*
X360250Y14250D02*
X369750Y14250D01*
Y30750D01*
X360250Y30750D02*
X360250Y14250D01*
X-10747Y524596D02*
X11253D01*
X-10747Y510597D02*
X11253D01*
X-10747D02*
Y524596D01*
X11253Y510597D02*
Y524596D01*
X361000Y-5000D02*
X377000D01*
X361000Y-25000D02*
X377000D01*
X361000Y-31000D02*
X377000D01*
X377000Y1000D01*
X361000D02*
X377000D01*
X361000D02*
X361000Y-31000D01*
X202698Y-42800D02*
X213697D01*
X202698Y-36300D02*
X213697Y-36300D01*
Y-42800D02*
Y-36300D01*
X202698Y-42800D02*
Y-36300D01*
Y-52800D02*
X213697Y-52800D01*
X202698Y-46300D02*
X213697D01*
X213697Y-52800D02*
X213697Y-46300D01*
X202698Y-52800D02*
Y-46300D01*
X39253Y556847D02*
X45753D01*
X39253Y545846D02*
X45753D01*
Y556847D01*
X39253Y545846D02*
Y556847D01*
X59253D02*
X65753D01*
X59253Y545846D02*
X65753D01*
Y556847D01*
X59253Y545846D02*
Y556847D01*
X354500Y73500D02*
X364000Y73500D01*
X354500Y57000D02*
X364000D01*
X364000Y73500D02*
X364000Y57000D01*
X354500D02*
Y73500D01*
X52450Y2100D02*
X58950Y2100D01*
X52450Y13100D02*
X58950D01*
X52450D02*
X52450Y2100D01*
X58950Y2100D02*
X58950Y13100D01*
X64948Y45450D02*
X71448D01*
X64948Y34450D02*
X71448Y34450D01*
Y45450D01*
X64948Y34450D02*
Y45450D01*
X47948Y1650D02*
Y18151D01*
X38447D02*
X38448Y1650D01*
X38447Y18151D02*
X47948D01*
X38448Y1650D02*
X47948D01*
X13003Y508847D02*
X13003Y502346D01*
X2003Y502347D02*
Y508847D01*
Y502347D02*
X13003Y502346D01*
X2003Y508847D02*
X13003Y508847D01*
X-74750Y60500D02*
X-74750Y44000D01*
X-65250D02*
Y60500D01*
X-74750Y44000D02*
X-65250D01*
X-74750Y60500D02*
X-65250Y60500D01*
X-51750Y-80500D02*
X-35250Y-80500D01*
X-51750Y-90000D02*
X-35250D01*
X-51750D02*
X-51750Y-80500D01*
X-35250Y-90000D02*
Y-80500D01*
X-91750D02*
X-75250D01*
X-91750Y-90000D02*
X-75250D01*
X-91750D02*
Y-80500D01*
X-75250Y-90000D02*
Y-80500D01*
X-200553Y45400D02*
X-194053Y45400D01*
X-200553Y34400D02*
X-194053D01*
X-194053Y45400D02*
X-194053Y34400D01*
X-200553D02*
X-200553Y45400D01*
X-188303Y45400D02*
X-181803D01*
X-188303Y34400D02*
X-181803D01*
X-181803Y45400D02*
X-181803Y34400D01*
X-188303D02*
X-188303Y45400D01*
X-213050Y1600D02*
X-206550Y1600D01*
X-213050Y12600D02*
X-206550Y12600D01*
X-213050Y1600D02*
Y12600D01*
X-206550Y1600D02*
X-206550Y12600D01*
X349250Y570100D02*
X355750Y570100D01*
X349250Y559100D02*
X355750D01*
X355750Y570100D02*
X355750Y559100D01*
X349250Y570100D02*
X349250Y559100D01*
X85753Y455846D02*
Y466847D01*
X79253Y455846D02*
Y466847D01*
X85753D01*
X79253Y455846D02*
X85753D01*
X-519750Y-73500D02*
X-510250Y-73500D01*
X-519750Y-57000D02*
X-510250Y-57000D01*
X-519750Y-73500D02*
Y-57000D01*
X-510250Y-73500D02*
Y-57000D01*
X-534851Y5500D02*
X-518850D01*
X-534851Y25500D02*
X-518850D01*
X-534851Y31500D02*
X-518850Y31500D01*
X-534851Y31500D02*
X-534851Y-500D01*
X-518850D01*
Y31500D01*
X-156803Y34400D02*
Y45400D01*
X-163303Y34400D02*
Y45400D01*
X-156803D01*
X-163303Y34400D02*
X-156803D01*
X-306750Y58000D02*
X-306750Y47000D01*
X-313250D02*
X-313250Y58000D01*
X-306750D01*
X-313250Y47000D02*
X-306750D01*
X-388000Y-10123D02*
X-372000D01*
X-388000Y9876D02*
X-372000D01*
X-388000Y15876D02*
X-372000D01*
X-388000Y-16123D02*
Y15876D01*
Y-16123D02*
X-372000D01*
Y15876D01*
X-526600Y-31250D02*
X-517100Y-31250D01*
X-526600Y-14750D02*
X-517100D01*
X-526600Y-31250D02*
Y-14750D01*
X-517100Y-31250D02*
X-517100Y-14750D01*
X-484000Y-70750D02*
Y-59750D01*
X-490500D02*
X-490500Y-70750D01*
X-490500Y-59750D02*
X-484000D01*
X-490500Y-70750D02*
X-484000Y-70750D01*
X-727750Y-3250D02*
X-716750D01*
X-727750Y3250D02*
X-716750Y3250D01*
Y-3250D02*
Y3250D01*
X-727750Y-3250D02*
Y3250D01*
X-472500Y44000D02*
X-463000Y44000D01*
X-472500Y60500D02*
X-463000D01*
X-472500Y44000D02*
Y60500D01*
X-463000D02*
X-463000Y44000D01*
X123003Y533097D02*
Y539596D01*
X112003Y533097D02*
Y539596D01*
Y533097D02*
X123003Y533097D01*
X112003Y539596D02*
X123003D01*
X239897Y45400D02*
X239897Y34400D01*
X246397D02*
X246397Y45400D01*
X239897Y34400D02*
X246397D01*
X239897Y45400D02*
X246397D01*
X123003Y523097D02*
Y529597D01*
X112003Y523097D02*
Y529597D01*
Y523097D02*
X123003Y523097D01*
X112003Y529597D02*
X123003D01*
X188950Y1350D02*
X198450D01*
X188950Y17850D02*
X198450Y17850D01*
X188950Y1350D02*
Y17850D01*
X198450Y1350D02*
X198450Y17850D01*
X222698Y-42800D02*
X233697D01*
X222698Y-36300D02*
X233697D01*
Y-42800D02*
Y-36300D01*
X222698Y-42800D02*
X222698Y-36300D01*
X307250Y-44000D02*
X316750Y-44000D01*
X307250Y-60500D02*
X316750Y-60500D01*
Y-44000D01*
X307250Y-60500D02*
Y-44000D01*
X2482Y573274D02*
X10260Y581053D01*
X7078Y568678D02*
X14857Y576456D01*
X2482Y573274D02*
X7078Y568678D01*
X10260Y581053D02*
X14857Y576456D01*
X170700Y-30400D02*
Y-8400D01*
X184700Y-30400D02*
Y-8400D01*
X170700Y-30400D02*
X184700D01*
X170700Y-8400D02*
X184700D01*
X328250Y59750D02*
Y70750D01*
X334750Y59750D02*
Y70750D01*
X328250Y59750D02*
X334750D01*
X328250Y70750D02*
X334750D01*
X314500Y73500D02*
X324000D01*
X314500Y57000D02*
X324000D01*
Y73500D01*
X314500Y57000D02*
Y73500D01*
X299000D02*
X308500D01*
X299000Y57000D02*
X308500D01*
Y73500D01*
X299000Y57000D02*
Y73500D01*
X188950Y-9150D02*
X198450D01*
X188950Y-25650D02*
X198450Y-25650D01*
Y-9150D01*
X188950Y-25650D02*
Y-9150D01*
X339000Y73500D02*
X348500Y73500D01*
X339000Y57000D02*
X348500D01*
X348500Y73500D02*
X348500Y57000D01*
X339000D02*
Y73500D01*
X89003Y556847D02*
X95503D01*
X89003Y545846D02*
X95503D01*
Y556847D01*
X89003Y545846D02*
Y556847D01*
X87697Y-30350D02*
Y-23849D01*
X98698Y-30350D02*
Y-23849D01*
X87697D02*
X98698D01*
X87697Y-30350D02*
X98698Y-30350D01*
X-61750Y44000D02*
X-61750Y60500D01*
X-52250Y44000D02*
Y60500D01*
X-61750Y44000D02*
X-52250Y44000D01*
X-61750Y60500D02*
X-52250D01*
X77698Y-15599D02*
X108698D01*
X77698Y15401D02*
X108698D01*
X77698D02*
X77698Y-15599D01*
X108698Y15401D02*
X108698Y-15599D01*
X97697Y-52849D02*
X108698Y-52849D01*
X97697Y-46350D02*
X108698D01*
Y-52849D02*
Y-46350D01*
X97697Y-52849D02*
Y-46350D01*
X-178053Y-30350D02*
Y-23850D01*
X-167053Y-30350D02*
Y-23850D01*
X-178053D02*
X-167053D01*
X-178053Y-30350D02*
X-167053Y-30350D01*
X17750Y45100D02*
X24250D01*
X17750Y34100D02*
X24250D01*
Y45100D01*
X17750Y34100D02*
Y45100D01*
X13003Y493347D02*
Y499847D01*
X2003Y493347D02*
Y499846D01*
Y493347D02*
X13003Y493347D01*
X2003Y499846D02*
X13003Y499847D01*
X-188053Y-15600D02*
X-157053D01*
X-188053Y15400D02*
X-157053D01*
X-188053Y-15600D02*
Y15400D01*
X-157053D02*
X-157053Y-15600D01*
X-217803Y1650D02*
Y18150D01*
X-227303Y1650D02*
Y18150D01*
X-217803Y18150D01*
X-227303Y1650D02*
X-217803Y1650D01*
X-168053Y-52850D02*
X-157053D01*
X-168053Y-46350D02*
X-157053D01*
Y-52850D02*
Y-46350D01*
X-168053Y-52850D02*
Y-46350D01*
X69253Y455846D02*
X75753D01*
X69253Y466847D02*
X75753D01*
X69253Y455846D02*
Y466847D01*
X75753Y455846D02*
Y466847D01*
X99253Y455846D02*
X105753D01*
X99253Y466847D02*
X105753D01*
X99253Y455846D02*
Y466847D01*
X105753Y455846D02*
Y466847D01*
X-504250Y-73500D02*
X-494750Y-73500D01*
X-504250Y-57000D02*
X-494750Y-57000D01*
X-504250Y-73500D02*
Y-57000D01*
X-494750Y-73500D02*
Y-57000D01*
X-475500Y-80500D02*
X-459000D01*
X-475500Y-90000D02*
X-459000Y-90000D01*
X-475500Y-90000D02*
Y-80500D01*
X-459000Y-90000D02*
X-459000Y-80500D01*
X-479750Y-73500D02*
X-470250D01*
X-479750Y-57000D02*
X-470250Y-57000D01*
X-479750Y-73500D02*
Y-57000D01*
X-470250Y-73500D02*
Y-57000D01*
X-730500Y23000D02*
Y32500D01*
X-714000Y23000D02*
Y32500D01*
X-730500D02*
X-714000D01*
X-730500Y23000D02*
X-714000Y23000D01*
X-730500Y7500D02*
X-714000Y7500D01*
X-730500Y17000D02*
X-714000D01*
Y7500D02*
Y17000D01*
X-730500Y7500D02*
Y17000D01*
X-613000Y11250D02*
X-596500Y11250D01*
X-613000Y1750D02*
X-596500D01*
X-613000Y11250D02*
X-613000Y1750D01*
X-596500D02*
X-596500Y11250D01*
X-464250Y-73500D02*
X-454750D01*
X-464250Y-57000D02*
X-454750Y-57000D01*
X-464250Y-73500D02*
Y-57000D01*
X-454750Y-73500D02*
Y-57000D01*
X-730500Y-17000D02*
X-730500Y-7500D01*
X-714000Y-17000D02*
Y-7500D01*
X-730500D02*
X-714000D01*
X-730500Y-17000D02*
X-714000Y-17000D01*
X-613000Y-24250D02*
X-613000Y-14750D01*
X-596500D02*
X-596500Y-24250D01*
X-613000Y-14750D02*
X-596500D01*
X-613000Y-24250D02*
X-596500Y-24250D01*
X-613000Y-1750D02*
X-596500Y-1750D01*
X-613000Y-11250D02*
X-596500Y-11250D01*
X-613000Y-11250D02*
Y-1750D01*
X-596500Y-1750D02*
X-596500Y-11250D01*
X123003Y503097D02*
Y509596D01*
X112003Y503097D02*
X112003Y509596D01*
X112003Y503097D02*
X123003D01*
X112003Y509596D02*
X123003D01*
X-135750Y429500D02*
X-129250Y429500D01*
X-135750Y440500D02*
X-129250Y440500D01*
X-135750Y440500D02*
X-135750Y429500D01*
X-129250Y429500D02*
X-129250Y440500D01*
X123003Y479596D02*
X123003Y473097D01*
X112003Y479597D02*
X112003Y473097D01*
X123003D01*
X112003Y479597D02*
X123003Y479596D01*
X-45750Y440500D02*
X-45750Y429500D01*
X-39250Y440500D02*
X-39250Y429500D01*
X-45750Y429500D02*
X-39250Y429500D01*
X-45750Y440500D02*
X-39250Y440500D01*
X-315750Y429500D02*
X-309250Y429500D01*
X-315750Y440500D02*
X-309250D01*
X-315750D02*
X-315750Y429500D01*
X-309250Y429500D02*
X-309250Y440500D01*
X-206250Y563500D02*
X-199750D01*
X-206250Y552500D02*
X-199750D01*
X-199750Y563500D02*
X-199750Y552500D01*
X-206250D02*
Y563500D01*
X-285750Y440500D02*
X-285750Y429500D01*
X-279250D02*
Y440500D01*
X-285750Y429500D02*
X-279250D01*
X-285750Y440500D02*
X-279250Y440500D01*
X55753Y455847D02*
X55753Y466847D01*
X49253Y455846D02*
X49253Y466847D01*
X55753D01*
X49253Y455846D02*
X55753Y455847D01*
X707647Y-36350D02*
X707647Y-42850D01*
X718647Y-42850D02*
Y-36350D01*
X707647Y-36350D02*
X718647Y-36350D01*
X707647Y-42850D02*
X718647Y-42850D01*
X697647Y-30350D02*
X708647Y-30350D01*
X697647Y-23850D02*
X708647Y-23850D01*
Y-30350D02*
Y-23850D01*
X697647Y-30350D02*
X697647Y-23850D01*
X-269250Y429500D02*
Y440500D01*
X-275750Y440500D02*
X-275750Y429500D01*
X-275750Y440500D02*
X-269250Y440500D01*
X-275750Y429500D02*
X-269250D01*
X-305750Y440500D02*
X-299250Y440500D01*
X-305750Y429500D02*
X-299250Y429500D01*
X-299250Y440500D02*
X-299250Y429500D01*
X-305750Y429500D02*
Y440500D01*
X-289250Y440500D02*
X-289250Y429500D01*
X-295750D02*
Y440500D01*
X-289250D01*
X-295750Y429500D02*
X-289250D01*
X-325750Y440500D02*
X-319250Y440500D01*
X-325750Y429500D02*
X-319250D01*
X-319250Y440500D02*
X-319250Y429500D01*
X-325750D02*
X-325750Y440500D01*
X-345750D02*
X-339250Y440500D01*
X-345750Y429500D02*
X-339250Y429500D01*
Y440500D01*
X-345750Y429500D02*
X-345750Y440500D01*
X-329250Y440500D02*
X-329250Y429500D01*
X-335750Y440500D02*
X-335750Y429500D01*
X-335750Y440500D02*
X-329250D01*
X-335750Y429500D02*
X-329250D01*
X-265750Y440500D02*
X-259250Y440500D01*
X-265750Y429500D02*
X-259250Y429500D01*
X-259250Y440500D02*
X-259250Y429500D01*
X-265750Y429500D02*
X-265750Y440500D01*
X-249250Y429500D02*
X-249250Y440500D01*
X-255750D02*
X-255750Y429500D01*
X-255750Y440500D02*
X-249250D01*
X-255750Y429500D02*
X-249250D01*
X-245750Y440500D02*
X-239250Y440500D01*
X-245750Y429500D02*
X-239250D01*
X-239250Y440500D02*
X-239250Y429500D01*
X-245750D02*
X-245750Y440500D01*
X-229250Y429500D02*
X-229250Y440500D01*
X-235750D02*
X-235750Y429500D01*
X-235750Y440500D02*
X-229250D01*
X-235750Y429500D02*
X-229250Y429500D01*
X-225750Y440500D02*
X-219250D01*
X-225750Y429500D02*
X-219250Y429500D01*
X-219250Y440500D01*
X-225750Y429500D02*
X-225750Y440500D01*
X-209250Y429500D02*
Y440500D01*
X-215750Y440500D02*
X-215750Y429500D01*
X-215750Y440500D02*
X-209250Y440500D01*
X-215750Y429500D02*
X-209250D01*
X-205750Y440500D02*
X-199250Y440500D01*
X-205750Y429500D02*
X-199250D01*
X-199250Y440500D02*
X-199250Y429500D01*
X-205750D02*
X-205750Y440500D01*
X-189250Y429500D02*
X-189250Y440500D01*
X-195750D02*
X-195750Y429500D01*
X-195750Y440500D02*
X-189250D01*
X-195750Y429500D02*
X-189250Y429500D01*
X-185750Y440500D02*
X-179250D01*
X-185750Y429500D02*
X-179250D01*
Y440500D01*
X-185750Y429500D02*
Y440500D01*
X-169250Y429500D02*
Y440500D01*
X-175750D02*
X-175750Y429500D01*
X-175750Y440500D02*
X-169250D01*
X-175750Y429500D02*
X-169250Y429500D01*
X-165750Y440500D02*
X-159250Y440500D01*
X-165750Y429500D02*
X-159250Y429500D01*
X-159250Y440500D01*
X-165750Y440500D02*
X-165750Y429500D01*
X-149250D02*
X-149250Y440500D01*
X-155750Y429500D02*
X-155750Y440500D01*
X-149250Y440500D01*
X-155750Y429500D02*
X-149250Y429500D01*
X-145750Y440500D02*
X-139250Y440500D01*
X-145750Y429500D02*
X-139250Y429500D01*
X-139250Y440500D02*
X-139250Y429500D01*
X-145750Y440500D02*
X-145750Y429500D01*
X-125750Y440500D02*
X-119250Y440500D01*
X-125750Y429500D02*
X-119250Y429500D01*
X-119250Y440500D02*
X-119250Y429500D01*
X-125750Y429500D02*
Y440500D01*
X-109250Y440500D02*
X-109250Y429500D01*
X-115750Y440500D02*
X-115750Y429500D01*
X-115750Y440500D02*
X-109250Y440500D01*
X-115750Y429500D02*
X-109250Y429500D01*
X-105750Y440500D02*
X-99250Y440500D01*
X-105750Y429500D02*
X-99250Y429500D01*
X-99250Y440500D02*
X-99250Y429500D01*
X-105750Y429500D02*
Y440500D01*
X-89250Y429500D02*
X-89250Y440500D01*
X-95750Y429500D02*
X-95750Y440500D01*
X-89250D01*
X-95750Y429500D02*
X-89250Y429500D01*
X-85750Y440500D02*
X-79250Y440500D01*
X-85750Y429500D02*
X-79250Y429500D01*
X-79250Y440500D02*
X-79250Y429500D01*
X-85750Y429500D02*
X-85750Y440500D01*
X-69250Y440500D02*
X-69250Y429500D01*
X-75750D02*
X-75750Y440500D01*
X-69250Y440500D01*
X-75750Y429500D02*
X-69250D01*
X-65750Y440500D02*
X-59250Y440500D01*
X-65750Y429500D02*
X-59250Y429500D01*
Y440500D01*
X-65750Y429500D02*
X-65750Y440500D01*
X-49250Y429500D02*
X-49250Y440500D01*
X-55750Y429500D02*
X-55750Y440500D01*
X-49250Y440500D01*
X-55750Y429500D02*
X-49250Y429500D01*
X-29250Y429500D02*
X-29250Y440500D01*
X-35750D02*
X-35750Y429500D01*
X-35750Y440500D02*
X-29250D01*
X-35750Y429500D02*
X-29250D01*
X-197250Y552500D02*
X-190750D01*
X-197250Y563500D02*
X-190750D01*
X-197250Y552500D02*
Y563500D01*
X-190750Y552500D02*
X-190750Y563500D01*
M02*
