G04*
G04 #@! TF.GenerationSoftware,Altium Limited,Altium Designer,19.1.8 (144)*
G04*
G04 Layer_Color=65535*
%FSLAX44Y44*%
%MOMM*%
G71*
G01*
G75*
%ADD10C,0.2500*%
%ADD11C,0.2000*%
%ADD12C,0.2540*%
%ADD13C,1.0000*%
%ADD14C,0.5000*%
%ADD15C,0.6350*%
%ADD16C,0.4000*%
%ADD17C,0.3000*%
%ADD18C,0.1500*%
%ADD19R,5.0000X1.0000*%
G36*
X444354Y517031D02*
X447118Y516489D01*
X447445Y516362D01*
X447565Y516340D01*
X449451Y515582D01*
X449744Y515468D01*
X449762Y515457D01*
X450505Y515158D01*
X453153Y513416D01*
X454278Y512299D01*
X455255Y513229D01*
X457496Y514730D01*
X459958Y515830D01*
X462571Y516498D01*
X465260Y516714D01*
X467946Y516472D01*
X470553Y515779D01*
X473004Y514655D01*
X475230Y513132D01*
X477167Y511254D01*
X478757Y509076D01*
X479957Y506660D01*
X480343Y505368D01*
X479972Y504252D01*
X479950Y504230D01*
X479581Y504077D01*
X472885D01*
X472516Y504150D01*
X472169Y504294D01*
X471856Y504503D01*
X471723Y504636D01*
X471653Y504706D01*
X471543Y504871D01*
X471467Y505053D01*
X471429Y505247D01*
Y505346D01*
X471428Y505366D01*
X471420Y505404D01*
X471406Y505440D01*
X471384Y505473D01*
X471371Y505488D01*
X471371Y505488D01*
X471371Y505488D01*
X471371Y505488D01*
X471371Y505488D01*
Y505488D01*
X470594Y506265D01*
X470145Y506672D01*
X469141Y507346D01*
X468025Y507814D01*
X466839Y508058D01*
X466234Y508092D01*
X466228Y508092D01*
X466215Y508091D01*
X466202Y508091D01*
X466189Y508091D01*
X466176D01*
X466162Y508091D01*
X466148Y508091D01*
X466134Y508092D01*
X466127Y508092D01*
X464041D01*
X463533Y508067D01*
X462535Y507869D01*
X461595Y507480D01*
X460750Y506914D01*
X460587Y506767D01*
X460372Y506572D01*
X459288Y506629D01*
X459160Y506635D01*
X459033Y506713D01*
X458827Y506838D01*
X458778Y506869D01*
X458736Y506895D01*
X458570Y507246D01*
X458155Y507902D01*
X457642Y508483D01*
X457042Y508976D01*
X456715Y509185D01*
X456945Y508800D01*
X457361Y508005D01*
X457731Y507187D01*
X457793Y507026D01*
X458192Y505923D01*
X458182Y505744D01*
X458118Y504684D01*
X457899Y504464D01*
X457530Y504312D01*
X450869Y504312D01*
X450578Y504402D01*
X450471Y504476D01*
X450431D01*
X450139Y504567D01*
X449888Y504740D01*
X449699Y504980D01*
X449645Y505123D01*
X448104Y506664D01*
X448104Y506664D01*
X447656Y507071D01*
X446651Y507745D01*
X445882Y508068D01*
X444788Y508292D01*
X444183Y508327D01*
X444177Y508326D01*
X444164Y508326D01*
X444151Y508326D01*
X444138Y508325D01*
X444128D01*
X444120Y508325D01*
X444112Y508326D01*
X444105Y508326D01*
X444101Y508326D01*
X441431Y508327D01*
X441431Y508327D01*
X440859Y508295D01*
X439743Y508045D01*
X438709Y507556D01*
X437927Y506945D01*
X437285Y506931D01*
X436916Y506512D01*
X436927Y506475D01*
X436945Y506399D01*
X436957Y506323D01*
X436963Y506245D01*
Y506207D01*
Y505902D01*
X436625Y505396D01*
X436062Y505163D01*
X435465Y505281D01*
X435249Y505497D01*
X435249Y505497D01*
X435249Y505497D01*
X435297Y505449D01*
X435297Y505449D01*
X435392Y505353D01*
X435392Y505353D01*
X435426Y505316D01*
X435772Y504869D01*
X435816Y504800D01*
X436127Y504146D01*
X436339Y503454D01*
X436446Y502737D01*
X436459Y502375D01*
Y496749D01*
X410755D01*
X410406Y496613D01*
X410128Y496361D01*
X409961Y496025D01*
X409834Y494669D01*
X410142Y492340D01*
X410961Y490138D01*
X412249Y488173D01*
X413942Y486545D01*
X415956Y485335D01*
X418188Y484603D01*
X420527Y484386D01*
X422856Y484696D01*
X425057Y485516D01*
X427020Y486806D01*
X428647Y488501D01*
X429252Y489508D01*
X435025D01*
X435205Y488355D01*
X436341Y486317D01*
X438113Y484800D01*
X440301Y483991D01*
X448257D01*
X450065Y484740D01*
X451448Y486123D01*
X452197Y487931D01*
Y489766D01*
X452027Y490619D01*
X451694Y491423D01*
X451210Y492147D01*
X450903Y492455D01*
Y492455D01*
X450180Y493177D01*
X449986Y493307D01*
X449027Y493947D01*
X447746Y494478D01*
X446386Y494749D01*
X445693D01*
X445144Y494766D01*
X444055Y494905D01*
X442992Y495181D01*
X441973Y495589D01*
X441485Y495841D01*
X441431Y497390D01*
X440746Y500414D01*
X440066Y501979D01*
X441122Y502736D01*
X441396Y502488D01*
X443121Y501335D01*
X445039Y500540D01*
X447075Y500135D01*
X448112Y500084D01*
X450898Y500084D01*
X450532Y500880D01*
X450393Y501274D01*
X450392Y501279D01*
X450391Y501280D01*
X450371Y501354D01*
X450343Y501460D01*
X450255Y501572D01*
X450404Y502434D01*
X450950Y503042D01*
X450989Y503084D01*
X457633D01*
X458865Y503084D01*
X460753D01*
X461455Y502654D01*
X461455Y502654D01*
X461858Y502295D01*
X462112Y502068D01*
X462402Y501875D01*
X463280Y501288D01*
X464577Y500750D01*
X465421Y500581D01*
X465450Y500575D01*
X465451Y500575D01*
X465955Y500475D01*
X466098Y500467D01*
X466657Y500439D01*
X466663D01*
X466664Y500439D01*
Y500439D01*
X471726D01*
X471773Y500440D01*
X471869Y500442D01*
X471964D01*
X472060Y500440D01*
X472108Y500439D01*
X473001D01*
X473125Y500424D01*
X473246Y500393D01*
X473362Y500348D01*
X473416Y500318D01*
X474204Y500188D01*
X475712Y499660D01*
X477106Y498880D01*
X478345Y497872D01*
X479392Y496665D01*
X480215Y495296D01*
X480790Y493806D01*
X481020Y492643D01*
X481117Y491414D01*
Y491413D01*
X481117Y491413D01*
X481111Y490094D01*
X480639Y487500D01*
X479723Y485027D01*
X478390Y482751D01*
X476680Y480742D01*
X474647Y479062D01*
X472353Y477762D01*
X469867Y476881D01*
X467265Y476447D01*
X464628Y476473D01*
X462035Y476957D01*
X459567Y477886D01*
X458433Y478558D01*
X458332Y478583D01*
X457907Y479349D01*
X457941Y480224D01*
X458037Y480307D01*
X458047Y480316D01*
X458048Y480317D01*
X458058Y480325D01*
X458660Y480883D01*
X459752Y482108D01*
X460682Y483461D01*
X461434Y484919D01*
X461740Y485681D01*
X461792Y485828D01*
X461980Y486075D01*
X462234Y486254D01*
X462530Y486348D01*
X468191D01*
X468759Y486404D01*
X469808Y486838D01*
X470611Y487641D01*
X471045Y488690D01*
X471101Y489258D01*
Y489285D01*
X471104Y489338D01*
X471110Y489391D01*
X471118Y489443D01*
X471124Y489469D01*
X471118Y489495D01*
X471110Y489548D01*
X471104Y489600D01*
X471101Y489653D01*
Y489680D01*
X471090Y489916D01*
X471001Y490363D01*
X470998Y490379D01*
X470998Y490379D01*
X470817Y490815D01*
X470817Y490816D01*
X470555Y491208D01*
X470473Y491299D01*
X470396Y491383D01*
X470158Y491621D01*
X470158D01*
X469857Y491894D01*
X469793Y491952D01*
X468973Y492498D01*
X468063Y492874D01*
X467097Y493066D01*
X466605Y493090D01*
X465645D01*
X463757Y493433D01*
X461960Y494108D01*
X461105Y494618D01*
X460120Y495260D01*
X460120Y495260D01*
X460120Y495261D01*
X459590Y495724D01*
X458342Y495724D01*
X458706Y495216D01*
X459292Y494111D01*
X459723Y492937D01*
X459865Y492289D01*
X460040Y491092D01*
X460040Y491092D01*
X460049Y490087D01*
X460001Y489473D01*
X459679Y487748D01*
X459058Y485854D01*
X458191Y484058D01*
X456729Y481836D01*
X454336Y479524D01*
X451496Y477792D01*
X448345Y476723D01*
X445037Y476369D01*
X441732Y476747D01*
X438589Y477839D01*
X435761Y479592D01*
X434473Y480856D01*
X434508Y482135D01*
X434614Y482228D01*
X434630Y482247D01*
X434663Y482283D01*
X434698Y482317D01*
X434735Y482349D01*
X434754Y482365D01*
Y482365D01*
X436240Y483553D01*
X434689Y485104D01*
X434360D01*
X434354Y485097D01*
X434347Y485088D01*
X433723Y484370D01*
X432929Y483454D01*
X429420Y480931D01*
X425424Y479284D01*
X421156Y478603D01*
X416846Y478923D01*
X412726Y480228D01*
X409017Y482447D01*
X405919Y485460D01*
X403599Y489107D01*
X402182Y493190D01*
X401744Y497489D01*
X402308Y501774D01*
X403845Y505814D01*
X406271Y509391D01*
X409456Y512312D01*
X413228Y514421D01*
X417385Y515604D01*
X421702Y515798D01*
X425948Y514991D01*
X429894Y513228D01*
X431240Y512199D01*
X431485Y512491D01*
X433650Y514293D01*
X436099Y515685D01*
X438756Y516623D01*
X441537Y517076D01*
X444354Y517031D01*
D02*
G37*
%LPC*%
G36*
X435214Y505533D02*
X435214Y505532D01*
X435236Y505510D01*
X435214Y505533D01*
D02*
G37*
G36*
X421218Y509104D02*
X418918D01*
X416697Y508509D01*
X414705Y507359D01*
X413079Y505733D01*
X411929Y503741D01*
X411366Y501640D01*
X411334Y501520D01*
X411334Y500370D01*
X411589D01*
X411590D01*
Y500370D01*
X411590D01*
Y500370D01*
X428546D01*
X428546Y500370D01*
X428546D01*
X428546Y500370D01*
X428802Y500370D01*
X428802Y501520D01*
X428770Y501640D01*
X428207Y503741D01*
X427057Y505733D01*
X425431Y507359D01*
X423439Y508509D01*
X421218Y509104D01*
D02*
G37*
%LPD*%
D10*
X688897Y-23600D02*
G03*
X688897Y-23600I-1250J0D01*
G01*
X78948Y-23600D02*
G03*
X78948Y-23600I-1250J0D01*
G01*
X203948Y-23550D02*
G03*
X203948Y-23550I-1250J0D01*
G01*
X-186803Y-23600D02*
G03*
X-186803Y-23600I-1250J0D01*
G01*
X-346290Y-25124D02*
G03*
X-346290Y-25124I-1250J0D01*
G01*
X558663Y230100D02*
G03*
X558663Y230100I-1250J0D01*
G01*
X-694750Y575450D02*
G03*
X-694750Y575450I-1250J0D01*
G01*
Y485450D02*
G03*
X-694750Y485450I-1250J0D01*
G01*
X-198750Y540000D02*
G03*
X-198750Y540000I-1250J0D01*
G01*
X-161750Y542837D02*
G03*
X-161750Y542837I-1250J0D01*
G01*
X-320750Y593413D02*
G03*
X-320750Y593413I-1250J0D01*
G01*
X-344337Y230100D02*
G03*
X-344337Y230100I-1250J0D01*
G01*
X103663D02*
G03*
X103663Y230100I-1250J0D01*
G01*
X249663D02*
G03*
X249663Y230100I-1250J0D01*
G01*
X-190337D02*
G03*
X-190337Y230100I-1250J0D01*
G01*
X-650337D02*
G03*
X-650337Y230100I-1250J0D01*
G01*
X-500337D02*
G03*
X-500337Y230100I-1250J0D01*
G01*
X-44337D02*
G03*
X-44337Y230100I-1250J0D01*
G01*
X405663D02*
G03*
X405663Y230100I-1250J0D01*
G01*
X706663Y230100D02*
G03*
X706663Y230100I-1250J0D01*
G01*
X-450750Y529500D02*
G03*
X-450750Y529500I-1250J0D01*
G01*
X186953Y522353D02*
G03*
X186953Y522353I-1250J0D01*
G01*
X52653Y527447D02*
G03*
X52653Y527447I-1250J0D01*
G01*
X696250Y550000D02*
G03*
X696250Y550000I-1250J0D01*
G01*
D11*
X437373Y495933D02*
G03*
X433149Y485908I-17440J1447D01*
G01*
X456799Y505779D02*
G03*
X431347Y510766I-14106J-4548D01*
G01*
X459224Y507446D02*
G03*
X453824Y511016I-5400J-2299D01*
G01*
X463603Y509260D02*
G03*
X459224Y507446I0J-6193D01*
G01*
X470866Y507139D02*
G03*
X465744Y509260I-5121J-5121D01*
G01*
X471994Y505510D02*
G03*
X471641Y506364I-1207J0D01*
G01*
X465743Y509259D02*
G03*
X465744Y509259I1J1D01*
G01*
X471994Y505510D02*
G03*
X472635Y505245I641J641D01*
G01*
X478943D02*
G03*
X453824Y511016I-14199J-4249D01*
G01*
X440993Y509495D02*
G03*
X435681Y506485I0J-6193D01*
G01*
X458626Y490698D02*
G03*
X455714Y496787I-8197J-179D01*
G01*
X450790Y502245D02*
G03*
X452219Y499561I5114J1000D01*
G01*
X439478Y502640D02*
G03*
X447674Y499245I8196J8196D01*
G01*
X479675Y491582D02*
G03*
X471299Y499600I-8197J-179D01*
G01*
X458272Y479727D02*
G03*
X479675Y491582I7382J11921D01*
G01*
X467752Y485508D02*
G03*
X471666Y489422I0J3914D01*
G01*
Y489844D02*
G03*
X470667Y492258I-3414J0D01*
G01*
X459539Y496892D02*
G03*
X466166Y494258I6627J7024D01*
G01*
X470434Y492491D02*
G03*
X466166Y494258I-4268J-4268D01*
G01*
X443692Y509494D02*
G03*
X443693Y509493I1J1D01*
G01*
X448814Y507374D02*
G03*
X443693Y509495I-5121J-5121D01*
G01*
X460443Y501995D02*
G03*
X466225Y499600I5782J5782D01*
G01*
X458237Y479697D02*
G03*
X462247Y485508I-9164J10612D01*
G01*
X434838Y481638D02*
G03*
X458656Y490920I9816J10012D01*
G01*
X449961Y491977D02*
G03*
X445693Y493745I-4268J-4268D01*
G01*
X440491Y495266D02*
G03*
X445693Y493745I5202J8136D01*
G01*
X451193Y489331D02*
G03*
X450193Y491745I-3414J0D01*
G01*
X440491Y495266D02*
G03*
X435959Y506207I-15473J0D01*
G01*
X447279Y484995D02*
G03*
X451193Y488909I0J3914D01*
G01*
X435951Y490511D02*
G03*
X441468Y484995I5517J0D01*
G01*
X410943Y495745D02*
G03*
X428560Y490318I9375J-875D01*
G01*
X428802Y500370D02*
G03*
X411334Y500370I-8734J0D01*
G01*
X399979Y504183D02*
G03*
X400103Y504915I41464J-6688D01*
G01*
X415897Y540179D02*
G03*
X380359Y489845I31063J-59644D01*
G01*
X479598Y526091D02*
G03*
X402062Y555089I-53575J-25093D01*
G01*
X402062Y555089D02*
G03*
X380359Y489845I17943J-42200D01*
G01*
X479774Y525888D02*
G03*
X415694Y540073I-40055J-29117D01*
G01*
X396521Y514569D02*
G03*
X416277Y451981I45244J-20131D01*
G01*
X410088Y432668D02*
G03*
X477443Y446495I27575J36639D01*
G01*
X396433Y514315D02*
G03*
X410088Y432668I48518J-33851D01*
G01*
X416083Y452104D02*
G03*
X477443Y446495I36121J56723D01*
G01*
X442451Y447998D02*
G03*
X490826Y492354I-876J49512D01*
G01*
X510945Y494907D02*
G03*
X469948Y550108I-44860J9507D01*
G01*
X442719Y448025D02*
G03*
X510945Y494907I10174J58278D01*
G01*
X490796Y492127D02*
G03*
X469948Y550108I-66674J8765D01*
G01*
X-652000Y-346710D02*
G03*
X-664523Y-316477I-42755J0D01*
G01*
X-774000Y48314D02*
G03*
X-766000Y29000I27314J0D01*
G01*
X382556Y120000D02*
G03*
X356000Y109000I0J-37556D01*
G01*
X555000Y-96000D02*
G03*
X553000Y-100828I4828J-4828D01*
G01*
X464000Y-352799D02*
G03*
X450000Y-319000I-47799J0D01*
G01*
X690602Y-468698D02*
G03*
X712282Y-459718I0J30661D01*
G01*
X-17000Y-117700D02*
G03*
X-25980Y-96020I-30661J0D01*
G01*
X-101020D02*
G03*
X-110000Y-117700I21680J-21680D01*
G01*
X50835Y-51165D02*
G03*
X37000Y-84565I33400J-33400D01*
G01*
X134071Y-91929D02*
G03*
X127000Y-109000I17071J-17071D01*
G01*
X209625Y-389625D02*
G03*
X181560Y-378000I-28065J-28065D01*
G01*
X238000Y-437618D02*
G03*
X224128Y-404128I-47362J0D01*
G01*
X307000Y109000D02*
G03*
X280444Y120000I-26556J-26556D01*
G01*
X-213447Y-49447D02*
G03*
X-226000Y-79753I30306J-30306D01*
G01*
X-712237Y-106237D02*
G03*
X-725000Y-137050I30814J-30814D01*
G01*
X-655247Y-67000D02*
G03*
X-685553Y-79553I0J-42860D01*
G01*
X-380789Y-78211D02*
G03*
X-407854Y-67000I-27065J-27065D01*
G01*
X-195000Y-469226D02*
G03*
X-181729Y-463729I0J18768D01*
G01*
X-464165Y-389835D02*
G03*
X-497565Y-376000I-33400J-33400D01*
G01*
X-427000Y-442854D02*
G03*
X-438211Y-415789I-38276J0D01*
G01*
X-766000Y-29000D02*
G03*
X-774000Y-48314I19314J-19314D01*
G01*
X195748Y417500D02*
G03*
X217859Y417500I11056J11056D01*
G01*
X246548Y417500D02*
G03*
X268659Y417500I11056J11056D01*
G01*
X297348Y417500D02*
G03*
X319460Y417500I11056J11056D01*
G01*
X-10750Y52600D02*
G03*
X-10750Y52600I-1000J0D01*
G01*
X686147Y-17100D02*
X687897D01*
X686147D02*
Y-2850D01*
Y2650D02*
Y16900D01*
X687897D01*
X718397D02*
X720147D01*
Y2650D02*
Y16900D01*
X718397Y-17100D02*
X720147D01*
Y-2850D01*
X76198Y-17099D02*
X77948D01*
X76198D02*
Y-2849D01*
Y2650D02*
Y16901D01*
X77948D01*
X108448D02*
X110197D01*
Y2650D02*
Y16901D01*
X108448Y-17099D02*
X110197D01*
Y-2849D01*
X201197Y-17050D02*
X202948D01*
X201197D02*
Y-2800D01*
Y2700D02*
Y16950D01*
X202948D01*
X233447D02*
X235198D01*
Y2700D02*
Y16950D01*
X233447Y-17050D02*
X235198D01*
Y-2800D01*
X-189553Y-17100D02*
X-187803D01*
X-189553D02*
Y-2850D01*
Y2650D02*
Y16900D01*
X-187803D01*
X-157303D02*
X-155553D01*
Y2650D02*
Y16900D01*
X-157303Y-17100D02*
X-155553D01*
Y-2850D01*
X481000Y568873D02*
X511000D01*
X-293000Y515000D02*
X-281000Y527000D01*
X-337000Y512000D02*
X-305000D01*
X340000Y417500D02*
X347000D01*
X358000Y428500D01*
Y522500D01*
X378000Y542500D01*
Y607000D01*
X365000Y620000D02*
X378000Y607000D01*
X365000Y620000D02*
Y665750D01*
X437383Y495745D02*
Y502375D01*
X431373Y510793D02*
X435959Y506207D01*
X463603Y509260D02*
X465744D01*
X470866Y507139D02*
X471641Y506364D01*
X472635Y505245D02*
X478943D01*
X433370Y486272D02*
X434666D01*
X440993Y509495D02*
X443692Y509494D01*
X447674Y499245D02*
X452535D01*
X455693Y496892D02*
X459539D01*
X470434Y492491D02*
X470667Y492258D01*
X448814Y507374D02*
X450646Y505542D01*
X450583Y505480D02*
X456892D01*
X466225Y499600D02*
X472500D01*
X462247Y485508D02*
X468208D01*
X450693Y502245D02*
X460193D01*
X456366Y483941D02*
X456366Y483941D01*
X449961Y491977D02*
X450193Y491745D01*
X451193Y488909D02*
Y489331D01*
X434943Y481745D02*
X437304Y483634D01*
X434666Y486272D02*
X437304Y483634D01*
X441468Y484995D02*
X447279D01*
X428724Y490511D02*
X435951D01*
X411334Y500370D02*
X428802D01*
X410943Y495745D02*
X437383D01*
X267253Y536603D02*
X272253Y531603D01*
X267253Y558353D02*
X267253Y536603D01*
X267253Y558353D02*
X294253Y558353D01*
X272253Y531603D02*
X292503Y531603D01*
X294253Y531603D02*
X294253Y558353D01*
X292503Y531603D02*
X294253Y531603D01*
X-299540Y-25124D02*
X-297540D01*
Y-23124D01*
X-299540Y24876D02*
X-297540D01*
Y22877D02*
Y24876D01*
X-347540Y22877D02*
Y24876D01*
X-345540D01*
X-299500Y-153500D02*
X-294009Y-158991D01*
Y-158991D02*
Y-158991D01*
Y-158991D02*
X-231500Y-221500D01*
X575000Y520000D02*
X625000D01*
X575000Y410000D02*
Y520000D01*
X625000D02*
X625000Y410000D01*
X575000D02*
X625000D01*
X635000Y520000D02*
X685000D01*
X635000D02*
X635000Y410000D01*
X685000Y520000D02*
X685000Y410000D01*
X635000D02*
X685000D01*
X635000Y530000D02*
X685000D01*
Y640000D01*
X635000Y530000D02*
Y640000D01*
X685000D01*
X575000Y530000D02*
X625000D01*
Y640000D01*
X575000Y530000D02*
Y640000D01*
X625000D01*
X-652000Y-359050D02*
Y-346710D01*
X129000Y486000D02*
X135000D01*
X129000Y476000D02*
X135000D01*
X125750Y424250D02*
Y459250D01*
X105750Y424250D02*
Y449000D01*
X-42500Y424000D02*
X-32500D01*
X-62500Y424000D02*
X-52500D01*
X-82500D02*
X-72500D01*
X-102500Y424000D02*
X-92500D01*
X-122500Y424000D02*
X-112500D01*
X-142500D02*
X-132500D01*
X-162500D02*
X-152500D01*
X-182500D02*
X-172500D01*
X-202500D02*
X-192500D01*
X-222500D02*
X-212500D01*
X-242500D02*
X-232500D01*
X-262500D02*
X-252500D01*
X-282500D02*
X-272500D01*
X-302500D02*
X-292500D01*
X-322500D02*
X-312500D01*
X-342500D02*
X-332500D01*
X-774000Y51000D02*
Y118000D01*
Y48314D02*
Y51000D01*
X382556Y120000D02*
X526000D01*
X701000Y-139000D02*
Y-59000D01*
X553000Y-179000D02*
Y-100828D01*
X464000Y-437358D02*
X479137D01*
X464000Y-467000D02*
Y-352799D01*
X689000Y-468698D02*
X690602D01*
X689000Y-507000D02*
Y-455000D01*
X308000Y-87000D02*
X484000D01*
X-296000Y-81507D02*
X-291000Y-89507D01*
X-301000D02*
X-296000Y-81507D01*
Y-119507D02*
Y-81507D01*
X-27000Y-95000D02*
X-25980Y-96020D01*
X-17000Y-165000D02*
Y-117700D01*
X-110000Y-165000D02*
Y-117700D01*
X-101020Y-96020D02*
X-100000Y-95000D01*
X37000Y-120000D02*
Y-84565D01*
X50835Y-51165D02*
X58000Y-44000D01*
X134071Y-91929D02*
X183000Y-43000D01*
X238000Y-451575D02*
X257613D01*
X146000Y-378000D02*
X181560D01*
X209625Y-389625D02*
X224128Y-404128D01*
X238000Y-494000D02*
Y-437618D01*
X137000Y120000D02*
X280444D01*
X-213447Y-49447D02*
X-208000Y-44000D01*
X-226000Y-139000D02*
Y-79753D01*
X-725000Y-195000D02*
Y-137050D01*
X-712237Y-106237D02*
X-685553Y-79553D01*
X-655247Y-67000D02*
X-542000D01*
X-380789Y-78211D02*
X-376000Y-83000D01*
X-431000Y-67000D02*
X-407854D01*
X-181729Y-463729D02*
X-178000Y-460000D01*
X-201000Y-469226D02*
X-195000D01*
X-201000Y-507000D02*
Y-458000D01*
X-427000Y-447089D02*
X-412000D01*
X-548000Y-376000D02*
X-497565D01*
X-464165Y-389835D02*
X-438211Y-415789D01*
X-427000Y-507000D02*
Y-442854D01*
X-652000Y-448289D02*
X-639697D01*
X-774000Y-51000D02*
Y-48314D01*
X-652000Y-504000D02*
Y-359050D01*
X-774000Y-138000D02*
Y-51000D01*
X-408125Y533375D02*
X-406250Y535250D01*
X-408125Y533375D02*
Y533375D01*
X-416750Y533375D02*
X-408125D01*
X-397000Y571246D02*
Y665250D01*
X-5000Y417500D02*
X195748Y417500D01*
X217859D02*
X239647D01*
Y417500D02*
X246548D01*
X268659D02*
X290447D01*
X319460Y417500D02*
X327500D01*
X290447D02*
X297348D01*
X-26223Y438722D02*
X-5000Y417500D01*
X-281000Y527000D02*
X-270188D01*
X-115000Y527500D02*
X-106732Y519232D01*
X-139500Y609995D02*
Y615000D01*
X-381000Y462500D02*
Y484934D01*
Y462500D02*
X-381000Y462500D01*
X-361753D01*
X-341000Y516000D02*
X-337000Y512000D01*
X-341000Y516000D02*
Y614972D01*
X-341027Y615000D02*
X-341000Y614972D01*
X-341027Y615000D02*
X-139500D01*
X-139000Y527500D02*
Y535597D01*
Y527500D02*
X-115000D01*
X-684750Y522900D02*
Y572900D01*
X-652750Y522900D02*
Y572900D01*
X-684750D02*
X-652750D01*
X-684750Y522900D02*
X-652750D01*
X-684750Y432900D02*
Y482900D01*
X-652750Y432900D02*
Y482900D01*
X-684750D02*
X-652750D01*
X-684750Y432900D02*
X-652750D01*
X-260500Y540500D02*
X-257500D01*
X-260500Y537500D02*
X-260500Y540500D01*
X-260500Y482500D02*
X-260500Y479500D01*
X-257500Y479500D01*
X-202500D02*
X-199500Y479500D01*
Y482500D01*
X522000Y19000D02*
X566000D01*
X522000Y-5250D02*
X535750Y-19000D01*
X566000D02*
Y19000D01*
X535750Y-19000D02*
X566000D01*
X522000Y-5250D02*
Y19000D01*
X-412000Y527500D02*
Y529500D01*
X-414000Y529500D02*
X-412000Y529500D01*
X-452000Y489500D02*
Y491500D01*
Y489500D02*
X-450000Y489500D01*
X-414000Y489500D02*
X-412000Y489500D01*
X-412000Y491500D01*
X188253Y533603D02*
X238253Y533603D01*
X188253Y565603D02*
X238253Y565603D01*
X188253Y565603D02*
X188253Y533603D01*
X238253Y533603D02*
X238253Y565603D01*
X538560Y580000D02*
X552560D01*
X353500Y-19000D02*
Y5250D01*
X309500Y19000D02*
X339750D01*
X309500Y-19000D02*
Y19000D01*
X339750D02*
X353500Y5250D01*
X309500Y-19000D02*
X353500D01*
X91603Y527447D02*
X93603D01*
Y525447D02*
Y527447D01*
Y485246D02*
Y487246D01*
X91603Y485246D02*
X93603D01*
X51403D02*
X53403D01*
X51403D02*
Y487246D01*
X-662250Y22000D02*
X-638000D01*
X-676000Y-22000D02*
Y8250D01*
Y-22000D02*
X-638000D01*
X-676000Y8250D02*
X-662250Y22000D01*
X-638000D02*
X-638000Y-22000D01*
X-509250Y-5250D02*
Y19000D01*
X-495500Y-19000D02*
X-465250D01*
Y19000D01*
X-509250Y-5250D02*
X-495500Y-19000D01*
X-509250Y19000D02*
X-465250Y19000D01*
X341750Y531600D02*
X343500Y531600D01*
Y558350D01*
X321500Y531600D02*
X341750Y531600D01*
X316500Y558350D02*
X343500D01*
X316500Y536600D02*
Y558350D01*
Y536600D02*
X321500Y531600D01*
X-85500Y-5250D02*
Y19000D01*
X-71750Y-19000D02*
X-41500D01*
Y19000D01*
X-85500Y-5250D02*
X-71750Y-19000D01*
X-85500Y19000D02*
X-41500Y19000D01*
X-733836Y607831D02*
X-735502Y609497D01*
X-738834D01*
X-740500Y607831D01*
Y601166D01*
X-738834Y599500D01*
X-735502D01*
X-733836Y601166D01*
X-723839Y609497D02*
X-727171Y607831D01*
X-730503Y604498D01*
Y601166D01*
X-728837Y599500D01*
X-725505D01*
X-723839Y601166D01*
Y602832D01*
X-725505Y604498D01*
X-730503D01*
X-713842Y599500D02*
X-720507D01*
X-713842Y606165D01*
Y607831D01*
X-715508Y609497D01*
X-718840D01*
X-720507Y607831D01*
X93000Y567000D02*
X83003D01*
X86336Y570332D01*
X83003Y573665D01*
X93000D01*
X83003Y581995D02*
Y578663D01*
X84670Y576997D01*
X91334D01*
X93000Y578663D01*
Y581995D01*
X91334Y583661D01*
X84670D01*
X83003Y581995D01*
X84670Y593658D02*
X83003Y591992D01*
Y588660D01*
X84670Y586994D01*
X86336D01*
X88002Y588660D01*
Y591992D01*
X89668Y593658D01*
X91334D01*
X93000Y591992D01*
Y588660D01*
X91334Y586994D01*
X83003Y596990D02*
Y600323D01*
Y598657D01*
X93000D01*
Y596990D01*
Y600323D01*
Y605321D02*
Y608653D01*
Y606987D01*
X83003D01*
X84670Y605321D01*
X336000Y-68003D02*
Y-78000D01*
X340998D01*
X342664Y-76334D01*
Y-69669D01*
X340998Y-68003D01*
X336000D01*
X114669Y573665D02*
X113003Y571998D01*
Y568666D01*
X114669Y567000D01*
X116336D01*
X118002Y568666D01*
Y571998D01*
X119668Y573665D01*
X121334D01*
X123000Y571998D01*
Y568666D01*
X121334Y567000D01*
X113003Y576997D02*
X123000D01*
Y583661D01*
X114669Y593658D02*
X113003Y591992D01*
Y588660D01*
X114669Y586994D01*
X121334D01*
X123000Y588660D01*
Y591992D01*
X121334Y593658D01*
X113003Y596990D02*
X123000D01*
X119668D01*
X113003Y603655D01*
X118002Y598657D01*
X123000Y603655D01*
Y606987D02*
Y610319D01*
Y608653D01*
X113003D01*
X114669Y606987D01*
X-820000Y-198000D02*
Y-191336D01*
X-816668Y-188003D01*
X-813335Y-191336D01*
Y-198000D01*
Y-193002D01*
X-820000D01*
X-810003Y-188003D02*
X-803339D01*
X-806671D01*
Y-198000D01*
X-800006Y-188003D02*
X-793342D01*
X-796674D01*
Y-198000D01*
X-790010D02*
X-786677D01*
X-788344D01*
Y-188003D01*
X-790010Y-189669D01*
X139500Y489500D02*
Y499497D01*
X144498D01*
X146165Y497831D01*
Y494498D01*
X144498Y492832D01*
X139500D01*
X149497Y489500D02*
Y499497D01*
X154495D01*
X156161Y497831D01*
Y494498D01*
X154495Y492832D01*
X149497D01*
X159494Y499497D02*
Y489500D01*
X162826Y492832D01*
X166158Y489500D01*
Y499497D01*
X169490Y489500D02*
Y499497D01*
X172823Y496165D01*
X176155Y499497D01*
Y489500D01*
X-339000Y408000D02*
X-335668D01*
X-337334D01*
Y417997D01*
X-339000Y416331D01*
X70500Y424500D02*
X60503D01*
Y429498D01*
X62169Y431165D01*
X65502D01*
X67168Y429498D01*
Y424500D01*
Y427832D02*
X70500Y431165D01*
Y439495D02*
Y436163D01*
X68834Y434497D01*
X65502D01*
X63836Y436163D01*
Y439495D01*
X65502Y441161D01*
X67168D01*
Y434497D01*
X717000Y-106000D02*
X707003D01*
X710335Y-102668D01*
X707003Y-99335D01*
X717000D01*
X707003Y-91005D02*
Y-94337D01*
X708669Y-96003D01*
X715334D01*
X717000Y-94337D01*
Y-91005D01*
X715334Y-89339D01*
X708669D01*
X707003Y-91005D01*
X708669Y-86006D02*
X707003Y-84340D01*
Y-81008D01*
X708669Y-79342D01*
X710335D01*
X712002Y-81008D01*
Y-82674D01*
Y-81008D01*
X713668Y-79342D01*
X715334D01*
X717000Y-81008D01*
Y-84340D01*
X715334Y-86006D01*
X707003Y-69345D02*
Y-76010D01*
X712002D01*
X710335Y-72677D01*
Y-71011D01*
X712002Y-69345D01*
X715334D01*
X717000Y-71011D01*
Y-74344D01*
X715334Y-76010D01*
X717000Y-59348D02*
Y-66013D01*
X710335Y-59348D01*
X708669D01*
X707003Y-61014D01*
Y-64347D01*
X708669Y-66013D01*
X-108000Y268695D02*
Y280691D01*
X-102002D01*
X-100003Y278692D01*
Y274693D01*
X-102002Y272694D01*
X-108000D01*
X-96004Y280691D02*
Y268695D01*
X-90006D01*
X-88006Y270695D01*
Y278692D01*
X-90006Y280691D01*
X-96004D01*
X-84008Y268695D02*
X-80009D01*
X-82008D01*
Y280691D01*
X-84008Y278692D01*
X-108000Y259497D02*
X-106001Y261496D01*
X-102002D01*
X-100003Y259497D01*
Y257497D01*
X-102002Y255498D01*
X-104001D01*
X-102002D01*
X-100003Y253499D01*
Y251499D01*
X-102002Y249500D01*
X-106001D01*
X-108000Y251499D01*
X-96004Y249500D02*
Y251499D01*
X-94004D01*
Y249500D01*
X-96004D01*
X-86007Y259497D02*
X-84008Y261496D01*
X-80009D01*
X-78010Y259497D01*
Y257497D01*
X-80009Y255498D01*
X-82008D01*
X-80009D01*
X-78010Y253499D01*
Y251499D01*
X-80009Y249500D01*
X-84008D01*
X-86007Y251499D01*
X-74011Y261496D02*
Y253499D01*
X-70012Y249500D01*
X-66014Y253499D01*
Y261496D01*
X642000Y268695D02*
Y280691D01*
X647998D01*
X649997Y278692D01*
Y274693D01*
X647998Y272694D01*
X642000D01*
X653996Y280691D02*
Y268695D01*
X657995Y272694D01*
X661993Y268695D01*
Y280691D01*
X665992D02*
Y268695D01*
X671990D01*
X673990Y270695D01*
Y278692D01*
X671990Y280691D01*
X665992D01*
X677988Y278692D02*
X679988Y280691D01*
X683986D01*
X685986Y278692D01*
Y276693D01*
X683986Y274693D01*
X681987D01*
X683986D01*
X685986Y272694D01*
Y270695D01*
X683986Y268695D01*
X679988D01*
X677988Y270695D01*
X642000Y259497D02*
X643999Y261496D01*
X647998D01*
X649997Y259497D01*
Y257497D01*
X647998Y255498D01*
X645999D01*
X647998D01*
X649997Y253499D01*
Y251499D01*
X647998Y249500D01*
X643999D01*
X642000Y251499D01*
X653996Y249500D02*
Y251499D01*
X655995D01*
Y249500D01*
X653996D01*
X663993Y259497D02*
X665992Y261496D01*
X669991D01*
X671990Y259497D01*
Y257497D01*
X669991Y255498D01*
X667992D01*
X669991D01*
X671990Y253499D01*
Y251499D01*
X669991Y249500D01*
X665992D01*
X663993Y251499D01*
X675989Y261496D02*
Y253499D01*
X679988Y249500D01*
X683986Y253499D01*
Y261496D01*
X-4000Y66666D02*
X-2334Y65000D01*
X998D01*
X2664Y66666D01*
Y73331D01*
X998Y74997D01*
X-2334D01*
X-4000Y73331D01*
Y71665D01*
X-2334Y69998D01*
X2664D01*
X39669Y573665D02*
X38003Y571998D01*
Y568666D01*
X39669Y567000D01*
X41336D01*
X43002Y568666D01*
Y571998D01*
X44668Y573665D01*
X46334D01*
X48000Y571998D01*
Y568666D01*
X46334Y567000D01*
X39669Y583661D02*
X38003Y581995D01*
Y578663D01*
X39669Y576997D01*
X46334D01*
X48000Y578663D01*
Y581995D01*
X46334Y583661D01*
X38003Y586994D02*
X48000D01*
Y593658D01*
X38003Y596990D02*
X48000D01*
X44668D01*
X38003Y603655D01*
X43002Y598657D01*
X48000Y603655D01*
Y613652D02*
Y606987D01*
X41336Y613652D01*
X39669D01*
X38003Y611986D01*
Y608653D01*
X39669Y606987D01*
X-201000Y416331D02*
X-199334Y417997D01*
X-196002D01*
X-194335Y416331D01*
Y414664D01*
X-196002Y412998D01*
X-194335Y411332D01*
Y409666D01*
X-196002Y408000D01*
X-199334D01*
X-201000Y409666D01*
Y411332D01*
X-199334Y412998D01*
X-201000Y414664D01*
Y416331D01*
X-199334Y412998D02*
X-196002D01*
X-82528Y478320D02*
X-91011Y486802D01*
X-86770Y491043D01*
X-83942Y491043D01*
X-81114Y488216D01*
Y485388D01*
X-85356Y481147D01*
X-82528Y495285D02*
X-74046Y486802D01*
X-78287Y491043D01*
Y493871D01*
X-75459Y496698D01*
X-72632D01*
X-68391Y492457D01*
X-69804Y502353D02*
X-66977Y505181D01*
X-64149D01*
X-59908Y500940D01*
X-64149Y496698D01*
X-66977D01*
X-66977Y499526D01*
X-62736Y503767D01*
X-57081D02*
X-52839Y508008D01*
Y510836D01*
X-55667Y510836D01*
X-58494Y508008D01*
X-61322D01*
Y510836D01*
X-57081Y515077D01*
X-44357Y516491D02*
X-47184Y513663D01*
X-50012D01*
X-52839Y516491D01*
Y519319D01*
X-50012Y522146D01*
X-47184D01*
X-45771Y520732D01*
X-51426Y515077D01*
X-568000Y524500D02*
Y534497D01*
X-563002D01*
X-561335Y532831D01*
Y529498D01*
X-563002Y527832D01*
X-568000D01*
X-564668D02*
X-561335Y524500D01*
X-551339Y534497D02*
X-558003D01*
Y529498D01*
X-554671Y531165D01*
X-553005D01*
X-551339Y529498D01*
Y526166D01*
X-553005Y524500D01*
X-556337D01*
X-558003Y526166D01*
X-548006Y524500D02*
X-544674D01*
X-546340D01*
Y534497D01*
X-548006Y532831D01*
X-172000Y-159000D02*
X-178664D01*
X-181997Y-155668D01*
X-178664Y-152336D01*
X-172000D01*
X-176998D01*
Y-159000D01*
X-181997Y-149003D02*
Y-142339D01*
Y-145671D01*
X-172000D01*
X-181997Y-139006D02*
Y-132342D01*
Y-135674D01*
X-172000D01*
Y-124011D02*
X-181997D01*
X-176998Y-129010D01*
Y-122345D01*
X-787331Y-106335D02*
X-788997Y-108002D01*
Y-111334D01*
X-787331Y-113000D01*
X-785665D01*
X-783998Y-111334D01*
Y-108002D01*
X-782332Y-106335D01*
X-780666D01*
X-779000Y-108002D01*
Y-111334D01*
X-780666Y-113000D01*
X-788997Y-103003D02*
Y-96339D01*
Y-99671D01*
X-779000D01*
X-788997Y-93006D02*
X-780666D01*
X-779000Y-91340D01*
Y-88008D01*
X-780666Y-86342D01*
X-788997D01*
Y-83010D02*
X-779000D01*
Y-78011D01*
X-780666Y-76345D01*
X-782332D01*
X-783998Y-78011D01*
Y-83010D01*
Y-78011D01*
X-785665Y-76345D01*
X-787331D01*
X-788997Y-78011D01*
Y-83010D01*
X-787331Y-73013D02*
X-788997Y-71347D01*
Y-68014D01*
X-787331Y-66348D01*
X-785665D01*
X-783998Y-68014D01*
Y-69681D01*
Y-68014D01*
X-782332Y-66348D01*
X-780666D01*
X-779000Y-68014D01*
Y-71347D01*
X-780666Y-73013D01*
X-788997Y-56352D02*
Y-63016D01*
X-783998D01*
X-785665Y-59684D01*
Y-58018D01*
X-783998Y-56352D01*
X-780666D01*
X-779000Y-58018D01*
Y-61350D01*
X-780666Y-63016D01*
X-779000Y-46355D02*
Y-53019D01*
X-785665Y-46355D01*
X-787331D01*
X-788997Y-48021D01*
Y-51353D01*
X-787331Y-53019D01*
X-433061Y-61354D02*
Y-51357D01*
X-429728Y-54689D01*
X-426396Y-51357D01*
Y-61354D01*
X-418065Y-51357D02*
X-421398D01*
X-423064Y-53023D01*
Y-59687D01*
X-421398Y-61354D01*
X-418065D01*
X-416399Y-59687D01*
Y-53023D01*
X-418065Y-51357D01*
X-413067D02*
X-406403D01*
Y-53023D01*
X-413067Y-59687D01*
Y-61354D01*
X-403070Y-53023D02*
X-401404Y-51357D01*
X-398072D01*
X-396406Y-53023D01*
Y-59687D01*
X-398072Y-61354D01*
X-401404D01*
X-403070Y-59687D01*
Y-53023D01*
X-388075Y-61354D02*
Y-51357D01*
X-393074Y-56355D01*
X-386409D01*
X-54335Y417997D02*
X-61000D01*
Y412998D01*
X-57668D01*
X-61000D01*
Y408000D01*
X392000Y126000D02*
Y135997D01*
X395332Y132664D01*
X398665Y135997D01*
Y126000D01*
X406995Y135997D02*
X403663D01*
X401997Y134331D01*
Y127666D01*
X403663Y126000D01*
X406995D01*
X408661Y127666D01*
Y134331D01*
X406995Y135997D01*
X411994Y134331D02*
X413660Y135997D01*
X416992D01*
X418658Y134331D01*
Y132664D01*
X416992Y130998D01*
X415326D01*
X416992D01*
X418658Y129332D01*
Y127666D01*
X416992Y126000D01*
X413660D01*
X411994Y127666D01*
X428655Y135997D02*
X421990D01*
Y130998D01*
X425323Y132664D01*
X426989D01*
X428655Y130998D01*
Y127666D01*
X426989Y126000D01*
X423657D01*
X421990Y127666D01*
X438652Y126000D02*
X431987D01*
X438652Y132664D01*
Y134331D01*
X436986Y135997D01*
X433653D01*
X431987Y134331D01*
X-568500Y584500D02*
Y594497D01*
X-563502D01*
X-561836Y592831D01*
Y589498D01*
X-563502Y587832D01*
X-568500D01*
X-565168D02*
X-561836Y584500D01*
X-551839Y594497D02*
X-558503D01*
Y589498D01*
X-555171Y591165D01*
X-553505D01*
X-551839Y589498D01*
Y586166D01*
X-553505Y584500D01*
X-556837D01*
X-558503Y586166D01*
X-541842Y594497D02*
X-545174Y592831D01*
X-548507Y589498D01*
Y586166D01*
X-546840Y584500D01*
X-543508D01*
X-541842Y586166D01*
Y587832D01*
X-543508Y589498D01*
X-548507D01*
X-779000Y69000D02*
X-788997D01*
X-785665Y72332D01*
X-788997Y75665D01*
X-779000D01*
X-788997Y83995D02*
Y80663D01*
X-787331Y78997D01*
X-780666D01*
X-779000Y80663D01*
Y83995D01*
X-780666Y85661D01*
X-787331D01*
X-788997Y83995D01*
X-787331Y88994D02*
X-788997Y90660D01*
Y93992D01*
X-787331Y95658D01*
X-785665D01*
X-783998Y93992D01*
Y92326D01*
Y93992D01*
X-782332Y95658D01*
X-780666D01*
X-779000Y93992D01*
Y90660D01*
X-780666Y88994D01*
X-788997Y105655D02*
Y98990D01*
X-783998D01*
X-785665Y102323D01*
Y103989D01*
X-783998Y105655D01*
X-780666D01*
X-779000Y103989D01*
Y100656D01*
X-780666Y98990D01*
X-779000Y115652D02*
Y108987D01*
X-785665Y115652D01*
X-787331D01*
X-788997Y113986D01*
Y110653D01*
X-787331Y108987D01*
X327664Y-69669D02*
X325998Y-68003D01*
X322666D01*
X321000Y-69669D01*
Y-76334D01*
X322666Y-78000D01*
X325998D01*
X327664Y-76334D01*
X-101000Y417997D02*
Y408000D01*
X-96002D01*
X-94335Y409666D01*
Y416331D01*
X-96002Y417997D01*
X-101000D01*
X-616335Y607831D02*
X-618002Y609497D01*
X-621334D01*
X-623000Y607831D01*
Y601166D01*
X-621334Y599500D01*
X-618002D01*
X-616335Y601166D01*
X-606339Y609497D02*
X-609671Y607831D01*
X-613003Y604498D01*
Y601166D01*
X-611337Y599500D01*
X-608005D01*
X-606339Y601166D01*
Y602832D01*
X-608005Y604498D01*
X-613003D01*
X-596342Y609497D02*
X-603007D01*
Y604498D01*
X-599674Y606165D01*
X-598008D01*
X-596342Y604498D01*
Y601166D01*
X-598008Y599500D01*
X-601340D01*
X-603007Y601166D01*
X-616335Y592831D02*
X-618002Y594497D01*
X-621334D01*
X-623000Y592831D01*
Y586166D01*
X-621334Y584500D01*
X-618002D01*
X-616335Y586166D01*
X-606339Y594497D02*
X-609671Y592831D01*
X-613003Y589498D01*
Y586166D01*
X-611337Y584500D01*
X-608005D01*
X-606339Y586166D01*
Y587832D01*
X-608005Y589498D01*
X-613003D01*
X-598008Y584500D02*
Y594497D01*
X-603007Y589498D01*
X-596342D01*
X-62000Y-207000D02*
X-68664D01*
X-71997Y-203668D01*
X-68664Y-200336D01*
X-62000D01*
X-66998D01*
Y-207000D01*
X-71997Y-197003D02*
Y-190339D01*
Y-193671D01*
X-62000D01*
X-71997Y-187006D02*
Y-180342D01*
Y-183674D01*
X-62000D01*
X-71997Y-170345D02*
X-70331Y-173677D01*
X-66998Y-177010D01*
X-63666D01*
X-62000Y-175343D01*
Y-172011D01*
X-63666Y-170345D01*
X-65332D01*
X-66998Y-172011D01*
Y-177010D01*
X-733836Y592831D02*
X-735502Y594497D01*
X-738834D01*
X-740500Y592831D01*
Y586166D01*
X-738834Y584500D01*
X-735502D01*
X-733836Y586166D01*
X-723839Y594497D02*
X-727171Y592831D01*
X-730503Y589498D01*
Y586166D01*
X-728837Y584500D01*
X-725505D01*
X-723839Y586166D01*
Y587832D01*
X-725505Y589498D01*
X-730503D01*
X-720507Y584500D02*
X-717174D01*
X-718840D01*
Y594497D01*
X-720507Y592831D01*
X-181000Y409666D02*
X-179334Y408000D01*
X-176002D01*
X-174335Y409666D01*
Y416331D01*
X-176002Y417997D01*
X-179334D01*
X-181000Y416331D01*
Y414664D01*
X-179334Y412998D01*
X-174335D01*
X-565336Y-15000D02*
X-572000D01*
X-565336Y-8335D01*
Y-6669D01*
X-567002Y-5003D01*
X-570334D01*
X-572000Y-6669D01*
X-696336Y622831D02*
X-698002Y624497D01*
X-701334D01*
X-703000Y622831D01*
Y616166D01*
X-701334Y614500D01*
X-698002D01*
X-696336Y616166D01*
X-686339Y624497D02*
X-689671Y622831D01*
X-693003Y619498D01*
Y616166D01*
X-691337Y614500D01*
X-688005D01*
X-686339Y616166D01*
Y617832D01*
X-688005Y619498D01*
X-693003D01*
X-683006Y624497D02*
X-676342D01*
Y622831D01*
X-683006Y616166D01*
Y614500D01*
X-568500Y569500D02*
Y579497D01*
X-563502D01*
X-561836Y577831D01*
Y574498D01*
X-563502Y572832D01*
X-568500D01*
X-565168D02*
X-561836Y569500D01*
X-551839Y579497D02*
X-558503D01*
Y574498D01*
X-555171Y576165D01*
X-553505D01*
X-551839Y574498D01*
Y571166D01*
X-553505Y569500D01*
X-556837D01*
X-558503Y571166D01*
X-543508Y569500D02*
Y579497D01*
X-548507Y574498D01*
X-541842D01*
X-616335Y622831D02*
X-618002Y624497D01*
X-621334D01*
X-623000Y622831D01*
Y616166D01*
X-621334Y614500D01*
X-618002D01*
X-616335Y616166D01*
X-606339Y624497D02*
X-609671Y622831D01*
X-613003Y619498D01*
Y616166D01*
X-611337Y614500D01*
X-608005D01*
X-606339Y616166D01*
Y617832D01*
X-608005Y619498D01*
X-613003D01*
X-603007Y622831D02*
X-601340Y624497D01*
X-598008D01*
X-596342Y622831D01*
Y621165D01*
X-598008Y619498D01*
X-599674D01*
X-598008D01*
X-596342Y617832D01*
Y616166D01*
X-598008Y614500D01*
X-601340D01*
X-603007Y616166D01*
X-795500Y554500D02*
Y564497D01*
X-790502D01*
X-788836Y562831D01*
Y559498D01*
X-790502Y557832D01*
X-795500D01*
X-792168D02*
X-788836Y554500D01*
X-780505D02*
Y564497D01*
X-785503Y559498D01*
X-778839D01*
X-770508Y554500D02*
Y564497D01*
X-775506Y559498D01*
X-768842D01*
X139500Y474500D02*
Y484497D01*
X144498D01*
X146165Y482831D01*
Y479498D01*
X144498Y477832D01*
X139500D01*
X149497Y484497D02*
Y474500D01*
X154495D01*
X156161Y476166D01*
Y482831D01*
X154495Y484497D01*
X149497D01*
X159494D02*
X162826D01*
X161160D01*
Y474500D01*
X159494D01*
X162826D01*
X167824D02*
Y484497D01*
X172823D01*
X174489Y482831D01*
Y479498D01*
X172823Y477832D01*
X167824D01*
X171157D02*
X174489Y474500D01*
X30503Y424500D02*
Y431165D01*
Y427832D01*
X40500D01*
X30503Y434497D02*
X40500Y441161D01*
X30503D02*
X40500Y434497D01*
X-74335Y417997D02*
X-81000D01*
Y408000D01*
X-74335D01*
X-81000Y412998D02*
X-77668D01*
X158822Y545932D02*
X156466D01*
X154109Y543575D01*
Y541219D01*
X155288Y540041D01*
X157644Y540041D01*
X160000Y542397D01*
X162356Y542397D01*
X163534Y541219D01*
Y538863D01*
X161178Y536507D01*
X158822D01*
X165891Y553000D02*
X163534Y553000D01*
X161178Y550644D01*
Y548288D01*
X165891Y543575D01*
X168247D01*
X170603Y545932D01*
Y548288D01*
X167069Y556535D02*
X174138Y549466D01*
X178850Y554179D01*
X-795500Y509500D02*
Y519497D01*
X-790502D01*
X-788836Y517831D01*
Y514498D01*
X-790502Y512832D01*
X-795500D01*
X-792168D02*
X-788836Y509500D01*
X-780505D02*
Y519497D01*
X-785503Y514498D01*
X-778839D01*
X-768842Y519497D02*
X-772174Y517831D01*
X-775506Y514498D01*
Y511166D01*
X-773840Y509500D01*
X-770508D01*
X-768842Y511166D01*
Y512832D01*
X-770508Y514498D01*
X-775506D01*
X-558000Y268695D02*
Y280691D01*
X-552002D01*
X-550003Y278692D01*
Y274693D01*
X-552002Y272694D01*
X-558000D01*
X-546004Y280691D02*
Y268695D01*
X-540006D01*
X-538007Y270695D01*
Y278692D01*
X-540006Y280691D01*
X-546004D01*
X-526010Y268695D02*
X-534008D01*
X-526010Y276693D01*
Y278692D01*
X-528010Y280691D01*
X-532008D01*
X-534008Y278692D01*
X-558000Y259497D02*
X-556001Y261496D01*
X-552002D01*
X-550003Y259497D01*
Y257497D01*
X-552002Y255498D01*
X-554001D01*
X-552002D01*
X-550003Y253499D01*
Y251499D01*
X-552002Y249500D01*
X-556001D01*
X-558000Y251499D01*
X-546004Y249500D02*
Y251499D01*
X-544005D01*
Y249500D01*
X-546004D01*
X-536007Y259497D02*
X-534008Y261496D01*
X-530009D01*
X-528010Y259497D01*
Y257497D01*
X-530009Y255498D01*
X-532008D01*
X-530009D01*
X-528010Y253499D01*
Y251499D01*
X-530009Y249500D01*
X-534008D01*
X-536007Y251499D01*
X-524011Y261496D02*
Y253499D01*
X-520012Y249500D01*
X-516014Y253499D01*
Y261496D01*
X-708000Y268695D02*
Y280691D01*
X-702002D01*
X-700003Y278692D01*
Y274693D01*
X-702002Y272694D01*
X-708000D01*
X-696004Y280691D02*
Y268695D01*
X-690006D01*
X-688007Y270695D01*
Y278692D01*
X-690006Y280691D01*
X-696004D01*
X-678010Y268695D02*
Y280691D01*
X-684008Y274693D01*
X-676010D01*
X-708000Y259497D02*
X-706001Y261496D01*
X-702002D01*
X-700003Y259497D01*
Y257497D01*
X-702002Y255498D01*
X-704001D01*
X-702002D01*
X-700003Y253499D01*
Y251499D01*
X-702002Y249500D01*
X-706001D01*
X-708000Y251499D01*
X-696004Y249500D02*
Y251499D01*
X-694005D01*
Y249500D01*
X-696004D01*
X-686007Y259497D02*
X-684008Y261496D01*
X-680009D01*
X-678010Y259497D01*
Y257497D01*
X-680009Y255498D01*
X-682008D01*
X-680009D01*
X-678010Y253499D01*
Y251499D01*
X-680009Y249500D01*
X-684008D01*
X-686007Y251499D01*
X-674011Y261496D02*
Y253499D01*
X-670012Y249500D01*
X-666014Y253499D01*
Y261496D01*
X605000Y-203000D02*
X598335D01*
X595003Y-199668D01*
X598335Y-196336D01*
X605000D01*
X600002D01*
Y-203000D01*
X595003Y-193003D02*
Y-186339D01*
Y-189671D01*
X605000D01*
X595003Y-183006D02*
Y-176342D01*
Y-179674D01*
X605000D01*
Y-173010D02*
Y-169677D01*
Y-171343D01*
X595003D01*
X596669Y-173010D01*
X605000Y-158014D02*
Y-164679D01*
X598335Y-158014D01*
X596669D01*
X595003Y-159681D01*
Y-163013D01*
X596669Y-164679D01*
X-337000Y621000D02*
Y627664D01*
X-333668Y630997D01*
X-330336Y627664D01*
Y621000D01*
Y625998D01*
X-337000D01*
X-327003Y630997D02*
Y621000D01*
X-322005D01*
X-320339Y622666D01*
Y629331D01*
X-322005Y630997D01*
X-327003D01*
X-310342Y629331D02*
X-312008Y630997D01*
X-315340D01*
X-317006Y629331D01*
Y622666D01*
X-315340Y621000D01*
X-312008D01*
X-310342Y622666D01*
X-668000Y624497D02*
Y614500D01*
X-663002D01*
X-661336Y616166D01*
Y617832D01*
X-663002Y619498D01*
X-668000D01*
X-663002D01*
X-661336Y621165D01*
Y622831D01*
X-663002Y624497D01*
X-668000D01*
X-658003D02*
Y614500D01*
X-651339D01*
X-648006D02*
Y624497D01*
X-644674Y621165D01*
X-641342Y624497D01*
Y614500D01*
X-638010Y616166D02*
X-636343Y614500D01*
X-633011D01*
X-631345Y616166D01*
Y622831D01*
X-633011Y624497D01*
X-636343D01*
X-638010Y622831D01*
Y621165D01*
X-636343Y619498D01*
X-631345D01*
X-703000Y606997D02*
Y598666D01*
X-701334Y597000D01*
X-698002D01*
X-696336Y598666D01*
Y606997D01*
X-686339D02*
X-689671Y605331D01*
X-693003Y601998D01*
Y598666D01*
X-691337Y597000D01*
X-688005D01*
X-686339Y598666D01*
Y600332D01*
X-688005Y601998D01*
X-693003D01*
X-67336Y78997D02*
X-70668Y77331D01*
X-74000Y73998D01*
Y70666D01*
X-72334Y69000D01*
X-69002D01*
X-67336Y70666D01*
Y72332D01*
X-69002Y73998D01*
X-74000D01*
X30000Y-114000D02*
X23335D01*
X20003Y-110668D01*
X23335Y-107336D01*
X30000D01*
X25002D01*
Y-114000D01*
X30000Y-104003D02*
X20003D01*
X23335Y-100671D01*
X20003Y-97339D01*
X30000D01*
Y-94006D02*
X20003D01*
Y-89008D01*
X21669Y-87342D01*
X25002D01*
X26668Y-89008D01*
Y-94006D01*
X21669Y-84010D02*
X20003Y-82344D01*
Y-79011D01*
X21669Y-77345D01*
X23335D01*
X25002Y-79011D01*
Y-80677D01*
Y-79011D01*
X26668Y-77345D01*
X28334D01*
X30000Y-79011D01*
Y-82344D01*
X28334Y-84010D01*
X20003Y-67348D02*
Y-74013D01*
X25002D01*
X23335Y-70681D01*
Y-69015D01*
X25002Y-67348D01*
X28334D01*
X30000Y-69015D01*
Y-72347D01*
X28334Y-74013D01*
X30000Y-57352D02*
Y-64016D01*
X23335Y-57352D01*
X21669D01*
X20003Y-59018D01*
Y-62350D01*
X21669Y-64016D01*
X396000Y633997D02*
Y627332D01*
X399332Y624000D01*
X402664Y627332D01*
Y633997D01*
X405997Y628998D02*
X412661D01*
X-12000Y-184000D02*
Y-177335D01*
X-8668Y-174003D01*
X-5336Y-177335D01*
Y-184000D01*
Y-179002D01*
X-12000D01*
X-2003Y-174003D02*
X4661D01*
X1329D01*
Y-184000D01*
X7994Y-174003D02*
X14658D01*
X11326D01*
Y-184000D01*
X17990Y-174003D02*
X24655D01*
Y-175669D01*
X17990Y-182334D01*
Y-184000D01*
X530664Y78997D02*
X524000D01*
Y69000D01*
X530664D01*
X524000Y73998D02*
X527332D01*
X-661336Y607831D02*
X-663002Y609497D01*
X-666334D01*
X-668000Y607831D01*
Y601166D01*
X-666334Y599500D01*
X-663002D01*
X-661336Y601166D01*
X-651339Y609497D02*
X-654671Y607831D01*
X-658003Y604498D01*
Y601166D01*
X-656337Y599500D01*
X-653005D01*
X-651339Y601166D01*
Y602832D01*
X-653005Y604498D01*
X-658003D01*
X-641342Y609497D02*
X-644674Y607831D01*
X-648006Y604498D01*
Y601166D01*
X-646340Y599500D01*
X-643008D01*
X-641342Y601166D01*
Y602832D01*
X-643008Y604498D01*
X-648006D01*
X208000Y-162000D02*
X201336D01*
X198003Y-158668D01*
X201336Y-155336D01*
X208000D01*
X203002D01*
Y-162000D01*
X198003Y-152003D02*
Y-145339D01*
Y-148671D01*
X208000D01*
X198003Y-142006D02*
Y-135342D01*
Y-138674D01*
X208000D01*
Y-132010D02*
Y-128677D01*
Y-130344D01*
X198003D01*
X199669Y-132010D01*
Y-123679D02*
X198003Y-122013D01*
Y-118681D01*
X199669Y-117015D01*
X206334D01*
X208000Y-118681D01*
Y-122013D01*
X206334Y-123679D01*
X199669D01*
X744000Y-203000D02*
X737336D01*
X734003Y-199668D01*
X737336Y-196336D01*
X744000D01*
X739002D01*
Y-203000D01*
X734003Y-193003D02*
Y-186339D01*
Y-189671D01*
X744000D01*
X734003Y-183006D02*
Y-176342D01*
Y-179674D01*
X744000D01*
Y-173010D02*
Y-169677D01*
Y-171343D01*
X734003D01*
X735669Y-173010D01*
Y-164679D02*
X734003Y-163013D01*
Y-159681D01*
X735669Y-158014D01*
X737336D01*
X739002Y-159681D01*
Y-161347D01*
Y-159681D01*
X740668Y-158014D01*
X742334D01*
X744000Y-159681D01*
Y-163013D01*
X742334Y-164679D01*
X55500Y424500D02*
X45503D01*
Y429498D01*
X47169Y431165D01*
X50502D01*
X52168Y429498D01*
Y424500D01*
Y427832D02*
X55500Y431165D01*
X45503Y434497D02*
X55500Y441161D01*
X45503D02*
X55500Y434497D01*
X-469002Y78000D02*
Y87997D01*
X-474000Y82998D01*
X-467336D01*
X209000Y126000D02*
Y135997D01*
X212332Y132664D01*
X215665Y135997D01*
Y126000D01*
X223995Y135997D02*
X220663D01*
X218997Y134331D01*
Y127666D01*
X220663Y126000D01*
X223995D01*
X225661Y127666D01*
Y134331D01*
X223995Y135997D01*
X228993D02*
X235658D01*
Y134331D01*
X228993Y127666D01*
Y126000D01*
X238990Y134331D02*
X240657Y135997D01*
X243989D01*
X245655Y134331D01*
Y127666D01*
X243989Y126000D01*
X240657D01*
X238990Y127666D01*
Y134331D01*
X253986Y126000D02*
Y135997D01*
X248987Y130998D01*
X255652D01*
X258984Y126000D02*
X265648Y132664D01*
X275645Y126000D02*
X268981D01*
X275645Y132664D01*
Y134331D01*
X273979Y135997D01*
X270647D01*
X268981Y134331D01*
X90503Y431165D02*
Y424500D01*
X100500D01*
Y431165D01*
X95502Y424500D02*
Y427832D01*
X100500Y434497D02*
X90503D01*
Y439495D01*
X92169Y441161D01*
X95502D01*
X97168Y439495D01*
Y434497D01*
Y437829D02*
X100500Y441161D01*
X108000Y567000D02*
X98003D01*
X101336Y570332D01*
X98003Y573665D01*
X108000D01*
X98003Y576997D02*
Y580329D01*
Y578663D01*
X108000D01*
Y576997D01*
Y580329D01*
X99669Y591992D02*
X98003Y590326D01*
Y586994D01*
X99669Y585327D01*
X101336D01*
X103002Y586994D01*
Y590326D01*
X104668Y591992D01*
X106334D01*
X108000Y590326D01*
Y586994D01*
X106334Y585327D01*
X98003Y600323D02*
Y596990D01*
X99669Y595324D01*
X106334D01*
X108000Y596990D01*
Y600323D01*
X106334Y601989D01*
X99669D01*
X98003Y600323D01*
X108000Y605321D02*
Y608653D01*
Y606987D01*
X98003D01*
X99669Y605321D01*
X112169Y431165D02*
X110503Y429498D01*
Y426166D01*
X112169Y424500D01*
X113835D01*
X115502Y426166D01*
Y429498D01*
X117168Y431165D01*
X118834D01*
X120500Y429498D01*
Y426166D01*
X118834Y424500D01*
X110503Y434497D02*
X112169D01*
X115502Y437829D01*
X112169Y441161D01*
X110503D01*
X115502Y437829D02*
X120500D01*
Y444493D02*
X110503D01*
X120500Y451158D01*
X110503D01*
X112169Y461155D02*
X110503Y459489D01*
Y456157D01*
X112169Y454490D01*
X118834D01*
X120500Y456157D01*
Y459489D01*
X118834Y461155D01*
X0Y-157000D02*
X-6665D01*
X-9997Y-153668D01*
X-6665Y-150336D01*
X0D01*
X-4998D01*
Y-157000D01*
X0Y-147003D02*
X-9997D01*
X-6665Y-143671D01*
X-9997Y-140339D01*
X0D01*
Y-137007D02*
X-9997D01*
Y-132008D01*
X-8331Y-130342D01*
X-4998D01*
X-3332Y-132008D01*
Y-137007D01*
X-9997Y-127010D02*
Y-120345D01*
X-8331D01*
X-1666Y-127010D01*
X0D01*
X-8331Y-117013D02*
X-9997Y-115347D01*
Y-112015D01*
X-8331Y-110348D01*
X-1666D01*
X0Y-112015D01*
Y-115347D01*
X-1666Y-117013D01*
X-8331D01*
X0Y-102018D02*
X-9997D01*
X-4998Y-107016D01*
Y-100352D01*
X130503Y424500D02*
X140500D01*
Y431165D01*
X130503Y434497D02*
X140500D01*
Y439495D01*
X138834Y441161D01*
X132169D01*
X130503Y439495D01*
Y434497D01*
X140500Y444493D02*
X133835D01*
X130503Y447826D01*
X133835Y451158D01*
X140500D01*
X135502D01*
Y444493D01*
X132169Y461155D02*
X130503Y459489D01*
Y456157D01*
X132169Y454490D01*
X138834D01*
X140500Y456157D01*
Y459489D01*
X138834Y461155D01*
X546000Y-145000D02*
X536003D01*
X539336Y-141668D01*
X536003Y-138336D01*
X546000D01*
X536003Y-130005D02*
Y-133337D01*
X537669Y-135003D01*
X544334D01*
X546000Y-133337D01*
Y-130005D01*
X544334Y-128339D01*
X537669D01*
X536003Y-130005D01*
X537669Y-125007D02*
X536003Y-123340D01*
Y-120008D01*
X537669Y-118342D01*
X539336D01*
X541002Y-120008D01*
Y-121674D01*
Y-120008D01*
X542668Y-118342D01*
X544334D01*
X546000Y-120008D01*
Y-123340D01*
X544334Y-125007D01*
X536003Y-108345D02*
Y-115010D01*
X541002D01*
X539336Y-111677D01*
Y-110011D01*
X541002Y-108345D01*
X544334D01*
X546000Y-110011D01*
Y-113343D01*
X544334Y-115010D01*
X546000Y-98348D02*
Y-105013D01*
X539336Y-98348D01*
X537669D01*
X536003Y-100014D01*
Y-103347D01*
X537669Y-105013D01*
X-795500Y569500D02*
Y579497D01*
X-790502D01*
X-788836Y577831D01*
Y574498D01*
X-790502Y572832D01*
X-795500D01*
X-792168D02*
X-788836Y569500D01*
X-780505D02*
Y579497D01*
X-785503Y574498D01*
X-778839D01*
X-768842Y579497D02*
X-775506D01*
Y574498D01*
X-772174Y576165D01*
X-770508D01*
X-768842Y574498D01*
Y571166D01*
X-770508Y569500D01*
X-773840D01*
X-775506Y571166D01*
X716000Y-203000D02*
X709335D01*
X706003Y-199668D01*
X709335Y-196336D01*
X716000D01*
X711002D01*
Y-203000D01*
X706003Y-193003D02*
Y-186339D01*
Y-189671D01*
X716000D01*
X706003Y-183006D02*
Y-176342D01*
Y-179674D01*
X716000D01*
Y-173010D02*
Y-169677D01*
Y-171343D01*
X706003D01*
X707669Y-173010D01*
X716000Y-159681D02*
X706003D01*
X711002Y-164679D01*
Y-158014D01*
X-733836Y622831D02*
X-735502Y624497D01*
X-738834D01*
X-740500Y622831D01*
Y616166D01*
X-738834Y614500D01*
X-735502D01*
X-733836Y616166D01*
X-723839Y624497D02*
X-727171Y622831D01*
X-730503Y619498D01*
Y616166D01*
X-728837Y614500D01*
X-725505D01*
X-723839Y616166D01*
Y617832D01*
X-725505Y619498D01*
X-730503D01*
X-720507Y622831D02*
X-718840Y624497D01*
X-715508D01*
X-713842Y622831D01*
Y616166D01*
X-715508Y614500D01*
X-718840D01*
X-720507Y616166D01*
Y622831D01*
X-162320Y457148D02*
X-156665Y462803D01*
X-159492Y459976D01*
X-151010Y451493D01*
X-141113Y461389D02*
X-143941Y458562D01*
X-146768D01*
X-149596Y461389D01*
Y464217D01*
X-146768Y467044D01*
X-143941D01*
X-142527Y465631D01*
X-148182Y459976D01*
X-136872Y465631D02*
X-142527Y471286D01*
X-141113Y472700D01*
X-138286Y472700D01*
X-134045Y468458D01*
X-138286Y472700D01*
Y475527D01*
X-135458D01*
X-131217Y471286D01*
X-125562D02*
X-134045Y479768D01*
X-129803Y484010D01*
X-126976D01*
X-124148Y481182D01*
Y478354D01*
X-128390Y474113D01*
X-115666Y486837D02*
X-118493Y484010D01*
X-121321D01*
X-124148Y486837D01*
Y489665D01*
X-121321Y492492D01*
X-118493D01*
X-117079Y491078D01*
X-122735Y485423D01*
X-117079Y496733D02*
X-111425Y491078D01*
X-114252Y493906D01*
Y496733D01*
X-114252Y499561D01*
X-112838Y500975D01*
X-107183Y506630D02*
X-104356Y509457D01*
X-101528D01*
X-97287Y505216D01*
X-101528Y500975D01*
X-104356D01*
X-104356Y503802D01*
X-100114Y508043D01*
X-100114Y516526D02*
X-98701Y515112D01*
X-100114Y513698D01*
X-97287Y516526D01*
X-98701Y515112D01*
X-94459Y510871D01*
X-91632Y510871D01*
X-93046Y520767D02*
X-88804Y516526D01*
X-85977D01*
X-81736Y520767D01*
X-87391Y526422D01*
X-84563Y529250D02*
X-78908Y523595D01*
X-81736Y526422D01*
Y529250D01*
X-81736Y532077D01*
X-80322Y533491D01*
X-66184Y536319D02*
X-69012Y533491D01*
X-71839D01*
X-74667Y536319D01*
Y539146D01*
X-71839Y541973D01*
X-69012D01*
X-67598Y540560D01*
X-73253Y534905D01*
X-795500Y524500D02*
Y534497D01*
X-790502D01*
X-788836Y532831D01*
Y529498D01*
X-790502Y527832D01*
X-795500D01*
X-792168D02*
X-788836Y524500D01*
X-780505D02*
Y534497D01*
X-785503Y529498D01*
X-778839D01*
X-775506Y532831D02*
X-773840Y534497D01*
X-770508D01*
X-768842Y532831D01*
Y531165D01*
X-770508Y529498D01*
X-772174D01*
X-770508D01*
X-768842Y527832D01*
Y526166D01*
X-770508Y524500D01*
X-773840D01*
X-775506Y526166D01*
X-161000Y408000D02*
Y414664D01*
X-157668Y417997D01*
X-154335Y414664D01*
Y408000D01*
Y412998D01*
X-161000D01*
X-57000Y78997D02*
X-50335D01*
Y77331D01*
X-57000Y70666D01*
Y69000D01*
X191665Y472331D02*
X189998Y473997D01*
X186666D01*
X185000Y472331D01*
Y470664D01*
X186666Y468998D01*
X189998D01*
X191665Y467332D01*
Y465666D01*
X189998Y464000D01*
X186666D01*
X185000Y465666D01*
X194997Y473997D02*
Y464000D01*
X198329Y467332D01*
X201661Y464000D01*
Y473997D01*
X204993D02*
Y464000D01*
X209992D01*
X211658Y465666D01*
Y472331D01*
X209992Y473997D01*
X204993D01*
X-258000Y268695D02*
Y280691D01*
X-252002D01*
X-250003Y278692D01*
Y274693D01*
X-252002Y272694D01*
X-258000D01*
X-246004Y280691D02*
Y268695D01*
X-242005Y272694D01*
X-238006Y268695D01*
Y280691D01*
X-234008D02*
Y268695D01*
X-228010D01*
X-226010Y270695D01*
Y278692D01*
X-228010Y280691D01*
X-234008D01*
X-222012Y278692D02*
X-220012Y280691D01*
X-216014D01*
X-214014Y278692D01*
Y270695D01*
X-216014Y268695D01*
X-220012D01*
X-222012Y270695D01*
Y278692D01*
X-258000Y259497D02*
X-256001Y261496D01*
X-252002D01*
X-250003Y259497D01*
Y257497D01*
X-252002Y255498D01*
X-254001D01*
X-252002D01*
X-250003Y253499D01*
Y251499D01*
X-252002Y249500D01*
X-256001D01*
X-258000Y251499D01*
X-246004Y249500D02*
Y251499D01*
X-244004D01*
Y249500D01*
X-246004D01*
X-236007Y259497D02*
X-234008Y261496D01*
X-230009D01*
X-228010Y259497D01*
Y257497D01*
X-230009Y255498D01*
X-232008D01*
X-230009D01*
X-228010Y253499D01*
Y251499D01*
X-230009Y249500D01*
X-234008D01*
X-236007Y251499D01*
X-224011Y261496D02*
Y253499D01*
X-220012Y249500D01*
X-216014Y253499D01*
Y261496D01*
X-568000Y509500D02*
Y519497D01*
X-563002D01*
X-561335Y517831D01*
Y514498D01*
X-563002Y512832D01*
X-568000D01*
X-564668D02*
X-561335Y509500D01*
X-551339Y519497D02*
X-558003D01*
Y514498D01*
X-554671Y516165D01*
X-553005D01*
X-551339Y514498D01*
Y511166D01*
X-553005Y509500D01*
X-556337D01*
X-558003Y511166D01*
X-548006Y517831D02*
X-546340Y519497D01*
X-543008D01*
X-541342Y517831D01*
Y516165D01*
X-543008Y514498D01*
X-544674D01*
X-543008D01*
X-541342Y512832D01*
Y511166D01*
X-543008Y509500D01*
X-546340D01*
X-548006Y511166D01*
X-612336Y-52669D02*
X-614002Y-51003D01*
X-617334D01*
X-619000Y-52669D01*
Y-54335D01*
X-617334Y-56002D01*
X-614002D01*
X-612336Y-57668D01*
Y-59334D01*
X-614002Y-61000D01*
X-617334D01*
X-619000Y-59334D01*
X-609003Y-51003D02*
X-602339D01*
X-605671D01*
Y-61000D01*
X-599006Y-51003D02*
Y-59334D01*
X-597340Y-61000D01*
X-594008D01*
X-592342Y-59334D01*
Y-51003D01*
X-589010D02*
Y-61000D01*
X-584011D01*
X-582345Y-59334D01*
Y-57668D01*
X-584011Y-56002D01*
X-589010D01*
X-584011D01*
X-582345Y-54335D01*
Y-52669D01*
X-584011Y-51003D01*
X-589010D01*
X-579013D02*
X-572348D01*
Y-52669D01*
X-579013Y-59334D01*
Y-61000D01*
X-569016Y-52669D02*
X-567350Y-51003D01*
X-564018D01*
X-562352Y-52669D01*
Y-59334D01*
X-564018Y-61000D01*
X-567350D01*
X-569016Y-59334D01*
Y-52669D01*
X-554021Y-61000D02*
Y-51003D01*
X-559019Y-56002D01*
X-552355D01*
X-44000Y408000D02*
X-40668D01*
X-42334D01*
Y417997D01*
X-44000Y416331D01*
X-35669D02*
X-34003Y417997D01*
X-30671D01*
X-29005Y416331D01*
Y409666D01*
X-30671Y408000D01*
X-34003D01*
X-35669Y409666D01*
Y416331D01*
X136322Y545932D02*
X133966D01*
X131609Y543575D01*
Y541219D01*
X132788Y540041D01*
X135144Y540041D01*
X137500Y542397D01*
X139856Y542397D01*
X141034Y541219D01*
Y538863D01*
X138678Y536507D01*
X136322D01*
X137500Y549466D02*
X144569Y542397D01*
X148103Y545932D01*
Y548288D01*
X143391Y553000D01*
X141034Y553000D01*
X137500Y549466D01*
X151638D02*
X146925Y554179D01*
X146925Y558891D01*
X151638Y558891D01*
X156350Y554179D01*
X152816Y557713D01*
X148103Y553000D01*
X-783000Y599500D02*
Y609497D01*
X-778002D01*
X-776336Y607831D01*
Y604498D01*
X-778002Y602832D01*
X-783000D01*
X-779668D02*
X-776336Y599500D01*
X-768005D02*
Y609497D01*
X-773003Y604498D01*
X-766339D01*
X-763007Y609497D02*
X-756342D01*
Y607831D01*
X-763007Y601166D01*
Y599500D01*
X-233000Y-112000D02*
X-242997D01*
X-239664Y-108668D01*
X-242997Y-105336D01*
X-233000D01*
X-242997Y-97005D02*
Y-100337D01*
X-241331Y-102003D01*
X-234666D01*
X-233000Y-100337D01*
Y-97005D01*
X-234666Y-95339D01*
X-241331D01*
X-242997Y-97005D01*
Y-92006D02*
Y-85342D01*
X-241331D01*
X-234666Y-92006D01*
X-233000D01*
X-241331Y-82010D02*
X-242997Y-80344D01*
Y-77011D01*
X-241331Y-75345D01*
X-234666D01*
X-233000Y-77011D01*
Y-80344D01*
X-234666Y-82010D01*
X-241331D01*
X-233000Y-67014D02*
X-242997D01*
X-237998Y-72013D01*
Y-65348D01*
X-234335Y417997D02*
X-237668Y416331D01*
X-241000Y412998D01*
Y409666D01*
X-239334Y408000D01*
X-236002D01*
X-234335Y409666D01*
Y411332D01*
X-236002Y412998D01*
X-241000D01*
X-114335Y416331D02*
X-116002Y417997D01*
X-119334D01*
X-121000Y416331D01*
Y409666D01*
X-119334Y408000D01*
X-116002D01*
X-114335Y409666D01*
X192000Y268695D02*
Y280691D01*
X197998D01*
X199997Y278692D01*
Y274693D01*
X197998Y272694D01*
X192000D01*
X203996Y280691D02*
Y268695D01*
X207995Y272694D01*
X211994Y268695D01*
Y280691D01*
X215992D02*
Y268695D01*
X221990D01*
X223990Y270695D01*
Y278692D01*
X221990Y280691D01*
X215992D01*
X227988Y268695D02*
X231987D01*
X229988D01*
Y280691D01*
X227988Y278692D01*
X192000Y259497D02*
X193999Y261496D01*
X197998D01*
X199997Y259497D01*
Y257497D01*
X197998Y255498D01*
X195999D01*
X197998D01*
X199997Y253499D01*
Y251499D01*
X197998Y249500D01*
X193999D01*
X192000Y251499D01*
X203996Y249500D02*
Y251499D01*
X205996D01*
Y249500D01*
X203996D01*
X213993Y259497D02*
X215992Y261496D01*
X219991D01*
X221990Y259497D01*
Y257497D01*
X219991Y255498D01*
X217992D01*
X219991D01*
X221990Y253499D01*
Y251499D01*
X219991Y249500D01*
X215992D01*
X213993Y251499D01*
X225989Y261496D02*
Y253499D01*
X229988Y249500D01*
X233986Y253499D01*
Y261496D01*
X-568500Y599500D02*
Y609497D01*
X-563502D01*
X-561836Y607831D01*
Y604498D01*
X-563502Y602832D01*
X-568500D01*
X-565168D02*
X-561836Y599500D01*
X-551839Y609497D02*
X-558503D01*
Y604498D01*
X-555171Y606165D01*
X-553505D01*
X-551839Y604498D01*
Y601166D01*
X-553505Y599500D01*
X-556837D01*
X-558503Y601166D01*
X-548507Y609497D02*
X-541842D01*
Y607831D01*
X-548507Y601166D01*
Y599500D01*
X78000Y567000D02*
X68003D01*
X71336Y570332D01*
X68003Y573665D01*
X78000D01*
X68003Y576997D02*
Y580329D01*
Y578663D01*
X78000D01*
Y576997D01*
Y580329D01*
X69669Y591992D02*
X68003Y590326D01*
Y586994D01*
X69669Y585327D01*
X71336D01*
X73002Y586994D01*
Y590326D01*
X74668Y591992D01*
X76334D01*
X78000Y590326D01*
Y586994D01*
X76334Y585327D01*
X68003Y600323D02*
Y596990D01*
X69669Y595324D01*
X76334D01*
X78000Y596990D01*
Y600323D01*
X76334Y601989D01*
X69669D01*
X68003Y600323D01*
X78000Y611986D02*
Y605321D01*
X71336Y611986D01*
X69669D01*
X68003Y610319D01*
Y606987D01*
X69669Y605321D01*
X-132336Y51997D02*
X-139000D01*
Y46998D01*
X-135668Y48664D01*
X-134002D01*
X-132336Y46998D01*
Y43666D01*
X-134002Y42000D01*
X-137334D01*
X-139000Y43666D01*
X-795500Y539500D02*
Y549497D01*
X-790502D01*
X-788836Y547831D01*
Y544498D01*
X-790502Y542832D01*
X-795500D01*
X-792168D02*
X-788836Y539500D01*
X-780505D02*
Y549497D01*
X-785503Y544498D01*
X-778839D01*
X-768842Y539500D02*
X-775506D01*
X-768842Y546165D01*
Y547831D01*
X-770508Y549497D01*
X-773840D01*
X-775506Y547831D01*
X-292172Y-153000D02*
X-285103Y-145931D01*
X-285103Y-150644D01*
X-280390Y-150644D01*
X-287459Y-157712D01*
X-274500Y-156534D02*
X-276856Y-154178D01*
X-279212D01*
X-283925Y-158891D01*
Y-161247D01*
X-281568Y-163603D01*
X-279212D01*
X-274500Y-158891D01*
X-274500Y-156534D01*
X-270965Y-160069D02*
X-266253Y-164781D01*
X-267431Y-165959D01*
X-276856D01*
X-278034Y-167138D01*
X-265075Y-168316D02*
X-262718D01*
X-260362Y-170672D01*
X-260362Y-173028D01*
X-265075Y-177741D01*
X-267431Y-177741D01*
X-269787Y-175385D01*
Y-173028D01*
X-265075Y-168316D01*
X-260362Y-184810D02*
X-253293Y-177741D01*
X-260362D01*
X-255650Y-182453D01*
X417000Y-80000D02*
Y-73335D01*
X420332Y-70003D01*
X423665Y-73335D01*
Y-80000D01*
Y-75002D01*
X417000D01*
X426997Y-80000D02*
Y-70003D01*
X430329Y-73335D01*
X433661Y-70003D01*
Y-80000D01*
X436994D02*
Y-70003D01*
X441992D01*
X443658Y-71669D01*
Y-75002D01*
X441992Y-76668D01*
X436994D01*
X446990Y-71669D02*
X448657Y-70003D01*
X451989D01*
X453655Y-71669D01*
Y-73335D01*
X451989Y-75002D01*
X450323D01*
X451989D01*
X453655Y-76668D01*
Y-78334D01*
X451989Y-80000D01*
X448657D01*
X446990Y-78334D01*
X463652Y-70003D02*
X456987D01*
Y-75002D01*
X460319Y-73335D01*
X461986D01*
X463652Y-75002D01*
Y-78334D01*
X461986Y-80000D01*
X458653D01*
X456987Y-78334D01*
X473648Y-80000D02*
X466984D01*
X473648Y-73335D01*
Y-71669D01*
X471982Y-70003D01*
X468650D01*
X466984Y-71669D01*
X625500Y-203000D02*
X618835D01*
X615503Y-199668D01*
X618835Y-196336D01*
X625500D01*
X620502D01*
Y-203000D01*
X615503Y-193003D02*
Y-186339D01*
Y-189671D01*
X625500D01*
X615503Y-183006D02*
Y-176342D01*
Y-179674D01*
X625500D01*
X623834Y-173010D02*
X625500Y-171343D01*
Y-168011D01*
X623834Y-166345D01*
X617169D01*
X615503Y-168011D01*
Y-171343D01*
X617169Y-173010D01*
X618835D01*
X620502Y-171343D01*
Y-166345D01*
X127000Y35000D02*
Y41665D01*
X130332Y44997D01*
X133665Y41665D01*
Y35000D01*
Y39998D01*
X127000D01*
X-447000Y470997D02*
Y461000D01*
X-442002D01*
X-440336Y462666D01*
Y469331D01*
X-442002Y470997D01*
X-447000D01*
X-437003Y461000D02*
Y467664D01*
X-433671Y470997D01*
X-430339Y467664D01*
Y461000D01*
Y465998D01*
X-437003D01*
X-420342Y469331D02*
X-422008Y470997D01*
X-425340D01*
X-427006Y469331D01*
Y462666D01*
X-425340Y461000D01*
X-422008D01*
X-420342Y462666D01*
X-221000Y417997D02*
X-214335D01*
Y416331D01*
X-221000Y409666D01*
Y408000D01*
X-568500Y554500D02*
Y564497D01*
X-563502D01*
X-561836Y562831D01*
Y559498D01*
X-563502Y557832D01*
X-568500D01*
X-565168D02*
X-561836Y554500D01*
X-551839Y564497D02*
X-558503D01*
Y559498D01*
X-555171Y561165D01*
X-553505D01*
X-551839Y559498D01*
Y556166D01*
X-553505Y554500D01*
X-556837D01*
X-558503Y556166D01*
X-541842Y554500D02*
X-548507D01*
X-541842Y561165D01*
Y562831D01*
X-543508Y564497D01*
X-546840D01*
X-548507Y562831D01*
X-314335Y408000D02*
X-321000D01*
X-314335Y414664D01*
Y416331D01*
X-316002Y417997D01*
X-319334D01*
X-321000Y416331D01*
X-190000Y67000D02*
Y73664D01*
X-186668Y76997D01*
X-183335Y73664D01*
Y67000D01*
Y71998D01*
X-190000D01*
X-180003Y76997D02*
X-173339D01*
X-176671D01*
Y67000D01*
X-170006Y76997D02*
X-163342D01*
X-166674D01*
Y67000D01*
X-153345Y76997D02*
X-160010D01*
Y71998D01*
X-156677D01*
X-160010D01*
Y67000D01*
X-150013Y76997D02*
Y67000D01*
X-145014D01*
X-143348Y68666D01*
Y75331D01*
X-145014Y76997D01*
X-150013D01*
X176000Y-159000D02*
X169335D01*
X166003Y-155668D01*
X169335Y-152336D01*
X176000D01*
X171002D01*
Y-159000D01*
X166003Y-149003D02*
Y-142339D01*
Y-145671D01*
X176000D01*
X166003Y-139007D02*
Y-132342D01*
Y-135674D01*
X176000D01*
X167669Y-129010D02*
X166003Y-127344D01*
Y-124011D01*
X167669Y-122345D01*
X169335D01*
X171002Y-124011D01*
X172668Y-122345D01*
X174334D01*
X176000Y-124011D01*
Y-127344D01*
X174334Y-129010D01*
X172668D01*
X171002Y-127344D01*
X169335Y-129010D01*
X167669D01*
X171002Y-127344D02*
Y-124011D01*
X-276002Y408000D02*
Y417997D01*
X-281000Y412998D01*
X-274335D01*
X-494000Y86331D02*
X-492334Y87997D01*
X-489002D01*
X-487336Y86331D01*
Y84664D01*
X-489002Y82998D01*
X-490668D01*
X-489002D01*
X-487336Y81332D01*
Y79666D01*
X-489002Y78000D01*
X-492334D01*
X-494000Y79666D01*
X42000Y268695D02*
Y280691D01*
X47998D01*
X49997Y278692D01*
Y274693D01*
X47998Y272694D01*
X42000D01*
X53996Y280691D02*
Y268695D01*
X57995Y272694D01*
X61994Y268695D01*
Y280691D01*
X65992D02*
Y268695D01*
X71990D01*
X73990Y270695D01*
Y278692D01*
X71990Y280691D01*
X65992D01*
X85986Y268695D02*
X77988D01*
X85986Y276693D01*
Y278692D01*
X83986Y280691D01*
X79988D01*
X77988Y278692D01*
X42000Y259497D02*
X43999Y261496D01*
X47998D01*
X49997Y259497D01*
Y257497D01*
X47998Y255498D01*
X45999D01*
X47998D01*
X49997Y253499D01*
Y251499D01*
X47998Y249500D01*
X43999D01*
X42000Y251499D01*
X53996Y249500D02*
Y251499D01*
X55995D01*
Y249500D01*
X53996D01*
X63993Y259497D02*
X65992Y261496D01*
X69991D01*
X71990Y259497D01*
Y257497D01*
X69991Y255498D01*
X67992D01*
X69991D01*
X71990Y253499D01*
Y251499D01*
X69991Y249500D01*
X65992D01*
X63993Y251499D01*
X75989Y261496D02*
Y253499D01*
X79988Y249500D01*
X83986Y253499D01*
Y261496D01*
X-61114Y476698D02*
X-52632Y468216D01*
X-46977Y473871D01*
X-42736Y478112D02*
X-39908Y480940D01*
Y483767D01*
X-42736Y486595D01*
X-45563D01*
X-48391Y483767D01*
Y480940D01*
X-45563Y478112D01*
X-42736D01*
X-35667Y496491D02*
X-39908Y492250D01*
Y489422D01*
X-37081Y486595D01*
X-34253D01*
X-30012Y490836D01*
X-27184Y493663D02*
X-35667Y502146D01*
X-30012Y496491D02*
X-28598Y503560D01*
X-30012Y496491D02*
X-22943Y497905D01*
X-568500Y539500D02*
Y549497D01*
X-563502D01*
X-561836Y547831D01*
Y544498D01*
X-563502Y542832D01*
X-568500D01*
X-565168D02*
X-561836Y539500D01*
X-551839Y549497D02*
X-558503D01*
Y544498D01*
X-555171Y546165D01*
X-553505D01*
X-551839Y544498D01*
Y541166D01*
X-553505Y539500D01*
X-556837D01*
X-558503Y541166D01*
X-548507Y547831D02*
X-546840Y549497D01*
X-543508D01*
X-541842Y547831D01*
Y541166D01*
X-543508Y539500D01*
X-546840D01*
X-548507Y541166D01*
Y547831D01*
X79000Y-184000D02*
Y-177335D01*
X82332Y-174003D01*
X85665Y-177335D01*
Y-184000D01*
Y-179002D01*
X79000D01*
X88997Y-174003D02*
X95661D01*
X92329D01*
Y-184000D01*
X98994Y-174003D02*
X105658D01*
X102326D01*
Y-184000D01*
X108990D02*
X112323D01*
X110656D01*
Y-174003D01*
X108990Y-175669D01*
X117321Y-184000D02*
X120653D01*
X118987D01*
Y-174003D01*
X117321Y-175669D01*
X252000Y44997D02*
Y35000D01*
X256998D01*
X258664Y36666D01*
Y38332D01*
X256998Y39998D01*
X252000D01*
X256998D01*
X258664Y41665D01*
Y43331D01*
X256998Y44997D01*
X252000D01*
X-24000Y73331D02*
X-22334Y74997D01*
X-19002D01*
X-17335Y73331D01*
Y71665D01*
X-19002Y69998D01*
X-17335Y68332D01*
Y66666D01*
X-19002Y65000D01*
X-22334D01*
X-24000Y66666D01*
Y68332D01*
X-22334Y69998D01*
X-24000Y71665D01*
Y73331D01*
X-22334Y69998D02*
X-19002D01*
X501087Y267596D02*
Y279592D01*
X507085D01*
X509084Y277592D01*
Y273594D01*
X507085Y271594D01*
X501087D01*
X513083Y279592D02*
Y267596D01*
X519081D01*
X521080Y269595D01*
Y277592D01*
X519081Y279592D01*
X513083D01*
X525079Y277592D02*
X527078Y279592D01*
X531077D01*
X533076Y277592D01*
Y275593D01*
X531077Y273594D01*
X529078D01*
X531077D01*
X533076Y271594D01*
Y269595D01*
X531077Y267596D01*
X527078D01*
X525079Y269595D01*
X501087Y258397D02*
X503086Y260396D01*
X507085D01*
X509084Y258397D01*
Y256398D01*
X507085Y254398D01*
X505085D01*
X507085D01*
X509084Y252399D01*
Y250400D01*
X507085Y248400D01*
X503086D01*
X501087Y250400D01*
X513083Y248400D02*
Y250400D01*
X515082D01*
Y248400D01*
X513083D01*
X523080Y258397D02*
X525079Y260396D01*
X529078D01*
X531077Y258397D01*
Y256398D01*
X529078Y254398D01*
X527078D01*
X529078D01*
X531077Y252399D01*
Y250400D01*
X529078Y248400D01*
X525079D01*
X523080Y250400D01*
X535076Y260396D02*
Y252399D01*
X539075Y248400D01*
X543073Y252399D01*
Y260396D01*
X-783000Y614500D02*
Y624497D01*
X-778002D01*
X-776336Y622831D01*
Y619498D01*
X-778002Y617832D01*
X-783000D01*
X-779668D02*
X-776336Y614500D01*
X-768005D02*
Y624497D01*
X-773003Y619498D01*
X-766339D01*
X-763007Y616166D02*
X-761340Y614500D01*
X-758008D01*
X-756342Y616166D01*
Y622831D01*
X-758008Y624497D01*
X-761340D01*
X-763007Y622831D01*
Y621165D01*
X-761340Y619498D01*
X-756342D01*
X77169Y431165D02*
X75503Y429498D01*
Y426166D01*
X77169Y424500D01*
X78836D01*
X80502Y426166D01*
Y429498D01*
X82168Y431165D01*
X83834D01*
X85500Y429498D01*
Y426166D01*
X83834Y424500D01*
X75503Y434497D02*
Y441161D01*
Y437829D01*
X85500D01*
X63000Y567000D02*
X53003D01*
X56336Y570332D01*
X53003Y573665D01*
X63000D01*
X53003Y581995D02*
Y578663D01*
X54669Y576997D01*
X61334D01*
X63000Y578663D01*
Y581995D01*
X61334Y583661D01*
X54669D01*
X53003Y581995D01*
X54669Y593658D02*
X53003Y591992D01*
Y588660D01*
X54669Y586994D01*
X56336D01*
X58002Y588660D01*
Y591992D01*
X59668Y593658D01*
X61334D01*
X63000Y591992D01*
Y588660D01*
X61334Y586994D01*
X53003Y596990D02*
Y600323D01*
Y598657D01*
X63000D01*
Y596990D01*
Y600323D01*
Y611986D02*
Y605321D01*
X56336Y611986D01*
X54669D01*
X53003Y610319D01*
Y606987D01*
X54669Y605321D01*
X-140000Y417997D02*
Y408000D01*
X-135002D01*
X-133336Y409666D01*
Y411332D01*
X-135002Y412998D01*
X-140000D01*
X-135002D01*
X-133336Y414664D01*
Y416331D01*
X-135002Y417997D01*
X-140000D01*
X-568500Y614500D02*
Y624497D01*
X-563502D01*
X-561836Y622831D01*
Y619498D01*
X-563502Y617832D01*
X-568500D01*
X-565168D02*
X-561836Y614500D01*
X-551839Y624497D02*
X-558503D01*
Y619498D01*
X-555171Y621165D01*
X-553505D01*
X-551839Y619498D01*
Y616166D01*
X-553505Y614500D01*
X-556837D01*
X-558503Y616166D01*
X-541842Y624497D02*
X-548507D01*
Y619498D01*
X-545174Y621165D01*
X-543508D01*
X-541842Y619498D01*
Y616166D01*
X-543508Y614500D01*
X-546840D01*
X-548507Y616166D01*
X691750Y112750D02*
X695082D01*
X693416D01*
Y122747D01*
X691750Y121081D01*
X700081D02*
X701747Y122747D01*
X705079D01*
X706745Y121081D01*
Y114416D01*
X705079Y112750D01*
X701747D01*
X700081Y114416D01*
Y121081D01*
X-301000Y416331D02*
X-299334Y417997D01*
X-296002D01*
X-294335Y416331D01*
Y414664D01*
X-296002Y412998D01*
X-297668D01*
X-296002D01*
X-294335Y411332D01*
Y409666D01*
X-296002Y408000D01*
X-299334D01*
X-301000Y409666D01*
X129669Y573665D02*
X128003Y571998D01*
Y568666D01*
X129669Y567000D01*
X136334D01*
X138000Y568666D01*
Y571998D01*
X136334Y573665D01*
X129669Y583661D02*
X128003Y581995D01*
Y578663D01*
X129669Y576997D01*
X131335D01*
X133002Y578663D01*
Y581995D01*
X134668Y583661D01*
X136334D01*
X138000Y581995D01*
Y578663D01*
X136334Y576997D01*
X138000Y586994D02*
Y590326D01*
Y588660D01*
X128003D01*
X129669Y586994D01*
X-795500Y584500D02*
Y594497D01*
X-790502D01*
X-788836Y592831D01*
Y589498D01*
X-790502Y587832D01*
X-795500D01*
X-792168D02*
X-788836Y584500D01*
X-780505D02*
Y594497D01*
X-785503Y589498D01*
X-778839D01*
X-775506Y592831D02*
X-773840Y594497D01*
X-770508D01*
X-768842Y592831D01*
Y591165D01*
X-770508Y589498D01*
X-768842Y587832D01*
Y586166D01*
X-770508Y584500D01*
X-773840D01*
X-775506Y586166D01*
Y587832D01*
X-773840Y589498D01*
X-775506Y591165D01*
Y592831D01*
X-773840Y589498D02*
X-770508D01*
X-254335Y417997D02*
X-261000D01*
Y412998D01*
X-257668Y414664D01*
X-256002D01*
X-254335Y412998D01*
Y409666D01*
X-256002Y408000D01*
X-259334D01*
X-261000Y409666D01*
X565664Y78997D02*
X559000D01*
Y73998D01*
X562332D01*
X559000D01*
Y69000D01*
X-323172Y-262000D02*
X-318459Y-257288D01*
X-313746Y-257288D01*
X-313747Y-262000D01*
X-318459Y-266712D01*
X-314925Y-263178D01*
X-319637Y-258466D01*
X-309034Y-262000D02*
X-304321Y-266712D01*
X-306678Y-264356D01*
X-313746Y-271425D01*
X-301965Y-269069D02*
X-297253Y-273781D01*
X-299609Y-271425D01*
X-306678Y-278494D01*
X-296075Y-277316D02*
X-293718D01*
X-291362Y-279672D01*
X-291362Y-282028D01*
X-292540Y-283206D01*
X-294896D01*
X-296075Y-282028D01*
X-294896Y-283206D01*
Y-285563D01*
X-296075Y-286741D01*
X-298431Y-286741D01*
X-300787Y-284384D01*
Y-282028D01*
X129000Y-86172D02*
X124288Y-81459D01*
X124288Y-76747D01*
X129000Y-76747D01*
X133713Y-81459D01*
X130178Y-77925D01*
X125466Y-82637D01*
X136069Y-79103D02*
X129000Y-72034D01*
X133713Y-72034D01*
X133713Y-67322D01*
X140781Y-74390D01*
X143138Y-72034D02*
X136069Y-64965D01*
X139603Y-61431D01*
X141959Y-61431D01*
X144316Y-63787D01*
X144316Y-66143D01*
X140781Y-69678D01*
X143138Y-57896D02*
X147850Y-53184D01*
X149028Y-54362D01*
Y-63787D01*
X150206Y-64965D01*
X151384Y-52006D02*
Y-49650D01*
X153741Y-47293D01*
X156097Y-47293D01*
X160809Y-52006D01*
X160810Y-54362D01*
X158453Y-56718D01*
X156097D01*
X151384Y-52006D01*
X167878Y-47293D02*
X160810Y-40224D01*
Y-47293D01*
X165522Y-42581D01*
X-570000Y8000D02*
X-566668D01*
X-568334D01*
Y17997D01*
X-570000Y16331D01*
X-677500Y-197000D02*
Y-190336D01*
X-674168Y-187004D01*
X-670835Y-190336D01*
Y-197000D01*
Y-192002D01*
X-677500D01*
X-667503Y-187004D02*
X-660839D01*
X-664171D01*
Y-197000D01*
X-657506Y-187004D02*
X-650842D01*
X-654174D01*
Y-197000D01*
X-640845D02*
X-647510D01*
X-640845Y-190336D01*
Y-188670D01*
X-642511Y-187004D01*
X-645844D01*
X-647510Y-188670D01*
X-116000Y-155000D02*
X-125997D01*
X-122664Y-151668D01*
X-125997Y-148336D01*
X-116000D01*
X-125997Y-140005D02*
Y-143337D01*
X-124331Y-145003D01*
X-117666D01*
X-116000Y-143337D01*
Y-140005D01*
X-117666Y-138339D01*
X-124331D01*
X-125997Y-140005D01*
Y-135006D02*
Y-128342D01*
X-124331D01*
X-117666Y-135006D01*
X-116000D01*
X-124331Y-125010D02*
X-125997Y-123343D01*
Y-120011D01*
X-124331Y-118345D01*
X-117666D01*
X-116000Y-120011D01*
Y-123343D01*
X-117666Y-125010D01*
X-124331D01*
X-116000Y-110014D02*
X-125997D01*
X-120998Y-115013D01*
Y-108348D01*
X-400003Y280691D02*
X-408000D01*
Y274693D01*
X-404001D01*
X-408000D01*
Y268695D01*
X-396004Y280691D02*
Y268695D01*
X-390006D01*
X-388007Y270695D01*
Y278692D01*
X-390006Y280691D01*
X-396004D01*
X-408000Y259497D02*
X-406001Y261496D01*
X-402002D01*
X-400003Y259497D01*
Y257497D01*
X-402002Y255498D01*
X-404001D01*
X-402002D01*
X-400003Y253499D01*
Y251499D01*
X-402002Y249500D01*
X-406001D01*
X-408000Y251499D01*
X-396004Y249500D02*
Y251499D01*
X-394005D01*
Y249500D01*
X-396004D01*
X-386007Y259497D02*
X-384008Y261496D01*
X-380009D01*
X-378010Y259497D01*
Y257497D01*
X-380009Y255498D01*
X-382008D01*
X-380009D01*
X-378010Y253499D01*
Y251499D01*
X-380009Y249500D01*
X-384008D01*
X-386007Y251499D01*
X-374011Y261496D02*
Y253499D01*
X-370012Y249500D01*
X-366014Y253499D01*
Y261496D01*
X-5500Y477000D02*
Y486997D01*
X-502D01*
X1164Y485331D01*
Y481998D01*
X-502Y480332D01*
X-5500D01*
X-2168D02*
X1164Y477000D01*
X4497D02*
X9495D01*
X11161Y478666D01*
X9495Y480332D01*
X6163D01*
X4497Y481998D01*
X6163Y483665D01*
X11161D01*
X16160Y485331D02*
Y483665D01*
X14493D01*
X17826D01*
X16160D01*
Y478666D01*
X17826Y477000D01*
X342000Y268695D02*
Y280691D01*
X347998D01*
X349997Y278692D01*
Y274693D01*
X347998Y272694D01*
X342000D01*
X353996Y280691D02*
Y268695D01*
X359994D01*
X361994Y270695D01*
Y278692D01*
X359994Y280691D01*
X353996D01*
X365992Y278692D02*
X367992Y280691D01*
X371990D01*
X373990Y278692D01*
Y270695D01*
X371990Y268695D01*
X367992D01*
X365992Y270695D01*
Y278692D01*
X342000Y259497D02*
X343999Y261496D01*
X347998D01*
X349997Y259497D01*
Y257497D01*
X347998Y255498D01*
X345999D01*
X347998D01*
X349997Y253499D01*
Y251499D01*
X347998Y249500D01*
X343999D01*
X342000Y251499D01*
X353996Y249500D02*
Y251499D01*
X355995D01*
Y249500D01*
X353996D01*
X363993Y259497D02*
X365992Y261496D01*
X369991D01*
X371990Y259497D01*
Y257497D01*
X369991Y255498D01*
X367992D01*
X369991D01*
X371990Y253499D01*
Y251499D01*
X369991Y249500D01*
X365992D01*
X363993Y251499D01*
X375989Y261496D02*
Y253499D01*
X379988Y249500D01*
X383987Y253499D01*
Y261496D01*
X412000Y603793D02*
Y597128D01*
X415332Y593796D01*
X418665Y597128D01*
Y603793D01*
X421997Y598795D02*
X428661D01*
X425329Y602127D02*
Y595462D01*
X24000Y26997D02*
X30665D01*
X27332D01*
Y17000D01*
X265250Y397000D02*
Y406997D01*
X270248D01*
X271915Y405331D01*
Y401998D01*
X270248Y400332D01*
X265250D01*
X268582D02*
X271915Y397000D01*
X275247D02*
X278579D01*
X276913D01*
Y406997D01*
X275247Y405331D01*
X290242Y406997D02*
X286910Y405331D01*
X283577Y401998D01*
Y398666D01*
X285243Y397000D01*
X288576D01*
X290242Y398666D01*
Y400332D01*
X288576Y401998D01*
X283577D01*
X300239Y397000D02*
X293574D01*
X300239Y403665D01*
Y405331D01*
X298573Y406997D01*
X295240D01*
X293574Y405331D01*
X265000Y512097D02*
Y503766D01*
X266666Y502100D01*
X269998D01*
X271665Y503766D01*
Y512097D01*
X281661Y502100D02*
X274997D01*
X281661Y508764D01*
Y510430D01*
X279995Y512097D01*
X276663D01*
X274997Y510430D01*
X289992Y502100D02*
Y512097D01*
X284994Y507098D01*
X291658D01*
X-395000Y-32503D02*
Y-40834D01*
X-393334Y-42500D01*
X-390002D01*
X-388335Y-40834D01*
Y-32503D01*
X-378339D02*
X-385003D01*
Y-37502D01*
X-381671Y-35835D01*
X-380005D01*
X-378339Y-37502D01*
Y-40834D01*
X-380005Y-42500D01*
X-383337D01*
X-385003Y-40834D01*
X-265835Y-457370D02*
X-267502Y-455704D01*
X-270834D01*
X-272500Y-457370D01*
Y-464034D01*
X-270834Y-465700D01*
X-267502D01*
X-265835Y-464034D01*
X-262503Y-469033D02*
Y-459036D01*
X-257505D01*
X-255839Y-460702D01*
Y-464034D01*
X-257505Y-465700D01*
X-262503D01*
X-252506D02*
X-249174D01*
X-250840D01*
Y-455704D01*
X-252506D01*
X-244176Y-465700D02*
X-240844D01*
X-242510D01*
Y-455704D01*
X-244176Y-457370D01*
X271665Y495430D02*
X269998Y497097D01*
X266666D01*
X265000Y495430D01*
Y488766D01*
X266666Y487100D01*
X269998D01*
X271665Y488766D01*
X274997Y487100D02*
X278329D01*
X276663D01*
Y497097D01*
X274997Y495430D01*
X283328Y487100D02*
X286660D01*
X284994D01*
Y497097D01*
X283328Y495430D01*
X291658Y487100D02*
X294990D01*
X293324D01*
Y497097D01*
X291658Y495430D01*
X-145000Y552497D02*
Y544166D01*
X-143334Y542500D01*
X-140002D01*
X-138336Y544166D01*
Y552497D01*
X-128339Y542500D02*
X-135003D01*
X-128339Y549165D01*
Y550831D01*
X-130005Y552497D01*
X-133337D01*
X-135003Y550831D01*
X-315000Y482250D02*
X-324997D01*
Y487248D01*
X-323331Y488914D01*
X-319998D01*
X-318332Y487248D01*
Y482250D01*
Y485582D02*
X-315000Y488914D01*
Y492247D02*
Y495579D01*
Y493913D01*
X-324997D01*
X-323331Y492247D01*
X-324997Y507242D02*
Y500577D01*
X-319998D01*
X-321665Y503910D01*
Y505576D01*
X-319998Y507242D01*
X-316666D01*
X-315000Y505576D01*
Y502243D01*
X-316666Y500577D01*
X-170831Y496665D02*
X-172497Y494998D01*
Y491666D01*
X-170831Y490000D01*
X-164166D01*
X-162500Y491666D01*
Y494998D01*
X-164166Y496665D01*
X-162500Y504995D02*
X-172497D01*
X-167498Y499997D01*
Y506661D01*
X-162500Y509994D02*
Y513326D01*
Y511660D01*
X-172497D01*
X-170831Y509994D01*
X-449997Y572500D02*
X-440000D01*
Y577498D01*
X-441666Y579165D01*
X-443332D01*
X-444998Y577498D01*
Y572500D01*
Y577498D01*
X-446665Y579165D01*
X-448331D01*
X-449997Y577498D01*
Y572500D01*
Y582497D02*
X-440000D01*
Y589161D01*
Y592494D02*
X-449997D01*
X-446665Y595826D01*
X-449997Y599158D01*
X-440000D01*
X-449997Y602490D02*
Y609155D01*
X-448331D01*
X-441666Y602490D01*
X-440000D01*
X-155000Y604997D02*
Y595000D01*
X-150002D01*
X-148336Y596666D01*
Y598332D01*
X-150002Y599998D01*
X-155000D01*
X-150002D01*
X-148336Y601665D01*
Y603331D01*
X-150002Y604997D01*
X-155000D01*
X-145003D02*
Y595000D01*
X-138339D01*
X-135006D02*
Y604997D01*
X-131674Y601665D01*
X-128342Y604997D01*
Y595000D01*
X-118345D02*
X-125010D01*
X-118345Y601665D01*
Y603331D01*
X-120011Y604997D01*
X-123343D01*
X-125010Y603331D01*
X-435000Y-357500D02*
Y-350835D01*
X-431668Y-347503D01*
X-428335Y-350835D01*
Y-357500D01*
Y-352502D01*
X-435000D01*
X-423337Y-349169D02*
Y-350835D01*
X-425003D01*
X-421671D01*
X-423337D01*
Y-355834D01*
X-421671Y-357500D01*
X-415006Y-349169D02*
Y-350835D01*
X-416673D01*
X-413340D01*
X-415006D01*
Y-355834D01*
X-413340Y-357500D01*
X-401677Y-347503D02*
X-408342D01*
Y-352502D01*
X-405010Y-350835D01*
X-403344D01*
X-401677Y-352502D01*
Y-355834D01*
X-403344Y-357500D01*
X-406676D01*
X-408342Y-355834D01*
X-130000Y76997D02*
Y67000D01*
X-123336D01*
X-120003D02*
Y76997D01*
X-115005D01*
X-113339Y75331D01*
Y71998D01*
X-115005Y70332D01*
X-120003D01*
X-103342Y76997D02*
X-110006D01*
Y71998D01*
X-106674D01*
X-110006D01*
Y67000D01*
X-93345D02*
X-100010D01*
X-93345Y73664D01*
Y75331D01*
X-95011Y76997D01*
X-98343D01*
X-100010Y75331D01*
X-400000Y499997D02*
Y491666D01*
X-398334Y490000D01*
X-395002D01*
X-393335Y491666D01*
Y499997D01*
X-385005Y490000D02*
Y499997D01*
X-390003Y494998D01*
X-383339D01*
X161665Y613331D02*
X159998Y614997D01*
X156666D01*
X155000Y613331D01*
Y606666D01*
X156666Y605000D01*
X159998D01*
X161665Y606666D01*
X164997Y613331D02*
X166663Y614997D01*
X169995D01*
X171661Y613331D01*
Y611665D01*
X169995Y609998D01*
X171661Y608332D01*
Y606666D01*
X169995Y605000D01*
X166663D01*
X164997Y606666D01*
Y608332D01*
X166663Y609998D01*
X164997Y611665D01*
Y613331D01*
X166663Y609998D02*
X169995D01*
X174994Y613331D02*
X176660Y614997D01*
X179992D01*
X181658Y613331D01*
Y606666D01*
X179992Y605000D01*
X176660D01*
X174994Y606666D01*
Y613331D01*
X-200000Y472497D02*
Y464166D01*
X-198334Y462500D01*
X-195002D01*
X-193335Y464166D01*
Y472497D01*
X-190003Y470831D02*
X-188337Y472497D01*
X-185005D01*
X-183339Y470831D01*
Y469165D01*
X-185005Y467498D01*
X-186671D01*
X-185005D01*
X-183339Y465832D01*
Y464166D01*
X-185005Y462500D01*
X-188337D01*
X-190003Y464166D01*
X315000Y512097D02*
Y503766D01*
X316666Y502100D01*
X319998D01*
X321665Y503766D01*
Y512097D01*
X331661Y502100D02*
X324997D01*
X331661Y508764D01*
Y510430D01*
X329995Y512097D01*
X326663D01*
X324997Y510430D01*
X341658Y512097D02*
X338326Y510430D01*
X334994Y507098D01*
Y503766D01*
X336660Y502100D01*
X339992D01*
X341658Y503766D01*
Y505432D01*
X339992Y507098D01*
X334994D01*
X321665Y495430D02*
X319998Y497097D01*
X316666D01*
X315000Y495430D01*
Y488766D01*
X316666Y487100D01*
X319998D01*
X321665Y488766D01*
X324997Y487100D02*
X328329D01*
X326663D01*
Y497097D01*
X324997Y495430D01*
X333327Y487100D02*
X336660D01*
X334994D01*
Y497097D01*
X333327Y495430D01*
X341658D02*
X343324Y497097D01*
X346656D01*
X348323Y495430D01*
Y493764D01*
X346656Y492098D01*
X344990D01*
X346656D01*
X348323Y490432D01*
Y488766D01*
X346656Y487100D01*
X343324D01*
X341658Y488766D01*
X-40000Y604997D02*
X-33335Y595000D01*
Y604997D02*
X-40000Y595000D01*
X-30003D02*
X-26671D01*
X-28337D01*
Y604997D01*
X-30003Y603331D01*
X60000Y482097D02*
Y473766D01*
X61666Y472100D01*
X64998D01*
X66665Y473766D01*
Y482097D01*
X76661Y472100D02*
X69997D01*
X76661Y478765D01*
Y480431D01*
X74995Y482097D01*
X71663D01*
X69997Y480431D01*
X86658Y482097D02*
X79994D01*
Y477099D01*
X83326Y478765D01*
X84992D01*
X86658Y477099D01*
Y473766D01*
X84992Y472100D01*
X81660D01*
X79994Y473766D01*
X192500Y509997D02*
Y501666D01*
X194166Y500000D01*
X197498D01*
X199165Y501666D01*
Y509997D01*
X202497Y500000D02*
X205829D01*
X204163D01*
Y509997D01*
X202497Y508331D01*
X210827Y509997D02*
X217492D01*
Y508331D01*
X210827Y501666D01*
Y500000D01*
X147500Y434200D02*
Y444196D01*
X152498D01*
X154164Y442530D01*
Y439198D01*
X152498Y437532D01*
X147500D01*
X150832D02*
X154164Y434200D01*
X164161Y444196D02*
X160829Y442530D01*
X157497Y439198D01*
Y435866D01*
X159163Y434200D01*
X162495D01*
X164161Y435866D01*
Y437532D01*
X162495Y439198D01*
X157497D01*
X167494Y442530D02*
X169160Y444196D01*
X172492D01*
X174158Y442530D01*
Y440864D01*
X172492Y439198D01*
X174158Y437532D01*
Y435866D01*
X172492Y434200D01*
X169160D01*
X167494Y435866D01*
Y437532D01*
X169160Y439198D01*
X167494Y440864D01*
Y442530D01*
X169160Y439198D02*
X172492D01*
X161665Y598331D02*
X159998Y599997D01*
X156666D01*
X155000Y598331D01*
Y591666D01*
X156666Y590000D01*
X159998D01*
X161665Y591666D01*
X164997Y599997D02*
X171661D01*
Y598331D01*
X164997Y591666D01*
Y590000D01*
X174994Y591666D02*
X176660Y590000D01*
X179992D01*
X181658Y591666D01*
Y598331D01*
X179992Y599997D01*
X176660D01*
X174994Y598331D01*
Y596665D01*
X176660Y594998D01*
X181658D01*
X749500Y52100D02*
X739503D01*
Y57098D01*
X741169Y58765D01*
X744502D01*
X746168Y57098D01*
Y52100D01*
Y55432D02*
X749500Y58765D01*
X739503Y68761D02*
X741169Y65429D01*
X744502Y62097D01*
X747834D01*
X749500Y63763D01*
Y67095D01*
X747834Y68761D01*
X746168D01*
X744502Y67095D01*
Y62097D01*
X749500Y77092D02*
X739503D01*
X744502Y72094D01*
Y78758D01*
X733875Y52100D02*
X723878D01*
Y57098D01*
X725544Y58765D01*
X728877D01*
X730543Y57098D01*
Y52100D01*
Y55432D02*
X733875Y58765D01*
X723878Y68761D02*
X725544Y65429D01*
X728877Y62097D01*
X732209D01*
X733875Y63763D01*
Y67095D01*
X732209Y68761D01*
X730543D01*
X728877Y67095D01*
Y62097D01*
X725544Y72094D02*
X723878Y73760D01*
Y77092D01*
X725544Y78758D01*
X727210D01*
X728877Y77092D01*
Y75426D01*
Y77092D01*
X730543Y78758D01*
X732209D01*
X733875Y77092D01*
Y73760D01*
X732209Y72094D01*
X-300835Y458331D02*
X-302502Y459997D01*
X-305834D01*
X-307500Y458331D01*
Y451666D01*
X-305834Y450000D01*
X-302502D01*
X-300835Y451666D01*
X-297503Y458331D02*
X-295837Y459997D01*
X-292505D01*
X-290839Y458331D01*
Y456665D01*
X-292505Y454998D01*
X-294171D01*
X-292505D01*
X-290839Y453332D01*
Y451666D01*
X-292505Y450000D01*
X-295837D01*
X-297503Y451666D01*
X-287506D02*
X-285840Y450000D01*
X-282508D01*
X-280842Y451666D01*
Y458331D01*
X-282508Y459997D01*
X-285840D01*
X-287506Y458331D01*
Y456665D01*
X-285840Y454998D01*
X-280842D01*
X-405835Y563331D02*
X-407502Y564997D01*
X-410834D01*
X-412500Y563331D01*
Y556666D01*
X-410834Y555000D01*
X-407502D01*
X-405835Y556666D01*
X-395839Y564997D02*
X-402503D01*
Y559998D01*
X-399171Y561665D01*
X-397505D01*
X-395839Y559998D01*
Y556666D01*
X-397505Y555000D01*
X-400837D01*
X-402503Y556666D01*
X-392506Y555000D02*
X-389174D01*
X-390840D01*
Y564997D01*
X-392506Y563331D01*
X198003Y-209000D02*
X208000D01*
Y-202335D01*
Y-199003D02*
X198003D01*
Y-194005D01*
X199669Y-192339D01*
X203002D01*
X204668Y-194005D01*
Y-199003D01*
X198003Y-182342D02*
Y-189006D01*
X203002D01*
Y-185674D01*
Y-189006D01*
X208000D01*
Y-174011D02*
X198003D01*
X203002Y-179010D01*
Y-172345D01*
X426665Y54831D02*
X424998Y56497D01*
X421666D01*
X420000Y54831D01*
Y48166D01*
X421666Y46500D01*
X424998D01*
X426665Y48166D01*
X436661Y56497D02*
X429997D01*
Y51498D01*
X433329Y53165D01*
X434995D01*
X436661Y51498D01*
Y48166D01*
X434995Y46500D01*
X431663D01*
X429997Y48166D01*
X-753335Y-341669D02*
X-755002Y-340003D01*
X-758334D01*
X-760000Y-341669D01*
Y-343335D01*
X-758334Y-345002D01*
X-755002D01*
X-753335Y-346668D01*
Y-348334D01*
X-755002Y-350000D01*
X-758334D01*
X-760000Y-348334D01*
X-750003Y-353332D02*
Y-343335D01*
X-745005D01*
X-743339Y-345002D01*
Y-348334D01*
X-745005Y-350000D01*
X-750003D01*
X-740006D02*
X-736674D01*
X-738340D01*
Y-340003D01*
X-740006D01*
X-730010Y-341669D02*
Y-343335D01*
X-731676D01*
X-728344D01*
X-730010D01*
Y-348334D01*
X-728344Y-350000D01*
X-723345D02*
X-720013D01*
X-721679D01*
Y-340003D01*
X-723345Y-341669D01*
X323000Y-361000D02*
Y-351003D01*
X327998D01*
X329664Y-352669D01*
Y-356002D01*
X327998Y-357668D01*
X323000D01*
X339661Y-352669D02*
X337995Y-351003D01*
X334663D01*
X332997Y-352669D01*
Y-354336D01*
X334663Y-356002D01*
X337995D01*
X339661Y-357668D01*
Y-359334D01*
X337995Y-361000D01*
X334663D01*
X332997Y-359334D01*
X342994Y-352669D02*
X344660Y-351003D01*
X347992D01*
X349658Y-352669D01*
Y-354336D01*
X347992Y-356002D01*
X346326D01*
X347992D01*
X349658Y-357668D01*
Y-359334D01*
X347992Y-361000D01*
X344660D01*
X342994Y-359334D01*
X359655Y-351003D02*
X352990D01*
Y-356002D01*
X356323Y-354336D01*
X357989D01*
X359655Y-356002D01*
Y-359334D01*
X357989Y-361000D01*
X354656D01*
X352990Y-359334D01*
X369652Y-361000D02*
X362987D01*
X369652Y-354336D01*
Y-352669D01*
X367985Y-351003D01*
X364653D01*
X362987Y-352669D01*
X167003Y-209000D02*
X177000D01*
X172002D01*
Y-202335D01*
X167003D01*
X177000D01*
Y-199003D02*
X167003D01*
Y-194005D01*
X168669Y-192339D01*
X172002D01*
X173668Y-194005D01*
Y-199003D01*
X167003Y-182342D02*
Y-189007D01*
X172002D01*
Y-185674D01*
Y-189007D01*
X177000D01*
Y-172345D02*
Y-179010D01*
X170336Y-172345D01*
X168669D01*
X167003Y-174011D01*
Y-177344D01*
X168669Y-179010D01*
X143665Y-346669D02*
X141998Y-345003D01*
X138666D01*
X137000Y-346669D01*
Y-348335D01*
X138666Y-350002D01*
X141998D01*
X143665Y-351668D01*
Y-353334D01*
X141998Y-355000D01*
X138666D01*
X137000Y-353334D01*
X146997Y-358332D02*
Y-348335D01*
X151995D01*
X153661Y-350002D01*
Y-353334D01*
X151995Y-355000D01*
X146997D01*
X156994D02*
X160326D01*
X158660D01*
Y-345003D01*
X156994D01*
X166990Y-346669D02*
Y-348335D01*
X165324D01*
X168657D01*
X166990D01*
Y-353334D01*
X168657Y-355000D01*
X173655Y-346669D02*
X175321Y-345003D01*
X178653D01*
X180319Y-346669D01*
Y-348335D01*
X178653Y-350002D01*
X176987D01*
X178653D01*
X180319Y-351668D01*
Y-353334D01*
X178653Y-355000D01*
X175321D01*
X173655Y-353334D01*
X734747Y-51003D02*
Y-59334D01*
X736413Y-61000D01*
X739745D01*
X741411Y-59334D01*
Y-51003D01*
X744744D02*
X751408D01*
Y-52669D01*
X744744Y-59334D01*
Y-61000D01*
X702625Y52100D02*
X692628D01*
Y57098D01*
X694294Y58765D01*
X697627D01*
X699293Y57098D01*
Y52100D01*
Y55432D02*
X702625Y58765D01*
X692628Y68761D02*
X694294Y65429D01*
X697627Y62097D01*
X700959D01*
X702625Y63763D01*
Y67095D01*
X700959Y68761D01*
X699293D01*
X697627Y67095D01*
Y62097D01*
X702625Y78758D02*
Y72094D01*
X695960Y78758D01*
X694294D01*
X692628Y77092D01*
Y73760D01*
X694294Y72094D01*
X728082Y14000D02*
Y23997D01*
X733081D01*
X734747Y22331D01*
Y18998D01*
X733081Y17332D01*
X728082D01*
X731415D02*
X734747Y14000D01*
X744744Y23997D02*
X741411Y22331D01*
X738079Y18998D01*
Y15666D01*
X739745Y14000D01*
X743077D01*
X744744Y15666D01*
Y17332D01*
X743077Y18998D01*
X738079D01*
X748076Y14000D02*
X751408D01*
X749742D01*
Y23997D01*
X748076Y22331D01*
X687000Y52100D02*
X677003D01*
Y57098D01*
X678669Y58765D01*
X682002D01*
X683668Y57098D01*
Y52100D01*
Y55432D02*
X687000Y58765D01*
X677003Y68761D02*
X678669Y65429D01*
X682002Y62097D01*
X685334D01*
X687000Y63763D01*
Y67095D01*
X685334Y68761D01*
X683668D01*
X682002Y67095D01*
Y62097D01*
X678669Y72094D02*
X677003Y73760D01*
Y77092D01*
X678669Y78758D01*
X685334D01*
X687000Y77092D01*
Y73760D01*
X685334Y72094D01*
X678669D01*
X657000Y52500D02*
X647003D01*
Y57498D01*
X648669Y59165D01*
X652002D01*
X653668Y57498D01*
Y52500D01*
Y55832D02*
X657000Y59165D01*
X647003Y69161D02*
Y62497D01*
X652002D01*
X650335Y65829D01*
Y67495D01*
X652002Y69161D01*
X655334D01*
X657000Y67495D01*
Y64163D01*
X655334Y62497D01*
Y72494D02*
X657000Y74160D01*
Y77492D01*
X655334Y79158D01*
X648669D01*
X647003Y77492D01*
Y74160D01*
X648669Y72494D01*
X650335D01*
X652002Y74160D01*
Y79158D01*
X642000Y52500D02*
X632003D01*
Y57498D01*
X633669Y59165D01*
X637002D01*
X638668Y57498D01*
Y52500D01*
Y55832D02*
X642000Y59165D01*
X632003Y69161D02*
Y62497D01*
X637002D01*
X635336Y65829D01*
Y67495D01*
X637002Y69161D01*
X640334D01*
X642000Y67495D01*
Y64163D01*
X640334Y62497D01*
X633669Y72494D02*
X632003Y74160D01*
Y77492D01*
X633669Y79158D01*
X635336D01*
X637002Y77492D01*
X638668Y79158D01*
X640334D01*
X642000Y77492D01*
Y74160D01*
X640334Y72494D01*
X638668D01*
X637002Y74160D01*
X635336Y72494D01*
X633669D01*
X637002Y74160D02*
Y77492D01*
X-412500Y540000D02*
Y549997D01*
X-407502D01*
X-405835Y548331D01*
Y544998D01*
X-407502Y543332D01*
X-412500D01*
X-409168D02*
X-405835Y540000D01*
X-395839D02*
X-402503D01*
X-395839Y546665D01*
Y548331D01*
X-397505Y549997D01*
X-400837D01*
X-402503Y548331D01*
X-392506D02*
X-390840Y549997D01*
X-387508D01*
X-385842Y548331D01*
Y546665D01*
X-387508Y544998D01*
X-389174D01*
X-387508D01*
X-385842Y543332D01*
Y541666D01*
X-387508Y540000D01*
X-390840D01*
X-392506Y541666D01*
X731415Y-7569D02*
X729749Y-5903D01*
X726416D01*
X724750Y-7569D01*
Y-14234D01*
X726416Y-15900D01*
X729749D01*
X731415Y-14234D01*
X734747Y-5903D02*
X741411D01*
Y-7569D01*
X734747Y-14234D01*
Y-15900D01*
X751408Y-5903D02*
X744744D01*
Y-10901D01*
X748076Y-9235D01*
X749742D01*
X751408Y-10901D01*
Y-14234D01*
X749742Y-15900D01*
X746410D01*
X744744Y-14234D01*
X731415Y7431D02*
X729749Y9097D01*
X726416D01*
X724750Y7431D01*
Y766D01*
X726416Y-900D01*
X729749D01*
X731415Y766D01*
X734747Y9097D02*
X741411D01*
Y7431D01*
X734747Y766D01*
Y-900D01*
X749742D02*
Y9097D01*
X744744Y4099D01*
X751408D01*
X709919Y58565D02*
X708253Y56898D01*
Y53566D01*
X709919Y51900D01*
X716584D01*
X718250Y53566D01*
Y56898D01*
X716584Y58565D01*
X708253Y61897D02*
Y68561D01*
X709919D01*
X716584Y61897D01*
X718250D01*
X709919Y71894D02*
X708253Y73560D01*
Y76892D01*
X709919Y78558D01*
X711585D01*
X713252Y76892D01*
Y75226D01*
Y76892D01*
X714918Y78558D01*
X716584D01*
X718250Y76892D01*
Y73560D01*
X716584Y71894D01*
X731415Y-22569D02*
X729749Y-20903D01*
X726416D01*
X724750Y-22569D01*
Y-29234D01*
X726416Y-30900D01*
X729749D01*
X731415Y-29234D01*
X734747Y-20903D02*
X741411D01*
Y-22569D01*
X734747Y-29234D01*
Y-30900D01*
X751408D02*
X744744D01*
X751408Y-24235D01*
Y-22569D01*
X749742Y-20903D01*
X746410D01*
X744744Y-22569D01*
X734747Y-37669D02*
X733081Y-36003D01*
X729749D01*
X728082Y-37669D01*
Y-44334D01*
X729749Y-46000D01*
X733081D01*
X734747Y-44334D01*
X738079Y-36003D02*
X744744D01*
Y-37669D01*
X738079Y-44334D01*
Y-46000D01*
X748076D02*
X751408D01*
X749742D01*
Y-36003D01*
X748076Y-37669D01*
X663669Y59165D02*
X662003Y57498D01*
Y54166D01*
X663669Y52500D01*
X670334D01*
X672000Y54166D01*
Y57498D01*
X670334Y59165D01*
X662003Y62497D02*
Y69161D01*
X663669D01*
X670334Y62497D01*
X672000D01*
X663669Y72494D02*
X662003Y74160D01*
Y77492D01*
X663669Y79158D01*
X670334D01*
X672000Y77492D01*
Y74160D01*
X670334Y72494D01*
X663669D01*
X654669Y-61336D02*
X653003Y-63002D01*
Y-66334D01*
X654669Y-68000D01*
X661334D01*
X663000Y-66334D01*
Y-63002D01*
X661334Y-61336D01*
X653003Y-51339D02*
X654669Y-54671D01*
X658002Y-58003D01*
X661334D01*
X663000Y-56337D01*
Y-53005D01*
X661334Y-51339D01*
X659668D01*
X658002Y-53005D01*
Y-58003D01*
X661334Y-48006D02*
X663000Y-46340D01*
Y-43008D01*
X661334Y-41342D01*
X654669D01*
X653003Y-43008D01*
Y-46340D01*
X654669Y-48006D01*
X656336D01*
X658002Y-46340D01*
Y-41342D01*
X637669Y-61336D02*
X636003Y-63002D01*
Y-66334D01*
X637669Y-68000D01*
X644334D01*
X646000Y-66334D01*
Y-63002D01*
X644334Y-61336D01*
X636003Y-51339D02*
X637669Y-54671D01*
X641002Y-58003D01*
X644334D01*
X646000Y-56337D01*
Y-53005D01*
X644334Y-51339D01*
X642668D01*
X641002Y-53005D01*
Y-58003D01*
X637669Y-48006D02*
X636003Y-46340D01*
Y-43008D01*
X637669Y-41342D01*
X639336D01*
X641002Y-43008D01*
X642668Y-41342D01*
X644334D01*
X646000Y-43008D01*
Y-46340D01*
X644334Y-48006D01*
X642668D01*
X641002Y-46340D01*
X639336Y-48006D01*
X637669D01*
X641002Y-46340D02*
Y-43008D01*
X-468331Y589165D02*
X-469997Y587498D01*
Y584166D01*
X-468331Y582500D01*
X-461666D01*
X-460000Y584166D01*
Y587498D01*
X-461666Y589165D01*
X-469997Y599161D02*
Y592497D01*
X-464998D01*
X-466665Y595829D01*
Y597495D01*
X-464998Y599161D01*
X-461666D01*
X-460000Y597495D01*
Y594163D01*
X-461666Y592497D01*
X-468331Y602494D02*
X-469997Y604160D01*
Y607492D01*
X-468331Y609158D01*
X-461666D01*
X-460000Y607492D01*
Y604160D01*
X-461666Y602494D01*
X-468331D01*
X-488331Y589165D02*
X-489997Y587498D01*
Y584166D01*
X-488331Y582500D01*
X-481666D01*
X-480000Y584166D01*
Y587498D01*
X-481666Y589165D01*
X-480000Y597495D02*
X-489997D01*
X-484998Y592497D01*
Y599161D01*
X-481666Y602494D02*
X-480000Y604160D01*
Y607492D01*
X-481666Y609158D01*
X-488331D01*
X-489997Y607492D01*
Y604160D01*
X-488331Y602494D01*
X-486665D01*
X-484998Y604160D01*
Y609158D01*
X-515835Y525831D02*
X-517502Y527497D01*
X-520834D01*
X-522500Y525831D01*
Y519166D01*
X-520834Y517500D01*
X-517502D01*
X-515835Y519166D01*
X-507505Y517500D02*
Y527497D01*
X-512503Y522498D01*
X-505839D01*
X-502506Y525831D02*
X-500840Y527497D01*
X-497508D01*
X-495842Y525831D01*
Y524165D01*
X-497508Y522498D01*
X-495842Y520832D01*
Y519166D01*
X-497508Y517500D01*
X-500840D01*
X-502506Y519166D01*
Y520832D01*
X-500840Y522498D01*
X-502506Y524165D01*
Y525831D01*
X-500840Y522498D02*
X-497508D01*
X-528335Y480831D02*
X-530002Y482497D01*
X-533334D01*
X-535000Y480831D01*
Y474166D01*
X-533334Y472500D01*
X-530002D01*
X-528335Y474166D01*
X-520005Y472500D02*
Y482497D01*
X-525003Y477498D01*
X-518339D01*
X-515006Y482497D02*
X-508342D01*
Y480831D01*
X-515006Y474166D01*
Y472500D01*
X-515835Y508331D02*
X-517502Y509997D01*
X-520834D01*
X-522500Y508331D01*
Y501666D01*
X-520834Y500000D01*
X-517502D01*
X-515835Y501666D01*
X-507505Y500000D02*
Y509997D01*
X-512503Y504998D01*
X-505839D01*
X-495842Y509997D02*
X-499174Y508331D01*
X-502506Y504998D01*
Y501666D01*
X-500840Y500000D01*
X-497508D01*
X-495842Y501666D01*
Y503332D01*
X-497508Y504998D01*
X-502506D01*
X-188331Y496665D02*
X-189997Y494998D01*
Y491666D01*
X-188331Y490000D01*
X-181666D01*
X-180000Y491666D01*
Y494998D01*
X-181666Y496665D01*
X-180000Y504995D02*
X-189997D01*
X-184998Y499997D01*
Y506661D01*
X-180000Y516658D02*
Y509994D01*
X-186665Y516658D01*
X-188331D01*
X-189997Y514992D01*
Y511660D01*
X-188331Y509994D01*
X-143331Y566665D02*
X-144997Y564998D01*
Y561666D01*
X-143331Y560000D01*
X-136666D01*
X-135000Y561666D01*
Y564998D01*
X-136666Y566665D01*
X-143331Y569997D02*
X-144997Y571663D01*
Y574995D01*
X-143331Y576661D01*
X-141664D01*
X-139998Y574995D01*
Y573329D01*
Y574995D01*
X-138332Y576661D01*
X-136666D01*
X-135000Y574995D01*
Y571663D01*
X-136666Y569997D01*
X-144997Y586658D02*
X-143331Y583326D01*
X-139998Y579994D01*
X-136666D01*
X-135000Y581660D01*
Y584992D01*
X-136666Y586658D01*
X-138332D01*
X-139998Y584992D01*
Y579994D01*
X-125831Y566665D02*
X-127497Y564998D01*
Y561666D01*
X-125831Y560000D01*
X-119166D01*
X-117500Y561666D01*
Y564998D01*
X-119166Y566665D01*
X-125831Y569997D02*
X-127497Y571663D01*
Y574995D01*
X-125831Y576661D01*
X-124164D01*
X-122498Y574995D01*
Y573329D01*
Y574995D01*
X-120832Y576661D01*
X-119166D01*
X-117500Y574995D01*
Y571663D01*
X-119166Y569997D01*
X-127497Y586658D02*
Y579994D01*
X-122498D01*
X-124164Y583326D01*
Y584992D01*
X-122498Y586658D01*
X-119166D01*
X-117500Y584992D01*
Y581660D01*
X-119166Y579994D01*
X-265835Y458331D02*
X-267502Y459997D01*
X-270834D01*
X-272500Y458331D01*
Y451666D01*
X-270834Y450000D01*
X-267502D01*
X-265835Y451666D01*
X-257505Y450000D02*
Y459997D01*
X-262503Y454998D01*
X-255839D01*
X-252506Y458331D02*
X-250840Y459997D01*
X-247508D01*
X-245842Y458331D01*
Y451666D01*
X-247508Y450000D01*
X-250840D01*
X-252506Y451666D01*
Y458331D01*
X-323831Y456165D02*
X-325497Y454498D01*
Y451166D01*
X-323831Y449500D01*
X-317166D01*
X-315500Y451166D01*
Y454498D01*
X-317166Y456165D01*
X-315500Y466161D02*
Y459497D01*
X-322164Y466161D01*
X-323831D01*
X-325497Y464495D01*
Y461163D01*
X-323831Y459497D01*
X-315500Y476158D02*
Y469493D01*
X-322164Y476158D01*
X-323831D01*
X-325497Y474492D01*
Y471160D01*
X-323831Y469493D01*
X-342331Y455415D02*
X-343997Y453748D01*
Y450416D01*
X-342331Y448750D01*
X-335666D01*
X-334000Y450416D01*
Y453748D01*
X-335666Y455415D01*
X-334000Y465411D02*
Y458747D01*
X-340664Y465411D01*
X-342331D01*
X-343997Y463745D01*
Y460413D01*
X-342331Y458747D01*
X-334000Y468744D02*
Y472076D01*
Y470410D01*
X-343997D01*
X-342331Y468744D01*
X576000Y38597D02*
Y30266D01*
X577666Y28600D01*
X580998D01*
X582664Y30266D01*
Y38597D01*
X585997Y28600D02*
X589329D01*
X587663D01*
Y38597D01*
X585997Y36931D01*
X470000Y46500D02*
Y56497D01*
X474998D01*
X476665Y54831D01*
Y51498D01*
X474998Y49832D01*
X470000D01*
X473332D02*
X476665Y46500D01*
X484995D02*
Y56497D01*
X479997Y51498D01*
X486661D01*
X593000Y-78000D02*
X583003D01*
Y-73002D01*
X584669Y-71336D01*
X588002D01*
X589668Y-73002D01*
Y-78000D01*
Y-74668D02*
X593000Y-71336D01*
X584669Y-68003D02*
X583003Y-66337D01*
Y-63005D01*
X584669Y-61339D01*
X586335D01*
X588002Y-63005D01*
Y-64671D01*
Y-63005D01*
X589668Y-61339D01*
X591334D01*
X593000Y-63005D01*
Y-66337D01*
X591334Y-68003D01*
X445000Y46500D02*
Y56497D01*
X449998D01*
X451665Y54831D01*
Y51498D01*
X449998Y49832D01*
X445000D01*
X448332D02*
X451665Y46500D01*
X461661D02*
X454997D01*
X461661Y53165D01*
Y54831D01*
X459995Y56497D01*
X456663D01*
X454997Y54831D01*
X502500Y-77900D02*
X492503D01*
Y-72902D01*
X494169Y-71235D01*
X497502D01*
X499168Y-72902D01*
Y-77900D01*
Y-74568D02*
X502500Y-71235D01*
Y-67903D02*
Y-64571D01*
Y-66237D01*
X492503D01*
X494169Y-67903D01*
X501665Y54831D02*
X499998Y56497D01*
X496666D01*
X495000Y54831D01*
Y48166D01*
X496666Y46500D01*
X499998D01*
X501665Y48166D01*
X504997D02*
X506663Y46500D01*
X509995D01*
X511661Y48166D01*
Y54831D01*
X509995Y56497D01*
X506663D01*
X504997Y54831D01*
Y53165D01*
X506663Y51498D01*
X511661D01*
X586665Y-39569D02*
X584998Y-37903D01*
X581666D01*
X580000Y-39569D01*
Y-46234D01*
X581666Y-47900D01*
X584998D01*
X586665Y-46234D01*
X589997Y-39569D02*
X591663Y-37903D01*
X594995D01*
X596661Y-39569D01*
Y-41235D01*
X594995Y-42902D01*
X596661Y-44568D01*
Y-46234D01*
X594995Y-47900D01*
X591663D01*
X589997Y-46234D01*
Y-44568D01*
X591663Y-42902D01*
X589997Y-41235D01*
Y-39569D01*
X591663Y-42902D02*
X594995D01*
X564165Y-39569D02*
X562498Y-37903D01*
X559166D01*
X557500Y-39569D01*
Y-46234D01*
X559166Y-47900D01*
X562498D01*
X564165Y-46234D01*
X567497Y-37903D02*
X574161D01*
Y-39569D01*
X567497Y-46234D01*
Y-47900D01*
X521665Y-39569D02*
X519999Y-37903D01*
X516666D01*
X515000Y-39569D01*
Y-46234D01*
X516666Y-47900D01*
X519999D01*
X521665Y-46234D01*
X531661Y-37903D02*
X528329Y-39569D01*
X524997Y-42902D01*
Y-46234D01*
X526663Y-47900D01*
X529995D01*
X531661Y-46234D01*
Y-44568D01*
X529995Y-42902D01*
X524997D01*
X499165Y-39169D02*
X497498Y-37503D01*
X494166D01*
X492500Y-39169D01*
Y-45834D01*
X494166Y-47500D01*
X497498D01*
X499165Y-45834D01*
X507495Y-47500D02*
Y-37503D01*
X502497Y-42502D01*
X509161D01*
X469169Y-28335D02*
X467503Y-30002D01*
Y-33334D01*
X469169Y-35000D01*
X475834D01*
X477500Y-33334D01*
Y-30002D01*
X475834Y-28335D01*
X469169Y-25003D02*
X467503Y-23337D01*
Y-20005D01*
X469169Y-18339D01*
X470835D01*
X472502Y-20005D01*
Y-21671D01*
Y-20005D01*
X474168Y-18339D01*
X475834D01*
X477500Y-20005D01*
Y-23337D01*
X475834Y-25003D01*
X506669Y4164D02*
X505003Y2498D01*
Y-834D01*
X506669Y-2500D01*
X513334D01*
X515000Y-834D01*
Y2498D01*
X513334Y4164D01*
X515000Y14161D02*
Y7497D01*
X508335Y14161D01*
X506669D01*
X505003Y12495D01*
Y9163D01*
X506669Y7497D01*
X544165Y-39569D02*
X542498Y-37903D01*
X539166D01*
X537500Y-39569D01*
Y-46234D01*
X539166Y-47900D01*
X542498D01*
X544165Y-46234D01*
X547497Y-47900D02*
X550829D01*
X549163D01*
Y-37903D01*
X547497Y-39569D01*
X79000Y-194003D02*
Y-204000D01*
X85665D01*
X88997D02*
Y-194003D01*
X93995D01*
X95661Y-195669D01*
Y-199002D01*
X93995Y-200668D01*
X88997D01*
X105658Y-194003D02*
X98994D01*
Y-199002D01*
X102326D01*
X98994D01*
Y-204000D01*
X108990Y-195669D02*
X110656Y-194003D01*
X113989D01*
X115655Y-195669D01*
Y-197335D01*
X113989Y-199002D01*
X112323D01*
X113989D01*
X115655Y-200668D01*
Y-202334D01*
X113989Y-204000D01*
X110656D01*
X108990Y-202334D01*
X-12000Y-195003D02*
Y-205000D01*
Y-200002D01*
X-5336D01*
Y-195003D01*
Y-205000D01*
X-2003D02*
Y-195003D01*
X2995D01*
X4661Y-196669D01*
Y-200002D01*
X2995Y-201668D01*
X-2003D01*
X14658Y-195003D02*
X7994D01*
Y-200002D01*
X11326D01*
X7994D01*
Y-205000D01*
X17990Y-196669D02*
X19656Y-195003D01*
X22989D01*
X24655Y-196669D01*
Y-198335D01*
X22989Y-200002D01*
X21323D01*
X22989D01*
X24655Y-201668D01*
Y-203334D01*
X22989Y-205000D01*
X19656D01*
X17990Y-203334D01*
X-677500Y-220003D02*
Y-230000D01*
Y-225002D01*
X-670835D01*
Y-220003D01*
Y-230000D01*
X-667503D02*
Y-220003D01*
X-662505D01*
X-660839Y-221669D01*
Y-225002D01*
X-662505Y-226668D01*
X-667503D01*
X-650842Y-220003D02*
X-657506D01*
Y-225002D01*
X-654174D01*
X-657506D01*
Y-230000D01*
X-647510D02*
X-644177D01*
X-645844D01*
Y-220003D01*
X-647510Y-221669D01*
X-820000Y-220003D02*
Y-230000D01*
X-813335D01*
X-810003D02*
Y-220003D01*
X-805005D01*
X-803339Y-221669D01*
Y-225002D01*
X-805005Y-226668D01*
X-810003D01*
X-793342Y-220003D02*
X-800006D01*
Y-225002D01*
X-796674D01*
X-800006D01*
Y-230000D01*
X-790010D02*
X-786677D01*
X-788344D01*
Y-220003D01*
X-790010Y-221669D01*
X722664Y-316669D02*
X720998Y-315003D01*
X717666D01*
X716000Y-316669D01*
Y-318335D01*
X717666Y-320002D01*
X720998D01*
X722664Y-321668D01*
Y-323334D01*
X720998Y-325000D01*
X717666D01*
X716000Y-323334D01*
X725997Y-328332D02*
Y-318335D01*
X730995D01*
X732661Y-320002D01*
Y-323334D01*
X730995Y-325000D01*
X725997D01*
X735993D02*
X739326D01*
X737660D01*
Y-315003D01*
X735993D01*
X745990Y-316669D02*
Y-318335D01*
X744324D01*
X747656D01*
X745990D01*
Y-323334D01*
X747656Y-325000D01*
X757653D02*
Y-315003D01*
X752655Y-320002D01*
X759319D01*
X-183335Y-344169D02*
X-185002Y-342503D01*
X-188334D01*
X-190000Y-344169D01*
Y-345835D01*
X-188334Y-347502D01*
X-185002D01*
X-183335Y-349168D01*
Y-350834D01*
X-185002Y-352500D01*
X-188334D01*
X-190000Y-350834D01*
X-180003Y-355832D02*
Y-345835D01*
X-175005D01*
X-173339Y-347502D01*
Y-350834D01*
X-175005Y-352500D01*
X-180003D01*
X-170006D02*
X-166674D01*
X-168340D01*
Y-342503D01*
X-170006D01*
X-160010Y-344169D02*
Y-345835D01*
X-161676D01*
X-158343D01*
X-160010D01*
Y-350834D01*
X-158343Y-352500D01*
X-146681D02*
X-153345D01*
X-146681Y-345835D01*
Y-344169D01*
X-148347Y-342503D01*
X-151679D01*
X-153345Y-344169D01*
X-502000Y-364000D02*
Y-354003D01*
X-497002D01*
X-495336Y-355669D01*
Y-359002D01*
X-497002Y-360668D01*
X-502000D01*
X-485339Y-355669D02*
X-487005Y-354003D01*
X-490337D01*
X-492003Y-355669D01*
Y-357336D01*
X-490337Y-359002D01*
X-487005D01*
X-485339Y-360668D01*
Y-362334D01*
X-487005Y-364000D01*
X-490337D01*
X-492003Y-362334D01*
X-482006Y-354003D02*
X-475342D01*
Y-355669D01*
X-482006Y-362334D01*
Y-364000D01*
X-472010Y-355669D02*
X-470344Y-354003D01*
X-467011D01*
X-465345Y-355669D01*
Y-362334D01*
X-467011Y-364000D01*
X-470344D01*
X-472010Y-362334D01*
Y-355669D01*
X-457015Y-364000D02*
Y-354003D01*
X-462013Y-359002D01*
X-455348D01*
X694665Y-398669D02*
X692998Y-397003D01*
X689666D01*
X688000Y-398669D01*
Y-405334D01*
X689666Y-407000D01*
X692998D01*
X694665Y-405334D01*
X697997Y-410332D02*
Y-400336D01*
X702995D01*
X704661Y-402002D01*
Y-405334D01*
X702995Y-407000D01*
X697997D01*
X707994D02*
X711326D01*
X709660D01*
Y-397003D01*
X707994D01*
X722989Y-407000D02*
X716324D01*
X722989Y-400336D01*
Y-398669D01*
X721323Y-397003D01*
X717990D01*
X716324Y-398669D01*
X573000Y-339000D02*
Y-332336D01*
X576332Y-329003D01*
X579664Y-332336D01*
Y-339000D01*
Y-334002D01*
X573000D01*
X584663Y-330669D02*
Y-332336D01*
X582997D01*
X586329D01*
X584663D01*
Y-337334D01*
X586329Y-339000D01*
X592994Y-330669D02*
Y-332336D01*
X591327D01*
X594660D01*
X592994D01*
Y-337334D01*
X594660Y-339000D01*
X599658D02*
X602990D01*
X601324D01*
Y-329003D01*
X599658Y-330669D01*
X614653Y-329003D02*
X607989D01*
Y-334002D01*
X611321Y-332336D01*
X612987D01*
X614653Y-334002D01*
Y-337334D01*
X612987Y-339000D01*
X609655D01*
X607989Y-337334D01*
D12*
X267062Y530603D02*
G03*
X267062Y530603I-559J0D01*
G01*
X316309Y530600D02*
G03*
X316309Y530600I-559J0D01*
G01*
X-760000Y401200D02*
X-725000D01*
X-725000Y403700D02*
X-725000Y311200D01*
X-760000D02*
X-725000D01*
X-760000Y398700D02*
X-725000D01*
X-760000Y403700D02*
X-725000D01*
X-760000D02*
X-760000Y311200D01*
X-497750Y401105D02*
X-462750Y401105D01*
X-462750Y311105D02*
X-462750Y403605D01*
X-497750Y311105D02*
X-462750D01*
X-497750Y398605D02*
X-462750Y398605D01*
X-497750Y403605D02*
X-462750D01*
X-497750D02*
X-497750Y311105D01*
X-160000Y401200D02*
X-125000D01*
Y311200D02*
X-125000Y403700D01*
X-160000Y311200D02*
X-125000D01*
X-160000Y398700D02*
X-125000D01*
X-160000Y403700D02*
X-125000D01*
X-160000D02*
X-160000Y311200D01*
X102500Y401105D02*
X137500D01*
Y311105D02*
X137500Y403605D01*
X102500Y311105D02*
X137500D01*
X102500Y398605D02*
X137500D01*
X102500Y403605D02*
X137500D01*
X102500D02*
X102500Y311105D01*
X485000Y401105D02*
X520000D01*
Y311105D02*
X520000Y403605D01*
X485000Y311105D02*
X520000D01*
X485000Y398605D02*
X520000D01*
X485000Y403605D02*
X520000D01*
X485000D02*
X485000Y311105D01*
X745000Y401105D02*
X780000D01*
Y311105D02*
X780000Y403605D01*
X745000Y311105D02*
X780000D01*
X745000Y398605D02*
X780000D01*
X745000Y403605D02*
X780000D01*
X745000D02*
X745000Y311105D01*
X-337375Y-338250D02*
X-331025D01*
Y-331900D01*
X-407225Y-338250D02*
X-400875D01*
X-407225D02*
Y-331900D01*
Y-268400D02*
Y-262050D01*
X-400875D01*
X-337375D02*
X-331025D01*
Y-268400D02*
Y-262050D01*
X552625Y-338250D02*
X558975D01*
Y-331900D01*
X482775Y-338250D02*
X489125D01*
X482775D02*
Y-331900D01*
Y-268400D02*
Y-262050D01*
X489125D01*
X552625D02*
X558975D01*
Y-268400D02*
Y-262050D01*
X-474000Y548000D02*
X-456000Y548000D01*
X167157Y644585D02*
X162078D01*
X164618D01*
Y631889D01*
X162078Y629350D01*
X159539D01*
X157000Y631889D01*
X172235Y629350D02*
X177313D01*
X174774D01*
Y644585D01*
X172235Y642046D01*
D13*
X-195843Y-435653D02*
G03*
X-195843Y-435653I-1000J0D01*
G01*
X332250Y-150300D02*
G03*
X332250Y-150300I-1000J0D01*
G01*
X700002Y-435064D02*
G03*
X700002Y-435064I-1000J0D01*
G01*
X-704200Y-340400D02*
G03*
X-704200Y-340400I-1000J0D01*
G01*
X72900Y-422100D02*
G03*
X47500Y-396700I-25400J0D01*
G01*
Y-497500D02*
G03*
X72900Y-472100I0J25400D01*
G01*
X-100000Y-396700D02*
G03*
X-125400Y-422100I0J-25400D01*
G01*
Y-472100D02*
G03*
X-100000Y-497500I25400J0D01*
G01*
X-557250Y-150100D02*
G03*
X-557250Y-150100I-1000J0D01*
G01*
X-82500Y-396700D02*
X-77500D01*
X-60000D02*
X22500D01*
X-100000Y-497500D02*
X47500Y-497500D01*
X-125400Y-447100D02*
Y-422100D01*
X22500Y-396700D02*
X47500D01*
X-125400Y-472100D02*
Y-447100D01*
X72900D02*
Y-422100D01*
Y-472100D02*
Y-447100D01*
X-88730Y-422508D02*
X-72069D01*
X-80399D01*
Y-472492D01*
X-88730D01*
X-72069D01*
X-13754Y-430839D02*
X-22085Y-422508D01*
X-38746D01*
X-47077Y-430839D01*
Y-439170D01*
X-38746Y-447500D01*
X-22085D01*
X-13754Y-455831D01*
Y-464161D01*
X-22085Y-472492D01*
X-38746D01*
X-47077Y-464161D01*
X36230Y-422508D02*
X2907D01*
Y-472492D01*
X36230D01*
X2907Y-447500D02*
X19569D01*
D14*
X645600Y-308950D02*
G03*
X645600Y-308950I-1000J0D01*
G01*
X75975D02*
G03*
X75975Y-308950I-1000J0D01*
G01*
X-244400Y-308950D02*
G03*
X-244400Y-308950I-1000J0D01*
G01*
X336303Y424000D02*
G03*
X336303Y424000I-2500J0D01*
G01*
X90000Y-459008D02*
Y-439014D01*
X96664Y-445679D01*
X103329Y-439014D01*
Y-459008D01*
X109994Y-439014D02*
Y-459008D01*
X123323D01*
X90000Y-475006D02*
Y-495000D01*
X99997D01*
X103329Y-491668D01*
Y-478339D01*
X99997Y-475006D01*
X90000D01*
X123323Y-478339D02*
X119990Y-475006D01*
X113326D01*
X109994Y-478339D01*
Y-481671D01*
X113326Y-485003D01*
X119990D01*
X123323Y-488335D01*
Y-491668D01*
X119990Y-495000D01*
X113326D01*
X109994Y-491668D01*
D15*
X-671750Y562900D02*
G03*
X-671750Y562900I-3000J0D01*
G01*
Y472900D02*
G03*
X-671750Y472900I-3000J0D01*
G01*
X201253Y543603D02*
G03*
X201253Y543603I-3000J0D01*
G01*
D16*
X-339359Y-272393D02*
G03*
X-339359Y-272393I-2000J0D01*
G01*
X550641D02*
G03*
X550641Y-272393I-2000J0D01*
G01*
D17*
X525500Y-16750D02*
G03*
X525500Y-16750I-1000J0D01*
G01*
X352000Y16750D02*
G03*
X352000Y16750I-1000J0D01*
G01*
X-672750Y19500D02*
G03*
X-672750Y19500I-1000J0D01*
G01*
X-505750Y-16750D02*
G03*
X-505750Y-16750I-1000J0D01*
G01*
X-82000Y-16750D02*
G03*
X-82000Y-16750I-1000J0D01*
G01*
X-179993Y-417211D02*
X-169997D01*
Y-419710D01*
X-179993Y-429707D01*
Y-432206D01*
X-164998Y-419710D02*
X-162499Y-417211D01*
X-157501D01*
X-155002Y-419710D01*
Y-429707D01*
X-157501Y-432206D01*
X-162499D01*
X-164998Y-429707D01*
Y-419710D01*
X-142506Y-432206D02*
Y-417211D01*
X-150003Y-424708D01*
X-140006D01*
X-171246Y-442405D02*
X-166248D01*
X-168747D01*
Y-457400D01*
X-171246D01*
X-166248D01*
X-158750D02*
Y-442405D01*
X-148754Y-457400D01*
Y-442405D01*
X485006Y-419710D02*
X487506Y-417211D01*
X492504D01*
X495003Y-419710D01*
Y-422209D01*
X492504Y-424708D01*
X490005D01*
X492504D01*
X495003Y-427207D01*
Y-429707D01*
X492504Y-432206D01*
X487506D01*
X485006Y-429707D01*
X509998Y-417211D02*
X500002D01*
Y-424708D01*
X505000Y-422209D01*
X507499D01*
X509998Y-424708D01*
Y-429707D01*
X507499Y-432206D01*
X502501D01*
X500002Y-429707D01*
X524994Y-432206D02*
X514997D01*
X524994Y-422209D01*
Y-419710D01*
X522494Y-417211D01*
X517496D01*
X514997Y-419710D01*
X492504Y-442405D02*
X487506D01*
X485006Y-444904D01*
Y-454901D01*
X487506Y-457400D01*
X492504D01*
X495003Y-454901D01*
Y-444904D01*
X492504Y-442405D01*
X500002D02*
Y-454901D01*
X502501Y-457400D01*
X507499D01*
X509998Y-454901D01*
Y-442405D01*
X514997D02*
X524994D01*
X519995D01*
Y-457400D01*
X-404993Y-417211D02*
X-394997D01*
Y-419710D01*
X-404993Y-429707D01*
Y-432206D01*
X-389998Y-419710D02*
X-387499Y-417211D01*
X-382501D01*
X-380002Y-419710D01*
Y-429707D01*
X-382501Y-432206D01*
X-387499D01*
X-389998Y-429707D01*
Y-419710D01*
X-367506Y-432206D02*
Y-417211D01*
X-375003Y-424708D01*
X-365006D01*
X-397496Y-442405D02*
X-402494D01*
X-404993Y-444904D01*
Y-454901D01*
X-402494Y-457400D01*
X-397496D01*
X-394997Y-454901D01*
Y-444904D01*
X-397496Y-442405D01*
X-389998D02*
Y-454901D01*
X-387499Y-457400D01*
X-382501D01*
X-380002Y-454901D01*
Y-442405D01*
X-375003D02*
X-365006D01*
X-370005D01*
Y-457400D01*
X675500Y85100D02*
Y100095D01*
X682998D01*
X685497Y97596D01*
Y92598D01*
X682998Y90098D01*
X675500D01*
X690495Y100095D02*
Y85100D01*
X695494Y90098D01*
X700492Y85100D01*
Y100095D01*
X705490D02*
Y85100D01*
X712988D01*
X715487Y87599D01*
Y97596D01*
X712988Y100095D01*
X705490D01*
X720486Y97596D02*
X722985Y100095D01*
X727983D01*
X730482Y97596D01*
Y95097D01*
X727983Y92598D01*
X725484D01*
X727983D01*
X730482Y90098D01*
Y87599D01*
X727983Y85100D01*
X722985D01*
X720486Y87599D01*
X-620997Y-444904D02*
X-623496Y-442405D01*
X-628494D01*
X-630993Y-444904D01*
Y-447403D01*
X-628494Y-449902D01*
X-623496D01*
X-620997Y-452402D01*
Y-454901D01*
X-623496Y-457400D01*
X-628494D01*
X-630993Y-454901D01*
X-615998Y-442405D02*
X-606002D01*
X-611000D01*
Y-457400D01*
X-601003Y-442405D02*
Y-454901D01*
X-598504Y-457400D01*
X-593506D01*
X-591006Y-454901D01*
Y-442405D01*
X-586008D02*
Y-457400D01*
X-578511D01*
X-576011Y-454901D01*
Y-452402D01*
X-578511Y-449902D01*
X-586008D01*
X-578511D01*
X-576011Y-447403D01*
Y-444904D01*
X-578511Y-442405D01*
X-586008D01*
X-389503Y87995D02*
X-399500D01*
Y80498D01*
X-394502D01*
X-399500D01*
Y73000D01*
X-384505Y87995D02*
Y73000D01*
X-377007D01*
X-374508Y75499D01*
Y85496D01*
X-377007Y87995D01*
X-384505D01*
X-174000Y-81000D02*
Y-66005D01*
X-166502D01*
X-164003Y-68504D01*
Y-73502D01*
X-166502Y-76002D01*
X-174000D01*
X-159005Y-66005D02*
Y-81000D01*
X-154007Y-76002D01*
X-149008Y-81000D01*
Y-66005D01*
X-144010D02*
Y-81000D01*
X-136512D01*
X-134013Y-78501D01*
Y-68504D01*
X-136512Y-66005D01*
X-144010D01*
X-129015Y-68504D02*
X-126515Y-66005D01*
X-121517D01*
X-119018Y-68504D01*
Y-78501D01*
X-121517Y-81000D01*
X-126515D01*
X-129015Y-78501D01*
Y-68504D01*
X710006Y-419710D02*
X712506Y-417211D01*
X717504D01*
X720003Y-419710D01*
Y-422209D01*
X717504Y-424708D01*
X715005D01*
X717504D01*
X720003Y-427207D01*
Y-429707D01*
X717504Y-432206D01*
X712506D01*
X710006Y-429707D01*
X734998Y-417211D02*
X725002D01*
Y-424708D01*
X730000Y-422209D01*
X732499D01*
X734998Y-424708D01*
Y-429707D01*
X732499Y-432206D01*
X727501D01*
X725002Y-429707D01*
X749994Y-432206D02*
X739997D01*
X749994Y-422209D01*
Y-419710D01*
X747494Y-417211D01*
X742496D01*
X739997Y-419710D01*
X718754Y-442405D02*
X723752D01*
X721253D01*
Y-457400D01*
X718754D01*
X723752D01*
X731250D02*
Y-442405D01*
X741246Y-457400D01*
Y-442405D01*
X-560000Y55000D02*
Y69995D01*
X-552502D01*
X-550003Y67496D01*
Y62498D01*
X-552502Y59998D01*
X-560000D01*
X-545005Y69995D02*
Y55000D01*
X-537507D01*
X-535008Y57499D01*
Y67496D01*
X-537507Y69995D01*
X-545005D01*
X-520013Y55000D02*
X-530010D01*
X-520013Y64997D01*
Y67496D01*
X-522512Y69995D01*
X-527510D01*
X-530010Y67496D01*
X-669000Y55000D02*
Y69995D01*
X-661502D01*
X-659003Y67496D01*
Y62498D01*
X-661502Y59998D01*
X-669000D01*
X-654005Y69995D02*
Y55000D01*
X-646507D01*
X-644008Y57499D01*
Y67496D01*
X-646507Y69995D01*
X-654005D01*
X-631512Y55000D02*
Y69995D01*
X-639010Y62498D01*
X-629013D01*
X365498Y-64900D02*
Y-49905D01*
X372995D01*
X375494Y-52404D01*
Y-57402D01*
X372995Y-59901D01*
X365498D01*
X380493Y-49905D02*
Y-64900D01*
X387990D01*
X390490Y-62401D01*
Y-52404D01*
X387990Y-49905D01*
X380493D01*
X395488Y-52404D02*
X397987Y-49905D01*
X402985D01*
X405485Y-52404D01*
Y-62401D01*
X402985Y-64900D01*
X397987D01*
X395488Y-62401D01*
Y-52404D01*
X193000Y55100D02*
Y70095D01*
X200498D01*
X202997Y67596D01*
Y62598D01*
X200498Y60099D01*
X193000D01*
X207995Y70095D02*
Y55100D01*
X212994Y60099D01*
X217992Y55100D01*
Y70095D01*
X222990D02*
Y55100D01*
X230488D01*
X232987Y57599D01*
Y67596D01*
X230488Y70095D01*
X222990D01*
X237985Y55100D02*
X242984D01*
X240485D01*
Y70095D01*
X237985Y67596D01*
X435498Y-7000D02*
Y7995D01*
X442995D01*
X445494Y5496D01*
Y498D01*
X442995Y-2002D01*
X435498D01*
X450493Y7995D02*
Y-7000D01*
X457990D01*
X460490Y-4501D01*
Y5496D01*
X457990Y7995D01*
X450493D01*
X465488Y5496D02*
X467987Y7995D01*
X472985D01*
X475485Y5496D01*
Y2997D01*
X472985Y498D01*
X470486D01*
X472985D01*
X475485Y-2002D01*
Y-4501D01*
X472985Y-7000D01*
X467987D01*
X465488Y-4501D01*
X65500Y55100D02*
Y70095D01*
X72998D01*
X75497Y67596D01*
Y62598D01*
X72998Y60099D01*
X65500D01*
X80495Y70095D02*
Y55100D01*
X85494Y60099D01*
X90492Y55100D01*
Y70095D01*
X95490D02*
Y55100D01*
X102988D01*
X105487Y57599D01*
Y67596D01*
X102988Y70095D01*
X95490D01*
X120482Y55100D02*
X110485D01*
X120482Y65097D01*
Y67596D01*
X117983Y70095D01*
X112985D01*
X110485Y67596D01*
X-32000Y-47400D02*
Y-32405D01*
X-24502D01*
X-22003Y-34904D01*
Y-39902D01*
X-24502Y-42401D01*
X-32000D01*
X-17005Y-32405D02*
Y-47400D01*
X-9507D01*
X-7008Y-44901D01*
Y-34904D01*
X-9507Y-32405D01*
X-17005D01*
X-2010Y-47400D02*
X2989D01*
X490D01*
Y-32405D01*
X-2010Y-34904D01*
X264005Y-457400D02*
Y-447403D01*
X269004Y-442405D01*
X274002Y-447403D01*
Y-457400D01*
Y-449902D01*
X264005D01*
X279000Y-457400D02*
Y-442405D01*
X283999Y-447403D01*
X288997Y-442405D01*
Y-457400D01*
X293995D02*
Y-442405D01*
X301493D01*
X303992Y-444904D01*
Y-449902D01*
X301493Y-452402D01*
X293995D01*
D18*
X-315500Y599750D02*
Y607750D01*
X-338500Y223600D02*
X-330500D01*
X109500D02*
X117500D01*
X255500D02*
X263500D01*
X-184500D02*
X-176500D01*
X-644500D02*
X-636500D01*
X564500D02*
X572500D01*
X-494500D02*
X-486500D01*
X-38500D02*
X-30500D01*
X411500D02*
X419500D01*
X712500Y223600D02*
X720500D01*
X-142000Y293100D02*
Y301100D01*
X-744500D02*
X-744500Y293100D01*
X-41414Y525757D02*
X-35757Y531414D01*
X-64243Y548586D02*
X-58586Y554243D01*
D19*
X600000Y515000D02*
D03*
X660000Y515000D02*
D03*
X660000Y535000D02*
D03*
X600000D02*
D03*
M02*
