G04*
G04 #@! TF.GenerationSoftware,Altium Limited,Altium Designer,19.1.8 (144)*
G04*
G04 Layer_Color=255*
%FSLAX44Y44*%
%MOMM*%
G71*
G01*
G75*
%ADD100C,1.8796*%
%ADD101R,1.8796X1.8796*%
%ADD102C,5.0000*%
D100*
X212168Y631148D02*
D03*
X239854D02*
D03*
X267540D02*
D03*
X198198Y602700D02*
D03*
X225884D02*
D03*
X253570D02*
D03*
X350598Y631148D02*
D03*
X322912D02*
D03*
X295226D02*
D03*
X378284D02*
D03*
X281256Y602700D02*
D03*
X308942D02*
D03*
X364314D02*
D03*
X336628D02*
D03*
D101*
X392000D02*
D03*
D102*
X-301375Y229600D02*
D03*
X298625D02*
D03*
X-451375D02*
D03*
X448625D02*
D03*
X-815000Y422100D02*
D03*
X815000Y422100D02*
D03*
Y229600D02*
D03*
X-815000D02*
D03*
Y-155400D02*
D03*
Y37100D02*
D03*
X815000D02*
D03*
Y-155400D02*
D03*
Y-347900D02*
D03*
X-815000D02*
D03*
X0D02*
D03*
Y449000D02*
D03*
Y0D02*
D03*
X-280000Y-490400D02*
D03*
X815000Y-475400D02*
D03*
Y614600D02*
D03*
X-815000Y614600D02*
D03*
X-160000Y-490400D02*
D03*
X-385000D02*
D03*
X-505000D02*
D03*
X-610000D02*
D03*
X-730000D02*
D03*
X280000D02*
D03*
X160000D02*
D03*
X385000D02*
D03*
X505000D02*
D03*
X610000D02*
D03*
X730000D02*
D03*
X-815000Y-475400D02*
D03*
M02*
