G04*
G04 #@! TF.GenerationSoftware,Altium Limited,Altium Designer,19.1.8 (144)*
G04*
G04 Layer_Physical_Order=3*
G04 Layer_Color=16440176*
%FSLAX44Y44*%
%MOMM*%
G71*
G01*
G75*
%ADD10C,0.2500*%
%ADD11C,0.2000*%
%ADD13C,1.0000*%
%ADD14C,0.5000*%
%ADD17C,0.3000*%
%ADD18C,0.1500*%
%ADD22C,1.0000*%
%ADD100C,1.8796*%
%ADD102C,5.0000*%
%ADD104C,0.5100*%
%ADD111C,0.4500*%
%ADD112C,0.7500*%
%ADD114C,0.7500*%
G36*
X364000Y618500D02*
X369977Y613557D01*
X369299Y612431D01*
X367159Y613317D01*
X364314Y613692D01*
X361469Y613317D01*
X358818Y612219D01*
X356542Y610472D01*
X354795Y608196D01*
X353697Y605545D01*
X353322Y602700D01*
X353697Y599855D01*
X354795Y597204D01*
X356542Y594927D01*
X358818Y593181D01*
X361469Y592082D01*
X364314Y591708D01*
X367159Y592082D01*
X369810Y593181D01*
X372087Y594927D01*
X373834Y597204D01*
X374932Y599855D01*
X375306Y602700D01*
X374932Y605545D01*
X373834Y608196D01*
X372814Y609524D01*
X373756Y610433D01*
X377000Y607750D01*
X377000Y543000D01*
X357000Y523000D01*
X357000Y429000D01*
X346500Y418500D01*
X-4500D01*
X-8435Y422435D01*
X-7775Y423614D01*
X-4158Y422745D01*
X0Y422418D01*
X4158Y422745D01*
X8214Y423719D01*
X12068Y425315D01*
X15625Y427495D01*
X18796Y430204D01*
X21505Y433376D01*
X23685Y436932D01*
X25281Y440786D01*
X26255Y444842D01*
X26582Y449000D01*
X26255Y453158D01*
X25281Y457214D01*
X23685Y461068D01*
X21505Y464624D01*
X18796Y467796D01*
X15625Y470505D01*
X12068Y472685D01*
X8214Y474281D01*
X4158Y475255D01*
X0Y475582D01*
X-4158Y475255D01*
X-8214Y474281D01*
X-12068Y472685D01*
X-15625Y470505D01*
X-18796Y467796D01*
X-21505Y464624D01*
X-23685Y461068D01*
X-25281Y457214D01*
X-26255Y453158D01*
X-26582Y449000D01*
X-26255Y444842D01*
X-25386Y441225D01*
X-26565Y440565D01*
X-114500Y528500D01*
X-138000Y528500D01*
Y615696D01*
X31839D01*
X55141Y592394D01*
X55065Y591093D01*
X54786Y590907D01*
X53891Y589567D01*
X53577Y587987D01*
X53891Y586407D01*
X54786Y585067D01*
X56126Y584172D01*
X57706Y583857D01*
X59286Y584172D01*
X60626Y585067D01*
X61396Y586220D01*
X62173Y586183D01*
X62696Y586003D01*
Y582911D01*
X55291Y575506D01*
X54080Y576315D01*
X52500Y576629D01*
X50920Y576315D01*
X49580Y575420D01*
X48685Y574080D01*
X48371Y572500D01*
X48685Y570920D01*
X49580Y569580D01*
X50920Y568685D01*
X52061Y568458D01*
X52565Y567273D01*
X52573Y567132D01*
X50745Y565304D01*
X45497D01*
X45420Y565420D01*
X44080Y566315D01*
X42500Y566629D01*
X40920Y566315D01*
X39580Y565420D01*
X38685Y564080D01*
X38371Y562500D01*
X38685Y560920D01*
X39580Y559580D01*
X40920Y558685D01*
X42500Y558371D01*
X44080Y558685D01*
X45420Y559580D01*
X45497Y559696D01*
X51907D01*
X52980Y559910D01*
X53889Y560517D01*
X57348Y563976D01*
X58549Y563479D01*
Y556897D01*
X58763Y555824D01*
X59370Y554914D01*
X65517Y548767D01*
X66427Y548160D01*
X67500Y547946D01*
X111089D01*
X111946Y547089D01*
Y483605D01*
X82640Y454298D01*
X82503Y454326D01*
X80923Y454011D01*
X79583Y453116D01*
X78688Y451777D01*
X78374Y450196D01*
X78612Y449000D01*
X77856Y447700D01*
X68765D01*
X-95517Y611983D01*
X-96427Y612590D01*
X-97500Y612804D01*
X-129503D01*
X-129580Y612920D01*
X-130920Y613815D01*
X-132500Y614129D01*
X-134080Y613815D01*
X-135420Y612920D01*
X-136315Y611580D01*
X-136629Y610000D01*
X-136315Y608420D01*
X-135420Y607080D01*
X-134080Y606185D01*
X-132500Y605871D01*
X-130920Y606185D01*
X-129580Y607080D01*
X-129503Y607196D01*
X-98661D01*
X64281Y444254D01*
X63853Y442843D01*
X63498Y442772D01*
X15568Y490703D01*
X15423Y490920D01*
X14083Y491815D01*
X12503Y492129D01*
X10923Y491815D01*
X9583Y490920D01*
X8688Y489580D01*
X8374Y488000D01*
X8688Y486420D01*
X9583Y485080D01*
X9801Y484935D01*
X59619Y435116D01*
X59619Y435116D01*
X60942Y434232D01*
X62503Y433922D01*
X127000D01*
X127000Y433922D01*
X128561Y434232D01*
X129884Y435116D01*
X147939Y453172D01*
X217750Y453172D01*
X217750Y453172D01*
X219311Y453482D01*
X220634Y454366D01*
X220634Y454366D01*
X267884Y501616D01*
X268768Y502939D01*
X269078Y504500D01*
Y506744D01*
X269129Y507000D01*
X268815Y508580D01*
X267920Y509920D01*
X266580Y510815D01*
X265000Y511129D01*
X263420Y510815D01*
X262080Y509920D01*
X261185Y508580D01*
X260871Y507000D01*
X260922Y506744D01*
Y506189D01*
X216061Y461328D01*
X146250Y461328D01*
X146250Y461328D01*
X144689Y461018D01*
X143366Y460134D01*
X125311Y442078D01*
X110382D01*
X109844Y443378D01*
X118126Y451661D01*
X119178Y452713D01*
X122283Y455817D01*
X122283Y455817D01*
X131983Y465517D01*
X132590Y466427D01*
X132804Y467500D01*
Y493349D01*
X132920Y493427D01*
X133815Y494766D01*
X134129Y496347D01*
X133815Y497927D01*
X132920Y499266D01*
X131580Y500162D01*
X130000Y500476D01*
X128420Y500162D01*
X127080Y499266D01*
X126854Y498928D01*
X125554Y499322D01*
Y551564D01*
X125340Y552637D01*
X124733Y553546D01*
X104054Y574225D01*
Y601755D01*
X103840Y602828D01*
X103233Y603737D01*
X50487Y656483D01*
X49578Y657090D01*
X48505Y657304D01*
X-356412D01*
X-357485Y657090D01*
X-358394Y656483D01*
X-391983Y622894D01*
X-392590Y621984D01*
X-392804Y620911D01*
Y620608D01*
X-393938Y620138D01*
X-394869Y620998D01*
X-394871Y621001D01*
X-395185Y622580D01*
X-396000Y623800D01*
Y667051D01*
X364000D01*
Y618500D01*
D02*
G37*
G36*
X-298500Y608500D02*
X-298500Y544250D01*
X-314000Y544250D01*
Y608500D01*
X-298500Y608500D01*
D02*
G37*
G36*
X-262502Y522431D02*
X-262736Y521949D01*
X-263268Y521359D01*
X-264625Y521629D01*
X-266205Y521315D01*
X-267545Y520420D01*
X-268440Y519080D01*
X-268754Y517500D01*
X-268727Y517363D01*
X-270179Y515912D01*
X-289390D01*
X-289887Y517113D01*
X-281000Y526000D01*
X-266070D01*
X-262502Y522431D01*
D02*
G37*
G36*
X-412069Y520896D02*
X-421265Y511701D01*
X-448238D01*
X-449940Y513402D01*
X-450850Y514010D01*
X-451923Y514224D01*
X-461797D01*
X-461875Y514340D01*
X-463215Y515235D01*
X-464795Y515549D01*
X-466375Y515235D01*
X-467715Y514340D01*
X-467896Y514068D01*
X-469196Y514463D01*
Y518839D01*
X-465839Y522196D01*
X-412608D01*
X-412069Y520896D01*
D02*
G37*
G36*
X-257853Y517783D02*
Y492217D01*
X-264717Y485353D01*
X-269843D01*
X-270382Y486653D01*
X-268581Y488454D01*
X-267420Y488685D01*
X-266080Y489580D01*
X-265185Y490920D01*
X-264948Y492109D01*
X-264625Y493371D01*
X-263045Y493685D01*
X-261705Y494580D01*
X-260810Y495920D01*
X-260496Y497500D01*
X-260810Y499080D01*
X-261705Y500420D01*
X-263045Y501315D01*
X-264625Y501629D01*
X-266205Y501315D01*
X-267269Y500604D01*
X-271195D01*
X-272268Y500391D01*
X-273178Y499783D01*
X-278157Y494804D01*
X-334845D01*
X-335040Y495096D01*
X-334345Y496396D01*
X-290609D01*
X-289536Y496609D01*
X-288626Y497217D01*
X-282343Y503500D01*
X-265821D01*
X-265548Y503554D01*
X-264625Y503371D01*
X-263045Y503685D01*
X-261705Y504580D01*
X-260810Y505920D01*
X-260496Y507500D01*
X-260810Y509080D01*
X-261705Y510420D01*
X-263045Y511315D01*
X-263939Y511493D01*
X-264223Y511789D01*
X-264625Y512854D01*
X-264233Y513449D01*
X-263045Y513685D01*
X-261705Y514580D01*
X-260810Y515920D01*
X-260496Y517500D01*
X-260766Y518857D01*
X-260176Y519389D01*
X-259693Y519623D01*
X-257853Y517783D01*
D02*
G37*
G36*
X-284027Y509004D02*
X-284578Y508894D01*
X-285487Y508287D01*
X-291770Y502004D01*
X-307888D01*
X-308644Y503304D01*
X-308406Y504500D01*
X-308720Y506080D01*
X-309616Y507420D01*
X-310955Y508315D01*
X-312535Y508629D01*
X-314116Y508315D01*
X-315335Y507500D01*
X-331338D01*
X-332842Y509004D01*
X-332304Y510304D01*
X-284155D01*
X-284027Y509004D01*
D02*
G37*
G36*
X-231000Y484500D02*
Y466000D01*
X-233500Y463500D01*
X-332231D01*
X-332729Y464701D01*
X-322783Y474647D01*
X-262500D01*
X-260452Y475055D01*
X-258715Y476215D01*
X-250430Y484500D01*
X-231000Y484500D01*
D02*
G37*
G36*
X-352010Y460200D02*
X-352445Y459548D01*
X-352853Y457500D01*
Y434717D01*
X-364417Y423153D01*
X-492200D01*
X-494248Y422745D01*
X-495985Y421585D01*
X-558785Y358785D01*
X-559945Y357048D01*
X-560353Y355000D01*
Y264443D01*
X-565000Y259796D01*
X-569647Y264443D01*
Y357783D01*
X-497783Y429647D01*
X-380000D01*
X-377952Y430055D01*
X-376215Y431215D01*
X-371215Y436215D01*
X-370055Y437952D01*
X-369647Y440000D01*
Y455000D01*
X-370055Y457048D01*
X-371215Y458785D01*
X-372952Y459945D01*
X-374231Y460200D01*
X-374104Y461500D01*
X-352705D01*
X-352010Y460200D01*
D02*
G37*
G36*
X-545000Y257500D02*
X-555000Y247500D01*
X-565000Y257500D01*
X-555000Y267500D01*
X-545000Y257500D01*
D02*
G37*
G36*
X-565000D02*
X-575000Y247500D01*
X-585000Y257500D01*
X-575000Y267500D01*
X-565000Y257500D01*
D02*
G37*
G36*
X-820000Y667051D02*
X-820000Y667051D01*
X-820000Y667051D01*
X-398000D01*
Y625950D01*
X-399000Y625129D01*
X-400580Y624815D01*
X-401920Y623920D01*
X-402815Y622580D01*
X-403129Y621000D01*
X-402815Y619420D01*
X-401920Y618080D01*
X-400580Y617185D01*
X-399000Y616871D01*
X-398950Y616881D01*
X-398000Y616030D01*
Y548535D01*
X-398920Y547920D01*
X-399815Y546580D01*
X-400129Y545000D01*
X-399815Y543420D01*
X-399721Y543279D01*
X-408500Y534500D01*
X-426719D01*
X-427167Y534840D01*
X-427648Y536123D01*
X-427095Y536950D01*
X-426901Y537925D01*
Y542564D01*
X-425755Y543176D01*
X-425580Y543060D01*
X-424000Y542746D01*
X-422420Y543060D01*
X-421080Y543955D01*
X-420185Y545295D01*
X-419871Y546875D01*
X-420185Y548455D01*
X-421080Y549795D01*
X-421902Y550344D01*
Y564451D01*
X-422096Y565426D01*
X-422649Y566253D01*
X-434448Y578052D01*
X-435275Y578605D01*
X-436250Y578799D01*
X-535194D01*
X-575948Y619552D01*
X-576774Y620105D01*
X-577750Y620299D01*
X-757250D01*
X-758225Y620105D01*
X-759052Y619552D01*
X-786802Y591802D01*
X-787355Y590975D01*
X-787549Y590000D01*
Y475000D01*
X-787355Y474025D01*
X-786802Y473198D01*
X-752972Y439367D01*
X-753565Y438480D01*
X-753879Y436900D01*
X-753565Y435320D01*
X-752670Y433980D01*
X-751330Y433085D01*
X-749750Y432771D01*
X-748170Y433085D01*
X-746830Y433980D01*
X-745935Y435320D01*
X-745620Y436900D01*
X-745935Y438480D01*
X-746830Y439820D01*
X-747274Y440116D01*
X-747395Y440725D01*
X-747947Y441552D01*
X-782451Y476056D01*
Y588944D01*
X-756194Y615201D01*
X-578806D01*
X-538052Y574448D01*
X-537225Y573895D01*
X-536250Y573701D01*
X-437306D01*
X-427000Y563395D01*
Y557443D01*
X-428300Y556905D01*
X-437698Y566302D01*
X-438525Y566855D01*
X-439500Y567049D01*
X-538444D01*
X-579698Y608302D01*
X-580524Y608855D01*
X-581500Y609049D01*
X-753500D01*
X-754475Y608855D01*
X-755302Y608302D01*
X-771802Y591802D01*
X-772355Y590975D01*
X-772549Y590000D01*
Y474520D01*
X-772355Y473545D01*
X-771802Y472718D01*
X-763792Y464708D01*
X-763879Y464270D01*
X-763565Y462690D01*
X-762670Y461350D01*
X-761330Y460455D01*
X-759750Y460141D01*
X-758170Y460455D01*
X-756830Y461350D01*
X-755935Y462690D01*
X-755620Y464270D01*
X-755935Y465850D01*
X-756830Y467190D01*
X-758170Y468085D01*
X-759750Y468400D01*
X-760187Y468312D01*
X-767451Y475576D01*
Y588944D01*
X-752444Y603951D01*
X-582556D01*
X-541302Y562698D01*
X-540475Y562145D01*
X-539500Y561951D01*
X-440556D01*
X-431999Y553394D01*
Y551144D01*
X-433299Y550390D01*
X-434500Y550629D01*
X-436080Y550315D01*
X-437420Y549420D01*
X-437663Y549056D01*
X-443076D01*
X-448573Y554552D01*
X-449399Y555105D01*
X-450375Y555299D01*
X-541694D01*
X-581948Y595552D01*
X-582775Y596105D01*
X-583750Y596299D01*
X-741250D01*
X-742225Y596105D01*
X-743052Y595552D01*
X-761552Y577053D01*
X-762105Y576226D01*
X-762299Y575250D01*
Y557438D01*
X-762670Y557190D01*
X-763565Y555850D01*
X-763879Y554270D01*
X-763565Y552690D01*
X-762670Y551350D01*
X-761330Y550455D01*
X-759750Y550141D01*
X-758170Y550455D01*
X-756830Y551350D01*
X-755935Y552690D01*
X-755620Y554270D01*
X-755935Y555850D01*
X-756830Y557190D01*
X-757201Y557438D01*
Y574194D01*
X-740194Y591201D01*
X-584806D01*
X-544552Y550948D01*
X-543725Y550395D01*
X-542750Y550201D01*
X-451431D01*
X-445934Y544705D01*
X-445107Y544152D01*
X-444132Y543958D01*
X-437672D01*
X-437420Y543580D01*
X-436080Y542685D01*
X-434500Y542371D01*
X-433299Y542610D01*
X-431999Y541856D01*
Y539505D01*
X-432000Y539504D01*
X-433580Y539190D01*
X-434920Y538295D01*
X-435815Y536955D01*
X-436129Y535375D01*
X-435815Y533795D01*
X-434920Y532455D01*
X-433580Y531560D01*
X-432000Y531246D01*
X-430420Y531560D01*
X-429300Y532308D01*
X-428000Y532250D01*
X-427654Y532250D01*
X-407750D01*
X-398320Y541680D01*
X-397580Y541185D01*
X-396000Y540871D01*
X-394420Y541185D01*
X-394104Y541396D01*
X-392804Y540701D01*
Y528161D01*
X-393161Y527804D01*
X-467000D01*
X-468073Y527590D01*
X-468983Y526983D01*
X-473983Y521983D01*
X-474590Y521073D01*
X-474804Y520000D01*
Y501000D01*
X-474590Y499927D01*
X-473983Y499017D01*
X-469733Y494767D01*
X-468823Y494160D01*
X-467750Y493946D01*
X-461179D01*
X-460932Y493613D01*
X-460603Y492646D01*
X-461315Y491580D01*
X-461629Y490000D01*
X-461315Y488420D01*
X-460420Y487080D01*
X-459080Y486185D01*
X-457500Y485871D01*
X-455920Y486185D01*
X-454580Y487080D01*
X-453685Y488420D01*
X-453402Y489842D01*
X-404854D01*
X-403781Y490056D01*
X-402871Y490663D01*
X-391339Y502196D01*
X-380000D01*
X-378927Y502410D01*
X-378017Y503017D01*
X-368989Y512046D01*
X-367598Y511679D01*
X-367562Y511634D01*
X-366983Y510767D01*
X-342233Y486017D01*
X-341323Y485410D01*
X-340250Y485196D01*
X-329013D01*
X-328619Y483896D01*
X-328785Y483785D01*
X-349070Y463500D01*
X-380000D01*
Y496500D01*
X-382000D01*
Y461500D01*
X-375896D01*
X-375769Y460200D01*
X-377048Y459945D01*
X-378785Y458785D01*
X-379945Y457048D01*
X-380353Y455000D01*
Y442217D01*
X-382217Y440353D01*
X-500000D01*
X-502048Y439945D01*
X-503785Y438785D01*
X-578785Y363785D01*
X-579945Y362048D01*
X-580353Y360000D01*
Y264443D01*
X-586148Y258648D01*
X-586148D01*
X-586624Y257500D01*
X-586602Y257447D01*
X-586148Y256352D01*
X-576148Y246352D01*
X-575000Y245876D01*
X-573852Y246352D01*
X-565000Y255204D01*
X-556148Y246352D01*
X-555000Y245876D01*
X-553852Y246352D01*
X-543852Y256352D01*
X-543852D01*
X-543376Y257500D01*
X-543398Y257553D01*
X-543852Y258648D01*
X-549647Y264443D01*
Y352783D01*
X-489983Y412447D01*
X-362200D01*
X-360151Y412855D01*
X-358415Y414015D01*
X-343715Y428715D01*
X-342555Y430452D01*
X-342147Y432500D01*
Y455283D01*
X-335930Y461500D01*
X-236637D01*
X-236076Y460236D01*
X-236620Y459554D01*
X-315750D01*
X-316823Y459340D01*
X-317733Y458733D01*
X-332363Y444103D01*
X-332500Y444130D01*
X-334080Y443815D01*
X-335420Y442920D01*
X-336315Y441581D01*
X-336629Y440000D01*
X-336315Y438420D01*
X-335420Y437080D01*
X-334080Y436185D01*
X-332500Y435871D01*
X-330920Y436185D01*
X-329580Y437080D01*
X-328685Y438420D01*
X-328371Y440000D01*
X-328398Y440137D01*
X-314589Y453946D01*
X-304358D01*
X-303819Y452646D01*
X-312363Y444102D01*
X-312500Y444129D01*
X-314080Y443815D01*
X-315420Y442920D01*
X-316315Y441580D01*
X-316629Y440000D01*
X-316315Y438420D01*
X-315420Y437080D01*
X-314080Y436185D01*
X-312500Y435871D01*
X-310920Y436185D01*
X-309580Y437080D01*
X-308685Y438420D01*
X-308371Y440000D01*
X-308398Y440137D01*
X-299589Y448946D01*
X-289358D01*
X-288819Y447646D01*
X-292363Y444102D01*
X-292500Y444129D01*
X-294080Y443815D01*
X-295420Y442920D01*
X-296315Y441580D01*
X-296629Y440000D01*
X-296315Y438420D01*
X-295420Y437080D01*
X-294080Y436185D01*
X-292500Y435871D01*
X-290920Y436185D01*
X-289580Y437080D01*
X-288685Y438420D01*
X-288371Y440000D01*
X-288398Y440137D01*
X-284839Y443696D01*
X-276420D01*
X-275770Y442396D01*
X-276315Y441580D01*
X-276629Y440000D01*
X-276315Y438420D01*
X-275420Y437080D01*
X-274080Y436185D01*
X-272500Y435871D01*
X-270920Y436185D01*
X-269580Y437080D01*
X-269503Y437196D01*
X-229000D01*
X-227927Y437410D01*
X-227017Y438017D01*
X-207463Y457571D01*
X-206856Y458481D01*
X-206642Y459554D01*
Y547446D01*
X-206856Y548519D01*
X-207463Y549429D01*
X-208793Y550758D01*
X-208685Y550920D01*
X-208371Y552500D01*
X-208685Y554080D01*
X-208759Y554191D01*
X-208064Y555491D01*
X-177817D01*
X-165559Y543233D01*
Y275000D01*
X-165559Y275000D01*
X-165326Y273829D01*
X-164663Y272837D01*
X-152163Y260337D01*
X-152163Y260337D01*
X-151171Y259674D01*
X-150000Y259441D01*
X-109122D01*
X-108061Y258732D01*
X-106500Y258422D01*
X-17189D01*
X5922Y235311D01*
Y70256D01*
X5871Y70000D01*
X6185Y68420D01*
X7080Y67080D01*
X8420Y66185D01*
X10000Y65871D01*
X11580Y66185D01*
X12920Y67080D01*
X13815Y68420D01*
X14129Y70000D01*
X14078Y70256D01*
Y237000D01*
X13768Y238561D01*
X12884Y239884D01*
X12884Y239884D01*
X-12616Y265384D01*
X-13939Y266268D01*
X-15500Y266578D01*
X-15500Y266578D01*
X-106500D01*
X-108061Y266268D01*
X-109122Y265559D01*
X-148733D01*
X-159441Y276267D01*
Y544500D01*
X-159441Y544500D01*
X-159674Y545671D01*
X-160337Y546663D01*
X-160337Y546663D01*
X-174387Y560713D01*
X-175380Y561376D01*
X-176550Y561609D01*
X-176550Y561609D01*
X-296876D01*
X-296876Y595922D01*
X-222500D01*
X-222500Y595922D01*
X-220939Y596232D01*
X-219616Y597116D01*
X-215761Y600972D01*
X-168950D01*
X-168950Y600972D01*
X-167389Y601282D01*
X-166066Y602166D01*
X-165297Y602935D01*
X-165080Y603080D01*
X-164185Y604420D01*
X-163871Y606000D01*
X-164185Y607580D01*
X-165080Y608920D01*
X-166420Y609815D01*
X-168000Y610129D01*
X-169580Y609815D01*
X-170608Y609128D01*
X-217450D01*
X-217450Y609128D01*
X-219011Y608818D01*
X-220334Y607934D01*
X-220334Y607934D01*
X-222614Y605654D01*
X-223283Y605838D01*
X-223910Y606196D01*
X-224185Y607580D01*
X-225080Y608920D01*
X-226420Y609815D01*
X-228000Y610129D01*
X-228256Y610078D01*
X-237744D01*
X-238000Y610129D01*
X-238256Y610078D01*
X-298391D01*
X-298500Y610124D01*
X-314000Y610124D01*
X-315148Y609648D01*
X-315623Y608500D01*
Y544250D01*
X-315148Y543102D01*
X-314000Y542627D01*
X-298500Y542627D01*
X-297352Y543102D01*
X-296876Y544250D01*
Y555491D01*
X-226936D01*
X-226241Y554191D01*
X-226315Y554080D01*
X-226629Y552500D01*
X-226315Y550920D01*
X-225528Y549742D01*
X-225852Y548872D01*
X-226094Y548475D01*
X-227500Y548754D01*
X-229080Y548440D01*
X-230420Y547545D01*
X-231315Y546205D01*
X-231629Y544625D01*
X-231315Y543045D01*
X-230420Y541705D01*
X-230304Y541628D01*
Y486500D01*
X-247146D01*
X-247759Y487646D01*
X-247555Y487952D01*
X-247147Y490000D01*
Y520000D01*
X-247555Y522048D01*
X-248715Y523785D01*
X-261215Y536285D01*
X-262952Y537445D01*
X-265000Y537853D01*
X-317782D01*
X-324647Y544718D01*
Y567000D01*
X-325055Y569048D01*
X-326215Y570785D01*
X-327952Y571945D01*
X-330000Y572353D01*
X-332048Y571945D01*
X-333785Y570785D01*
X-334945Y569048D01*
X-335353Y567000D01*
Y542500D01*
X-334945Y540452D01*
X-333785Y538715D01*
X-323785Y528715D01*
X-322048Y527555D01*
X-320000Y527147D01*
X-284551D01*
X-284054Y525946D01*
X-293000Y517000D01*
X-333659D01*
X-340000Y523341D01*
Y614323D01*
X-339823Y614500D01*
X-140000D01*
Y526500D01*
X-115500D01*
X-5500Y416500D01*
X347500D01*
X359000Y428000D01*
Y522000D01*
X379000Y542000D01*
X379000Y608750D01*
X366000Y619500D01*
Y667051D01*
X823110D01*
X829277Y666239D01*
X835285Y664629D01*
X841032Y662249D01*
X846419Y659139D01*
X851354Y655352D01*
X855752Y650954D01*
X859539Y646019D01*
X862649Y640632D01*
X865029Y634885D01*
X866639Y628877D01*
X867451Y622710D01*
X867451Y619600D01*
X867451Y-480400D01*
Y-483510D01*
X866639Y-489677D01*
X865029Y-495685D01*
X862649Y-501432D01*
X859539Y-506819D01*
X855752Y-511754D01*
X851354Y-516152D01*
X846419Y-519939D01*
X841032Y-523049D01*
X835285Y-525429D01*
X829277Y-527039D01*
X823110Y-527851D01*
X820000Y-527851D01*
X-820000D01*
X-823110Y-527851D01*
X-829277Y-527039D01*
X-835285Y-525429D01*
X-841032Y-523049D01*
X-846419Y-519939D01*
X-851354Y-516152D01*
X-855752Y-511754D01*
X-859539Y-506819D01*
X-862649Y-501432D01*
X-865029Y-495686D01*
X-866639Y-489677D01*
X-867449Y-483527D01*
X-867409Y-480390D01*
X-867412Y-480374D01*
X-867409Y-480357D01*
X-867451Y619600D01*
Y622710D01*
X-866639Y628877D01*
X-865029Y634885D01*
X-862649Y640632D01*
X-859539Y646019D01*
X-855752Y650954D01*
X-851354Y655352D01*
X-846419Y659139D01*
X-841032Y662249D01*
X-835285Y664629D01*
X-829277Y666239D01*
X-823110Y667051D01*
X-820000Y667051D01*
D02*
G37*
%LPC*%
G36*
X350598Y642140D02*
X347753Y641766D01*
X345102Y640667D01*
X342826Y638921D01*
X341079Y636644D01*
X339981Y633993D01*
X339606Y631148D01*
X339981Y628303D01*
X341079Y625652D01*
X342826Y623376D01*
X345102Y621629D01*
X347753Y620531D01*
X350598Y620156D01*
X353443Y620531D01*
X356094Y621629D01*
X358371Y623376D01*
X360118Y625652D01*
X361216Y628303D01*
X361590Y631148D01*
X361216Y633993D01*
X360118Y636644D01*
X358371Y638921D01*
X356094Y640667D01*
X353443Y641766D01*
X350598Y642140D01*
D02*
G37*
G36*
X322912D02*
X320067Y641766D01*
X317416Y640667D01*
X315140Y638921D01*
X313393Y636644D01*
X312295Y633993D01*
X311920Y631148D01*
X312295Y628303D01*
X313393Y625652D01*
X315140Y623376D01*
X317416Y621629D01*
X320067Y620531D01*
X322912Y620156D01*
X325757Y620531D01*
X328408Y621629D01*
X330685Y623376D01*
X332432Y625652D01*
X333530Y628303D01*
X333904Y631148D01*
X333530Y633993D01*
X332432Y636644D01*
X330685Y638921D01*
X328408Y640667D01*
X325757Y641766D01*
X322912Y642140D01*
D02*
G37*
G36*
X267540D02*
X264695Y641766D01*
X262044Y640667D01*
X259768Y638921D01*
X258021Y636644D01*
X256923Y633993D01*
X256548Y631148D01*
X256923Y628303D01*
X258021Y625652D01*
X259768Y623376D01*
X262044Y621629D01*
X264695Y620531D01*
X267540Y620156D01*
X270385Y620531D01*
X273036Y621629D01*
X275313Y623376D01*
X277060Y625652D01*
X278158Y628303D01*
X278532Y631148D01*
X278158Y633993D01*
X277060Y636644D01*
X275313Y638921D01*
X273036Y640667D01*
X270385Y641766D01*
X267540Y642140D01*
D02*
G37*
G36*
X239854D02*
X237009Y641766D01*
X234358Y640667D01*
X232082Y638921D01*
X230335Y636644D01*
X229237Y633993D01*
X228862Y631148D01*
X229237Y628303D01*
X230335Y625652D01*
X232082Y623376D01*
X234358Y621629D01*
X237009Y620531D01*
X239854Y620156D01*
X242699Y620531D01*
X245350Y621629D01*
X247627Y623376D01*
X249374Y625652D01*
X250472Y628303D01*
X250846Y631148D01*
X250472Y633993D01*
X249374Y636644D01*
X247627Y638921D01*
X245350Y640667D01*
X242699Y641766D01*
X239854Y642140D01*
D02*
G37*
G36*
X212168D02*
X209323Y641766D01*
X206672Y640667D01*
X204396Y638921D01*
X202649Y636644D01*
X201551Y633993D01*
X201176Y631148D01*
X201551Y628303D01*
X202649Y625652D01*
X204396Y623376D01*
X206672Y621629D01*
X209323Y620531D01*
X212168Y620156D01*
X215013Y620531D01*
X217664Y621629D01*
X219941Y623376D01*
X221688Y625652D01*
X222786Y628303D01*
X223160Y631148D01*
X222786Y633993D01*
X221688Y636644D01*
X219941Y638921D01*
X217664Y640667D01*
X215013Y641766D01*
X212168Y642140D01*
D02*
G37*
G36*
X295226D02*
X292381Y641766D01*
X289730Y640667D01*
X287454Y638921D01*
X285707Y636644D01*
X284609Y633993D01*
X284234Y631148D01*
X284609Y628303D01*
X285707Y625652D01*
X287454Y623376D01*
X289730Y621629D01*
X292381Y620531D01*
X292677Y620491D01*
Y607002D01*
X291377Y606743D01*
X290776Y608196D01*
X289029Y610472D01*
X286752Y612219D01*
X284101Y613317D01*
X281256Y613692D01*
X278411Y613317D01*
X275760Y612219D01*
X273484Y610472D01*
X271737Y608196D01*
X270639Y605545D01*
X270264Y602700D01*
X270639Y599855D01*
X271737Y597204D01*
X273484Y594927D01*
X275760Y593181D01*
X278411Y592082D01*
X281256Y591708D01*
X284101Y592082D01*
X284593Y592286D01*
X285329Y591184D01*
X243951Y549806D01*
X243398Y548979D01*
X243204Y548003D01*
Y537771D01*
X242834Y537523D01*
X241938Y536183D01*
X241624Y534603D01*
X241938Y533023D01*
X242834Y531683D01*
X244173Y530788D01*
X245753Y530474D01*
X247334Y530788D01*
X248565Y531611D01*
X248980Y531763D01*
X249773D01*
X250189Y531611D01*
X251420Y530788D01*
X253000Y530474D01*
X254580Y530788D01*
X255295Y531266D01*
X256250Y531576D01*
X257205Y531266D01*
X257920Y530788D01*
X259500Y530474D01*
X261080Y530788D01*
X262420Y531683D01*
X263315Y533023D01*
X263629Y534603D01*
X263393Y535789D01*
X277556Y549951D01*
X278108Y550778D01*
X278302Y551753D01*
Y556167D01*
X278673Y556415D01*
X279568Y557754D01*
X279883Y559335D01*
X279568Y560915D01*
X278673Y562254D01*
X277334Y563150D01*
X275753Y563464D01*
X274173Y563150D01*
X272833Y562254D01*
X271354Y562381D01*
X270330Y563065D01*
X268750Y563379D01*
X267170Y563065D01*
X265830Y562170D01*
X264935Y560830D01*
X264621Y559250D01*
X264935Y557670D01*
X265488Y556842D01*
X251198Y542552D01*
X250645Y541726D01*
X250451Y540750D01*
Y538162D01*
X249184Y537690D01*
X248302Y538462D01*
Y546948D01*
X297029Y595674D01*
X297581Y596501D01*
X297775Y597476D01*
Y597785D01*
X299075Y598043D01*
X299423Y597204D01*
X301170Y594927D01*
X303446Y593181D01*
X306097Y592082D01*
X308942Y591708D01*
X311787Y592082D01*
X314438Y593181D01*
X316715Y594927D01*
X318462Y597204D01*
X319560Y599855D01*
X319934Y602700D01*
X319560Y605545D01*
X318462Y608196D01*
X316715Y610472D01*
X314438Y612219D01*
X311787Y613317D01*
X308942Y613692D01*
X306097Y613317D01*
X303446Y612219D01*
X301170Y610472D01*
X299423Y608196D01*
X299075Y607357D01*
X297775Y607615D01*
Y620491D01*
X298071Y620531D01*
X300722Y621629D01*
X302999Y623376D01*
X304746Y625652D01*
X305844Y628303D01*
X306218Y631148D01*
X305844Y633993D01*
X304746Y636644D01*
X302999Y638921D01*
X300722Y640667D01*
X298071Y641766D01*
X295226Y642140D01*
D02*
G37*
G36*
X225884Y613692D02*
X223039Y613317D01*
X220388Y612219D01*
X218112Y610472D01*
X216365Y608196D01*
X215267Y605545D01*
X214892Y602700D01*
X215267Y599855D01*
X216365Y597204D01*
X218112Y594927D01*
X220388Y593181D01*
X223039Y592082D01*
X225884Y591708D01*
X228729Y592082D01*
X231380Y593181D01*
X233657Y594927D01*
X235404Y597204D01*
X236502Y599855D01*
X236876Y602700D01*
X236502Y605545D01*
X235404Y608196D01*
X233657Y610472D01*
X231380Y612219D01*
X228729Y613317D01*
X225884Y613692D01*
D02*
G37*
G36*
X198198D02*
X195353Y613317D01*
X192702Y612219D01*
X190426Y610472D01*
X188679Y608196D01*
X187581Y605545D01*
X187206Y602700D01*
X187581Y599855D01*
X188679Y597204D01*
X190426Y594927D01*
X192702Y593181D01*
X195353Y592082D01*
X198198Y591708D01*
X201043Y592082D01*
X203694Y593181D01*
X205971Y594927D01*
X207718Y597204D01*
X208816Y599855D01*
X209190Y602700D01*
X208816Y605545D01*
X207718Y608196D01*
X205971Y610472D01*
X203694Y612219D01*
X201043Y613317D01*
X198198Y613692D01*
D02*
G37*
G36*
X318000Y561879D02*
X316420Y561565D01*
X315080Y560670D01*
X314185Y559330D01*
X313871Y557750D01*
X314185Y556170D01*
X314941Y555038D01*
Y448267D01*
X312733Y446059D01*
X167712Y446059D01*
X166580Y446815D01*
X165000Y447129D01*
X163420Y446815D01*
X162080Y445920D01*
X161185Y444580D01*
X160871Y443000D01*
X161185Y441420D01*
X160098Y440727D01*
X159873Y440619D01*
X159580Y440815D01*
X158000Y441129D01*
X156420Y440815D01*
X155080Y439920D01*
X154185Y438580D01*
X153871Y437000D01*
X154185Y435420D01*
X155080Y434080D01*
X156420Y433185D01*
X158000Y432871D01*
X159580Y433185D01*
X159873Y433381D01*
X160098Y433273D01*
X161185Y432580D01*
X160871Y431000D01*
X161185Y429420D01*
X160098Y428727D01*
X159873Y428619D01*
X159580Y428815D01*
X158000Y429129D01*
X156420Y428815D01*
X155080Y427920D01*
X154185Y426580D01*
X153871Y425000D01*
X154185Y423420D01*
X155080Y422080D01*
X156420Y421185D01*
X158000Y420871D01*
X159580Y421185D01*
X160712Y421941D01*
X320000Y421941D01*
X320000Y421941D01*
X321171Y422174D01*
X322163Y422837D01*
X344842Y445517D01*
X345505Y446509D01*
X345738Y447680D01*
X345738Y447680D01*
Y494426D01*
X346565Y495663D01*
X346879Y497243D01*
X346565Y498824D01*
X345670Y500163D01*
X344330Y501059D01*
X342750Y501373D01*
X341170Y501059D01*
X339830Y500163D01*
X338935Y498824D01*
X338621Y497243D01*
X338935Y495663D01*
X339621Y494637D01*
Y448947D01*
X337418Y446743D01*
X336118Y447282D01*
Y499788D01*
X336874Y500920D01*
X337188Y502500D01*
X336874Y504080D01*
X335979Y505420D01*
X334639Y506315D01*
X333059Y506629D01*
X331479Y506315D01*
X330139Y505420D01*
X329244Y504080D01*
X329168Y503697D01*
X327868Y503825D01*
Y554289D01*
X327920Y554324D01*
X328815Y555663D01*
X329129Y557243D01*
X328815Y558824D01*
X327920Y560163D01*
X326580Y561059D01*
X325000Y561373D01*
X323420Y561059D01*
X322080Y560163D01*
X321882D01*
X320875Y560700D01*
X319580Y561565D01*
X318000Y561879D01*
D02*
G37*
G36*
X378284Y642140D02*
X375439Y641766D01*
X372788Y640667D01*
X370512Y638921D01*
X368765Y636644D01*
X367667Y633993D01*
X367292Y631148D01*
X367667Y628303D01*
X368765Y625652D01*
X370512Y623376D01*
X372788Y621629D01*
X375439Y620531D01*
X378284Y620156D01*
X381129Y620531D01*
X383780Y621629D01*
X386057Y623376D01*
X387804Y625652D01*
X388902Y628303D01*
X389276Y631148D01*
X388902Y633993D01*
X387804Y636644D01*
X386057Y638921D01*
X383780Y640667D01*
X381129Y641766D01*
X378284Y642140D01*
D02*
G37*
G36*
X402898Y613598D02*
X381102D01*
Y591802D01*
X402898D01*
Y613598D01*
D02*
G37*
G36*
X-586000Y583549D02*
X-739000D01*
X-739976Y583355D01*
X-740802Y582802D01*
X-751552Y572053D01*
X-752105Y571226D01*
X-752299Y570250D01*
Y530068D01*
X-752670Y529820D01*
X-753565Y528480D01*
X-753879Y526900D01*
X-753565Y525320D01*
X-752670Y523980D01*
X-751330Y523085D01*
X-749750Y522771D01*
X-748170Y523085D01*
X-746830Y523980D01*
X-745935Y525320D01*
X-745620Y526900D01*
X-745935Y528480D01*
X-746830Y529820D01*
X-747201Y530068D01*
Y569194D01*
X-737944Y578451D01*
X-587056D01*
X-546802Y538198D01*
X-545975Y537645D01*
X-545000Y537451D01*
X-447681D01*
X-446042Y535812D01*
X-446129Y535375D01*
X-445815Y533795D01*
X-444920Y532455D01*
X-443580Y531560D01*
X-442000Y531246D01*
X-440420Y531560D01*
X-439080Y532455D01*
X-438185Y533795D01*
X-437871Y535375D01*
X-438185Y536955D01*
X-439080Y538295D01*
X-440420Y539190D01*
X-442000Y539504D01*
X-442438Y539417D01*
X-444823Y541802D01*
X-445649Y542355D01*
X-446625Y542549D01*
X-543944D01*
X-584198Y582802D01*
X-585024Y583355D01*
X-586000Y583549D01*
D02*
G37*
G36*
X-577750Y558400D02*
X-579330Y558085D01*
X-580670Y557190D01*
X-581565Y555850D01*
X-581879Y554270D01*
X-581565Y552690D01*
X-580670Y551350D01*
X-579330Y550455D01*
X-577750Y550141D01*
X-577312Y550228D01*
X-572549Y545465D01*
Y528176D01*
X-573849Y528048D01*
X-573935Y528480D01*
X-574830Y529820D01*
X-576170Y530715D01*
X-577750Y531029D01*
X-579330Y530715D01*
X-580670Y529820D01*
X-581565Y528480D01*
X-581879Y526900D01*
X-581565Y525320D01*
X-580670Y523980D01*
X-580299Y523732D01*
Y487750D01*
X-580105Y486774D01*
X-579552Y485947D01*
X-559351Y465747D01*
X-558524Y465194D01*
X-557549Y465000D01*
X-449926D01*
X-449388Y463700D01*
X-451039Y462049D01*
X-571924D01*
X-573708Y463833D01*
X-573620Y464270D01*
X-573935Y465850D01*
X-574830Y467190D01*
X-576170Y468085D01*
X-577750Y468400D01*
X-579330Y468085D01*
X-580670Y467190D01*
X-581565Y465850D01*
X-581879Y464270D01*
X-581565Y462690D01*
X-580670Y461350D01*
X-579330Y460455D01*
X-577750Y460141D01*
X-577312Y460228D01*
X-574782Y457698D01*
X-573955Y457145D01*
X-572980Y456951D01*
X-449983D01*
X-449008Y457145D01*
X-448181Y457698D01*
X-431503Y474375D01*
X-430068Y473972D01*
X-429994Y473661D01*
X-451606Y452049D01*
X-570500D01*
X-571475Y451855D01*
X-572302Y451302D01*
X-579552Y444053D01*
X-580105Y443226D01*
X-580299Y442250D01*
Y440068D01*
X-580670Y439820D01*
X-581565Y438480D01*
X-581879Y436900D01*
X-581565Y435320D01*
X-580670Y433980D01*
X-579330Y433085D01*
X-577750Y432771D01*
X-576170Y433085D01*
X-574830Y433980D01*
X-573935Y435320D01*
X-573620Y436900D01*
X-573935Y438480D01*
X-574830Y439820D01*
X-575041Y439961D01*
X-575119Y441276D01*
X-569444Y446951D01*
X-450550D01*
X-449575Y447145D01*
X-448748Y447698D01*
X-425120Y471325D01*
X-423670Y471614D01*
X-422330Y472509D01*
X-421435Y473849D01*
X-421120Y475429D01*
X-421435Y477009D01*
X-422330Y478349D01*
X-423670Y479244D01*
X-425250Y479558D01*
X-426830Y479244D01*
X-428101Y478395D01*
X-428481Y478474D01*
X-429401Y478846D01*
Y480491D01*
X-429080Y480705D01*
X-428185Y482045D01*
X-427871Y483625D01*
X-428185Y485205D01*
X-429080Y486545D01*
X-430420Y487440D01*
X-432000Y487754D01*
X-433580Y487440D01*
X-434920Y486545D01*
X-435815Y485205D01*
X-435884Y484858D01*
X-437000Y483754D01*
X-438116Y484858D01*
X-438185Y485205D01*
X-439080Y486545D01*
X-440420Y487440D01*
X-442000Y487754D01*
X-443580Y487440D01*
X-444920Y486545D01*
X-445815Y485205D01*
X-446129Y483625D01*
X-445939Y482666D01*
X-451056Y477549D01*
X-519694D01*
X-567451Y525306D01*
Y546520D01*
X-567645Y547496D01*
X-568198Y548323D01*
X-573708Y553833D01*
X-573620Y554270D01*
X-573935Y555850D01*
X-574830Y557190D01*
X-576170Y558085D01*
X-577750Y558400D01*
D02*
G37*
G36*
X-638750Y504529D02*
X-640330Y504215D01*
X-641670Y503320D01*
X-642565Y501980D01*
X-642879Y500400D01*
X-642565Y498820D01*
X-641670Y497480D01*
X-640330Y496585D01*
X-638750Y496271D01*
X-637170Y496585D01*
X-635830Y497480D01*
X-634935Y498820D01*
X-634621Y500400D01*
X-634935Y501980D01*
X-635830Y503320D01*
X-637170Y504215D01*
X-638750Y504529D01*
D02*
G37*
G36*
X-332500Y434129D02*
X-334080Y433815D01*
X-335420Y432920D01*
X-336315Y431580D01*
X-336629Y430000D01*
X-336578Y429744D01*
Y409189D01*
X-341689Y404078D01*
X-490000D01*
X-490000Y404078D01*
X-491561Y403768D01*
X-492884Y402884D01*
X-492884Y402884D01*
X-532884Y362884D01*
X-533768Y361561D01*
X-534078Y360000D01*
X-534078Y360000D01*
Y21689D01*
X-541689Y14078D01*
X-579744D01*
X-580000Y14129D01*
X-581580Y13815D01*
X-582920Y12920D01*
X-583815Y11580D01*
X-584129Y10000D01*
X-583815Y8420D01*
X-582920Y7080D01*
X-581580Y6185D01*
X-580000Y5871D01*
X-579744Y5922D01*
X-540000D01*
X-540000Y5922D01*
X-538439Y6232D01*
X-537116Y7116D01*
X-527116Y17116D01*
X-527116Y17116D01*
X-526232Y18439D01*
X-525922Y20000D01*
Y358311D01*
X-488311Y395922D01*
X-340000D01*
X-340000Y395922D01*
X-338439Y396232D01*
X-337116Y397116D01*
X-329616Y404616D01*
X-329616Y404616D01*
X-328732Y405939D01*
X-328422Y407500D01*
Y429744D01*
X-328371Y430000D01*
X-328685Y431580D01*
X-329580Y432920D01*
X-330920Y433815D01*
X-332500Y434129D01*
D02*
G37*
G36*
X-312500D02*
X-314080Y433815D01*
X-315420Y432920D01*
X-316315Y431580D01*
X-316629Y430000D01*
X-316578Y429744D01*
Y399189D01*
X-331689Y384078D01*
X-480000D01*
X-480000Y384078D01*
X-481561Y383768D01*
X-482884Y382884D01*
X-512884Y352884D01*
X-513768Y351561D01*
X-514078Y350000D01*
X-514078Y350000D01*
Y11689D01*
X-531689Y-5922D01*
X-579744D01*
X-580000Y-5871D01*
X-581580Y-6185D01*
X-582920Y-7080D01*
X-583815Y-8420D01*
X-584129Y-10000D01*
X-583815Y-11580D01*
X-582920Y-12920D01*
X-581580Y-13815D01*
X-580000Y-14129D01*
X-579744Y-14078D01*
X-530000D01*
X-530000Y-14078D01*
X-528439Y-13768D01*
X-527116Y-12884D01*
X-507116Y7116D01*
X-507116Y7116D01*
X-506232Y8439D01*
X-505922Y10000D01*
X-505922Y10000D01*
Y348311D01*
X-478311Y375922D01*
X-330000D01*
X-330000Y375922D01*
X-328439Y376232D01*
X-327116Y377116D01*
X-309616Y394616D01*
X-309616Y394616D01*
X-308732Y395939D01*
X-308422Y397500D01*
Y429744D01*
X-308371Y430000D01*
X-308685Y431580D01*
X-309580Y432920D01*
X-310920Y433815D01*
X-312500Y434129D01*
D02*
G37*
G36*
X-292500D02*
X-294080Y433815D01*
X-295420Y432920D01*
X-296315Y431580D01*
X-296629Y430000D01*
X-296578Y429744D01*
Y389189D01*
X-321689Y364078D01*
X-470000D01*
X-471561Y363768D01*
X-472884Y362884D01*
X-472884Y362884D01*
X-489434Y346334D01*
X-490318Y345011D01*
X-490628Y343450D01*
X-490628Y343450D01*
Y75139D01*
X-492703Y73065D01*
X-492920Y72920D01*
X-493815Y71580D01*
X-494129Y70000D01*
X-493815Y68420D01*
X-492920Y67080D01*
X-491580Y66185D01*
X-490000Y65871D01*
X-488420Y66185D01*
X-487080Y67080D01*
X-486935Y67297D01*
X-483666Y70566D01*
X-483666Y70566D01*
X-482782Y71889D01*
X-482472Y73450D01*
Y341761D01*
X-468311Y355922D01*
X-320000D01*
X-320000Y355922D01*
X-318439Y356232D01*
X-317116Y357116D01*
X-289616Y384616D01*
X-288732Y385939D01*
X-288422Y387500D01*
X-288422Y387500D01*
Y429744D01*
X-288371Y430000D01*
X-288685Y431580D01*
X-289580Y432920D01*
X-290920Y433815D01*
X-292500Y434129D01*
D02*
G37*
G36*
X-272500D02*
X-274080Y433815D01*
X-275420Y432920D01*
X-276315Y431580D01*
X-276629Y430000D01*
X-276578Y429744D01*
Y379189D01*
X-311689Y344078D01*
X-383749D01*
X-383749Y344078D01*
X-385310Y343768D01*
X-386633Y342884D01*
X-386633Y342884D01*
X-422884Y306633D01*
X-423768Y305310D01*
X-424078Y303749D01*
X-424078Y303749D01*
Y92689D01*
X-442689Y74078D01*
X-469744D01*
X-470000Y74129D01*
X-471580Y73815D01*
X-472920Y72920D01*
X-473815Y71580D01*
X-474129Y70000D01*
X-473815Y68420D01*
X-472920Y67080D01*
X-471580Y66185D01*
X-470000Y65871D01*
X-469744Y65922D01*
X-441000D01*
X-441000Y65922D01*
X-439439Y66232D01*
X-438116Y67116D01*
X-417116Y88116D01*
X-417116Y88116D01*
X-416232Y89439D01*
X-415922Y91000D01*
X-415922Y91000D01*
Y302060D01*
X-382060Y335922D01*
X-310000D01*
X-310000Y335922D01*
X-308439Y336232D01*
X-307116Y337116D01*
X-269616Y374616D01*
X-269616Y374616D01*
X-268732Y375939D01*
X-268422Y377500D01*
X-268422Y377500D01*
Y429744D01*
X-268371Y430000D01*
X-268685Y431580D01*
X-269580Y432920D01*
X-270920Y433815D01*
X-272500Y434129D01*
D02*
G37*
G36*
X47500Y284056D02*
X-145000D01*
X-146697Y283833D01*
X-148278Y283178D01*
X-149636Y282136D01*
X-150678Y280778D01*
X-151333Y279197D01*
X-151556Y277500D01*
X-151333Y275803D01*
X-150678Y274222D01*
X-149636Y272864D01*
X-148278Y271822D01*
X-146697Y271167D01*
X-145000Y270944D01*
X47500D01*
X49197Y271167D01*
X50778Y271822D01*
X52136Y272864D01*
X53178Y274222D01*
X53833Y275803D01*
X54056Y277500D01*
X53833Y279197D01*
X53178Y280778D01*
X52136Y282136D01*
X50778Y283178D01*
X49197Y283833D01*
X47500Y284056D01*
D02*
G37*
G36*
X-389750Y219129D02*
X-390878Y218905D01*
X-391750Y219078D01*
X-393310Y218768D01*
X-394633Y217884D01*
X-395518Y216561D01*
X-395828Y215000D01*
X-395828Y215000D01*
Y49943D01*
X-395879Y49687D01*
X-395565Y48106D01*
X-394669Y46767D01*
X-393330Y45872D01*
X-391750Y45557D01*
X-390169Y45872D01*
X-388830Y46767D01*
X-387935Y48106D01*
X-387620Y49687D01*
X-387671Y49943D01*
Y211518D01*
X-386830Y212080D01*
X-385935Y213420D01*
X-385620Y215000D01*
X-385935Y216580D01*
X-386830Y217920D01*
X-388169Y218815D01*
X-389750Y219129D01*
D02*
G37*
G36*
X-32500Y434129D02*
X-34080Y433815D01*
X-35420Y432920D01*
X-36315Y431580D01*
X-36629Y430000D01*
X-36578Y429744D01*
Y422500D01*
X-36578Y422500D01*
X-36268Y420939D01*
X-35384Y419616D01*
X-22884Y407116D01*
X-22884Y407116D01*
X-21561Y406232D01*
X-20000Y405922D01*
X-20000Y405922D01*
X698311D01*
X711569Y392664D01*
Y117156D01*
X711518Y116900D01*
X711832Y115320D01*
X712727Y113980D01*
X714067Y113085D01*
X715647Y112771D01*
X717227Y113085D01*
X718567Y113980D01*
X719462Y115320D01*
X719776Y116900D01*
X719725Y117156D01*
Y394353D01*
X719415Y395914D01*
X718531Y397237D01*
X718531Y397237D01*
X702884Y412884D01*
X701561Y413768D01*
X700000Y414078D01*
X700000Y414078D01*
X-18311D01*
X-28422Y424189D01*
Y429744D01*
X-28371Y430000D01*
X-28685Y431580D01*
X-29580Y432920D01*
X-30920Y433815D01*
X-32500Y434129D01*
D02*
G37*
G36*
X-206587Y217479D02*
X-208167Y217165D01*
X-209507Y216270D01*
X-209652Y216052D01*
X-212884Y212820D01*
X-213768Y211497D01*
X-214078Y209937D01*
X-214078Y209936D01*
Y80256D01*
X-214129Y80000D01*
X-213815Y78420D01*
X-212920Y77080D01*
X-211580Y76185D01*
X-210000Y75871D01*
X-208420Y76185D01*
X-207080Y77080D01*
X-206185Y78420D01*
X-205871Y80000D01*
X-205922Y80256D01*
Y208247D01*
X-203884Y210285D01*
X-203667Y210430D01*
X-202772Y211770D01*
X-202458Y213350D01*
X-202772Y214930D01*
X-203667Y216270D01*
X-205007Y217165D01*
X-206587Y217479D01*
D02*
G37*
G36*
X-79000Y214129D02*
X-80580Y213815D01*
X-81920Y212920D01*
X-82065Y212703D01*
X-87884Y206884D01*
X-88768Y205561D01*
X-89078Y204000D01*
X-89078Y204000D01*
Y86689D01*
X-101689Y74078D01*
X-109744D01*
X-110000Y74129D01*
X-111580Y73815D01*
X-112920Y72920D01*
X-113815Y71580D01*
X-114129Y70000D01*
X-113815Y68420D01*
X-112920Y67080D01*
X-111580Y66185D01*
X-110000Y65871D01*
X-109744Y65922D01*
X-100000D01*
X-100000Y65922D01*
X-98439Y66232D01*
X-97116Y67116D01*
X-82116Y82116D01*
X-82116Y82116D01*
X-81232Y83439D01*
X-80922Y85000D01*
X-80922Y85000D01*
Y202311D01*
X-76297Y206935D01*
X-76080Y207080D01*
X-75185Y208420D01*
X-74871Y210000D01*
X-75185Y211580D01*
X-76080Y212920D01*
X-77420Y213815D01*
X-79000Y214129D01*
D02*
G37*
G36*
X-52500Y434129D02*
X-54080Y433815D01*
X-55420Y432920D01*
X-56315Y431580D01*
X-56629Y430000D01*
X-56578Y429744D01*
Y402500D01*
X-56578Y402500D01*
X-56268Y400939D01*
X-55384Y399616D01*
X-42884Y387116D01*
X-42884Y387116D01*
X-41561Y386232D01*
X-40000Y385922D01*
X-40000Y385922D01*
X528311D01*
X546421Y367811D01*
X546421Y72256D01*
X546370Y72000D01*
X546685Y70420D01*
X547580Y69080D01*
X548919Y68185D01*
X550500Y67871D01*
X552080Y68185D01*
X553420Y69080D01*
X554315Y70420D01*
X554629Y72000D01*
X554578Y72256D01*
X554578Y369500D01*
X554268Y371061D01*
X553384Y372384D01*
X553383Y372384D01*
X532884Y392884D01*
X531561Y393768D01*
X530000Y394078D01*
X530000Y394078D01*
X-38311D01*
X-48422Y404189D01*
Y429744D01*
X-48371Y430000D01*
X-48685Y431580D01*
X-49580Y432920D01*
X-50920Y433815D01*
X-52500Y434129D01*
D02*
G37*
G36*
X-72500D02*
X-74080Y433815D01*
X-75420Y432920D01*
X-76315Y431580D01*
X-76629Y430000D01*
X-76315Y428420D01*
X-75420Y427080D01*
X-75203Y426935D01*
X-74078Y425811D01*
Y380000D01*
X-74078Y380000D01*
X-73768Y378439D01*
X-72884Y377116D01*
X-62884Y367116D01*
X-62884Y367116D01*
X-61561Y366232D01*
X-60000Y365922D01*
X508311D01*
X525922Y348311D01*
Y79500D01*
X525922Y79500D01*
X526232Y77939D01*
X527116Y76616D01*
X527116Y76616D01*
X534435Y69297D01*
X534580Y69080D01*
X535920Y68185D01*
X537500Y67871D01*
X539080Y68185D01*
X540420Y69080D01*
X541315Y70420D01*
X541629Y72000D01*
X541315Y73580D01*
X540420Y74920D01*
X540202Y75065D01*
X534078Y81189D01*
Y350000D01*
X533768Y351561D01*
X532884Y352884D01*
X532884Y352884D01*
X512884Y372884D01*
X511561Y373768D01*
X510000Y374078D01*
X510000Y374078D01*
X-58311D01*
X-65922Y381689D01*
Y427500D01*
X-65922Y427500D01*
X-66232Y429061D01*
X-67116Y430384D01*
X-69435Y432703D01*
X-69580Y432920D01*
X-70920Y433815D01*
X-72500Y434129D01*
D02*
G37*
G36*
X-172500D02*
X-174080Y433815D01*
X-175420Y432920D01*
X-176315Y431580D01*
X-176629Y430000D01*
X-176578Y429744D01*
Y262500D01*
X-176578Y262500D01*
X-176268Y260939D01*
X-175384Y259616D01*
X-162884Y247116D01*
X-162884Y247116D01*
X-161561Y246232D01*
X-160000Y245922D01*
X-31689D01*
X-14078Y228311D01*
Y70256D01*
X-14129Y70000D01*
X-13815Y68420D01*
X-12920Y67080D01*
X-11580Y66185D01*
X-10000Y65871D01*
X-8420Y66185D01*
X-7080Y67080D01*
X-6185Y68420D01*
X-5871Y70000D01*
X-5922Y70256D01*
Y230000D01*
X-5922Y230000D01*
X-6232Y231561D01*
X-7116Y232884D01*
X-7116Y232884D01*
X-27116Y252884D01*
X-28439Y253768D01*
X-30000Y254078D01*
X-30000Y254078D01*
X-158311D01*
X-168422Y264189D01*
Y429744D01*
X-168371Y430000D01*
X-168685Y431580D01*
X-169580Y432920D01*
X-170920Y433815D01*
X-172500Y434129D01*
D02*
G37*
G36*
X-192500D02*
X-194080Y433815D01*
X-195420Y432920D01*
X-196315Y431580D01*
X-196629Y430000D01*
X-196578Y429744D01*
Y252500D01*
X-196578Y252500D01*
X-196268Y250939D01*
X-195384Y249616D01*
X-177884Y232116D01*
X-177884Y232116D01*
X-176561Y231232D01*
X-175000Y230922D01*
X-46363D01*
X-34078Y218637D01*
Y70256D01*
X-34129Y70000D01*
X-33815Y68420D01*
X-32920Y67080D01*
X-31580Y66185D01*
X-30000Y65871D01*
X-28420Y66185D01*
X-27080Y67080D01*
X-26185Y68420D01*
X-25871Y70000D01*
X-25922Y70256D01*
Y220326D01*
X-25922Y220326D01*
X-26232Y221887D01*
X-27116Y223210D01*
X-27116Y223210D01*
X-41790Y237884D01*
X-43113Y238768D01*
X-44674Y239078D01*
X-44674Y239078D01*
X-173311D01*
X-188422Y254189D01*
Y429744D01*
X-188371Y430000D01*
X-188685Y431580D01*
X-189580Y432920D01*
X-190920Y433815D01*
X-192500Y434129D01*
D02*
G37*
G36*
X-212500D02*
X-214080Y433815D01*
X-215420Y432920D01*
X-216315Y431580D01*
X-216629Y430000D01*
X-216578Y429744D01*
Y242500D01*
X-216578Y242500D01*
X-216268Y240939D01*
X-215384Y239616D01*
X-192884Y217116D01*
X-192884Y217116D01*
X-191561Y216232D01*
X-190000Y215922D01*
X-190000Y215922D01*
X-61838D01*
X-54078Y208162D01*
Y68690D01*
X-59703Y63065D01*
X-59920Y62920D01*
X-60815Y61580D01*
X-61130Y60000D01*
X-60815Y58420D01*
X-59920Y57080D01*
X-58580Y56185D01*
X-57000Y55871D01*
X-55420Y56185D01*
X-54080Y57080D01*
X-53935Y57297D01*
X-47116Y64116D01*
X-47116Y64116D01*
X-46232Y65440D01*
X-45922Y67000D01*
Y209851D01*
X-45922Y209852D01*
X-46232Y211412D01*
X-47116Y212735D01*
X-47116Y212736D01*
X-57265Y222884D01*
X-58588Y223768D01*
X-60148Y224078D01*
X-60149Y224078D01*
X-188311D01*
X-208422Y244189D01*
Y429744D01*
X-208371Y430000D01*
X-208685Y431580D01*
X-209580Y432920D01*
X-210920Y433815D01*
X-212500Y434129D01*
D02*
G37*
G36*
X-232500D02*
X-234080Y433815D01*
X-235420Y432920D01*
X-236315Y431580D01*
X-236629Y430000D01*
X-236578Y429744D01*
Y72500D01*
X-236578Y72500D01*
X-236268Y70939D01*
X-235384Y69616D01*
X-222884Y57116D01*
X-222884Y57116D01*
X-221561Y56232D01*
X-220000Y55922D01*
X-70257D01*
X-70000Y55871D01*
X-68420Y56185D01*
X-67080Y57080D01*
X-66185Y58420D01*
X-65871Y60000D01*
X-66185Y61580D01*
X-67080Y62920D01*
X-68420Y63815D01*
X-70000Y64129D01*
X-70257Y64078D01*
X-218311D01*
X-228422Y74189D01*
Y429744D01*
X-228371Y430000D01*
X-228685Y431580D01*
X-229580Y432920D01*
X-230920Y433815D01*
X-232500Y434129D01*
D02*
G37*
G36*
X-112500D02*
X-114080Y433815D01*
X-115420Y432920D01*
X-116315Y431580D01*
X-116629Y430000D01*
X-116578Y429744D01*
Y342500D01*
X-116578Y342500D01*
X-116268Y340939D01*
X-115384Y339616D01*
X-102884Y327116D01*
X-102884Y327116D01*
X-101561Y326232D01*
X-100000Y325922D01*
X224311D01*
X241922Y308311D01*
Y64000D01*
X241922Y64000D01*
X242232Y62439D01*
X243116Y61116D01*
X256935Y47297D01*
X257080Y47080D01*
X258420Y46185D01*
X260000Y45871D01*
X261580Y46185D01*
X262920Y47080D01*
X263815Y48420D01*
X264129Y50000D01*
X263815Y51580D01*
X262920Y52920D01*
X262703Y53065D01*
X250078Y65689D01*
Y310000D01*
X250078Y310000D01*
X249768Y311561D01*
X248884Y312884D01*
X248884Y312884D01*
X228884Y332884D01*
X227561Y333768D01*
X226000Y334078D01*
X226000Y334078D01*
X-98311D01*
X-108422Y344189D01*
Y429744D01*
X-108371Y430000D01*
X-108685Y431580D01*
X-109580Y432920D01*
X-110920Y433815D01*
X-112500Y434129D01*
D02*
G37*
G36*
X-545000Y219129D02*
X-546580Y218815D01*
X-547920Y217920D01*
X-548065Y217703D01*
X-552884Y212884D01*
X-553768Y211561D01*
X-554078Y210000D01*
X-554078Y210000D01*
Y50256D01*
X-554129Y50000D01*
X-553815Y48420D01*
X-552920Y47080D01*
X-551580Y46185D01*
X-550000Y45871D01*
X-548420Y46185D01*
X-547080Y47080D01*
X-546185Y48420D01*
X-545871Y50000D01*
X-545922Y50256D01*
Y208311D01*
X-542297Y211935D01*
X-542080Y212080D01*
X-541185Y213420D01*
X-540871Y215000D01*
X-541185Y216580D01*
X-542080Y217920D01*
X-543420Y218815D01*
X-545000Y219129D01*
D02*
G37*
G36*
X206000D02*
X204420Y218815D01*
X203080Y217920D01*
X202185Y216580D01*
X201871Y215000D01*
X201922Y214744D01*
Y56689D01*
X186861Y41628D01*
X168256D01*
X168000Y41679D01*
X166420Y41365D01*
X165080Y40470D01*
X164185Y39130D01*
X163871Y37550D01*
X164185Y35970D01*
X165080Y34630D01*
X166420Y33735D01*
X168000Y33421D01*
X168256Y33472D01*
X188550D01*
X188550Y33471D01*
X190110Y33782D01*
X191434Y34666D01*
X208884Y52116D01*
X209768Y53439D01*
X210078Y55000D01*
X210078Y55000D01*
Y214744D01*
X210129Y215000D01*
X209815Y216580D01*
X208920Y217920D01*
X207580Y218815D01*
X206000Y219129D01*
D02*
G37*
G36*
X-132500Y434129D02*
X-134080Y433815D01*
X-135420Y432920D01*
X-136315Y431580D01*
X-136629Y430000D01*
X-136578Y429744D01*
Y322500D01*
X-136578Y322500D01*
X-136268Y320939D01*
X-135384Y319616D01*
X-122884Y307116D01*
X-122884Y307116D01*
X-121561Y306232D01*
X-120000Y305922D01*
X204311D01*
X221922Y288311D01*
Y51000D01*
X221922Y51000D01*
X222232Y49439D01*
X223116Y48116D01*
X229179Y42054D01*
X230502Y41170D01*
X232062Y40859D01*
X232062Y40859D01*
X242802D01*
X243122Y40796D01*
X244702Y41110D01*
X246042Y42005D01*
X246937Y43345D01*
X247251Y44925D01*
X246937Y46505D01*
X246042Y47845D01*
X244702Y48740D01*
X243122Y49054D01*
X242929Y49016D01*
X233752D01*
X230078Y52689D01*
Y290000D01*
X229768Y291561D01*
X228884Y292884D01*
X228884Y292884D01*
X208884Y312884D01*
X207561Y313768D01*
X206000Y314078D01*
X206000Y314078D01*
X-118311D01*
X-128422Y324189D01*
Y429744D01*
X-128371Y430000D01*
X-128685Y431580D01*
X-129580Y432920D01*
X-130920Y433815D01*
X-132500Y434129D01*
D02*
G37*
G36*
X-152500D02*
X-154080Y433815D01*
X-155420Y432920D01*
X-156315Y431580D01*
X-156629Y430000D01*
X-156578Y429744D01*
Y302500D01*
X-156578Y302500D01*
X-156268Y300939D01*
X-155384Y299616D01*
X-147884Y292116D01*
X-147884Y292116D01*
X-146561Y291232D01*
X-145000Y290922D01*
X87143D01*
X114044Y264021D01*
Y45181D01*
X113993Y44925D01*
X114307Y43345D01*
X115202Y42005D01*
X116542Y41110D01*
X118122Y40796D01*
X119702Y41110D01*
X121042Y42005D01*
X121937Y43345D01*
X122251Y44925D01*
X122200Y45181D01*
Y265711D01*
X121890Y267272D01*
X121006Y268595D01*
X121006Y268595D01*
X91716Y297884D01*
X90393Y298768D01*
X88833Y299078D01*
X88833Y299078D01*
X-143311D01*
X-148422Y304189D01*
Y429744D01*
X-148371Y430000D01*
X-148685Y431580D01*
X-149580Y432920D01*
X-150920Y433815D01*
X-152500Y434129D01*
D02*
G37*
G36*
X-252500D02*
X-254080Y433815D01*
X-255420Y432920D01*
X-256315Y431580D01*
X-256629Y430000D01*
X-256578Y429744D01*
Y62500D01*
X-256578Y62500D01*
X-256268Y60939D01*
X-255384Y59616D01*
X-237784Y42016D01*
X-237784Y42016D01*
X-236461Y41132D01*
X-234900Y40822D01*
X-234900Y40822D01*
X-160309D01*
X-160053Y40771D01*
X-158472Y41085D01*
X-157133Y41980D01*
X-156238Y43320D01*
X-155923Y44900D01*
X-156238Y46480D01*
X-157133Y47820D01*
X-158472Y48715D01*
X-160053Y49029D01*
X-160309Y48978D01*
X-233211D01*
X-248422Y64189D01*
Y429744D01*
X-248371Y430000D01*
X-248685Y431580D01*
X-249580Y432920D01*
X-250920Y433815D01*
X-252500Y434129D01*
D02*
G37*
G36*
X-695000Y219129D02*
X-696580Y218815D01*
X-697920Y217920D01*
X-698791Y216616D01*
X-702704Y212704D01*
X-703532Y211463D01*
X-703823Y210000D01*
Y46138D01*
X-704129Y44600D01*
X-703815Y43020D01*
X-702920Y41680D01*
X-701580Y40785D01*
X-700000Y40470D01*
X-698420Y40785D01*
X-697080Y41680D01*
X-696185Y43020D01*
X-695871Y44600D01*
X-696177Y46138D01*
Y208416D01*
X-693384Y211209D01*
X-692080Y212080D01*
X-691185Y213420D01*
X-690871Y215000D01*
X-691185Y216580D01*
X-692080Y217920D01*
X-693420Y218815D01*
X-695000Y219129D01*
D02*
G37*
G36*
X59000D02*
X57420Y218815D01*
X56080Y217920D01*
X55935Y217703D01*
X52116Y213884D01*
X51232Y212561D01*
X50922Y211000D01*
X50922Y211000D01*
Y51689D01*
X39797Y40565D01*
X39580Y40420D01*
X38685Y39080D01*
X38371Y37500D01*
X38685Y35920D01*
X39580Y34580D01*
X40920Y33685D01*
X42500Y33371D01*
X44080Y33685D01*
X45420Y34580D01*
X45565Y34797D01*
X57884Y47116D01*
X57884Y47116D01*
X58768Y48439D01*
X59078Y50000D01*
Y209311D01*
X61702Y211935D01*
X61920Y212080D01*
X62815Y213420D01*
X63129Y215000D01*
X62815Y216580D01*
X61920Y217920D01*
X60580Y218815D01*
X59000Y219129D01*
D02*
G37*
G36*
X664226Y217729D02*
X662645Y217415D01*
X661306Y216520D01*
X661161Y216302D01*
X657116Y212258D01*
X656232Y210935D01*
X655922Y209374D01*
X655922Y209374D01*
Y46689D01*
X649797Y40565D01*
X649580Y40420D01*
X648685Y39080D01*
X648371Y37500D01*
X648685Y35920D01*
X649580Y34580D01*
X650920Y33685D01*
X652500Y33371D01*
X654080Y33685D01*
X655420Y34580D01*
X655565Y34797D01*
X662884Y42116D01*
X662884Y42116D01*
X663768Y43439D01*
X664078Y45000D01*
Y207685D01*
X666928Y210535D01*
X667145Y210680D01*
X668041Y212019D01*
X668355Y213600D01*
X668041Y215180D01*
X667145Y216520D01*
X665806Y217415D01*
X664226Y217729D01*
D02*
G37*
G36*
X516000D02*
X514420Y217415D01*
X513080Y216520D01*
X512935Y216302D01*
X507116Y210483D01*
X506232Y209160D01*
X505922Y207599D01*
X505922Y207599D01*
Y46689D01*
X494797Y35565D01*
X494580Y35420D01*
X493685Y34080D01*
X493371Y32500D01*
X493685Y30920D01*
X494580Y29580D01*
X495920Y28685D01*
X497500Y28371D01*
X499080Y28685D01*
X500420Y29580D01*
X500565Y29797D01*
X512884Y42116D01*
X512884Y42116D01*
X513768Y43439D01*
X514078Y45000D01*
Y205910D01*
X518703Y210535D01*
X518920Y210680D01*
X519815Y212019D01*
X520130Y213600D01*
X519815Y215180D01*
X518920Y216520D01*
X517581Y217415D01*
X516000Y217729D01*
D02*
G37*
G36*
X396000Y219129D02*
X394420Y218815D01*
X393080Y217920D01*
X392935Y217703D01*
X387116Y211884D01*
X386232Y210561D01*
X385922Y209000D01*
X385922Y209000D01*
Y11689D01*
X382297Y8065D01*
X382080Y7920D01*
X381185Y6580D01*
X380871Y5000D01*
X381185Y3420D01*
X382080Y2080D01*
X383420Y1185D01*
X385000Y871D01*
X386580Y1185D01*
X387920Y2080D01*
X388065Y2297D01*
X392884Y7116D01*
X392884Y7116D01*
X393768Y8439D01*
X394078Y10000D01*
Y207311D01*
X398703Y211935D01*
X398920Y212080D01*
X399815Y213420D01*
X400129Y215000D01*
X399815Y216580D01*
X398920Y217920D01*
X397580Y218815D01*
X396000Y219129D01*
D02*
G37*
G36*
X-292500Y55353D02*
X-294548Y54945D01*
X-296285Y53785D01*
X-297445Y52048D01*
X-297853Y50000D01*
Y27217D01*
X-299717Y25353D01*
X-375876D01*
X-377925Y24945D01*
X-379661Y23785D01*
X-383785Y19662D01*
X-384945Y17925D01*
X-385353Y15876D01*
Y-124D01*
Y-15000D01*
X-384945Y-17048D01*
X-383785Y-18785D01*
X-378785Y-23785D01*
X-377048Y-24945D01*
X-375000Y-25353D01*
X-309717D01*
X-305353Y-29717D01*
Y-65000D01*
X-304945Y-67048D01*
X-303785Y-68785D01*
X-302048Y-69945D01*
X-300000Y-70353D01*
X-297952Y-69945D01*
X-296215Y-68785D01*
X-295055Y-67048D01*
X-294647Y-65000D01*
Y-27500D01*
X-295055Y-25452D01*
X-296215Y-23715D01*
X-303715Y-16215D01*
X-305452Y-15055D01*
X-307500Y-14647D01*
X-372783D01*
X-374647Y-12783D01*
Y-124D01*
Y13659D01*
X-373659Y14647D01*
X-297500D01*
X-295452Y15055D01*
X-293715Y16215D01*
X-288715Y21215D01*
X-287555Y22952D01*
X-287147Y25000D01*
Y50000D01*
X-287555Y52048D01*
X-288715Y53785D01*
X-290452Y54945D01*
X-292500Y55353D01*
D02*
G37*
G36*
X-92500Y434129D02*
X-94080Y433815D01*
X-95420Y432920D01*
X-96315Y431580D01*
X-96629Y430000D01*
X-96315Y428420D01*
X-95420Y427080D01*
X-95203Y426935D01*
X-94078Y425811D01*
Y360000D01*
X-94078Y360000D01*
X-93768Y358439D01*
X-92884Y357116D01*
X-82884Y347116D01*
X-81561Y346232D01*
X-80000Y345922D01*
X-80000Y345922D01*
X244311D01*
X261922Y328311D01*
Y70000D01*
X261922Y70000D01*
X262232Y68439D01*
X263116Y67116D01*
X263116Y67116D01*
X275922Y54311D01*
Y-40000D01*
X275922Y-40000D01*
X276232Y-41561D01*
X277116Y-42884D01*
X289616Y-55384D01*
X289616Y-55384D01*
X290939Y-56268D01*
X292500Y-56578D01*
X328810D01*
X333921Y-61689D01*
Y-71698D01*
X333871Y-71954D01*
X334185Y-73534D01*
X335080Y-74874D01*
X336419Y-75769D01*
X338000Y-76083D01*
X339580Y-75769D01*
X340920Y-74874D01*
X341815Y-73534D01*
X342129Y-71954D01*
X342078Y-71698D01*
Y-60000D01*
X342078Y-60000D01*
X341768Y-58439D01*
X340884Y-57116D01*
X340883Y-57116D01*
X333384Y-49616D01*
X332061Y-48732D01*
X330500Y-48422D01*
X330500Y-48422D01*
X294189D01*
X284078Y-38311D01*
Y56000D01*
X283768Y57561D01*
X282884Y58884D01*
X282884Y58884D01*
X270078Y71689D01*
Y330000D01*
X270078Y330000D01*
X269768Y331561D01*
X268884Y332884D01*
X268884Y332884D01*
X248884Y352884D01*
X247561Y353768D01*
X246000Y354078D01*
X246000Y354078D01*
X-78311D01*
X-85922Y361689D01*
Y427500D01*
X-85922Y427500D01*
X-86232Y429061D01*
X-87116Y430384D01*
X-89435Y432703D01*
X-89580Y432920D01*
X-90920Y433815D01*
X-92500Y434129D01*
D02*
G37*
G36*
X-655550Y558379D02*
X-657130Y558065D01*
X-658470Y557170D01*
X-659365Y555830D01*
X-659679Y554250D01*
X-659628Y553994D01*
Y533050D01*
X-659628Y533050D01*
X-659318Y531489D01*
X-658434Y530166D01*
X-604078Y475811D01*
Y-219744D01*
X-604129Y-220000D01*
X-603815Y-221580D01*
X-602920Y-222920D01*
X-601580Y-223815D01*
X-600000Y-224129D01*
X-598420Y-223815D01*
X-597080Y-222920D01*
X-596185Y-221580D01*
X-595871Y-220000D01*
X-595922Y-219743D01*
Y477500D01*
X-596232Y479061D01*
X-597116Y480384D01*
X-597116Y480384D01*
X-651471Y534739D01*
Y553994D01*
X-651420Y554250D01*
X-651735Y555830D01*
X-652630Y557170D01*
X-653969Y558065D01*
X-655550Y558379D01*
D02*
G37*
G36*
X-681950Y571079D02*
X-683530Y570765D01*
X-684870Y569870D01*
X-685765Y568530D01*
X-686079Y566950D01*
X-686028Y566694D01*
Y521950D01*
X-686028Y521950D01*
X-685718Y520389D01*
X-684834Y519066D01*
X-624078Y458311D01*
Y-240000D01*
X-624078Y-240000D01*
X-623768Y-241561D01*
X-622884Y-242884D01*
X-612884Y-252884D01*
X-612884Y-252884D01*
X-611561Y-253768D01*
X-610000Y-254078D01*
X-610000Y-254078D01*
X-432756D01*
X-432500Y-254129D01*
X-430920Y-253815D01*
X-429580Y-252920D01*
X-428685Y-251580D01*
X-428371Y-250000D01*
X-428685Y-248420D01*
X-429580Y-247080D01*
X-430920Y-246185D01*
X-432500Y-245871D01*
X-432756Y-245922D01*
X-608311D01*
X-615921Y-238311D01*
Y460000D01*
X-615921Y460000D01*
X-616232Y461561D01*
X-617116Y462884D01*
X-617116Y462884D01*
X-677872Y523639D01*
Y566694D01*
X-677821Y566950D01*
X-678135Y568530D01*
X-679030Y569870D01*
X-680370Y570765D01*
X-681950Y571079D01*
D02*
G37*
G36*
X-655550Y468379D02*
X-657130Y468065D01*
X-658470Y467170D01*
X-659365Y465830D01*
X-659679Y464250D01*
X-659628Y463994D01*
Y445550D01*
X-659628Y445550D01*
X-659318Y443989D01*
X-658434Y442666D01*
X-644078Y428311D01*
Y-250000D01*
X-644078Y-250000D01*
X-643768Y-251561D01*
X-642884Y-252884D01*
X-622884Y-272884D01*
X-622884Y-272884D01*
X-621561Y-273768D01*
X-620000Y-274078D01*
X-620000Y-274078D01*
X291244D01*
X291500Y-274129D01*
X293080Y-273815D01*
X294420Y-272920D01*
X295315Y-271580D01*
X295629Y-270000D01*
X295315Y-268420D01*
X294420Y-267080D01*
X293080Y-266185D01*
X291500Y-265871D01*
X291244Y-265922D01*
X-618311D01*
X-635922Y-248311D01*
Y430000D01*
X-636232Y431561D01*
X-637116Y432884D01*
X-637116Y432884D01*
X-651471Y447239D01*
Y463994D01*
X-651420Y464250D01*
X-651735Y465830D01*
X-652630Y467170D01*
X-653969Y468065D01*
X-655550Y468379D01*
D02*
G37*
G36*
X-681950Y481079D02*
X-683530Y480765D01*
X-684870Y479870D01*
X-685765Y478530D01*
X-686079Y476950D01*
X-686028Y476694D01*
Y431950D01*
X-686028Y431950D01*
X-685718Y430389D01*
X-684834Y429066D01*
X-664078Y408311D01*
Y-260000D01*
X-664078Y-260000D01*
X-663768Y-261561D01*
X-662884Y-262884D01*
X-632884Y-292884D01*
X-631561Y-293768D01*
X-630000Y-294078D01*
X-630000Y-294078D01*
X443744D01*
X444000Y-294129D01*
X445580Y-293815D01*
X446920Y-292920D01*
X447815Y-291580D01*
X448129Y-290000D01*
X447815Y-288420D01*
X446920Y-287080D01*
X445580Y-286185D01*
X444000Y-285871D01*
X443744Y-285922D01*
X-628311D01*
X-655921Y-258311D01*
Y410000D01*
X-655921Y410000D01*
X-656232Y411561D01*
X-657116Y412884D01*
X-677872Y433639D01*
Y476694D01*
X-677821Y476950D01*
X-678135Y478530D01*
X-679030Y479870D01*
X-680370Y480765D01*
X-681950Y481079D01*
D02*
G37*
G36*
X-680000Y244129D02*
X-681580Y243815D01*
X-682920Y242920D01*
X-683815Y241580D01*
X-684129Y240000D01*
X-684078Y239744D01*
X-684078Y-9997D01*
X-684079Y-10000D01*
X-684079Y-10000D01*
X-684078Y-270000D01*
X-684078Y-270000D01*
X-683768Y-271561D01*
X-682884Y-272884D01*
X-642884Y-312884D01*
X-642884Y-312884D01*
X-641561Y-313768D01*
X-640000Y-314078D01*
X-303948D01*
Y-317113D01*
X-303999Y-317369D01*
X-303684Y-318950D01*
X-302789Y-320289D01*
X-301450Y-321184D01*
X-299869Y-321499D01*
X-298289Y-321184D01*
X-296950Y-320289D01*
X-296054Y-318950D01*
X-295740Y-317369D01*
X-295791Y-317113D01*
Y-314078D01*
X567311D01*
X583435Y-330203D01*
X583580Y-330420D01*
X584920Y-331315D01*
X586500Y-331629D01*
X588080Y-331315D01*
X589420Y-330420D01*
X590315Y-329080D01*
X590629Y-327500D01*
X590315Y-325920D01*
X589420Y-324580D01*
X589203Y-324435D01*
X571884Y-307116D01*
X570561Y-306232D01*
X569000Y-305922D01*
X569000Y-305922D01*
X-638311D01*
X-675922Y-268311D01*
X-675922Y-10003D01*
X-675921Y-10000D01*
X-675922Y239744D01*
X-675871Y240000D01*
X-676185Y241580D01*
X-677080Y242920D01*
X-678420Y243815D01*
X-680000Y244129D01*
D02*
G37*
%LPD*%
G36*
X-572549Y525624D02*
Y524250D01*
X-572355Y523274D01*
X-571802Y522448D01*
X-522552Y473198D01*
X-521725Y472645D01*
X-520750Y472451D01*
X-450000D01*
X-449522Y472546D01*
X-448882Y471348D01*
X-450132Y470098D01*
X-556493D01*
X-575201Y488806D01*
Y523732D01*
X-574830Y523980D01*
X-573935Y525320D01*
X-573849Y525752D01*
X-572549Y525624D01*
D02*
G37*
D10*
X-395000Y546000D02*
Y617000D01*
X-399000Y621000D02*
X-395000Y617000D01*
X-392000Y525000D02*
X-390000Y527000D01*
X-467000Y525000D02*
X-392000D01*
X-390000Y527000D02*
Y620911D01*
X-387500Y520000D02*
X-385000Y522500D01*
X-409000Y520000D02*
X-387500D01*
X-385000Y522500D02*
Y620255D01*
Y515000D02*
X-380000Y520000D01*
X-404697Y515000D02*
X-385000D01*
X-380000Y520000D02*
Y619598D01*
X-415697Y504000D02*
X-404697Y515000D01*
X-464750Y504000D02*
X-415697D01*
X-404854Y492646D02*
X-392500Y505000D01*
X-454854Y492646D02*
X-404854D01*
X-392500Y505000D02*
X-380000D01*
X-457500Y490000D02*
X-454854Y492646D01*
X-380000Y505000D02*
X-370000Y515000D01*
X-399625Y510000D02*
X-382500D01*
X-401125Y508500D02*
X-399625Y510000D01*
X-382500D02*
X-375000Y517500D01*
Y618941D01*
X67604Y444896D02*
X107396D01*
X-97500Y610000D02*
X67604Y444896D01*
X-132500Y610000D02*
X-97500D01*
X130000Y467500D02*
Y496347D01*
X120300Y457800D02*
X130000Y467500D01*
X120300Y457800D02*
X120300D01*
X117195Y454695D02*
X120300Y457800D01*
X122750Y470688D02*
Y551564D01*
X102953Y450890D02*
X122750Y470688D01*
X116144Y453644D02*
X117195Y454695D01*
X107396Y444896D02*
X116144Y453644D01*
X-276995Y492000D02*
X-271195Y497800D01*
X-337000Y492000D02*
X-276995D01*
X-360000Y515000D02*
X-337000Y492000D01*
X-340250Y488000D02*
X-273000D01*
X-365000Y512750D02*
X-340250Y488000D01*
X-273000D02*
X-269000Y492000D01*
Y492500D01*
X-271195Y497800D02*
X-264925D01*
X-336271Y499200D02*
X-290609D01*
X-344351Y507280D02*
X-336271Y499200D01*
X-290609D02*
X-283505Y506304D01*
X-332500Y504696D02*
X-312535D01*
X58000Y587850D02*
Y593500D01*
X-269017Y513108D02*
X-264625Y517500D01*
X-333732Y513108D02*
X-269017D01*
X-344050Y523426D02*
X-333732Y513108D01*
X-283505Y506304D02*
X-265821D01*
X-264625Y507500D01*
X-348750Y520947D02*
X-332500Y504696D01*
X-222500Y461500D02*
Y540750D01*
X-365000Y512750D02*
Y617627D01*
X-264925Y497800D02*
X-264675Y497550D01*
X-344050Y523426D02*
Y614238D01*
X-449399Y508897D02*
X-420103D01*
X-451923Y511420D02*
X-449399Y508897D01*
X-464795Y511420D02*
X-451923D01*
X-467750Y496750D02*
X-413875D01*
X-472000Y501000D02*
X-467750Y496750D01*
X-413875D02*
X-413125Y497500D01*
X-472000Y501000D02*
Y520000D01*
X-467000Y525000D01*
X-420103Y508897D02*
X-409000Y520000D01*
X-209446Y459554D02*
Y547446D01*
X-212500Y550500D02*
X-209446Y547446D01*
X-229000Y440000D02*
X-209446Y459554D01*
X-232250Y451750D02*
X-222500Y461500D01*
X-300750Y451750D02*
X-232250D01*
X-312500Y440000D02*
X-300750Y451750D01*
X-229500Y446500D02*
X-217500Y458500D01*
X-286000Y446500D02*
X-229500D01*
X-292500Y440000D02*
X-286000Y446500D01*
X-272500Y440000D02*
X-229000D01*
X-235250Y456750D02*
X-227500Y464500D01*
X-315750Y456750D02*
X-235250D01*
X-227500Y464500D02*
Y544625D01*
X-332500Y440000D02*
X-315750Y456750D01*
X33000Y618500D02*
X58000Y593500D01*
X-217500Y458500D02*
Y544625D01*
X-339788Y618500D02*
X33000D01*
X-344050Y614238D02*
X-339788Y618500D01*
X-343157Y622500D02*
X35250D01*
X-344814Y626500D02*
X36907D01*
X-346470Y630500D02*
X38564D01*
X-348127Y634500D02*
X40220D01*
X-349784Y638500D02*
X41877D01*
X-351441Y642500D02*
X43534D01*
X-353098Y646500D02*
X45191D01*
X-354755Y650500D02*
X46848D01*
X-356412Y654500D02*
X48505D01*
X113657Y555000D02*
X118750Y549907D01*
X69500Y555000D02*
X113657D01*
X101250Y573064D02*
X122750Y551564D01*
X101250Y573064D02*
Y601755D01*
X118750Y476443D02*
Y549907D01*
X114750Y482443D02*
Y548250D01*
X112250Y550750D02*
X114750Y548250D01*
X67500Y550750D02*
X112250D01*
X92503Y450196D02*
X118750Y476443D01*
X82503Y450196D02*
X114750Y482443D01*
X61353Y556897D02*
X67500Y550750D01*
X65750Y565029D02*
X77750Y577029D01*
X65750Y558750D02*
Y565029D01*
Y558750D02*
X69500Y555000D01*
X61353Y556897D02*
Y566289D01*
X73750Y578686D01*
X48505Y654500D02*
X101250Y601755D01*
X46848Y650500D02*
X97250Y600098D01*
Y567750D02*
Y600098D01*
Y567750D02*
X102500Y562500D01*
X45191Y646500D02*
X92250Y599441D01*
Y562500D02*
Y599441D01*
X85750Y566454D02*
Y600284D01*
X43534Y642500D02*
X85750Y600284D01*
X82500Y563204D02*
X85750Y566454D01*
X82500Y562500D02*
Y563204D01*
X41877Y638500D02*
X81750Y598627D01*
Y571750D02*
Y598627D01*
X72500Y562500D02*
X81750Y571750D01*
X77750Y577029D02*
Y596970D01*
X40220Y634500D02*
X77750Y596970D01*
X73750Y578686D02*
Y595314D01*
X38564Y630500D02*
X73750Y595314D01*
X51907Y562500D02*
X69750Y580343D01*
X42500Y562500D02*
X51907D01*
X69750Y580343D02*
Y593657D01*
X36907Y626500D02*
X69750Y593657D01*
X35250Y622500D02*
X65500Y592250D01*
Y581750D02*
Y592250D01*
X56250Y572500D02*
X65500Y581750D01*
X-348750Y616907D02*
X-343157Y622500D01*
X52500Y572500D02*
X56250D01*
X-348750Y520947D02*
Y616907D01*
X-390000Y620911D02*
X-356412Y654500D01*
X-385000Y620255D02*
X-354755Y650500D01*
X-380000Y619598D02*
X-353098Y646500D01*
X-375000Y618941D02*
X-351441Y642500D01*
X-370000Y618284D02*
X-349784Y638500D01*
X-370000Y515000D02*
Y618284D01*
X-365000Y617627D02*
X-348127Y634500D01*
X-360000Y515000D02*
Y616970D01*
X-346470Y630500D01*
X-355000Y517929D02*
Y616314D01*
X-344814Y626500D01*
X-413125Y497500D02*
X-406125Y504500D01*
X-355000Y517929D02*
X-344571Y507500D01*
D11*
X259000Y535000D02*
X275753Y551753D01*
X-586000Y581000D02*
X-545000Y540000D01*
X-739000Y581000D02*
X-586000D01*
X-749750Y570250D02*
X-739000Y581000D01*
X-264675Y507550D02*
X-264625Y507500D01*
X-344571D02*
X-344351Y507280D01*
X-264675Y497550D02*
X-264625Y497500D01*
X-450550Y449500D02*
X-425250Y474800D01*
X-570500Y449500D02*
X-450550D01*
X-577750Y442250D02*
X-570500Y449500D01*
X-449983Y459500D02*
X-431950Y477533D01*
X-572980Y459500D02*
X-449983D01*
X-577750Y464270D02*
X-572980Y459500D01*
X-449076Y467549D02*
X-437000Y479625D01*
X-557549Y467549D02*
X-449076D01*
X-577750Y487750D02*
X-557549Y467549D01*
X-431950Y477533D02*
Y483575D01*
X-432000Y483625D02*
X-431950Y483575D01*
X-425250Y474800D02*
Y475429D01*
X-444132Y546507D02*
X-434507D01*
X-434500Y546500D01*
X-424451Y546875D02*
Y564451D01*
X-439500Y564500D02*
X-429450Y554450D01*
Y537925D02*
Y554450D01*
X-432000Y535375D02*
X-429450Y537925D01*
X-436250Y576250D02*
X-424451Y564451D01*
X-539500Y564500D02*
X-439500D01*
X-450375Y552750D02*
X-444132Y546507D01*
X-542750Y552750D02*
X-450375D01*
X-583750Y593750D02*
X-542750Y552750D01*
X-581500Y606500D02*
X-539500Y564500D01*
X-545000Y540000D02*
X-446625D01*
X-442000Y535375D01*
X-536250Y576250D02*
X-436250D01*
X-577750Y617750D02*
X-536250Y576250D01*
X-741250Y593750D02*
X-583750D01*
X-759750Y575250D02*
X-741250Y593750D01*
X-753500Y606500D02*
X-581500D01*
X-770000Y590000D02*
X-753500Y606500D01*
X-757250Y617750D02*
X-577750D01*
X-785000Y590000D02*
X-757250Y617750D01*
X-749750Y526900D02*
Y570250D01*
X-785000Y475000D02*
Y590000D01*
Y475000D02*
X-749750Y439750D01*
X268750Y556500D02*
Y559250D01*
X253000Y540750D02*
X268750Y556500D01*
X253000Y535000D02*
Y540750D01*
X-520750Y475000D02*
X-450000D01*
X-570000Y524250D02*
X-520750Y475000D01*
X-570000Y524250D02*
Y546520D01*
X295226Y597476D02*
Y628798D01*
X245753Y548003D02*
X295226Y597476D01*
X245753Y534603D02*
Y548003D01*
X-770000Y474520D02*
Y590000D01*
X275753Y551753D02*
Y559335D01*
X-749750Y436900D02*
Y439750D01*
X-770000Y474520D02*
X-759750Y464270D01*
Y554270D02*
Y575250D01*
X-450000Y475000D02*
X-442000Y483000D01*
X-577750Y436900D02*
Y442250D01*
Y554270D02*
X-570000Y546520D01*
X-577750Y487750D02*
Y526900D01*
D13*
X40000Y277500D02*
X47500D01*
X32500D02*
X40000D01*
X-130000D02*
X32500D01*
X-137500D02*
X-130000D01*
X-145000D02*
X-137500D01*
D14*
X-486550Y343450D02*
X-470000Y360000D01*
X-486550Y73450D02*
Y343450D01*
X-490000Y70000D02*
X-486550Y73450D01*
X118122Y44925D02*
Y265711D01*
X88833Y295000D02*
X118122Y265711D01*
X-145000Y295000D02*
X88833D01*
X510000Y207599D02*
X516000Y213600D01*
X510000Y45000D02*
Y207599D01*
X660000Y209374D02*
X664226Y213600D01*
X390000Y209000D02*
X396000Y215000D01*
X55000Y211000D02*
X59000Y215000D01*
X-85000Y204000D02*
X-79000Y210000D01*
X-210000Y209937D02*
X-206587Y213350D01*
X-210000Y80000D02*
Y209937D01*
X-217450Y605050D02*
X-168950D01*
X-222500Y600000D02*
X-217450Y605050D01*
X-168950D02*
X-168000Y606000D01*
X-309000D02*
X-238000D01*
X-600000Y-220000D02*
Y477500D01*
X-655550Y533050D02*
X-600000Y477500D01*
X-655550Y533050D02*
Y554250D01*
X338000Y-71954D02*
Y-60000D01*
X330500Y-52500D02*
X338000Y-60000D01*
X292500Y-52500D02*
X330500D01*
X280000Y-40000D02*
X292500Y-52500D01*
X-152500Y302500D02*
X-145000Y295000D01*
X-15500Y262500D02*
X10000Y237000D01*
X-106500Y262500D02*
X-15500D01*
X217750Y457250D02*
X265000Y504500D01*
X146250Y457250D02*
X217750Y457250D01*
X127000Y438000D02*
X146250Y457250D01*
X265000Y504500D02*
Y507000D01*
X715647Y116900D02*
Y394353D01*
X700000Y410000D02*
X715647Y394353D01*
X530000Y79500D02*
X537500Y72000D01*
X530000Y79500D02*
Y350000D01*
X-10000Y70000D02*
Y230000D01*
X-30000Y250000D02*
X-10000Y230000D01*
X10000Y70000D02*
Y237000D01*
X-680000Y-10000D02*
X-680000Y-270000D01*
X-680000Y-10000D02*
X-680000Y-10000D01*
X-680000Y-270000D02*
X-640000Y-310000D01*
X206000Y55000D02*
Y215000D01*
X188550Y37550D02*
X206000Y55000D01*
X-420000Y303749D02*
X-383749Y340000D01*
X-420000Y91000D02*
Y303749D01*
X-441000Y70000D02*
X-420000Y91000D01*
X-470000Y70000D02*
X-441000D01*
X-383749Y340000D02*
X-310000D01*
X55000Y50000D02*
Y211000D01*
X42500Y37500D02*
X55000Y50000D01*
X-50000Y67000D02*
Y209852D01*
X-60148Y220000D02*
X-50000Y209852D01*
X-190000Y220000D02*
X-60148D01*
X-30000Y70000D02*
Y220326D01*
X-44674Y235000D02*
X-30000Y220326D01*
X-175000Y235000D02*
X-44674D01*
X280000Y-40000D02*
Y56000D01*
X266000Y70000D02*
X280000Y56000D01*
X266000Y70000D02*
Y330000D01*
X243109Y44938D02*
X243122Y44925D01*
X243109Y44938D02*
X243109D01*
X232062D02*
X243109D01*
X226000Y51000D02*
X232062Y44938D01*
X226000Y51000D02*
Y290000D01*
X246000Y64000D02*
X260000Y50000D01*
X206000Y310000D02*
X226000Y290000D01*
X226000Y330000D02*
X246000Y310000D01*
Y350000D02*
X266000Y330000D01*
X62503Y438000D02*
X127000D01*
X12503Y488000D02*
X62503Y438000D01*
X569000Y-310000D02*
X586500Y-327500D01*
X-299869Y-310000D02*
X569000D01*
X-391750Y49687D02*
Y215000D01*
X-391750Y215000D02*
X-391750Y215000D01*
X-620000Y-270000D02*
X291500D01*
X-640000Y-250000D02*
X-620000Y-270000D01*
X-299869Y-317369D02*
Y-310000D01*
X-640000D02*
X-299869D01*
X-600000Y-220000D02*
X-600000Y-220000D01*
X-610000Y-250000D02*
X-432500D01*
X-620000Y-240000D02*
X-610000Y-250000D01*
X-630000Y-290000D02*
X444000D01*
X-660000Y-260000D02*
X-630000Y-290000D01*
X-192500Y252500D02*
X-175000Y235000D01*
X-85000Y85000D02*
Y204000D01*
X-212500Y242500D02*
X-190000Y220000D01*
X-100000Y70000D02*
X-85000Y85000D01*
X-110000Y70000D02*
X-100000D01*
X652500Y37500D02*
X660000Y45000D01*
Y209374D01*
X497500Y32500D02*
X510000Y45000D01*
X390000Y10000D02*
Y209000D01*
X168000Y37550D02*
X188550D01*
X-550000Y210000D02*
X-545000Y215000D01*
X-550000Y50000D02*
Y210000D01*
X385000Y5000D02*
X390000Y10000D01*
X-220000Y60000D02*
X-70000D01*
X-232500Y72500D02*
X-220000Y60000D01*
X-232500Y72500D02*
Y430000D01*
X-20000Y410000D02*
X700000D01*
X-32500Y422500D02*
X-20000Y410000D01*
X-32500Y422500D02*
Y430000D01*
X-40000Y390000D02*
X530000D01*
X-52500Y402500D02*
X-40000Y390000D01*
X-52500Y402500D02*
Y430000D01*
X530000Y390000D02*
X550500Y369500D01*
X-212500Y242500D02*
Y430000D01*
X-192500Y252500D02*
Y430000D01*
X-160000Y250000D02*
X-30000D01*
X-172500Y262500D02*
X-160000Y250000D01*
X-172500Y262500D02*
Y430000D01*
X-152500Y302500D02*
Y430000D01*
X-132500Y322500D02*
X-120000Y310000D01*
X206000D01*
X-132500Y322500D02*
Y430000D01*
X-100000Y330000D02*
X226000D01*
X-112500Y342500D02*
X-100000Y330000D01*
X-112500Y342500D02*
Y430000D01*
X-90000Y360000D02*
Y427500D01*
Y360000D02*
X-80000Y350000D01*
X246000D01*
X-92500Y430000D02*
X-90000Y427500D01*
X-70000Y380000D02*
Y427500D01*
Y380000D02*
X-60000Y370000D01*
X510000D01*
X-72500Y430000D02*
X-70000Y427500D01*
X510000Y370000D02*
X530000Y350000D01*
X-660000Y-260000D02*
Y410000D01*
X-640000Y-250000D02*
Y430000D01*
X-234900Y44900D02*
X-160053D01*
X-252500Y62500D02*
X-234900Y44900D01*
X-252500Y62500D02*
Y430000D01*
X-272500Y377500D02*
Y430000D01*
X-310000Y340000D02*
X-272500Y377500D01*
X-292500Y387500D02*
Y430000D01*
X-320000Y360000D02*
X-292500Y387500D01*
X-470000Y360000D02*
X-320000D01*
X-312500Y397500D02*
Y430000D01*
X-330000Y380000D02*
X-312500Y397500D01*
X-480000Y380000D02*
X-330000D01*
X-490000Y400000D02*
X-340000D01*
X-530000Y360000D02*
X-490000Y400000D01*
X-530000Y20000D02*
Y360000D01*
X-510000Y350000D02*
X-480000Y380000D01*
X-510000Y10000D02*
Y350000D01*
X-530000Y-10000D02*
X-510000Y10000D01*
X-580000Y-10000D02*
X-530000D01*
X-680000Y240000D02*
X-680000Y-10000D01*
X-681950Y521950D02*
Y566950D01*
Y521950D02*
X-620000Y460000D01*
Y-240000D02*
Y460000D01*
X-655550Y445550D02*
X-640000Y430000D01*
X-655550Y445550D02*
Y464250D01*
X-681950Y431950D02*
Y476950D01*
Y431950D02*
X-660000Y410000D01*
X-540000Y10000D02*
X-530000Y20000D01*
X-580000Y10000D02*
X-540000D01*
X550500Y369500D02*
X550500Y72000D01*
X-57000Y60000D02*
X-50000Y67000D01*
X-332500Y407500D02*
Y430000D01*
X-340000Y400000D02*
X-332500Y407500D01*
X246000Y64000D02*
Y310000D01*
X-238000Y606000D02*
X-228000D01*
X-305000Y600000D02*
X-222500D01*
D17*
X-306500Y558550D02*
X-176550D01*
X342680Y447680D02*
Y497173D01*
X320000Y425000D02*
X342680Y447680D01*
X317636Y431000D02*
X333059Y446423D01*
Y502500D01*
X324809Y445809D02*
Y557052D01*
X318000Y447000D02*
Y557750D01*
X314000Y443000D02*
X318000Y447000D01*
X-176550Y558550D02*
X-162500Y544500D01*
X-150000Y262500D02*
X-106500D01*
X-162500Y275000D02*
X-150000Y262500D01*
X-162500Y275000D02*
Y544500D01*
X160000Y425000D02*
X320000Y425000D01*
X165000Y431000D02*
X317636Y431000D01*
X165000Y443000D02*
X314000Y443000D01*
X160000Y437000D02*
X316000Y437000D01*
X324809Y445809D01*
Y557052D02*
X325000Y557243D01*
D18*
X-222500Y540750D02*
Y552500D01*
X-222500Y552500D02*
X-222500Y552500D01*
D22*
X-510000Y-520400D02*
D03*
X-387999Y659999D02*
D03*
X374999D02*
D03*
X390000Y659600D02*
D03*
X350000D02*
D03*
X330000D02*
D03*
X310000D02*
D03*
X230000D02*
D03*
X250000D02*
D03*
X290000D02*
D03*
X270000D02*
D03*
X190000D02*
D03*
X210000D02*
D03*
X150000D02*
D03*
X170000D02*
D03*
X130000D02*
D03*
X70000D02*
D03*
X110000D02*
D03*
X90000D02*
D03*
X-370000D02*
D03*
X-410000D02*
D03*
X-490000D02*
D03*
X-470000D02*
D03*
X-430000D02*
D03*
X-450000D02*
D03*
X-530000D02*
D03*
X-510000D02*
D03*
X-570000D02*
D03*
X-550000D02*
D03*
X-590000D02*
D03*
X860000Y609600D02*
D03*
Y589600D02*
D03*
Y549600D02*
D03*
Y569600D02*
D03*
Y529600D02*
D03*
Y489600D02*
D03*
Y509600D02*
D03*
X-860000Y629600D02*
D03*
Y609600D02*
D03*
Y569600D02*
D03*
Y549600D02*
D03*
Y529600D02*
D03*
Y509600D02*
D03*
Y589600D02*
D03*
X-849858Y-508542D02*
D03*
X830000Y659600D02*
D03*
X860000Y629600D02*
D03*
X849858Y647742D02*
D03*
X860000Y-490400D02*
D03*
X830000Y-520400D02*
D03*
X848142Y-510258D02*
D03*
X-830000Y-520400D02*
D03*
X-860000Y-490400D02*
D03*
X-848142Y649458D02*
D03*
X-830000Y659600D02*
D03*
X-860000Y489600D02*
D03*
X860000Y129600D02*
D03*
Y109600D02*
D03*
Y69600D02*
D03*
Y89600D02*
D03*
Y49600D02*
D03*
Y249600D02*
D03*
Y229600D02*
D03*
Y189600D02*
D03*
Y209600D02*
D03*
Y149600D02*
D03*
Y169600D02*
D03*
Y289600D02*
D03*
Y269600D02*
D03*
Y329600D02*
D03*
Y309600D02*
D03*
Y349600D02*
D03*
Y369600D02*
D03*
Y389600D02*
D03*
Y449600D02*
D03*
Y429600D02*
D03*
Y409600D02*
D03*
X860000Y29600D02*
D03*
Y9600D02*
D03*
X860000Y-50400D02*
D03*
Y-430400D02*
D03*
Y-450400D02*
D03*
Y-410400D02*
D03*
Y-390400D02*
D03*
Y-370400D02*
D03*
Y-330400D02*
D03*
Y-350400D02*
D03*
Y-290400D02*
D03*
Y-310400D02*
D03*
Y-190400D02*
D03*
Y-170400D02*
D03*
Y-230400D02*
D03*
Y-210400D02*
D03*
Y-250400D02*
D03*
Y-270400D02*
D03*
Y-70400D02*
D03*
Y-110400D02*
D03*
Y-90400D02*
D03*
Y-130400D02*
D03*
Y-150400D02*
D03*
Y-30400D02*
D03*
Y-10400D02*
D03*
Y469600D02*
D03*
X-860000Y-10400D02*
D03*
Y-30400D02*
D03*
Y-150400D02*
D03*
Y-130400D02*
D03*
Y-90400D02*
D03*
Y-110400D02*
D03*
Y-70400D02*
D03*
Y-270400D02*
D03*
Y-250400D02*
D03*
Y-210400D02*
D03*
Y-230400D02*
D03*
Y-170400D02*
D03*
Y-190400D02*
D03*
Y-310400D02*
D03*
Y-290400D02*
D03*
Y-350400D02*
D03*
Y-330400D02*
D03*
Y-370400D02*
D03*
Y-390400D02*
D03*
Y-410400D02*
D03*
Y-450400D02*
D03*
Y-430400D02*
D03*
Y-50400D02*
D03*
X-860000Y9600D02*
D03*
Y29600D02*
D03*
X-860000Y409600D02*
D03*
Y429600D02*
D03*
Y449600D02*
D03*
Y389600D02*
D03*
Y369600D02*
D03*
Y349600D02*
D03*
Y309600D02*
D03*
Y329600D02*
D03*
Y269600D02*
D03*
Y289600D02*
D03*
Y169600D02*
D03*
Y149600D02*
D03*
Y209600D02*
D03*
Y189600D02*
D03*
Y229600D02*
D03*
Y249600D02*
D03*
Y49600D02*
D03*
Y89600D02*
D03*
Y69600D02*
D03*
Y109600D02*
D03*
Y129600D02*
D03*
Y469600D02*
D03*
X-810000Y659600D02*
D03*
X-790000D02*
D03*
X-770000D02*
D03*
X-730000D02*
D03*
X-750000D02*
D03*
X-690000D02*
D03*
X-710000D02*
D03*
X-630000D02*
D03*
X-610000D02*
D03*
X-650000D02*
D03*
X-670000D02*
D03*
X430000D02*
D03*
X410000D02*
D03*
X550000D02*
D03*
X530000D02*
D03*
X490000D02*
D03*
X510000D02*
D03*
X450000D02*
D03*
X470000D02*
D03*
X670000D02*
D03*
X650000D02*
D03*
X610000D02*
D03*
X630000D02*
D03*
X570000D02*
D03*
X590000D02*
D03*
X710000D02*
D03*
X690000D02*
D03*
X750000D02*
D03*
X730000D02*
D03*
X770000D02*
D03*
X790000D02*
D03*
X810000D02*
D03*
X860000Y-470400D02*
D03*
X810000Y-520400D02*
D03*
X790000D02*
D03*
X770000D02*
D03*
X750000D02*
D03*
X710000D02*
D03*
X590000D02*
D03*
X570000D02*
D03*
X630000D02*
D03*
X510000D02*
D03*
X490000D02*
D03*
X530000D02*
D03*
X550000D02*
D03*
X350000D02*
D03*
X330000D02*
D03*
X390000D02*
D03*
X370000D02*
D03*
X410000D02*
D03*
X270000D02*
D03*
X250000D02*
D03*
X290000D02*
D03*
X310000D02*
D03*
X110000D02*
D03*
X150000D02*
D03*
X130000D02*
D03*
X170000D02*
D03*
X190000D02*
D03*
X90000D02*
D03*
X-90000D02*
D03*
X-190000D02*
D03*
X-170000D02*
D03*
X-130000D02*
D03*
X-150000D02*
D03*
X-110000D02*
D03*
X-310000D02*
D03*
X-290000D02*
D03*
X-250000D02*
D03*
X-270000D02*
D03*
X-410000D02*
D03*
X-370000D02*
D03*
X-390000D02*
D03*
X-330000D02*
D03*
X-350000D02*
D03*
X-550000D02*
D03*
X-530000D02*
D03*
X-490000D02*
D03*
X-630000D02*
D03*
X-570000D02*
D03*
X-590000D02*
D03*
X-710000D02*
D03*
X-750000D02*
D03*
X-770000D02*
D03*
X-790000D02*
D03*
X-810000D02*
D03*
X-860000Y-470400D02*
D03*
X50000Y-520400D02*
D03*
X10000D02*
D03*
X30000D02*
D03*
X70000D02*
D03*
X-30000D02*
D03*
X-70000D02*
D03*
X-50000D02*
D03*
X-10000D02*
D03*
D100*
X253570Y602700D02*
D03*
X295226Y631148D02*
D03*
X336628Y602700D02*
D03*
D102*
X-301375Y229600D02*
D03*
X298625D02*
D03*
X-451375D02*
D03*
X448625D02*
D03*
X-815000Y422100D02*
D03*
X815000Y422100D02*
D03*
Y229600D02*
D03*
X-815000D02*
D03*
Y-155400D02*
D03*
Y37100D02*
D03*
X815000D02*
D03*
Y-155400D02*
D03*
Y-347900D02*
D03*
X-815000D02*
D03*
X0D02*
D03*
Y0D02*
D03*
X-280000Y-490400D02*
D03*
X815000Y-475400D02*
D03*
Y614600D02*
D03*
X-815000Y614600D02*
D03*
X-160000Y-490400D02*
D03*
X-385000D02*
D03*
X-505000D02*
D03*
X-610000D02*
D03*
X-730000D02*
D03*
X280000D02*
D03*
X160000D02*
D03*
X385000D02*
D03*
X505000D02*
D03*
X610000D02*
D03*
X730000D02*
D03*
X-815000Y-475400D02*
D03*
D104*
X-396000Y545000D02*
D03*
X-399000Y621000D02*
D03*
X-132500Y610000D02*
D03*
X130000Y496347D02*
D03*
X-280250Y497500D02*
D03*
X-307000Y555000D02*
D03*
Y575000D02*
D03*
Y581000D02*
D03*
X-330000Y558000D02*
D03*
X-333000Y521000D02*
D03*
X-276000D02*
D03*
X-298500Y506304D02*
D03*
X-291000D02*
D03*
X-312535Y504500D02*
D03*
X-264625Y517500D02*
D03*
X-495000Y294505D02*
D03*
X465000Y295000D02*
D03*
X445000D02*
D03*
X425000D02*
D03*
X405000D02*
D03*
X385000D02*
D03*
X365000D02*
D03*
X345000D02*
D03*
X325000D02*
D03*
X305000D02*
D03*
X285000D02*
D03*
X-750000Y352500D02*
D03*
X-735000D02*
D03*
X-717000Y320000D02*
D03*
Y330000D02*
D03*
Y340000D02*
D03*
Y352500D02*
D03*
X-223000Y295221D02*
D03*
X-202899D02*
D03*
X-182500D02*
D03*
X99903Y359750D02*
D03*
X111933D02*
D03*
X42500Y320000D02*
D03*
X117500D02*
D03*
X127500D02*
D03*
X137500D02*
D03*
X102500Y295000D02*
D03*
X-765000Y291850D02*
D03*
X-722500D02*
D03*
X-501473Y340605D02*
D03*
X-495000Y351495D02*
D03*
X-432500Y294505D02*
D03*
Y301505D02*
D03*
X-462500Y311505D02*
D03*
Y319000D02*
D03*
Y325822D02*
D03*
Y332450D02*
D03*
X-267500Y295000D02*
D03*
X-282500D02*
D03*
X-301375Y294505D02*
D03*
X-325000D02*
D03*
X-347004D02*
D03*
X-369750D02*
D03*
X-395000D02*
D03*
X-142250Y315000D02*
D03*
Y322500D02*
D03*
Y330000D02*
D03*
Y337500D02*
D03*
X-142500Y345000D02*
D03*
X-142250Y353275D02*
D03*
X-116500Y330000D02*
D03*
X-112500Y322500D02*
D03*
X205000Y292500D02*
D03*
X195000D02*
D03*
X185000D02*
D03*
X175000D02*
D03*
X165000D02*
D03*
X155000D02*
D03*
X145000D02*
D03*
X135000D02*
D03*
X517500Y350000D02*
D03*
X507500D02*
D03*
X497500D02*
D03*
X487500D02*
D03*
X517500Y310000D02*
D03*
X507500D02*
D03*
X497500D02*
D03*
X487500D02*
D03*
X692500Y312500D02*
D03*
X737500Y290000D02*
D03*
X797500Y295000D02*
D03*
X795000Y342500D02*
D03*
Y372500D02*
D03*
X780000Y317500D02*
D03*
Y325000D02*
D03*
Y332500D02*
D03*
Y340000D02*
D03*
X542413Y250000D02*
D03*
X484000Y213600D02*
D03*
Y236600D02*
D03*
X333000Y213600D02*
D03*
Y236600D02*
D03*
X176000Y213600D02*
D03*
Y236600D02*
D03*
X-209587Y229849D02*
D03*
X-736250Y632100D02*
D03*
X463750Y472100D02*
D03*
X183750Y-127900D02*
D03*
X-576250Y-47900D02*
D03*
X103750Y-407900D02*
D03*
X743750Y-127900D02*
D03*
X-256250Y-167900D02*
D03*
X823750Y112100D02*
D03*
X263750Y-407900D02*
D03*
X463750Y32100D02*
D03*
Y-367900D02*
D03*
X-256250Y-327900D02*
D03*
X-296250Y-87900D02*
D03*
X-456250Y-367900D02*
D03*
X583750Y32100D02*
D03*
X543750Y-207900D02*
D03*
X-96250Y32100D02*
D03*
X-296250Y-127900D02*
D03*
X-136250Y192100D02*
D03*
X-576250Y112100D02*
D03*
X23750Y-87900D02*
D03*
X-776250Y-367900D02*
D03*
X423750Y432100D02*
D03*
X-56250Y-487900D02*
D03*
X-776250Y-207900D02*
D03*
Y-447900D02*
D03*
X143750Y592100D02*
D03*
X503750Y432100D02*
D03*
X-176250Y-367900D02*
D03*
X823750Y-47900D02*
D03*
X-816250Y192100D02*
D03*
X303750Y32100D02*
D03*
X-776250Y-247900D02*
D03*
X783750Y632100D02*
D03*
X-816250Y-247900D02*
D03*
X543750Y-167900D02*
D03*
X783750Y192100D02*
D03*
X-336250Y-367900D02*
D03*
X-176250Y-327900D02*
D03*
X-736250Y72100D02*
D03*
X-536250Y-47900D02*
D03*
X23750Y232100D02*
D03*
X-816250Y292100D02*
D03*
X783750Y-327900D02*
D03*
X23750Y72100D02*
D03*
X783750Y-367900D02*
D03*
X543750Y-327900D02*
D03*
X-576250Y-447900D02*
D03*
X-776250Y632100D02*
D03*
X-136250Y-447900D02*
D03*
X463750Y-7900D02*
D03*
Y-247900D02*
D03*
X-416250Y-407900D02*
D03*
X823750Y312100D02*
D03*
X743750Y472100D02*
D03*
X-136250Y-7900D02*
D03*
X383750Y-47900D02*
D03*
X-416250Y-447900D02*
D03*
X503750Y-247900D02*
D03*
X143750Y-367900D02*
D03*
X463750Y192100D02*
D03*
X-416250Y-367900D02*
D03*
X-136250Y-407900D02*
D03*
X-616250Y-367900D02*
D03*
X-216250Y-47900D02*
D03*
X463750Y-407900D02*
D03*
X-256250Y-87900D02*
D03*
X263750Y-167900D02*
D03*
X303750D02*
D03*
X23750Y-327900D02*
D03*
X-776250Y232100D02*
D03*
X503750Y-407900D02*
D03*
X-816250Y152100D02*
D03*
X583750Y72100D02*
D03*
X-56250Y-327900D02*
D03*
X-776250Y-47900D02*
D03*
X183750Y-167900D02*
D03*
X-776250Y32100D02*
D03*
X743750Y-327900D02*
D03*
X-336250Y-447900D02*
D03*
X-96250Y592100D02*
D03*
X-416250Y-247900D02*
D03*
X-136250Y-207900D02*
D03*
X-616250Y512100D02*
D03*
X-776250Y-487900D02*
D03*
X103750D02*
D03*
X343750Y112100D02*
D03*
X463750Y72100D02*
D03*
X423750Y192100D02*
D03*
X-496250Y-367900D02*
D03*
X23750Y-487900D02*
D03*
X263750Y-247900D02*
D03*
X303750Y-327900D02*
D03*
X-176250Y-407900D02*
D03*
X-136250Y32100D02*
D03*
X-816250Y472100D02*
D03*
X743750Y-47900D02*
D03*
X423750Y-447900D02*
D03*
X663750Y-87900D02*
D03*
X223750D02*
D03*
X-296250Y192100D02*
D03*
X263750Y-327900D02*
D03*
X183750Y-367900D02*
D03*
X463750Y-207900D02*
D03*
X-176250D02*
D03*
X-816250Y-47900D02*
D03*
X143750Y-447900D02*
D03*
X463750Y512100D02*
D03*
X63750Y-447900D02*
D03*
X-96250Y-407900D02*
D03*
X-376250Y-447900D02*
D03*
X-296250Y-327900D02*
D03*
X-576250Y32100D02*
D03*
X383750Y512100D02*
D03*
X-456250Y32100D02*
D03*
X823750Y152100D02*
D03*
X23750Y-447900D02*
D03*
X-656250Y632100D02*
D03*
X103750Y-207900D02*
D03*
X-696250Y-447900D02*
D03*
X423750Y72100D02*
D03*
X-416250Y-487900D02*
D03*
X583750Y-47900D02*
D03*
X303750Y-367900D02*
D03*
X543750Y-127900D02*
D03*
X-816250Y352100D02*
D03*
X-136250Y-127900D02*
D03*
X783750Y-487900D02*
D03*
X743750Y-7900D02*
D03*
X-776250Y-87900D02*
D03*
X-336250Y112100D02*
D03*
X223750Y-367900D02*
D03*
X183750Y72100D02*
D03*
X-696250Y-47900D02*
D03*
X143750Y-327900D02*
D03*
X663750Y32100D02*
D03*
X63750Y-367900D02*
D03*
X343750Y-487900D02*
D03*
X63750Y-327900D02*
D03*
X263750Y-127900D02*
D03*
X-16250Y-407900D02*
D03*
X-696250Y-87900D02*
D03*
X663750Y-47900D02*
D03*
X-176250Y-167900D02*
D03*
X-656250Y432100D02*
D03*
X183750Y-207900D02*
D03*
X383750Y-447900D02*
D03*
X-736250Y-407900D02*
D03*
X823750Y392100D02*
D03*
X-576250Y72100D02*
D03*
X823750D02*
D03*
Y-87900D02*
D03*
X343750Y-447900D02*
D03*
X503750Y-167900D02*
D03*
X263750Y-447900D02*
D03*
X383750Y-207900D02*
D03*
X-176250Y-447900D02*
D03*
X343750Y-407900D02*
D03*
X783750Y232100D02*
D03*
X743750Y32100D02*
D03*
X-536250Y-447900D02*
D03*
X183750D02*
D03*
X-56250D02*
D03*
X-536250Y512100D02*
D03*
X823750Y-7900D02*
D03*
X783750Y592100D02*
D03*
X-776250Y-7900D02*
D03*
X343750Y-127900D02*
D03*
X383750Y-367900D02*
D03*
X-96250Y-487900D02*
D03*
X303750Y192100D02*
D03*
X503750Y-447900D02*
D03*
X703750Y-127900D02*
D03*
X183750Y-327900D02*
D03*
X743750Y-287900D02*
D03*
X543750Y-447900D02*
D03*
X-776250Y112100D02*
D03*
X623750Y-127900D02*
D03*
X543750Y-487900D02*
D03*
X-416250Y32100D02*
D03*
X-696250Y-367900D02*
D03*
X-736250Y-327900D02*
D03*
X423750Y-407900D02*
D03*
X703750Y-87900D02*
D03*
X383750Y-327900D02*
D03*
X503750Y-127900D02*
D03*
X-416250Y-7900D02*
D03*
X463750Y-447900D02*
D03*
X183750Y632100D02*
D03*
X743750Y272100D02*
D03*
X423750Y472100D02*
D03*
X743750Y192100D02*
D03*
X503750Y-287900D02*
D03*
X-136250Y-167900D02*
D03*
X103750Y72100D02*
D03*
X-616250Y-327900D02*
D03*
X-816250Y-7900D02*
D03*
X743750Y232100D02*
D03*
X503750Y472100D02*
D03*
X-256250Y-367900D02*
D03*
X623750Y432100D02*
D03*
X103750Y-87900D02*
D03*
X-816250Y72100D02*
D03*
X623750Y-287900D02*
D03*
X-816250Y552100D02*
D03*
X783750Y-247900D02*
D03*
X543750Y-87900D02*
D03*
X423750Y-7900D02*
D03*
X463750Y-487900D02*
D03*
X-136250Y-87900D02*
D03*
X-336250Y-487900D02*
D03*
X-56250Y-247900D02*
D03*
X823750Y352100D02*
D03*
X-56250Y-407900D02*
D03*
X823750Y-207900D02*
D03*
X343750Y432100D02*
D03*
X-96250Y-367900D02*
D03*
Y-447900D02*
D03*
X23750Y-47900D02*
D03*
X103750Y-447900D02*
D03*
X-136250Y-367900D02*
D03*
X783750Y152100D02*
D03*
X-736250Y232100D02*
D03*
X783750Y-447900D02*
D03*
X303750Y-127900D02*
D03*
X-776250Y-327900D02*
D03*
Y152100D02*
D03*
X743750Y-87900D02*
D03*
Y432100D02*
D03*
X343750Y192100D02*
D03*
X743750Y-447900D02*
D03*
X-616250D02*
D03*
X823750Y-247900D02*
D03*
X-696250Y632100D02*
D03*
X-536250Y-367900D02*
D03*
X423750Y32100D02*
D03*
X-496250Y592100D02*
D03*
X743750Y-367900D02*
D03*
X383750Y-407900D02*
D03*
X-576250Y-487900D02*
D03*
X703750Y-407900D02*
D03*
X823750Y272100D02*
D03*
X383750Y-127900D02*
D03*
X463750Y432100D02*
D03*
X-576250Y232100D02*
D03*
X-496250Y-167900D02*
D03*
Y512100D02*
D03*
X463750Y-327900D02*
D03*
X423750Y-127900D02*
D03*
X-96250Y-327900D02*
D03*
X743750Y72100D02*
D03*
X-136250Y-47900D02*
D03*
X23750Y-367900D02*
D03*
X-736250Y192100D02*
D03*
X23750Y-127900D02*
D03*
X-16250Y-447900D02*
D03*
Y-487900D02*
D03*
X-136250Y-327900D02*
D03*
X383750Y-247900D02*
D03*
Y472100D02*
D03*
X-576250Y-407900D02*
D03*
X-496250Y-327900D02*
D03*
X423750Y-367900D02*
D03*
X143750Y632100D02*
D03*
X823750Y-287900D02*
D03*
X143750Y-47900D02*
D03*
X-536250Y-487900D02*
D03*
X23750Y-407900D02*
D03*
X103750Y-127900D02*
D03*
X-16250Y-87900D02*
D03*
X423750Y552100D02*
D03*
X783750Y272100D02*
D03*
X-416250Y-47900D02*
D03*
X-776250Y192100D02*
D03*
X63750Y-487900D02*
D03*
X303750Y-447900D02*
D03*
X783750Y-287900D02*
D03*
X-736250Y-447900D02*
D03*
X-376250Y-407900D02*
D03*
X383750Y-167900D02*
D03*
X-56250Y-367900D02*
D03*
X-176250Y-87900D02*
D03*
X-816250D02*
D03*
X343750Y-367900D02*
D03*
X-496250Y-447900D02*
D03*
X143750Y32100D02*
D03*
X463750Y552100D02*
D03*
X783750Y472100D02*
D03*
X-616250Y-407900D02*
D03*
X623750Y-367900D02*
D03*
X823750Y192100D02*
D03*
X23750Y-207900D02*
D03*
X703750Y-447900D02*
D03*
Y-367900D02*
D03*
X743750Y-407900D02*
D03*
X-816250Y512100D02*
D03*
X143750Y72100D02*
D03*
X-816250Y-207900D02*
D03*
X423750Y512100D02*
D03*
X543750Y-287900D02*
D03*
X503750Y512100D02*
D03*
X-576250Y632100D02*
D03*
X-96250Y192100D02*
D03*
X-176250D02*
D03*
X23750Y-247900D02*
D03*
X823750Y512100D02*
D03*
X463750Y-47900D02*
D03*
X63750Y-407900D02*
D03*
X503750Y-47900D02*
D03*
X-776250Y72100D02*
D03*
X-416250Y592100D02*
D03*
X583750Y-287900D02*
D03*
X-456250Y592100D02*
D03*
X823750Y472100D02*
D03*
X623750Y-327900D02*
D03*
X783750Y432100D02*
D03*
X143750Y192100D02*
D03*
X303750Y-407900D02*
D03*
X-816250Y-287900D02*
D03*
X-16250Y-47900D02*
D03*
X103750Y-167900D02*
D03*
X-736250Y-367900D02*
D03*
X-816250Y112100D02*
D03*
X583750Y-367900D02*
D03*
X23750Y-167900D02*
D03*
X263750Y-207900D02*
D03*
X463750Y-127900D02*
D03*
X-96250Y-247900D02*
D03*
X623750D02*
D03*
X-576250Y-207900D02*
D03*
X263750Y-367900D02*
D03*
X223750Y-327900D02*
D03*
X783750Y512100D02*
D03*
X-616250Y632100D02*
D03*
X-696250Y-487900D02*
D03*
Y-407900D02*
D03*
X-536250Y476750D02*
D03*
X-339000Y482000D02*
D03*
X-307750Y471500D02*
D03*
X-285500Y566250D02*
D03*
X-407750Y530500D02*
D03*
X-608000Y538000D02*
D03*
X-609000Y448750D02*
D03*
X-487750Y-88750D02*
D03*
X-487500Y-79000D02*
D03*
X-749750Y-1250D02*
D03*
X-738000Y500D02*
D03*
X-500250Y-2500D02*
D03*
X-780500Y-195750D02*
D03*
X-780750Y-154500D02*
D03*
X-757000Y-336250D02*
D03*
X-785000Y-270750D02*
D03*
X-730500Y-259250D02*
D03*
X-731000Y-245250D02*
D03*
X-679750Y-289000D02*
D03*
X-779250Y-312500D02*
D03*
X-781500Y-293000D02*
D03*
X-64000Y-89500D02*
D03*
X-63500Y-79750D02*
D03*
X209250Y-157750D02*
D03*
X209750Y-122000D02*
D03*
X213500Y-110250D02*
D03*
X332250Y88250D02*
D03*
X332500Y79000D02*
D03*
X608000Y-368500D02*
D03*
X598750Y-360750D02*
D03*
X587500Y-391500D02*
D03*
X590250Y-400250D02*
D03*
X597000Y-407000D02*
D03*
X728250Y28750D02*
D03*
X705000Y-59000D02*
D03*
X725750Y-37750D02*
D03*
X725000Y-51750D02*
D03*
X663500Y-20250D02*
D03*
X652250Y-39750D02*
D03*
X647750Y-27250D02*
D03*
X544000Y-78500D02*
D03*
X570000Y-33500D02*
D03*
Y-25750D02*
D03*
X518250Y-24250D02*
D03*
X508500Y-38000D02*
D03*
X491500Y-13250D02*
D03*
X494000Y-39500D02*
D03*
X484000Y-37750D02*
D03*
X478250Y-25750D02*
D03*
X383750Y-30500D02*
D03*
X366500Y-44750D02*
D03*
X369250Y-17750D02*
D03*
X374750Y25500D02*
D03*
X304000Y25000D02*
D03*
X356750Y24000D02*
D03*
X365500Y39500D02*
D03*
X203500Y-25500D02*
D03*
X179250Y-41500D02*
D03*
X168000Y-39250D02*
D03*
X164500Y-25750D02*
D03*
X179250Y-20500D02*
D03*
X240750Y-45250D02*
D03*
X221500Y-59250D02*
D03*
X117000Y-43500D02*
D03*
X98000Y-60000D02*
D03*
X63750Y-35000D02*
D03*
X50750Y-41750D02*
D03*
X53000Y-20750D02*
D03*
X37750Y-25000D02*
D03*
X-94250Y10500D02*
D03*
X-89000Y-23250D02*
D03*
X-33000Y-37000D02*
D03*
X-36000Y-28500D02*
D03*
X-100000Y-39250D02*
D03*
X-115000Y-38750D02*
D03*
X-129250Y-25250D02*
D03*
X-206250Y-42000D02*
D03*
X-224750Y-35500D02*
D03*
X-225750Y-22250D02*
D03*
X-210000Y-21000D02*
D03*
X-151000Y-57250D02*
D03*
X-154750Y-30500D02*
D03*
X-187750Y-68500D02*
D03*
X-169500Y-58500D02*
D03*
X-359250Y36250D02*
D03*
X-370500Y-2500D02*
D03*
X-629500Y52500D02*
D03*
X-609750Y46500D02*
D03*
X-610250Y35750D02*
D03*
X-540250Y23250D02*
D03*
X-460250Y-29250D02*
D03*
X-512750Y-24500D02*
D03*
X-525544Y-41250D02*
D03*
X-520425Y17350D02*
D03*
X-687250Y-28965D02*
D03*
X-695750Y33750D02*
D03*
X-258500Y564500D02*
D03*
X-182500Y-173750D02*
D03*
X-179500Y-155500D02*
D03*
X-175750Y-127750D02*
D03*
X-183250Y-111500D02*
D03*
X752000Y-261250D02*
D03*
X762750Y-250750D02*
D03*
X742500Y-210750D02*
D03*
X742250Y-193750D02*
D03*
X742500Y-156000D02*
D03*
X742250Y-165250D02*
D03*
X751750Y-214750D02*
D03*
X746750Y-224750D02*
D03*
X738750Y-232250D02*
D03*
X731500Y-239750D02*
D03*
X723000Y-247250D02*
D03*
X712500Y-251500D02*
D03*
X753000Y100250D02*
D03*
X751750Y112250D02*
D03*
X746750Y125000D02*
D03*
X739000Y135000D02*
D03*
X727000Y142750D02*
D03*
X771500Y140250D02*
D03*
X766000Y149500D02*
D03*
X757500Y158250D02*
D03*
X745750Y165750D02*
D03*
X519000Y87250D02*
D03*
X577750Y87750D02*
D03*
X599750Y58750D02*
D03*
X617250Y91750D02*
D03*
X605000Y104000D02*
D03*
X705750Y-211250D02*
D03*
X709500Y-200500D02*
D03*
X700250Y-172000D02*
D03*
X710750Y-165000D02*
D03*
X707250Y-153250D02*
D03*
X683000Y-345250D02*
D03*
X656500Y-368250D02*
D03*
X683750Y-364750D02*
D03*
X551000Y-425750D02*
D03*
X541750Y-416000D02*
D03*
X530750Y-405250D02*
D03*
X519750Y-392000D02*
D03*
X579250Y-411750D02*
D03*
X571000Y-402750D02*
D03*
X562750Y-395750D02*
D03*
X553000Y-384250D02*
D03*
X544000Y-375500D02*
D03*
X531500Y-362750D02*
D03*
X526500Y-349750D02*
D03*
X514500Y-249500D02*
D03*
X499250Y-232250D02*
D03*
X492000Y-225250D02*
D03*
X482500Y-216250D02*
D03*
X474250Y-207250D02*
D03*
X466500Y-198000D02*
D03*
X525250Y-217250D02*
D03*
X517500Y-209500D02*
D03*
X511500Y-202250D02*
D03*
X503750Y-194500D02*
D03*
X498250Y-189000D02*
D03*
X490500Y-181750D02*
D03*
X483250Y-172750D02*
D03*
X587250Y-260750D02*
D03*
X577250Y-250250D02*
D03*
X603750Y-237000D02*
D03*
X595750Y-228500D02*
D03*
X587250Y-212250D02*
D03*
X587000Y-172500D02*
D03*
X594250Y-169500D02*
D03*
X599250Y-157500D02*
D03*
X586500Y-147250D02*
D03*
Y-135750D02*
D03*
X585750Y-122750D02*
D03*
X586250Y-110500D02*
D03*
X584000Y-98000D02*
D03*
X557250Y-168750D02*
D03*
X557750Y-156750D02*
D03*
X557500Y-145750D02*
D03*
Y-133500D02*
D03*
X558000Y-123500D02*
D03*
X557500Y-111750D02*
D03*
X559000Y-98500D02*
D03*
X118500Y-169750D02*
D03*
X117000Y-159000D02*
D03*
X116750Y-142750D02*
D03*
X120500Y-123250D02*
D03*
X119750Y-107750D02*
D03*
X204000Y-67750D02*
D03*
X195000Y-77500D02*
D03*
X186250Y-87000D02*
D03*
X176500Y-97000D02*
D03*
X167750Y-106000D02*
D03*
X160250Y-115500D02*
D03*
X185750Y-47500D02*
D03*
X176000Y-56000D02*
D03*
X168000Y-63750D02*
D03*
X159250Y-73000D02*
D03*
X152750Y-80750D02*
D03*
X80250Y-163500D02*
D03*
X82250Y-152500D02*
D03*
X82750Y-134000D02*
D03*
X80750Y-122750D02*
D03*
X80000Y-113750D02*
D03*
X70000Y-130000D02*
D03*
X69500Y-90000D02*
D03*
X78500Y-68250D02*
D03*
X58250Y-49000D02*
D03*
X47750Y-60750D02*
D03*
X114500Y-349500D02*
D03*
X118250Y-361500D02*
D03*
X129750Y-372250D02*
D03*
X109500Y-391000D02*
D03*
X177500Y-411250D02*
D03*
X198500Y-423750D02*
D03*
X205750Y-436750D02*
D03*
X218500Y-405250D02*
D03*
X193750Y-237500D02*
D03*
X202000Y-228750D02*
D03*
X209500Y-220000D02*
D03*
X218000Y-213250D02*
D03*
X238500Y-230000D02*
D03*
X228750Y-240750D02*
D03*
X218750Y-251250D02*
D03*
X209750Y-259250D02*
D03*
X76250Y-216750D02*
D03*
X136500Y-242250D02*
D03*
X146000Y-230750D02*
D03*
X122000Y-218500D02*
D03*
X72250Y-250250D02*
D03*
X59500Y-237500D02*
D03*
X-39500Y114750D02*
D03*
X-198000Y88500D02*
D03*
X-187250Y78250D02*
D03*
X-181500Y72500D02*
D03*
X-168500Y78250D02*
D03*
X-152750Y76750D02*
D03*
X-127750Y77250D02*
D03*
X-139000Y74750D02*
D03*
X-147000Y87500D02*
D03*
X-121000Y88500D02*
D03*
X-123000Y114750D02*
D03*
X-137500Y116000D02*
D03*
X-152500Y115750D02*
D03*
X-166000D02*
D03*
X-180000Y116000D02*
D03*
X-195750Y115750D02*
D03*
X-284500Y87750D02*
D03*
X-298750D02*
D03*
X-309500Y84250D02*
D03*
X-316750Y74750D02*
D03*
X-220250Y115500D02*
D03*
X-242250Y115250D02*
D03*
X-270250Y116000D02*
D03*
X-287500Y117250D02*
D03*
X-304000Y117000D02*
D03*
X-321000Y111750D02*
D03*
X-334000Y100000D02*
D03*
X-340250Y85750D02*
D03*
X-52500Y-131750D02*
D03*
X-49500Y-171000D02*
D03*
X-20250Y-163500D02*
D03*
X-20000Y-121000D02*
D03*
X-107250Y-117250D02*
D03*
X-105500Y-168000D02*
D03*
X-105750Y-154250D02*
D03*
X-9500Y-261500D02*
D03*
X-18500Y-253000D02*
D03*
X-26750Y-245500D02*
D03*
X-35500Y-235500D02*
D03*
X2000Y-231250D02*
D03*
X-7500Y-221500D02*
D03*
X-16500Y-212250D02*
D03*
X-111000Y-242250D02*
D03*
X-102000Y-233000D02*
D03*
X-94250Y-223500D02*
D03*
X-106500Y-196250D02*
D03*
X-115750Y-206250D02*
D03*
X-124750Y-215500D02*
D03*
X-132500Y-223500D02*
D03*
X-144750Y-234750D02*
D03*
X-119500Y-250500D02*
D03*
X-131750Y-261250D02*
D03*
X-185000Y-255250D02*
D03*
X-172250Y-251750D02*
D03*
X-233750Y-368250D02*
D03*
X-205500Y-369750D02*
D03*
X-207250Y-343750D02*
D03*
X-360500Y-38500D02*
D03*
X-309250Y-105750D02*
D03*
X-308000Y-94000D02*
D03*
X-307750Y-76500D02*
D03*
X-354750Y-110000D02*
D03*
X-356500Y-97250D02*
D03*
X-359750Y-83250D02*
D03*
X-360250Y-69000D02*
D03*
X-351000Y-146750D02*
D03*
X-305750Y-128250D02*
D03*
X-313492Y-117198D02*
D03*
X-333250Y-127500D02*
D03*
X-333750Y-140000D02*
D03*
X-330500Y-164000D02*
D03*
X-333500Y-153250D02*
D03*
X-305500Y-141250D02*
D03*
X-304000Y-156000D02*
D03*
X-293000Y-167750D02*
D03*
X-281250Y-179500D02*
D03*
X-271000Y-189750D02*
D03*
X-260000Y-201000D02*
D03*
X-249000Y-212000D02*
D03*
X-238250Y-222750D02*
D03*
X-325750Y-174000D02*
D03*
X-314000Y-186250D02*
D03*
X-302250Y-198250D02*
D03*
X-291750Y-208000D02*
D03*
X-280750Y-219250D02*
D03*
X-269250Y-230750D02*
D03*
X-255500Y-244250D02*
D03*
X-308750Y-257250D02*
D03*
X-328500Y-246000D02*
D03*
X-335000Y-235500D02*
D03*
X-263000Y-279500D02*
D03*
X-274750Y-277000D02*
D03*
X-305750Y-248750D02*
D03*
X-316000Y-238500D02*
D03*
X-263250Y-251500D02*
D03*
X-272250Y-243250D02*
D03*
X-282000Y-234000D02*
D03*
X-291750Y-224250D02*
D03*
X-301000Y-214750D02*
D03*
X-310250Y-205250D02*
D03*
X-321500Y-194000D02*
D03*
X-334250Y-220750D02*
D03*
X-346000Y-208500D02*
D03*
X-356750Y-197750D02*
D03*
X-334000Y-181750D02*
D03*
X-345250Y-171000D02*
D03*
X-355500Y-160500D02*
D03*
X-363250Y-146250D02*
D03*
X-369750Y-185000D02*
D03*
X-381250Y-172750D02*
D03*
X-386250Y-163750D02*
D03*
X-391250Y-151500D02*
D03*
X-394000Y-139250D02*
D03*
X-393750Y-120750D02*
D03*
X-397250Y-108250D02*
D03*
X-408500Y-100000D02*
D03*
X-423500Y-99250D02*
D03*
X-438250Y-97000D02*
D03*
X-366000Y-130750D02*
D03*
Y-117250D02*
D03*
X-367250Y-106000D02*
D03*
X-372250Y-94000D02*
D03*
X-381000Y-84500D02*
D03*
X-389500Y-77500D02*
D03*
X-402000Y-72000D02*
D03*
X-419750Y-71250D02*
D03*
X-438427Y-73250D02*
D03*
X-358500Y-216750D02*
D03*
X-369000Y-206250D02*
D03*
X-378500Y-197000D02*
D03*
X-390750Y-185250D02*
D03*
X-391000Y-224250D02*
D03*
X-403000Y-212250D02*
D03*
X-412750Y-202750D02*
D03*
X-428750Y-183250D02*
D03*
X-410000Y-155500D02*
D03*
X-439250Y-147250D02*
D03*
X-446000Y-134750D02*
D03*
X-428750Y-111000D02*
D03*
X-607500Y-124000D02*
D03*
X-573750Y-129750D02*
D03*
X-581500Y-139750D02*
D03*
X-577250Y-152750D02*
D03*
X-650000Y-71750D02*
D03*
X-710500Y144750D02*
D03*
X-725750Y137250D02*
D03*
X-737000Y124250D02*
D03*
X-741500Y110500D02*
D03*
X-740250Y160000D02*
D03*
X-753000Y148000D02*
D03*
X-759750Y138000D02*
D03*
X-630000Y-98720D02*
D03*
X-650000D02*
D03*
X-670000Y-109970D02*
D03*
X-362500Y-355000D02*
D03*
X-356738Y-366207D02*
D03*
X-347878Y-375067D02*
D03*
X-339018Y-383927D02*
D03*
X-330158Y-392787D02*
D03*
X-321298Y-401647D02*
D03*
X-312438Y-410507D02*
D03*
X-333203Y-428417D02*
D03*
X-342063Y-419557D02*
D03*
X-350923Y-410697D02*
D03*
X-359783Y-401837D02*
D03*
X-368643Y-392977D02*
D03*
X-230584Y-230576D02*
D03*
X-223278Y-240756D02*
D03*
X-247260Y-253587D02*
D03*
X-325000Y-115000D02*
D03*
X-332500D02*
D03*
X-340000D02*
D03*
X-362500Y-57500D02*
D03*
X-372500Y-37500D02*
D03*
X-380000D02*
D03*
X-387500D02*
D03*
X-372500Y-30000D02*
D03*
X-380000D02*
D03*
X-387500D02*
D03*
X-352500Y30000D02*
D03*
X-365000Y57500D02*
D03*
X-300000Y65000D02*
D03*
X-255000Y45000D02*
D03*
Y35000D02*
D03*
Y25000D02*
D03*
Y15000D02*
D03*
Y-45000D02*
D03*
Y-35000D02*
D03*
Y-25000D02*
D03*
Y-15000D02*
D03*
Y-5000D02*
D03*
X-310000Y-65000D02*
D03*
X-290000D02*
D03*
X729189Y187531D02*
D03*
X707500Y190000D02*
D03*
X666734D02*
D03*
X652500D02*
D03*
X629144D02*
D03*
X616614D02*
D03*
X579024D02*
D03*
X541434D02*
D03*
X518874D02*
D03*
X502500D02*
D03*
X380000Y189033D02*
D03*
X275000D02*
D03*
X253244Y190000D02*
D03*
X235000D02*
D03*
X215654D02*
D03*
X190594D02*
D03*
X127944D02*
D03*
X110000D02*
D03*
X65294D02*
D03*
X17500D02*
D03*
X0D02*
D03*
X-20000D02*
D03*
X-40000D02*
D03*
X-67500Y191533D02*
D03*
X-337500D02*
D03*
X-455000D02*
D03*
X-373256Y190000D02*
D03*
X-382500D02*
D03*
X-400000D02*
D03*
X-410000D02*
D03*
X-77500Y173467D02*
D03*
Y146286D02*
D03*
X-100000Y173467D02*
D03*
Y146286D02*
D03*
X-92500Y173467D02*
D03*
Y146286D02*
D03*
X707500Y173467D02*
D03*
Y146286D02*
D03*
X652500Y173467D02*
D03*
Y146286D02*
D03*
X557500Y173467D02*
D03*
Y146286D02*
D03*
X397500Y173467D02*
D03*
Y146286D02*
D03*
X502500Y173467D02*
D03*
Y146286D02*
D03*
X235000Y173467D02*
D03*
Y146286D02*
D03*
X110000Y173467D02*
D03*
Y146286D02*
D03*
X47500Y173467D02*
D03*
Y146286D02*
D03*
X37500Y173467D02*
D03*
Y146286D02*
D03*
X17500Y173467D02*
D03*
Y146286D02*
D03*
X-20000Y173467D02*
D03*
Y146286D02*
D03*
X0Y173467D02*
D03*
Y146286D02*
D03*
X-40000Y173467D02*
D03*
Y146286D02*
D03*
X-220000Y173467D02*
D03*
Y146286D02*
D03*
X-242500Y173467D02*
D03*
Y146286D02*
D03*
X-382500Y173467D02*
D03*
Y146286D02*
D03*
X-400000Y173467D02*
D03*
Y146286D02*
D03*
X-410000Y173467D02*
D03*
Y146286D02*
D03*
X-430000Y173467D02*
D03*
Y146286D02*
D03*
X-480000Y173467D02*
D03*
Y146286D02*
D03*
X-500000Y173467D02*
D03*
Y146286D02*
D03*
X-520000Y173467D02*
D03*
Y146286D02*
D03*
X-540000Y173467D02*
D03*
Y146286D02*
D03*
X-575000Y173467D02*
D03*
Y146286D02*
D03*
X-590000Y173467D02*
D03*
Y146286D02*
D03*
X-560000Y173467D02*
D03*
Y146286D02*
D03*
X-690000Y173467D02*
D03*
Y146286D02*
D03*
X-610000Y173467D02*
D03*
Y146286D02*
D03*
X-630000Y173467D02*
D03*
Y146286D02*
D03*
X-650000Y173467D02*
D03*
Y146286D02*
D03*
X-670000D02*
D03*
Y173467D02*
D03*
X-500000Y182500D02*
D03*
Y195000D02*
D03*
X-520000Y182500D02*
D03*
Y195000D02*
D03*
X-540000Y182500D02*
D03*
Y195000D02*
D03*
X-560000Y182500D02*
D03*
Y195000D02*
D03*
X-575000Y182500D02*
D03*
Y195000D02*
D03*
X-590000Y182500D02*
D03*
Y195000D02*
D03*
X-610000Y182500D02*
D03*
Y195000D02*
D03*
X-630000Y182500D02*
D03*
Y195000D02*
D03*
X-650000Y182500D02*
D03*
Y195000D02*
D03*
X-670000Y182500D02*
D03*
Y195000D02*
D03*
X-690000D02*
D03*
Y182500D02*
D03*
X-757500Y260000D02*
D03*
X-452500Y426750D02*
D03*
X-437500D02*
D03*
X-417500D02*
D03*
X-400000D02*
D03*
X27500Y610000D02*
D03*
X50000Y590000D02*
D03*
X110000D02*
D03*
Y600000D02*
D03*
X107500Y610000D02*
D03*
X100000Y617500D02*
D03*
X295000Y460000D02*
D03*
X270000D02*
D03*
X760000Y485000D02*
D03*
X750000D02*
D03*
X740000D02*
D03*
X750000Y515000D02*
D03*
Y505000D02*
D03*
X760000Y525000D02*
D03*
Y515000D02*
D03*
Y505000D02*
D03*
Y495000D02*
D03*
X750000D02*
D03*
X740000D02*
D03*
X730000D02*
D03*
X732500Y447500D02*
D03*
X722500D02*
D03*
X712500D02*
D03*
X702500D02*
D03*
X692500D02*
D03*
X682500D02*
D03*
X672500D02*
D03*
X662500D02*
D03*
X652500D02*
D03*
X642500D02*
D03*
X632500D02*
D03*
X622500D02*
D03*
X612500D02*
D03*
X602500D02*
D03*
X592500D02*
D03*
X-684000Y-360000D02*
D03*
Y-348000D02*
D03*
X-689000Y-338000D02*
D03*
X-700000D02*
D03*
X-716000D02*
D03*
X-656000Y-359000D02*
D03*
Y-345000D02*
D03*
X-658000Y-334000D02*
D03*
X-663000Y-324000D02*
D03*
X-671000Y-315000D02*
D03*
X-682000Y-309000D02*
D03*
X-655000Y-517500D02*
D03*
Y-507500D02*
D03*
Y-497500D02*
D03*
X-685000Y-517500D02*
D03*
Y-507500D02*
D03*
Y-497500D02*
D03*
X-728254Y-318385D02*
D03*
X-683591Y-372008D02*
D03*
Y-384538D02*
D03*
Y-397068D02*
D03*
Y-409598D02*
D03*
Y-422128D02*
D03*
Y-434658D02*
D03*
Y-447188D02*
D03*
Y-459718D02*
D03*
Y-472248D02*
D03*
Y-484778D02*
D03*
X-656409Y-488529D02*
D03*
Y-475999D02*
D03*
Y-463469D02*
D03*
Y-450939D02*
D03*
Y-438409D02*
D03*
Y-425879D02*
D03*
Y-413349D02*
D03*
Y-400819D02*
D03*
Y-388289D02*
D03*
Y-375759D02*
D03*
X70750Y-140500D02*
D03*
X-19750Y-142750D02*
D03*
X-51750Y-142500D02*
D03*
X-690250Y-179750D02*
D03*
X-726000Y-208250D02*
D03*
X-721750Y-195750D02*
D03*
Y-182000D02*
D03*
X662750Y-201250D02*
D03*
X664750Y-182250D02*
D03*
X664750Y-169750D02*
D03*
X663750Y-157500D02*
D03*
X616750Y-194750D02*
D03*
X622750Y-209500D02*
D03*
X631750Y-188500D02*
D03*
X620000Y-165750D02*
D03*
X620750Y-156250D02*
D03*
X631500Y-173000D02*
D03*
X633709Y-230000D02*
D03*
X632959Y-214270D02*
D03*
X633459Y-144821D02*
D03*
X633250Y-130500D02*
D03*
X661250Y-124250D02*
D03*
X657500Y-106000D02*
D03*
X647750Y-92750D02*
D03*
X637250Y-82500D02*
D03*
X631500Y-116250D02*
D03*
X621750Y-106250D02*
D03*
X600159Y-64071D02*
D03*
X471956Y115191D02*
D03*
X600159Y23639D02*
D03*
X489307Y88009D02*
D03*
X600159Y-51541D02*
D03*
X627341Y53579D02*
D03*
X627333Y66109D02*
D03*
X539427Y88009D02*
D03*
X600159Y-1421D02*
D03*
Y-26481D02*
D03*
X350601Y99435D02*
D03*
X627341Y-21601D02*
D03*
X564487Y88009D02*
D03*
X522076Y115191D02*
D03*
X459426D02*
D03*
X446896D02*
D03*
X451717Y88009D02*
D03*
X600159Y-13951D02*
D03*
X588139Y82240D02*
D03*
X613681Y-97901D02*
D03*
X627341Y15989D02*
D03*
Y3459D02*
D03*
Y41049D02*
D03*
X577884Y115164D02*
D03*
X600159Y36169D02*
D03*
X426657Y88009D02*
D03*
X590233Y113044D02*
D03*
X627341Y-9071D02*
D03*
X484486Y115191D02*
D03*
X434366D02*
D03*
X396776D02*
D03*
X361203Y106113D02*
D03*
X501837Y88009D02*
D03*
X600159Y48699D02*
D03*
X476777Y88009D02*
D03*
X625059Y78431D02*
D03*
X371993Y112484D02*
D03*
X596964Y73345D02*
D03*
X627341Y-46661D02*
D03*
X421836Y115191D02*
D03*
X627341Y28519D02*
D03*
X559666Y115191D02*
D03*
X627341Y-34131D02*
D03*
X601116Y-76564D02*
D03*
X439187Y88009D02*
D03*
X600159Y-39011D02*
D03*
X605738Y-88210D02*
D03*
X401597Y88009D02*
D03*
X414127D02*
D03*
X369658Y60211D02*
D03*
X497016Y115191D02*
D03*
X464247Y88009D02*
D03*
X627341Y-59191D02*
D03*
X600159Y11109D02*
D03*
X409306Y115191D02*
D03*
X310000Y510000D02*
D03*
X220000Y450000D02*
D03*
X190000D02*
D03*
X180000D02*
D03*
X170000D02*
D03*
X244750Y457000D02*
D03*
X247250Y465750D02*
D03*
X249500Y476750D02*
D03*
X256250Y484000D02*
D03*
X254000Y503000D02*
D03*
X219250Y479000D02*
D03*
X228500Y487500D02*
D03*
X237250Y495250D02*
D03*
X26000Y504500D02*
D03*
X20750Y507750D02*
D03*
X-201000Y597750D02*
D03*
X-179250Y447750D02*
D03*
X-201250Y470750D02*
D03*
X-112500Y572500D02*
D03*
X-68000Y-160000D02*
D03*
X-67000Y-120000D02*
D03*
X-650000Y419000D02*
D03*
X-630000D02*
D03*
X-610000D02*
D03*
X-590000D02*
D03*
X730000Y-522000D02*
D03*
X611000D02*
D03*
X-610000D02*
D03*
X-731000Y-521000D02*
D03*
X654000Y-522000D02*
D03*
Y-511000D02*
D03*
Y-499000D02*
D03*
X686000Y-521000D02*
D03*
Y-511000D02*
D03*
Y-499000D02*
D03*
X461000Y-524000D02*
D03*
Y-514000D02*
D03*
Y-502000D02*
D03*
X429000Y-523000D02*
D03*
Y-513000D02*
D03*
Y-501000D02*
D03*
X236000Y-519000D02*
D03*
Y-504000D02*
D03*
X204000Y-519000D02*
D03*
Y-507000D02*
D03*
Y-497000D02*
D03*
X-236000Y-519000D02*
D03*
Y-501000D02*
D03*
X-204000Y-517000D02*
D03*
Y-502000D02*
D03*
X669000Y-244645D02*
D03*
X668750Y-234280D02*
D03*
X669000Y-219650D02*
D03*
X665000Y-192090D02*
D03*
X321000Y-77000D02*
D03*
X307000D02*
D03*
X294000D02*
D03*
X282000D02*
D03*
X-76788Y82247D02*
D03*
X-64886Y86165D02*
D03*
X-39963Y88009D02*
D03*
X-2373D02*
D03*
X22687D02*
D03*
X35217D02*
D03*
X47747D02*
D03*
X72807D02*
D03*
X85337D02*
D03*
X97867D02*
D03*
X110397D02*
D03*
X135457D02*
D03*
X147987D02*
D03*
X160517D02*
D03*
X173047D02*
D03*
X185577D02*
D03*
X285308Y84472D02*
D03*
X288396Y72329D02*
D03*
X312995Y99164D02*
D03*
X302297Y105686D02*
D03*
X291613Y112233D02*
D03*
X279404Y115050D02*
D03*
X254345Y115191D02*
D03*
X216755D02*
D03*
X191695D02*
D03*
X179165D02*
D03*
X166635D02*
D03*
X154105D02*
D03*
X141575D02*
D03*
X129045D02*
D03*
X103985D02*
D03*
X91455D02*
D03*
X78925D02*
D03*
X66395D02*
D03*
X41335D02*
D03*
X28805D02*
D03*
X18025D02*
D03*
X0D02*
D03*
X-21315D02*
D03*
X-58905D02*
D03*
X674168Y-45447D02*
D03*
X669617Y-57121D02*
D03*
X669109Y-69641D02*
D03*
Y-94701D02*
D03*
Y-107231D02*
D03*
X668750Y-119761D02*
D03*
Y-132291D02*
D03*
X668000Y-148321D02*
D03*
X696291Y-148133D02*
D03*
Y-135603D02*
D03*
Y-123073D02*
D03*
Y-110543D02*
D03*
Y-98013D02*
D03*
Y-85483D02*
D03*
Y-72953D02*
D03*
X698262Y-60579D02*
D03*
X-709246Y172827D02*
D03*
X-721418Y169851D02*
D03*
X-764708Y127469D02*
D03*
X-767868Y115344D02*
D03*
X-768791Y102848D02*
D03*
Y90318D02*
D03*
Y77788D02*
D03*
Y65258D02*
D03*
Y52728D02*
D03*
X-768026Y40222D02*
D03*
X-762918Y28780D02*
D03*
X-756021Y18319D02*
D03*
X-717757Y41620D02*
D03*
X-729550Y43103D02*
D03*
X-741539Y46746D02*
D03*
X-741609Y59276D02*
D03*
Y84336D02*
D03*
Y96866D02*
D03*
X-463333Y146286D02*
D03*
X-446667D02*
D03*
X-371729D02*
D03*
X-359199D02*
D03*
X-346669D02*
D03*
X-334139D02*
D03*
X-321609D02*
D03*
X-309079D02*
D03*
X-296549D02*
D03*
X-284019D02*
D03*
X-271489D02*
D03*
X-259709D02*
D03*
X-196309D02*
D03*
X-183779D02*
D03*
X-171249D02*
D03*
X-158719D02*
D03*
X-146189D02*
D03*
X-133659D02*
D03*
X-121129D02*
D03*
X-108599D02*
D03*
X-68509D02*
D03*
X-58479D02*
D03*
X27500D02*
D03*
X66821D02*
D03*
X79351D02*
D03*
X91881D02*
D03*
X129471D02*
D03*
X142001D02*
D03*
X154531D02*
D03*
X167061D02*
D03*
X179591D02*
D03*
X192121D02*
D03*
X217181D02*
D03*
X254771D02*
D03*
X279831D02*
D03*
X292361D02*
D03*
X304891D02*
D03*
X317421D02*
D03*
X329951D02*
D03*
X342481D02*
D03*
X355011D02*
D03*
X367541D02*
D03*
X380071D02*
D03*
X407631D02*
D03*
X417661D02*
D03*
X430191D02*
D03*
X442721D02*
D03*
X455251D02*
D03*
X467781D02*
D03*
X480311D02*
D03*
X492841D02*
D03*
X517901D02*
D03*
X542961D02*
D03*
X568021D02*
D03*
X580551D02*
D03*
X593081D02*
D03*
X605611D02*
D03*
X618141D02*
D03*
X630671D02*
D03*
X643201D02*
D03*
X668261D02*
D03*
X680791D02*
D03*
X693321D02*
D03*
X754660Y88286D02*
D03*
Y75756D02*
D03*
Y63226D02*
D03*
Y50696D02*
D03*
Y38166D02*
D03*
Y25636D02*
D03*
Y13106D02*
D03*
Y576D02*
D03*
Y-11954D02*
D03*
Y-24484D02*
D03*
Y-37014D02*
D03*
Y-49544D02*
D03*
Y-62074D02*
D03*
Y-74604D02*
D03*
Y-87134D02*
D03*
Y-99664D02*
D03*
Y-112194D02*
D03*
Y-124724D02*
D03*
Y-137254D02*
D03*
Y-149784D02*
D03*
X783578Y-168053D02*
D03*
X782604Y-155560D02*
D03*
X781841Y-143054D02*
D03*
Y-130524D02*
D03*
Y-117994D02*
D03*
Y-105464D02*
D03*
Y-92934D02*
D03*
Y-80404D02*
D03*
Y-67874D02*
D03*
Y-55344D02*
D03*
Y-42814D02*
D03*
Y-30284D02*
D03*
Y-17754D02*
D03*
Y-5224D02*
D03*
Y7306D02*
D03*
Y19836D02*
D03*
Y32366D02*
D03*
Y44896D02*
D03*
Y57426D02*
D03*
Y69956D02*
D03*
Y82486D02*
D03*
Y95016D02*
D03*
X781604Y107544D02*
D03*
X779631Y119918D02*
D03*
X775489Y131743D02*
D03*
X729189Y170998D02*
D03*
X699324Y173467D02*
D03*
X691794D02*
D03*
X679264D02*
D03*
X666734D02*
D03*
X641674D02*
D03*
X629144D02*
D03*
X616614D02*
D03*
X604084D02*
D03*
X591554D02*
D03*
X579024D02*
D03*
X566494D02*
D03*
X541434D02*
D03*
X518874D02*
D03*
X491314D02*
D03*
X478784D02*
D03*
X466254D02*
D03*
X453724D02*
D03*
X441194D02*
D03*
X428664D02*
D03*
X416134D02*
D03*
X406104D02*
D03*
X378544D02*
D03*
X366014D02*
D03*
X353484D02*
D03*
X340954D02*
D03*
X328424D02*
D03*
X315894D02*
D03*
X303364D02*
D03*
X290834D02*
D03*
X278304D02*
D03*
X253244D02*
D03*
X215654D02*
D03*
X190594D02*
D03*
X178064D02*
D03*
X165534D02*
D03*
X153004D02*
D03*
X140474D02*
D03*
X127944D02*
D03*
X90354D02*
D03*
X77824D02*
D03*
X65294D02*
D03*
X27500D02*
D03*
X-60006D02*
D03*
X-70036D02*
D03*
X-110126D02*
D03*
X-122656D02*
D03*
X-135186D02*
D03*
X-147716D02*
D03*
X-160246D02*
D03*
X-172776D02*
D03*
X-185306D02*
D03*
X-197836D02*
D03*
X-260486D02*
D03*
X-273016D02*
D03*
X-285546D02*
D03*
X-298076D02*
D03*
X-310606D02*
D03*
X-323136D02*
D03*
X-335666D02*
D03*
X-348196D02*
D03*
X-360726D02*
D03*
X-373256D02*
D03*
X-446667D02*
D03*
X-463333D02*
D03*
X753811Y-179716D02*
D03*
X720058Y-279367D02*
D03*
X732189Y-276229D02*
D03*
X742696Y-269403D02*
D03*
X769337Y-242884D02*
D03*
X777015Y-232982D02*
D03*
X781217Y-221178D02*
D03*
X781844Y-208663D02*
D03*
X782604Y-196156D02*
D03*
X783592Y-183665D02*
D03*
X689539Y-294002D02*
D03*
X696291Y-258781D02*
D03*
Y-246251D02*
D03*
Y-233721D02*
D03*
Y-221191D02*
D03*
X698042Y-183663D02*
D03*
X556636Y-181926D02*
D03*
X556759Y-194455D02*
D03*
X557653Y-206953D02*
D03*
X558512Y-219454D02*
D03*
X562179Y-231435D02*
D03*
X569433Y-241651D02*
D03*
X596002Y-268243D02*
D03*
X606209Y-275510D02*
D03*
X618177Y-279222D02*
D03*
X648143Y-294504D02*
D03*
X638100Y-252409D02*
D03*
X613947Y-247727D02*
D03*
X587515Y-221002D02*
D03*
X587092Y-183663D02*
D03*
X661492Y-306989D02*
D03*
X656409Y-343223D02*
D03*
Y-355752D02*
D03*
X646946Y-378947D02*
D03*
Y-391477D02*
D03*
X690344Y-399750D02*
D03*
X693054Y-387516D02*
D03*
X692874Y-374988D02*
D03*
X683591Y-353641D02*
D03*
X676480Y-306149D02*
D03*
X656409Y-460474D02*
D03*
Y-473004D02*
D03*
Y-485534D02*
D03*
X683591Y-487766D02*
D03*
Y-475236D02*
D03*
Y-462706D02*
D03*
X693054Y-439593D02*
D03*
X693042Y-427063D02*
D03*
X402197Y-318789D02*
D03*
X402508Y-331315D02*
D03*
X412199Y-339257D02*
D03*
X431409Y-362589D02*
D03*
Y-375120D02*
D03*
Y-387649D02*
D03*
Y-400179D02*
D03*
Y-412710D02*
D03*
Y-425239D02*
D03*
Y-437770D02*
D03*
Y-450299D02*
D03*
Y-462830D02*
D03*
Y-475359D02*
D03*
Y-487890D02*
D03*
X458591Y-472872D02*
D03*
Y-460342D02*
D03*
Y-435282D02*
D03*
Y-422752D02*
D03*
Y-397692D02*
D03*
Y-385162D02*
D03*
Y-360102D02*
D03*
X458382Y-347574D02*
D03*
X455299Y-335429D02*
D03*
X448520Y-324891D02*
D03*
X499664Y-350018D02*
D03*
X500395Y-362527D02*
D03*
X504733Y-374282D02*
D03*
X512497Y-384117D02*
D03*
X565657Y-437277D02*
D03*
X575775Y-444668D02*
D03*
X587698Y-448520D02*
D03*
X599869Y-451500D02*
D03*
X598927Y-420157D02*
D03*
X586422Y-419367D02*
D03*
X474139Y-166319D02*
D03*
X542919Y-252656D02*
D03*
X456877Y-187498D02*
D03*
X440630Y-150049D02*
D03*
X444775Y-184252D02*
D03*
X408219Y-150733D02*
D03*
X510038Y-240658D02*
D03*
X540707Y-240323D02*
D03*
X535564Y-228897D02*
D03*
X452137Y-155008D02*
D03*
X464051Y-158888D02*
D03*
X407538Y-185585D02*
D03*
X402197Y-161721D02*
D03*
X420706Y-149696D02*
D03*
X143928Y-89599D02*
D03*
X136514Y-99700D02*
D03*
X130450Y-133409D02*
D03*
X160838Y-125978D02*
D03*
X213313Y-60529D02*
D03*
X500896Y-69047D02*
D03*
X492722Y-90259D02*
D03*
X467848Y-92409D02*
D03*
X455318D02*
D03*
X442788D02*
D03*
X430258D02*
D03*
X417728D02*
D03*
X405198D02*
D03*
X392668D02*
D03*
X380138D02*
D03*
X367608D02*
D03*
X355078D02*
D03*
X342548D02*
D03*
X330018D02*
D03*
X317488D02*
D03*
X304958D02*
D03*
X292428D02*
D03*
X279898D02*
D03*
X267368D02*
D03*
X254847Y-92901D02*
D03*
X242931Y-96774D02*
D03*
X232835Y-104195D02*
D03*
X221224Y-136587D02*
D03*
X251556Y-125740D02*
D03*
X275004Y-119591D02*
D03*
X287534D02*
D03*
X300064D02*
D03*
X312594D02*
D03*
X325124D02*
D03*
X337654D02*
D03*
X350184D02*
D03*
X362714D02*
D03*
X375244D02*
D03*
X387774D02*
D03*
X400304D02*
D03*
X412834D02*
D03*
X425364D02*
D03*
X437894D02*
D03*
X450424D02*
D03*
X462954D02*
D03*
X475484D02*
D03*
X488013Y-119489D02*
D03*
X500256Y-116822D02*
D03*
X511020Y-110407D02*
D03*
X221246Y-142747D02*
D03*
X255854Y-180271D02*
D03*
X251863Y-168393D02*
D03*
X250854Y-155904D02*
D03*
X251843Y-143413D02*
D03*
X184398Y-247033D02*
D03*
X160550Y-252409D02*
D03*
X148020D02*
D03*
X135490D02*
D03*
X151218Y-279591D02*
D03*
X163748D02*
D03*
X176277Y-279480D02*
D03*
X188512Y-276778D02*
D03*
X246136Y-229620D02*
D03*
X86784Y-348789D02*
D03*
X87763Y-361281D02*
D03*
X92413Y-372916D02*
D03*
X100373Y-382593D02*
D03*
X118141Y-400264D02*
D03*
X128612Y-407146D02*
D03*
X140725Y-410350D02*
D03*
X153253Y-410591D02*
D03*
X165783D02*
D03*
X189969Y-415189D02*
D03*
X206409Y-446731D02*
D03*
Y-459261D02*
D03*
Y-471791D02*
D03*
Y-484321D02*
D03*
X233591Y-489042D02*
D03*
Y-476512D02*
D03*
Y-463982D02*
D03*
Y-451452D02*
D03*
Y-438922D02*
D03*
X232221Y-426467D02*
D03*
X227090Y-415036D02*
D03*
X209972Y-396752D02*
D03*
X200243Y-388855D02*
D03*
X188568Y-384307D02*
D03*
X176070Y-383409D02*
D03*
X163540D02*
D03*
X138591Y-381747D02*
D03*
X-233591Y-460474D02*
D03*
Y-473004D02*
D03*
Y-485534D02*
D03*
X-206409Y-487766D02*
D03*
Y-475236D02*
D03*
Y-462706D02*
D03*
X-196946Y-439593D02*
D03*
X-196958Y-427063D02*
D03*
X-233591Y-343223D02*
D03*
Y-355753D02*
D03*
X-243053Y-378947D02*
D03*
Y-391477D02*
D03*
X-199656Y-399750D02*
D03*
X-196946Y-387516D02*
D03*
X-197126Y-374987D02*
D03*
X-206409Y-353641D02*
D03*
X110383Y-230309D02*
D03*
X103266Y-240622D02*
D03*
X155386Y-229620D02*
D03*
X130496Y-144747D02*
D03*
X165104Y-180271D02*
D03*
X161113Y-168393D02*
D03*
X160104Y-155904D02*
D03*
X161092Y-143413D02*
D03*
X39746Y-142747D02*
D03*
X40446Y-155258D02*
D03*
X40427Y-167788D02*
D03*
X74354Y-180271D02*
D03*
X43039Y-72181D02*
D03*
X41409Y-84604D02*
D03*
Y-97134D02*
D03*
Y-109664D02*
D03*
X40647Y-122171D02*
D03*
X39646Y-134661D02*
D03*
X68591Y-102654D02*
D03*
X70094Y-77685D02*
D03*
X88313Y-60579D02*
D03*
X35647Y-210879D02*
D03*
X36557Y-223375D02*
D03*
X47371Y-229703D02*
D03*
X100674Y-250640D02*
D03*
X96568Y-238802D02*
D03*
X88935Y-228865D02*
D03*
X-54778Y-221824D02*
D03*
X-45008Y-229669D02*
D03*
X12589Y-276924D02*
D03*
X24850Y-279510D02*
D03*
X37380Y-279591D02*
D03*
X49910D02*
D03*
X64589Y-252409D02*
D03*
X52059D02*
D03*
X39529D02*
D03*
X15905Y-246585D02*
D03*
X-49341Y-106176D02*
D03*
X-22159Y-106441D02*
D03*
X-21397Y-81404D02*
D03*
X-20408Y-68913D02*
D03*
X-106556Y-68639D02*
D03*
X-105648Y-81136D02*
D03*
X-104954Y-93647D02*
D03*
X-104841Y-106176D02*
D03*
X-106604Y-131173D02*
D03*
X-75897Y-131438D02*
D03*
X-77659Y-106441D02*
D03*
X-379093Y-320276D02*
D03*
X-390336Y-350018D02*
D03*
X-389605Y-362527D02*
D03*
X-385267Y-374282D02*
D03*
X-377503Y-384117D02*
D03*
X-324343Y-437277D02*
D03*
X-314225Y-444668D02*
D03*
X-302302Y-448520D02*
D03*
X-290131Y-451500D02*
D03*
X-291073Y-420157D02*
D03*
X-303578Y-419367D02*
D03*
X-106373Y-141746D02*
D03*
X-104841Y-179294D02*
D03*
X-155942Y-246722D02*
D03*
X-175634Y-279591D02*
D03*
X-163106Y-279380D02*
D03*
X-150963Y-277041D02*
D03*
X-87305Y-216312D02*
D03*
X-80700Y-205664D02*
D03*
X-77817Y-193470D02*
D03*
X-77659Y-180941D02*
D03*
X-77656Y-168411D02*
D03*
X-75908Y-143413D02*
D03*
X-214848Y-59130D02*
D03*
X-219727Y-70672D02*
D03*
X-220891Y-83147D02*
D03*
Y-95677D02*
D03*
Y-108208D02*
D03*
X-221653Y-120714D02*
D03*
X-193709Y-104276D02*
D03*
Y-91746D02*
D03*
X-193637Y-79217D02*
D03*
X-177437Y-60579D02*
D03*
X-222659Y-137532D02*
D03*
X-222654Y-149903D02*
D03*
X-221653Y-162393D02*
D03*
X-220891Y-174900D02*
D03*
Y-187430D02*
D03*
Y-199960D02*
D03*
Y-212489D02*
D03*
Y-225019D02*
D03*
Y-250079D02*
D03*
X-193709Y-256121D02*
D03*
Y-243591D02*
D03*
Y-231061D02*
D03*
Y-218531D02*
D03*
Y-206001D02*
D03*
Y-193471D02*
D03*
Y-180941D02*
D03*
X-191958Y-143413D02*
D03*
X-476141Y-101809D02*
D03*
X-488671D02*
D03*
X-501201D02*
D03*
X-588140Y-106799D02*
D03*
X-608302Y-137031D02*
D03*
X-607696Y-149546D02*
D03*
X-584478Y-177442D02*
D03*
X-575093Y-185745D02*
D03*
X-537993Y-183363D02*
D03*
X-535197Y-171150D02*
D03*
X-544139Y-149682D02*
D03*
X-553308Y-128991D02*
D03*
X-540778D02*
D03*
X-528248D02*
D03*
X-515718D02*
D03*
X-503188D02*
D03*
X-490658D02*
D03*
X-478128D02*
D03*
X-465598D02*
D03*
X-437286Y-160635D02*
D03*
X-433865Y-172689D02*
D03*
X-420616Y-193839D02*
D03*
X-376729Y-238540D02*
D03*
X-346478Y-254114D02*
D03*
X-348071Y-241685D02*
D03*
X-350951Y-229491D02*
D03*
X-401601Y-174292D02*
D03*
X-412250Y-138987D02*
D03*
X-416273Y-127121D02*
D03*
X-444447Y-103644D02*
D03*
X-456843Y-101815D02*
D03*
X-526561Y-61096D02*
D03*
X-533300Y-71659D02*
D03*
X-545830D02*
D03*
X-558360D02*
D03*
X-570890D02*
D03*
X-583420D02*
D03*
X-608480D02*
D03*
X-633290D02*
D03*
X-670672Y-75283D02*
D03*
X-707665Y-108844D02*
D03*
X-715145Y-118897D02*
D03*
X-719060Y-130800D02*
D03*
X-719591Y-143318D02*
D03*
X-720354Y-155825D02*
D03*
X-721354Y-168315D02*
D03*
X-690646Y-165129D02*
D03*
X-688581Y-128201D02*
D03*
X-612138Y-98841D02*
D03*
X-587078D02*
D03*
X-574548D02*
D03*
X-562018D02*
D03*
X-549488D02*
D03*
X-536958D02*
D03*
X-524429Y-99023D02*
D03*
X-511999Y-100604D02*
D03*
X-756600Y-19486D02*
D03*
X-763617Y-29867D02*
D03*
X-768274Y-41499D02*
D03*
X-768791Y-54018D02*
D03*
Y-66548D02*
D03*
Y-79078D02*
D03*
Y-91608D02*
D03*
Y-104138D02*
D03*
Y-116668D02*
D03*
Y-129198D02*
D03*
Y-141728D02*
D03*
X-770554Y-166725D02*
D03*
X-770461Y-178867D02*
D03*
X-740094Y-178986D02*
D03*
X-739846Y-166884D02*
D03*
X-740846Y-154395D02*
D03*
X-741609Y-141888D02*
D03*
Y-129358D02*
D03*
Y-116828D02*
D03*
Y-104298D02*
D03*
Y-91768D02*
D03*
Y-79238D02*
D03*
Y-66708D02*
D03*
Y-54178D02*
D03*
X-738207Y-42119D02*
D03*
X-725713Y-43066D02*
D03*
X-122000Y131000D02*
D03*
X-176000Y133000D02*
D03*
X-294000Y131000D02*
D03*
X-325000D02*
D03*
X-358000Y126000D02*
D03*
X47500Y425000D02*
D03*
X40000Y430000D02*
D03*
X35000Y437500D02*
D03*
Y447500D02*
D03*
X150000Y449500D02*
D03*
X157500D02*
D03*
X-570000Y435000D02*
D03*
X-450000Y532500D02*
D03*
X-587500Y-220000D02*
D03*
X595000Y-320000D02*
D03*
Y-332500D02*
D03*
X582500Y-337500D02*
D03*
X575000Y-327500D02*
D03*
X432500Y-272500D02*
D03*
X430000Y-297500D02*
D03*
X457500Y-282500D02*
D03*
X447500Y-280000D02*
D03*
X302500Y-270000D02*
D03*
X282500Y-260000D02*
D03*
X-425000Y-257500D02*
D03*
X-427500Y-242500D02*
D03*
X-440000D02*
D03*
X-202500Y70000D02*
D03*
X-77500Y75000D02*
D03*
X-87500Y70000D02*
D03*
X695000Y60000D02*
D03*
X680000D02*
D03*
X742500Y42500D02*
D03*
Y52500D02*
D03*
X642500Y22500D02*
D03*
Y32500D02*
D03*
Y42500D02*
D03*
X487500Y20000D02*
D03*
Y30000D02*
D03*
X127500Y37500D02*
D03*
X152500D02*
D03*
X165000Y50000D02*
D03*
X182500D02*
D03*
X402500Y7500D02*
D03*
Y17500D02*
D03*
Y27500D02*
D03*
Y-2500D02*
D03*
Y-15000D02*
D03*
Y60000D02*
D03*
Y70000D02*
D03*
Y80000D02*
D03*
Y50000D02*
D03*
Y37500D02*
D03*
X380000Y60000D02*
D03*
Y70000D02*
D03*
Y80000D02*
D03*
Y50000D02*
D03*
Y37500D02*
D03*
X277500Y80000D02*
D03*
X235000Y60000D02*
D03*
X215000D02*
D03*
X195000D02*
D03*
Y72500D02*
D03*
Y82500D02*
D03*
X215000Y72500D02*
D03*
Y82500D02*
D03*
X235000Y72500D02*
D03*
Y82500D02*
D03*
X255000Y72500D02*
D03*
Y82500D02*
D03*
X290000Y-32500D02*
D03*
X297071Y-39571D02*
D03*
X290000Y47500D02*
D03*
Y37500D02*
D03*
Y27500D02*
D03*
X270429Y-45429D02*
D03*
X277500Y-52500D02*
D03*
X284571Y-59571D02*
D03*
X255429Y-57929D02*
D03*
X262500Y-65000D02*
D03*
X269571Y-72071D02*
D03*
X250000Y-17500D02*
D03*
Y-27500D02*
D03*
Y-37500D02*
D03*
Y17500D02*
D03*
Y7500D02*
D03*
Y-2500D02*
D03*
X270000Y-22500D02*
D03*
Y-32500D02*
D03*
Y10000D02*
D03*
Y0D02*
D03*
Y-10000D02*
D03*
Y42500D02*
D03*
Y32500D02*
D03*
Y22500D02*
D03*
X730000Y80000D02*
D03*
Y70000D02*
D03*
Y60000D02*
D03*
Y110000D02*
D03*
Y100000D02*
D03*
Y90000D02*
D03*
Y130000D02*
D03*
Y120000D02*
D03*
X702500Y85000D02*
D03*
Y75000D02*
D03*
Y65000D02*
D03*
Y115000D02*
D03*
Y105000D02*
D03*
Y95000D02*
D03*
Y135000D02*
D03*
Y125000D02*
D03*
X645000Y55000D02*
D03*
X675000Y65000D02*
D03*
Y75000D02*
D03*
Y85000D02*
D03*
Y95000D02*
D03*
Y105000D02*
D03*
Y115000D02*
D03*
Y125000D02*
D03*
Y135000D02*
D03*
X645000Y65000D02*
D03*
Y75000D02*
D03*
Y85000D02*
D03*
Y95000D02*
D03*
Y105000D02*
D03*
Y115000D02*
D03*
Y125000D02*
D03*
Y135000D02*
D03*
X495000Y42500D02*
D03*
Y55000D02*
D03*
X562500Y75000D02*
D03*
X520000D02*
D03*
X495000D02*
D03*
Y65000D02*
D03*
Y135500D02*
D03*
Y125500D02*
D03*
X562500Y135500D02*
D03*
Y125500D02*
D03*
X540000Y135500D02*
D03*
Y125500D02*
D03*
X520000Y135500D02*
D03*
Y125500D02*
D03*
X402500Y134500D02*
D03*
Y124500D02*
D03*
X380000Y134500D02*
D03*
Y124500D02*
D03*
X277500Y134500D02*
D03*
Y124500D02*
D03*
X255000Y134500D02*
D03*
Y124500D02*
D03*
X235000Y134500D02*
D03*
Y124500D02*
D03*
X195000Y134500D02*
D03*
Y124500D02*
D03*
X215000Y134500D02*
D03*
Y124500D02*
D03*
X287500Y61750D02*
D03*
X280000Y68750D02*
D03*
X263750Y59000D02*
D03*
X249500Y34750D02*
D03*
X125000Y450000D02*
D03*
X36250Y565750D02*
D03*
X41500Y572750D02*
D03*
X46750Y577000D02*
D03*
X53250Y582250D02*
D03*
X108000Y581250D02*
D03*
X115000Y568250D02*
D03*
X109500Y574000D02*
D03*
X-530000Y-229200D02*
D03*
Y-209200D02*
D03*
X-510000D02*
D03*
Y-229200D02*
D03*
X-490000D02*
D03*
Y-209200D02*
D03*
X-530000Y-198400D02*
D03*
Y-178400D02*
D03*
Y-158400D02*
D03*
X-510000D02*
D03*
Y-178400D02*
D03*
Y-198400D02*
D03*
X-490000D02*
D03*
Y-178400D02*
D03*
Y-158400D02*
D03*
X500000Y-300000D02*
D03*
X520000D02*
D03*
X540000D02*
D03*
X500000Y-280000D02*
D03*
X520000D02*
D03*
X535000D02*
D03*
X500000Y-320000D02*
D03*
X520000D02*
D03*
X540000D02*
D03*
X670000Y-258550D02*
D03*
X100375D02*
D03*
X-220000Y-258000D02*
D03*
X-429750Y-516500D02*
D03*
Y-500500D02*
D03*
X-459750Y-520000D02*
D03*
X-460000Y-503250D02*
D03*
X-581500Y-343750D02*
D03*
X-581000Y-357250D02*
D03*
X-573000Y-368000D02*
D03*
X-602250Y-320500D02*
D03*
X-606750Y-330000D02*
D03*
X-608500Y-343000D02*
D03*
X-608250Y-355250D02*
D03*
X-605500Y-369750D02*
D03*
X-589250Y-390250D02*
D03*
X-468750Y-431000D02*
D03*
X-477500Y-422250D02*
D03*
X-485500Y-414250D02*
D03*
X-495000Y-409000D02*
D03*
X-450000Y-411500D02*
D03*
X-458250Y-403250D02*
D03*
X-598578Y-380891D02*
D03*
X-580887Y-398640D02*
D03*
X-558312Y-408747D02*
D03*
X-545785Y-408991D02*
D03*
X-533255D02*
D03*
X-520725D02*
D03*
X-508195D02*
D03*
X-459131Y-442612D02*
D03*
X-458591Y-455131D02*
D03*
Y-467661D02*
D03*
Y-480191D02*
D03*
X-431409Y-483486D02*
D03*
Y-470956D02*
D03*
Y-458426D02*
D03*
X-431386Y-445896D02*
D03*
X-433457Y-433538D02*
D03*
X-439277Y-422442D02*
D03*
X-465733Y-395740D02*
D03*
X-475337Y-387692D02*
D03*
X-486915Y-382902D02*
D03*
X-499398Y-381809D02*
D03*
X-511928D02*
D03*
X-524458D02*
D03*
X-536988D02*
D03*
X-561774Y-379206D02*
D03*
X-551257Y-339103D02*
D03*
X310000Y487500D02*
D03*
X302500Y495000D02*
D03*
X295000Y502500D02*
D03*
X237500Y517500D02*
D03*
Y525000D02*
D03*
X-640000Y574750D02*
D03*
X-577750Y562900D02*
D03*
X-638750Y490400D02*
D03*
X-577750Y472900D02*
D03*
X-245000Y-422500D02*
D03*
Y-435000D02*
D03*
Y-410000D02*
D03*
X-680000Y-300000D02*
D03*
X-730000Y-270000D02*
D03*
X-400000Y-160000D02*
D03*
X-410000Y-110000D02*
D03*
X-380000Y-70000D02*
D03*
X-430000Y-60000D02*
D03*
Y-40000D02*
D03*
Y-20000D02*
D03*
Y0D02*
D03*
Y20000D02*
D03*
X400000Y-280000D02*
D03*
Y-260000D02*
D03*
Y-240000D02*
D03*
Y-220000D02*
D03*
Y-200000D02*
D03*
Y-180000D02*
D03*
X360000Y-280000D02*
D03*
Y-260000D02*
D03*
Y-240000D02*
D03*
Y-220000D02*
D03*
Y-200000D02*
D03*
Y-180000D02*
D03*
X700000Y-300000D02*
D03*
X680000D02*
D03*
X660000D02*
D03*
X640000D02*
D03*
X645000Y-437500D02*
D03*
Y-425000D02*
D03*
Y-412500D02*
D03*
X-225000Y420000D02*
D03*
X-242500Y410000D02*
D03*
X-262500D02*
D03*
X-282500D02*
D03*
X-302500D02*
D03*
X-322500D02*
D03*
X-480000D02*
D03*
X-460000D02*
D03*
X-440000D02*
D03*
X-420000D02*
D03*
X-400000D02*
D03*
X-380000D02*
D03*
X-360000D02*
D03*
X-450000Y485000D02*
D03*
X-716000Y504000D02*
D03*
X-751000D02*
D03*
X-773000Y446000D02*
D03*
X-733000Y504000D02*
D03*
X-670000Y494000D02*
D03*
X-691000Y501750D02*
D03*
X-572000Y423000D02*
D03*
X-396750Y536000D02*
D03*
X-415000Y544000D02*
D03*
X-408500Y621000D02*
D03*
X-527500Y602500D02*
D03*
X-695000Y430000D02*
D03*
X-705000D02*
D03*
X-727500Y427500D02*
D03*
Y435000D02*
D03*
Y442500D02*
D03*
Y457500D02*
D03*
Y465000D02*
D03*
X-759750Y473489D02*
D03*
Y491489D02*
D03*
X-687500Y586500D02*
D03*
X-670000D02*
D03*
X-622500Y600000D02*
D03*
X-620000Y611750D02*
D03*
X-602500D02*
D03*
X-605000Y600000D02*
D03*
X-585000D02*
D03*
X-582500Y611750D02*
D03*
X-482500Y570000D02*
D03*
X-500000D02*
D03*
X-520000D02*
D03*
X-500000Y558000D02*
D03*
X-520000D02*
D03*
X-500000Y546500D02*
D03*
X-520000D02*
D03*
X-500000Y500000D02*
D03*
Y520000D02*
D03*
X-520000Y490000D02*
D03*
Y510000D02*
D03*
Y530000D02*
D03*
X-500000Y582250D02*
D03*
X-520000D02*
D03*
X-530000Y430000D02*
D03*
X-45000Y472500D02*
D03*
X-55000Y482500D02*
D03*
X-62500Y495000D02*
D03*
X-125000Y540000D02*
D03*
X-120000Y595000D02*
D03*
X-77500Y570000D02*
D03*
X-90000Y522500D02*
D03*
X-30000Y605000D02*
D03*
X45000Y597500D02*
D03*
X35000Y607500D02*
D03*
X157500Y632500D02*
D03*
X172500Y615000D02*
D03*
X-357500Y485000D02*
D03*
X-362500Y475000D02*
D03*
X-347500D02*
D03*
X-317500Y471750D02*
D03*
X-60000Y447500D02*
D03*
X-80000D02*
D03*
X-100000D02*
D03*
X-120000D02*
D03*
X-140000D02*
D03*
X-170000Y457500D02*
D03*
X-122500Y510000D02*
D03*
X-137500Y505000D02*
D03*
X-152500Y500000D02*
D03*
X-168750Y495750D02*
D03*
X-182500Y490000D02*
D03*
X-192500Y480000D02*
D03*
X-180000Y525000D02*
D03*
X-170000D02*
D03*
X-200000Y565000D02*
D03*
X-206250Y570000D02*
D03*
X-200000Y585000D02*
D03*
X-193750Y593250D02*
D03*
X-206250Y580000D02*
D03*
X-240000D02*
D03*
X-7500Y505000D02*
D03*
Y495000D02*
D03*
X-17500Y505000D02*
D03*
X-25000Y512500D02*
D03*
X-17500Y490000D02*
D03*
X-25000Y497500D02*
D03*
X-32500Y505000D02*
D03*
X-40000Y512500D02*
D03*
X-760000Y582500D02*
D03*
X-775500Y530000D02*
D03*
Y545000D02*
D03*
X-670000Y440000D02*
D03*
Y455000D02*
D03*
X-710000Y263000D02*
D03*
X0Y230000D02*
D03*
Y215000D02*
D03*
X-20000D02*
D03*
X690000Y280000D02*
D03*
X705000Y270000D02*
D03*
X708250Y256050D02*
D03*
X605000Y240000D02*
D03*
X620000D02*
D03*
Y225000D02*
D03*
X605000D02*
D03*
X620000Y210000D02*
D03*
X605000D02*
D03*
X590000D02*
D03*
Y225000D02*
D03*
Y240000D02*
D03*
X160000D02*
D03*
Y225000D02*
D03*
Y210000D02*
D03*
X145000D02*
D03*
Y225000D02*
D03*
Y240000D02*
D03*
X130000Y210000D02*
D03*
Y225000D02*
D03*
Y240000D02*
D03*
X372500Y585000D02*
D03*
Y545000D02*
D03*
Y555000D02*
D03*
Y565000D02*
D03*
Y575000D02*
D03*
X350000Y455000D02*
D03*
Y470000D02*
D03*
Y485000D02*
D03*
X260000Y570000D02*
D03*
Y580000D02*
D03*
X310000Y560000D02*
D03*
Y570000D02*
D03*
X305000Y520000D02*
D03*
Y530000D02*
D03*
X345000D02*
D03*
Y510000D02*
D03*
Y520000D02*
D03*
X295000Y470000D02*
D03*
X270000D02*
D03*
X205000Y465000D02*
D03*
X137500Y462500D02*
D03*
X145000Y465000D02*
D03*
X190000D02*
D03*
X175000D02*
D03*
X160000D02*
D03*
X200000Y495000D02*
D03*
X190000D02*
D03*
X180000D02*
D03*
X170000D02*
D03*
X160000D02*
D03*
X150000D02*
D03*
X140000D02*
D03*
X-600000Y525000D02*
D03*
Y515000D02*
D03*
X-610000Y505000D02*
D03*
X-600000D02*
D03*
X-590000D02*
D03*
X-765000Y417500D02*
D03*
X-750000D02*
D03*
X-737500D02*
D03*
X-725000D02*
D03*
X-670000Y567500D02*
D03*
Y522500D02*
D03*
Y532500D02*
D03*
Y545000D02*
D03*
Y555000D02*
D03*
X-692500Y530000D02*
D03*
X-702500D02*
D03*
X-692500Y520000D02*
D03*
X-702500D02*
D03*
X-730000Y517500D02*
D03*
Y525000D02*
D03*
Y532500D02*
D03*
Y547500D02*
D03*
Y555000D02*
D03*
X-735000Y310000D02*
D03*
X-750000D02*
D03*
X-765000D02*
D03*
Y325000D02*
D03*
Y340000D02*
D03*
X-60000Y77500D02*
D03*
X-167500Y52500D02*
D03*
X-185000D02*
D03*
X-197500D02*
D03*
X-210000D02*
D03*
X-222500Y82500D02*
D03*
X-242500D02*
D03*
X-262500D02*
D03*
X127500Y57500D02*
D03*
Y72100D02*
D03*
X103750Y57500D02*
D03*
X55000Y37500D02*
D03*
X63750Y57500D02*
D03*
X45000Y55000D02*
D03*
Y65000D02*
D03*
Y77500D02*
D03*
X22500Y80000D02*
D03*
X0D02*
D03*
X-20000D02*
D03*
X-40000D02*
D03*
X127500Y134500D02*
D03*
Y124500D02*
D03*
X107500Y134500D02*
D03*
Y124500D02*
D03*
X65000Y134500D02*
D03*
Y124500D02*
D03*
X45000Y134500D02*
D03*
Y124500D02*
D03*
X22500Y134500D02*
D03*
Y124500D02*
D03*
X0Y134500D02*
D03*
Y124500D02*
D03*
X-20000Y134500D02*
D03*
Y124500D02*
D03*
X-40000Y134500D02*
D03*
Y124500D02*
D03*
X-75000Y134500D02*
D03*
Y124500D02*
D03*
X-94336Y134500D02*
D03*
Y124500D02*
D03*
X-200000Y134500D02*
D03*
Y124500D02*
D03*
X-242500Y134500D02*
D03*
Y124500D02*
D03*
X-262500D02*
D03*
Y134500D02*
D03*
X290000Y-280000D02*
D03*
X270000D02*
D03*
X250000D02*
D03*
X235000D02*
D03*
X215000D02*
D03*
X195000D02*
D03*
X-10000D02*
D03*
X-75000D02*
D03*
X-30000D02*
D03*
X-50000D02*
D03*
X-140000D02*
D03*
X-95000D02*
D03*
X-115000D02*
D03*
X300000Y-300000D02*
D03*
X350000D02*
D03*
X370000D02*
D03*
X390000D02*
D03*
X410000D02*
D03*
X200000D02*
D03*
X220000D02*
D03*
X240000D02*
D03*
X260000D02*
D03*
X280000D02*
D03*
X95000D02*
D03*
X115000D02*
D03*
X135000D02*
D03*
X155000D02*
D03*
X175000D02*
D03*
X-10000D02*
D03*
X10000D02*
D03*
X30000D02*
D03*
X50000D02*
D03*
X70000D02*
D03*
X-115000D02*
D03*
X-95000D02*
D03*
X-75000D02*
D03*
X-55000D02*
D03*
X-35000D02*
D03*
X-140000D02*
D03*
X-160000D02*
D03*
X-180000D02*
D03*
X-200000D02*
D03*
X-220000D02*
D03*
X-245000D02*
D03*
X-270000D02*
D03*
X-290000D02*
D03*
Y-280000D02*
D03*
X-310000D02*
D03*
X-335000D02*
D03*
X-445000D02*
D03*
Y-260000D02*
D03*
X-350000Y-320000D02*
D03*
X-370000D02*
D03*
X-390000D02*
D03*
X-355000Y-280000D02*
D03*
X-370000D02*
D03*
X-390000D02*
D03*
X-350000Y-300000D02*
D03*
X-370000D02*
D03*
X-390000D02*
D03*
X-435000D02*
D03*
X-685000Y-277500D02*
D03*
X-615000Y-260000D02*
D03*
X-650000Y-285000D02*
D03*
X-665000Y-270000D02*
D03*
X-490000Y-260000D02*
D03*
Y-280000D02*
D03*
Y-300000D02*
D03*
X-510000D02*
D03*
Y-280000D02*
D03*
Y-260000D02*
D03*
X-530000D02*
D03*
Y-280000D02*
D03*
Y-300000D02*
D03*
X-620000Y-280000D02*
D03*
X-630000Y-300000D02*
D03*
X-600000D02*
D03*
Y-280000D02*
D03*
Y-260000D02*
D03*
X-650000Y230000D02*
D03*
Y250000D02*
D03*
X-630000Y210000D02*
D03*
Y230000D02*
D03*
Y250000D02*
D03*
X-590000Y210000D02*
D03*
Y230000D02*
D03*
Y250000D02*
D03*
X-610000D02*
D03*
Y230000D02*
D03*
Y210000D02*
D03*
X-380000Y70000D02*
D03*
Y90000D02*
D03*
Y110000D02*
D03*
Y130000D02*
D03*
X-410000Y95000D02*
D03*
Y80000D02*
D03*
X-430000Y60000D02*
D03*
X-420000Y70000D02*
D03*
X-435000Y95000D02*
D03*
X-450000Y80000D02*
D03*
Y60000D02*
D03*
X-430000Y110000D02*
D03*
X-410000D02*
D03*
X-430000Y130000D02*
D03*
X-410000D02*
D03*
X-480000Y90000D02*
D03*
Y110000D02*
D03*
Y130000D02*
D03*
X-560000Y30000D02*
D03*
X-580000Y0D02*
D03*
X-560000D02*
D03*
Y-20000D02*
D03*
X-580000D02*
D03*
Y20000D02*
D03*
X-560000Y50000D02*
D03*
X-540000D02*
D03*
X-520000D02*
D03*
Y70000D02*
D03*
X-500000D02*
D03*
X-520000Y90000D02*
D03*
X-500000D02*
D03*
X-520000Y110000D02*
D03*
X-500000D02*
D03*
X-520000Y130000D02*
D03*
X-500000D02*
D03*
X-560000Y70000D02*
D03*
X-540000D02*
D03*
X-560000Y90000D02*
D03*
X-540000D02*
D03*
X-560000Y110000D02*
D03*
X-540000D02*
D03*
X-560000Y130000D02*
D03*
X-540000D02*
D03*
X-610000Y-230000D02*
D03*
X-630000Y-250000D02*
D03*
Y-230000D02*
D03*
X-650000Y-250000D02*
D03*
Y-230000D02*
D03*
X-670000Y-250000D02*
D03*
Y-230000D02*
D03*
X-590000Y-210000D02*
D03*
Y-190000D02*
D03*
X-610000Y-210000D02*
D03*
Y-190000D02*
D03*
Y-170000D02*
D03*
X-630000Y-210000D02*
D03*
X-650000D02*
D03*
X-670000D02*
D03*
X-690000D02*
D03*
X-630000Y-190000D02*
D03*
X-650000D02*
D03*
X-670000D02*
D03*
X-630000Y-170000D02*
D03*
X-650000D02*
D03*
X-670000D02*
D03*
X-630000Y-150000D02*
D03*
X-650000D02*
D03*
X-670000D02*
D03*
X-630000Y-130000D02*
D03*
X-650000D02*
D03*
X-670000D02*
D03*
X-650000Y-110000D02*
D03*
X-630000D02*
D03*
X-710000Y-100000D02*
D03*
X-610000Y-110000D02*
D03*
X-690000Y-80000D02*
D03*
Y-60000D02*
D03*
X-670000D02*
D03*
X-650000D02*
D03*
X-630000D02*
D03*
X-610000D02*
D03*
X-590000D02*
D03*
X-710000Y-40000D02*
D03*
X-690000D02*
D03*
X-650000D02*
D03*
X-630000D02*
D03*
X-610000D02*
D03*
X-590000D02*
D03*
X-710000Y70000D02*
D03*
X-690000D02*
D03*
X-670000D02*
D03*
X-650000D02*
D03*
X-630000D02*
D03*
X-610000D02*
D03*
X-590000D02*
D03*
X-710000Y90000D02*
D03*
X-690000D02*
D03*
X-670000D02*
D03*
X-650000D02*
D03*
X-630000D02*
D03*
X-610000D02*
D03*
X-590000D02*
D03*
X-710000Y110000D02*
D03*
X-690000D02*
D03*
X-670000D02*
D03*
X-650000D02*
D03*
X-630000D02*
D03*
X-610000D02*
D03*
X-590000D02*
D03*
Y130000D02*
D03*
X-610000D02*
D03*
X-630000D02*
D03*
X-650000D02*
D03*
X-670000D02*
D03*
X-690000D02*
D03*
X-710000D02*
D03*
X245776Y-197900D02*
D03*
X227225D02*
D03*
X-26475D02*
D03*
X-45025D02*
D03*
X155025D02*
D03*
X136475D02*
D03*
X64275D02*
D03*
X45725D02*
D03*
X-423250Y514197D02*
D03*
X-430750D02*
D03*
X-438250D02*
D03*
X-427000Y519500D02*
D03*
X0Y44000D02*
D03*
Y35000D02*
D03*
X-94336Y112651D02*
D03*
X-94338Y90551D02*
D03*
X-262000Y469000D02*
D03*
X-392000Y489500D02*
D03*
X-432000Y449500D02*
D03*
X-422000Y459500D02*
D03*
Y449500D02*
D03*
X-412000D02*
D03*
X-402000D02*
D03*
X-392000D02*
D03*
X-412000Y459500D02*
D03*
X-402000D02*
D03*
X-392000D02*
D03*
Y469500D02*
D03*
X-402000D02*
D03*
X-412000D02*
D03*
Y479500D02*
D03*
X-402000D02*
D03*
X-392000D02*
D03*
X37750Y214600D02*
D03*
Y235600D02*
D03*
X-60587Y242500D02*
D03*
X-107000Y209500D02*
D03*
X-114500D02*
D03*
X-107000Y242000D02*
D03*
X-114500D02*
D03*
X-260250Y214600D02*
D03*
Y235600D02*
D03*
X-412250Y214600D02*
D03*
Y235600D02*
D03*
X-360587Y238600D02*
D03*
X-666587D02*
D03*
X-516587D02*
D03*
X-434500Y519500D02*
D03*
X-442000D02*
D03*
X62503Y516347D02*
D03*
X72503D02*
D03*
X82503D02*
D03*
Y506347D02*
D03*
Y496347D02*
D03*
X72503D02*
D03*
X62503D02*
D03*
Y506347D02*
D03*
X72503D02*
D03*
X-235000Y495000D02*
D03*
X-244250D02*
D03*
X-235000Y505000D02*
D03*
X-244250D02*
D03*
X-235000Y515000D02*
D03*
X-244250D02*
D03*
X-235000Y525000D02*
D03*
X-245000D02*
D03*
X708000Y0D02*
D03*
X698000D02*
D03*
X223000D02*
D03*
X213000D02*
D03*
X98000D02*
D03*
X88000D02*
D03*
X-168000Y-1000D02*
D03*
X-178000D02*
D03*
X-312540Y9876D02*
D03*
X-322540D02*
D03*
X-332540D02*
D03*
X-312540Y-124D02*
D03*
X-322540D02*
D03*
X-332540D02*
D03*
X-312540Y-10123D02*
D03*
X-322540D02*
D03*
X-332540D02*
D03*
X17503Y567597D02*
D03*
X-12497Y547597D02*
D03*
X-17497Y552597D02*
D03*
X-22497Y557597D02*
D03*
X-27497Y562597D02*
D03*
X-32497Y567597D02*
D03*
X22503Y572597D02*
D03*
X2503Y552597D02*
D03*
X-7497Y542597D02*
D03*
X-2497Y547597D02*
D03*
X27503Y577597D02*
D03*
X22503Y582597D02*
D03*
X17503Y587597D02*
D03*
X12503Y592597D02*
D03*
X7503Y597597D02*
D03*
X2503Y602597D02*
D03*
X-7497D02*
D03*
X-2497Y607597D02*
D03*
X-22497Y587597D02*
D03*
X-17497Y592597D02*
D03*
X-12497Y597597D02*
D03*
X-37497Y572597D02*
D03*
X-32497Y577597D02*
D03*
X-27497Y582597D02*
D03*
X-45090Y450090D02*
D03*
X-50393Y455393D02*
D03*
X-55697Y460697D02*
D03*
X-60467Y465967D02*
D03*
X-65770Y471270D02*
D03*
X-71073Y476573D02*
D03*
X-76377Y481877D02*
D03*
X-81680Y487180D02*
D03*
X-86983Y492483D02*
D03*
X-92287Y497787D02*
D03*
X-97590Y503090D02*
D03*
X-102893Y508393D02*
D03*
X-108197Y513697D02*
D03*
X-113500Y519000D02*
D03*
X-121000Y523000D02*
D03*
X-128500D02*
D03*
X-136000D02*
D03*
X-143500D02*
D03*
Y530500D02*
D03*
X-334107Y449393D02*
D03*
X-328803Y454697D02*
D03*
X-323500Y460000D02*
D03*
X-143500Y538000D02*
D03*
Y545500D02*
D03*
Y553000D02*
D03*
Y560500D02*
D03*
Y568000D02*
D03*
Y575500D02*
D03*
Y583000D02*
D03*
Y590500D02*
D03*
Y598000D02*
D03*
Y605500D02*
D03*
Y612250D02*
D03*
X-273197Y543303D02*
D03*
X-280697D02*
D03*
X-288197D02*
D03*
X-293000Y522000D02*
D03*
X-301000Y519750D02*
D03*
X-308500D02*
D03*
X-316000D02*
D03*
X-323500D02*
D03*
X-338750Y529250D02*
D03*
Y538000D02*
D03*
X-338500Y598000D02*
D03*
Y605500D02*
D03*
Y575500D02*
D03*
Y583000D02*
D03*
X-174000Y612250D02*
D03*
X-181000D02*
D03*
X-151000D02*
D03*
X-158500D02*
D03*
X-196000D02*
D03*
X-188500D02*
D03*
X-293500Y613000D02*
D03*
X-286000D02*
D03*
X-278500D02*
D03*
X-263500D02*
D03*
X-271000D02*
D03*
X-316000Y612250D02*
D03*
X-308500Y613000D02*
D03*
X-301000D02*
D03*
X-323500Y612250D02*
D03*
X-338000D02*
D03*
X-562250Y214600D02*
D03*
Y235600D02*
D03*
X-712250Y214600D02*
D03*
Y235600D02*
D03*
X-330500Y578413D02*
D03*
X87413Y238600D02*
D03*
X233413D02*
D03*
X389413D02*
D03*
X690413D02*
D03*
X351000Y-60000D02*
D03*
X312000D02*
D03*
X-694150Y-227900D02*
D03*
X-716250D02*
D03*
X-744950D02*
D03*
X-767050D02*
D03*
X664226Y213600D02*
D03*
X516000D02*
D03*
X-206587Y213350D02*
D03*
X-437000Y479625D02*
D03*
X-425250Y475429D02*
D03*
X-464750Y504000D02*
D03*
X-464795Y511420D02*
D03*
X-434500Y546500D02*
D03*
X-424000Y546875D02*
D03*
X333059Y502500D02*
D03*
X57706Y587987D02*
D03*
X-269000Y492500D02*
D03*
X-300000Y-65000D02*
D03*
X-292500Y50000D02*
D03*
X-380000Y-124D02*
D03*
X-391750Y49687D02*
D03*
X338000Y-71954D02*
D03*
X40000Y277500D02*
D03*
X32500D02*
D03*
X47500D02*
D03*
X-130000D02*
D03*
X-137500D02*
D03*
X-145000D02*
D03*
X-560000Y257500D02*
D03*
X-550000Y257500D02*
D03*
X-555000Y252500D02*
D03*
Y262500D02*
D03*
X-575000D02*
D03*
X-375000Y440000D02*
D03*
Y446000D02*
D03*
X-575000Y252500D02*
D03*
X-375000Y452000D02*
D03*
X-570000Y257500D02*
D03*
X-580000D02*
D03*
X342750Y497243D02*
D03*
X318000Y557750D02*
D03*
X268750Y559250D02*
D03*
X-212500Y552500D02*
D03*
X-222500D02*
D03*
X715647Y116900D02*
D03*
X537500Y72000D02*
D03*
X206000Y215000D02*
D03*
X-700000Y44600D02*
D03*
X-401125Y508500D02*
D03*
X-406125Y504500D02*
D03*
X-442000Y483625D02*
D03*
X-432000Y483625D02*
D03*
X-442000Y535375D02*
D03*
X-432000Y535375D02*
D03*
X42500Y37500D02*
D03*
X-110000Y70000D02*
D03*
X-70000Y60000D02*
D03*
X-210000Y80000D02*
D03*
X10000Y70000D02*
D03*
X-10000D02*
D03*
X-30000D02*
D03*
X118122Y44925D02*
D03*
X-57000Y60000D02*
D03*
X-160053Y44900D02*
D03*
X265000Y507000D02*
D03*
X165000Y431000D02*
D03*
X12503Y488000D02*
D03*
X158000Y437000D02*
D03*
X586500Y-327500D02*
D03*
X444000Y-290000D02*
D03*
X291500Y-270000D02*
D03*
X-299869Y-317369D02*
D03*
X-600000Y-220000D02*
D03*
X-432500Y-250000D02*
D03*
X-79000Y210000D02*
D03*
X396000Y215000D02*
D03*
X59000D02*
D03*
X-389750D02*
D03*
X-545000D02*
D03*
X-695000D02*
D03*
X-330000Y549000D02*
D03*
Y567000D02*
D03*
X245753Y534603D02*
D03*
X275753Y559335D02*
D03*
X158000Y425000D02*
D03*
X253000Y534603D02*
D03*
X259500D02*
D03*
X165000Y443000D02*
D03*
X325000Y557243D02*
D03*
X82503Y450196D02*
D03*
X92503D02*
D03*
X652500Y37500D02*
D03*
X497500Y32500D02*
D03*
X385000Y5000D02*
D03*
X168000Y37550D02*
D03*
X-759750Y464270D02*
D03*
X-749750Y436900D02*
D03*
X-577750Y554270D02*
D03*
Y464270D02*
D03*
X-759750Y554270D02*
D03*
X-550000Y50000D02*
D03*
X-680000Y240000D02*
D03*
X-580000Y-10000D02*
D03*
Y10000D02*
D03*
X-655550Y464250D02*
D03*
X-577750Y526900D02*
D03*
Y436900D02*
D03*
X-749750Y526900D02*
D03*
X-655550Y554250D02*
D03*
X-681950Y566950D02*
D03*
Y476950D02*
D03*
X-470000Y70000D02*
D03*
X-490000D02*
D03*
X260000Y50000D02*
D03*
X243122Y44925D02*
D03*
X-112500Y430000D02*
D03*
X-32500D02*
D03*
X-52500D02*
D03*
X-72500D02*
D03*
X-92500D02*
D03*
X-132500D02*
D03*
X-152500D02*
D03*
X-172500D02*
D03*
X-192500D02*
D03*
X-212500D02*
D03*
X-232500D02*
D03*
X-252500D02*
D03*
X-272500D02*
D03*
X-292500D02*
D03*
X-312500D02*
D03*
X-332500D02*
D03*
X102503Y450196D02*
D03*
X52500Y572500D02*
D03*
X82500Y562500D02*
D03*
X102500D02*
D03*
X92250D02*
D03*
X72500D02*
D03*
X42500D02*
D03*
X-457500Y490000D02*
D03*
X-238000Y606000D02*
D03*
X-168000D02*
D03*
X-228000D02*
D03*
X-332500Y440000D02*
D03*
X-312500Y440000D02*
D03*
X-292500Y440000D02*
D03*
X-272500Y440000D02*
D03*
X-264625Y497500D02*
D03*
X-264625Y507500D02*
D03*
X-227500Y544625D02*
D03*
X-217500D02*
D03*
X550500Y72000D02*
D03*
D111*
X-700000Y44600D02*
Y210000D01*
X-695000Y215000D01*
D112*
X-325000Y480000D02*
X-262500D01*
X-347500Y457500D02*
X-325000Y480000D01*
X-265000Y532500D02*
X-252500Y520000D01*
X-320000Y532500D02*
X-265000D01*
X-252500Y490000D02*
Y520000D01*
X-492200Y417800D02*
X-362200D01*
X-555000Y355000D02*
X-492200Y417800D01*
X-362200D02*
X-347500Y432500D01*
X-500000Y435000D02*
X-380000D01*
X-375000Y440000D01*
X-575000Y360000D02*
X-500000Y435000D01*
X-380000Y-15000D02*
Y-124D01*
Y-15000D02*
X-375000Y-20000D01*
X-307500D01*
X-300000Y-27500D01*
X-375876Y20000D02*
X-297500D01*
X-380000Y15876D02*
X-375876Y20000D01*
X-380000Y-124D02*
Y15876D01*
X-292500Y25000D02*
Y50000D01*
X-297500Y20000D02*
X-292500Y25000D01*
X-300000Y-65000D02*
Y-27500D01*
X-575000Y257500D02*
Y360000D01*
X-375000Y440000D02*
Y455000D01*
X-555000Y257500D02*
Y355000D01*
X-330000Y542500D02*
Y567000D01*
Y542500D02*
X-320000Y532500D01*
X-347500Y432500D02*
Y457500D01*
X-262500Y480000D02*
X-252500Y490000D01*
D114*
X50000Y661600D02*
D03*
X10000D02*
D03*
X30000D02*
D03*
X-30000D02*
D03*
X-10000D02*
D03*
X-50000D02*
D03*
X-130000D02*
D03*
X-110000D02*
D03*
X-70000D02*
D03*
X-90000D02*
D03*
X-170000D02*
D03*
X-150000D02*
D03*
X-210000D02*
D03*
X-190000D02*
D03*
X-230000D02*
D03*
X-310000D02*
D03*
X-290000D02*
D03*
X-250000D02*
D03*
X-270000D02*
D03*
X-350000D02*
D03*
X-330000D02*
D03*
M02*
