G04*
G04 #@! TF.GenerationSoftware,Altium Limited,Altium Designer,19.1.8 (144)*
G04*
G04 Layer_Color=16711935*
%FSLAX44Y44*%
%MOMM*%
G71*
G01*
G75*
%ADD10C,0.2500*%
%ADD11C,0.2000*%
%ADD12C,0.2540*%
%ADD14C,0.5000*%
%ADD105C,0.1000*%
%ADD119C,0.5080*%
%ADD120C,0.1524*%
%ADD121R,25.0000X6.0000*%
%ADD122R,3.5000X1.6600*%
G36*
X1065995Y754971D02*
X1067106Y754860D01*
X1068273Y754693D01*
X1069551Y754416D01*
X1070939Y754082D01*
X1072439Y753638D01*
X1073995Y753138D01*
X1074106Y753082D01*
X1074383Y752971D01*
X1074883Y752805D01*
X1075550Y752582D01*
X1076328Y752249D01*
X1077216Y751860D01*
X1078216Y751471D01*
X1079272Y750972D01*
X1081549Y749861D01*
X1083883Y748527D01*
X1084994Y747805D01*
X1086049Y747083D01*
X1087049Y746305D01*
X1087938Y745472D01*
X1087993Y745416D01*
X1088104Y745305D01*
X1088271Y745083D01*
X1088493Y744806D01*
X1088826Y744472D01*
X1089104Y744028D01*
X1089437Y743583D01*
X1089771Y743028D01*
X1090493Y741861D01*
X1091048Y740473D01*
X1091326Y739695D01*
X1091493Y738973D01*
X1091604Y738195D01*
X1091659Y737362D01*
Y737140D01*
X1091604Y736917D01*
Y736584D01*
X1091493Y736195D01*
X1091382Y735751D01*
X1091271Y735251D01*
X1091048Y734751D01*
X1090771Y734251D01*
X1090493Y733751D01*
X1090104Y733251D01*
X1089604Y732807D01*
X1089049Y732362D01*
X1088438Y732029D01*
X1087660Y731751D01*
X1086827Y731529D01*
X1086771D01*
X1086604Y731473D01*
X1086382D01*
X1085993Y731418D01*
X1085549D01*
X1084994D01*
X1084327D01*
X1083549Y731473D01*
X1082716Y731529D01*
X1081772Y731640D01*
X1080716Y731807D01*
X1079605Y732029D01*
X1078327Y732307D01*
X1077050Y732640D01*
X1075605Y733029D01*
X1074106Y733529D01*
X1073995Y733584D01*
X1073717Y733696D01*
X1073217Y733862D01*
X1072550Y734084D01*
X1071773Y734418D01*
X1070884Y734807D01*
X1069939Y735195D01*
X1068884Y735695D01*
X1066607Y736806D01*
X1064329Y738139D01*
X1063218Y738862D01*
X1062162Y739639D01*
X1061218Y740417D01*
X1060329Y741250D01*
X1060274Y741306D01*
X1060163Y741417D01*
X1059996Y741639D01*
X1059774Y741917D01*
X1059496Y742250D01*
X1059163Y742639D01*
X1058885Y743139D01*
X1058496Y743639D01*
X1057885Y744861D01*
X1057274Y746194D01*
X1057052Y746972D01*
X1056885Y747694D01*
X1056774Y748527D01*
X1056719Y749305D01*
Y749416D01*
X1056774Y749694D01*
X1056830Y750138D01*
X1056996Y750749D01*
X1057219Y751360D01*
X1057607Y752083D01*
X1058163Y752749D01*
X1058885Y753416D01*
X1059330Y753749D01*
X1059774Y754027D01*
X1060329Y754305D01*
X1060940Y754527D01*
X1061607Y754693D01*
X1062329Y754860D01*
X1063107Y754971D01*
X1063996Y755027D01*
X1064940D01*
X1065995Y754971D01*
D02*
G37*
G36*
Y729974D02*
X1067106Y729863D01*
X1068273Y729696D01*
X1069551Y729418D01*
X1070939Y729085D01*
X1072439Y728641D01*
X1073995Y728140D01*
X1074106Y728085D01*
X1074383Y727974D01*
X1074883Y727807D01*
X1075550Y727585D01*
X1076328Y727252D01*
X1077216Y726863D01*
X1078216Y726474D01*
X1079272Y725974D01*
X1081549Y724863D01*
X1083883Y723530D01*
X1084994Y722808D01*
X1086049Y722086D01*
X1087049Y721308D01*
X1087938Y720475D01*
X1087993Y720419D01*
X1088104Y720308D01*
X1088271Y720086D01*
X1088493Y719808D01*
X1088826Y719475D01*
X1089104Y719030D01*
X1089437Y718586D01*
X1089771Y718030D01*
X1090493Y716864D01*
X1091048Y715475D01*
X1091326Y714697D01*
X1091493Y713975D01*
X1091604Y713198D01*
X1091659Y712364D01*
Y712142D01*
X1091604Y711920D01*
Y711587D01*
X1091493Y711198D01*
X1091382Y710753D01*
X1091271Y710254D01*
X1091048Y709753D01*
X1090771Y709254D01*
X1090493Y708754D01*
X1090104Y708254D01*
X1089604Y707809D01*
X1089049Y707365D01*
X1088438Y707032D01*
X1087660Y706754D01*
X1086827Y706532D01*
X1086771D01*
X1086604Y706476D01*
X1086382D01*
X1085993Y706421D01*
X1085549D01*
X1084994D01*
X1084327D01*
X1083549Y706476D01*
X1082716Y706532D01*
X1081772Y706643D01*
X1080716Y706809D01*
X1079605Y707032D01*
X1078327Y707309D01*
X1077050Y707643D01*
X1075605Y708031D01*
X1074106Y708531D01*
X1073995Y708587D01*
X1073717Y708698D01*
X1073217Y708865D01*
X1072550Y709087D01*
X1071773Y709420D01*
X1070884Y709809D01*
X1069939Y710198D01*
X1068884Y710698D01*
X1066607Y711809D01*
X1064329Y713142D01*
X1063218Y713864D01*
X1062162Y714642D01*
X1061218Y715420D01*
X1060329Y716253D01*
X1060274Y716308D01*
X1060163Y716420D01*
X1059996Y716642D01*
X1059774Y716919D01*
X1059496Y717253D01*
X1059163Y717642D01*
X1058885Y718142D01*
X1058496Y718642D01*
X1057885Y719864D01*
X1057274Y721197D01*
X1057052Y721974D01*
X1056885Y722697D01*
X1056774Y723530D01*
X1056719Y724308D01*
Y724419D01*
X1056774Y724696D01*
X1056830Y725141D01*
X1056996Y725752D01*
X1057219Y726363D01*
X1057607Y727085D01*
X1058163Y727752D01*
X1058885Y728418D01*
X1059330Y728752D01*
X1059774Y729029D01*
X1060329Y729307D01*
X1060940Y729529D01*
X1061607Y729696D01*
X1062329Y729863D01*
X1063107Y729974D01*
X1063996Y730029D01*
X1064940D01*
X1065995Y729974D01*
D02*
G37*
G36*
Y704976D02*
X1067106Y704865D01*
X1068273Y704698D01*
X1069551Y704421D01*
X1070939Y704088D01*
X1072439Y703643D01*
X1073995Y703143D01*
X1074106Y703088D01*
X1074383Y702977D01*
X1074883Y702810D01*
X1075550Y702588D01*
X1076328Y702254D01*
X1077216Y701865D01*
X1078216Y701477D01*
X1079272Y700977D01*
X1081549Y699866D01*
X1083883Y698532D01*
X1084994Y697810D01*
X1086049Y697088D01*
X1087049Y696311D01*
X1087938Y695477D01*
X1087993Y695422D01*
X1088104Y695311D01*
X1088271Y695088D01*
X1088493Y694811D01*
X1088826Y694477D01*
X1089104Y694033D01*
X1089437Y693589D01*
X1089771Y693033D01*
X1090493Y691867D01*
X1091048Y690478D01*
X1091326Y689700D01*
X1091493Y688978D01*
X1091604Y688200D01*
X1091659Y687367D01*
Y687145D01*
X1091604Y686923D01*
Y686589D01*
X1091493Y686200D01*
X1091382Y685756D01*
X1091271Y685256D01*
X1091048Y684756D01*
X1090771Y684256D01*
X1090493Y683756D01*
X1090104Y683256D01*
X1089604Y682812D01*
X1089049Y682367D01*
X1088438Y682034D01*
X1087660Y681756D01*
X1086827Y681534D01*
X1086771D01*
X1086604Y681479D01*
X1086382D01*
X1085993Y681423D01*
X1085549D01*
X1084994D01*
X1084327D01*
X1083549Y681479D01*
X1082716Y681534D01*
X1081772Y681645D01*
X1080716Y681812D01*
X1079605Y682034D01*
X1078327Y682312D01*
X1077050Y682645D01*
X1075605Y683034D01*
X1074106Y683534D01*
X1073995Y683590D01*
X1073717Y683701D01*
X1073217Y683867D01*
X1072550Y684090D01*
X1071773Y684423D01*
X1070884Y684812D01*
X1069939Y685201D01*
X1068884Y685701D01*
X1066607Y686812D01*
X1064329Y688145D01*
X1063218Y688867D01*
X1062162Y689644D01*
X1061218Y690422D01*
X1060329Y691255D01*
X1060274Y691311D01*
X1060163Y691422D01*
X1059996Y691644D01*
X1059774Y691922D01*
X1059496Y692255D01*
X1059163Y692644D01*
X1058885Y693144D01*
X1058496Y693644D01*
X1057885Y694866D01*
X1057274Y696199D01*
X1057052Y696977D01*
X1056885Y697699D01*
X1056774Y698532D01*
X1056719Y699310D01*
Y699421D01*
X1056774Y699699D01*
X1056830Y700143D01*
X1056996Y700754D01*
X1057219Y701366D01*
X1057607Y702088D01*
X1058163Y702754D01*
X1058885Y703421D01*
X1059330Y703754D01*
X1059774Y704032D01*
X1060329Y704310D01*
X1060940Y704532D01*
X1061607Y704698D01*
X1062329Y704865D01*
X1063107Y704976D01*
X1063996Y705032D01*
X1064940D01*
X1065995Y704976D01*
D02*
G37*
G36*
X1091048Y671646D02*
Y668202D01*
X1087382Y669424D01*
Y672924D01*
X1091048Y671646D01*
D02*
G37*
G36*
X1058774Y672702D02*
X1058885Y672591D01*
X1059163Y672368D01*
X1059552Y671980D01*
X1060163Y671424D01*
X1060885Y670758D01*
X1061774Y669980D01*
X1062718Y669147D01*
X1063829Y668202D01*
X1064995Y667202D01*
X1066273Y666202D01*
X1067606Y665091D01*
X1068995Y664036D01*
X1071884Y661870D01*
X1073384Y660814D01*
X1074883Y659814D01*
X1074939Y659759D01*
X1075217Y659592D01*
X1075605Y659370D01*
X1076161Y659037D01*
X1076828Y658592D01*
X1077661Y658092D01*
X1078550Y657592D01*
X1079605Y656981D01*
X1080772Y656315D01*
X1081994Y655648D01*
X1083327Y654926D01*
X1084771Y654148D01*
X1086216Y653426D01*
X1087771Y652648D01*
X1089382Y651871D01*
X1091048Y651149D01*
Y649093D01*
X1090993D01*
X1090937Y649149D01*
X1090604Y649315D01*
X1090049Y649538D01*
X1089326Y649871D01*
X1088493Y650315D01*
X1087438Y650815D01*
X1086271Y651371D01*
X1084994Y652037D01*
X1083660Y652759D01*
X1082216Y653537D01*
X1080716Y654370D01*
X1079161Y655259D01*
X1076050Y657148D01*
X1072939Y659148D01*
X1072884Y659203D01*
X1072606Y659370D01*
X1072273Y659648D01*
X1071773Y659981D01*
X1071162Y660481D01*
X1070439Y661036D01*
X1069606Y661647D01*
X1068662Y662370D01*
X1067662Y663203D01*
X1066551Y664036D01*
X1065384Y664980D01*
X1064218Y666036D01*
X1062940Y667091D01*
X1061663Y668202D01*
X1058996Y670647D01*
Y653537D01*
X1057330Y654093D01*
Y673202D01*
X1058774Y672702D01*
D02*
G37*
G36*
X944584Y127037D02*
X945695Y126926D01*
X946862Y126760D01*
X948139Y126482D01*
X949528Y126149D01*
X951028Y125704D01*
X952583Y125204D01*
X952695Y125149D01*
X952972Y125037D01*
X953472Y124871D01*
X954139Y124649D01*
X954917Y124315D01*
X955805Y123926D01*
X956805Y123538D01*
X957861Y123038D01*
X960138Y121927D01*
X962471Y120594D01*
X963582Y119871D01*
X964638Y119149D01*
X965638Y118371D01*
X966526Y117538D01*
X966582Y117483D01*
X966693Y117372D01*
X966860Y117149D01*
X967082Y116872D01*
X967415Y116538D01*
X967693Y116094D01*
X968026Y115650D01*
X968360Y115094D01*
X969082Y113927D01*
X969637Y112539D01*
X969915Y111761D01*
X970082Y111039D01*
X970193Y110261D01*
X970248Y109428D01*
Y109206D01*
X970193Y108984D01*
Y108650D01*
X970082Y108261D01*
X969971Y107817D01*
X969859Y107317D01*
X969637Y106817D01*
X969360Y106317D01*
X969082Y105817D01*
X968693Y105317D01*
X968193Y104873D01*
X967637Y104429D01*
X967026Y104095D01*
X966249Y103818D01*
X965415Y103595D01*
X965360D01*
X965193Y103540D01*
X964971D01*
X964582Y103484D01*
X964138D01*
X963582D01*
X962916D01*
X962138Y103540D01*
X961305Y103595D01*
X960360Y103706D01*
X959305Y103873D01*
X958194Y104095D01*
X956916Y104373D01*
X955639Y104706D01*
X954194Y105095D01*
X952695Y105595D01*
X952583Y105651D01*
X952306Y105762D01*
X951806Y105928D01*
X951139Y106151D01*
X950361Y106484D01*
X949473Y106873D01*
X948528Y107262D01*
X947473Y107761D01*
X945195Y108872D01*
X942918Y110206D01*
X941807Y110928D01*
X940751Y111706D01*
X939807Y112483D01*
X938918Y113316D01*
X938863Y113372D01*
X938752Y113483D01*
X938585Y113705D01*
X938363Y113983D01*
X938085Y114316D01*
X937752Y114705D01*
X937474Y115205D01*
X937085Y115705D01*
X936474Y116927D01*
X935863Y118260D01*
X935641Y119038D01*
X935474Y119760D01*
X935363Y120594D01*
X935307Y121371D01*
Y121482D01*
X935363Y121760D01*
X935419Y122205D01*
X935585Y122816D01*
X935807Y123427D01*
X936196Y124149D01*
X936752Y124815D01*
X937474Y125482D01*
X937918Y125815D01*
X938363Y126093D01*
X938918Y126371D01*
X939529Y126593D01*
X940196Y126760D01*
X940918Y126926D01*
X941696Y127037D01*
X942585Y127093D01*
X943529D01*
X944584Y127037D01*
D02*
G37*
G36*
Y102040D02*
X945695Y101929D01*
X946862Y101762D01*
X948139Y101484D01*
X949528Y101151D01*
X951028Y100707D01*
X952583Y100207D01*
X952695Y100151D01*
X952972Y100040D01*
X953472Y99873D01*
X954139Y99651D01*
X954917Y99318D01*
X955805Y98929D01*
X956805Y98540D01*
X957861Y98040D01*
X960138Y96929D01*
X962471Y95596D01*
X963582Y94874D01*
X964638Y94152D01*
X965638Y93374D01*
X966526Y92541D01*
X966582Y92485D01*
X966693Y92374D01*
X966860Y92152D01*
X967082Y91874D01*
X967415Y91541D01*
X967693Y91097D01*
X968026Y90652D01*
X968360Y90097D01*
X969082Y88930D01*
X969637Y87541D01*
X969915Y86764D01*
X970082Y86041D01*
X970193Y85264D01*
X970248Y84431D01*
Y84208D01*
X970193Y83986D01*
Y83653D01*
X970082Y83264D01*
X969971Y82820D01*
X969859Y82320D01*
X969637Y81820D01*
X969360Y81320D01*
X969082Y80820D01*
X968693Y80320D01*
X968193Y79875D01*
X967637Y79431D01*
X967026Y79098D01*
X966249Y78820D01*
X965415Y78598D01*
X965360D01*
X965193Y78542D01*
X964971D01*
X964582Y78487D01*
X964138D01*
X963582D01*
X962916D01*
X962138Y78542D01*
X961305Y78598D01*
X960360Y78709D01*
X959305Y78876D01*
X958194Y79098D01*
X956916Y79376D01*
X955639Y79709D01*
X954194Y80098D01*
X952695Y80598D01*
X952583Y80653D01*
X952306Y80764D01*
X951806Y80931D01*
X951139Y81153D01*
X950361Y81487D01*
X949473Y81875D01*
X948528Y82264D01*
X947473Y82764D01*
X945195Y83875D01*
X942918Y85208D01*
X941807Y85930D01*
X940751Y86708D01*
X939807Y87486D01*
X938918Y88319D01*
X938863Y88375D01*
X938752Y88486D01*
X938585Y88708D01*
X938363Y88986D01*
X938085Y89319D01*
X937752Y89708D01*
X937474Y90208D01*
X937085Y90708D01*
X936474Y91930D01*
X935863Y93263D01*
X935641Y94041D01*
X935474Y94763D01*
X935363Y95596D01*
X935307Y96374D01*
Y96485D01*
X935363Y96763D01*
X935419Y97207D01*
X935585Y97818D01*
X935807Y98429D01*
X936196Y99151D01*
X936752Y99818D01*
X937474Y100485D01*
X937918Y100818D01*
X938363Y101096D01*
X938918Y101373D01*
X939529Y101595D01*
X940196Y101762D01*
X940918Y101929D01*
X941696Y102040D01*
X942585Y102095D01*
X943529D01*
X944584Y102040D01*
D02*
G37*
G36*
X969637Y68710D02*
Y65266D01*
X965971Y66488D01*
Y69988D01*
X969637Y68710D01*
D02*
G37*
G36*
X944584Y66766D02*
X945695Y66655D01*
X946862Y66488D01*
X948139Y66210D01*
X949528Y65877D01*
X951028Y65433D01*
X952583Y64933D01*
X952695Y64877D01*
X952972Y64766D01*
X953472Y64599D01*
X954139Y64377D01*
X954917Y64044D01*
X955805Y63655D01*
X956805Y63266D01*
X957861Y62766D01*
X960138Y61655D01*
X962471Y60322D01*
X963582Y59600D01*
X964638Y58878D01*
X965638Y58100D01*
X966526Y57267D01*
X966582Y57211D01*
X966693Y57100D01*
X966860Y56878D01*
X967082Y56600D01*
X967415Y56267D01*
X967693Y55822D01*
X968026Y55378D01*
X968360Y54823D01*
X969082Y53656D01*
X969637Y52267D01*
X969915Y51490D01*
X970082Y50767D01*
X970193Y49990D01*
X970248Y49156D01*
Y48934D01*
X970193Y48712D01*
Y48379D01*
X970082Y47990D01*
X969971Y47545D01*
X969859Y47046D01*
X969637Y46546D01*
X969360Y46046D01*
X969082Y45546D01*
X968693Y45046D01*
X968193Y44601D01*
X967637Y44157D01*
X967026Y43824D01*
X966249Y43546D01*
X965415Y43324D01*
X965360D01*
X965193Y43268D01*
X964971D01*
X964582Y43213D01*
X964138D01*
X963582D01*
X962916D01*
X962138Y43268D01*
X961305Y43324D01*
X960360Y43435D01*
X959305Y43601D01*
X958194Y43824D01*
X956916Y44101D01*
X955639Y44435D01*
X954194Y44824D01*
X952695Y45324D01*
X952583Y45379D01*
X952306Y45490D01*
X951806Y45657D01*
X951139Y45879D01*
X950361Y46212D01*
X949473Y46601D01*
X948528Y46990D01*
X947473Y47490D01*
X945195Y48601D01*
X942918Y49934D01*
X941807Y50656D01*
X940751Y51434D01*
X939807Y52212D01*
X938918Y53045D01*
X938863Y53101D01*
X938752Y53212D01*
X938585Y53434D01*
X938363Y53712D01*
X938085Y54045D01*
X937752Y54434D01*
X937474Y54934D01*
X937085Y55434D01*
X936474Y56656D01*
X935863Y57989D01*
X935641Y58767D01*
X935474Y59489D01*
X935363Y60322D01*
X935307Y61100D01*
Y61211D01*
X935363Y61488D01*
X935419Y61933D01*
X935585Y62544D01*
X935807Y63155D01*
X936196Y63877D01*
X936752Y64544D01*
X937474Y65210D01*
X937918Y65544D01*
X938363Y65821D01*
X938918Y66099D01*
X939529Y66321D01*
X940196Y66488D01*
X940918Y66655D01*
X941696Y66766D01*
X942585Y66821D01*
X943529D01*
X944584Y66766D01*
D02*
G37*
G36*
X942473Y42602D02*
X943084Y42491D01*
X943751Y42268D01*
X943807D01*
X943862Y42213D01*
X944029Y42157D01*
X944251Y42102D01*
X944807Y41824D01*
X945584Y41435D01*
X946417Y40991D01*
X947362Y40380D01*
X948306Y39657D01*
X949250Y38769D01*
X949362Y38658D01*
X949473Y38547D01*
X949639Y38324D01*
X949917Y38047D01*
X950139Y37769D01*
X950473Y37380D01*
X950861Y36936D01*
X951250Y36436D01*
X951695Y35880D01*
X952195Y35213D01*
X952750Y34547D01*
X953306Y33769D01*
X953917Y32936D01*
X954583Y32047D01*
X955250Y31047D01*
X955305Y30936D01*
X955528Y30658D01*
X955861Y30214D01*
X956305Y29603D01*
X956861Y28825D01*
X957527Y27992D01*
X958305Y26992D01*
X959138Y25992D01*
X960083Y24881D01*
X961083Y23715D01*
X962138Y22548D01*
X963194Y21382D01*
X965527Y19104D01*
X966749Y18049D01*
X967971Y17049D01*
Y34047D01*
X969637Y33491D01*
Y14660D01*
X968137Y15160D01*
X968026Y15216D01*
X967804Y15438D01*
X967415Y15716D01*
X966860Y16160D01*
X966193Y16715D01*
X965415Y17382D01*
X964527Y18215D01*
X963582Y19104D01*
X962527Y20159D01*
X961360Y21270D01*
X960194Y22548D01*
X958972Y23881D01*
X957694Y25381D01*
X956416Y26937D01*
X955139Y28659D01*
X953861Y30436D01*
X953806Y30492D01*
X953695Y30658D01*
X953528Y30936D01*
X953250Y31269D01*
X952917Y31714D01*
X952583Y32214D01*
X951750Y33325D01*
X950806Y34547D01*
X949806Y35769D01*
X948806Y36880D01*
X948362Y37324D01*
X947917Y37769D01*
X947806Y37824D01*
X947584Y38047D01*
X947195Y38380D01*
X946695Y38713D01*
X946084Y39158D01*
X945362Y39546D01*
X944584Y39935D01*
X943751Y40269D01*
X943696D01*
X943584Y40324D01*
X943418Y40380D01*
X943195Y40435D01*
X942585Y40546D01*
X941862Y40657D01*
X941029Y40713D01*
X940140Y40602D01*
X939307Y40324D01*
X938918Y40157D01*
X938585Y39880D01*
X938529Y39824D01*
X938307Y39657D01*
X938085Y39324D01*
X937752Y38880D01*
X937474Y38324D01*
X937196Y37602D01*
X937029Y36769D01*
X936974Y35769D01*
Y35491D01*
X937029Y35158D01*
X937085Y34713D01*
X937196Y34214D01*
X937363Y33547D01*
X937641Y32880D01*
X937918Y32103D01*
X938363Y31269D01*
X938863Y30436D01*
X939474Y29603D01*
X940196Y28714D01*
X941085Y27825D01*
X942085Y26937D01*
X943307Y26103D01*
X944640Y25270D01*
X944029Y23715D01*
X943973Y23770D01*
X943807Y23826D01*
X943584Y23992D01*
X943307Y24215D01*
X942918Y24437D01*
X942473Y24770D01*
X941473Y25492D01*
X940362Y26381D01*
X939251Y27492D01*
X938196Y28659D01*
X937252Y29936D01*
Y29992D01*
X937141Y30103D01*
X937085Y30269D01*
X936918Y30492D01*
X936807Y30770D01*
X936641Y31103D01*
X936252Y31881D01*
X935919Y32880D01*
X935585Y33936D01*
X935363Y35158D01*
X935307Y36380D01*
Y36769D01*
X935363Y37047D01*
Y37380D01*
X935419Y37769D01*
X935641Y38602D01*
X935919Y39546D01*
X936363Y40491D01*
X937029Y41324D01*
X937418Y41713D01*
X937863Y42046D01*
X937974Y42102D01*
X938307Y42268D01*
X938807Y42435D01*
X939474Y42602D01*
X940307Y42713D01*
X941307Y42768D01*
X942473Y42602D01*
D02*
G37*
G36*
X967971Y1439D02*
Y7772D01*
X969637Y7161D01*
Y-7893D01*
X967971Y-7338D01*
Y-505D01*
X937530Y9883D01*
Y9827D01*
X937585Y9772D01*
X937696Y9549D01*
X937807Y9327D01*
X937974Y9050D01*
X938196Y8661D01*
X938418Y8216D01*
X938641Y7716D01*
X938918Y7161D01*
X939196Y6494D01*
X939474Y5828D01*
X939807Y5050D01*
X940140Y4217D01*
X940474Y3383D01*
X940807Y2439D01*
X941196Y1439D01*
X939418Y1661D01*
Y1717D01*
X939363Y1884D01*
X939251Y2106D01*
X939140Y2439D01*
X939029Y2883D01*
X938807Y3383D01*
X938641Y3939D01*
X938363Y4550D01*
X938085Y5217D01*
X937807Y5939D01*
X937085Y7550D01*
X936252Y9272D01*
X935307Y11049D01*
Y12549D01*
X967971Y1439D01*
D02*
G37*
G36*
X-890Y-712037D02*
X-4334D01*
X-3112Y-708371D01*
X388D01*
X-890Y-712037D01*
D02*
G37*
G36*
X-11611Y-702094D02*
X-6389D01*
X-6945Y-703705D01*
X-12166D01*
X-15000Y-712037D01*
X-16777D01*
X-13944Y-703705D01*
X-28109D01*
X-27609Y-702205D01*
X-6000Y-677708D01*
X-3334D01*
X-11611Y-702094D01*
D02*
G37*
G36*
X-24832Y-679763D02*
X-24943Y-679874D01*
X-25165Y-680152D01*
X-25554Y-680541D01*
X-26109Y-681152D01*
X-26776Y-681874D01*
X-27554Y-682763D01*
X-28387Y-683707D01*
X-29331Y-684818D01*
X-30331Y-685984D01*
X-31331Y-687262D01*
X-32442Y-688595D01*
X-33498Y-689984D01*
X-35664Y-692873D01*
X-36720Y-694372D01*
X-37719Y-695872D01*
X-37775Y-695928D01*
X-37942Y-696206D01*
X-38164Y-696594D01*
X-38497Y-697150D01*
X-38942Y-697817D01*
X-39441Y-698650D01*
X-39941Y-699539D01*
X-40552Y-700594D01*
X-41219Y-701761D01*
X-41886Y-702983D01*
X-42608Y-704316D01*
X-43385Y-705760D01*
X-44108Y-707205D01*
X-44885Y-708760D01*
X-45663Y-710371D01*
X-46385Y-712037D01*
X-48440D01*
Y-711982D01*
X-48385Y-711926D01*
X-48218Y-711593D01*
X-47996Y-711037D01*
X-47663Y-710315D01*
X-47218Y-709482D01*
X-46718Y-708427D01*
X-46163Y-707260D01*
X-45496Y-705982D01*
X-44774Y-704649D01*
X-43997Y-703205D01*
X-43163Y-701705D01*
X-42274Y-700150D01*
X-40386Y-697039D01*
X-38386Y-693928D01*
X-38330Y-693873D01*
X-38164Y-693595D01*
X-37886Y-693261D01*
X-37553Y-692762D01*
X-37053Y-692150D01*
X-36497Y-691428D01*
X-35886Y-690595D01*
X-35164Y-689651D01*
X-34331Y-688651D01*
X-33498Y-687540D01*
X-32553Y-686373D01*
X-31498Y-685207D01*
X-30442Y-683929D01*
X-29331Y-682652D01*
X-26887Y-679985D01*
X-43997D01*
X-43441Y-678319D01*
X-24332D01*
X-24832Y-679763D01*
D02*
G37*
G36*
X-68161Y-710371D02*
X-61828D01*
X-62439Y-712037D01*
X-77493D01*
X-76937Y-710371D01*
X-70105D01*
X-59717Y-679930D01*
X-59773D01*
X-59828Y-679985D01*
X-60050Y-680096D01*
X-60273Y-680207D01*
X-60550Y-680374D01*
X-60939Y-680596D01*
X-61384Y-680818D01*
X-61884Y-681040D01*
X-62439Y-681318D01*
X-63106Y-681596D01*
X-63772Y-681874D01*
X-64550Y-682207D01*
X-65383Y-682540D01*
X-66216Y-682874D01*
X-67161Y-683207D01*
X-68161Y-683596D01*
X-67938Y-681818D01*
X-67883D01*
X-67716Y-681763D01*
X-67494Y-681652D01*
X-67161Y-681541D01*
X-66716Y-681429D01*
X-66216Y-681207D01*
X-65661Y-681040D01*
X-65050Y-680763D01*
X-64383Y-680485D01*
X-63661Y-680207D01*
X-62050Y-679485D01*
X-60328Y-678652D01*
X-58551Y-677708D01*
X-57051D01*
X-68161Y-710371D01*
D02*
G37*
G36*
X52160Y-677763D02*
X52605Y-677819D01*
X53216Y-677985D01*
X53827Y-678207D01*
X54549Y-678596D01*
X55216Y-679152D01*
X55882Y-679874D01*
X56215Y-680318D01*
X56493Y-680763D01*
X56771Y-681318D01*
X56993Y-681929D01*
X57160Y-682596D01*
X57326Y-683318D01*
X57438Y-684096D01*
X57493Y-684985D01*
Y-685929D01*
X57438Y-686984D01*
X57326Y-688095D01*
X57160Y-689262D01*
X56882Y-690539D01*
X56549Y-691928D01*
X56104Y-693428D01*
X55604Y-694984D01*
X55549Y-695095D01*
X55438Y-695372D01*
X55271Y-695872D01*
X55049Y-696539D01*
X54715Y-697317D01*
X54327Y-698205D01*
X53938Y-699205D01*
X53438Y-700261D01*
X52327Y-702538D01*
X50994Y-704871D01*
X50272Y-705982D01*
X49549Y-707038D01*
X48772Y-708038D01*
X47938Y-708926D01*
X47883Y-708982D01*
X47772Y-709093D01*
X47550Y-709260D01*
X47272Y-709482D01*
X46939Y-709815D01*
X46494Y-710093D01*
X46050Y-710426D01*
X45494Y-710760D01*
X44328Y-711482D01*
X42939Y-712037D01*
X42161Y-712315D01*
X41439Y-712482D01*
X40661Y-712593D01*
X39828Y-712648D01*
X39606D01*
X39384Y-712593D01*
X39051D01*
X38662Y-712482D01*
X38217Y-712371D01*
X37717Y-712260D01*
X37217Y-712037D01*
X36717Y-711760D01*
X36217Y-711482D01*
X35717Y-711093D01*
X35273Y-710593D01*
X34829Y-710038D01*
X34495Y-709426D01*
X34218Y-708649D01*
X33995Y-707815D01*
Y-707760D01*
X33940Y-707593D01*
Y-707371D01*
X33884Y-706982D01*
Y-706538D01*
Y-705982D01*
Y-705316D01*
X33940Y-704538D01*
X33995Y-703705D01*
X34107Y-702760D01*
X34273Y-701705D01*
X34495Y-700594D01*
X34773Y-699316D01*
X35106Y-698039D01*
X35495Y-696594D01*
X35995Y-695095D01*
X36051Y-694984D01*
X36162Y-694706D01*
X36328Y-694206D01*
X36551Y-693539D01*
X36884Y-692762D01*
X37273Y-691873D01*
X37662Y-690928D01*
X38162Y-689873D01*
X39273Y-687595D01*
X40606Y-685318D01*
X41328Y-684207D01*
X42106Y-683151D01*
X42883Y-682207D01*
X43717Y-681318D01*
X43772Y-681263D01*
X43883Y-681152D01*
X44106Y-680985D01*
X44383Y-680763D01*
X44717Y-680485D01*
X45105Y-680152D01*
X45605Y-679874D01*
X46105Y-679485D01*
X47327Y-678874D01*
X48661Y-678263D01*
X49438Y-678041D01*
X50160Y-677874D01*
X50994Y-677763D01*
X51771Y-677708D01*
X51883D01*
X52160Y-677763D01*
D02*
G37*
G36*
X27163D02*
X27607Y-677819D01*
X28218Y-677985D01*
X28829Y-678207D01*
X29551Y-678596D01*
X30218Y-679152D01*
X30885Y-679874D01*
X31218Y-680318D01*
X31496Y-680763D01*
X31773Y-681318D01*
X31996Y-681929D01*
X32162Y-682596D01*
X32329Y-683318D01*
X32440Y-684096D01*
X32496Y-684985D01*
Y-685929D01*
X32440Y-686984D01*
X32329Y-688095D01*
X32162Y-689262D01*
X31885Y-690539D01*
X31551Y-691928D01*
X31107Y-693428D01*
X30607Y-694984D01*
X30551Y-695095D01*
X30440Y-695372D01*
X30274Y-695872D01*
X30051Y-696539D01*
X29718Y-697317D01*
X29329Y-698205D01*
X28940Y-699205D01*
X28440Y-700261D01*
X27329Y-702538D01*
X25996Y-704871D01*
X25274Y-705982D01*
X24552Y-707038D01*
X23774Y-708038D01*
X22941Y-708926D01*
X22885Y-708982D01*
X22774Y-709093D01*
X22552Y-709260D01*
X22274Y-709482D01*
X21941Y-709815D01*
X21497Y-710093D01*
X21052Y-710426D01*
X20497Y-710760D01*
X19330Y-711482D01*
X17941Y-712037D01*
X17164Y-712315D01*
X16442Y-712482D01*
X15664Y-712593D01*
X14831Y-712648D01*
X14609D01*
X14386Y-712593D01*
X14053D01*
X13664Y-712482D01*
X13220Y-712371D01*
X12720Y-712260D01*
X12220Y-712037D01*
X11720Y-711760D01*
X11220Y-711482D01*
X10720Y-711093D01*
X10276Y-710593D01*
X9831Y-710038D01*
X9498Y-709426D01*
X9220Y-708649D01*
X8998Y-707815D01*
Y-707760D01*
X8942Y-707593D01*
Y-707371D01*
X8887Y-706982D01*
Y-706538D01*
Y-705982D01*
Y-705316D01*
X8942Y-704538D01*
X8998Y-703705D01*
X9109Y-702760D01*
X9276Y-701705D01*
X9498Y-700594D01*
X9776Y-699316D01*
X10109Y-698039D01*
X10498Y-696594D01*
X10998Y-695095D01*
X11053Y-694984D01*
X11164Y-694706D01*
X11331Y-694206D01*
X11553Y-693539D01*
X11887Y-692762D01*
X12276Y-691873D01*
X12664Y-690928D01*
X13164Y-689873D01*
X14275Y-687595D01*
X15609Y-685318D01*
X16331Y-684207D01*
X17108Y-683151D01*
X17886Y-682207D01*
X18719Y-681318D01*
X18775Y-681263D01*
X18886Y-681152D01*
X19108Y-680985D01*
X19386Y-680763D01*
X19719Y-680485D01*
X20108Y-680152D01*
X20608Y-679874D01*
X21108Y-679485D01*
X22330Y-678874D01*
X23663Y-678263D01*
X24441Y-678041D01*
X25163Y-677874D01*
X25996Y-677763D01*
X26774Y-677708D01*
X26885D01*
X27163Y-677763D01*
D02*
G37*
%LPC*%
G36*
X1064107Y753305D02*
X1063162D01*
X1062329Y753249D01*
X1061551Y753138D01*
X1061496D01*
X1061440Y753082D01*
X1061274Y753027D01*
X1061051Y752971D01*
X1060552Y752693D01*
X1059940Y752305D01*
X1059385Y751694D01*
X1058885Y750916D01*
X1058663Y750471D01*
X1058496Y749972D01*
X1058441Y749361D01*
X1058385Y748749D01*
Y748638D01*
X1058441Y748416D01*
X1058496Y747972D01*
X1058607Y747416D01*
X1058885Y746750D01*
X1059218Y745972D01*
X1059663Y745083D01*
X1060329Y744139D01*
X1061163Y743139D01*
X1061663Y742583D01*
X1062218Y742084D01*
X1062774Y741528D01*
X1063440Y740973D01*
X1064162Y740417D01*
X1064995Y739862D01*
X1065829Y739306D01*
X1066773Y738751D01*
X1067773Y738195D01*
X1068829Y737639D01*
X1069995Y737140D01*
X1071273Y736584D01*
X1072550Y736084D01*
X1073995Y735584D01*
X1074050D01*
X1074161Y735529D01*
X1074383Y735473D01*
X1074661Y735362D01*
X1075050Y735251D01*
X1075494Y735140D01*
X1075939Y734973D01*
X1076494Y734862D01*
X1077716Y734584D01*
X1079050Y734251D01*
X1080494Y734029D01*
X1081994Y733862D01*
X1083494Y733751D01*
X1084938D01*
X1086271Y733918D01*
X1087493Y734251D01*
X1088049Y734529D01*
X1088493Y734807D01*
X1088938Y735195D01*
X1089326Y735584D01*
X1089604Y736084D01*
X1089826Y736584D01*
X1089937Y737251D01*
X1089993Y737917D01*
Y738028D01*
X1089937Y738251D01*
X1089882Y738695D01*
X1089715Y739195D01*
X1089493Y739862D01*
X1089160Y740639D01*
X1088660Y741528D01*
X1087993Y742472D01*
X1087160Y743528D01*
X1086660Y744028D01*
X1086105Y744583D01*
X1085493Y745083D01*
X1084827Y745639D01*
X1084049Y746194D01*
X1083271Y746805D01*
X1082383Y747361D01*
X1081438Y747916D01*
X1080438Y748472D01*
X1079327Y749027D01*
X1078105Y749583D01*
X1076828Y750083D01*
X1075494Y750638D01*
X1074050Y751138D01*
X1073939Y751194D01*
X1073661Y751249D01*
X1073217Y751416D01*
X1072606Y751582D01*
X1071884Y751805D01*
X1071106Y752027D01*
X1070162Y752249D01*
X1069217Y752471D01*
X1067162Y752916D01*
X1065107Y753249D01*
X1064107Y753305D01*
D02*
G37*
G36*
Y728307D02*
X1063162D01*
X1062329Y728252D01*
X1061551Y728140D01*
X1061496D01*
X1061440Y728085D01*
X1061274Y728029D01*
X1061051Y727974D01*
X1060552Y727696D01*
X1059940Y727307D01*
X1059385Y726696D01*
X1058885Y725919D01*
X1058663Y725474D01*
X1058496Y724974D01*
X1058441Y724363D01*
X1058385Y723752D01*
Y723641D01*
X1058441Y723419D01*
X1058496Y722974D01*
X1058607Y722419D01*
X1058885Y721752D01*
X1059218Y720975D01*
X1059663Y720086D01*
X1060329Y719141D01*
X1061163Y718142D01*
X1061663Y717586D01*
X1062218Y717086D01*
X1062774Y716531D01*
X1063440Y715975D01*
X1064162Y715420D01*
X1064995Y714864D01*
X1065829Y714309D01*
X1066773Y713753D01*
X1067773Y713198D01*
X1068829Y712642D01*
X1069995Y712142D01*
X1071273Y711587D01*
X1072550Y711087D01*
X1073995Y710587D01*
X1074050D01*
X1074161Y710531D01*
X1074383Y710476D01*
X1074661Y710365D01*
X1075050Y710254D01*
X1075494Y710142D01*
X1075939Y709976D01*
X1076494Y709865D01*
X1077716Y709587D01*
X1079050Y709254D01*
X1080494Y709031D01*
X1081994Y708865D01*
X1083494Y708754D01*
X1084938D01*
X1086271Y708920D01*
X1087493Y709254D01*
X1088049Y709531D01*
X1088493Y709809D01*
X1088938Y710198D01*
X1089326Y710587D01*
X1089604Y711087D01*
X1089826Y711587D01*
X1089937Y712253D01*
X1089993Y712920D01*
Y713031D01*
X1089937Y713253D01*
X1089882Y713698D01*
X1089715Y714197D01*
X1089493Y714864D01*
X1089160Y715642D01*
X1088660Y716531D01*
X1087993Y717475D01*
X1087160Y718530D01*
X1086660Y719030D01*
X1086105Y719586D01*
X1085493Y720086D01*
X1084827Y720641D01*
X1084049Y721197D01*
X1083271Y721808D01*
X1082383Y722363D01*
X1081438Y722919D01*
X1080438Y723474D01*
X1079327Y724030D01*
X1078105Y724585D01*
X1076828Y725085D01*
X1075494Y725641D01*
X1074050Y726141D01*
X1073939Y726196D01*
X1073661Y726252D01*
X1073217Y726419D01*
X1072606Y726585D01*
X1071884Y726807D01*
X1071106Y727029D01*
X1070162Y727252D01*
X1069217Y727474D01*
X1067162Y727918D01*
X1065107Y728252D01*
X1064107Y728307D01*
D02*
G37*
G36*
Y703310D02*
X1063162D01*
X1062329Y703254D01*
X1061551Y703143D01*
X1061496D01*
X1061440Y703088D01*
X1061274Y703032D01*
X1061051Y702977D01*
X1060552Y702699D01*
X1059940Y702310D01*
X1059385Y701699D01*
X1058885Y700921D01*
X1058663Y700477D01*
X1058496Y699977D01*
X1058441Y699366D01*
X1058385Y698755D01*
Y698644D01*
X1058441Y698421D01*
X1058496Y697977D01*
X1058607Y697421D01*
X1058885Y696755D01*
X1059218Y695977D01*
X1059663Y695088D01*
X1060329Y694144D01*
X1061163Y693144D01*
X1061663Y692589D01*
X1062218Y692089D01*
X1062774Y691533D01*
X1063440Y690978D01*
X1064162Y690422D01*
X1064995Y689867D01*
X1065829Y689311D01*
X1066773Y688756D01*
X1067773Y688200D01*
X1068829Y687645D01*
X1069995Y687145D01*
X1071273Y686589D01*
X1072550Y686089D01*
X1073995Y685589D01*
X1074050D01*
X1074161Y685534D01*
X1074383Y685478D01*
X1074661Y685367D01*
X1075050Y685256D01*
X1075494Y685145D01*
X1075939Y684978D01*
X1076494Y684867D01*
X1077716Y684589D01*
X1079050Y684256D01*
X1080494Y684034D01*
X1081994Y683867D01*
X1083494Y683756D01*
X1084938D01*
X1086271Y683923D01*
X1087493Y684256D01*
X1088049Y684534D01*
X1088493Y684812D01*
X1088938Y685201D01*
X1089326Y685589D01*
X1089604Y686089D01*
X1089826Y686589D01*
X1089937Y687256D01*
X1089993Y687923D01*
Y688034D01*
X1089937Y688256D01*
X1089882Y688700D01*
X1089715Y689200D01*
X1089493Y689867D01*
X1089160Y690644D01*
X1088660Y691533D01*
X1087993Y692478D01*
X1087160Y693533D01*
X1086660Y694033D01*
X1086105Y694588D01*
X1085493Y695088D01*
X1084827Y695644D01*
X1084049Y696199D01*
X1083271Y696810D01*
X1082383Y697366D01*
X1081438Y697921D01*
X1080438Y698477D01*
X1079327Y699032D01*
X1078105Y699588D01*
X1076828Y700088D01*
X1075494Y700643D01*
X1074050Y701143D01*
X1073939Y701199D01*
X1073661Y701254D01*
X1073217Y701421D01*
X1072606Y701588D01*
X1071884Y701810D01*
X1071106Y702032D01*
X1070162Y702254D01*
X1069217Y702477D01*
X1067162Y702921D01*
X1065107Y703254D01*
X1064107Y703310D01*
D02*
G37*
G36*
X942696Y125371D02*
X941751D01*
X940918Y125315D01*
X940140Y125204D01*
X940085D01*
X940029Y125149D01*
X939863Y125093D01*
X939640Y125037D01*
X939140Y124760D01*
X938529Y124371D01*
X937974Y123760D01*
X937474Y122982D01*
X937252Y122538D01*
X937085Y122038D01*
X937029Y121427D01*
X936974Y120816D01*
Y120705D01*
X937029Y120482D01*
X937085Y120038D01*
X937196Y119482D01*
X937474Y118816D01*
X937807Y118038D01*
X938252Y117149D01*
X938918Y116205D01*
X939752Y115205D01*
X940251Y114650D01*
X940807Y114150D01*
X941362Y113594D01*
X942029Y113039D01*
X942751Y112483D01*
X943584Y111928D01*
X944418Y111372D01*
X945362Y110817D01*
X946362Y110261D01*
X947417Y109706D01*
X948584Y109206D01*
X949862Y108650D01*
X951139Y108150D01*
X952583Y107650D01*
X952639D01*
X952750Y107595D01*
X952972Y107539D01*
X953250Y107428D01*
X953639Y107317D01*
X954083Y107206D01*
X954528Y107039D01*
X955083Y106928D01*
X956305Y106650D01*
X957638Y106317D01*
X959083Y106095D01*
X960583Y105928D01*
X962083Y105817D01*
X963527D01*
X964860Y105984D01*
X966082Y106317D01*
X966638Y106595D01*
X967082Y106873D01*
X967526Y107262D01*
X967915Y107650D01*
X968193Y108150D01*
X968415Y108650D01*
X968526Y109317D01*
X968582Y109984D01*
Y110095D01*
X968526Y110317D01*
X968471Y110761D01*
X968304Y111261D01*
X968082Y111928D01*
X967749Y112705D01*
X967249Y113594D01*
X966582Y114539D01*
X965749Y115594D01*
X965249Y116094D01*
X964693Y116650D01*
X964082Y117149D01*
X963416Y117705D01*
X962638Y118260D01*
X961860Y118871D01*
X960972Y119427D01*
X960027Y119983D01*
X959027Y120538D01*
X957916Y121094D01*
X956694Y121649D01*
X955416Y122149D01*
X954083Y122704D01*
X952639Y123204D01*
X952528Y123260D01*
X952250Y123315D01*
X951806Y123482D01*
X951195Y123649D01*
X950473Y123871D01*
X949695Y124093D01*
X948751Y124315D01*
X947806Y124537D01*
X945751Y124982D01*
X943696Y125315D01*
X942696Y125371D01*
D02*
G37*
G36*
Y100373D02*
X941751D01*
X940918Y100318D01*
X940140Y100207D01*
X940085D01*
X940029Y100151D01*
X939863Y100096D01*
X939640Y100040D01*
X939140Y99762D01*
X938529Y99374D01*
X937974Y98762D01*
X937474Y97985D01*
X937252Y97540D01*
X937085Y97040D01*
X937029Y96429D01*
X936974Y95818D01*
Y95707D01*
X937029Y95485D01*
X937085Y95041D01*
X937196Y94485D01*
X937474Y93819D01*
X937807Y93041D01*
X938252Y92152D01*
X938918Y91208D01*
X939752Y90208D01*
X940251Y89652D01*
X940807Y89152D01*
X941362Y88597D01*
X942029Y88041D01*
X942751Y87486D01*
X943584Y86930D01*
X944418Y86375D01*
X945362Y85819D01*
X946362Y85264D01*
X947417Y84708D01*
X948584Y84208D01*
X949862Y83653D01*
X951139Y83153D01*
X952583Y82653D01*
X952639D01*
X952750Y82597D01*
X952972Y82542D01*
X953250Y82431D01*
X953639Y82320D01*
X954083Y82209D01*
X954528Y82042D01*
X955083Y81931D01*
X956305Y81653D01*
X957638Y81320D01*
X959083Y81098D01*
X960583Y80931D01*
X962083Y80820D01*
X963527D01*
X964860Y80986D01*
X966082Y81320D01*
X966638Y81598D01*
X967082Y81875D01*
X967526Y82264D01*
X967915Y82653D01*
X968193Y83153D01*
X968415Y83653D01*
X968526Y84319D01*
X968582Y84986D01*
Y85097D01*
X968526Y85319D01*
X968471Y85764D01*
X968304Y86264D01*
X968082Y86930D01*
X967749Y87708D01*
X967249Y88597D01*
X966582Y89541D01*
X965749Y90597D01*
X965249Y91097D01*
X964693Y91652D01*
X964082Y92152D01*
X963416Y92708D01*
X962638Y93263D01*
X961860Y93874D01*
X960972Y94430D01*
X960027Y94985D01*
X959027Y95541D01*
X957916Y96096D01*
X956694Y96651D01*
X955416Y97151D01*
X954083Y97707D01*
X952639Y98207D01*
X952528Y98263D01*
X952250Y98318D01*
X951806Y98485D01*
X951195Y98651D01*
X950473Y98874D01*
X949695Y99096D01*
X948751Y99318D01*
X947806Y99540D01*
X945751Y99985D01*
X943696Y100318D01*
X942696Y100373D01*
D02*
G37*
G36*
Y65099D02*
X941751D01*
X940918Y65044D01*
X940140Y64933D01*
X940085D01*
X940029Y64877D01*
X939863Y64822D01*
X939640Y64766D01*
X939140Y64488D01*
X938529Y64099D01*
X937974Y63488D01*
X937474Y62711D01*
X937252Y62266D01*
X937085Y61766D01*
X937029Y61155D01*
X936974Y60544D01*
Y60433D01*
X937029Y60211D01*
X937085Y59767D01*
X937196Y59211D01*
X937474Y58544D01*
X937807Y57767D01*
X938252Y56878D01*
X938918Y55933D01*
X939752Y54934D01*
X940251Y54378D01*
X940807Y53878D01*
X941362Y53323D01*
X942029Y52767D01*
X942751Y52212D01*
X943584Y51656D01*
X944418Y51101D01*
X945362Y50545D01*
X946362Y49990D01*
X947417Y49434D01*
X948584Y48934D01*
X949862Y48379D01*
X951139Y47879D01*
X952583Y47379D01*
X952639D01*
X952750Y47323D01*
X952972Y47268D01*
X953250Y47157D01*
X953639Y47046D01*
X954083Y46934D01*
X954528Y46768D01*
X955083Y46657D01*
X956305Y46379D01*
X957638Y46046D01*
X959083Y45823D01*
X960583Y45657D01*
X962083Y45546D01*
X963527D01*
X964860Y45712D01*
X966082Y46046D01*
X966638Y46323D01*
X967082Y46601D01*
X967526Y46990D01*
X967915Y47379D01*
X968193Y47879D01*
X968415Y48379D01*
X968526Y49045D01*
X968582Y49712D01*
Y49823D01*
X968526Y50045D01*
X968471Y50490D01*
X968304Y50990D01*
X968082Y51656D01*
X967749Y52434D01*
X967249Y53323D01*
X966582Y54267D01*
X965749Y55322D01*
X965249Y55822D01*
X964693Y56378D01*
X964082Y56878D01*
X963416Y57433D01*
X962638Y57989D01*
X961860Y58600D01*
X960972Y59155D01*
X960027Y59711D01*
X959027Y60266D01*
X957916Y60822D01*
X956694Y61377D01*
X955416Y61877D01*
X954083Y62433D01*
X952639Y62933D01*
X952528Y62988D01*
X952250Y63044D01*
X951806Y63211D01*
X951195Y63377D01*
X950473Y63599D01*
X949695Y63822D01*
X948751Y64044D01*
X947806Y64266D01*
X945751Y64710D01*
X943696Y65044D01*
X942696Y65099D01*
D02*
G37*
G36*
X-5501Y-679374D02*
X-5834D01*
Y-679430D01*
X-5945Y-679485D01*
X-6056Y-679652D01*
X-6223Y-679818D01*
X-6611Y-680374D01*
X-7222Y-681096D01*
X-7889Y-681929D01*
X-8722Y-682874D01*
X-9611Y-683929D01*
X-10555Y-685040D01*
X-25610Y-702094D01*
X-13389D01*
X-7611Y-685207D01*
X-7556Y-685096D01*
X-7500Y-684874D01*
X-7334Y-684429D01*
X-7111Y-683763D01*
X-6834Y-682985D01*
X-6445Y-681985D01*
X-6000Y-680763D01*
X-5501Y-679374D01*
D02*
G37*
G36*
X51216D02*
X51105D01*
X50883Y-679430D01*
X50438Y-679485D01*
X49883Y-679596D01*
X49216Y-679874D01*
X48438Y-680207D01*
X47550Y-680652D01*
X46605Y-681318D01*
X45605Y-682151D01*
X45050Y-682652D01*
X44550Y-683207D01*
X43994Y-683763D01*
X43439Y-684429D01*
X42883Y-685151D01*
X42328Y-685984D01*
X41772Y-686818D01*
X41217Y-687762D01*
X40661Y-688762D01*
X40106Y-689817D01*
X39606Y-690984D01*
X39051Y-692262D01*
X38551Y-693539D01*
X38051Y-694984D01*
Y-695039D01*
X37995Y-695150D01*
X37940Y-695372D01*
X37828Y-695650D01*
X37717Y-696039D01*
X37606Y-696483D01*
X37439Y-696928D01*
X37328Y-697483D01*
X37051Y-698705D01*
X36717Y-700039D01*
X36495Y-701483D01*
X36328Y-702983D01*
X36217Y-704482D01*
Y-705927D01*
X36384Y-707260D01*
X36717Y-708482D01*
X36995Y-709038D01*
X37273Y-709482D01*
X37662Y-709926D01*
X38051Y-710315D01*
X38551Y-710593D01*
X39051Y-710815D01*
X39717Y-710926D01*
X40384Y-710982D01*
X40495D01*
X40717Y-710926D01*
X41161Y-710871D01*
X41661Y-710704D01*
X42328Y-710482D01*
X43106Y-710149D01*
X43994Y-709649D01*
X44939Y-708982D01*
X45994Y-708149D01*
X46494Y-707649D01*
X47050Y-707093D01*
X47550Y-706482D01*
X48105Y-705816D01*
X48661Y-705038D01*
X49272Y-704260D01*
X49827Y-703372D01*
X50383Y-702427D01*
X50938Y-701427D01*
X51494Y-700316D01*
X52049Y-699094D01*
X52549Y-697817D01*
X53105Y-696483D01*
X53604Y-695039D01*
X53660Y-694928D01*
X53716Y-694650D01*
X53882Y-694206D01*
X54049Y-693595D01*
X54271Y-692873D01*
X54493Y-692095D01*
X54715Y-691151D01*
X54938Y-690206D01*
X55382Y-688151D01*
X55715Y-686096D01*
X55771Y-685096D01*
Y-684151D01*
X55715Y-683318D01*
X55604Y-682540D01*
Y-682485D01*
X55549Y-682429D01*
X55493Y-682263D01*
X55438Y-682040D01*
X55160Y-681541D01*
X54771Y-680929D01*
X54160Y-680374D01*
X53382Y-679874D01*
X52938Y-679652D01*
X52438Y-679485D01*
X51827Y-679430D01*
X51216Y-679374D01*
D02*
G37*
G36*
X26219D02*
X26107D01*
X25885Y-679430D01*
X25441Y-679485D01*
X24885Y-679596D01*
X24219Y-679874D01*
X23441Y-680207D01*
X22552Y-680652D01*
X21608Y-681318D01*
X20608Y-682151D01*
X20052Y-682652D01*
X19553Y-683207D01*
X18997Y-683763D01*
X18441Y-684429D01*
X17886Y-685151D01*
X17330Y-685984D01*
X16775Y-686818D01*
X16220Y-687762D01*
X15664Y-688762D01*
X15108Y-689817D01*
X14609Y-690984D01*
X14053Y-692262D01*
X13553Y-693539D01*
X13053Y-694984D01*
Y-695039D01*
X12998Y-695150D01*
X12942Y-695372D01*
X12831Y-695650D01*
X12720Y-696039D01*
X12609Y-696483D01*
X12442Y-696928D01*
X12331Y-697483D01*
X12053Y-698705D01*
X11720Y-700039D01*
X11498Y-701483D01*
X11331Y-702983D01*
X11220Y-704482D01*
Y-705927D01*
X11387Y-707260D01*
X11720Y-708482D01*
X11998Y-709038D01*
X12276Y-709482D01*
X12664Y-709926D01*
X13053Y-710315D01*
X13553Y-710593D01*
X14053Y-710815D01*
X14720Y-710926D01*
X15386Y-710982D01*
X15497D01*
X15720Y-710926D01*
X16164Y-710871D01*
X16664Y-710704D01*
X17330Y-710482D01*
X18108Y-710149D01*
X18997Y-709649D01*
X19941Y-708982D01*
X20997Y-708149D01*
X21497Y-707649D01*
X22052Y-707093D01*
X22552Y-706482D01*
X23108Y-705816D01*
X23663Y-705038D01*
X24274Y-704260D01*
X24830Y-703372D01*
X25385Y-702427D01*
X25941Y-701427D01*
X26496Y-700316D01*
X27052Y-699094D01*
X27552Y-697817D01*
X28107Y-696483D01*
X28607Y-695039D01*
X28663Y-694928D01*
X28718Y-694650D01*
X28885Y-694206D01*
X29051Y-693595D01*
X29274Y-692873D01*
X29496Y-692095D01*
X29718Y-691151D01*
X29940Y-690206D01*
X30385Y-688151D01*
X30718Y-686096D01*
X30773Y-685096D01*
Y-684151D01*
X30718Y-683318D01*
X30607Y-682540D01*
Y-682485D01*
X30551Y-682429D01*
X30496Y-682263D01*
X30440Y-682040D01*
X30162Y-681541D01*
X29774Y-680929D01*
X29163Y-680374D01*
X28385Y-679874D01*
X27940Y-679652D01*
X27441Y-679485D01*
X26830Y-679430D01*
X26219Y-679374D01*
D02*
G37*
%LPD*%
D10*
X561163Y238600D02*
G03*
X561163Y238600I-1250J0D01*
G01*
X-153250Y540337D02*
G03*
X-153250Y540337I-1250J0D01*
G01*
X-329250Y595913D02*
G03*
X-329250Y595913I-1250J0D01*
G01*
X-341837Y238600D02*
G03*
X-341837Y238600I-1250J0D01*
G01*
X106163D02*
G03*
X106163Y238600I-1250J0D01*
G01*
X252163D02*
G03*
X252163Y238600I-1250J0D01*
G01*
X-187837D02*
G03*
X-187837Y238600I-1250J0D01*
G01*
X-647837D02*
G03*
X-647837Y238600I-1250J0D01*
G01*
X-497837D02*
G03*
X-497837Y238600I-1250J0D01*
G01*
X-41837D02*
G03*
X-41837Y238600I-1250J0D01*
G01*
X408163D02*
G03*
X408163Y238600I-1250J0D01*
G01*
X709163Y238600D02*
G03*
X709163Y238600I-1250J0D01*
G01*
D11*
X-351591Y-136426D02*
Y-97971D01*
Y-136426D02*
X-313492D01*
Y-97971D01*
X-351591D02*
X-313492D01*
X577000Y498000D02*
X623000D01*
X577000Y422000D02*
Y498000D01*
Y422000D02*
X623000D01*
Y498000D01*
X637000D02*
X683000D01*
X637000Y422000D02*
Y498000D01*
Y422000D02*
X683000D01*
Y498000D01*
X637000Y552000D02*
X683000D01*
Y628000D01*
X637000D02*
X683000D01*
X637000Y552000D02*
Y628000D01*
X577000Y552000D02*
X623000D01*
Y628000D01*
X577000D02*
X623000D01*
X577000Y552000D02*
Y628000D01*
X870000Y529600D02*
Y669600D01*
X-870000Y529600D02*
Y669600D01*
Y-530400D02*
Y529600D01*
Y669600D02*
X870000D01*
X-870000Y-530400D02*
X870000D01*
Y529600D01*
X555061Y570386D02*
Y599498D01*
X536061Y570386D02*
X555061D01*
X536061D02*
X536061Y599498D01*
X555061D01*
X346503Y427352D02*
Y469352D01*
X195756Y469352D02*
X346503Y469352D01*
X195756Y427352D02*
Y469352D01*
Y427352D02*
X346503D01*
D12*
X-866464Y-530400D02*
G03*
X-866464Y-530400I-3535J0D01*
G01*
X-59575Y289900D02*
X92825D01*
Y404200D01*
X-59575D02*
X92825D01*
X-59575Y289900D02*
Y404200D01*
X585010Y289900D02*
X737410D01*
Y404200D01*
X585010D02*
X737410D01*
X585010Y289900D02*
Y404200D01*
X-662075Y289900D02*
X-509675D01*
Y404200D01*
X-662075D02*
X-509675D01*
X-662075Y289900D02*
Y404200D01*
X-279951Y-449349D02*
Y-370649D01*
X-210852D01*
Y-449349D02*
Y-370649D01*
X-279951Y-449349D02*
X-210852D01*
X435250Y-346500D02*
Y-142500D01*
X321100Y-346500D02*
X435250Y-346500D01*
X321100Y-346500D02*
Y-142500D01*
X435250Y-142500D01*
X708100Y-331900D02*
Y-268400D01*
X631900D02*
X708100D01*
X631900Y-331900D02*
X708100D01*
X631900D02*
Y-268400D01*
X62275Y-331900D02*
Y-268400D01*
Y-331900D02*
X138475D01*
X62275Y-268400D02*
X138475D01*
Y-331900D02*
Y-268400D01*
X-258100Y-331900D02*
Y-268400D01*
Y-331900D02*
X-181900D01*
X-258100Y-268400D02*
X-181900D01*
Y-331900D02*
Y-268400D01*
X-760000Y403700D02*
X-725000D01*
X-725000Y324100D01*
X-760000D02*
X-725000D01*
X-760000D02*
Y403700D01*
X-497750Y403605D02*
X-462750D01*
Y324005D02*
Y403605D01*
X-497750Y324005D02*
X-462750D01*
X-497750Y403605D02*
X-497750Y324005D01*
X-160000Y403700D02*
X-125000D01*
X-125000Y324100D02*
X-125000Y403700D01*
X-160000Y324100D02*
X-125000D01*
X-160000Y403700D02*
X-160000Y324100D01*
X102500Y403605D02*
X137500D01*
X137500Y324005D02*
X137500Y403605D01*
X102500Y324005D02*
X137500D01*
X102500Y403605D02*
X102500Y324005D01*
X485000Y403605D02*
X520000D01*
X520000Y324005D02*
X520000Y403605D01*
X485000Y324005D02*
X520000D01*
X485000Y403605D02*
X485000Y324005D01*
X745000Y403605D02*
X780000D01*
X780000Y324005D02*
X780000Y403605D01*
X745000Y324005D02*
X780000D01*
X745000Y403605D02*
X745000Y324005D01*
X-407225Y-262050D02*
X-369125D01*
X-407225Y-300150D02*
Y-262050D01*
Y-338250D02*
X-369125D01*
X-407225D02*
Y-300150D01*
X-331025Y-338250D02*
Y-300150D01*
X-369125Y-338250D02*
X-331025D01*
X-369125Y-262050D02*
X-331025D01*
Y-300150D02*
Y-262050D01*
X482775D02*
X520875D01*
X482775Y-300150D02*
Y-262050D01*
Y-338250D02*
X520875D01*
X482775D02*
Y-300150D01*
X558975Y-338250D02*
Y-300150D01*
X520875Y-338250D02*
X558975D01*
X520875Y-262050D02*
X558975D01*
Y-300150D02*
Y-262050D01*
X415000Y-612650D02*
X476000Y-618650D01*
X415000Y-622650D02*
X476000Y-628650D01*
X414000Y-612650D02*
X476000D01*
X414000Y-668650D02*
X476000D01*
X500500Y-597650D02*
Y-576049D01*
X389501D02*
X500500D01*
X389501Y-597650D02*
Y-576049D01*
Y-597650D02*
X500500D01*
X476710Y-673650D02*
Y-528650D01*
X413310Y-673650D02*
X476710D01*
X413310D02*
Y-528650D01*
X476710D01*
X415000Y-662650D02*
X476000Y-668650D01*
X415000Y-652650D02*
X476000Y-658650D01*
X415000Y-642650D02*
X476000Y-648650D01*
X415000Y-632650D02*
X476000Y-638650D01*
X640000Y-612650D02*
X701000Y-618650D01*
X640000Y-622650D02*
X701000Y-628650D01*
X639000Y-612650D02*
X701000D01*
X639000Y-668650D02*
X701000D01*
X725500Y-597650D02*
Y-576049D01*
X614501D02*
X725500D01*
X614501Y-597650D02*
Y-576049D01*
Y-597650D02*
X725500D01*
X701710Y-673650D02*
Y-528650D01*
X638310Y-673650D02*
X701710D01*
X638310D02*
Y-528650D01*
X701710D01*
X640000Y-662650D02*
X701000Y-668650D01*
X640000Y-652650D02*
X701000Y-658650D01*
X640000Y-642650D02*
X701000Y-648650D01*
X640000Y-632650D02*
X701000Y-638650D01*
X190000Y-612650D02*
X251000Y-618650D01*
X190000Y-622650D02*
X251000Y-628650D01*
X189000Y-612650D02*
X251000D01*
X189000Y-668650D02*
X251000D01*
X275500Y-597650D02*
Y-576049D01*
X164501D02*
X275500D01*
X164501Y-597650D02*
Y-576049D01*
Y-597650D02*
X275500D01*
X251710Y-673650D02*
Y-528650D01*
X188310Y-673650D02*
X251710D01*
X188310D02*
Y-528650D01*
X251710D01*
X190000Y-662650D02*
X251000Y-668650D01*
X190000Y-652650D02*
X251000Y-658650D01*
X190000Y-642650D02*
X251000Y-648650D01*
X190000Y-632650D02*
X251000Y-638650D01*
X-475000Y-612650D02*
X-414000Y-618650D01*
X-475000Y-622650D02*
X-414000Y-628650D01*
X-476000Y-612650D02*
X-414000D01*
X-476000Y-668650D02*
X-414000D01*
X-389500Y-597650D02*
Y-576049D01*
X-500499D02*
X-389500D01*
X-500499Y-597650D02*
Y-576049D01*
Y-597650D02*
X-389500D01*
X-413290Y-673650D02*
Y-528650D01*
X-476690Y-673650D02*
X-413290D01*
X-476690D02*
Y-528650D01*
X-413290D01*
X-475000Y-662650D02*
X-414000Y-668650D01*
X-475000Y-652650D02*
X-414000Y-658650D01*
X-475000Y-642650D02*
X-414000Y-648650D01*
X-475000Y-632650D02*
X-414000Y-638650D01*
X-250000Y-612650D02*
X-189000Y-618650D01*
X-250000Y-622650D02*
X-189000Y-628650D01*
X-251000Y-612650D02*
X-189000D01*
X-251000Y-668650D02*
X-189000D01*
X-164500Y-597650D02*
Y-576049D01*
X-275499D02*
X-164500D01*
X-275499Y-597650D02*
Y-576049D01*
Y-597650D02*
X-164500D01*
X-188290Y-673650D02*
Y-528650D01*
X-251690Y-673650D02*
X-188290D01*
X-251690D02*
Y-528650D01*
X-188290D01*
X-250000Y-662650D02*
X-189000Y-668650D01*
X-250000Y-652650D02*
X-189000Y-658650D01*
X-250000Y-642650D02*
X-189000Y-648650D01*
X-250000Y-632650D02*
X-189000Y-638650D01*
X-700000Y-612650D02*
X-639000Y-618650D01*
X-700000Y-622650D02*
X-639000Y-628650D01*
X-701000Y-612650D02*
X-639000D01*
X-701000Y-668650D02*
X-639000D01*
X-614500Y-597650D02*
Y-576049D01*
X-725499D02*
X-614500D01*
X-725499Y-597650D02*
Y-576049D01*
Y-597650D02*
X-614500D01*
X-638290Y-673650D02*
Y-528650D01*
X-701690Y-673650D02*
X-638290D01*
X-701690D02*
Y-528650D01*
X-638290D01*
X-700000Y-662650D02*
X-639000Y-668650D01*
X-700000Y-652650D02*
X-639000Y-658650D01*
X-700000Y-642650D02*
X-639000Y-648650D01*
X-700000Y-632650D02*
X-639000Y-638650D01*
X519228Y-32012D02*
Y32012D01*
Y-32012D02*
X569227D01*
Y32012D01*
X519990D02*
X569227D01*
X519228Y31250D02*
X519990Y32012D01*
X-452100Y529600D02*
X-411900Y529600D01*
X-411900Y489400D01*
X-452100Y489400D02*
X-411900Y489400D01*
X-452100Y489400D02*
X-452100Y529600D01*
X355510Y-32012D02*
X356272Y-31250D01*
X306272Y-32012D02*
X355510D01*
X306272D02*
Y32012D01*
X356272D01*
Y-32012D02*
Y32012D01*
X-625750Y24772D02*
X-624988Y24010D01*
Y-25228D02*
Y24010D01*
X-689012Y-25227D02*
X-624988Y-25228D01*
X-689012Y24772D02*
X-689012Y-25227D01*
X-689012Y24772D02*
X-624988Y24772D01*
X-512022Y31250D02*
X-511260Y32012D01*
X-462023D01*
Y-32012D02*
Y32012D01*
X-512022Y-32012D02*
X-462023D01*
X-512022Y32012D02*
X-512022Y-32012D01*
X-88272Y31250D02*
X-87510Y32012D01*
X-38273D01*
Y-32012D02*
Y32012D01*
X-88272Y-32012D02*
X-38273Y-32012D01*
X-88272Y-32012D02*
Y32012D01*
X610049Y-449349D02*
X679148D01*
Y-370649D01*
X610049D02*
X679148D01*
X610049Y-449349D02*
Y-370649D01*
X-765151Y-334349D02*
Y-255649D01*
X-696052D01*
Y-334349D02*
Y-255649D01*
X-765151Y-334349D02*
X-696052D01*
X-454250Y-346300D02*
Y-142300D01*
X-568400Y-346300D02*
X-454250Y-346300D01*
X-568400Y-346300D02*
Y-142300D01*
X-454250Y-142300D01*
X1015333Y759600D02*
X1022000Y739600D01*
X1028667Y759600D01*
X1022000Y669600D02*
X1028667Y649600D01*
X1015333D02*
X1022000Y669600D01*
Y739600D02*
Y789600D01*
Y619600D02*
Y669600D01*
X873540D02*
X1024540D01*
X539080Y739600D02*
X1024540D01*
X947920Y-658410D02*
X953000Y-673650D01*
X958080Y-658410D01*
X953000Y-530400D02*
X958080Y-545640D01*
X947920D02*
X953000Y-530400D01*
Y-673650D02*
Y-630466D01*
Y-581712D02*
Y-530400D01*
X705520Y-673650D02*
X955540D01*
X953000Y-532940D02*
Y-527860D01*
D14*
X936333Y-480400D02*
X953000Y-530400D01*
X969667Y-480400D01*
X953000Y669600D02*
X969667Y619600D01*
X936333D02*
X953000Y669600D01*
Y-530400D02*
Y-17893D01*
Y137093D02*
Y669600D01*
X-870000Y-695400D02*
X-820000Y-678734D01*
X-870000Y-695400D02*
X-820000Y-712067D01*
X820000D02*
X870000Y-695400D01*
X820000Y-678734D02*
X870000Y-695400D01*
X-870000D02*
X-87493D01*
X67493D02*
X870000D01*
D105*
X-26944Y573671D02*
X-16312Y563038D01*
X6355Y585705D01*
X-4278Y596337D02*
X6355Y585705D01*
X-26944Y573671D02*
X-4278Y596337D01*
X-12510Y27090D02*
X12509D01*
Y52110D01*
X-12510D02*
X12509D01*
X-12510Y27090D02*
Y52110D01*
X694968Y550030D02*
X694968Y499970D01*
X745029Y499970D01*
X745029Y550030D01*
X694968Y550030D02*
X745029Y550030D01*
X871000Y-530400D02*
X973000D01*
X871000Y669600D02*
X973000D01*
X-870000Y-715400D02*
Y-531400D01*
X870000Y-715400D02*
Y-531400D01*
D119*
X56000Y699409D02*
X534000D01*
X56000Y739600D02*
X534000D01*
X56000Y598960D02*
Y799859D01*
Y598960D02*
X534000D01*
X56000Y799859D02*
X534000D01*
Y598960D02*
Y799859D01*
D120*
X946907Y-626403D02*
Y-616246D01*
Y-621324D01*
X962142D01*
X946907Y-611167D02*
X962142D01*
Y-603550D01*
X959602Y-601011D01*
X957063D01*
X954524Y-603550D01*
Y-611167D01*
Y-603550D01*
X951985Y-601011D01*
X949446D01*
X946907Y-603550D01*
Y-611167D01*
Y-595932D02*
X962142D01*
Y-588315D01*
X959602Y-585776D01*
X949446D01*
X946907Y-588315D01*
Y-595932D01*
D121*
X295226Y769859D02*
D03*
D122*
X-742492Y395400D02*
D03*
X-480248Y395310D02*
D03*
X-142498Y395400D02*
D03*
X120002Y395304D02*
D03*
X502502Y395312D02*
D03*
X762506Y395305D02*
D03*
M02*
