M48
;Layer_Color=9474304
;FILE_FORMAT=4:4
METRIC,LZ
;TYPE=PLATED
T1F00S00C0.2500
T2F00S00C0.5000
T3F00S00C1.0000
T4F00S00C3.2000
%
T01
X-0077625Y-004879
Y-004479
X-0073625
X-0069625
X-00683591Y-00447188
Y-00434658
Y-00422128
Y-00409598
Y-00397068
Y-00384538
Y-00372008
X-00684Y-0036
Y-00348
X-00689Y-00338
X-007
X-00716
X-00757Y-0033625
X-0077625Y-003679
X-0073625
Y-004079
X-0069625
Y-003679
X-00656409Y-00375759
Y-00388289
Y-00400819
Y-00413349
Y-00425879
Y-00438409
Y-00450939
Y-00463469
Y-00475999
Y-00488529
X-00655Y-004975
Y-005075
Y-005175
X-00685
Y-005075
Y-004975
X-00683591Y-00484778
Y-00472248
Y-00459718
X-0069625Y-004879
X-00731Y-00521
X-0061Y-00522
X-0061625Y-004479
Y-004079
Y-003679
X-006055Y-0036975
X-0060825Y-0035525
X-006085Y-00343
X-005815Y-0034375
X-00581Y-0035725
X-00598578Y-00380891
X-0058925Y-0039025
X-00580887Y-0039864
X-00656Y-00359
Y-00345
X-00658Y-00334
X-00551257Y-00339103
X-0053625Y-003679
X-00536988Y-00381809
X-00524458
X-00511928
X-00499398
X-00486915Y-00382902
X-00475337Y-00387692
X-00465733Y-0039574
X-0045825Y-0040325
X-0045Y-004115
X-00439277Y-00422442
X-00433457Y-00433538
X-00431386Y-00445896
X-00431409Y-00458426
Y-00470956
Y-00483486
X-0042975Y-005005
Y-005165
X-0045975Y-0052
X-0046Y-0050325
X-00458591Y-00480191
Y-00467661
Y-00455131
X-00459131Y-00442612
X-0046875Y-00431
X-004775Y-0042225
X-004855Y-0041425
X-00495Y-00409
X-00508195Y-00408991
X-00520725
X-00533255
X-00545785
X-00558312Y-00408747
X-0057625Y-004079
Y-004479
X-0053625
Y-004879
X-0057625
X-0049625Y-004479
X-0041625
Y-004079
Y-003679
X-00389605Y-00362527
X-00390336Y-00350018
X-00385267Y-00374282
X-00377503Y-00384117
X-00368643Y-00392977
X-00359783Y-00401837
X-00350923Y-00410697
X-00342063Y-00419557
X-00333203Y-00428417
X-00324343Y-00437277
X-00314225Y-00444668
X-00302302Y-0044852
X-00290131Y-004515
X-00291073Y-00420157
X-00303578Y-00419367
X-00312438Y-00410507
X-00321298Y-00401647
X-00330158Y-00392787
X-00339018Y-00383927
X-00347878Y-00375067
X-00356738Y-00366207
X-003625Y-00355
X-0033625Y-003679
Y-004479
X-0037625
Y-004079
X-0045625Y-003679
X-0049625
X-00561774Y-00379206
X-00573Y-00368
X-0041625Y-004879
X-0033625
X-00233591Y-00485534
Y-00473004
Y-00460474
X-00206409Y-00462706
Y-00475236
Y-00487766
X-00204Y-00502
Y-00517
X-00236Y-00519
Y-00501
X-00245Y-00435
Y-004225
Y-0041
X-00243053Y-00391477
Y-00378947
X-0023375Y-0036825
X-00233591Y-00355753
Y-00343223
X-0020725Y-0034375
X-00206409Y-00353641
X-002055Y-0036975
X-00197126Y-00374987
X-00196946Y-00387516
X-00199656Y-0039975
X-00196958Y-00427063
X-00196946Y-00439593
X-0025625Y-003679
X-0017625
Y-004079
X-0013625
Y-004479
X-0017625
X-0009625
Y-004079
X-0005625
X-0001625
Y-004479
X0002375
Y-004879
X-0001625
X-0005625
Y-004479
X-0009625Y-004879
Y-003679
X-0013625
X-0005625
X0002375
X0006375
X00087763Y-00361281
X00086784Y-00348789
X001145Y-003495
X0011825Y-003615
X0012975Y-0037225
X00138591Y-00381747
X0014375Y-003679
X0016354Y-00383409
X0017607
X00188568Y-00384307
X00200243Y-00388855
X00209972Y-00396752
X00189969Y-00415189
X001775Y-0041125
X00165783Y-00410591
X00153253
X00140725Y-0041035
X00128612Y-00407146
X00118141Y-00400264
X001095Y-00391
X00100373Y-00382593
X00092413Y-00372916
X0010375Y-004079
Y-004479
Y-004879
X0006375
Y-004479
Y-004079
X0002375
X0014375Y-004479
X0018375
X00206409Y-00446731
X0020575Y-0043675
X001985Y-0042375
X00206409Y-00459261
Y-00471791
Y-00484321
X00204Y-00497
Y-00507
Y-00519
X0018375Y-003679
X0022375
X0026375
Y-004079
Y-004479
X00233591Y-00451452
Y-00463982
Y-00476512
Y-00489042
X00236Y-00504
Y-00519
X00233591Y-00438922
X00232221Y-00426467
X0022709Y-00415036
X002185Y-0040525
X0030375Y-004079
Y-003679
X0034375
Y-004079
Y-004479
Y-004879
X0038375Y-004479
X0042375
X00431409Y-00450299
Y-0043777
Y-00425239
Y-0041271
X0042375Y-004079
X00431409Y-00400179
Y-00387649
Y-0037512
Y-00362589
X0042375Y-003679
X0046375
X00458591Y-00360102
X00458382Y-00347574
X00455299Y-00335429
X00412199Y-00339257
X00402508Y-00331315
X0038375Y-003679
Y-004079
X0046375
X00458591Y-00397692
Y-00385162
Y-00422752
Y-00435282
X0046375Y-004479
X00458591Y-00460342
Y-00472872
X0046375Y-004879
X00461Y-00502
Y-00514
Y-00524
X00429Y-00523
Y-00513
Y-00501
X00431409Y-0048789
Y-00475359
Y-0046283
X0050375Y-004479
Y-004079
X0053075Y-0040525
X0054175Y-00416
X00551Y-0042575
X00565657Y-00437277
X00575775Y-00444668
X00587698Y-0044852
X00599869Y-004515
X00598927Y-00420157
X00586422Y-00419367
X0057925Y-0041175
X00571Y-0040275
X0056275Y-0039575
X00553Y-0038425
X00544Y-003755
X005315Y-0036275
X005265Y-0034975
X00499664Y-00350018
X00500395Y-00362527
X00504733Y-00374282
X00512497Y-00384117
X0051975Y-00392
X005875Y-003915
X0059025Y-0040025
X00597Y-00407
X0059875Y-0036075
X00608Y-003685
X0058375Y-003679
X005825Y-003375
X00595Y-003325
X0054375Y-004479
Y-004879
X00611Y-00522
X0030375Y-004479
X00645Y-004375
Y-00425
Y-004125
X00646946Y-00391477
Y-00378947
X006565Y-0036825
X00656409Y-00355752
Y-00343223
X00683Y-0034525
X00683591Y-00353641
X0068375Y-0036475
X00692874Y-00374988
X00693054Y-00387516
X00690344Y-0039975
X0070375Y-004079
X00693042Y-00427063
X00693054Y-00439593
X0070375Y-004479
X00683591Y-00462706
Y-00475236
Y-00487766
X00686Y-00499
Y-00511
Y-00521
X00654Y-00522
Y-00511
Y-00499
X00656409Y-00485534
Y-00473004
Y-00460474
X0074375Y-004479
X0078375
Y-004879
X0073Y-00522
X0074375Y-004079
Y-003679
X0078375
X0070375
X0062375
Y-003279
Y-002879
X00618177Y-00279222
X00613947Y-00247727
X0062375Y-002479
X006381Y-00252409
X00633709Y-0023
X00632959Y-0021427
X0062275Y-002095
X0061675Y-0019475
X0063175Y-001885
X006315Y-00173
X0062Y-0016575
X0062075Y-0015625
X00633459Y-00144821
X0063325Y-001305
X0062375Y-001279
X006315Y-0011625
X0062175Y-0010625
X00613681Y-00097901
X0063725Y-000825
X0064775Y-0009275
X0066375Y-000879
X00669109Y-00094701
Y-00107231
X006575Y-00106
X0066125Y-0012425
X0066875Y-00119761
Y-00132291
X00668Y-00148321
X0066375Y-001575
X0066475Y-0016975
X0066475Y-0018225
X00665Y-0019209
X0066275Y-0020125
X00669Y-0021965
X0066875Y-0023428
X00669Y-00244645
X0067Y-0025855
X00696291Y-00258781
Y-00246251
Y-00233721
Y-00221191
X0070575Y-0021125
X007095Y-002005
X00698042Y-00183663
X0070025Y-00172
X0071075Y-00165
X0070725Y-0015325
X00696291Y-00148133
Y-00135603
Y-00123073
X0070375Y-001279
X00696291Y-00110543
Y-00098013
Y-00085483
X0070375Y-000879
X00696291Y-00072953
X00698262Y-00060579
X00705Y-00059
X00725Y-0005175
X0072575Y-0003775
X0074375Y-000479
X0075466Y-00049544
Y-00037014
Y-00024484
Y-00011954
Y00000576
Y00013106
Y00025636
Y00038166
Y00050696
Y00063226
X007425Y000525
Y000425
X0074375Y000321
X0072825Y0002875
X0073Y0006
X007025Y00065
X00695Y0006
X0068
X00675Y00065
X00645
Y00055
X006425Y000425
Y000325
Y000225
X00627341Y00028519
Y00015989
Y00003459
Y-00009071
Y-00021601
Y-00034131
Y-00046661
Y-00059191
X00669617Y-00057121
X00669109Y-00069641
X0066375Y-000479
X00674168Y-00045447
X0065225Y-0003975
X0064775Y-0002725
X006635Y-0002025
X0066375Y000321
X006525Y000375
X00627341Y00041049
Y00053579
X00698Y0
X00708
X0074375Y-000079
X00781841Y-00005224
Y-00017754
Y-00030284
Y-00042814
Y-00055344
Y-00067874
Y-00080404
Y-00092934
Y-00105464
Y-00117994
Y-00130524
Y-00143054
X00782604Y-0015556
X00783578Y-00168053
X00783592Y-00183665
X00782604Y-00196156
X00781844Y-00208663
X00781217Y-00221178
X00777015Y-00232982
X00769337Y-00242884
X0076275Y-0025075
X00752Y-0026125
X00742696Y-00269403
X00732189Y-00276229
X00720058Y-00279367
X0074375Y-002879
Y-003279
X0078375
Y-002879
Y-002479
X0082375
Y-002079
X0075175Y-0021475
X007425Y-0021075
X0074225Y-0019375
X00753811Y-00179716
X0074225Y-0016525
X007425Y-00156
X0075466Y-00149784
Y-00137254
Y-00124724
Y-00112194
Y-00099664
Y-00087134
X0074375Y-000879
X0075466Y-00074604
Y-00062074
X0074375Y-001279
X0074675Y-0022475
X0073875Y-0023225
X007315Y-0023975
X00723Y-0024725
X007125Y-002515
X007Y-003
X00689539Y-00294002
X0068Y-003
X0067648Y-00306149
X00661492Y-00306989
X0066Y-003
X00648143Y-00294504
X0064Y-003
X0082375Y-002879
Y-000879
Y-000479
Y-000079
X00781841Y00007306
Y00019836
Y00032366
Y00044896
Y00057426
X0059975Y0005875
X00600159Y00048699
Y00036169
Y00023639
Y00011109
Y-00001421
Y-00013951
Y-00026481
Y-00039011
Y-00051541
Y-00064071
X00601116Y-00076564
X00605738Y-0008821
X00584Y-00098
X0058625Y-001105
X0058575Y-0012275
X005865Y-0013575
Y-0014725
X0059925Y-001575
X0059425Y-001695
X00587Y-001725
X00587092Y-00183663
X0058725Y-0021225
X00587515Y-00221002
X0059575Y-002285
X0060375Y-00237
X00569433Y-00241651
X0057725Y-0025025
X0058725Y-0026075
X00596002Y-00268243
X00606209Y-0027551
X0058375Y-002879
X0054375
X0054Y-003
X0052
Y-0032
X0054
X0054375Y-003279
X00575Y-003275
X005865
X00595Y-0032
X005
Y-003
X0050375Y-002879
X005Y-0028
X0052
X00535
X00542919Y-00252656
X00540707Y-00240323
X00535564Y-00228897
X0052525Y-0021725
X005175Y-002095
X005115Y-0020225
X0050375Y-001945
X0049825Y-00189
X004905Y-0018175
X0048325Y-0017275
X00474139Y-00166319
X00464051Y-00158888
X00452137Y-00155008
X0044063Y-00150049
X00420706Y-00149696
X00408219Y-00150733
X00402197Y-00161721
X004Y-0018
X00407538Y-00185585
X004Y-002
Y-0022
Y-0024
Y-0026
Y-0028
X0039Y-003
X0041
X0043Y-002975
X00444Y-0029
X004475Y-0028
X004575Y-002825
X004325Y-002725
X0046375Y-002479
X0050375
X005145Y-002495
X00510038Y-00240658
X0049925Y-0023225
X00492Y-0022525
X004825Y-0021625
X0047425Y-0020725
X0046375Y-002079
X004665Y-00198
X00456877Y-00187498
X00444775Y-00184252
X00450424Y-00119591
X00437894
X00425364
X0042375Y-001279
X00412834Y-00119591
X00400304
X00387774
X0038375Y-001279
X00375244Y-00119591
X00362714
X00350184
X00337654
X00325124
X00312594
X00300064
X0030375Y-001279
X00287534Y-00119591
X00275004
X0026375Y-001279
X00251556Y-0012574
X00251843Y-00143413
X00250854Y-00155904
X00251863Y-00168393
X0026375Y-001679
X00255854Y-00180271
X00245776Y-001979
X00227225
X00218Y-0021325
X002385Y-0023
X00246136Y-0022962
X0022875Y-0024075
X0021875Y-0025125
X00215Y-0028
X00235
X0025
X0027
X0029
X002915Y-0027
X003025
X002825Y-0026
X0026375Y-002479
Y-002079
X0030375Y-001679
X0036Y-0018
Y-002
Y-0022
Y-0024
Y-0026
Y-0028
X0035Y-003
X0037
X0038375Y-003279
X00402197Y-00318789
X0044852Y-00324891
X0046375Y-003279
X0030375
X003Y-003
X0028
X0026
X0024
X0022
X0022375Y-003279
X0026375
X0038375Y-002479
Y-002079
Y-001679
X00380138Y-00092409
X00392668
X00405198
X00417728
X00430258
X00442788
X00455318
X00467848
X00492722Y-00090259
X00500896Y-00069047
X0050375Y-000479
X005085Y-00038
X00494Y-000395
X00484Y-0003775
X0047825Y-0002575
X004915Y-0001325
X0046375Y-000079
Y000321
X004875Y0003
Y0002
X004975Y000325
X00495Y000425
Y00055
Y00065
X004025Y0006
Y0005
Y000375
Y000275
Y000175
Y000075
Y-000025
Y-00015
X0042375Y-000079
Y000321
X0038Y000375
Y0005
Y0006
X00369658Y00060211
X003655Y000395
X0037475Y000255
X0035675Y00024
X00385Y00005
X0038375Y-000305
X0038375Y-000479
X003665Y-0004475
X0036925Y-0001775
X00351Y-0006
X00338Y-00071954
X00321Y-00077
X00307
X00294
X00282
X00269571Y-00072071
X002625Y-00065
X00255429Y-00057929
X0025Y-000375
Y-000275
Y-000175
Y-000025
Y000075
Y000175
X002495Y0003475
X00243122Y00044925
X0026Y0005
X0026375Y00059
X0027Y000425
Y000325
Y000225
Y0001
Y0
Y-0001
Y-000225
Y-000325
X00270429Y-00045429
X002775Y-000525
X00284571Y-00059571
X00312Y-0006
X00297071Y-00039571
X0029Y-000325
Y000275
Y000375
Y000475
X002875Y0006175
X0030375Y000321
X00304Y00025
X00235Y0006
X00215
X00223Y0
X002215Y-0005925
X0022375Y-000879
X00232835Y-00104195
X00242931Y-00096774
X00254847Y-00092901
X00267368Y-00092409
X00279898
X00292428
X00304958
X00317488
X00330018
X00342548
X00355078
X00367608
X0034375Y-001279
X0046375
X00462954Y-00119591
X00475484
X00488013Y-00119489
X00500256Y-00116822
X0050375Y-001279
X0051102Y-00110407
X005575Y-0011175
X00558Y-001235
X005575Y-001335
Y-0014575
X0055775Y-0015675
X0055725Y-0016875
X00556636Y-00181926
X00556759Y-00194455
X00557653Y-00206953
X00558512Y-00219454
X00562179Y-00231435
X0054375Y-002079
Y-001679
Y-001279
Y-000879
X00544Y-000785
X00559Y-000985
X0058375Y-000479
X0057Y-000335
Y-0002575
X0051825Y-0002425
X0046375Y-000479
X0050375Y-001679
X0058375Y000321
X0024075Y-0004525
X00221224Y-00136587
X00221246Y-00142747
X0020925Y-0015775
X0018375Y-001679
X00161113Y-00168393
X00160104Y-00155904
X00161092Y-00143413
X00160838Y-00125978
X0016025Y-001155
X0016775Y-00106
X001765Y-00097
X0018625Y-00087
X00195Y-000775
X00204Y-0006775
X00213313Y-00060529
X0018575Y-000475
X0017925Y-000415
X00168Y-0003925
X001645Y-0002575
X0017925Y-000205
X002035Y-000255
X00213Y0
X00195Y0006
X001825Y0005
X00165
X00168Y0003755
X001525Y000375
X0014375Y000321
X001275Y000375
X00118122Y00044925
X001275Y000575
X0010375
X0006375
X00045Y00055
Y00065
X000425Y000375
X00055
X0Y00035
Y00044
X-00057Y0006
X-0007
X-0009625Y000321
X-0009425Y000105
X-00089Y-0002325
X-001Y-0003925
X-00115Y-0003875
X-0012925Y-0002525
X-0013625Y-000079
X-00168Y-00001
X-00178
X-0015475Y-000305
X-00151Y-0005725
X-001695Y-000585
X-00177437Y-00060579
X-0017625Y-000879
X-0013625
X-00104954Y-00093647
X-00104841Y-00106176
X-0010725Y-0011725
X-00106604Y-00131173
X-00106373Y-00141746
X-0010575Y-0015425
X-001055Y-00168
X-00104841Y-00179294
X-001065Y-0019625
X-0011575Y-0020625
X-0012475Y-002155
X-001325Y-002235
X-0013625Y-002079
X-0014475Y-0023475
X-00155942Y-00246722
X-0017225Y-0025175
X-00175634Y-00279591
X-00163106Y-0027938
X-00150963Y-00277041
X-0014Y-0028
Y-003
X-0016
X-0018
X-0017625Y-003279
X-0013625
X-0009625
X-00095Y-003
X-00115
Y-0028
X-00095
X-00075
Y-003
X-00055
X-00035
X-0003Y-0028
X-0005
X-0005625Y-002479
X-00054778Y-00221824
X-00045008Y-00229669
X-000355Y-002355
X-0002675Y-002455
X-000185Y-00253
X-000095Y-002615
X-0001Y-0028
Y-003
X0001
X0003
X0005
X0007
X00095
X00115
X00135
X00155
X00175
X00176277Y-0027948
X00163748Y-00279591
X00151218
X0014802Y-00252409
X0016055
X0013549
X001365Y-0024225
X00146Y-0023075
X00155386Y-0022962
X00155025Y-001979
X00136475
X00122Y-002185
X00110383Y-00230309
X00103266Y-00240622
X00096568Y-00238802
X00100674Y-0025064
X00100375Y-0025855
X0007225Y-0025025
X00064589Y-00252409
X00052059
X00039529
X0002375Y-002479
X00015905Y-00246585
X00002Y-0023125
X-000075Y-002215
X-000165Y-0021225
X-00026475Y-001979
X-00045025
X-000495Y-00171
X-00068Y-0016
X-00077656Y-00168411
X-00077659Y-00180941
X-00077817Y-0019347
X-000807Y-00205664
X-00087305Y-00216312
X-0009425Y-002235
X-00102Y-00233
X-00111Y-0024225
X-001195Y-002505
X-0013175Y-0026125
X-0009625Y-002479
X-0005625Y-003279
X0002375
X0006375
X0004991Y-00279591
X0003738
X0002485Y-0027951
X00012589Y-00276924
X00036557Y-00223375
X00035647Y-00210879
X0002375Y-002079
X00045725Y-001979
X00064275
X00074354Y-00180271
X0008025Y-001635
X0008225Y-001525
X0008275Y-00134
X0008075Y-0012275
X0008Y-0011375
X00068591Y-00102654
X000695Y-0009
X00070094Y-00077685
X000785Y-0006825
X00088313Y-00060579
X00098Y-0006
X0010375Y-000879
X0011975Y-0010775
X001205Y-0012325
X0013045Y-00133409
X00130496Y-00144747
X0011675Y-0014275
X00117Y-00159
X001185Y-0016975
X0010375Y-001679
Y-002079
X00088935Y-00228865
X0007625Y-0021675
X000595Y-002375
X00047371Y-00229703
X00040427Y-00167788
X00040446Y-00155258
X00039746Y-00142747
X00039646Y-00134661
X00040647Y-00122171
X00041409Y-00109664
Y-00097134
Y-00084604
X00043039Y-00072181
X0004775Y-0006075
X0005075Y-0004175
X0005825Y-00049
X0006375Y-00035
X00053Y-0002075
X0003775Y-00025
X0002375Y-000479
Y-000879
Y-001279
Y-001679
X-0002025Y-001635
X-0001975Y-0014275
X-0002Y-00121
X-00022159Y-00106441
X-0001625Y-000879
X-00021397Y-00081404
X-00020408Y-00068913
X-0001625Y-000479
X-00033Y-00037
X-00036Y-000285
X-000635Y-0007975
X-00064Y-000895
X-00077659Y-00106441
X-00067Y-0012
X-00075897Y-00131438
X-00075908Y-00143413
X-0005175Y-001425
X-000525Y-0013175
X-00049341Y-00106176
X-00105648Y-00081136
X-00106556Y-00068639
X-0013625Y-000479
Y000321
X-00160053Y000449
X-001675Y000525
X-0017575Y-0012775
X-001795Y-001555
X-0017625Y-001679
X-001825Y-0017375
X-0017625Y-002079
X-0013625Y-001679
Y-001279
X0007Y-0013
X0007075Y-001405
X0010375Y-001279
X00136514Y-000997
X00143928Y-00089599
X0015275Y-0008075
X0015925Y-00073
X00168Y-0006375
X00176Y-00056
X0014375Y-000479
X00117Y-000435
X00098Y0
X00088
X0018375Y-001279
X0020975Y-00122
X002135Y-0011025
X002095Y-0022
X00202Y-0022875
X0019375Y-002375
X00184398Y-00247033
X00188512Y-00276778
X00195Y-0028
X002Y-003
X0018375Y-003279
X0014375
X0020975Y-0025925
X0018375Y-002079
X00165104Y-00180271
X-00193709Y-00180941
Y-00193471
Y-00206001
Y-00218531
Y-00231061
Y-00243591
Y-00256121
X-00185Y-0025525
X-0022Y-00258
X-00220891Y-00250079
X-00223278Y-00240756
X-00230584Y-00230576
X-00220891Y-00225019
Y-00212489
Y-0019996
Y-0018743
Y-001749
X-00221653Y-00162393
X-00222654Y-00149903
X-00222659Y-00137532
X-00221653Y-00120714
X-00220891Y-00108208
Y-00095677
Y-00083147
X-00219727Y-00070672
X-00214848Y-0005913
X-0021625Y-000479
X-0020625Y-00042
X-0021Y-00021
X-0022575Y-0002225
X-0022475Y-000355
X-00255Y-00035
Y-00045
Y-00025
Y-00015
Y-00005
Y00015
Y00025
Y00035
Y00045
X-002925Y0005
X-003Y00065
X-0031254Y00009876
X-0032254
X-0033254
Y-00000124
X-0032254
X-0031254
Y-00010123
X-0032254
X-0033254
X-003705Y-000025
X-0038Y-00000124
X-0038Y-0003
Y-000375
X-003725
Y-0003
X-003875
Y-000375
X-003605Y-000385
X-003625Y-000575
X-0036025Y-00069
X-0035975Y-0008325
X-003565Y-0009725
X-0035475Y-0011
X-0036725Y-00106
X-00366Y-0011725
Y-0013075
X-0036325Y-0014625
X-00351Y-0014675
X-003555Y-001605
X-0034525Y-00171
X-003305Y-00164
X-003335Y-0015325
X-0033375Y-0014
X-0033325Y-001275
X-003325Y-00115
X-00325
X-00313492Y-00117198
X-0030925Y-0010575
X-00308Y-00094
X-0030775Y-000765
X-0031Y-00065
X-003
X-0029
X-0029625Y-000879
Y-001279
X-0030575Y-0012825
X-003055Y-0014125
X-00304Y-00156
X-00293Y-0016775
X-0028125Y-001795
X-00271Y-0018975
X-0026Y-00201
X-00249Y-00212
X-0023825Y-0022275
X-002555Y-0024425
X-0026325Y-002515
X-0027225Y-0024325
X-0026925Y-0023075
X-00282Y-00234
X-0028075Y-0021925
X-0029175Y-0022425
Y-00208
X-00301Y-0021475
X-0030225Y-0019825
X-0031025Y-0020525
X-003215Y-00194
X-00314Y-0018625
X-0032575Y-00174
X-00334Y-0018175
X-00346Y-002085
X-003585Y-0021675
X-00350951Y-00229491
X-00348071Y-00241685
X-00346478Y-00254114
X-003285Y-00246
X-00335Y-002355
X-0033425Y-0022075
X-00316Y-002385
X-0030575Y-0024875
X-0030875Y-0025725
X-0031Y-0028
X-0029
X-0027475Y-00277
X-00263Y-002795
X-0027Y-003
X-0029
X-00299869Y-00317369
X-0029625Y-003279
X-0025625
X-00245Y-003
X-0022
X-002
X-0024726Y-00253587
X-0025625Y-001679
Y-000879
X-00193709Y-00091746
Y-00104276
X-0018325Y-001115
X-00191958Y-00143413
X-00193637Y-00079217
X-0018775Y-000685
X-00185Y000525
X-001975
X-0021
X-00365Y000575
X-0035925Y0003625
X-003525Y0003
X-0039175Y00049687
X-0041625Y000321
X-0043Y0002
Y0
Y-0002
Y-0004
Y-0006
X-0041975Y-0007125
X-00402Y-00072
X-003895Y-000775
X-00381Y-000845
X-0038Y-0007
X-0037225Y-00094
X-0039725Y-0010825
X-0041Y-0011
X-004085Y-001
X-004235Y-0009925
X-0043825Y-00097
X-00444447Y-00103644
X-00456843Y-00101815
X-00476141Y-00101809
X-00488671
X-00501201
X-00511999Y-00100604
X-00524429Y-00099023
X-00536958Y-00098841
X-00549488
X-00562018
X-00574548
X-0057089Y-00071659
X-0055836
X-0054583
X-005333
X-00526561Y-00061096
X-00525544Y-0004125
X-0053625Y-000479
X-0057625
X-0056Y-0002
Y0
Y0003
X-0057625Y000321
X-0056Y0005
X-0055
X-0054
X-0052
X-00520425Y0001735
X-0054025Y0002325
X-0050025Y-000025
X-0051275Y-000245
X-0046025Y-0002925
X-0041625Y-000479
Y-000079
X-0045625Y000321
X-0045Y0006
X-0043
X-00438427Y-0007325
X-0042875Y-00111
X-00416273Y-00127121
X-0041225Y-00138987
X-00394Y-0013925
X-0039125Y-001515
X-0038625Y-0016375
X-0038125Y-0017275
X-00401601Y-00174292
X-004Y-0016
X-0041Y-001555
X-00437286Y-00160635
X-0043925Y-0014725
X-00446Y-0013475
X-00465598Y-00128991
X-00478128
X-00490658
X-00503188
X-00515718
X-00528248
X-00540778
X-00553308
X-0057375Y-0012975
X-0057725Y-0015275
X-00575093Y-00185745
X-0057625Y-002079
X-0053Y-002092
Y-001984
Y-001784
X-00535197Y-0017115
X-00537993Y-00183363
X-0053Y-001584
X-0051
X-0049
X-0049625Y-001679
X-0049Y-001784
X-0051
Y-001984
Y-002092
X-0049
Y-001984
Y-002292
X-0051
X-0053
Y-0026
X-0051
X-0049
Y-0028
X-0051
Y-003
X-0049
X-0049625Y-003279
X-0053Y-003
Y-0028
X-00445
Y-0026
X-0044Y-002425
X-004275
X-004325Y-0025
X-00425Y-002575
X-0041625Y-002479
X-0041275Y-0020275
X-00420616Y-00193839
X-0042875Y-0018325
X-00433865Y-00172689
X-0039075Y-0018525
X-0036975Y-00185
X-003785Y-00197
X-00369Y-0020625
X-0035675Y-0019775
X-00391Y-0022425
X-00403Y-0021225
X-00376729Y-0023854
X-0037Y-0028
X-00355
X-00335
X-0035Y-003
Y-0032
X-0037
X-00379093Y-00320276
X-0039Y-0032
Y-003
Y-0028
X-0037Y-003
X-00435
X-0039375Y-0012075
X-0034Y-00115
X-0048775Y-0008875
X-004875Y-00079
X-00544139Y-00149682
X-005815Y-0013975
X-00608302Y-00137031
X-00607696Y-00149546
X-0061Y-0017
Y-0019
X-0059
X-00584478Y-00177442
X-0059Y-0021
X-005875Y-0022
X-006
X-0061Y-0021
Y-0023
X-0063
X-0065
Y-0021
X-0063
Y-0019
X-0065
X-0067
Y-0021
Y-0023
Y-0025
X-0065
X-0063
X-00615Y-0026
X-006
Y-0028
X-0062
X-0063Y-003
X-006
X-0060225Y-003205
X-0060675Y-0033
X-0061625Y-003279
X-00663Y-00324
X-00671Y-00315
X-00682Y-00309
X-0068Y-003
X-0067975Y-00289
X-00685Y-002775
X-00665Y-0027
X-0065Y-00285
X-0073Y-0027
X-007305Y-0025925
X-00731Y-0024525
X-0074495Y-002279
X-0076705
X-0077625Y-002079
X-007805Y-0019575
X-00770461Y-00178867
X-00770554Y-00166725
X-0078075Y-001545
X-00768791Y-00141728
Y-00129198
Y-00116668
Y-00104138
Y-00091608
X-0077625Y-000879
X-00768791Y-00079078
Y-00066548
Y-00054018
X-00768274Y-00041499
X-0077625Y-000479
X-00763617Y-00029867
X-007566Y-00019486
X-0074975Y-0000125
X-00738Y000005
X-00756021Y00018319
X-00762918Y0002878
X-00768026Y00040222
X-00768791Y00052728
Y00065258
X-00741609Y00059276
X-00741539Y00046746
X-0072955Y00043103
X-00717757Y0004162
X-007Y000446
X-0069575Y0003375
X-0068725Y-00028965
X-0069Y-0004
X-0069625Y-000479
X-0069Y-0006
Y-0008
X-0069625Y-000879
X-0071Y-001
X-00707665Y-00108844
X-00715145Y-00118897
X-0071906Y-001308
X-00719591Y-00143318
X-00720354Y-00155825
X-00721354Y-00168315
X-0072175Y-00182
Y-0019575
X-00726Y-0020825
X-0071625Y-002279
X-0069415
X-0069Y-0021
X-0069025Y-0017975
X-00690646Y-00165129
X-0067Y-0017
Y-0015
X-0065
Y-0017
X-0063
Y-0015
Y-0013
X-0065
Y-0011
Y-0009872
X-0063
Y-0011
X-0061
X-00612138Y-00098841
X-00587078
X-0058814Y-00106799
X-006075Y-00124
X-0060848Y-00071659
X-0061Y-0006
X-0063
X-0063329Y-00071659
X-0065Y-0007175
Y-0006
X-0067
X-00670672Y-00075283
X-0067Y-0010997
Y-0013
X-00688581Y-00128201
X-00741609Y-00129358
Y-00141888
X-00740846Y-00154395
X-00739846Y-00166884
X-00740094Y-00178986
X-00741609Y-00116828
Y-00104298
Y-00091768
Y-00079238
Y-00066708
Y-00054178
X-00738207Y-00042119
X-00725713Y-00043066
X-0071Y-0004
X-0065
X-0063
X-0061
X-0059
Y-0006
X-0058342Y-00071659
X-0058Y-0002
Y-0001
Y0
Y0001
Y0002
X-0061025Y0003575
X-0060975Y000465
X-006295Y000525
X-0077625Y000321
Y-000079
X-0081625
Y-000479
Y-000879
Y-002079
Y-002479
X-0077625
X-00785Y-0027075
X-007815Y-00293
X-0077925Y-003125
X-0077625Y-003279
X-0073625
X-00728254Y-00318385
X-0081625Y-002879
Y000721
X-0077625
X-00768791Y00077788
Y00090318
Y00102848
X-00767868Y00115344
X-0077625Y001121
X-00764708Y00127469
X-0075975Y00138
X-00753Y00148
X-0074025Y0016
X-00721418Y00169851
X-00709246Y00172827
X-0069Y00173467
Y001825
Y00195
X-0067
Y001825
Y00173467
X-0065
Y001825
Y00195
X-0063
Y001825
Y00173467
X-0061
Y001825
Y00195
Y0021
Y0023
X-0063
X-0065
Y0025
X-0063
X-0061
X-0059
X-0058Y002575
X-0059Y0023
Y0021
Y00195
Y001825
Y00173467
Y00146286
Y0013
Y0011
Y0009
Y0007
X-0061
Y0009
X-0063
Y0007
X-0065
Y0009
X-0067
Y0007
X-0069
Y0009
X-0071
Y0007
X-0073625Y000721
X-00741609Y00084336
Y00096866
X-007415Y001105
X-00737Y0012425
X-0072575Y0013725
X-007105Y0014475
X-0071Y0013
Y0011
X-0069
X-0067
Y0013
Y00146286
X-0069
Y0013
X-0065
Y00146286
X-0063
Y0013
Y0011
X-0065
X-0061
Y0013
Y00146286
X-0063Y0021
X-00666587Y002386
X-0068Y0024
X-0071225Y002356
Y002146
X-00695Y00215
X-0073625Y002321
X-0077625
Y001921
X-0081625
Y001521
X-0077625
X-0073625Y001921
X-007575Y0026
X-00765Y0029185
Y0031
X-0075
X-00735
X-00717Y0032
Y0033
Y0034
Y003525
X-00735
X-0075
X-00765Y0034
Y00325
X-007225Y0029185
X-0071Y00263
X-0081625Y002921
Y003521
X-00765Y004175
X-0075
X-007375
X-00725
X-007275Y004275
Y00435
Y004425
Y004575
X-0074975Y004369
X-00773Y00446
X-00705Y0043
X-00695
X-0067Y0044
Y00455
X-0065625Y004321
X-0065Y00419
X-0063
X-0061
X-0059
X-00609Y0044875
X-0081625Y001121
X-0057625
X-0056Y0011
Y0013
Y00146286
X-00575
Y00173467
Y001825
Y00195
X-0056
Y001825
X-0056Y00173467
X-0054
Y001825
Y00195
X-0052
Y001825
Y00173467
X-005
Y001825
Y00195
X-0048Y00173467
X-00463333
X-00446667
X-0043
X-0041
X-004
Y0019
X-0041
X-0041225Y002146
Y002356
X-0038975Y00215
X-003825Y0019
X-00373256
Y00173467
X-003825
X-00360726
X-00348196
X-00335666
X-00323136
X-00310606
X-00298076
X-00285546
X-00273016
X-00260486
X-002425
X-0022
X-00197836
X-00185306
X-00183779Y00146286
X-00196309
X-002Y001345
Y001245
X-0019575Y0011575
X-0022025Y001155
X-0024225Y0011525
X-002425Y001245
Y001345
Y00146286
X-00259709
X-00271489
X-00284019
X-00296549
X-00309079
X-00321609
X-00334139
X-00346669
X-00359199
X-00371729
X-003825
X-004
X-0041
Y0013
Y0011
Y00095
Y0008
X-0042Y0007
X-00435Y00095
X-0043Y0011
Y0013
X-0043Y00146286
X-00446667
X-00463333
X-0048
Y0013
Y0011
X-005
Y0013
Y00146286
X-0052
Y0013
Y0011
Y0009
Y0007
X-005
X-0049
X-0047
X-0048Y0009
X-005
X-0054
Y0007
X-0056
X-0057625Y000721
X-0056Y0009
X-0054Y0011
Y0013
Y00146286
X-00545Y00215
X-0056225Y002146
Y002356
X-0057625Y002321
X-00575Y002525
Y002625
X-0057Y002575
X-0056
X-00555Y002625
Y002525
X-0055Y002575
X-00516587Y002386
X-00495Y00294505
X-004625Y00311505
Y00319
Y00325822
Y0033245
X-00501473Y00340605
X-00495Y00351495
X-0048Y0041
X-0046
X-0044
X-004375Y0042675
X-004525
X-004175
X-004
Y0041
X-0038
X-0036
X-003225
X-003025
X-002825
X-002625
X-002425
X-00225Y0042
X-002325Y0043
X-002125
X-001925
X-002525
X-002725
Y0044
X-002925Y0044
X-002925Y0043
X-003125
Y0044
X-003325Y0044
Y0043
X-00334107Y00449393
X-00328803Y00454697
X-003235Y0046
X-00375Y00452
Y00446
Y0044
X-00392Y004495
X-00402
X-00412
X-00422
X-00432
X-00422Y004595
X-00412
X-00402
X-00392
X-0042Y0041
X-004325Y00301505
Y00294505
X-00395
X-0036975
X-00347004
X-00325
X-00301375
X-002825Y00295
X-002675
X-00223Y00295221
X-00202899
X-00209587Y00229849
X-00206587Y0021335
X-0026025Y002146
Y002356
X-0029625Y001921
X-003375Y00191533
X-00360587Y002386
X-00358Y00126
X-0038Y0013
Y0011
Y0009
Y0007
X-0034025Y0008575
X-00334Y001
X-0033625Y001121
X-00321Y0011175
X-00304Y00117
X-002875Y0011725
X-0027025Y00116
X-002625Y001245
Y001345
X-00294Y00131
X-00325
X-003095Y0008425
X-0029875Y0008775
X-002845
X-002625Y000825
X-002425
X-002225
X-0021Y0008
X-002025Y0007
X-00198Y000885
X-0018725Y0007825
X-0022Y00146286
X-0031675Y0007475
X-0045Y0008
X-00455Y00191533
X-0053Y0043
X-0057Y00435
X-0057775Y004369
X-00572Y00423
X-001725Y0043
X-001525
X-001325
X-001125
X-000925
X-000725
X-000525
X-000325
X-0004509Y0045009
X-00050393Y00455393
X-00055697Y00460697
X-0006Y004475
X-0008
X-001
X-0012
X-0014
X-0017925Y0044775
X-0017Y004575
X-0014225Y00353275
X-001425Y00345
X-0014225Y003375
Y0033
Y003225
Y00315
X-001125Y003225
X-001165Y0033
X-0013Y002775
X-001375
X-00145
X-001825Y00295221
X-0017625Y001921
X-00172776Y00173467
X-00160246
X-00147716
X-00135186
X-00122656
X-00110126
X-001
X-000925
X-000775
X-00070036
X-00060006
X-0004
Y0019
X-0002
Y00173467
X0
Y0019
X000175
Y00173467
X000275
X000375
X000475
X00065294
X00077824
X00090354
X0011
Y0019
X00127944
Y00173467
X00140474
X00153004
X00165534
X00178064
X00190594
Y0019
X00176Y002136
X0016Y0021
Y00225
Y0024
X00145
Y00225
Y0021
X0013
Y00225
Y0024
X00087413Y002386
X00059Y00215
X0003775Y002146
Y002356
X0002375Y002321
X0Y0023
Y00215
X-0002
X-00079Y0021
X-00107Y002095
X-001145
Y00242
X-00107
X-00060587Y002425
X-000675Y00191533
X-0009625Y001921
X-0013625
X-00133659Y00146286
X-00146189
X-00158719
X-00171249
X-00176Y00133
X-0018Y00116
X-00166Y0011575
X-001525
X-001375Y00116
X-00123Y0011475
X-00122Y00131
X-00121129Y00146286
X-00108599
X-001
X-000925
X-00094336Y001345
Y001245
Y00112651
X-00094338Y00090551
X-00076788Y00082247
X-000775Y00075
X-000875Y0007
X-0011
X-0012775Y0007725
X-00139Y0007475
X-0015275Y0007675
X-00147Y000875
X-00121Y000885
X-001685Y0007825
X-001815Y000725
X-0006Y000775
X-00064886Y00086165
X-00039963Y00088009
X-0004Y0008
X-0002
X-0003Y0007
X-0001
X0Y0008
X-00002373Y00088009
X00022687
X000225Y0008
X0002375Y000721
X0001Y0007
X00045Y000775
X00047747Y00088009
X00035217
X00041335Y00115191
X00028805
X00018025
X000225Y001245
Y001345
X000275Y00146286
X000375
X000475
X00045Y001345
Y001245
X00065
Y001345
X00066821Y00146286
X00079351
X00091881
X0011
X001075Y001345
Y001245
X00103985Y00115191
X00091455
X00078925
X00066395
X00072807Y00088009
X00085337
X00097867
X00110397
X0010375Y000721
X001275
X0014375
X00147987Y00088009
X00135457
X00160517
X00173047
X00185577
X00195Y000825
Y000725
X0018375Y000721
X00179165Y00115191
X00191695
X00195Y001245
Y001345
X00192121Y00146286
X00179591
X00167061
X00154531
X00142001
X00129471
X001275Y001345
Y001245
X00129045Y00115191
X00141575
X00154105
X00166635
X0014375Y001921
X00176Y002366
X00206Y00215
X00205Y002925
X00195
X00185
X00175
X00165
X00155
X00145
X00135
X001375Y0032
X001275
X001175
X001025Y00295
X00099903Y0035975
X00111933
X00102503Y00450196
X00092503
X00082503
X00125Y0045
X001375Y004625
X0015Y004495
X001575
X0017Y0045
X0018
X0019
X00165Y00443
Y00431
X00158Y00437
Y00425
X000475
X0004Y0043
X00035Y004375
Y004475
X000425Y0032
X0004Y002775
X000475
X000325
X00065294Y0019
X000175Y00146286
X0
Y001345
Y001245
Y00115191
X-00021315
X-0002Y001245
Y001345
Y00146286
X-0004
Y001345
Y001245
X-000395Y0011475
X-00058905Y00115191
X-00075Y001245
Y001345
X-000775Y00146286
X-00068509
X-00058479
X00217181
X00215Y001345
Y001245
X00216755Y00115191
X00235Y001245
Y001345
Y00146286
X00254771
X00255Y001345
Y001245
X00254345Y00115191
X00279404Y0011505
X002775Y001245
Y001345
X00279831Y00146286
X00292361
X00304891
X00317421
X00329951
X00342481
X00355011
X00367541
X00380071
X0038Y001345
Y001245
X00371993Y00112484
X00361203Y00106113
X00350601Y00099435
X0034375Y001121
X0033225Y0008825
X003325Y00079
X00312995Y00099164
X00302297Y00105686
X00291613Y00112233
X00285308Y00084472
X002775Y0008
X0028Y0006875
X00288396Y00072329
X00255Y000725
Y000825
X00235
Y000725
X00215
Y000825
X00215654Y00173467
Y0019
X00235
Y00173467
X00253244
Y0019
X00275Y00189033
X00278304Y00173467
X00290834
X00303364
X00315894
X00328424
X00340954
X00353484
X00366014
X00378544
X0038Y00189033
X003975Y00173467
X00406104
X00416134
X00428664
X00441194
X00453724
X00466254
X00478784
X00491314
X005025
X00518874
Y0019
X005025
X00516Y002136
X00484
Y002366
X0046375Y001921
X0042375
X00396Y00215
X00389413Y002386
X00333Y002366
Y002136
X0034375Y001921
X0030375
X00305Y00295
X00325
X00345
X00365
X00385
X00405
X00425
X00445
X00465
X004875Y0031
X004975
X005075
X005175
Y0035
X005075
X004975
X004875
X0050375Y004321
X0046375
X0042375
X0034375
X0035Y00455
X00295Y0046
X0027
X0024475Y00457
X0022Y0045
X00285Y00295
X00233413Y002386
X003975Y00146286
X00407631
X00417661
X00430191
X00442721
X00455251
X00467781
X00480311
X00492841
X005025
X00517901
X0052Y001355
Y001255
X00522076Y00115191
X00497016
X00495Y001255
Y001355
X00484486Y00115191
X00471956
X00459426
X00446896
X00434366
X00421836
X00409306
X00396776
X004025Y001245
Y001345
X00401597Y00088009
X004025Y0008
Y0007
X0038
Y0008
X00414127Y00088009
X00426657
X00439187
X00451717
X00464247
X00476777
X00489307
X00501837
X00519Y0008725
X0052Y00075
X005375Y00072
X005505
X005625Y00075
X00564487Y00088009
X0057775Y0008775
X00588139Y0008224
X0058375Y000721
X00596964Y00073345
X00605Y00104
X00590233Y00113044
X00577884Y00115164
X00559666Y00115191
X005625Y001255
Y001355
X005575Y00146286
X00568021
X00580551
X00593081
X00605611
X00604084Y00173467
X00591554
X00579024
X00566494
X005575
X00541434
Y0019
X00579024
X0059Y0021
Y00225
Y0024
X00605
Y00225
Y0021
X00542413Y0025
X00542961Y00146286
X0054Y001355
Y001255
X00539427Y00088009
X00495Y00075
X0046375Y000721
X0042375
X005925Y004475
X006025
X006125
X006225
X006325
X006425
X006525
X006625
X006725
X006825
X006925
X007025
X007125
X007225
X007325
X0074375Y004321
X0078375
X00795Y003725
Y003425
X0078Y0034
Y003325
Y00325
Y003175
X007975Y00295
X0078375Y002721
Y002321
Y001921
X0074375
X00729189Y00187531
Y00170998
X0074575Y0016575
X007575Y0015825
X00766Y001495
X007715Y0014025
X00775489Y00131743
X00779631Y00119918
X00781604Y00107544
X00781841Y00095016
Y00082486
Y00069956
X0075466Y00075756
Y00088286
X00753Y0010025
X0075175Y0011225
X0074675Y00125
X00739Y00135
X0073Y0013
Y0012
Y0011
Y001
Y0009
Y0008
Y0007
X0074375Y000721
X007025Y00075
Y00085
Y00095
Y00105
Y00115
Y00125
Y00135
X007075Y00146286
X00693321
X00680791
X00668261
X006525
X00643201
X00630671
X00618141
X00616614Y00173467
X00629144
X00641674
X006525
X00666734
X00679264
X00691794
X00699324
X007075
Y0019
X00666734
X006525
X00629144
X00616614
X0062Y0021
Y00225
Y0024
X00664226Y002136
X00690413Y002386
X0070825Y0025605
X00705Y0027
X0069Y0028
X006925Y003125
X007375Y0029
X0074375Y002721
Y002321
X00727Y0014275
X00715647Y001169
X00675Y00115
Y00105
Y00095
Y00085
Y00075
X00645
Y00085
Y00095
Y00105
Y00115
Y00125
Y00135
X00675
Y00125
X0061725Y0009175
X00625059Y00078431
X00627333Y00066109
X0082375Y000721
Y001121
Y001521
X0078375
X0082375Y001921
Y002721
Y003121
Y003521
Y003921
X0062375Y004321
X0074375Y004721
X0074Y00485
X0075
X0076
Y00495
Y00505
X0075
Y00515
X0076
Y00525
X0078375Y005121
Y004721
X0082375
Y005121
X0075Y00495
X0074
X0073
X0078375Y005921
Y006321
X0046375Y005521
Y005121
Y004721
X0042375
X0038375
X0035Y0047
Y00485
X0034275Y00497243
X00333059Y005025
X00345Y0051
Y0052
Y0053
X00305
Y0052
X0031Y0051
X003025Y00495
X0031Y004875
X00295Y005025
Y0047
X0027
X0024725Y0046575
X002495Y0047675
X0025625Y00484
X00254Y00503
X00265Y00507
X002595Y00534603
X00253
X00245753
X002375Y00525
Y005175
X0023725Y0049525
X002285Y004875
X0021925Y00479
X0026875Y0055925
X00275753Y00559335
X0026Y0057
Y0058
X0031Y0057
Y0056
X00318Y0055775
X00325Y00557243
X003725Y00555
Y00565
Y00575
Y00585
Y00545
X0038375Y005121
X0042375
Y005521
X0050375Y005121
Y004721
X00205Y00465
X0019
X00175
X0016
X00145
X0014Y00495
X0015
X0016
X0017
X0018
X0019
X002
X0013Y00496347
X00082503
Y00506347
Y00516347
X00072503
X00062503
Y00506347
Y00496347
X00072503
Y00506347
X00026Y005045
X0002075Y0050775
X00012503Y00488
X-000075Y00495
Y00505
X-000175
X-00025Y005125
Y004975
X-000175Y0049
X-000325Y00505
X-0004Y005125
X-000625Y00495
X-00055Y004825
X-00045Y004725
X-00060467Y00465967
X-0006577Y0047127
X-00071073Y00476573
X-00076377Y00481877
X-0008168Y0048718
X-00086983Y00492483
X-00092287Y00497787
X-0009759Y0050309
X-00102893Y00508393
X-00108197Y00513697
X-001135Y00519
X-00121Y00523
X-001285
X-00136
X-001435
Y005305
Y00538
Y005455
Y00553
Y005605
Y00568
Y005755
Y00583
Y005905
Y00598
Y006055
Y0061225
X-00151
X-001585
X-00174
X-00181
X-00168Y00606
X-001325Y0061
X-0012Y00595
X-0009625Y005921
X-001125Y005725
X-000775Y0057
X-00037497Y00572597
X-00032497Y00577597
Y00567597
X-00027497Y00562597
X-00022497Y00557597
X-00017497Y00552597
X-00012497Y00547597
X-00002497
X00002503Y00552597
X-00007497Y00542597
X00017503Y00567597
X00022503Y00572597
X00027503Y00577597
X00022503Y00582597
X00017503Y00587597
X00012503Y00592597
X00007503Y00597597
X00002503Y00602597
X-00002497Y00607597
X-00007497Y00602597
X-00012497Y00597597
X-00017497Y00592597
X-00022497Y00587597
X-00027497Y00582597
X-0003Y00605
X-0003Y006616
X-0005
X-0007
X-0009
X-0011
X-0013
X-0015
X-0017
X-0017Y00525
X-0018
X-001825Y0049
X-0016875Y0049575
X-001525Y005
X-001375Y00505
X-001225Y0051
X-00125Y0054
X-0009Y005225
X0003625Y0056575
X000425Y005625
X000415Y0057275
X0004675Y00577
X000525Y005725
X0005325Y0058225
X00057706Y00587987
X0005Y0059
X00045Y005975
X00035Y006075
X000275Y0061
X0003Y006616
X0005
X0001
X-0001
X001Y006175
X001075Y0061
X0011Y006
Y0059
X00108Y0058125
X001095Y00574
X00115Y0056825
X001025Y005625
X0009225
X000825
X000725
X0014375Y005921
Y006321
X001575Y006325
X0018375Y006321
X001725Y00615
X-001885Y0061225
X-00196
X-00201Y0059775
X-0019375Y0059325
X-002Y00585
X-0020625Y0058
Y0057
X-002Y00565
X-002125Y005525
X-002225
X-002275Y00544625
X-002175
X-00235Y00525
Y00515
X-0024425
Y00505
X-00235
Y00495
X-0024425
X-00264625Y004975
X-00269Y004925
X-0028025Y004975
X-00291Y00506304
X-002985
X-00312535Y005045
X-00316Y0051975
X-003235
X-00333Y00521
X-0033875Y0052925
Y00538
X-0033Y00549
Y00558
Y00567
X-003305Y00578413
X-003385Y005755
Y00583
Y00598
Y006055
X-00338Y0061225
X-003235
X-00316
X-003085Y00613
X-00301
X-002935
X-00286
X-002785
X-00271
X-002635
X-00238Y00606
X-00228
X-0024Y0058
X-002585Y005645
X-002855Y0056625
X-00288197Y00543303
X-00280697
X-00273197
X-00276Y00521
X-00264625Y005175
Y005075
X-00245Y00525
X-00293Y00522
X-00301Y0051975
X-003085
X-00307Y00555
Y00575
Y00581
X-0031Y006616
X-0029
X-0027
X-0025
X-0023
X-0021
X-0019
X-0033
X-0035
X-00399Y00621
X-004085
X-0041625Y005921
X-0045625
X-0049625
X-005Y0058225
Y0057
Y00558
Y005465
X-0052
Y00558
Y0057
Y0058225
X-005275Y006025
X-004825Y0057
X-005Y0052
X-0049625Y005121
X-005Y005
X-0052Y0049
Y0051
X-0053625Y005121
X-0052Y0053
X-0057775Y005269
Y0055427
X-0057775Y005629
X-0057625Y006321
X-0057775Y004729
X-0057775Y0046427
X-0053625Y0047675
X-004575Y0049
X-0045Y00485
X-00442Y00483625
X-00437Y00479625
X-00432Y00483625
X-0042525Y00475429
X-00412Y004795
X-00402
Y004695
X-00412
X-00392
Y004795
Y004895
X-00401125Y005085
X-00406125Y005045
X-0042325Y00514197
X-0043075
X-0043825
X-004345Y005195
X-00427
X-00442
X-00442Y00535375
X-00432Y00535375
X-004345Y005465
X-00424Y00546875
X-00415Y00544
X-00396Y00545
X-0039675Y00536
X-0040775Y005305
X-0045Y005325
X-00464795Y0051142
X-0046475Y00504
X-003575Y00485
X-003625Y00475
X-003475
X-00339Y00482
X-003175Y0047175
X-0030775Y004715
X-00262Y00469
X-0020125Y0047075
X-001925Y0048
X-0059Y00505
X-006
Y00515
Y00525
X-00608Y00538
X-0061625Y005121
X-0061Y00505
X-0063875Y005004
Y004904
X-0067Y00494
Y005225
Y005325
Y00545
Y00555
Y005675
X-0068195Y0056695
X-006875Y005865
X-0067
X-0064Y0057475
X-0065555Y0055425
X-006925Y0053
X-007025
Y0052
X-006925
X-00691Y0050175
X-00716Y00504
X-00733
X-0073Y005175
Y00525
Y005325
Y005475
Y00555
X-0075975Y0055427
X-007755Y00545
Y0053
X-0074975Y005269
X-00751Y00504
X-0075975Y00491489
Y00473489
Y0046427
X-007275Y00465
X-0068195Y0047695
X-0065555Y0046425
X-0081625Y004721
Y005121
Y005521
X-0076Y005825
X-0077625Y006321
X-0073625
X-0069625
X-0065625
X-0061625
X-0062Y0061175
X-006225Y006
X-00605
X-006025Y0061175
X-005825
X-00585Y006
T02
X-00849858Y-00508542
X-0086Y-004904
X-0086Y-004704
Y-004504
Y-004304
Y-004104
Y-003904
Y-003704
Y-003504
X-0083Y-005204
X-0081Y-005204
X-0079
X-0077
X-0075
X-0071
X-0063
X-0059
X-0057
X-0055
X-0053
X-0051
X-0049
X-0041
X-0039
X-0037
X-0035
X-0033
X-0031
X-0029
X-0027
X-0025
X-0019
X-0017
X-0015
X-0013
X-0011
X-0009
X-0007
X-0005
X-0003
X-0001
X0001
X0003
X0005
X0007
X0009
X0011
X0013
X0015
X0017
X0019
X0025
X0027
X0029
X0031
X0033
X0035
X0037
X0039
X0041
X0049
X0051
X0053
X0055
X0057
X0059
X0063
X0071
X0075
X0077
X0079
X0081
X0083Y-005204
X00848142Y-00510258
X0086Y-004904
X0086Y-004704
Y-004504
Y-004304
Y-004104
Y-003904
Y-003704
Y-003504
Y-003304
Y-003104
Y-002904
Y-002704
Y-002504
Y-002304
Y-002104
Y-001904
Y-001704
Y-001504
Y-001304
Y-001104
Y-000904
Y-000704
Y-000504
Y-000304
Y-000104
X0086Y000096
Y000296
X0086Y000496
X-0086
X-0086Y000296
Y000096
X-0086Y-000104
Y-000304
Y-000504
Y-000704
Y-000904
Y-001104
Y-001304
Y-001504
Y-001704
Y-001904
Y-002104
Y-002304
Y-002504
Y-002704
Y-002904
Y-003104
Y-003304
Y000696
Y000896
Y001096
Y001296
Y001496
Y001696
Y001896
Y002096
Y002296
Y002496
Y002696
Y002896
Y003096
Y003296
Y003496
Y003696
Y003896
Y004096
Y004296
Y004496
X0086
Y004296
Y004096
Y003896
Y003696
Y003496
Y003296
Y003096
Y002896
Y002696
Y002496
Y002296
Y002096
Y001896
Y001696
Y001496
Y001296
Y001096
Y000896
Y000696
Y004696
Y004896
Y005096
Y005296
Y005496
Y005696
Y005896
Y006096
X0086Y006296
X00849858Y00647742
X0083Y006596
X0081Y006596
X0079
X0077
X0075
X0073
X0071
X0069
X0067
X0065
X0063
X0061
X0059
X0057
X0055
X0053
X0051
X0049
X0047
X0045
X0043
X0041
X0039
X00374999Y00659999
X0035Y006596
X0033
X0031
X0029
X0027
X0025
X0023
X0021
X0019
X0017
X0015
X0013
X0011
X0009
X0007
X-0037
X-00387999Y00659999
X-0041Y006596
X-0043
X-0045
X-0047
X-0049
X-0051
X-0053
X-0055
X-0057
X-0059
X-0061
X-0063
X-0065
X-0067
X-0069
X-0071
X-0073
X-0075
X-0077
X-0079
X-0081
X-0083
X-00848142Y00649458
X-0086Y006296
Y006096
Y005896
Y005696
Y005496
Y005296
Y005096
Y004896
Y004696
T03
X00225884Y006027
X0025357
X00281256
X00308942
X00336628
X00364314
X00392
X00378284Y00631148
X00350598
X00322912
X00295226
X0026754
X00239854
X00212168
X00198198Y006027
T04
X-00815Y-004754
X-0073Y-004904
X-0061
X-00815Y-003479
X-00505Y-004904
X-00385
X-0028
X-0016
X0Y-003479
X0016Y-004904
X0028
X00385
X00505
X0061
X0073
X00815Y-004754
Y-003479
Y-001554
Y000371
X0Y0
X-00815Y000371
Y-001554
Y002296
Y004221
X-00451375Y002296
X-00301375
X0Y00449
X00298625Y002296
X00448625
X00815
Y004221
Y006146
X-00815Y006146
M30
